<?xml version="1.0" encoding="utf-8" standalone="no"?>
<!DOCTYPE svg PUBLIC "-//W3C//DTD SVG 1.1//EN"
  "http://www.w3.org/Graphics/SVG/1.1/DTD/svg11.dtd">
<!-- Created with matplotlib (https://matplotlib.org/) -->
<svg height="720pt" version="1.1" viewBox="0 0 1080 720" width="1080pt" xmlns="http://www.w3.org/2000/svg" xmlns:xlink="http://www.w3.org/1999/xlink">
 <defs>
  <style type="text/css">
*{stroke-linecap:butt;stroke-linejoin:round;}
  </style>
 </defs>
 <g id="figure_1">
  <g id="patch_1">
   <path d="M 0 720 
L 1080 720 
L 1080 0 
L 0 0 
z
" style="fill:#ffffff;"/>
  </g>
  <g id="axes_1">
   <g id="patch_2">
    <path d="M 98.544 464.32 
L 880.920732 464.32 
L 880.920732 19.44 
L 98.544 19.44 
z
" style="fill:#ffffff;"/>
   </g>
   <g id="patch_3">
    <path clip-path="url(#p28cf1b7c34)" d="M 134.106579 80.927316 
L 146.16169 80.927316 
L 146.16169 202.101374 
L 134.106579 202.101374 
z
" style="fill:url(#h11a90d3c98);stroke:#ffffff;stroke-linejoin:miter;stroke-width:1.5;"/>
   </g>
   <g id="patch_4">
    <path clip-path="url(#p28cf1b7c34)" d="M 182.327025 80.927316 
L 194.382136 80.927316 
L 194.382136 272.131301 
L 182.327025 272.131301 
z
" style="fill:url(#h11a90d3c98);stroke:#ffffff;stroke-linejoin:miter;stroke-width:1.5;"/>
   </g>
   <g id="patch_5">
    <path clip-path="url(#p28cf1b7c34)" d="M 230.54747 80.927316 
L 242.602582 80.927316 
L 242.602582 283.146707 
L 230.54747 283.146707 
z
" style="fill:url(#h11a90d3c98);stroke:#ffffff;stroke-linejoin:miter;stroke-width:1.5;"/>
   </g>
   <g id="patch_6">
    <path clip-path="url(#p28cf1b7c34)" d="M 278.767916 80.927316 
L 290.823027 80.927316 
L 290.823027 263.957718 
L 278.767916 263.957718 
z
" style="fill:url(#h11a90d3c98);stroke:#ffffff;stroke-linejoin:miter;stroke-width:1.5;"/>
   </g>
   <g id="patch_7">
    <path clip-path="url(#p28cf1b7c34)" d="M 326.988362 80.927316 
L 339.043473 80.927316 
L 339.043473 196.221196 
L 326.988362 196.221196 
z
" style="fill:url(#h11a90d3c98);stroke:#ffffff;stroke-linejoin:miter;stroke-width:1.5;"/>
   </g>
   <g id="patch_8">
    <path clip-path="url(#p28cf1b7c34)" d="M 375.208808 80.927316 
L 387.263919 80.927316 
L 387.263919 243.176188 
L 375.208808 243.176188 
z
" style="fill:url(#h11a90d3c98);stroke:#ffffff;stroke-linejoin:miter;stroke-width:1.5;"/>
   </g>
   <g id="patch_9">
    <path clip-path="url(#p28cf1b7c34)" d="M 423.429253 80.927316 
L 435.484365 80.927316 
L 435.484365 228.452325 
L 423.429253 228.452325 
z
" style="fill:url(#h11a90d3c98);stroke:#ffffff;stroke-linejoin:miter;stroke-width:1.5;"/>
   </g>
   <g id="patch_10">
    <path clip-path="url(#p28cf1b7c34)" d="M 471.649699 80.927316 
L 483.70481 80.927316 
L 483.70481 232.732677 
L 471.649699 232.732677 
z
" style="fill:url(#h11a90d3c98);stroke:#ffffff;stroke-linejoin:miter;stroke-width:1.5;"/>
   </g>
   <g id="patch_11">
    <path clip-path="url(#p28cf1b7c34)" d="M 519.870145 80.927316 
L 531.925256 80.927316 
L 531.925256 284.525516 
L 519.870145 284.525516 
z
" style="fill:url(#h11a90d3c98);stroke:#ffffff;stroke-linejoin:miter;stroke-width:1.5;"/>
   </g>
   <g id="patch_12">
    <path clip-path="url(#p28cf1b7c34)" d="M 568.090591 80.927316 
L 580.145702 80.927316 
L 580.145702 289.467677 
L 568.090591 289.467677 
z
" style="fill:url(#h11a90d3c98);stroke:#ffffff;stroke-linejoin:miter;stroke-width:1.5;"/>
   </g>
   <g id="patch_13">
    <path clip-path="url(#p28cf1b7c34)" d="M 616.311036 80.927316 
L 628.366148 80.927316 
L 628.366148 390.463028 
L 616.311036 390.463028 
z
" style="fill:url(#h11a90d3c98);stroke:#ffffff;stroke-linejoin:miter;stroke-width:1.5;"/>
   </g>
   <g id="patch_14">
    <path clip-path="url(#p28cf1b7c34)" d="M 664.531482 80.927316 
L 676.586594 80.927316 
L 676.586594 225.497996 
L 664.531482 225.497996 
z
" style="fill:url(#h11a90d3c98);stroke:#ffffff;stroke-linejoin:miter;stroke-width:1.5;"/>
   </g>
   <g id="patch_15">
    <path clip-path="url(#p28cf1b7c34)" d="M 712.751928 80.927316 
L 724.807039 80.927316 
L 724.807039 228.690875 
L 712.751928 228.690875 
z
" style="fill:url(#h11a90d3c98);stroke:#ffffff;stroke-linejoin:miter;stroke-width:1.5;"/>
   </g>
   <g id="patch_16">
    <path clip-path="url(#p28cf1b7c34)" d="M 760.972374 80.927316 
L 773.027485 80.927316 
L 773.027485 210.024503 
L 760.972374 210.024503 
z
" style="fill:url(#h11a90d3c98);stroke:#ffffff;stroke-linejoin:miter;stroke-width:1.5;"/>
   </g>
   <g id="patch_17">
    <path clip-path="url(#p28cf1b7c34)" d="M 809.192819 80.927316 
L 821.247931 80.927316 
L 821.247931 222.974355 
L 809.192819 222.974355 
z
" style="fill:url(#h11a90d3c98);stroke:#ffffff;stroke-linejoin:miter;stroke-width:1.5;"/>
   </g>
   <g id="patch_18">
    <path clip-path="url(#p28cf1b7c34)" d="M 146.16169 80.927316 
L 158.216802 80.927316 
L 158.216802 97.345787 
L 146.16169 97.345787 
z
" style="fill:url(#hbb1e1460aa);stroke:#ffffff;stroke-linejoin:miter;stroke-width:1.5;"/>
   </g>
   <g id="patch_19">
    <path clip-path="url(#p28cf1b7c34)" d="M 194.382136 80.927316 
L 206.437247 80.927316 
L 206.437247 186.825206 
L 194.382136 186.825206 
z
" style="fill:url(#hbb1e1460aa);stroke:#ffffff;stroke-linejoin:miter;stroke-width:1.5;"/>
   </g>
   <g id="patch_20">
    <path clip-path="url(#p28cf1b7c34)" d="M 242.602582 80.927316 
L 254.657693 80.927316 
L 254.657693 198.531585 
L 242.602582 198.531585 
z
" style="fill:url(#hbb1e1460aa);stroke:#ffffff;stroke-linejoin:miter;stroke-width:1.5;"/>
   </g>
   <g id="patch_21">
    <path clip-path="url(#p28cf1b7c34)" d="M 290.823027 80.927316 
L 302.878139 80.927316 
L 302.878139 190.556908 
L 290.823027 190.556908 
z
" style="fill:url(#hbb1e1460aa);stroke:#ffffff;stroke-linejoin:miter;stroke-width:1.5;"/>
   </g>
   <g id="patch_22">
    <path clip-path="url(#p28cf1b7c34)" d="M 339.043473 80.927316 
L 351.098585 80.927316 
L 351.098585 135.658188 
L 339.043473 135.658188 
z
" style="fill:url(#hbb1e1460aa);stroke:#ffffff;stroke-linejoin:miter;stroke-width:1.5;"/>
   </g>
   <g id="patch_23">
    <path clip-path="url(#p28cf1b7c34)" d="M 387.263919 80.927316 
L 399.31903 80.927316 
L 399.31903 167.298469 
L 387.263919 167.298469 
z
" style="fill:url(#hbb1e1460aa);stroke:#ffffff;stroke-linejoin:miter;stroke-width:1.5;"/>
   </g>
   <g id="patch_24">
    <path clip-path="url(#p28cf1b7c34)" d="M 435.484365 80.927316 
L 447.539476 80.927316 
L 447.539476 147.964762 
L 435.484365 147.964762 
z
" style="fill:url(#hbb1e1460aa);stroke:#ffffff;stroke-linejoin:miter;stroke-width:1.5;"/>
   </g>
   <g id="patch_25">
    <path clip-path="url(#p28cf1b7c34)" d="M 483.70481 80.927316 
L 495.759922 80.927316 
L 495.759922 167.268801 
L 483.70481 167.268801 
z
" style="fill:url(#hbb1e1460aa);stroke:#ffffff;stroke-linejoin:miter;stroke-width:1.5;"/>
   </g>
   <g id="patch_26">
    <path clip-path="url(#p28cf1b7c34)" d="M 531.925256 80.927316 
L 543.980368 80.927316 
L 543.980368 210.409934 
L 531.925256 210.409934 
z
" style="fill:url(#hbb1e1460aa);stroke:#ffffff;stroke-linejoin:miter;stroke-width:1.5;"/>
   </g>
   <g id="patch_27">
    <path clip-path="url(#p28cf1b7c34)" d="M 580.145702 80.927316 
L 592.200813 80.927316 
L 592.200813 231.82672 
L 580.145702 231.82672 
z
" style="fill:url(#hbb1e1460aa);stroke:#ffffff;stroke-linejoin:miter;stroke-width:1.5;"/>
   </g>
   <g id="patch_28">
    <path clip-path="url(#p28cf1b7c34)" d="M 628.366148 80.927316 
L 640.421259 80.927316 
L 640.421259 340.043607 
L 628.366148 340.043607 
z
" style="fill:url(#hbb1e1460aa);stroke:#ffffff;stroke-linejoin:miter;stroke-width:1.5;"/>
   </g>
   <g id="patch_29">
    <path clip-path="url(#p28cf1b7c34)" d="M 676.586594 80.927316 
L 688.641705 80.927316 
L 688.641705 160.495992 
L 676.586594 160.495992 
z
" style="fill:url(#hbb1e1460aa);stroke:#ffffff;stroke-linejoin:miter;stroke-width:1.5;"/>
   </g>
   <g id="patch_30">
    <path clip-path="url(#p28cf1b7c34)" d="M 724.807039 80.927316 
L 736.862151 80.927316 
L 736.862151 172.115184 
L 724.807039 172.115184 
z
" style="fill:url(#hbb1e1460aa);stroke:#ffffff;stroke-linejoin:miter;stroke-width:1.5;"/>
   </g>
   <g id="patch_31">
    <path clip-path="url(#p28cf1b7c34)" d="M 773.027485 80.927316 
L 785.082596 80.927316 
L 785.082596 165.05641 
L 773.027485 165.05641 
z
" style="fill:url(#hbb1e1460aa);stroke:#ffffff;stroke-linejoin:miter;stroke-width:1.5;"/>
   </g>
   <g id="patch_32">
    <path clip-path="url(#p28cf1b7c34)" d="M 821.247931 80.927316 
L 833.303042 80.927316 
L 833.303042 199.442994 
L 821.247931 199.442994 
z
" style="fill:url(#hbb1e1460aa);stroke:#ffffff;stroke-linejoin:miter;stroke-width:1.5;"/>
   </g>
   <g id="patch_33">
    <path clip-path="url(#p28cf1b7c34)" d="M 158.216802 80.927316 
L 170.271913 80.927316 
L 170.271913 69.029068 
L 158.216802 69.029068 
z
" style="fill:#e15759;"/>
   </g>
   <g id="patch_34">
    <path clip-path="url(#p28cf1b7c34)" d="M 206.437247 80.927316 
L 218.492359 80.927316 
L 218.492359 93.072073 
L 206.437247 93.072073 
z
" style="fill:#e15759;"/>
   </g>
   <g id="patch_35">
    <path clip-path="url(#p28cf1b7c34)" d="M 254.657693 80.927316 
L 266.712805 80.927316 
L 266.712805 84.585145 
L 254.657693 84.585145 
z
" style="fill:#e15759;"/>
   </g>
   <g id="patch_36">
    <path clip-path="url(#p28cf1b7c34)" d="M 302.878139 80.927316 
L 314.93325 80.927316 
L 314.93325 103.825865 
L 302.878139 103.825865 
z
" style="fill:#e15759;"/>
   </g>
   <g id="patch_37">
    <path clip-path="url(#p28cf1b7c34)" d="M 351.098585 80.927316 
L 363.153696 80.927316 
L 363.153696 110.240296 
L 351.098585 110.240296 
z
" style="fill:#e15759;"/>
   </g>
   <g id="patch_38">
    <path clip-path="url(#p28cf1b7c34)" d="M 399.31903 80.927316 
L 411.374142 80.927316 
L 411.374142 88.134274 
L 399.31903 88.134274 
z
" style="fill:#e15759;"/>
   </g>
   <g id="patch_39">
    <path clip-path="url(#p28cf1b7c34)" d="M 447.539476 80.927316 
L 459.594588 80.927316 
L 459.594588 97.291623 
L 447.539476 97.291623 
z
" style="fill:#e15759;"/>
   </g>
   <g id="patch_40">
    <path clip-path="url(#p28cf1b7c34)" d="M 495.759922 80.927316 
L 507.815033 80.927316 
L 507.815033 106.634316 
L 495.759922 106.634316 
z
" style="fill:#e15759;"/>
   </g>
   <g id="patch_41">
    <path clip-path="url(#p28cf1b7c34)" d="M 543.980368 80.927316 
L 556.035479 80.927316 
L 556.035479 107.669727 
L 543.980368 107.669727 
z
" style="fill:#e15759;"/>
   </g>
   <g id="patch_42">
    <path clip-path="url(#p28cf1b7c34)" d="M 592.200813 80.927316 
L 604.255925 80.927316 
L 604.255925 134.411321 
L 592.200813 134.411321 
z
" style="fill:#e15759;"/>
   </g>
   <g id="patch_43">
    <path clip-path="url(#p28cf1b7c34)" d="M 640.421259 80.927316 
L 652.476371 80.927316 
L 652.476371 115.983011 
L 640.421259 115.983011 
z
" style="fill:#e15759;"/>
   </g>
   <g id="patch_44">
    <path clip-path="url(#p28cf1b7c34)" d="M 688.641705 80.927316 
L 700.696816 80.927316 
L 700.696816 101.617728 
L 688.641705 101.617728 
z
" style="fill:#e15759;"/>
   </g>
   <g id="patch_45">
    <path clip-path="url(#p28cf1b7c34)" d="M 736.862151 80.927316 
L 748.917262 80.927316 
L 748.917262 117.066492 
L 736.862151 117.066492 
z
" style="fill:#e15759;"/>
   </g>
   <g id="patch_46">
    <path clip-path="url(#p28cf1b7c34)" d="M 785.082596 80.927316 
L 797.137708 80.927316 
L 797.137708 134.183424 
L 785.082596 134.183424 
z
" style="fill:#e15759;"/>
   </g>
   <g id="patch_47">
    <path clip-path="url(#p28cf1b7c34)" d="M 833.303042 80.927316 
L 845.358154 80.927316 
L 845.358154 148.428612 
L 833.303042 148.428612 
z
" style="fill:#e15759;"/>
   </g>
   <g id="matplotlib.axis_1">
    <g id="xtick_1">
     <g id="line2d_1">
      <defs>
       <path d="M 0 0 
L 0 9 
" id="m2038e68495" style="stroke:#000000;stroke-width:1.875;"/>
      </defs>
      <g>
       <use style="stroke:#000000;stroke-width:1.875;" x="152.189246" xlink:href="#m2038e68495" y="464.32"/>
      </g>
     </g>
     <g id="text_1">
      <!-- Height (UKBB) -->
      <defs>
       <path d="M 9.8125 72.90625 
L 19.671875 72.90625 
L 19.671875 43.015625 
L 55.515625 43.015625 
L 55.515625 72.90625 
L 65.375 72.90625 
L 65.375 0 
L 55.515625 0 
L 55.515625 34.71875 
L 19.671875 34.71875 
L 19.671875 0 
L 9.8125 0 
z
" id="DejaVuSans-72"/>
       <path d="M 56.203125 29.59375 
L 56.203125 25.203125 
L 14.890625 25.203125 
Q 15.484375 15.921875 20.484375 11.0625 
Q 25.484375 6.203125 34.421875 6.203125 
Q 39.59375 6.203125 44.453125 7.46875 
Q 49.3125 8.734375 54.109375 11.28125 
L 54.109375 2.78125 
Q 49.265625 0.734375 44.1875 -0.34375 
Q 39.109375 -1.421875 33.890625 -1.421875 
Q 20.796875 -1.421875 13.15625 6.1875 
Q 5.515625 13.8125 5.515625 26.8125 
Q 5.515625 40.234375 12.765625 48.109375 
Q 20.015625 56 32.328125 56 
Q 43.359375 56 49.78125 48.890625 
Q 56.203125 41.796875 56.203125 29.59375 
z
M 47.21875 32.234375 
Q 47.125 39.59375 43.09375 43.984375 
Q 39.0625 48.390625 32.421875 48.390625 
Q 24.90625 48.390625 20.390625 44.140625 
Q 15.875 39.890625 15.1875 32.171875 
z
" id="DejaVuSans-101"/>
       <path d="M 9.421875 54.6875 
L 18.40625 54.6875 
L 18.40625 0 
L 9.421875 0 
z
M 9.421875 75.984375 
L 18.40625 75.984375 
L 18.40625 64.59375 
L 9.421875 64.59375 
z
" id="DejaVuSans-105"/>
       <path d="M 45.40625 27.984375 
Q 45.40625 37.75 41.375 43.109375 
Q 37.359375 48.484375 30.078125 48.484375 
Q 22.859375 48.484375 18.828125 43.109375 
Q 14.796875 37.75 14.796875 27.984375 
Q 14.796875 18.265625 18.828125 12.890625 
Q 22.859375 7.515625 30.078125 7.515625 
Q 37.359375 7.515625 41.375 12.890625 
Q 45.40625 18.265625 45.40625 27.984375 
z
M 54.390625 6.78125 
Q 54.390625 -7.171875 48.1875 -13.984375 
Q 42 -20.796875 29.203125 -20.796875 
Q 24.46875 -20.796875 20.265625 -20.09375 
Q 16.0625 -19.390625 12.109375 -17.921875 
L 12.109375 -9.1875 
Q 16.0625 -11.328125 19.921875 -12.34375 
Q 23.78125 -13.375 27.78125 -13.375 
Q 36.625 -13.375 41.015625 -8.765625 
Q 45.40625 -4.15625 45.40625 5.171875 
L 45.40625 9.625 
Q 42.625 4.78125 38.28125 2.390625 
Q 33.9375 0 27.875 0 
Q 17.828125 0 11.671875 7.65625 
Q 5.515625 15.328125 5.515625 27.984375 
Q 5.515625 40.671875 11.671875 48.328125 
Q 17.828125 56 27.875 56 
Q 33.9375 56 38.28125 53.609375 
Q 42.625 51.21875 45.40625 46.390625 
L 45.40625 54.6875 
L 54.390625 54.6875 
z
" id="DejaVuSans-103"/>
       <path d="M 54.890625 33.015625 
L 54.890625 0 
L 45.90625 0 
L 45.90625 32.71875 
Q 45.90625 40.484375 42.875 44.328125 
Q 39.84375 48.1875 33.796875 48.1875 
Q 26.515625 48.1875 22.3125 43.546875 
Q 18.109375 38.921875 18.109375 30.90625 
L 18.109375 0 
L 9.078125 0 
L 9.078125 75.984375 
L 18.109375 75.984375 
L 18.109375 46.1875 
Q 21.34375 51.125 25.703125 53.5625 
Q 30.078125 56 35.796875 56 
Q 45.21875 56 50.046875 50.171875 
Q 54.890625 44.34375 54.890625 33.015625 
z
" id="DejaVuSans-104"/>
       <path d="M 18.3125 70.21875 
L 18.3125 54.6875 
L 36.8125 54.6875 
L 36.8125 47.703125 
L 18.3125 47.703125 
L 18.3125 18.015625 
Q 18.3125 11.328125 20.140625 9.421875 
Q 21.96875 7.515625 27.59375 7.515625 
L 36.8125 7.515625 
L 36.8125 0 
L 27.59375 0 
Q 17.1875 0 13.234375 3.875 
Q 9.28125 7.765625 9.28125 18.015625 
L 9.28125 47.703125 
L 2.6875 47.703125 
L 2.6875 54.6875 
L 9.28125 54.6875 
L 9.28125 70.21875 
z
" id="DejaVuSans-116"/>
       <path id="DejaVuSans-32"/>
       <path d="M 31 75.875 
Q 24.46875 64.65625 21.28125 53.65625 
Q 18.109375 42.671875 18.109375 31.390625 
Q 18.109375 20.125 21.3125 9.0625 
Q 24.515625 -2 31 -13.1875 
L 23.1875 -13.1875 
Q 15.875 -1.703125 12.234375 9.375 
Q 8.59375 20.453125 8.59375 31.390625 
Q 8.59375 42.28125 12.203125 53.3125 
Q 15.828125 64.359375 23.1875 75.875 
z
" id="DejaVuSans-40"/>
       <path d="M 8.6875 72.90625 
L 18.609375 72.90625 
L 18.609375 28.609375 
Q 18.609375 16.890625 22.84375 11.734375 
Q 27.09375 6.59375 36.625 6.59375 
Q 46.09375 6.59375 50.34375 11.734375 
Q 54.59375 16.890625 54.59375 28.609375 
L 54.59375 72.90625 
L 64.5 72.90625 
L 64.5 27.390625 
Q 64.5 13.140625 57.4375 5.859375 
Q 50.390625 -1.421875 36.625 -1.421875 
Q 22.796875 -1.421875 15.734375 5.859375 
Q 8.6875 13.140625 8.6875 27.390625 
z
" id="DejaVuSans-85"/>
       <path d="M 9.8125 72.90625 
L 19.671875 72.90625 
L 19.671875 42.09375 
L 52.390625 72.90625 
L 65.09375 72.90625 
L 28.90625 38.921875 
L 67.671875 0 
L 54.6875 0 
L 19.671875 35.109375 
L 19.671875 0 
L 9.8125 0 
z
" id="DejaVuSans-75"/>
       <path d="M 19.671875 34.8125 
L 19.671875 8.109375 
L 35.5 8.109375 
Q 43.453125 8.109375 47.28125 11.40625 
Q 51.125 14.703125 51.125 21.484375 
Q 51.125 28.328125 47.28125 31.5625 
Q 43.453125 34.8125 35.5 34.8125 
z
M 19.671875 64.796875 
L 19.671875 42.828125 
L 34.28125 42.828125 
Q 41.5 42.828125 45.03125 45.53125 
Q 48.578125 48.25 48.578125 53.8125 
Q 48.578125 59.328125 45.03125 62.0625 
Q 41.5 64.796875 34.28125 64.796875 
z
M 9.8125 72.90625 
L 35.015625 72.90625 
Q 46.296875 72.90625 52.390625 68.21875 
Q 58.5 63.53125 58.5 54.890625 
Q 58.5 48.1875 55.375 44.234375 
Q 52.25 40.28125 46.1875 39.3125 
Q 53.46875 37.75 57.5 32.78125 
Q 61.53125 27.828125 61.53125 20.40625 
Q 61.53125 10.640625 54.890625 5.3125 
Q 48.25 0 35.984375 0 
L 9.8125 0 
z
" id="DejaVuSans-66"/>
       <path d="M 8.015625 75.875 
L 15.828125 75.875 
Q 23.140625 64.359375 26.78125 53.3125 
Q 30.421875 42.28125 30.421875 31.390625 
Q 30.421875 20.453125 26.78125 9.375 
Q 23.140625 -1.703125 15.828125 -13.1875 
L 8.015625 -13.1875 
Q 14.5 -2 17.703125 9.0625 
Q 20.90625 20.125 20.90625 31.390625 
Q 20.90625 42.671875 17.703125 53.65625 
Q 14.5 64.65625 8.015625 75.875 
z
" id="DejaVuSans-41"/>
      </defs>
      <g transform="translate(156.742215 595.021875)rotate(-90)scale(0.165 -0.165)">
       <use xlink:href="#DejaVuSans-72"/>
       <use x="75.195312" xlink:href="#DejaVuSans-101"/>
       <use x="136.71875" xlink:href="#DejaVuSans-105"/>
       <use x="164.501953" xlink:href="#DejaVuSans-103"/>
       <use x="227.978516" xlink:href="#DejaVuSans-104"/>
       <use x="291.357422" xlink:href="#DejaVuSans-116"/>
       <use x="330.566406" xlink:href="#DejaVuSans-32"/>
       <use x="362.353516" xlink:href="#DejaVuSans-40"/>
       <use x="401.367188" xlink:href="#DejaVuSans-85"/>
       <use x="474.560547" xlink:href="#DejaVuSans-75"/>
       <use x="540.136719" xlink:href="#DejaVuSans-66"/>
       <use x="608.740234" xlink:href="#DejaVuSans-66"/>
       <use x="677.34375" xlink:href="#DejaVuSans-41"/>
      </g>
     </g>
    </g>
    <g id="xtick_2">
     <g id="line2d_2">
      <g>
       <use style="stroke:#000000;stroke-width:1.875;" x="200.409692" xlink:href="#m2038e68495" y="464.32"/>
      </g>
     </g>
     <g id="text_2">
      <!-- FEV1-FVC Ratio -->
      <defs>
       <path d="M 9.8125 72.90625 
L 51.703125 72.90625 
L 51.703125 64.59375 
L 19.671875 64.59375 
L 19.671875 43.109375 
L 48.578125 43.109375 
L 48.578125 34.8125 
L 19.671875 34.8125 
L 19.671875 0 
L 9.8125 0 
z
" id="DejaVuSans-70"/>
       <path d="M 9.8125 72.90625 
L 55.90625 72.90625 
L 55.90625 64.59375 
L 19.671875 64.59375 
L 19.671875 43.015625 
L 54.390625 43.015625 
L 54.390625 34.71875 
L 19.671875 34.71875 
L 19.671875 8.296875 
L 56.78125 8.296875 
L 56.78125 0 
L 9.8125 0 
z
" id="DejaVuSans-69"/>
       <path d="M 28.609375 0 
L 0.78125 72.90625 
L 11.078125 72.90625 
L 34.1875 11.53125 
L 57.328125 72.90625 
L 67.578125 72.90625 
L 39.796875 0 
z
" id="DejaVuSans-86"/>
       <path d="M 12.40625 8.296875 
L 28.515625 8.296875 
L 28.515625 63.921875 
L 10.984375 60.40625 
L 10.984375 69.390625 
L 28.421875 72.90625 
L 38.28125 72.90625 
L 38.28125 8.296875 
L 54.390625 8.296875 
L 54.390625 0 
L 12.40625 0 
z
" id="DejaVuSans-49"/>
       <path d="M 4.890625 31.390625 
L 31.203125 31.390625 
L 31.203125 23.390625 
L 4.890625 23.390625 
z
" id="DejaVuSans-45"/>
       <path d="M 64.40625 67.28125 
L 64.40625 56.890625 
Q 59.421875 61.53125 53.78125 63.8125 
Q 48.140625 66.109375 41.796875 66.109375 
Q 29.296875 66.109375 22.65625 58.46875 
Q 16.015625 50.828125 16.015625 36.375 
Q 16.015625 21.96875 22.65625 14.328125 
Q 29.296875 6.6875 41.796875 6.6875 
Q 48.140625 6.6875 53.78125 8.984375 
Q 59.421875 11.28125 64.40625 15.921875 
L 64.40625 5.609375 
Q 59.234375 2.09375 53.4375 0.328125 
Q 47.65625 -1.421875 41.21875 -1.421875 
Q 24.65625 -1.421875 15.125 8.703125 
Q 5.609375 18.84375 5.609375 36.375 
Q 5.609375 53.953125 15.125 64.078125 
Q 24.65625 74.21875 41.21875 74.21875 
Q 47.75 74.21875 53.53125 72.484375 
Q 59.328125 70.75 64.40625 67.28125 
z
" id="DejaVuSans-67"/>
       <path d="M 44.390625 34.1875 
Q 47.5625 33.109375 50.5625 29.59375 
Q 53.5625 26.078125 56.59375 19.921875 
L 66.609375 0 
L 56 0 
L 46.6875 18.703125 
Q 43.0625 26.03125 39.671875 28.421875 
Q 36.28125 30.8125 30.421875 30.8125 
L 19.671875 30.8125 
L 19.671875 0 
L 9.8125 0 
L 9.8125 72.90625 
L 32.078125 72.90625 
Q 44.578125 72.90625 50.734375 67.671875 
Q 56.890625 62.453125 56.890625 51.90625 
Q 56.890625 45.015625 53.6875 40.46875 
Q 50.484375 35.9375 44.390625 34.1875 
z
M 19.671875 64.796875 
L 19.671875 38.921875 
L 32.078125 38.921875 
Q 39.203125 38.921875 42.84375 42.21875 
Q 46.484375 45.515625 46.484375 51.90625 
Q 46.484375 58.296875 42.84375 61.546875 
Q 39.203125 64.796875 32.078125 64.796875 
z
" id="DejaVuSans-82"/>
       <path d="M 34.28125 27.484375 
Q 23.390625 27.484375 19.1875 25 
Q 14.984375 22.515625 14.984375 16.5 
Q 14.984375 11.71875 18.140625 8.90625 
Q 21.296875 6.109375 26.703125 6.109375 
Q 34.1875 6.109375 38.703125 11.40625 
Q 43.21875 16.703125 43.21875 25.484375 
L 43.21875 27.484375 
z
M 52.203125 31.203125 
L 52.203125 0 
L 43.21875 0 
L 43.21875 8.296875 
Q 40.140625 3.328125 35.546875 0.953125 
Q 30.953125 -1.421875 24.3125 -1.421875 
Q 15.921875 -1.421875 10.953125 3.296875 
Q 6 8.015625 6 15.921875 
Q 6 25.140625 12.171875 29.828125 
Q 18.359375 34.515625 30.609375 34.515625 
L 43.21875 34.515625 
L 43.21875 35.40625 
Q 43.21875 41.609375 39.140625 45 
Q 35.0625 48.390625 27.6875 48.390625 
Q 23 48.390625 18.546875 47.265625 
Q 14.109375 46.140625 10.015625 43.890625 
L 10.015625 52.203125 
Q 14.9375 54.109375 19.578125 55.046875 
Q 24.21875 56 28.609375 56 
Q 40.484375 56 46.34375 49.84375 
Q 52.203125 43.703125 52.203125 31.203125 
z
" id="DejaVuSans-97"/>
       <path d="M 30.609375 48.390625 
Q 23.390625 48.390625 19.1875 42.75 
Q 14.984375 37.109375 14.984375 27.296875 
Q 14.984375 17.484375 19.15625 11.84375 
Q 23.34375 6.203125 30.609375 6.203125 
Q 37.796875 6.203125 41.984375 11.859375 
Q 46.1875 17.53125 46.1875 27.296875 
Q 46.1875 37.015625 41.984375 42.703125 
Q 37.796875 48.390625 30.609375 48.390625 
z
M 30.609375 56 
Q 42.328125 56 49.015625 48.375 
Q 55.71875 40.765625 55.71875 27.296875 
Q 55.71875 13.875 49.015625 6.21875 
Q 42.328125 -1.421875 30.609375 -1.421875 
Q 18.84375 -1.421875 12.171875 6.21875 
Q 5.515625 13.875 5.515625 27.296875 
Q 5.515625 40.765625 12.171875 48.375 
Q 18.84375 56 30.609375 56 
z
" id="DejaVuSans-111"/>
      </defs>
      <g transform="translate(204.96266 604.370156)rotate(-90)scale(0.165 -0.165)">
       <use xlink:href="#DejaVuSans-70"/>
       <use x="57.519531" xlink:href="#DejaVuSans-69"/>
       <use x="120.703125" xlink:href="#DejaVuSans-86"/>
       <use x="189.111328" xlink:href="#DejaVuSans-49"/>
       <use x="252.734375" xlink:href="#DejaVuSans-45"/>
       <use x="288.818359" xlink:href="#DejaVuSans-70"/>
       <use x="346.337891" xlink:href="#DejaVuSans-86"/>
       <use x="414.746094" xlink:href="#DejaVuSans-67"/>
       <use x="484.570312" xlink:href="#DejaVuSans-32"/>
       <use x="516.357422" xlink:href="#DejaVuSans-82"/>
       <use x="583.589844" xlink:href="#DejaVuSans-97"/>
       <use x="644.869141" xlink:href="#DejaVuSans-116"/>
       <use x="684.078125" xlink:href="#DejaVuSans-105"/>
       <use x="711.861328" xlink:href="#DejaVuSans-111"/>
      </g>
     </g>
    </g>
    <g id="xtick_3">
     <g id="line2d_3">
      <g>
       <use style="stroke:#000000;stroke-width:1.875;" x="248.630137" xlink:href="#m2038e68495" y="464.32"/>
      </g>
     </g>
     <g id="text_3">
      <!-- Red Blood Cell Count -->
      <defs>
       <path d="M 45.40625 46.390625 
L 45.40625 75.984375 
L 54.390625 75.984375 
L 54.390625 0 
L 45.40625 0 
L 45.40625 8.203125 
Q 42.578125 3.328125 38.25 0.953125 
Q 33.9375 -1.421875 27.875 -1.421875 
Q 17.96875 -1.421875 11.734375 6.484375 
Q 5.515625 14.40625 5.515625 27.296875 
Q 5.515625 40.1875 11.734375 48.09375 
Q 17.96875 56 27.875 56 
Q 33.9375 56 38.25 53.625 
Q 42.578125 51.265625 45.40625 46.390625 
z
M 14.796875 27.296875 
Q 14.796875 17.390625 18.875 11.75 
Q 22.953125 6.109375 30.078125 6.109375 
Q 37.203125 6.109375 41.296875 11.75 
Q 45.40625 17.390625 45.40625 27.296875 
Q 45.40625 37.203125 41.296875 42.84375 
Q 37.203125 48.484375 30.078125 48.484375 
Q 22.953125 48.484375 18.875 42.84375 
Q 14.796875 37.203125 14.796875 27.296875 
z
" id="DejaVuSans-100"/>
       <path d="M 9.421875 75.984375 
L 18.40625 75.984375 
L 18.40625 0 
L 9.421875 0 
z
" id="DejaVuSans-108"/>
       <path d="M 8.5 21.578125 
L 8.5 54.6875 
L 17.484375 54.6875 
L 17.484375 21.921875 
Q 17.484375 14.15625 20.5 10.265625 
Q 23.53125 6.390625 29.59375 6.390625 
Q 36.859375 6.390625 41.078125 11.03125 
Q 45.3125 15.671875 45.3125 23.6875 
L 45.3125 54.6875 
L 54.296875 54.6875 
L 54.296875 0 
L 45.3125 0 
L 45.3125 8.40625 
Q 42.046875 3.421875 37.71875 1 
Q 33.40625 -1.421875 27.6875 -1.421875 
Q 18.265625 -1.421875 13.375 4.4375 
Q 8.5 10.296875 8.5 21.578125 
z
M 31.109375 56 
z
" id="DejaVuSans-117"/>
       <path d="M 54.890625 33.015625 
L 54.890625 0 
L 45.90625 0 
L 45.90625 32.71875 
Q 45.90625 40.484375 42.875 44.328125 
Q 39.84375 48.1875 33.796875 48.1875 
Q 26.515625 48.1875 22.3125 43.546875 
Q 18.109375 38.921875 18.109375 30.90625 
L 18.109375 0 
L 9.078125 0 
L 9.078125 54.6875 
L 18.109375 54.6875 
L 18.109375 46.1875 
Q 21.34375 51.125 25.703125 53.5625 
Q 30.078125 56 35.796875 56 
Q 45.21875 56 50.046875 50.171875 
Q 54.890625 44.34375 54.890625 33.015625 
z
" id="DejaVuSans-110"/>
      </defs>
      <g transform="translate(253.183106 650.314922)rotate(-90)scale(0.165 -0.165)">
       <use xlink:href="#DejaVuSans-82"/>
       <use x="64.982422" xlink:href="#DejaVuSans-101"/>
       <use x="126.505859" xlink:href="#DejaVuSans-100"/>
       <use x="189.982422" xlink:href="#DejaVuSans-32"/>
       <use x="221.769531" xlink:href="#DejaVuSans-66"/>
       <use x="290.373047" xlink:href="#DejaVuSans-108"/>
       <use x="318.15625" xlink:href="#DejaVuSans-111"/>
       <use x="379.337891" xlink:href="#DejaVuSans-111"/>
       <use x="440.519531" xlink:href="#DejaVuSans-100"/>
       <use x="503.996094" xlink:href="#DejaVuSans-32"/>
       <use x="535.783203" xlink:href="#DejaVuSans-67"/>
       <use x="605.607422" xlink:href="#DejaVuSans-101"/>
       <use x="667.130859" xlink:href="#DejaVuSans-108"/>
       <use x="694.914062" xlink:href="#DejaVuSans-108"/>
       <use x="722.697266" xlink:href="#DejaVuSans-32"/>
       <use x="754.484375" xlink:href="#DejaVuSans-67"/>
       <use x="824.308594" xlink:href="#DejaVuSans-111"/>
       <use x="885.490234" xlink:href="#DejaVuSans-117"/>
       <use x="948.869141" xlink:href="#DejaVuSans-110"/>
       <use x="1012.248047" xlink:href="#DejaVuSans-116"/>
      </g>
     </g>
    </g>
    <g id="xtick_4">
     <g id="line2d_4">
      <g>
       <use style="stroke:#000000;stroke-width:1.875;" x="296.850583" xlink:href="#m2038e68495" y="464.32"/>
      </g>
     </g>
     <g id="text_4">
      <!-- Systolic Blood Pressure -->
      <defs>
       <path d="M 53.515625 70.515625 
L 53.515625 60.890625 
Q 47.90625 63.578125 42.921875 64.890625 
Q 37.9375 66.21875 33.296875 66.21875 
Q 25.25 66.21875 20.875 63.09375 
Q 16.5 59.96875 16.5 54.203125 
Q 16.5 49.359375 19.40625 46.890625 
Q 22.3125 44.4375 30.421875 42.921875 
L 36.375 41.703125 
Q 47.40625 39.59375 52.65625 34.296875 
Q 57.90625 29 57.90625 20.125 
Q 57.90625 9.515625 50.796875 4.046875 
Q 43.703125 -1.421875 29.984375 -1.421875 
Q 24.8125 -1.421875 18.96875 -0.25 
Q 13.140625 0.921875 6.890625 3.21875 
L 6.890625 13.375 
Q 12.890625 10.015625 18.65625 8.296875 
Q 24.421875 6.59375 29.984375 6.59375 
Q 38.421875 6.59375 43.015625 9.90625 
Q 47.609375 13.234375 47.609375 19.390625 
Q 47.609375 24.75 44.3125 27.78125 
Q 41.015625 30.8125 33.5 32.328125 
L 27.484375 33.5 
Q 16.453125 35.6875 11.515625 40.375 
Q 6.59375 45.0625 6.59375 53.421875 
Q 6.59375 63.09375 13.40625 68.65625 
Q 20.21875 74.21875 32.171875 74.21875 
Q 37.3125 74.21875 42.625 73.28125 
Q 47.953125 72.359375 53.515625 70.515625 
z
" id="DejaVuSans-83"/>
       <path d="M 32.171875 -5.078125 
Q 28.375 -14.84375 24.75 -17.8125 
Q 21.140625 -20.796875 15.09375 -20.796875 
L 7.90625 -20.796875 
L 7.90625 -13.28125 
L 13.1875 -13.28125 
Q 16.890625 -13.28125 18.9375 -11.515625 
Q 21 -9.765625 23.484375 -3.21875 
L 25.09375 0.875 
L 2.984375 54.6875 
L 12.5 54.6875 
L 29.59375 11.921875 
L 46.6875 54.6875 
L 56.203125 54.6875 
z
" id="DejaVuSans-121"/>
       <path d="M 44.28125 53.078125 
L 44.28125 44.578125 
Q 40.484375 46.53125 36.375 47.5 
Q 32.28125 48.484375 27.875 48.484375 
Q 21.1875 48.484375 17.84375 46.4375 
Q 14.5 44.390625 14.5 40.28125 
Q 14.5 37.15625 16.890625 35.375 
Q 19.28125 33.59375 26.515625 31.984375 
L 29.59375 31.296875 
Q 39.15625 29.25 43.1875 25.515625 
Q 47.21875 21.78125 47.21875 15.09375 
Q 47.21875 7.46875 41.1875 3.015625 
Q 35.15625 -1.421875 24.609375 -1.421875 
Q 20.21875 -1.421875 15.453125 -0.5625 
Q 10.6875 0.296875 5.421875 2 
L 5.421875 11.28125 
Q 10.40625 8.6875 15.234375 7.390625 
Q 20.0625 6.109375 24.8125 6.109375 
Q 31.15625 6.109375 34.5625 8.28125 
Q 37.984375 10.453125 37.984375 14.40625 
Q 37.984375 18.0625 35.515625 20.015625 
Q 33.0625 21.96875 24.703125 23.78125 
L 21.578125 24.515625 
Q 13.234375 26.265625 9.515625 29.90625 
Q 5.8125 33.546875 5.8125 39.890625 
Q 5.8125 47.609375 11.28125 51.796875 
Q 16.75 56 26.8125 56 
Q 31.78125 56 36.171875 55.265625 
Q 40.578125 54.546875 44.28125 53.078125 
z
" id="DejaVuSans-115"/>
       <path d="M 48.78125 52.59375 
L 48.78125 44.1875 
Q 44.96875 46.296875 41.140625 47.34375 
Q 37.3125 48.390625 33.40625 48.390625 
Q 24.65625 48.390625 19.8125 42.84375 
Q 14.984375 37.3125 14.984375 27.296875 
Q 14.984375 17.28125 19.8125 11.734375 
Q 24.65625 6.203125 33.40625 6.203125 
Q 37.3125 6.203125 41.140625 7.25 
Q 44.96875 8.296875 48.78125 10.40625 
L 48.78125 2.09375 
Q 45.015625 0.34375 40.984375 -0.53125 
Q 36.96875 -1.421875 32.421875 -1.421875 
Q 20.0625 -1.421875 12.78125 6.34375 
Q 5.515625 14.109375 5.515625 27.296875 
Q 5.515625 40.671875 12.859375 48.328125 
Q 20.21875 56 33.015625 56 
Q 37.15625 56 41.109375 55.140625 
Q 45.0625 54.296875 48.78125 52.59375 
z
" id="DejaVuSans-99"/>
       <path d="M 19.671875 64.796875 
L 19.671875 37.40625 
L 32.078125 37.40625 
Q 38.96875 37.40625 42.71875 40.96875 
Q 46.484375 44.53125 46.484375 51.125 
Q 46.484375 57.671875 42.71875 61.234375 
Q 38.96875 64.796875 32.078125 64.796875 
z
M 9.8125 72.90625 
L 32.078125 72.90625 
Q 44.34375 72.90625 50.609375 67.359375 
Q 56.890625 61.8125 56.890625 51.125 
Q 56.890625 40.328125 50.609375 34.8125 
Q 44.34375 29.296875 32.078125 29.296875 
L 19.671875 29.296875 
L 19.671875 0 
L 9.8125 0 
z
" id="DejaVuSans-80"/>
       <path d="M 41.109375 46.296875 
Q 39.59375 47.171875 37.8125 47.578125 
Q 36.03125 48 33.890625 48 
Q 26.265625 48 22.1875 43.046875 
Q 18.109375 38.09375 18.109375 28.8125 
L 18.109375 0 
L 9.078125 0 
L 9.078125 54.6875 
L 18.109375 54.6875 
L 18.109375 46.1875 
Q 20.953125 51.171875 25.484375 53.578125 
Q 30.03125 56 36.53125 56 
Q 37.453125 56 38.578125 55.875 
Q 39.703125 55.765625 41.0625 55.515625 
z
" id="DejaVuSans-114"/>
      </defs>
      <g transform="translate(301.403552 667.957031)rotate(-90)scale(0.165 -0.165)">
       <use xlink:href="#DejaVuSans-83"/>
       <use x="63.476562" xlink:href="#DejaVuSans-121"/>
       <use x="122.65625" xlink:href="#DejaVuSans-115"/>
       <use x="174.755859" xlink:href="#DejaVuSans-116"/>
       <use x="213.964844" xlink:href="#DejaVuSans-111"/>
       <use x="275.146484" xlink:href="#DejaVuSans-108"/>
       <use x="302.929688" xlink:href="#DejaVuSans-105"/>
       <use x="330.712891" xlink:href="#DejaVuSans-99"/>
       <use x="385.693359" xlink:href="#DejaVuSans-32"/>
       <use x="417.480469" xlink:href="#DejaVuSans-66"/>
       <use x="486.083984" xlink:href="#DejaVuSans-108"/>
       <use x="513.867188" xlink:href="#DejaVuSans-111"/>
       <use x="575.048828" xlink:href="#DejaVuSans-111"/>
       <use x="636.230469" xlink:href="#DejaVuSans-100"/>
       <use x="699.707031" xlink:href="#DejaVuSans-32"/>
       <use x="731.494141" xlink:href="#DejaVuSans-80"/>
       <use x="790.046875" xlink:href="#DejaVuSans-114"/>
       <use x="828.910156" xlink:href="#DejaVuSans-101"/>
       <use x="890.433594" xlink:href="#DejaVuSans-115"/>
       <use x="942.533203" xlink:href="#DejaVuSans-115"/>
       <use x="994.632812" xlink:href="#DejaVuSans-117"/>
       <use x="1058.011719" xlink:href="#DejaVuSans-114"/>
       <use x="1096.875" xlink:href="#DejaVuSans-101"/>
      </g>
     </g>
    </g>
    <g id="xtick_5">
     <g id="line2d_5">
      <g>
       <use style="stroke:#000000;stroke-width:1.875;" x="345.071029" xlink:href="#m2038e68495" y="464.32"/>
      </g>
     </g>
     <g id="text_5">
      <!-- BMI (UKBB) -->
      <defs>
       <path d="M 9.8125 72.90625 
L 24.515625 72.90625 
L 43.109375 23.296875 
L 61.8125 72.90625 
L 76.515625 72.90625 
L 76.515625 0 
L 66.890625 0 
L 66.890625 64.015625 
L 48.09375 14.015625 
L 38.1875 14.015625 
L 19.390625 64.015625 
L 19.390625 0 
L 9.8125 0 
z
" id="DejaVuSans-77"/>
       <path d="M 9.8125 72.90625 
L 19.671875 72.90625 
L 19.671875 0 
L 9.8125 0 
z
" id="DejaVuSans-73"/>
      </defs>
      <g transform="translate(349.623998 570.900937)rotate(-90)scale(0.165 -0.165)">
       <use xlink:href="#DejaVuSans-66"/>
       <use x="68.603516" xlink:href="#DejaVuSans-77"/>
       <use x="154.882812" xlink:href="#DejaVuSans-73"/>
       <use x="184.375" xlink:href="#DejaVuSans-32"/>
       <use x="216.162109" xlink:href="#DejaVuSans-40"/>
       <use x="255.175781" xlink:href="#DejaVuSans-85"/>
       <use x="328.369141" xlink:href="#DejaVuSans-75"/>
       <use x="393.945312" xlink:href="#DejaVuSans-66"/>
       <use x="462.548828" xlink:href="#DejaVuSans-66"/>
       <use x="531.152344" xlink:href="#DejaVuSans-41"/>
      </g>
     </g>
    </g>
    <g id="xtick_6">
     <g id="line2d_6">
      <g>
       <use style="stroke:#000000;stroke-width:1.875;" x="393.291475" xlink:href="#m2038e68495" y="464.32"/>
      </g>
     </g>
     <g id="text_6">
      <!-- Platelet Count -->
      <g transform="translate(397.844443 593.534297)rotate(-90)scale(0.165 -0.165)">
       <use xlink:href="#DejaVuSans-80"/>
       <use x="60.302734" xlink:href="#DejaVuSans-108"/>
       <use x="88.085938" xlink:href="#DejaVuSans-97"/>
       <use x="149.365234" xlink:href="#DejaVuSans-116"/>
       <use x="188.574219" xlink:href="#DejaVuSans-101"/>
       <use x="250.097656" xlink:href="#DejaVuSans-108"/>
       <use x="277.880859" xlink:href="#DejaVuSans-101"/>
       <use x="339.404297" xlink:href="#DejaVuSans-116"/>
       <use x="378.613281" xlink:href="#DejaVuSans-32"/>
       <use x="410.400391" xlink:href="#DejaVuSans-67"/>
       <use x="480.224609" xlink:href="#DejaVuSans-111"/>
       <use x="541.40625" xlink:href="#DejaVuSans-117"/>
       <use x="604.785156" xlink:href="#DejaVuSans-110"/>
       <use x="668.164062" xlink:href="#DejaVuSans-116"/>
      </g>
     </g>
    </g>
    <g id="xtick_7">
     <g id="line2d_7">
      <g>
       <use style="stroke:#000000;stroke-width:1.875;" x="441.51192" xlink:href="#m2038e68495" y="464.32"/>
      </g>
     </g>
     <g id="text_7">
      <!-- Heel T Score -->
      <defs>
       <path d="M -0.296875 72.90625 
L 61.375 72.90625 
L 61.375 64.59375 
L 35.5 64.59375 
L 35.5 0 
L 25.59375 0 
L 25.59375 64.59375 
L -0.296875 64.59375 
z
" id="DejaVuSans-84"/>
      </defs>
      <g transform="translate(446.064889 580.891172)rotate(-90)scale(0.165 -0.165)">
       <use xlink:href="#DejaVuSans-72"/>
       <use x="75.195312" xlink:href="#DejaVuSans-101"/>
       <use x="136.71875" xlink:href="#DejaVuSans-101"/>
       <use x="198.242188" xlink:href="#DejaVuSans-108"/>
       <use x="226.025391" xlink:href="#DejaVuSans-32"/>
       <use x="257.8125" xlink:href="#DejaVuSans-84"/>
       <use x="318.896484" xlink:href="#DejaVuSans-32"/>
       <use x="350.683594" xlink:href="#DejaVuSans-83"/>
       <use x="414.160156" xlink:href="#DejaVuSans-99"/>
       <use x="469.140625" xlink:href="#DejaVuSans-111"/>
       <use x="530.322266" xlink:href="#DejaVuSans-114"/>
       <use x="569.185547" xlink:href="#DejaVuSans-101"/>
      </g>
     </g>
    </g>
    <g id="xtick_8">
     <g id="line2d_8">
      <g>
       <use style="stroke:#000000;stroke-width:1.875;" x="489.732366" xlink:href="#m2038e68495" y="464.32"/>
      </g>
     </g>
     <g id="text_8">
      <!-- Forced Vital Capacity (FVC) -->
      <defs>
       <path d="M 18.109375 8.203125 
L 18.109375 -20.796875 
L 9.078125 -20.796875 
L 9.078125 54.6875 
L 18.109375 54.6875 
L 18.109375 46.390625 
Q 20.953125 51.265625 25.265625 53.625 
Q 29.59375 56 35.59375 56 
Q 45.5625 56 51.78125 48.09375 
Q 58.015625 40.1875 58.015625 27.296875 
Q 58.015625 14.40625 51.78125 6.484375 
Q 45.5625 -1.421875 35.59375 -1.421875 
Q 29.59375 -1.421875 25.265625 0.953125 
Q 20.953125 3.328125 18.109375 8.203125 
z
M 48.6875 27.296875 
Q 48.6875 37.203125 44.609375 42.84375 
Q 40.53125 48.484375 33.40625 48.484375 
Q 26.265625 48.484375 22.1875 42.84375 
Q 18.109375 37.203125 18.109375 27.296875 
Q 18.109375 17.390625 22.1875 11.75 
Q 26.265625 6.109375 33.40625 6.109375 
Q 40.53125 6.109375 44.609375 11.75 
Q 48.6875 17.390625 48.6875 27.296875 
z
" id="DejaVuSans-112"/>
      </defs>
      <g transform="translate(494.285335 701.598984)rotate(-90)scale(0.165 -0.165)">
       <use xlink:href="#DejaVuSans-70"/>
       <use x="53.894531" xlink:href="#DejaVuSans-111"/>
       <use x="115.076172" xlink:href="#DejaVuSans-114"/>
       <use x="153.939453" xlink:href="#DejaVuSans-99"/>
       <use x="208.919922" xlink:href="#DejaVuSans-101"/>
       <use x="270.443359" xlink:href="#DejaVuSans-100"/>
       <use x="333.919922" xlink:href="#DejaVuSans-32"/>
       <use x="365.707031" xlink:href="#DejaVuSans-86"/>
       <use x="431.865234" xlink:href="#DejaVuSans-105"/>
       <use x="459.648438" xlink:href="#DejaVuSans-116"/>
       <use x="498.857422" xlink:href="#DejaVuSans-97"/>
       <use x="560.136719" xlink:href="#DejaVuSans-108"/>
       <use x="587.919922" xlink:href="#DejaVuSans-32"/>
       <use x="619.707031" xlink:href="#DejaVuSans-67"/>
       <use x="689.53125" xlink:href="#DejaVuSans-97"/>
       <use x="750.810547" xlink:href="#DejaVuSans-112"/>
       <use x="814.287109" xlink:href="#DejaVuSans-97"/>
       <use x="875.566406" xlink:href="#DejaVuSans-99"/>
       <use x="930.546875" xlink:href="#DejaVuSans-105"/>
       <use x="958.330078" xlink:href="#DejaVuSans-116"/>
       <use x="997.539062" xlink:href="#DejaVuSans-121"/>
       <use x="1056.71875" xlink:href="#DejaVuSans-32"/>
       <use x="1088.505859" xlink:href="#DejaVuSans-40"/>
       <use x="1127.519531" xlink:href="#DejaVuSans-70"/>
       <use x="1185.039062" xlink:href="#DejaVuSans-86"/>
       <use x="1253.447266" xlink:href="#DejaVuSans-67"/>
       <use x="1323.271484" xlink:href="#DejaVuSans-41"/>
      </g>
     </g>
    </g>
    <g id="xtick_9">
     <g id="line2d_9">
      <g>
       <use style="stroke:#000000;stroke-width:1.875;" x="537.952812" xlink:href="#m2038e68495" y="464.32"/>
      </g>
     </g>
     <g id="text_9">
      <!-- Waist-hip Ratio -->
      <defs>
       <path d="M 3.328125 72.90625 
L 13.28125 72.90625 
L 28.609375 11.28125 
L 43.890625 72.90625 
L 54.984375 72.90625 
L 70.3125 11.28125 
L 85.59375 72.90625 
L 95.609375 72.90625 
L 77.296875 0 
L 64.890625 0 
L 49.515625 63.28125 
L 33.984375 0 
L 21.578125 0 
z
" id="DejaVuSans-87"/>
      </defs>
      <g transform="translate(542.505781 600.907734)rotate(-90)scale(0.165 -0.165)">
       <use xlink:href="#DejaVuSans-87"/>
       <use x="92.501953" xlink:href="#DejaVuSans-97"/>
       <use x="153.78125" xlink:href="#DejaVuSans-105"/>
       <use x="181.564453" xlink:href="#DejaVuSans-115"/>
       <use x="233.664062" xlink:href="#DejaVuSans-116"/>
       <use x="272.873047" xlink:href="#DejaVuSans-45"/>
       <use x="308.957031" xlink:href="#DejaVuSans-104"/>
       <use x="372.335938" xlink:href="#DejaVuSans-105"/>
       <use x="400.119141" xlink:href="#DejaVuSans-112"/>
       <use x="463.595703" xlink:href="#DejaVuSans-32"/>
       <use x="495.382812" xlink:href="#DejaVuSans-82"/>
       <use x="562.615234" xlink:href="#DejaVuSans-97"/>
       <use x="623.894531" xlink:href="#DejaVuSans-116"/>
       <use x="663.103516" xlink:href="#DejaVuSans-105"/>
       <use x="690.886719" xlink:href="#DejaVuSans-111"/>
      </g>
     </g>
    </g>
    <g id="xtick_10">
     <g id="line2d_10">
      <g>
       <use style="stroke:#000000;stroke-width:1.875;" x="586.173258" xlink:href="#m2038e68495" y="464.32"/>
      </g>
     </g>
     <g id="text_10">
      <!-- White Blood Cell Count -->
      <g transform="translate(590.726226 666.94125)rotate(-90)scale(0.165 -0.165)">
       <use xlink:href="#DejaVuSans-87"/>
       <use x="98.876953" xlink:href="#DejaVuSans-104"/>
       <use x="162.255859" xlink:href="#DejaVuSans-105"/>
       <use x="190.039062" xlink:href="#DejaVuSans-116"/>
       <use x="229.248047" xlink:href="#DejaVuSans-101"/>
       <use x="290.771484" xlink:href="#DejaVuSans-32"/>
       <use x="322.558594" xlink:href="#DejaVuSans-66"/>
       <use x="391.162109" xlink:href="#DejaVuSans-108"/>
       <use x="418.945312" xlink:href="#DejaVuSans-111"/>
       <use x="480.126953" xlink:href="#DejaVuSans-111"/>
       <use x="541.308594" xlink:href="#DejaVuSans-100"/>
       <use x="604.785156" xlink:href="#DejaVuSans-32"/>
       <use x="636.572266" xlink:href="#DejaVuSans-67"/>
       <use x="706.396484" xlink:href="#DejaVuSans-101"/>
       <use x="767.919922" xlink:href="#DejaVuSans-108"/>
       <use x="795.703125" xlink:href="#DejaVuSans-108"/>
       <use x="823.486328" xlink:href="#DejaVuSans-32"/>
       <use x="855.273438" xlink:href="#DejaVuSans-67"/>
       <use x="925.097656" xlink:href="#DejaVuSans-111"/>
       <use x="986.279297" xlink:href="#DejaVuSans-117"/>
       <use x="1049.658203" xlink:href="#DejaVuSans-110"/>
       <use x="1113.037109" xlink:href="#DejaVuSans-116"/>
      </g>
     </g>
    </g>
    <g id="xtick_11">
     <g id="line2d_11">
      <g>
       <use style="stroke:#000000;stroke-width:1.875;" x="634.393703" xlink:href="#m2038e68495" y="464.32"/>
      </g>
     </g>
     <g id="text_11">
      <!-- HDL -->
      <defs>
       <path d="M 19.671875 64.796875 
L 19.671875 8.109375 
L 31.59375 8.109375 
Q 46.6875 8.109375 53.6875 14.9375 
Q 60.6875 21.78125 60.6875 36.53125 
Q 60.6875 51.171875 53.6875 57.984375 
Q 46.6875 64.796875 31.59375 64.796875 
z
M 9.8125 72.90625 
L 30.078125 72.90625 
Q 51.265625 72.90625 61.171875 64.09375 
Q 71.09375 55.28125 71.09375 36.53125 
Q 71.09375 17.671875 61.125 8.828125 
Q 51.171875 0 30.078125 0 
L 9.8125 0 
z
" id="DejaVuSans-68"/>
       <path d="M 9.8125 72.90625 
L 19.671875 72.90625 
L 19.671875 8.296875 
L 55.171875 8.296875 
L 55.171875 0 
L 9.8125 0 
z
" id="DejaVuSans-76"/>
      </defs>
      <g transform="translate(638.946672 511.127109)rotate(-90)scale(0.165 -0.165)">
       <use xlink:href="#DejaVuSans-72"/>
       <use x="75.195312" xlink:href="#DejaVuSans-68"/>
       <use x="152.197266" xlink:href="#DejaVuSans-76"/>
      </g>
     </g>
    </g>
    <g id="xtick_12">
     <g id="line2d_12">
      <g>
       <use style="stroke:#000000;stroke-width:1.875;" x="682.614149" xlink:href="#m2038e68495" y="464.32"/>
      </g>
     </g>
     <g id="text_12">
      <!-- Neuroticism -->
      <defs>
       <path d="M 9.8125 72.90625 
L 23.09375 72.90625 
L 55.421875 11.921875 
L 55.421875 72.90625 
L 64.984375 72.90625 
L 64.984375 0 
L 51.703125 0 
L 19.390625 60.984375 
L 19.390625 0 
L 9.8125 0 
z
" id="DejaVuSans-78"/>
       <path d="M 52 44.1875 
Q 55.375 50.25 60.0625 53.125 
Q 64.75 56 71.09375 56 
Q 79.640625 56 84.28125 50.015625 
Q 88.921875 44.046875 88.921875 33.015625 
L 88.921875 0 
L 79.890625 0 
L 79.890625 32.71875 
Q 79.890625 40.578125 77.09375 44.375 
Q 74.3125 48.1875 68.609375 48.1875 
Q 61.625 48.1875 57.5625 43.546875 
Q 53.515625 38.921875 53.515625 30.90625 
L 53.515625 0 
L 44.484375 0 
L 44.484375 32.71875 
Q 44.484375 40.625 41.703125 44.40625 
Q 38.921875 48.1875 33.109375 48.1875 
Q 26.21875 48.1875 22.15625 43.53125 
Q 18.109375 38.875 18.109375 30.90625 
L 18.109375 0 
L 9.078125 0 
L 9.078125 54.6875 
L 18.109375 54.6875 
L 18.109375 46.1875 
Q 21.1875 51.21875 25.484375 53.609375 
Q 29.78125 56 35.6875 56 
Q 41.65625 56 45.828125 52.96875 
Q 50 49.953125 52 44.1875 
z
" id="DejaVuSans-109"/>
      </defs>
      <g transform="translate(687.167118 575.657578)rotate(-90)scale(0.165 -0.165)">
       <use xlink:href="#DejaVuSans-78"/>
       <use x="74.804688" xlink:href="#DejaVuSans-101"/>
       <use x="136.328125" xlink:href="#DejaVuSans-117"/>
       <use x="199.707031" xlink:href="#DejaVuSans-114"/>
       <use x="238.570312" xlink:href="#DejaVuSans-111"/>
       <use x="299.751953" xlink:href="#DejaVuSans-116"/>
       <use x="338.960938" xlink:href="#DejaVuSans-105"/>
       <use x="366.744141" xlink:href="#DejaVuSans-99"/>
       <use x="421.724609" xlink:href="#DejaVuSans-105"/>
       <use x="449.507812" xlink:href="#DejaVuSans-115"/>
       <use x="501.607422" xlink:href="#DejaVuSans-109"/>
      </g>
     </g>
    </g>
    <g id="xtick_13">
     <g id="line2d_13">
      <g>
       <use style="stroke:#000000;stroke-width:1.875;" x="730.834595" xlink:href="#m2038e68495" y="464.32"/>
      </g>
     </g>
     <g id="text_13">
      <!-- Smoking Status -->
      <defs>
       <path d="M 9.078125 75.984375 
L 18.109375 75.984375 
L 18.109375 31.109375 
L 44.921875 54.6875 
L 56.390625 54.6875 
L 27.390625 29.109375 
L 57.625 0 
L 45.90625 0 
L 18.109375 26.703125 
L 18.109375 0 
L 9.078125 0 
z
" id="DejaVuSans-107"/>
      </defs>
      <g transform="translate(735.387564 606.352734)rotate(-90)scale(0.165 -0.165)">
       <use xlink:href="#DejaVuSans-83"/>
       <use x="63.476562" xlink:href="#DejaVuSans-109"/>
       <use x="160.888672" xlink:href="#DejaVuSans-111"/>
       <use x="222.070312" xlink:href="#DejaVuSans-107"/>
       <use x="279.980469" xlink:href="#DejaVuSans-105"/>
       <use x="307.763672" xlink:href="#DejaVuSans-110"/>
       <use x="371.142578" xlink:href="#DejaVuSans-103"/>
       <use x="434.619141" xlink:href="#DejaVuSans-32"/>
       <use x="466.40625" xlink:href="#DejaVuSans-83"/>
       <use x="529.882812" xlink:href="#DejaVuSans-116"/>
       <use x="569.091797" xlink:href="#DejaVuSans-97"/>
       <use x="630.371094" xlink:href="#DejaVuSans-116"/>
       <use x="669.580078" xlink:href="#DejaVuSans-117"/>
       <use x="732.958984" xlink:href="#DejaVuSans-115"/>
      </g>
     </g>
    </g>
    <g id="xtick_14">
     <g id="line2d_14">
      <g>
       <use style="stroke:#000000;stroke-width:1.875;" x="779.055041" xlink:href="#m2038e68495" y="464.32"/>
      </g>
     </g>
     <g id="text_14">
      <!-- College Education -->
      <g transform="translate(783.60801 625.776328)rotate(-90)scale(0.165 -0.165)">
       <use xlink:href="#DejaVuSans-67"/>
       <use x="69.824219" xlink:href="#DejaVuSans-111"/>
       <use x="131.005859" xlink:href="#DejaVuSans-108"/>
       <use x="158.789062" xlink:href="#DejaVuSans-108"/>
       <use x="186.572266" xlink:href="#DejaVuSans-101"/>
       <use x="248.095703" xlink:href="#DejaVuSans-103"/>
       <use x="311.572266" xlink:href="#DejaVuSans-101"/>
       <use x="373.095703" xlink:href="#DejaVuSans-32"/>
       <use x="404.882812" xlink:href="#DejaVuSans-69"/>
       <use x="468.066406" xlink:href="#DejaVuSans-100"/>
       <use x="531.542969" xlink:href="#DejaVuSans-117"/>
       <use x="594.921875" xlink:href="#DejaVuSans-99"/>
       <use x="649.902344" xlink:href="#DejaVuSans-97"/>
       <use x="711.181641" xlink:href="#DejaVuSans-116"/>
       <use x="750.390625" xlink:href="#DejaVuSans-105"/>
       <use x="778.173828" xlink:href="#DejaVuSans-111"/>
       <use x="839.355469" xlink:href="#DejaVuSans-110"/>
      </g>
     </g>
    </g>
    <g id="xtick_15">
     <g id="line2d_15">
      <g>
       <use style="stroke:#000000;stroke-width:1.875;" x="827.275487" xlink:href="#m2038e68495" y="464.32"/>
      </g>
     </g>
     <g id="text_15">
      <!-- Years of Education -->
      <defs>
       <path d="M -0.203125 72.90625 
L 10.40625 72.90625 
L 30.609375 42.921875 
L 50.6875 72.90625 
L 61.28125 72.90625 
L 35.5 34.71875 
L 35.5 0 
L 25.59375 0 
L 25.59375 34.71875 
z
" id="DejaVuSans-89"/>
       <path d="M 37.109375 75.984375 
L 37.109375 68.5 
L 28.515625 68.5 
Q 23.6875 68.5 21.796875 66.546875 
Q 19.921875 64.59375 19.921875 59.515625 
L 19.921875 54.6875 
L 34.71875 54.6875 
L 34.71875 47.703125 
L 19.921875 47.703125 
L 19.921875 0 
L 10.890625 0 
L 10.890625 47.703125 
L 2.296875 47.703125 
L 2.296875 54.6875 
L 10.890625 54.6875 
L 10.890625 58.5 
Q 10.890625 67.625 15.140625 71.796875 
Q 19.390625 75.984375 28.609375 75.984375 
z
" id="DejaVuSans-102"/>
      </defs>
      <g transform="translate(831.828455 628.893281)rotate(-90)scale(0.165 -0.165)">
       <use xlink:href="#DejaVuSans-89"/>
       <use x="47.833984" xlink:href="#DejaVuSans-101"/>
       <use x="109.357422" xlink:href="#DejaVuSans-97"/>
       <use x="170.636719" xlink:href="#DejaVuSans-114"/>
       <use x="211.75" xlink:href="#DejaVuSans-115"/>
       <use x="263.849609" xlink:href="#DejaVuSans-32"/>
       <use x="295.636719" xlink:href="#DejaVuSans-111"/>
       <use x="356.818359" xlink:href="#DejaVuSans-102"/>
       <use x="392.023438" xlink:href="#DejaVuSans-32"/>
       <use x="423.810547" xlink:href="#DejaVuSans-69"/>
       <use x="486.994141" xlink:href="#DejaVuSans-100"/>
       <use x="550.470703" xlink:href="#DejaVuSans-117"/>
       <use x="613.849609" xlink:href="#DejaVuSans-99"/>
       <use x="668.830078" xlink:href="#DejaVuSans-97"/>
       <use x="730.109375" xlink:href="#DejaVuSans-116"/>
       <use x="769.318359" xlink:href="#DejaVuSans-105"/>
       <use x="797.101562" xlink:href="#DejaVuSans-111"/>
       <use x="858.283203" xlink:href="#DejaVuSans-110"/>
      </g>
     </g>
    </g>
   </g>
   <g id="matplotlib.axis_2">
    <g id="ytick_1">
     <g id="line2d_16">
      <defs>
       <path d="M 0 0 
L -9 0 
" id="m785e5cc31d" style="stroke:#000000;stroke-width:1.875;"/>
      </defs>
      <g>
       <use style="stroke:#000000;stroke-width:1.875;" x="98.544" xlink:href="#m785e5cc31d" y="390.378358"/>
      </g>
     </g>
     <g id="text_16">
      <!-- 40 -->
      <defs>
       <path d="M 10.59375 35.5 
L 73.1875 35.5 
L 73.1875 27.203125 
L 10.59375 27.203125 
z
" id="DejaVuSans-8722"/>
       <path d="M 37.796875 64.3125 
L 12.890625 25.390625 
L 37.796875 25.390625 
z
M 35.203125 72.90625 
L 47.609375 72.90625 
L 47.609375 25.390625 
L 58.015625 25.390625 
L 58.015625 17.1875 
L 47.609375 17.1875 
L 47.609375 0 
L 37.796875 0 
L 37.796875 17.1875 
L 4.890625 17.1875 
L 4.890625 26.703125 
z
" id="DejaVuSans-52"/>
       <path d="M 31.78125 66.40625 
Q 24.171875 66.40625 20.328125 58.90625 
Q 16.5 51.421875 16.5 36.375 
Q 16.5 21.390625 20.328125 13.890625 
Q 24.171875 6.390625 31.78125 6.390625 
Q 39.453125 6.390625 43.28125 13.890625 
Q 47.125 21.390625 47.125 36.375 
Q 47.125 51.421875 43.28125 58.90625 
Q 39.453125 66.40625 31.78125 66.40625 
z
M 31.78125 74.21875 
Q 44.046875 74.21875 50.515625 64.515625 
Q 56.984375 54.828125 56.984375 36.375 
Q 56.984375 17.96875 50.515625 8.265625 
Q 44.046875 -1.421875 31.78125 -1.421875 
Q 19.53125 -1.421875 13.0625 8.265625 
Q 6.59375 17.96875 6.59375 36.375 
Q 6.59375 54.828125 13.0625 64.515625 
Q 19.53125 74.21875 31.78125 74.21875 
z
" id="DejaVuSans-48"/>
      </defs>
      <g transform="translate(51.221266 396.647069)scale(0.165 -0.165)">
       <use xlink:href="#DejaVuSans-8722"/>
       <use x="83.789062" xlink:href="#DejaVuSans-52"/>
       <use x="147.412109" xlink:href="#DejaVuSans-48"/>
      </g>
     </g>
    </g>
    <g id="ytick_2">
     <g id="line2d_17">
      <g>
       <use style="stroke:#000000;stroke-width:1.875;" x="98.544" xlink:href="#m785e5cc31d" y="313.015597"/>
      </g>
     </g>
     <g id="text_17">
      <!-- 30 -->
      <defs>
       <path d="M 40.578125 39.3125 
Q 47.65625 37.796875 51.625 33 
Q 55.609375 28.21875 55.609375 21.1875 
Q 55.609375 10.40625 48.1875 4.484375 
Q 40.765625 -1.421875 27.09375 -1.421875 
Q 22.515625 -1.421875 17.65625 -0.515625 
Q 12.796875 0.390625 7.625 2.203125 
L 7.625 11.71875 
Q 11.71875 9.328125 16.59375 8.109375 
Q 21.484375 6.890625 26.8125 6.890625 
Q 36.078125 6.890625 40.9375 10.546875 
Q 45.796875 14.203125 45.796875 21.1875 
Q 45.796875 27.640625 41.28125 31.265625 
Q 36.765625 34.90625 28.71875 34.90625 
L 20.21875 34.90625 
L 20.21875 43.015625 
L 29.109375 43.015625 
Q 36.375 43.015625 40.234375 45.921875 
Q 44.09375 48.828125 44.09375 54.296875 
Q 44.09375 59.90625 40.109375 62.90625 
Q 36.140625 65.921875 28.71875 65.921875 
Q 24.65625 65.921875 20.015625 65.03125 
Q 15.375 64.15625 9.8125 62.3125 
L 9.8125 71.09375 
Q 15.4375 72.65625 20.34375 73.4375 
Q 25.25 74.21875 29.59375 74.21875 
Q 40.828125 74.21875 47.359375 69.109375 
Q 53.90625 64.015625 53.90625 55.328125 
Q 53.90625 49.265625 50.4375 45.09375 
Q 46.96875 40.921875 40.578125 39.3125 
z
" id="DejaVuSans-51"/>
      </defs>
      <g transform="translate(51.221266 319.284308)scale(0.165 -0.165)">
       <use xlink:href="#DejaVuSans-8722"/>
       <use x="83.789062" xlink:href="#DejaVuSans-51"/>
       <use x="147.412109" xlink:href="#DejaVuSans-48"/>
      </g>
     </g>
    </g>
    <g id="ytick_3">
     <g id="line2d_18">
      <g>
       <use style="stroke:#000000;stroke-width:1.875;" x="98.544" xlink:href="#m785e5cc31d" y="235.652837"/>
      </g>
     </g>
     <g id="text_18">
      <!-- 20 -->
      <defs>
       <path d="M 19.1875 8.296875 
L 53.609375 8.296875 
L 53.609375 0 
L 7.328125 0 
L 7.328125 8.296875 
Q 12.9375 14.109375 22.625 23.890625 
Q 32.328125 33.6875 34.8125 36.53125 
Q 39.546875 41.84375 41.421875 45.53125 
Q 43.3125 49.21875 43.3125 52.78125 
Q 43.3125 58.59375 39.234375 62.25 
Q 35.15625 65.921875 28.609375 65.921875 
Q 23.96875 65.921875 18.8125 64.3125 
Q 13.671875 62.703125 7.8125 59.421875 
L 7.8125 69.390625 
Q 13.765625 71.78125 18.9375 73 
Q 24.125 74.21875 28.421875 74.21875 
Q 39.75 74.21875 46.484375 68.546875 
Q 53.21875 62.890625 53.21875 53.421875 
Q 53.21875 48.921875 51.53125 44.890625 
Q 49.859375 40.875 45.40625 35.40625 
Q 44.1875 33.984375 37.640625 27.21875 
Q 31.109375 20.453125 19.1875 8.296875 
z
" id="DejaVuSans-50"/>
      </defs>
      <g transform="translate(51.221266 241.921548)scale(0.165 -0.165)">
       <use xlink:href="#DejaVuSans-8722"/>
       <use x="83.789062" xlink:href="#DejaVuSans-50"/>
       <use x="147.412109" xlink:href="#DejaVuSans-48"/>
      </g>
     </g>
    </g>
    <g id="ytick_4">
     <g id="line2d_19">
      <g>
       <use style="stroke:#000000;stroke-width:1.875;" x="98.544" xlink:href="#m785e5cc31d" y="158.290076"/>
      </g>
     </g>
     <g id="text_19">
      <!-- 10 -->
      <g transform="translate(51.221266 164.558787)scale(0.165 -0.165)">
       <use xlink:href="#DejaVuSans-8722"/>
       <use x="83.789062" xlink:href="#DejaVuSans-49"/>
       <use x="147.412109" xlink:href="#DejaVuSans-48"/>
      </g>
     </g>
    </g>
    <g id="ytick_5">
     <g id="line2d_20">
      <g>
       <use style="stroke:#000000;stroke-width:1.875;" x="98.544" xlink:href="#m785e5cc31d" y="80.927316"/>
      </g>
     </g>
     <g id="text_20">
      <!-- 0 -->
      <g transform="translate(75.545875 87.196027)scale(0.165 -0.165)">
       <use xlink:href="#DejaVuSans-48"/>
      </g>
     </g>
    </g>
    <g id="text_21">
     <!-- $h_g^2$ (% difference w.r.t. $(\alpha=1, \theta=1)$) -->
     <defs>
      <path d="M 55.71875 33.015625 
L 49.3125 0 
L 40.28125 0 
L 46.6875 32.671875 
Q 47.125 34.96875 47.359375 36.71875 
Q 47.609375 38.484375 47.609375 39.5 
Q 47.609375 43.609375 45.015625 45.890625 
Q 42.4375 48.1875 37.796875 48.1875 
Q 30.5625 48.1875 25.265625 43.296875 
Q 19.96875 38.421875 18.40625 30.328125 
L 12.5 0 
L 3.515625 0 
L 18.3125 75.984375 
L 27.296875 75.984375 
L 21.484375 46.09375 
Q 24.90625 50.6875 30.21875 53.34375 
Q 35.546875 56 41.40625 56 
Q 48.640625 56 52.609375 52.09375 
Q 56.59375 48.1875 56.59375 41.109375 
Q 56.59375 39.359375 56.375 37.359375 
Q 56.15625 35.359375 55.71875 33.015625 
z
" id="DejaVuSans-Oblique-104"/>
      <path d="M 59.625 54.6875 
L 50.296875 6.78125 
Q 47.609375 -7.125 40.015625 -13.953125 
Q 32.421875 -20.796875 19.578125 -20.796875 
Q 14.84375 -20.796875 10.78125 -20.09375 
Q 6.734375 -19.390625 3.21875 -17.921875 
L 4.890625 -9.1875 
Q 8.203125 -11.328125 11.90625 -12.34375 
Q 15.625 -13.375 19.828125 -13.375 
Q 28.375 -13.375 33.859375 -8.703125 
Q 39.359375 -4.046875 41.109375 4.6875 
L 41.890625 8.796875 
Q 38.140625 4.5 33.15625 2.25 
Q 28.171875 0 22.40625 0 
Q 14.109375 0 9.34375 5.484375 
Q 4.59375 10.984375 4.59375 20.609375 
Q 4.59375 28.171875 7.46875 35.421875 
Q 10.359375 42.671875 15.578125 48.296875 
Q 19.046875 52 23.65625 54 
Q 28.265625 56 33.296875 56 
Q 38.8125 56 42.90625 53.4375 
Q 47.015625 50.875 49.03125 46.1875 
L 50.59375 54.6875 
z
M 46.09375 34.625 
Q 46.09375 41.265625 42.96875 44.875 
Q 39.84375 48.484375 34.078125 48.484375 
Q 30.515625 48.484375 27.296875 47.0625 
Q 24.078125 45.65625 21.78125 43.109375 
Q 18.0625 38.921875 15.984375 33.234375 
Q 13.921875 27.546875 13.921875 21.484375 
Q 13.921875 14.75 17.0625 11.125 
Q 20.21875 7.515625 26.125 7.515625 
Q 34.671875 7.515625 40.375 15.25 
Q 46.09375 23 46.09375 34.625 
z
" id="DejaVuSans-Oblique-103"/>
      <path d="M 72.703125 32.078125 
Q 68.453125 32.078125 66.03125 28.46875 
Q 63.625 24.859375 63.625 18.40625 
Q 63.625 12.0625 66.03125 8.421875 
Q 68.453125 4.78125 72.703125 4.78125 
Q 76.859375 4.78125 79.265625 8.421875 
Q 81.6875 12.0625 81.6875 18.40625 
Q 81.6875 24.8125 79.265625 28.4375 
Q 76.859375 32.078125 72.703125 32.078125 
z
M 72.703125 38.28125 
Q 80.421875 38.28125 84.953125 32.90625 
Q 89.5 27.546875 89.5 18.40625 
Q 89.5 9.28125 84.9375 3.921875 
Q 80.375 -1.421875 72.703125 -1.421875 
Q 64.890625 -1.421875 60.34375 3.921875 
Q 55.8125 9.28125 55.8125 18.40625 
Q 55.8125 27.59375 60.375 32.9375 
Q 64.9375 38.28125 72.703125 38.28125 
z
M 22.3125 68.015625 
Q 18.109375 68.015625 15.6875 64.375 
Q 13.28125 60.75 13.28125 54.390625 
Q 13.28125 47.953125 15.671875 44.328125 
Q 18.0625 40.71875 22.3125 40.71875 
Q 26.5625 40.71875 28.96875 44.328125 
Q 31.390625 47.953125 31.390625 54.390625 
Q 31.390625 60.6875 28.953125 64.34375 
Q 26.515625 68.015625 22.3125 68.015625 
z
M 66.40625 74.21875 
L 74.21875 74.21875 
L 28.609375 -1.421875 
L 20.796875 -1.421875 
z
M 22.3125 74.21875 
Q 30.03125 74.21875 34.609375 68.875 
Q 39.203125 63.53125 39.203125 54.390625 
Q 39.203125 45.171875 34.640625 39.84375 
Q 30.078125 34.515625 22.3125 34.515625 
Q 14.546875 34.515625 10.03125 39.859375 
Q 5.515625 45.21875 5.515625 54.390625 
Q 5.515625 63.484375 10.046875 68.84375 
Q 14.59375 74.21875 22.3125 74.21875 
z
" id="DejaVuSans-37"/>
      <path d="M 4.203125 54.6875 
L 13.1875 54.6875 
L 24.421875 12.015625 
L 35.59375 54.6875 
L 46.1875 54.6875 
L 57.421875 12.015625 
L 68.609375 54.6875 
L 77.59375 54.6875 
L 63.28125 0 
L 52.6875 0 
L 40.921875 44.828125 
L 29.109375 0 
L 18.5 0 
z
" id="DejaVuSans-119"/>
      <path d="M 10.6875 12.40625 
L 21 12.40625 
L 21 0 
L 10.6875 0 
z
" id="DejaVuSans-46"/>
      <path d="M 40.921875 25.4375 
L 40.96875 36.71875 
Q 41.015625 48.25 32.328125 48.296875 
Q 25.828125 48.34375 21.78125 42.921875 
Q 16.703125 36.234375 14.984375 27.296875 
Q 12.890625 16.546875 15.53125 11.421875 
Q 18.265625 6.203125 24.171875 6.203125 
Q 30.71875 6.203125 36.234375 16.609375 
z
M 33.84375 55.90625 
Q 49.078125 56.15625 48.875 40.375 
Q 48.875 40.375 56.5 54.6875 
L 64.5 54.6875 
L 48.734375 25.046875 
L 48.578125 14.359375 
Q 48.578125 11.96875 49.90625 9.96875 
Q 51.421875 7.625 52.984375 7.625 
L 57.328125 7.625 
L 55.859375 0 
L 50.4375 0 
Q 45.84375 0 42.53125 4.109375 
Q 40.96875 6.15625 40.921875 10.453125 
Q 37.75 5.21875 32.28125 0.78125 
Q 29.6875 -1.265625 22.703125 -1.21875 
Q 11.28125 -1.125 7.125 6.203125 
Q 2.875 13.8125 5.515625 27.296875 
Q 8.34375 41.796875 15.765625 48.390625 
Q 24.125 55.765625 33.84375 55.90625 
z
" id="DejaVuSans-Oblique-945"/>
      <path d="M 10.59375 45.40625 
L 73.1875 45.40625 
L 73.1875 37.203125 
L 10.59375 37.203125 
z
M 10.59375 25.484375 
L 73.1875 25.484375 
L 73.1875 17.1875 
L 10.59375 17.1875 
z
" id="DejaVuSans-61"/>
      <path d="M 11.71875 12.40625 
L 22.015625 12.40625 
L 22.015625 4 
L 14.015625 -11.625 
L 7.71875 -11.625 
L 11.71875 4 
z
" id="DejaVuSans-44"/>
      <path d="M 45.515625 34.671875 
L 14.453125 34.671875 
Q 12.359375 20.0625 14.5 13.875 
Q 17.1875 6.25 24.46875 6.25 
Q 31.78125 6.25 37.359375 13.921875 
Q 42.234375 20.65625 45.515625 34.671875 
z
M 47.015625 42.96875 
Q 48.34375 56.84375 46.625 61.71875 
Q 43.953125 69.4375 36.765625 69.4375 
Q 29.296875 69.4375 23.828125 61.8125 
Q 19.53125 55.671875 16.15625 42.96875 
z
M 38.1875 76.765625 
Q 49.90625 76.765625 54.59375 66.40625 
Q 59.28125 56.109375 55.71875 37.84375 
Q 52.203125 19.625 43.453125 9.28125 
Q 34.765625 -1.125 23.046875 -1.125 
Q 11.28125 -1.125 6.640625 9.28125 
Q 2 19.625 5.515625 37.84375 
Q 9.078125 56.109375 17.71875 66.40625 
Q 26.421875 76.765625 38.1875 76.765625 
z
" id="DejaVuSans-Oblique-952"/>
     </defs>
     <g transform="translate(39.661266 404.87)rotate(-90)scale(0.18 -0.18)">
      <use transform="translate(0 0.765625)" xlink:href="#DejaVuSans-Oblique-104"/>
      <use transform="translate(70.826615 39.046875)scale(0.7)" xlink:href="#DejaVuSans-50"/>
      <use transform="translate(63.378906 -26.578125)scale(0.7)" xlink:href="#DejaVuSans-Oblique-103"/>
      <use transform="translate(118.097122 0.765625)" xlink:href="#DejaVuSans-32"/>
      <use transform="translate(149.884232 0.765625)" xlink:href="#DejaVuSans-40"/>
      <use transform="translate(188.897904 0.765625)" xlink:href="#DejaVuSans-37"/>
      <use transform="translate(283.917435 0.765625)" xlink:href="#DejaVuSans-32"/>
      <use transform="translate(315.704544 0.765625)" xlink:href="#DejaVuSans-100"/>
      <use transform="translate(379.181107 0.765625)" xlink:href="#DejaVuSans-105"/>
      <use transform="translate(406.96431 0.765625)" xlink:href="#DejaVuSans-102"/>
      <use transform="translate(442.169388 0.765625)" xlink:href="#DejaVuSans-102"/>
      <use transform="translate(477.374466 0.765625)" xlink:href="#DejaVuSans-101"/>
      <use transform="translate(538.897904 0.765625)" xlink:href="#DejaVuSans-114"/>
      <use transform="translate(580.011185 0.765625)" xlink:href="#DejaVuSans-101"/>
      <use transform="translate(641.534622 0.765625)" xlink:href="#DejaVuSans-110"/>
      <use transform="translate(704.913529 0.765625)" xlink:href="#DejaVuSans-99"/>
      <use transform="translate(759.893997 0.765625)" xlink:href="#DejaVuSans-101"/>
      <use transform="translate(821.417435 0.765625)" xlink:href="#DejaVuSans-32"/>
      <use transform="translate(853.204544 0.765625)" xlink:href="#DejaVuSans-119"/>
      <use transform="translate(934.991654 0.765625)" xlink:href="#DejaVuSans-46"/>
      <use transform="translate(966.778763 0.765625)" xlink:href="#DejaVuSans-114"/>
      <use transform="translate(1007.892044 0.765625)" xlink:href="#DejaVuSans-46"/>
      <use transform="translate(1039.679154 0.765625)" xlink:href="#DejaVuSans-116"/>
      <use transform="translate(1078.888138 0.765625)" xlink:href="#DejaVuSans-46"/>
      <use transform="translate(1110.675247 0.765625)" xlink:href="#DejaVuSans-32"/>
      <use transform="translate(1142.462357 0.765625)" xlink:href="#DejaVuSans-40"/>
      <use transform="translate(1181.476029 0.765625)" xlink:href="#DejaVuSans-Oblique-945"/>
      <use transform="translate(1266.876419 0.765625)" xlink:href="#DejaVuSans-61"/>
      <use transform="translate(1370.147904 0.765625)" xlink:href="#DejaVuSans-49"/>
      <use transform="translate(1433.770951 0.765625)" xlink:href="#DejaVuSans-44"/>
      <use transform="translate(1485.040482 0.765625)" xlink:href="#DejaVuSans-Oblique-952"/>
      <use transform="translate(1565.704544 0.765625)" xlink:href="#DejaVuSans-61"/>
      <use transform="translate(1668.976029 0.765625)" xlink:href="#DejaVuSans-49"/>
      <use transform="translate(1732.599076 0.765625)" xlink:href="#DejaVuSans-41"/>
      <use transform="translate(1771.612747 0.765625)" xlink:href="#DejaVuSans-41"/>
     </g>
    </g>
   </g>
   <g id="LineCollection_1">
    <path clip-path="url(#p28cf1b7c34)" d="M 140.134134 235.019507 
L 140.134134 169.18324 
" style="fill:none;stroke:#000000;"/>
    <path clip-path="url(#p28cf1b7c34)" d="M 188.35458 302.434558 
L 188.35458 241.828045 
" style="fill:none;stroke:#000000;"/>
    <path clip-path="url(#p28cf1b7c34)" d="M 236.575026 320.681962 
L 236.575026 245.611452 
" style="fill:none;stroke:#000000;"/>
    <path clip-path="url(#p28cf1b7c34)" d="M 284.795472 290.344667 
L 284.795472 237.570769 
" style="fill:none;stroke:#000000;"/>
    <path clip-path="url(#p28cf1b7c34)" d="M 333.015917 216.022329 
L 333.015917 176.420062 
" style="fill:none;stroke:#000000;"/>
    <path clip-path="url(#p28cf1b7c34)" d="M 381.236363 282.226258 
L 381.236363 204.126117 
" style="fill:none;stroke:#000000;"/>
    <path clip-path="url(#p28cf1b7c34)" d="M 429.456809 268.064118 
L 429.456809 188.840532 
" style="fill:none;stroke:#000000;"/>
    <path clip-path="url(#p28cf1b7c34)" d="M 477.677255 257.034262 
L 477.677255 208.431092 
" style="fill:none;stroke:#000000;"/>
    <path clip-path="url(#p28cf1b7c34)" d="M 525.897701 320.328173 
L 525.897701 248.722859 
" style="fill:none;stroke:#000000;"/>
    <path clip-path="url(#p28cf1b7c34)" d="M 574.118146 319.175877 
L 574.118146 259.759478 
" style="fill:none;stroke:#000000;"/>
    <path clip-path="url(#p28cf1b7c34)" d="M 622.338592 444.098182 
L 622.338592 336.827873 
" style="fill:none;stroke:#000000;"/>
    <path clip-path="url(#p28cf1b7c34)" d="M 670.559038 248.604433 
L 670.559038 202.391558 
" style="fill:none;stroke:#000000;"/>
    <path clip-path="url(#p28cf1b7c34)" d="M 718.779484 252.163529 
L 718.779484 205.21822 
" style="fill:none;stroke:#000000;"/>
    <path clip-path="url(#p28cf1b7c34)" d="M 766.999929 231.350198 
L 766.999929 188.698807 
" style="fill:none;stroke:#000000;"/>
    <path clip-path="url(#p28cf1b7c34)" d="M 815.220375 250.399111 
L 815.220375 195.549598 
" style="fill:none;stroke:#000000;"/>
   </g>
   <g id="LineCollection_2">
    <path clip-path="url(#p28cf1b7c34)" d="M 152.189246 132.815424 
L 152.189246 61.87615 
" style="fill:none;stroke:#000000;"/>
    <path clip-path="url(#p28cf1b7c34)" d="M 200.409692 219.439945 
L 200.409692 154.210467 
" style="fill:none;stroke:#000000;"/>
    <path clip-path="url(#p28cf1b7c34)" d="M 248.630137 234.684925 
L 248.630137 162.378244 
" style="fill:none;stroke:#000000;"/>
    <path clip-path="url(#p28cf1b7c34)" d="M 296.850583 217.957897 
L 296.850583 163.155919 
" style="fill:none;stroke:#000000;"/>
    <path clip-path="url(#p28cf1b7c34)" d="M 345.071029 155.40283 
L 345.071029 115.913545 
" style="fill:none;stroke:#000000;"/>
    <path clip-path="url(#p28cf1b7c34)" d="M 393.291475 207.75427 
L 393.291475 126.842669 
" style="fill:none;stroke:#000000;"/>
    <path clip-path="url(#p28cf1b7c34)" d="M 441.51192 187.197193 
L 441.51192 108.732331 
" style="fill:none;stroke:#000000;"/>
    <path clip-path="url(#p28cf1b7c34)" d="M 489.732366 192.138911 
L 489.732366 142.398692 
" style="fill:none;stroke:#000000;"/>
    <path clip-path="url(#p28cf1b7c34)" d="M 537.952812 245.788021 
L 537.952812 175.031847 
" style="fill:none;stroke:#000000;"/>
    <path clip-path="url(#p28cf1b7c34)" d="M 586.173258 262.473192 
L 586.173258 201.180248 
" style="fill:none;stroke:#000000;"/>
    <path clip-path="url(#p28cf1b7c34)" d="M 634.393703 390.463469 
L 634.393703 289.623746 
" style="fill:none;stroke:#000000;"/>
    <path clip-path="url(#p28cf1b7c34)" d="M 682.614149 184.161194 
L 682.614149 136.83079 
" style="fill:none;stroke:#000000;"/>
    <path clip-path="url(#p28cf1b7c34)" d="M 730.834595 195.642507 
L 730.834595 148.587861 
" style="fill:none;stroke:#000000;"/>
    <path clip-path="url(#p28cf1b7c34)" d="M 779.055041 186.695786 
L 779.055041 143.417033 
" style="fill:none;stroke:#000000;"/>
    <path clip-path="url(#p28cf1b7c34)" d="M 827.275487 226.532789 
L 827.275487 172.353199 
" style="fill:none;stroke:#000000;"/>
   </g>
   <g id="LineCollection_3">
    <path clip-path="url(#p28cf1b7c34)" d="M 164.244357 98.396318 
L 164.244357 39.661818 
" style="fill:none;stroke:#000000;"/>
    <path clip-path="url(#p28cf1b7c34)" d="M 212.464803 124.605907 
L 212.464803 61.538238 
" style="fill:none;stroke:#000000;"/>
    <path clip-path="url(#p28cf1b7c34)" d="M 260.685249 120.408307 
L 260.685249 48.761983 
" style="fill:none;stroke:#000000;"/>
    <path clip-path="url(#p28cf1b7c34)" d="M 308.905695 132.208162 
L 308.905695 75.443567 
" style="fill:none;stroke:#000000;"/>
    <path clip-path="url(#p28cf1b7c34)" d="M 357.12614 127.825452 
L 357.12614 92.655139 
" style="fill:none;stroke:#000000;"/>
    <path clip-path="url(#p28cf1b7c34)" d="M 405.346586 124.986411 
L 405.346586 51.282138 
" style="fill:none;stroke:#000000;"/>
    <path clip-path="url(#p28cf1b7c34)" d="M 453.567032 132.489245 
L 453.567032 62.094 
" style="fill:none;stroke:#000000;"/>
    <path clip-path="url(#p28cf1b7c34)" d="M 501.787478 130.726025 
L 501.787478 82.542607 
" style="fill:none;stroke:#000000;"/>
    <path clip-path="url(#p28cf1b7c34)" d="M 550.007923 137.768133 
L 550.007923 77.571322 
" style="fill:none;stroke:#000000;"/>
    <path clip-path="url(#p28cf1b7c34)" d="M 598.228369 163.453169 
L 598.228369 105.369474 
" style="fill:none;stroke:#000000;"/>
    <path clip-path="url(#p28cf1b7c34)" d="M 646.448815 182.51181 
L 646.448815 49.454212 
" style="fill:none;stroke:#000000;"/>
    <path clip-path="url(#p28cf1b7c34)" d="M 694.669261 126.521608 
L 694.669261 76.713849 
" style="fill:none;stroke:#000000;"/>
    <path clip-path="url(#p28cf1b7c34)" d="M 742.889706 142.005981 
L 742.889706 92.127002 
" style="fill:none;stroke:#000000;"/>
    <path clip-path="url(#p28cf1b7c34)" d="M 791.110152 154.500382 
L 791.110152 113.866465 
" style="fill:none;stroke:#000000;"/>
    <path clip-path="url(#p28cf1b7c34)" d="M 839.330598 175.178371 
L 839.330598 121.678853 
" style="fill:none;stroke:#000000;"/>
   </g>
   <g id="line2d_21">
    <defs>
     <path d="M 2 0 
L -2 -0 
" id="m8d68ab481e" style="stroke:#000000;"/>
    </defs>
    <g clip-path="url(#p28cf1b7c34)">
     <use style="stroke:#000000;" x="140.134134" xlink:href="#m8d68ab481e" y="235.019507"/>
     <use style="stroke:#000000;" x="188.35458" xlink:href="#m8d68ab481e" y="302.434558"/>
     <use style="stroke:#000000;" x="236.575026" xlink:href="#m8d68ab481e" y="320.681962"/>
     <use style="stroke:#000000;" x="284.795472" xlink:href="#m8d68ab481e" y="290.344667"/>
     <use style="stroke:#000000;" x="333.015917" xlink:href="#m8d68ab481e" y="216.022329"/>
     <use style="stroke:#000000;" x="381.236363" xlink:href="#m8d68ab481e" y="282.226258"/>
     <use style="stroke:#000000;" x="429.456809" xlink:href="#m8d68ab481e" y="268.064118"/>
     <use style="stroke:#000000;" x="477.677255" xlink:href="#m8d68ab481e" y="257.034262"/>
     <use style="stroke:#000000;" x="525.897701" xlink:href="#m8d68ab481e" y="320.328173"/>
     <use style="stroke:#000000;" x="574.118146" xlink:href="#m8d68ab481e" y="319.175877"/>
     <use style="stroke:#000000;" x="622.338592" xlink:href="#m8d68ab481e" y="444.098182"/>
     <use style="stroke:#000000;" x="670.559038" xlink:href="#m8d68ab481e" y="248.604433"/>
     <use style="stroke:#000000;" x="718.779484" xlink:href="#m8d68ab481e" y="252.163529"/>
     <use style="stroke:#000000;" x="766.999929" xlink:href="#m8d68ab481e" y="231.350198"/>
     <use style="stroke:#000000;" x="815.220375" xlink:href="#m8d68ab481e" y="250.399111"/>
    </g>
   </g>
   <g id="line2d_22">
    <g clip-path="url(#p28cf1b7c34)">
     <use style="stroke:#000000;" x="140.134134" xlink:href="#m8d68ab481e" y="169.18324"/>
     <use style="stroke:#000000;" x="188.35458" xlink:href="#m8d68ab481e" y="241.828045"/>
     <use style="stroke:#000000;" x="236.575026" xlink:href="#m8d68ab481e" y="245.611452"/>
     <use style="stroke:#000000;" x="284.795472" xlink:href="#m8d68ab481e" y="237.570769"/>
     <use style="stroke:#000000;" x="333.015917" xlink:href="#m8d68ab481e" y="176.420062"/>
     <use style="stroke:#000000;" x="381.236363" xlink:href="#m8d68ab481e" y="204.126117"/>
     <use style="stroke:#000000;" x="429.456809" xlink:href="#m8d68ab481e" y="188.840532"/>
     <use style="stroke:#000000;" x="477.677255" xlink:href="#m8d68ab481e" y="208.431092"/>
     <use style="stroke:#000000;" x="525.897701" xlink:href="#m8d68ab481e" y="248.722859"/>
     <use style="stroke:#000000;" x="574.118146" xlink:href="#m8d68ab481e" y="259.759478"/>
     <use style="stroke:#000000;" x="622.338592" xlink:href="#m8d68ab481e" y="336.827873"/>
     <use style="stroke:#000000;" x="670.559038" xlink:href="#m8d68ab481e" y="202.391558"/>
     <use style="stroke:#000000;" x="718.779484" xlink:href="#m8d68ab481e" y="205.21822"/>
     <use style="stroke:#000000;" x="766.999929" xlink:href="#m8d68ab481e" y="188.698807"/>
     <use style="stroke:#000000;" x="815.220375" xlink:href="#m8d68ab481e" y="195.549598"/>
    </g>
   </g>
   <g id="line2d_23">
    <g clip-path="url(#p28cf1b7c34)">
     <use style="stroke:#000000;" x="152.189246" xlink:href="#m8d68ab481e" y="132.815424"/>
     <use style="stroke:#000000;" x="200.409692" xlink:href="#m8d68ab481e" y="219.439945"/>
     <use style="stroke:#000000;" x="248.630137" xlink:href="#m8d68ab481e" y="234.684925"/>
     <use style="stroke:#000000;" x="296.850583" xlink:href="#m8d68ab481e" y="217.957897"/>
     <use style="stroke:#000000;" x="345.071029" xlink:href="#m8d68ab481e" y="155.40283"/>
     <use style="stroke:#000000;" x="393.291475" xlink:href="#m8d68ab481e" y="207.75427"/>
     <use style="stroke:#000000;" x="441.51192" xlink:href="#m8d68ab481e" y="187.197193"/>
     <use style="stroke:#000000;" x="489.732366" xlink:href="#m8d68ab481e" y="192.138911"/>
     <use style="stroke:#000000;" x="537.952812" xlink:href="#m8d68ab481e" y="245.788021"/>
     <use style="stroke:#000000;" x="586.173258" xlink:href="#m8d68ab481e" y="262.473192"/>
     <use style="stroke:#000000;" x="634.393703" xlink:href="#m8d68ab481e" y="390.463469"/>
     <use style="stroke:#000000;" x="682.614149" xlink:href="#m8d68ab481e" y="184.161194"/>
     <use style="stroke:#000000;" x="730.834595" xlink:href="#m8d68ab481e" y="195.642507"/>
     <use style="stroke:#000000;" x="779.055041" xlink:href="#m8d68ab481e" y="186.695786"/>
     <use style="stroke:#000000;" x="827.275487" xlink:href="#m8d68ab481e" y="226.532789"/>
    </g>
   </g>
   <g id="line2d_24">
    <g clip-path="url(#p28cf1b7c34)">
     <use style="stroke:#000000;" x="152.189246" xlink:href="#m8d68ab481e" y="61.87615"/>
     <use style="stroke:#000000;" x="200.409692" xlink:href="#m8d68ab481e" y="154.210467"/>
     <use style="stroke:#000000;" x="248.630137" xlink:href="#m8d68ab481e" y="162.378244"/>
     <use style="stroke:#000000;" x="296.850583" xlink:href="#m8d68ab481e" y="163.155919"/>
     <use style="stroke:#000000;" x="345.071029" xlink:href="#m8d68ab481e" y="115.913545"/>
     <use style="stroke:#000000;" x="393.291475" xlink:href="#m8d68ab481e" y="126.842669"/>
     <use style="stroke:#000000;" x="441.51192" xlink:href="#m8d68ab481e" y="108.732331"/>
     <use style="stroke:#000000;" x="489.732366" xlink:href="#m8d68ab481e" y="142.398692"/>
     <use style="stroke:#000000;" x="537.952812" xlink:href="#m8d68ab481e" y="175.031847"/>
     <use style="stroke:#000000;" x="586.173258" xlink:href="#m8d68ab481e" y="201.180248"/>
     <use style="stroke:#000000;" x="634.393703" xlink:href="#m8d68ab481e" y="289.623746"/>
     <use style="stroke:#000000;" x="682.614149" xlink:href="#m8d68ab481e" y="136.83079"/>
     <use style="stroke:#000000;" x="730.834595" xlink:href="#m8d68ab481e" y="148.587861"/>
     <use style="stroke:#000000;" x="779.055041" xlink:href="#m8d68ab481e" y="143.417033"/>
     <use style="stroke:#000000;" x="827.275487" xlink:href="#m8d68ab481e" y="172.353199"/>
    </g>
   </g>
   <g id="line2d_25">
    <g clip-path="url(#p28cf1b7c34)">
     <use style="stroke:#000000;" x="164.244357" xlink:href="#m8d68ab481e" y="98.396318"/>
     <use style="stroke:#000000;" x="212.464803" xlink:href="#m8d68ab481e" y="124.605907"/>
     <use style="stroke:#000000;" x="260.685249" xlink:href="#m8d68ab481e" y="120.408307"/>
     <use style="stroke:#000000;" x="308.905695" xlink:href="#m8d68ab481e" y="132.208162"/>
     <use style="stroke:#000000;" x="357.12614" xlink:href="#m8d68ab481e" y="127.825452"/>
     <use style="stroke:#000000;" x="405.346586" xlink:href="#m8d68ab481e" y="124.986411"/>
     <use style="stroke:#000000;" x="453.567032" xlink:href="#m8d68ab481e" y="132.489245"/>
     <use style="stroke:#000000;" x="501.787478" xlink:href="#m8d68ab481e" y="130.726025"/>
     <use style="stroke:#000000;" x="550.007923" xlink:href="#m8d68ab481e" y="137.768133"/>
     <use style="stroke:#000000;" x="598.228369" xlink:href="#m8d68ab481e" y="163.453169"/>
     <use style="stroke:#000000;" x="646.448815" xlink:href="#m8d68ab481e" y="182.51181"/>
     <use style="stroke:#000000;" x="694.669261" xlink:href="#m8d68ab481e" y="126.521608"/>
     <use style="stroke:#000000;" x="742.889706" xlink:href="#m8d68ab481e" y="142.005981"/>
     <use style="stroke:#000000;" x="791.110152" xlink:href="#m8d68ab481e" y="154.500382"/>
     <use style="stroke:#000000;" x="839.330598" xlink:href="#m8d68ab481e" y="175.178371"/>
    </g>
   </g>
   <g id="line2d_26">
    <g clip-path="url(#p28cf1b7c34)">
     <use style="stroke:#000000;" x="164.244357" xlink:href="#m8d68ab481e" y="39.661818"/>
     <use style="stroke:#000000;" x="212.464803" xlink:href="#m8d68ab481e" y="61.538238"/>
     <use style="stroke:#000000;" x="260.685249" xlink:href="#m8d68ab481e" y="48.761983"/>
     <use style="stroke:#000000;" x="308.905695" xlink:href="#m8d68ab481e" y="75.443567"/>
     <use style="stroke:#000000;" x="357.12614" xlink:href="#m8d68ab481e" y="92.655139"/>
     <use style="stroke:#000000;" x="405.346586" xlink:href="#m8d68ab481e" y="51.282138"/>
     <use style="stroke:#000000;" x="453.567032" xlink:href="#m8d68ab481e" y="62.094"/>
     <use style="stroke:#000000;" x="501.787478" xlink:href="#m8d68ab481e" y="82.542607"/>
     <use style="stroke:#000000;" x="550.007923" xlink:href="#m8d68ab481e" y="77.571322"/>
     <use style="stroke:#000000;" x="598.228369" xlink:href="#m8d68ab481e" y="105.369474"/>
     <use style="stroke:#000000;" x="646.448815" xlink:href="#m8d68ab481e" y="49.454212"/>
     <use style="stroke:#000000;" x="694.669261" xlink:href="#m8d68ab481e" y="76.713849"/>
     <use style="stroke:#000000;" x="742.889706" xlink:href="#m8d68ab481e" y="92.127002"/>
     <use style="stroke:#000000;" x="791.110152" xlink:href="#m8d68ab481e" y="113.866465"/>
     <use style="stroke:#000000;" x="839.330598" xlink:href="#m8d68ab481e" y="121.678853"/>
    </g>
   </g>
   <g id="patch_48">
    <path d="M 98.544 464.32 
L 98.544 19.44 
" style="fill:none;stroke:#000000;stroke-linecap:square;stroke-linejoin:miter;stroke-width:1.875;"/>
   </g>
   <g id="patch_49">
    <path d="M 880.920732 464.32 
L 880.920732 19.44 
" style="fill:none;stroke:#000000;stroke-linecap:square;stroke-linejoin:miter;stroke-width:1.875;"/>
   </g>
   <g id="patch_50">
    <path d="M 98.544 464.32 
L 880.920732 464.32 
" style="fill:none;stroke:#000000;stroke-linecap:square;stroke-linejoin:miter;stroke-width:1.875;"/>
   </g>
   <g id="patch_51">
    <path d="M 98.544 19.44 
L 880.920732 19.44 
" style="fill:none;stroke:#000000;stroke-linecap:square;stroke-linejoin:miter;stroke-width:1.875;"/>
   </g>
   <g id="legend_1">
    <g id="patch_52">
     <path d="M 903.5945 222.214063 
L 936.5945 222.214063 
L 936.5945 210.664062 
L 903.5945 210.664062 
z
" style="fill:url(#h11a90d3c98);stroke:#ffffff;stroke-linejoin:miter;stroke-width:1.5;"/>
    </g>
    <g id="text_22">
     <!-- $(\alpha=1, \theta=0)$ -->
     <g transform="translate(949.7945 222.214063)scale(0.165 -0.165)">
      <use transform="translate(0 0.234375)" xlink:href="#DejaVuSans-40"/>
      <use transform="translate(39.013672 0.234375)" xlink:href="#DejaVuSans-Oblique-945"/>
      <use transform="translate(124.414062 0.234375)" xlink:href="#DejaVuSans-61"/>
      <use transform="translate(227.685547 0.234375)" xlink:href="#DejaVuSans-49"/>
      <use transform="translate(291.308594 0.234375)" xlink:href="#DejaVuSans-44"/>
      <use transform="translate(342.578125 0.234375)" xlink:href="#DejaVuSans-Oblique-952"/>
      <use transform="translate(423.242188 0.234375)" xlink:href="#DejaVuSans-61"/>
      <use transform="translate(526.513672 0.234375)" xlink:href="#DejaVuSans-48"/>
      <use transform="translate(590.136719 0.234375)" xlink:href="#DejaVuSans-41"/>
     </g>
    </g>
    <g id="patch_53">
     <path d="M 903.5945 246.432969 
L 936.5945 246.432969 
L 936.5945 234.882969 
L 903.5945 234.882969 
z
" style="fill:url(#hbb1e1460aa);stroke:#ffffff;stroke-linejoin:miter;stroke-width:1.5;"/>
    </g>
    <g id="text_23">
     <!-- $(\alpha=0, \theta=0)$ -->
     <g transform="translate(949.7945 246.432969)scale(0.165 -0.165)">
      <use transform="translate(0 0.234375)" xlink:href="#DejaVuSans-40"/>
      <use transform="translate(39.013672 0.234375)" xlink:href="#DejaVuSans-Oblique-945"/>
      <use transform="translate(124.414062 0.234375)" xlink:href="#DejaVuSans-61"/>
      <use transform="translate(227.685547 0.234375)" xlink:href="#DejaVuSans-48"/>
      <use transform="translate(291.308594 0.234375)" xlink:href="#DejaVuSans-44"/>
      <use transform="translate(342.578125 0.234375)" xlink:href="#DejaVuSans-Oblique-952"/>
      <use transform="translate(423.242188 0.234375)" xlink:href="#DejaVuSans-61"/>
      <use transform="translate(526.513672 0.234375)" xlink:href="#DejaVuSans-48"/>
      <use transform="translate(590.136719 0.234375)" xlink:href="#DejaVuSans-41"/>
     </g>
    </g>
    <g id="patch_54">
     <path d="M 903.5945 270.651875 
L 936.5945 270.651875 
L 936.5945 259.101875 
L 903.5945 259.101875 
z
" style="fill:#e15759;"/>
    </g>
    <g id="text_24">
     <!-- $(\alpha=0, \theta=1)$ -->
     <g transform="translate(949.7945 270.651875)scale(0.165 -0.165)">
      <use transform="translate(0 0.234375)" xlink:href="#DejaVuSans-40"/>
      <use transform="translate(39.013672 0.234375)" xlink:href="#DejaVuSans-Oblique-945"/>
      <use transform="translate(124.414062 0.234375)" xlink:href="#DejaVuSans-61"/>
      <use transform="translate(227.685547 0.234375)" xlink:href="#DejaVuSans-48"/>
      <use transform="translate(291.308594 0.234375)" xlink:href="#DejaVuSans-44"/>
      <use transform="translate(342.578125 0.234375)" xlink:href="#DejaVuSans-Oblique-952"/>
      <use transform="translate(423.242188 0.234375)" xlink:href="#DejaVuSans-61"/>
      <use transform="translate(526.513672 0.234375)" xlink:href="#DejaVuSans-49"/>
      <use transform="translate(590.136719 0.234375)" xlink:href="#DejaVuSans-41"/>
     </g>
    </g>
   </g>
  </g>
 </g>
 <defs>
  <clipPath id="p28cf1b7c34">
   <rect height="444.88" width="782.376732" x="98.544" y="19.44"/>
  </clipPath>
 </defs>
 <defs>
  <pattern height="72" id="h11a90d3c98" patternUnits="userSpaceOnUse" width="72" x="0" y="0">
   <rect fill="#f28e2b" height="73" width="73" x="0" y="0"/>
   <path d="M -36 36 
L 36 -36 
M -33 39 
L 39 -33 
M -30 42 
L 42 -30 
M -27 45 
L 45 -27 
M -24 48 
L 48 -24 
M -21 51 
L 51 -21 
M -18 54 
L 54 -18 
M -15 57 
L 57 -15 
M -12 60 
L 60 -12 
M -9 63 
L 63 -9 
M -6 66 
L 66 -6 
M -3 69 
L 69 -3 
M 0 72 
L 72 0 
M 3 75 
L 75 3 
M 6 78 
L 78 6 
M 9 81 
L 81 9 
M 12 84 
L 84 12 
M 15 87 
L 87 15 
M 18 90 
L 90 18 
M 21 93 
L 93 21 
M 24 96 
L 96 24 
M 27 99 
L 99 27 
M 30 102 
L 102 30 
M 33 105 
L 105 33 
M 36 108 
L 108 36 
" style="fill:#ffffff;stroke:#ffffff;stroke-linecap:butt;stroke-linejoin:miter;stroke-width:2.0;"/>
  </pattern>
  <pattern height="72" id="hbb1e1460aa" patternUnits="userSpaceOnUse" width="72" x="0" y="0">
   <rect fill="#76b7b2" height="73" width="73" x="0" y="0"/>
   <path d="M -36 36 
L 36 -36 
M -33 39 
L 39 -33 
M -30 42 
L 42 -30 
M -27 45 
L 45 -27 
M -24 48 
L 48 -24 
M -21 51 
L 51 -21 
M -18 54 
L 54 -18 
M -15 57 
L 57 -15 
M -12 60 
L 60 -12 
M -9 63 
L 63 -9 
M -6 66 
L 66 -6 
M -3 69 
L 69 -3 
M 0 72 
L 72 0 
M 3 75 
L 75 3 
M 6 78 
L 78 6 
M 9 81 
L 81 9 
M 12 84 
L 84 12 
M 15 87 
L 87 15 
M 18 90 
L 90 18 
M 21 93 
L 93 21 
M 24 96 
L 96 24 
M 27 99 
L 99 27 
M 30 102 
L 102 30 
M 33 105 
L 105 33 
M 36 108 
L 108 36 
" style="fill:#ffffff;stroke:#ffffff;stroke-linecap:butt;stroke-linejoin:miter;stroke-width:2.0;"/>
  </pattern>
 </defs>
</svg>
