<?xml version="1.0" encoding="utf-8" standalone="no"?>
<!DOCTYPE svg PUBLIC "-//W3C//DTD SVG 1.1//EN"
  "http://www.w3.org/Graphics/SVG/1.1/DTD/svg11.dtd">
<!-- Created with matplotlib (https://matplotlib.org/) -->
<svg height="720pt" version="1.1" viewBox="0 0 1080 720" width="1080pt" xmlns="http://www.w3.org/2000/svg" xmlns:xlink="http://www.w3.org/1999/xlink">
 <defs>
  <style type="text/css">
*{stroke-linecap:butt;stroke-linejoin:round;}
  </style>
 </defs>
 <g id="figure_1">
  <g id="patch_1">
   <path d="M 0 720 
L 1080 720 
L 1080 0 
L 0 0 
z
" style="fill:#ffffff;"/>
  </g>
  <g id="axes_1">
   <g id="patch_2">
    <path d="M 90.084 464.32 
L 883.192033 464.32 
L 883.192033 19.44 
L 90.084 19.44 
z
" style="fill:#ffffff;"/>
   </g>
   <g id="patch_3">
    <path clip-path="url(#p750ba96fc7)" d="M 126.134365 464.32 
L 134.235571 464.32 
L 134.235571 60.41005 
L 126.134365 60.41005 
z
" style="fill:#e15759;"/>
   </g>
   <g id="patch_4">
    <path clip-path="url(#p750ba96fc7)" d="M 174.741599 464.32 
L 182.842805 464.32 
L 182.842805 304.119046 
L 174.741599 304.119046 
z
" style="fill:#e15759;"/>
   </g>
   <g id="patch_5">
    <path clip-path="url(#p750ba96fc7)" d="M 223.348833 464.32 
L 231.450039 464.32 
L 231.450039 311.241492 
L 223.348833 311.241492 
z
" style="fill:#e15759;"/>
   </g>
   <g id="patch_6">
    <path clip-path="url(#p750ba96fc7)" d="M 271.956067 464.32 
L 280.057273 464.32 
L 280.057273 331.667783 
L 271.956067 331.667783 
z
" style="fill:#e15759;"/>
   </g>
   <g id="patch_7">
    <path clip-path="url(#p750ba96fc7)" d="M 320.563301 464.32 
L 328.664506 464.32 
L 328.664506 306.650322 
L 320.563301 306.650322 
z
" style="fill:#e15759;"/>
   </g>
   <g id="patch_8">
    <path clip-path="url(#p750ba96fc7)" d="M 369.170535 464.32 
L 377.27174 464.32 
L 377.27174 259.449153 
L 369.170535 259.449153 
z
" style="fill:#e15759;"/>
   </g>
   <g id="patch_9">
    <path clip-path="url(#p750ba96fc7)" d="M 417.777769 464.32 
L 425.878974 464.32 
L 425.878974 259.659525 
L 417.777769 259.659525 
z
" style="fill:#e15759;"/>
   </g>
   <g id="patch_10">
    <path clip-path="url(#p750ba96fc7)" d="M 466.385003 464.32 
L 474.486208 464.32 
L 474.486208 331.102331 
L 466.385003 331.102331 
z
" style="fill:#e15759;"/>
   </g>
   <g id="patch_11">
    <path clip-path="url(#p750ba96fc7)" d="M 514.992236 464.32 
L 523.093442 464.32 
L 523.093442 367.246505 
L 514.992236 367.246505 
z
" style="fill:#e15759;"/>
   </g>
   <g id="patch_12">
    <path clip-path="url(#p750ba96fc7)" d="M 563.59947 464.32 
L 571.700676 464.32 
L 571.700676 339.597209 
L 563.59947 339.597209 
z
" style="fill:#e15759;"/>
   </g>
   <g id="patch_13">
    <path clip-path="url(#p750ba96fc7)" d="M 612.206704 464.32 
L 620.30791 464.32 
L 620.30791 396.180166 
L 612.206704 396.180166 
z
" style="fill:#e15759;"/>
   </g>
   <g id="patch_14">
    <path clip-path="url(#p750ba96fc7)" d="M 660.813938 464.32 
L 668.915144 464.32 
L 668.915144 398.936459 
L 660.813938 398.936459 
z
" style="fill:#e15759;"/>
   </g>
   <g id="patch_15">
    <path clip-path="url(#p750ba96fc7)" d="M 709.421172 464.32 
L 717.522378 464.32 
L 717.522378 408.165772 
L 709.421172 408.165772 
z
" style="fill:#e15759;"/>
   </g>
   <g id="patch_16">
    <path clip-path="url(#p750ba96fc7)" d="M 758.028406 464.32 
L 766.129612 464.32 
L 766.129612 389.536232 
L 758.028406 389.536232 
z
" style="fill:#e15759;"/>
   </g>
   <g id="patch_17">
    <path clip-path="url(#p750ba96fc7)" d="M 806.63564 464.32 
L 814.736846 464.32 
L 814.736846 405.2764 
L 806.63564 405.2764 
z
" style="fill:#e15759;"/>
   </g>
   <g id="patch_18">
    <path clip-path="url(#p750ba96fc7)" d="M 134.235571 464.32 
L 142.336776 464.32 
L 142.336776 55.972656 
L 134.235571 55.972656 
z
" style="fill:#c66f6f;"/>
   </g>
   <g id="patch_19">
    <path clip-path="url(#p750ba96fc7)" d="M 182.842805 464.32 
L 190.94401 464.32 
L 190.94401 302.136826 
L 182.842805 302.136826 
z
" style="fill:#c66f6f;"/>
   </g>
   <g id="patch_20">
    <path clip-path="url(#p750ba96fc7)" d="M 231.450039 464.32 
L 239.551244 464.32 
L 239.551244 308.681042 
L 231.450039 308.681042 
z
" style="fill:#c66f6f;"/>
   </g>
   <g id="patch_21">
    <path clip-path="url(#p750ba96fc7)" d="M 280.057273 464.32 
L 288.158478 464.32 
L 288.158478 329.957517 
L 280.057273 329.957517 
z
" style="fill:#c66f6f;"/>
   </g>
   <g id="patch_22">
    <path clip-path="url(#p750ba96fc7)" d="M 328.664506 464.32 
L 336.765712 464.32 
L 336.765712 304.496189 
L 328.664506 304.496189 
z
" style="fill:#c66f6f;"/>
   </g>
   <g id="patch_23">
    <path clip-path="url(#p750ba96fc7)" d="M 377.27174 464.32 
L 385.372946 464.32 
L 385.372946 257.148094 
L 377.27174 257.148094 
z
" style="fill:#c66f6f;"/>
   </g>
   <g id="patch_24">
    <path clip-path="url(#p750ba96fc7)" d="M 425.878974 464.32 
L 433.98018 464.32 
L 433.98018 256.389215 
L 425.878974 256.389215 
z
" style="fill:#c66f6f;"/>
   </g>
   <g id="patch_25">
    <path clip-path="url(#p750ba96fc7)" d="M 474.486208 464.32 
L 482.587414 464.32 
L 482.587414 329.719436 
L 474.486208 329.719436 
z
" style="fill:#c66f6f;"/>
   </g>
   <g id="patch_26">
    <path clip-path="url(#p750ba96fc7)" d="M 523.093442 464.32 
L 531.194648 464.32 
L 531.194648 365.415441 
L 523.093442 365.415441 
z
" style="fill:#c66f6f;"/>
   </g>
   <g id="patch_27">
    <path clip-path="url(#p750ba96fc7)" d="M 571.700676 464.32 
L 579.801882 464.32 
L 579.801882 336.422995 
L 571.700676 336.422995 
z
" style="fill:#c66f6f;"/>
   </g>
   <g id="patch_28">
    <path clip-path="url(#p750ba96fc7)" d="M 620.30791 464.32 
L 628.409116 464.32 
L 628.409116 395.339954 
L 620.30791 395.339954 
z
" style="fill:#c66f6f;"/>
   </g>
   <g id="patch_29">
    <path clip-path="url(#p750ba96fc7)" d="M 668.915144 464.32 
L 677.016349 464.32 
L 677.016349 398.091467 
L 668.915144 398.091467 
z
" style="fill:#c66f6f;"/>
   </g>
   <g id="patch_30">
    <path clip-path="url(#p750ba96fc7)" d="M 717.522378 464.32 
L 725.623583 464.32 
L 725.623583 407.286111 
L 717.522378 407.286111 
z
" style="fill:#c66f6f;"/>
   </g>
   <g id="patch_31">
    <path clip-path="url(#p750ba96fc7)" d="M 766.129612 464.32 
L 774.230817 464.32 
L 774.230817 387.817892 
L 766.129612 387.817892 
z
" style="fill:#c66f6f;"/>
   </g>
   <g id="patch_32">
    <path clip-path="url(#p750ba96fc7)" d="M 814.736846 464.32 
L 822.838051 464.32 
L 822.838051 403.696351 
L 814.736846 403.696351 
z
" style="fill:#c66f6f;"/>
   </g>
   <g id="patch_33">
    <path clip-path="url(#p750ba96fc7)" d="M 142.336776 464.32 
L 150.437982 464.32 
L 150.437982 56.497019 
L 142.336776 56.497019 
z
" style="fill:#ac8786;"/>
   </g>
   <g id="patch_34">
    <path clip-path="url(#p750ba96fc7)" d="M 190.94401 464.32 
L 199.045216 464.32 
L 199.045216 301.64758 
L 190.94401 301.64758 
z
" style="fill:#ac8786;"/>
   </g>
   <g id="patch_35">
    <path clip-path="url(#p750ba96fc7)" d="M 239.551244 464.32 
L 247.65245 464.32 
L 247.65245 308.015639 
L 239.551244 308.015639 
z
" style="fill:#ac8786;"/>
   </g>
   <g id="patch_36">
    <path clip-path="url(#p750ba96fc7)" d="M 288.158478 464.32 
L 296.259684 464.32 
L 296.259684 328.70129 
L 288.158478 328.70129 
z
" style="fill:#ac8786;"/>
   </g>
   <g id="patch_37">
    <path clip-path="url(#p750ba96fc7)" d="M 336.765712 464.32 
L 344.866918 464.32 
L 344.866918 302.951974 
L 336.765712 302.951974 
z
" style="fill:#ac8786;"/>
   </g>
   <g id="patch_38">
    <path clip-path="url(#p750ba96fc7)" d="M 385.372946 464.32 
L 393.474152 464.32 
L 393.474152 256.099768 
L 385.372946 256.099768 
z
" style="fill:#ac8786;"/>
   </g>
   <g id="patch_39">
    <path clip-path="url(#p750ba96fc7)" d="M 433.98018 464.32 
L 442.081386 464.32 
L 442.081386 254.939283 
L 433.98018 254.939283 
z
" style="fill:#ac8786;"/>
   </g>
   <g id="patch_40">
    <path clip-path="url(#p750ba96fc7)" d="M 482.587414 464.32 
L 490.688619 464.32 
L 490.688619 328.458442 
L 482.587414 328.458442 
z
" style="fill:#ac8786;"/>
   </g>
   <g id="patch_41">
    <path clip-path="url(#p750ba96fc7)" d="M 531.194648 464.32 
L 539.295853 464.32 
L 539.295853 364.560208 
L 531.194648 364.560208 
z
" style="fill:#ac8786;"/>
   </g>
   <g id="patch_42">
    <path clip-path="url(#p750ba96fc7)" d="M 579.801882 464.32 
L 587.903087 464.32 
L 587.903087 334.02093 
L 579.801882 334.02093 
z
" style="fill:#ac8786;"/>
   </g>
   <g id="patch_43">
    <path clip-path="url(#p750ba96fc7)" d="M 628.409116 464.32 
L 636.510321 464.32 
L 636.510321 395.361974 
L 628.409116 395.361974 
z
" style="fill:#ac8786;"/>
   </g>
   <g id="patch_44">
    <path clip-path="url(#p750ba96fc7)" d="M 677.016349 464.32 
L 685.117555 464.32 
L 685.117555 397.388802 
L 677.016349 397.388802 
z
" style="fill:#ac8786;"/>
   </g>
   <g id="patch_45">
    <path clip-path="url(#p750ba96fc7)" d="M 725.623583 464.32 
L 733.724789 464.32 
L 733.724789 406.654027 
L 725.623583 406.654027 
z
" style="fill:#ac8786;"/>
   </g>
   <g id="patch_46">
    <path clip-path="url(#p750ba96fc7)" d="M 774.230817 464.32 
L 782.332023 464.32 
L 782.332023 386.170825 
L 774.230817 386.170825 
z
" style="fill:#ac8786;"/>
   </g>
   <g id="patch_47">
    <path clip-path="url(#p750ba96fc7)" d="M 822.838051 464.32 
L 830.939257 464.32 
L 830.939257 402.24133 
L 822.838051 402.24133 
z
" style="fill:#ac8786;"/>
   </g>
   <g id="patch_48">
    <path clip-path="url(#p750ba96fc7)" d="M 150.437982 464.32 
L 158.539188 464.32 
L 158.539188 61.376984 
L 150.437982 61.376984 
z
" style="fill:#919f9c;"/>
   </g>
   <g id="patch_49">
    <path clip-path="url(#p750ba96fc7)" d="M 199.045216 464.32 
L 207.146422 464.32 
L 207.146422 301.85857 
L 199.045216 301.85857 
z
" style="fill:#919f9c;"/>
   </g>
   <g id="patch_50">
    <path clip-path="url(#p750ba96fc7)" d="M 247.65245 464.32 
L 255.753656 464.32 
L 255.753656 309.522333 
L 247.65245 309.522333 
z
" style="fill:#919f9c;"/>
   </g>
   <g id="patch_51">
    <path clip-path="url(#p750ba96fc7)" d="M 296.259684 464.32 
L 304.360889 464.32 
L 304.360889 328.341174 
L 296.259684 328.341174 
z
" style="fill:#919f9c;"/>
   </g>
   <g id="patch_52">
    <path clip-path="url(#p750ba96fc7)" d="M 344.866918 464.32 
L 352.968123 464.32 
L 352.968123 302.225697 
L 344.866918 302.225697 
z
" style="fill:#919f9c;"/>
   </g>
   <g id="patch_53">
    <path clip-path="url(#p750ba96fc7)" d="M 393.474152 464.32 
L 401.575357 464.32 
L 401.575357 256.718052 
L 393.474152 256.718052 
z
" style="fill:#919f9c;"/>
   </g>
   <g id="patch_54">
    <path clip-path="url(#p750ba96fc7)" d="M 442.081386 464.32 
L 450.182591 464.32 
L 450.182591 255.059815 
L 442.081386 255.059815 
z
" style="fill:#919f9c;"/>
   </g>
   <g id="patch_55">
    <path clip-path="url(#p750ba96fc7)" d="M 490.688619 464.32 
L 498.789825 464.32 
L 498.789825 327.789377 
L 490.688619 327.789377 
z
" style="fill:#919f9c;"/>
   </g>
   <g id="patch_56">
    <path clip-path="url(#p750ba96fc7)" d="M 539.295853 464.32 
L 547.397059 464.32 
L 547.397059 364.471841 
L 539.295853 364.471841 
z
" style="fill:#919f9c;"/>
   </g>
   <g id="patch_57">
    <path clip-path="url(#p750ba96fc7)" d="M 587.903087 464.32 
L 596.004293 464.32 
L 596.004293 332.41407 
L 587.903087 332.41407 
z
" style="fill:#919f9c;"/>
   </g>
   <g id="patch_58">
    <path clip-path="url(#p750ba96fc7)" d="M 636.510321 464.32 
L 644.611527 464.32 
L 644.611527 396.03504 
L 636.510321 396.03504 
z
" style="fill:#919f9c;"/>
   </g>
   <g id="patch_59">
    <path clip-path="url(#p750ba96fc7)" d="M 685.117555 464.32 
L 693.218761 464.32 
L 693.218761 397.445407 
L 685.117555 397.445407 
z
" style="fill:#919f9c;"/>
   </g>
   <g id="patch_60">
    <path clip-path="url(#p750ba96fc7)" d="M 733.724789 464.32 
L 741.825995 464.32 
L 741.825995 406.467335 
L 733.724789 406.467335 
z
" style="fill:#919f9c;"/>
   </g>
   <g id="patch_61">
    <path clip-path="url(#p750ba96fc7)" d="M 782.332023 464.32 
L 790.433229 464.32 
L 790.433229 385.341711 
L 782.332023 385.341711 
z
" style="fill:#919f9c;"/>
   </g>
   <g id="patch_62">
    <path clip-path="url(#p750ba96fc7)" d="M 830.939257 464.32 
L 839.040462 464.32 
L 839.040462 401.657139 
L 830.939257 401.657139 
z
" style="fill:#919f9c;"/>
   </g>
   <g id="patch_63">
    <path clip-path="url(#p750ba96fc7)" d="M 158.539188 464.32 
L 166.640393 464.32 
L 166.640393 68.291205 
L 158.539188 68.291205 
z
" style="fill:#76b7b2;"/>
   </g>
   <g id="patch_64">
    <path clip-path="url(#p750ba96fc7)" d="M 207.146422 464.32 
L 215.247627 464.32 
L 215.247627 303.213015 
L 207.146422 303.213015 
z
" style="fill:#76b7b2;"/>
   </g>
   <g id="patch_65">
    <path clip-path="url(#p750ba96fc7)" d="M 255.753656 464.32 
L 263.854861 464.32 
L 263.854861 312.185995 
L 255.753656 312.185995 
z
" style="fill:#76b7b2;"/>
   </g>
   <g id="patch_66">
    <path clip-path="url(#p750ba96fc7)" d="M 304.360889 464.32 
L 312.462095 464.32 
L 312.462095 329.463844 
L 304.360889 329.463844 
z
" style="fill:#76b7b2;"/>
   </g>
   <g id="patch_67">
    <path clip-path="url(#p750ba96fc7)" d="M 352.968123 464.32 
L 361.069329 464.32 
L 361.069329 303.022624 
L 352.968123 303.022624 
z
" style="fill:#76b7b2;"/>
   </g>
   <g id="patch_68">
    <path clip-path="url(#p750ba96fc7)" d="M 401.575357 464.32 
L 409.676563 464.32 
L 409.676563 258.951543 
L 401.575357 258.951543 
z
" style="fill:#76b7b2;"/>
   </g>
   <g id="patch_69">
    <path clip-path="url(#p750ba96fc7)" d="M 450.182591 464.32 
L 458.283797 464.32 
L 458.283797 256.987931 
L 450.182591 256.987931 
z
" style="fill:#76b7b2;"/>
   </g>
   <g id="patch_70">
    <path clip-path="url(#p750ba96fc7)" d="M 498.789825 464.32 
L 506.891031 464.32 
L 506.891031 328.392397 
L 498.789825 328.392397 
z
" style="fill:#76b7b2;"/>
   </g>
   <g id="patch_71">
    <path clip-path="url(#p750ba96fc7)" d="M 547.397059 464.32 
L 555.498265 464.32 
L 555.498265 365.479016 
L 547.397059 365.479016 
z
" style="fill:#76b7b2;"/>
   </g>
   <g id="patch_72">
    <path clip-path="url(#p750ba96fc7)" d="M 596.004293 464.32 
L 604.105499 464.32 
L 604.105499 331.707768 
L 596.004293 331.707768 
z
" style="fill:#76b7b2;"/>
   </g>
   <g id="patch_73">
    <path clip-path="url(#p750ba96fc7)" d="M 644.611527 464.32 
L 652.712733 464.32 
L 652.712733 396.947638 
L 644.611527 396.947638 
z
" style="fill:#76b7b2;"/>
   </g>
   <g id="patch_74">
    <path clip-path="url(#p750ba96fc7)" d="M 693.218761 464.32 
L 701.319966 464.32 
L 701.319966 398.300077 
L 693.218761 398.300077 
z
" style="fill:#76b7b2;"/>
   </g>
   <g id="patch_75">
    <path clip-path="url(#p750ba96fc7)" d="M 741.825995 464.32 
L 749.9272 464.32 
L 749.9272 406.892031 
L 741.825995 406.892031 
z
" style="fill:#76b7b2;"/>
   </g>
   <g id="patch_76">
    <path clip-path="url(#p750ba96fc7)" d="M 790.433229 464.32 
L 798.534434 464.32 
L 798.534434 385.197131 
L 790.433229 385.197131 
z
" style="fill:#76b7b2;"/>
   </g>
   <g id="patch_77">
    <path clip-path="url(#p750ba96fc7)" d="M 839.040462 464.32 
L 847.141668 464.32 
L 847.141668 401.594106 
L 839.040462 401.594106 
z
" style="fill:#76b7b2;"/>
   </g>
   <g id="matplotlib.axis_1">
    <g id="xtick_1">
     <g id="line2d_1">
      <defs>
       <path d="M 0 0 
L 0 9 
" id="mbf4142c135" style="stroke:#000000;stroke-width:1.875;"/>
      </defs>
      <g>
       <use style="stroke:#000000;stroke-width:1.875;" x="146.387379" xlink:href="#mbf4142c135" y="464.32"/>
      </g>
     </g>
     <g id="text_1">
      <!-- Height (UKBB) -->
      <defs>
       <path d="M 9.8125 72.90625 
L 19.671875 72.90625 
L 19.671875 43.015625 
L 55.515625 43.015625 
L 55.515625 72.90625 
L 65.375 72.90625 
L 65.375 0 
L 55.515625 0 
L 55.515625 34.71875 
L 19.671875 34.71875 
L 19.671875 0 
L 9.8125 0 
z
" id="DejaVuSans-72"/>
       <path d="M 56.203125 29.59375 
L 56.203125 25.203125 
L 14.890625 25.203125 
Q 15.484375 15.921875 20.484375 11.0625 
Q 25.484375 6.203125 34.421875 6.203125 
Q 39.59375 6.203125 44.453125 7.46875 
Q 49.3125 8.734375 54.109375 11.28125 
L 54.109375 2.78125 
Q 49.265625 0.734375 44.1875 -0.34375 
Q 39.109375 -1.421875 33.890625 -1.421875 
Q 20.796875 -1.421875 13.15625 6.1875 
Q 5.515625 13.8125 5.515625 26.8125 
Q 5.515625 40.234375 12.765625 48.109375 
Q 20.015625 56 32.328125 56 
Q 43.359375 56 49.78125 48.890625 
Q 56.203125 41.796875 56.203125 29.59375 
z
M 47.21875 32.234375 
Q 47.125 39.59375 43.09375 43.984375 
Q 39.0625 48.390625 32.421875 48.390625 
Q 24.90625 48.390625 20.390625 44.140625 
Q 15.875 39.890625 15.1875 32.171875 
z
" id="DejaVuSans-101"/>
       <path d="M 9.421875 54.6875 
L 18.40625 54.6875 
L 18.40625 0 
L 9.421875 0 
z
M 9.421875 75.984375 
L 18.40625 75.984375 
L 18.40625 64.59375 
L 9.421875 64.59375 
z
" id="DejaVuSans-105"/>
       <path d="M 45.40625 27.984375 
Q 45.40625 37.75 41.375 43.109375 
Q 37.359375 48.484375 30.078125 48.484375 
Q 22.859375 48.484375 18.828125 43.109375 
Q 14.796875 37.75 14.796875 27.984375 
Q 14.796875 18.265625 18.828125 12.890625 
Q 22.859375 7.515625 30.078125 7.515625 
Q 37.359375 7.515625 41.375 12.890625 
Q 45.40625 18.265625 45.40625 27.984375 
z
M 54.390625 6.78125 
Q 54.390625 -7.171875 48.1875 -13.984375 
Q 42 -20.796875 29.203125 -20.796875 
Q 24.46875 -20.796875 20.265625 -20.09375 
Q 16.0625 -19.390625 12.109375 -17.921875 
L 12.109375 -9.1875 
Q 16.0625 -11.328125 19.921875 -12.34375 
Q 23.78125 -13.375 27.78125 -13.375 
Q 36.625 -13.375 41.015625 -8.765625 
Q 45.40625 -4.15625 45.40625 5.171875 
L 45.40625 9.625 
Q 42.625 4.78125 38.28125 2.390625 
Q 33.9375 0 27.875 0 
Q 17.828125 0 11.671875 7.65625 
Q 5.515625 15.328125 5.515625 27.984375 
Q 5.515625 40.671875 11.671875 48.328125 
Q 17.828125 56 27.875 56 
Q 33.9375 56 38.28125 53.609375 
Q 42.625 51.21875 45.40625 46.390625 
L 45.40625 54.6875 
L 54.390625 54.6875 
z
" id="DejaVuSans-103"/>
       <path d="M 54.890625 33.015625 
L 54.890625 0 
L 45.90625 0 
L 45.90625 32.71875 
Q 45.90625 40.484375 42.875 44.328125 
Q 39.84375 48.1875 33.796875 48.1875 
Q 26.515625 48.1875 22.3125 43.546875 
Q 18.109375 38.921875 18.109375 30.90625 
L 18.109375 0 
L 9.078125 0 
L 9.078125 75.984375 
L 18.109375 75.984375 
L 18.109375 46.1875 
Q 21.34375 51.125 25.703125 53.5625 
Q 30.078125 56 35.796875 56 
Q 45.21875 56 50.046875 50.171875 
Q 54.890625 44.34375 54.890625 33.015625 
z
" id="DejaVuSans-104"/>
       <path d="M 18.3125 70.21875 
L 18.3125 54.6875 
L 36.8125 54.6875 
L 36.8125 47.703125 
L 18.3125 47.703125 
L 18.3125 18.015625 
Q 18.3125 11.328125 20.140625 9.421875 
Q 21.96875 7.515625 27.59375 7.515625 
L 36.8125 7.515625 
L 36.8125 0 
L 27.59375 0 
Q 17.1875 0 13.234375 3.875 
Q 9.28125 7.765625 9.28125 18.015625 
L 9.28125 47.703125 
L 2.6875 47.703125 
L 2.6875 54.6875 
L 9.28125 54.6875 
L 9.28125 70.21875 
z
" id="DejaVuSans-116"/>
       <path id="DejaVuSans-32"/>
       <path d="M 31 75.875 
Q 24.46875 64.65625 21.28125 53.65625 
Q 18.109375 42.671875 18.109375 31.390625 
Q 18.109375 20.125 21.3125 9.0625 
Q 24.515625 -2 31 -13.1875 
L 23.1875 -13.1875 
Q 15.875 -1.703125 12.234375 9.375 
Q 8.59375 20.453125 8.59375 31.390625 
Q 8.59375 42.28125 12.203125 53.3125 
Q 15.828125 64.359375 23.1875 75.875 
z
" id="DejaVuSans-40"/>
       <path d="M 8.6875 72.90625 
L 18.609375 72.90625 
L 18.609375 28.609375 
Q 18.609375 16.890625 22.84375 11.734375 
Q 27.09375 6.59375 36.625 6.59375 
Q 46.09375 6.59375 50.34375 11.734375 
Q 54.59375 16.890625 54.59375 28.609375 
L 54.59375 72.90625 
L 64.5 72.90625 
L 64.5 27.390625 
Q 64.5 13.140625 57.4375 5.859375 
Q 50.390625 -1.421875 36.625 -1.421875 
Q 22.796875 -1.421875 15.734375 5.859375 
Q 8.6875 13.140625 8.6875 27.390625 
z
" id="DejaVuSans-85"/>
       <path d="M 9.8125 72.90625 
L 19.671875 72.90625 
L 19.671875 42.09375 
L 52.390625 72.90625 
L 65.09375 72.90625 
L 28.90625 38.921875 
L 67.671875 0 
L 54.6875 0 
L 19.671875 35.109375 
L 19.671875 0 
L 9.8125 0 
z
" id="DejaVuSans-75"/>
       <path d="M 19.671875 34.8125 
L 19.671875 8.109375 
L 35.5 8.109375 
Q 43.453125 8.109375 47.28125 11.40625 
Q 51.125 14.703125 51.125 21.484375 
Q 51.125 28.328125 47.28125 31.5625 
Q 43.453125 34.8125 35.5 34.8125 
z
M 19.671875 64.796875 
L 19.671875 42.828125 
L 34.28125 42.828125 
Q 41.5 42.828125 45.03125 45.53125 
Q 48.578125 48.25 48.578125 53.8125 
Q 48.578125 59.328125 45.03125 62.0625 
Q 41.5 64.796875 34.28125 64.796875 
z
M 9.8125 72.90625 
L 35.015625 72.90625 
Q 46.296875 72.90625 52.390625 68.21875 
Q 58.5 63.53125 58.5 54.890625 
Q 58.5 48.1875 55.375 44.234375 
Q 52.25 40.28125 46.1875 39.3125 
Q 53.46875 37.75 57.5 32.78125 
Q 61.53125 27.828125 61.53125 20.40625 
Q 61.53125 10.640625 54.890625 5.3125 
Q 48.25 0 35.984375 0 
L 9.8125 0 
z
" id="DejaVuSans-66"/>
       <path d="M 8.015625 75.875 
L 15.828125 75.875 
Q 23.140625 64.359375 26.78125 53.3125 
Q 30.421875 42.28125 30.421875 31.390625 
Q 30.421875 20.453125 26.78125 9.375 
Q 23.140625 -1.703125 15.828125 -13.1875 
L 8.015625 -13.1875 
Q 14.5 -2 17.703125 9.0625 
Q 20.90625 20.125 20.90625 31.390625 
Q 20.90625 42.671875 17.703125 53.65625 
Q 14.5 64.65625 8.015625 75.875 
z
" id="DejaVuSans-41"/>
      </defs>
      <g transform="translate(150.940348 595.021875)rotate(-90)scale(0.165 -0.165)">
       <use xlink:href="#DejaVuSans-72"/>
       <use x="75.195312" xlink:href="#DejaVuSans-101"/>
       <use x="136.71875" xlink:href="#DejaVuSans-105"/>
       <use x="164.501953" xlink:href="#DejaVuSans-103"/>
       <use x="227.978516" xlink:href="#DejaVuSans-104"/>
       <use x="291.357422" xlink:href="#DejaVuSans-116"/>
       <use x="330.566406" xlink:href="#DejaVuSans-32"/>
       <use x="362.353516" xlink:href="#DejaVuSans-40"/>
       <use x="401.367188" xlink:href="#DejaVuSans-85"/>
       <use x="474.560547" xlink:href="#DejaVuSans-75"/>
       <use x="540.136719" xlink:href="#DejaVuSans-66"/>
       <use x="608.740234" xlink:href="#DejaVuSans-66"/>
       <use x="677.34375" xlink:href="#DejaVuSans-41"/>
      </g>
     </g>
    </g>
    <g id="xtick_2">
     <g id="line2d_2">
      <g>
       <use style="stroke:#000000;stroke-width:1.875;" x="194.994613" xlink:href="#mbf4142c135" y="464.32"/>
      </g>
     </g>
     <g id="text_2">
      <!-- FEV1-FVC Ratio -->
      <defs>
       <path d="M 9.8125 72.90625 
L 51.703125 72.90625 
L 51.703125 64.59375 
L 19.671875 64.59375 
L 19.671875 43.109375 
L 48.578125 43.109375 
L 48.578125 34.8125 
L 19.671875 34.8125 
L 19.671875 0 
L 9.8125 0 
z
" id="DejaVuSans-70"/>
       <path d="M 9.8125 72.90625 
L 55.90625 72.90625 
L 55.90625 64.59375 
L 19.671875 64.59375 
L 19.671875 43.015625 
L 54.390625 43.015625 
L 54.390625 34.71875 
L 19.671875 34.71875 
L 19.671875 8.296875 
L 56.78125 8.296875 
L 56.78125 0 
L 9.8125 0 
z
" id="DejaVuSans-69"/>
       <path d="M 28.609375 0 
L 0.78125 72.90625 
L 11.078125 72.90625 
L 34.1875 11.53125 
L 57.328125 72.90625 
L 67.578125 72.90625 
L 39.796875 0 
z
" id="DejaVuSans-86"/>
       <path d="M 12.40625 8.296875 
L 28.515625 8.296875 
L 28.515625 63.921875 
L 10.984375 60.40625 
L 10.984375 69.390625 
L 28.421875 72.90625 
L 38.28125 72.90625 
L 38.28125 8.296875 
L 54.390625 8.296875 
L 54.390625 0 
L 12.40625 0 
z
" id="DejaVuSans-49"/>
       <path d="M 4.890625 31.390625 
L 31.203125 31.390625 
L 31.203125 23.390625 
L 4.890625 23.390625 
z
" id="DejaVuSans-45"/>
       <path d="M 64.40625 67.28125 
L 64.40625 56.890625 
Q 59.421875 61.53125 53.78125 63.8125 
Q 48.140625 66.109375 41.796875 66.109375 
Q 29.296875 66.109375 22.65625 58.46875 
Q 16.015625 50.828125 16.015625 36.375 
Q 16.015625 21.96875 22.65625 14.328125 
Q 29.296875 6.6875 41.796875 6.6875 
Q 48.140625 6.6875 53.78125 8.984375 
Q 59.421875 11.28125 64.40625 15.921875 
L 64.40625 5.609375 
Q 59.234375 2.09375 53.4375 0.328125 
Q 47.65625 -1.421875 41.21875 -1.421875 
Q 24.65625 -1.421875 15.125 8.703125 
Q 5.609375 18.84375 5.609375 36.375 
Q 5.609375 53.953125 15.125 64.078125 
Q 24.65625 74.21875 41.21875 74.21875 
Q 47.75 74.21875 53.53125 72.484375 
Q 59.328125 70.75 64.40625 67.28125 
z
" id="DejaVuSans-67"/>
       <path d="M 44.390625 34.1875 
Q 47.5625 33.109375 50.5625 29.59375 
Q 53.5625 26.078125 56.59375 19.921875 
L 66.609375 0 
L 56 0 
L 46.6875 18.703125 
Q 43.0625 26.03125 39.671875 28.421875 
Q 36.28125 30.8125 30.421875 30.8125 
L 19.671875 30.8125 
L 19.671875 0 
L 9.8125 0 
L 9.8125 72.90625 
L 32.078125 72.90625 
Q 44.578125 72.90625 50.734375 67.671875 
Q 56.890625 62.453125 56.890625 51.90625 
Q 56.890625 45.015625 53.6875 40.46875 
Q 50.484375 35.9375 44.390625 34.1875 
z
M 19.671875 64.796875 
L 19.671875 38.921875 
L 32.078125 38.921875 
Q 39.203125 38.921875 42.84375 42.21875 
Q 46.484375 45.515625 46.484375 51.90625 
Q 46.484375 58.296875 42.84375 61.546875 
Q 39.203125 64.796875 32.078125 64.796875 
z
" id="DejaVuSans-82"/>
       <path d="M 34.28125 27.484375 
Q 23.390625 27.484375 19.1875 25 
Q 14.984375 22.515625 14.984375 16.5 
Q 14.984375 11.71875 18.140625 8.90625 
Q 21.296875 6.109375 26.703125 6.109375 
Q 34.1875 6.109375 38.703125 11.40625 
Q 43.21875 16.703125 43.21875 25.484375 
L 43.21875 27.484375 
z
M 52.203125 31.203125 
L 52.203125 0 
L 43.21875 0 
L 43.21875 8.296875 
Q 40.140625 3.328125 35.546875 0.953125 
Q 30.953125 -1.421875 24.3125 -1.421875 
Q 15.921875 -1.421875 10.953125 3.296875 
Q 6 8.015625 6 15.921875 
Q 6 25.140625 12.171875 29.828125 
Q 18.359375 34.515625 30.609375 34.515625 
L 43.21875 34.515625 
L 43.21875 35.40625 
Q 43.21875 41.609375 39.140625 45 
Q 35.0625 48.390625 27.6875 48.390625 
Q 23 48.390625 18.546875 47.265625 
Q 14.109375 46.140625 10.015625 43.890625 
L 10.015625 52.203125 
Q 14.9375 54.109375 19.578125 55.046875 
Q 24.21875 56 28.609375 56 
Q 40.484375 56 46.34375 49.84375 
Q 52.203125 43.703125 52.203125 31.203125 
z
" id="DejaVuSans-97"/>
       <path d="M 30.609375 48.390625 
Q 23.390625 48.390625 19.1875 42.75 
Q 14.984375 37.109375 14.984375 27.296875 
Q 14.984375 17.484375 19.15625 11.84375 
Q 23.34375 6.203125 30.609375 6.203125 
Q 37.796875 6.203125 41.984375 11.859375 
Q 46.1875 17.53125 46.1875 27.296875 
Q 46.1875 37.015625 41.984375 42.703125 
Q 37.796875 48.390625 30.609375 48.390625 
z
M 30.609375 56 
Q 42.328125 56 49.015625 48.375 
Q 55.71875 40.765625 55.71875 27.296875 
Q 55.71875 13.875 49.015625 6.21875 
Q 42.328125 -1.421875 30.609375 -1.421875 
Q 18.84375 -1.421875 12.171875 6.21875 
Q 5.515625 13.875 5.515625 27.296875 
Q 5.515625 40.765625 12.171875 48.375 
Q 18.84375 56 30.609375 56 
z
" id="DejaVuSans-111"/>
      </defs>
      <g transform="translate(199.547582 604.370156)rotate(-90)scale(0.165 -0.165)">
       <use xlink:href="#DejaVuSans-70"/>
       <use x="57.519531" xlink:href="#DejaVuSans-69"/>
       <use x="120.703125" xlink:href="#DejaVuSans-86"/>
       <use x="189.111328" xlink:href="#DejaVuSans-49"/>
       <use x="252.734375" xlink:href="#DejaVuSans-45"/>
       <use x="288.818359" xlink:href="#DejaVuSans-70"/>
       <use x="346.337891" xlink:href="#DejaVuSans-86"/>
       <use x="414.746094" xlink:href="#DejaVuSans-67"/>
       <use x="484.570312" xlink:href="#DejaVuSans-32"/>
       <use x="516.357422" xlink:href="#DejaVuSans-82"/>
       <use x="583.589844" xlink:href="#DejaVuSans-97"/>
       <use x="644.869141" xlink:href="#DejaVuSans-116"/>
       <use x="684.078125" xlink:href="#DejaVuSans-105"/>
       <use x="711.861328" xlink:href="#DejaVuSans-111"/>
      </g>
     </g>
    </g>
    <g id="xtick_3">
     <g id="line2d_3">
      <g>
       <use style="stroke:#000000;stroke-width:1.875;" x="243.601847" xlink:href="#mbf4142c135" y="464.32"/>
      </g>
     </g>
     <g id="text_3">
      <!-- Red Blood Cell Count -->
      <defs>
       <path d="M 45.40625 46.390625 
L 45.40625 75.984375 
L 54.390625 75.984375 
L 54.390625 0 
L 45.40625 0 
L 45.40625 8.203125 
Q 42.578125 3.328125 38.25 0.953125 
Q 33.9375 -1.421875 27.875 -1.421875 
Q 17.96875 -1.421875 11.734375 6.484375 
Q 5.515625 14.40625 5.515625 27.296875 
Q 5.515625 40.1875 11.734375 48.09375 
Q 17.96875 56 27.875 56 
Q 33.9375 56 38.25 53.625 
Q 42.578125 51.265625 45.40625 46.390625 
z
M 14.796875 27.296875 
Q 14.796875 17.390625 18.875 11.75 
Q 22.953125 6.109375 30.078125 6.109375 
Q 37.203125 6.109375 41.296875 11.75 
Q 45.40625 17.390625 45.40625 27.296875 
Q 45.40625 37.203125 41.296875 42.84375 
Q 37.203125 48.484375 30.078125 48.484375 
Q 22.953125 48.484375 18.875 42.84375 
Q 14.796875 37.203125 14.796875 27.296875 
z
" id="DejaVuSans-100"/>
       <path d="M 9.421875 75.984375 
L 18.40625 75.984375 
L 18.40625 0 
L 9.421875 0 
z
" id="DejaVuSans-108"/>
       <path d="M 8.5 21.578125 
L 8.5 54.6875 
L 17.484375 54.6875 
L 17.484375 21.921875 
Q 17.484375 14.15625 20.5 10.265625 
Q 23.53125 6.390625 29.59375 6.390625 
Q 36.859375 6.390625 41.078125 11.03125 
Q 45.3125 15.671875 45.3125 23.6875 
L 45.3125 54.6875 
L 54.296875 54.6875 
L 54.296875 0 
L 45.3125 0 
L 45.3125 8.40625 
Q 42.046875 3.421875 37.71875 1 
Q 33.40625 -1.421875 27.6875 -1.421875 
Q 18.265625 -1.421875 13.375 4.4375 
Q 8.5 10.296875 8.5 21.578125 
z
M 31.109375 56 
z
" id="DejaVuSans-117"/>
       <path d="M 54.890625 33.015625 
L 54.890625 0 
L 45.90625 0 
L 45.90625 32.71875 
Q 45.90625 40.484375 42.875 44.328125 
Q 39.84375 48.1875 33.796875 48.1875 
Q 26.515625 48.1875 22.3125 43.546875 
Q 18.109375 38.921875 18.109375 30.90625 
L 18.109375 0 
L 9.078125 0 
L 9.078125 54.6875 
L 18.109375 54.6875 
L 18.109375 46.1875 
Q 21.34375 51.125 25.703125 53.5625 
Q 30.078125 56 35.796875 56 
Q 45.21875 56 50.046875 50.171875 
Q 54.890625 44.34375 54.890625 33.015625 
z
" id="DejaVuSans-110"/>
      </defs>
      <g transform="translate(248.154816 650.314922)rotate(-90)scale(0.165 -0.165)">
       <use xlink:href="#DejaVuSans-82"/>
       <use x="64.982422" xlink:href="#DejaVuSans-101"/>
       <use x="126.505859" xlink:href="#DejaVuSans-100"/>
       <use x="189.982422" xlink:href="#DejaVuSans-32"/>
       <use x="221.769531" xlink:href="#DejaVuSans-66"/>
       <use x="290.373047" xlink:href="#DejaVuSans-108"/>
       <use x="318.15625" xlink:href="#DejaVuSans-111"/>
       <use x="379.337891" xlink:href="#DejaVuSans-111"/>
       <use x="440.519531" xlink:href="#DejaVuSans-100"/>
       <use x="503.996094" xlink:href="#DejaVuSans-32"/>
       <use x="535.783203" xlink:href="#DejaVuSans-67"/>
       <use x="605.607422" xlink:href="#DejaVuSans-101"/>
       <use x="667.130859" xlink:href="#DejaVuSans-108"/>
       <use x="694.914062" xlink:href="#DejaVuSans-108"/>
       <use x="722.697266" xlink:href="#DejaVuSans-32"/>
       <use x="754.484375" xlink:href="#DejaVuSans-67"/>
       <use x="824.308594" xlink:href="#DejaVuSans-111"/>
       <use x="885.490234" xlink:href="#DejaVuSans-117"/>
       <use x="948.869141" xlink:href="#DejaVuSans-110"/>
       <use x="1012.248047" xlink:href="#DejaVuSans-116"/>
      </g>
     </g>
    </g>
    <g id="xtick_4">
     <g id="line2d_4">
      <g>
       <use style="stroke:#000000;stroke-width:1.875;" x="292.209081" xlink:href="#mbf4142c135" y="464.32"/>
      </g>
     </g>
     <g id="text_4">
      <!-- Systolic Blood Pressure -->
      <defs>
       <path d="M 53.515625 70.515625 
L 53.515625 60.890625 
Q 47.90625 63.578125 42.921875 64.890625 
Q 37.9375 66.21875 33.296875 66.21875 
Q 25.25 66.21875 20.875 63.09375 
Q 16.5 59.96875 16.5 54.203125 
Q 16.5 49.359375 19.40625 46.890625 
Q 22.3125 44.4375 30.421875 42.921875 
L 36.375 41.703125 
Q 47.40625 39.59375 52.65625 34.296875 
Q 57.90625 29 57.90625 20.125 
Q 57.90625 9.515625 50.796875 4.046875 
Q 43.703125 -1.421875 29.984375 -1.421875 
Q 24.8125 -1.421875 18.96875 -0.25 
Q 13.140625 0.921875 6.890625 3.21875 
L 6.890625 13.375 
Q 12.890625 10.015625 18.65625 8.296875 
Q 24.421875 6.59375 29.984375 6.59375 
Q 38.421875 6.59375 43.015625 9.90625 
Q 47.609375 13.234375 47.609375 19.390625 
Q 47.609375 24.75 44.3125 27.78125 
Q 41.015625 30.8125 33.5 32.328125 
L 27.484375 33.5 
Q 16.453125 35.6875 11.515625 40.375 
Q 6.59375 45.0625 6.59375 53.421875 
Q 6.59375 63.09375 13.40625 68.65625 
Q 20.21875 74.21875 32.171875 74.21875 
Q 37.3125 74.21875 42.625 73.28125 
Q 47.953125 72.359375 53.515625 70.515625 
z
" id="DejaVuSans-83"/>
       <path d="M 32.171875 -5.078125 
Q 28.375 -14.84375 24.75 -17.8125 
Q 21.140625 -20.796875 15.09375 -20.796875 
L 7.90625 -20.796875 
L 7.90625 -13.28125 
L 13.1875 -13.28125 
Q 16.890625 -13.28125 18.9375 -11.515625 
Q 21 -9.765625 23.484375 -3.21875 
L 25.09375 0.875 
L 2.984375 54.6875 
L 12.5 54.6875 
L 29.59375 11.921875 
L 46.6875 54.6875 
L 56.203125 54.6875 
z
" id="DejaVuSans-121"/>
       <path d="M 44.28125 53.078125 
L 44.28125 44.578125 
Q 40.484375 46.53125 36.375 47.5 
Q 32.28125 48.484375 27.875 48.484375 
Q 21.1875 48.484375 17.84375 46.4375 
Q 14.5 44.390625 14.5 40.28125 
Q 14.5 37.15625 16.890625 35.375 
Q 19.28125 33.59375 26.515625 31.984375 
L 29.59375 31.296875 
Q 39.15625 29.25 43.1875 25.515625 
Q 47.21875 21.78125 47.21875 15.09375 
Q 47.21875 7.46875 41.1875 3.015625 
Q 35.15625 -1.421875 24.609375 -1.421875 
Q 20.21875 -1.421875 15.453125 -0.5625 
Q 10.6875 0.296875 5.421875 2 
L 5.421875 11.28125 
Q 10.40625 8.6875 15.234375 7.390625 
Q 20.0625 6.109375 24.8125 6.109375 
Q 31.15625 6.109375 34.5625 8.28125 
Q 37.984375 10.453125 37.984375 14.40625 
Q 37.984375 18.0625 35.515625 20.015625 
Q 33.0625 21.96875 24.703125 23.78125 
L 21.578125 24.515625 
Q 13.234375 26.265625 9.515625 29.90625 
Q 5.8125 33.546875 5.8125 39.890625 
Q 5.8125 47.609375 11.28125 51.796875 
Q 16.75 56 26.8125 56 
Q 31.78125 56 36.171875 55.265625 
Q 40.578125 54.546875 44.28125 53.078125 
z
" id="DejaVuSans-115"/>
       <path d="M 48.78125 52.59375 
L 48.78125 44.1875 
Q 44.96875 46.296875 41.140625 47.34375 
Q 37.3125 48.390625 33.40625 48.390625 
Q 24.65625 48.390625 19.8125 42.84375 
Q 14.984375 37.3125 14.984375 27.296875 
Q 14.984375 17.28125 19.8125 11.734375 
Q 24.65625 6.203125 33.40625 6.203125 
Q 37.3125 6.203125 41.140625 7.25 
Q 44.96875 8.296875 48.78125 10.40625 
L 48.78125 2.09375 
Q 45.015625 0.34375 40.984375 -0.53125 
Q 36.96875 -1.421875 32.421875 -1.421875 
Q 20.0625 -1.421875 12.78125 6.34375 
Q 5.515625 14.109375 5.515625 27.296875 
Q 5.515625 40.671875 12.859375 48.328125 
Q 20.21875 56 33.015625 56 
Q 37.15625 56 41.109375 55.140625 
Q 45.0625 54.296875 48.78125 52.59375 
z
" id="DejaVuSans-99"/>
       <path d="M 19.671875 64.796875 
L 19.671875 37.40625 
L 32.078125 37.40625 
Q 38.96875 37.40625 42.71875 40.96875 
Q 46.484375 44.53125 46.484375 51.125 
Q 46.484375 57.671875 42.71875 61.234375 
Q 38.96875 64.796875 32.078125 64.796875 
z
M 9.8125 72.90625 
L 32.078125 72.90625 
Q 44.34375 72.90625 50.609375 67.359375 
Q 56.890625 61.8125 56.890625 51.125 
Q 56.890625 40.328125 50.609375 34.8125 
Q 44.34375 29.296875 32.078125 29.296875 
L 19.671875 29.296875 
L 19.671875 0 
L 9.8125 0 
z
" id="DejaVuSans-80"/>
       <path d="M 41.109375 46.296875 
Q 39.59375 47.171875 37.8125 47.578125 
Q 36.03125 48 33.890625 48 
Q 26.265625 48 22.1875 43.046875 
Q 18.109375 38.09375 18.109375 28.8125 
L 18.109375 0 
L 9.078125 0 
L 9.078125 54.6875 
L 18.109375 54.6875 
L 18.109375 46.1875 
Q 20.953125 51.171875 25.484375 53.578125 
Q 30.03125 56 36.53125 56 
Q 37.453125 56 38.578125 55.875 
Q 39.703125 55.765625 41.0625 55.515625 
z
" id="DejaVuSans-114"/>
      </defs>
      <g transform="translate(296.76205 667.957031)rotate(-90)scale(0.165 -0.165)">
       <use xlink:href="#DejaVuSans-83"/>
       <use x="63.476562" xlink:href="#DejaVuSans-121"/>
       <use x="122.65625" xlink:href="#DejaVuSans-115"/>
       <use x="174.755859" xlink:href="#DejaVuSans-116"/>
       <use x="213.964844" xlink:href="#DejaVuSans-111"/>
       <use x="275.146484" xlink:href="#DejaVuSans-108"/>
       <use x="302.929688" xlink:href="#DejaVuSans-105"/>
       <use x="330.712891" xlink:href="#DejaVuSans-99"/>
       <use x="385.693359" xlink:href="#DejaVuSans-32"/>
       <use x="417.480469" xlink:href="#DejaVuSans-66"/>
       <use x="486.083984" xlink:href="#DejaVuSans-108"/>
       <use x="513.867188" xlink:href="#DejaVuSans-111"/>
       <use x="575.048828" xlink:href="#DejaVuSans-111"/>
       <use x="636.230469" xlink:href="#DejaVuSans-100"/>
       <use x="699.707031" xlink:href="#DejaVuSans-32"/>
       <use x="731.494141" xlink:href="#DejaVuSans-80"/>
       <use x="790.046875" xlink:href="#DejaVuSans-114"/>
       <use x="828.910156" xlink:href="#DejaVuSans-101"/>
       <use x="890.433594" xlink:href="#DejaVuSans-115"/>
       <use x="942.533203" xlink:href="#DejaVuSans-115"/>
       <use x="994.632812" xlink:href="#DejaVuSans-117"/>
       <use x="1058.011719" xlink:href="#DejaVuSans-114"/>
       <use x="1096.875" xlink:href="#DejaVuSans-101"/>
      </g>
     </g>
    </g>
    <g id="xtick_5">
     <g id="line2d_5">
      <g>
       <use style="stroke:#000000;stroke-width:1.875;" x="340.816315" xlink:href="#mbf4142c135" y="464.32"/>
      </g>
     </g>
     <g id="text_5">
      <!-- BMI (UKBB) -->
      <defs>
       <path d="M 9.8125 72.90625 
L 24.515625 72.90625 
L 43.109375 23.296875 
L 61.8125 72.90625 
L 76.515625 72.90625 
L 76.515625 0 
L 66.890625 0 
L 66.890625 64.015625 
L 48.09375 14.015625 
L 38.1875 14.015625 
L 19.390625 64.015625 
L 19.390625 0 
L 9.8125 0 
z
" id="DejaVuSans-77"/>
       <path d="M 9.8125 72.90625 
L 19.671875 72.90625 
L 19.671875 0 
L 9.8125 0 
z
" id="DejaVuSans-73"/>
      </defs>
      <g transform="translate(345.369284 570.900937)rotate(-90)scale(0.165 -0.165)">
       <use xlink:href="#DejaVuSans-66"/>
       <use x="68.603516" xlink:href="#DejaVuSans-77"/>
       <use x="154.882812" xlink:href="#DejaVuSans-73"/>
       <use x="184.375" xlink:href="#DejaVuSans-32"/>
       <use x="216.162109" xlink:href="#DejaVuSans-40"/>
       <use x="255.175781" xlink:href="#DejaVuSans-85"/>
       <use x="328.369141" xlink:href="#DejaVuSans-75"/>
       <use x="393.945312" xlink:href="#DejaVuSans-66"/>
       <use x="462.548828" xlink:href="#DejaVuSans-66"/>
       <use x="531.152344" xlink:href="#DejaVuSans-41"/>
      </g>
     </g>
    </g>
    <g id="xtick_6">
     <g id="line2d_6">
      <g>
       <use style="stroke:#000000;stroke-width:1.875;" x="389.423549" xlink:href="#mbf4142c135" y="464.32"/>
      </g>
     </g>
     <g id="text_6">
      <!-- Platelet Count -->
      <g transform="translate(393.976518 593.534297)rotate(-90)scale(0.165 -0.165)">
       <use xlink:href="#DejaVuSans-80"/>
       <use x="60.302734" xlink:href="#DejaVuSans-108"/>
       <use x="88.085938" xlink:href="#DejaVuSans-97"/>
       <use x="149.365234" xlink:href="#DejaVuSans-116"/>
       <use x="188.574219" xlink:href="#DejaVuSans-101"/>
       <use x="250.097656" xlink:href="#DejaVuSans-108"/>
       <use x="277.880859" xlink:href="#DejaVuSans-101"/>
       <use x="339.404297" xlink:href="#DejaVuSans-116"/>
       <use x="378.613281" xlink:href="#DejaVuSans-32"/>
       <use x="410.400391" xlink:href="#DejaVuSans-67"/>
       <use x="480.224609" xlink:href="#DejaVuSans-111"/>
       <use x="541.40625" xlink:href="#DejaVuSans-117"/>
       <use x="604.785156" xlink:href="#DejaVuSans-110"/>
       <use x="668.164062" xlink:href="#DejaVuSans-116"/>
      </g>
     </g>
    </g>
    <g id="xtick_7">
     <g id="line2d_7">
      <g>
       <use style="stroke:#000000;stroke-width:1.875;" x="438.030783" xlink:href="#mbf4142c135" y="464.32"/>
      </g>
     </g>
     <g id="text_7">
      <!-- Heel T Score -->
      <defs>
       <path d="M -0.296875 72.90625 
L 61.375 72.90625 
L 61.375 64.59375 
L 35.5 64.59375 
L 35.5 0 
L 25.59375 0 
L 25.59375 64.59375 
L -0.296875 64.59375 
z
" id="DejaVuSans-84"/>
      </defs>
      <g transform="translate(442.583751 580.891172)rotate(-90)scale(0.165 -0.165)">
       <use xlink:href="#DejaVuSans-72"/>
       <use x="75.195312" xlink:href="#DejaVuSans-101"/>
       <use x="136.71875" xlink:href="#DejaVuSans-101"/>
       <use x="198.242188" xlink:href="#DejaVuSans-108"/>
       <use x="226.025391" xlink:href="#DejaVuSans-32"/>
       <use x="257.8125" xlink:href="#DejaVuSans-84"/>
       <use x="318.896484" xlink:href="#DejaVuSans-32"/>
       <use x="350.683594" xlink:href="#DejaVuSans-83"/>
       <use x="414.160156" xlink:href="#DejaVuSans-99"/>
       <use x="469.140625" xlink:href="#DejaVuSans-111"/>
       <use x="530.322266" xlink:href="#DejaVuSans-114"/>
       <use x="569.185547" xlink:href="#DejaVuSans-101"/>
      </g>
     </g>
    </g>
    <g id="xtick_8">
     <g id="line2d_8">
      <g>
       <use style="stroke:#000000;stroke-width:1.875;" x="486.638017" xlink:href="#mbf4142c135" y="464.32"/>
      </g>
     </g>
     <g id="text_8">
      <!-- Forced Vital Capacity (FVC) -->
      <defs>
       <path d="M 18.109375 8.203125 
L 18.109375 -20.796875 
L 9.078125 -20.796875 
L 9.078125 54.6875 
L 18.109375 54.6875 
L 18.109375 46.390625 
Q 20.953125 51.265625 25.265625 53.625 
Q 29.59375 56 35.59375 56 
Q 45.5625 56 51.78125 48.09375 
Q 58.015625 40.1875 58.015625 27.296875 
Q 58.015625 14.40625 51.78125 6.484375 
Q 45.5625 -1.421875 35.59375 -1.421875 
Q 29.59375 -1.421875 25.265625 0.953125 
Q 20.953125 3.328125 18.109375 8.203125 
z
M 48.6875 27.296875 
Q 48.6875 37.203125 44.609375 42.84375 
Q 40.53125 48.484375 33.40625 48.484375 
Q 26.265625 48.484375 22.1875 42.84375 
Q 18.109375 37.203125 18.109375 27.296875 
Q 18.109375 17.390625 22.1875 11.75 
Q 26.265625 6.109375 33.40625 6.109375 
Q 40.53125 6.109375 44.609375 11.75 
Q 48.6875 17.390625 48.6875 27.296875 
z
" id="DejaVuSans-112"/>
      </defs>
      <g transform="translate(491.190985 701.598984)rotate(-90)scale(0.165 -0.165)">
       <use xlink:href="#DejaVuSans-70"/>
       <use x="53.894531" xlink:href="#DejaVuSans-111"/>
       <use x="115.076172" xlink:href="#DejaVuSans-114"/>
       <use x="153.939453" xlink:href="#DejaVuSans-99"/>
       <use x="208.919922" xlink:href="#DejaVuSans-101"/>
       <use x="270.443359" xlink:href="#DejaVuSans-100"/>
       <use x="333.919922" xlink:href="#DejaVuSans-32"/>
       <use x="365.707031" xlink:href="#DejaVuSans-86"/>
       <use x="431.865234" xlink:href="#DejaVuSans-105"/>
       <use x="459.648438" xlink:href="#DejaVuSans-116"/>
       <use x="498.857422" xlink:href="#DejaVuSans-97"/>
       <use x="560.136719" xlink:href="#DejaVuSans-108"/>
       <use x="587.919922" xlink:href="#DejaVuSans-32"/>
       <use x="619.707031" xlink:href="#DejaVuSans-67"/>
       <use x="689.53125" xlink:href="#DejaVuSans-97"/>
       <use x="750.810547" xlink:href="#DejaVuSans-112"/>
       <use x="814.287109" xlink:href="#DejaVuSans-97"/>
       <use x="875.566406" xlink:href="#DejaVuSans-99"/>
       <use x="930.546875" xlink:href="#DejaVuSans-105"/>
       <use x="958.330078" xlink:href="#DejaVuSans-116"/>
       <use x="997.539062" xlink:href="#DejaVuSans-121"/>
       <use x="1056.71875" xlink:href="#DejaVuSans-32"/>
       <use x="1088.505859" xlink:href="#DejaVuSans-40"/>
       <use x="1127.519531" xlink:href="#DejaVuSans-70"/>
       <use x="1185.039062" xlink:href="#DejaVuSans-86"/>
       <use x="1253.447266" xlink:href="#DejaVuSans-67"/>
       <use x="1323.271484" xlink:href="#DejaVuSans-41"/>
      </g>
     </g>
    </g>
    <g id="xtick_9">
     <g id="line2d_9">
      <g>
       <use style="stroke:#000000;stroke-width:1.875;" x="535.245251" xlink:href="#mbf4142c135" y="464.32"/>
      </g>
     </g>
     <g id="text_9">
      <!-- Waist-hip Ratio -->
      <defs>
       <path d="M 3.328125 72.90625 
L 13.28125 72.90625 
L 28.609375 11.28125 
L 43.890625 72.90625 
L 54.984375 72.90625 
L 70.3125 11.28125 
L 85.59375 72.90625 
L 95.609375 72.90625 
L 77.296875 0 
L 64.890625 0 
L 49.515625 63.28125 
L 33.984375 0 
L 21.578125 0 
z
" id="DejaVuSans-87"/>
      </defs>
      <g transform="translate(539.798219 600.907734)rotate(-90)scale(0.165 -0.165)">
       <use xlink:href="#DejaVuSans-87"/>
       <use x="92.501953" xlink:href="#DejaVuSans-97"/>
       <use x="153.78125" xlink:href="#DejaVuSans-105"/>
       <use x="181.564453" xlink:href="#DejaVuSans-115"/>
       <use x="233.664062" xlink:href="#DejaVuSans-116"/>
       <use x="272.873047" xlink:href="#DejaVuSans-45"/>
       <use x="308.957031" xlink:href="#DejaVuSans-104"/>
       <use x="372.335938" xlink:href="#DejaVuSans-105"/>
       <use x="400.119141" xlink:href="#DejaVuSans-112"/>
       <use x="463.595703" xlink:href="#DejaVuSans-32"/>
       <use x="495.382812" xlink:href="#DejaVuSans-82"/>
       <use x="562.615234" xlink:href="#DejaVuSans-97"/>
       <use x="623.894531" xlink:href="#DejaVuSans-116"/>
       <use x="663.103516" xlink:href="#DejaVuSans-105"/>
       <use x="690.886719" xlink:href="#DejaVuSans-111"/>
      </g>
     </g>
    </g>
    <g id="xtick_10">
     <g id="line2d_10">
      <g>
       <use style="stroke:#000000;stroke-width:1.875;" x="583.852484" xlink:href="#mbf4142c135" y="464.32"/>
      </g>
     </g>
     <g id="text_10">
      <!-- White Blood Cell Count -->
      <g transform="translate(588.405453 666.94125)rotate(-90)scale(0.165 -0.165)">
       <use xlink:href="#DejaVuSans-87"/>
       <use x="98.876953" xlink:href="#DejaVuSans-104"/>
       <use x="162.255859" xlink:href="#DejaVuSans-105"/>
       <use x="190.039062" xlink:href="#DejaVuSans-116"/>
       <use x="229.248047" xlink:href="#DejaVuSans-101"/>
       <use x="290.771484" xlink:href="#DejaVuSans-32"/>
       <use x="322.558594" xlink:href="#DejaVuSans-66"/>
       <use x="391.162109" xlink:href="#DejaVuSans-108"/>
       <use x="418.945312" xlink:href="#DejaVuSans-111"/>
       <use x="480.126953" xlink:href="#DejaVuSans-111"/>
       <use x="541.308594" xlink:href="#DejaVuSans-100"/>
       <use x="604.785156" xlink:href="#DejaVuSans-32"/>
       <use x="636.572266" xlink:href="#DejaVuSans-67"/>
       <use x="706.396484" xlink:href="#DejaVuSans-101"/>
       <use x="767.919922" xlink:href="#DejaVuSans-108"/>
       <use x="795.703125" xlink:href="#DejaVuSans-108"/>
       <use x="823.486328" xlink:href="#DejaVuSans-32"/>
       <use x="855.273438" xlink:href="#DejaVuSans-67"/>
       <use x="925.097656" xlink:href="#DejaVuSans-111"/>
       <use x="986.279297" xlink:href="#DejaVuSans-117"/>
       <use x="1049.658203" xlink:href="#DejaVuSans-110"/>
       <use x="1113.037109" xlink:href="#DejaVuSans-116"/>
      </g>
     </g>
    </g>
    <g id="xtick_11">
     <g id="line2d_11">
      <g>
       <use style="stroke:#000000;stroke-width:1.875;" x="632.459718" xlink:href="#mbf4142c135" y="464.32"/>
      </g>
     </g>
     <g id="text_11">
      <!-- HDL -->
      <defs>
       <path d="M 19.671875 64.796875 
L 19.671875 8.109375 
L 31.59375 8.109375 
Q 46.6875 8.109375 53.6875 14.9375 
Q 60.6875 21.78125 60.6875 36.53125 
Q 60.6875 51.171875 53.6875 57.984375 
Q 46.6875 64.796875 31.59375 64.796875 
z
M 9.8125 72.90625 
L 30.078125 72.90625 
Q 51.265625 72.90625 61.171875 64.09375 
Q 71.09375 55.28125 71.09375 36.53125 
Q 71.09375 17.671875 61.125 8.828125 
Q 51.171875 0 30.078125 0 
L 9.8125 0 
z
" id="DejaVuSans-68"/>
       <path d="M 9.8125 72.90625 
L 19.671875 72.90625 
L 19.671875 8.296875 
L 55.171875 8.296875 
L 55.171875 0 
L 9.8125 0 
z
" id="DejaVuSans-76"/>
      </defs>
      <g transform="translate(637.012687 511.127109)rotate(-90)scale(0.165 -0.165)">
       <use xlink:href="#DejaVuSans-72"/>
       <use x="75.195312" xlink:href="#DejaVuSans-68"/>
       <use x="152.197266" xlink:href="#DejaVuSans-76"/>
      </g>
     </g>
    </g>
    <g id="xtick_12">
     <g id="line2d_12">
      <g>
       <use style="stroke:#000000;stroke-width:1.875;" x="681.066952" xlink:href="#mbf4142c135" y="464.32"/>
      </g>
     </g>
     <g id="text_12">
      <!-- Neuroticism -->
      <defs>
       <path d="M 9.8125 72.90625 
L 23.09375 72.90625 
L 55.421875 11.921875 
L 55.421875 72.90625 
L 64.984375 72.90625 
L 64.984375 0 
L 51.703125 0 
L 19.390625 60.984375 
L 19.390625 0 
L 9.8125 0 
z
" id="DejaVuSans-78"/>
       <path d="M 52 44.1875 
Q 55.375 50.25 60.0625 53.125 
Q 64.75 56 71.09375 56 
Q 79.640625 56 84.28125 50.015625 
Q 88.921875 44.046875 88.921875 33.015625 
L 88.921875 0 
L 79.890625 0 
L 79.890625 32.71875 
Q 79.890625 40.578125 77.09375 44.375 
Q 74.3125 48.1875 68.609375 48.1875 
Q 61.625 48.1875 57.5625 43.546875 
Q 53.515625 38.921875 53.515625 30.90625 
L 53.515625 0 
L 44.484375 0 
L 44.484375 32.71875 
Q 44.484375 40.625 41.703125 44.40625 
Q 38.921875 48.1875 33.109375 48.1875 
Q 26.21875 48.1875 22.15625 43.53125 
Q 18.109375 38.875 18.109375 30.90625 
L 18.109375 0 
L 9.078125 0 
L 9.078125 54.6875 
L 18.109375 54.6875 
L 18.109375 46.1875 
Q 21.1875 51.21875 25.484375 53.609375 
Q 29.78125 56 35.6875 56 
Q 41.65625 56 45.828125 52.96875 
Q 50 49.953125 52 44.1875 
z
" id="DejaVuSans-109"/>
      </defs>
      <g transform="translate(685.619921 575.657578)rotate(-90)scale(0.165 -0.165)">
       <use xlink:href="#DejaVuSans-78"/>
       <use x="74.804688" xlink:href="#DejaVuSans-101"/>
       <use x="136.328125" xlink:href="#DejaVuSans-117"/>
       <use x="199.707031" xlink:href="#DejaVuSans-114"/>
       <use x="238.570312" xlink:href="#DejaVuSans-111"/>
       <use x="299.751953" xlink:href="#DejaVuSans-116"/>
       <use x="338.960938" xlink:href="#DejaVuSans-105"/>
       <use x="366.744141" xlink:href="#DejaVuSans-99"/>
       <use x="421.724609" xlink:href="#DejaVuSans-105"/>
       <use x="449.507812" xlink:href="#DejaVuSans-115"/>
       <use x="501.607422" xlink:href="#DejaVuSans-109"/>
      </g>
     </g>
    </g>
    <g id="xtick_13">
     <g id="line2d_13">
      <g>
       <use style="stroke:#000000;stroke-width:1.875;" x="729.674186" xlink:href="#mbf4142c135" y="464.32"/>
      </g>
     </g>
     <g id="text_13">
      <!-- Smoking Status -->
      <defs>
       <path d="M 9.078125 75.984375 
L 18.109375 75.984375 
L 18.109375 31.109375 
L 44.921875 54.6875 
L 56.390625 54.6875 
L 27.390625 29.109375 
L 57.625 0 
L 45.90625 0 
L 18.109375 26.703125 
L 18.109375 0 
L 9.078125 0 
z
" id="DejaVuSans-107"/>
      </defs>
      <g transform="translate(734.227155 606.352734)rotate(-90)scale(0.165 -0.165)">
       <use xlink:href="#DejaVuSans-83"/>
       <use x="63.476562" xlink:href="#DejaVuSans-109"/>
       <use x="160.888672" xlink:href="#DejaVuSans-111"/>
       <use x="222.070312" xlink:href="#DejaVuSans-107"/>
       <use x="279.980469" xlink:href="#DejaVuSans-105"/>
       <use x="307.763672" xlink:href="#DejaVuSans-110"/>
       <use x="371.142578" xlink:href="#DejaVuSans-103"/>
       <use x="434.619141" xlink:href="#DejaVuSans-32"/>
       <use x="466.40625" xlink:href="#DejaVuSans-83"/>
       <use x="529.882812" xlink:href="#DejaVuSans-116"/>
       <use x="569.091797" xlink:href="#DejaVuSans-97"/>
       <use x="630.371094" xlink:href="#DejaVuSans-116"/>
       <use x="669.580078" xlink:href="#DejaVuSans-117"/>
       <use x="732.958984" xlink:href="#DejaVuSans-115"/>
      </g>
     </g>
    </g>
    <g id="xtick_14">
     <g id="line2d_14">
      <g>
       <use style="stroke:#000000;stroke-width:1.875;" x="778.28142" xlink:href="#mbf4142c135" y="464.32"/>
      </g>
     </g>
     <g id="text_14">
      <!-- College Education -->
      <g transform="translate(782.834389 625.776328)rotate(-90)scale(0.165 -0.165)">
       <use xlink:href="#DejaVuSans-67"/>
       <use x="69.824219" xlink:href="#DejaVuSans-111"/>
       <use x="131.005859" xlink:href="#DejaVuSans-108"/>
       <use x="158.789062" xlink:href="#DejaVuSans-108"/>
       <use x="186.572266" xlink:href="#DejaVuSans-101"/>
       <use x="248.095703" xlink:href="#DejaVuSans-103"/>
       <use x="311.572266" xlink:href="#DejaVuSans-101"/>
       <use x="373.095703" xlink:href="#DejaVuSans-32"/>
       <use x="404.882812" xlink:href="#DejaVuSans-69"/>
       <use x="468.066406" xlink:href="#DejaVuSans-100"/>
       <use x="531.542969" xlink:href="#DejaVuSans-117"/>
       <use x="594.921875" xlink:href="#DejaVuSans-99"/>
       <use x="649.902344" xlink:href="#DejaVuSans-97"/>
       <use x="711.181641" xlink:href="#DejaVuSans-116"/>
       <use x="750.390625" xlink:href="#DejaVuSans-105"/>
       <use x="778.173828" xlink:href="#DejaVuSans-111"/>
       <use x="839.355469" xlink:href="#DejaVuSans-110"/>
      </g>
     </g>
    </g>
    <g id="xtick_15">
     <g id="line2d_15">
      <g>
       <use style="stroke:#000000;stroke-width:1.875;" x="826.888654" xlink:href="#mbf4142c135" y="464.32"/>
      </g>
     </g>
     <g id="text_15">
      <!-- Years of Education -->
      <defs>
       <path d="M -0.203125 72.90625 
L 10.40625 72.90625 
L 30.609375 42.921875 
L 50.6875 72.90625 
L 61.28125 72.90625 
L 35.5 34.71875 
L 35.5 0 
L 25.59375 0 
L 25.59375 34.71875 
z
" id="DejaVuSans-89"/>
       <path d="M 37.109375 75.984375 
L 37.109375 68.5 
L 28.515625 68.5 
Q 23.6875 68.5 21.796875 66.546875 
Q 19.921875 64.59375 19.921875 59.515625 
L 19.921875 54.6875 
L 34.71875 54.6875 
L 34.71875 47.703125 
L 19.921875 47.703125 
L 19.921875 0 
L 10.890625 0 
L 10.890625 47.703125 
L 2.296875 47.703125 
L 2.296875 54.6875 
L 10.890625 54.6875 
L 10.890625 58.5 
Q 10.890625 67.625 15.140625 71.796875 
Q 19.390625 75.984375 28.609375 75.984375 
z
" id="DejaVuSans-102"/>
      </defs>
      <g transform="translate(831.441623 628.893281)rotate(-90)scale(0.165 -0.165)">
       <use xlink:href="#DejaVuSans-89"/>
       <use x="47.833984" xlink:href="#DejaVuSans-101"/>
       <use x="109.357422" xlink:href="#DejaVuSans-97"/>
       <use x="170.636719" xlink:href="#DejaVuSans-114"/>
       <use x="211.75" xlink:href="#DejaVuSans-115"/>
       <use x="263.849609" xlink:href="#DejaVuSans-32"/>
       <use x="295.636719" xlink:href="#DejaVuSans-111"/>
       <use x="356.818359" xlink:href="#DejaVuSans-102"/>
       <use x="392.023438" xlink:href="#DejaVuSans-32"/>
       <use x="423.810547" xlink:href="#DejaVuSans-69"/>
       <use x="486.994141" xlink:href="#DejaVuSans-100"/>
       <use x="550.470703" xlink:href="#DejaVuSans-117"/>
       <use x="613.849609" xlink:href="#DejaVuSans-99"/>
       <use x="668.830078" xlink:href="#DejaVuSans-97"/>
       <use x="730.109375" xlink:href="#DejaVuSans-116"/>
       <use x="769.318359" xlink:href="#DejaVuSans-105"/>
       <use x="797.101562" xlink:href="#DejaVuSans-111"/>
       <use x="858.283203" xlink:href="#DejaVuSans-110"/>
      </g>
     </g>
    </g>
   </g>
   <g id="matplotlib.axis_2">
    <g id="ytick_1">
     <g id="line2d_16">
      <defs>
       <path d="M 0 0 
L -9 0 
" id="m4fd700be5f" style="stroke:#000000;stroke-width:1.875;"/>
      </defs>
      <g>
       <use style="stroke:#000000;stroke-width:1.875;" x="90.084" xlink:href="#m4fd700be5f" y="464.32"/>
      </g>
     </g>
     <g id="text_16">
      <!-- 0.0 -->
      <defs>
       <path d="M 31.78125 66.40625 
Q 24.171875 66.40625 20.328125 58.90625 
Q 16.5 51.421875 16.5 36.375 
Q 16.5 21.390625 20.328125 13.890625 
Q 24.171875 6.390625 31.78125 6.390625 
Q 39.453125 6.390625 43.28125 13.890625 
Q 47.125 21.390625 47.125 36.375 
Q 47.125 51.421875 43.28125 58.90625 
Q 39.453125 66.40625 31.78125 66.40625 
z
M 31.78125 74.21875 
Q 44.046875 74.21875 50.515625 64.515625 
Q 56.984375 54.828125 56.984375 36.375 
Q 56.984375 17.96875 50.515625 8.265625 
Q 44.046875 -1.421875 31.78125 -1.421875 
Q 19.53125 -1.421875 13.0625 8.265625 
Q 6.59375 17.96875 6.59375 36.375 
Q 6.59375 54.828125 13.0625 64.515625 
Q 19.53125 74.21875 31.78125 74.21875 
z
" id="DejaVuSans-48"/>
       <path d="M 10.6875 12.40625 
L 21 12.40625 
L 21 0 
L 10.6875 0 
z
" id="DejaVuSans-46"/>
      </defs>
      <g transform="translate(51.343844 470.588711)scale(0.165 -0.165)">
       <use xlink:href="#DejaVuSans-48"/>
       <use x="63.623047" xlink:href="#DejaVuSans-46"/>
       <use x="95.410156" xlink:href="#DejaVuSans-48"/>
      </g>
     </g>
    </g>
    <g id="ytick_2">
     <g id="line2d_17">
      <g>
       <use style="stroke:#000000;stroke-width:1.875;" x="90.084" xlink:href="#m4fd700be5f" y="405.387785"/>
      </g>
     </g>
     <g id="text_17">
      <!-- 0.1 -->
      <g transform="translate(51.343844 411.656496)scale(0.165 -0.165)">
       <use xlink:href="#DejaVuSans-48"/>
       <use x="63.623047" xlink:href="#DejaVuSans-46"/>
       <use x="95.410156" xlink:href="#DejaVuSans-49"/>
      </g>
     </g>
    </g>
    <g id="ytick_3">
     <g id="line2d_18">
      <g>
       <use style="stroke:#000000;stroke-width:1.875;" x="90.084" xlink:href="#m4fd700be5f" y="346.455569"/>
      </g>
     </g>
     <g id="text_18">
      <!-- 0.2 -->
      <defs>
       <path d="M 19.1875 8.296875 
L 53.609375 8.296875 
L 53.609375 0 
L 7.328125 0 
L 7.328125 8.296875 
Q 12.9375 14.109375 22.625 23.890625 
Q 32.328125 33.6875 34.8125 36.53125 
Q 39.546875 41.84375 41.421875 45.53125 
Q 43.3125 49.21875 43.3125 52.78125 
Q 43.3125 58.59375 39.234375 62.25 
Q 35.15625 65.921875 28.609375 65.921875 
Q 23.96875 65.921875 18.8125 64.3125 
Q 13.671875 62.703125 7.8125 59.421875 
L 7.8125 69.390625 
Q 13.765625 71.78125 18.9375 73 
Q 24.125 74.21875 28.421875 74.21875 
Q 39.75 74.21875 46.484375 68.546875 
Q 53.21875 62.890625 53.21875 53.421875 
Q 53.21875 48.921875 51.53125 44.890625 
Q 49.859375 40.875 45.40625 35.40625 
Q 44.1875 33.984375 37.640625 27.21875 
Q 31.109375 20.453125 19.1875 8.296875 
z
" id="DejaVuSans-50"/>
      </defs>
      <g transform="translate(51.343844 352.72428)scale(0.165 -0.165)">
       <use xlink:href="#DejaVuSans-48"/>
       <use x="63.623047" xlink:href="#DejaVuSans-46"/>
       <use x="95.410156" xlink:href="#DejaVuSans-50"/>
      </g>
     </g>
    </g>
    <g id="ytick_4">
     <g id="line2d_19">
      <g>
       <use style="stroke:#000000;stroke-width:1.875;" x="90.084" xlink:href="#m4fd700be5f" y="287.523354"/>
      </g>
     </g>
     <g id="text_19">
      <!-- 0.3 -->
      <defs>
       <path d="M 40.578125 39.3125 
Q 47.65625 37.796875 51.625 33 
Q 55.609375 28.21875 55.609375 21.1875 
Q 55.609375 10.40625 48.1875 4.484375 
Q 40.765625 -1.421875 27.09375 -1.421875 
Q 22.515625 -1.421875 17.65625 -0.515625 
Q 12.796875 0.390625 7.625 2.203125 
L 7.625 11.71875 
Q 11.71875 9.328125 16.59375 8.109375 
Q 21.484375 6.890625 26.8125 6.890625 
Q 36.078125 6.890625 40.9375 10.546875 
Q 45.796875 14.203125 45.796875 21.1875 
Q 45.796875 27.640625 41.28125 31.265625 
Q 36.765625 34.90625 28.71875 34.90625 
L 20.21875 34.90625 
L 20.21875 43.015625 
L 29.109375 43.015625 
Q 36.375 43.015625 40.234375 45.921875 
Q 44.09375 48.828125 44.09375 54.296875 
Q 44.09375 59.90625 40.109375 62.90625 
Q 36.140625 65.921875 28.71875 65.921875 
Q 24.65625 65.921875 20.015625 65.03125 
Q 15.375 64.15625 9.8125 62.3125 
L 9.8125 71.09375 
Q 15.4375 72.65625 20.34375 73.4375 
Q 25.25 74.21875 29.59375 74.21875 
Q 40.828125 74.21875 47.359375 69.109375 
Q 53.90625 64.015625 53.90625 55.328125 
Q 53.90625 49.265625 50.4375 45.09375 
Q 46.96875 40.921875 40.578125 39.3125 
z
" id="DejaVuSans-51"/>
      </defs>
      <g transform="translate(51.343844 293.792065)scale(0.165 -0.165)">
       <use xlink:href="#DejaVuSans-48"/>
       <use x="63.623047" xlink:href="#DejaVuSans-46"/>
       <use x="95.410156" xlink:href="#DejaVuSans-51"/>
      </g>
     </g>
    </g>
    <g id="ytick_5">
     <g id="line2d_20">
      <g>
       <use style="stroke:#000000;stroke-width:1.875;" x="90.084" xlink:href="#m4fd700be5f" y="228.591139"/>
      </g>
     </g>
     <g id="text_20">
      <!-- 0.4 -->
      <defs>
       <path d="M 37.796875 64.3125 
L 12.890625 25.390625 
L 37.796875 25.390625 
z
M 35.203125 72.90625 
L 47.609375 72.90625 
L 47.609375 25.390625 
L 58.015625 25.390625 
L 58.015625 17.1875 
L 47.609375 17.1875 
L 47.609375 0 
L 37.796875 0 
L 37.796875 17.1875 
L 4.890625 17.1875 
L 4.890625 26.703125 
z
" id="DejaVuSans-52"/>
      </defs>
      <g transform="translate(51.343844 234.85985)scale(0.165 -0.165)">
       <use xlink:href="#DejaVuSans-48"/>
       <use x="63.623047" xlink:href="#DejaVuSans-46"/>
       <use x="95.410156" xlink:href="#DejaVuSans-52"/>
      </g>
     </g>
    </g>
    <g id="ytick_6">
     <g id="line2d_21">
      <g>
       <use style="stroke:#000000;stroke-width:1.875;" x="90.084" xlink:href="#m4fd700be5f" y="169.658923"/>
      </g>
     </g>
     <g id="text_21">
      <!-- 0.5 -->
      <defs>
       <path d="M 10.796875 72.90625 
L 49.515625 72.90625 
L 49.515625 64.59375 
L 19.828125 64.59375 
L 19.828125 46.734375 
Q 21.96875 47.46875 24.109375 47.828125 
Q 26.265625 48.1875 28.421875 48.1875 
Q 40.625 48.1875 47.75 41.5 
Q 54.890625 34.8125 54.890625 23.390625 
Q 54.890625 11.625 47.5625 5.09375 
Q 40.234375 -1.421875 26.90625 -1.421875 
Q 22.3125 -1.421875 17.546875 -0.640625 
Q 12.796875 0.140625 7.71875 1.703125 
L 7.71875 11.625 
Q 12.109375 9.234375 16.796875 8.0625 
Q 21.484375 6.890625 26.703125 6.890625 
Q 35.15625 6.890625 40.078125 11.328125 
Q 45.015625 15.765625 45.015625 23.390625 
Q 45.015625 31 40.078125 35.4375 
Q 35.15625 39.890625 26.703125 39.890625 
Q 22.75 39.890625 18.8125 39.015625 
Q 14.890625 38.140625 10.796875 36.28125 
z
" id="DejaVuSans-53"/>
      </defs>
      <g transform="translate(51.343844 175.927634)scale(0.165 -0.165)">
       <use xlink:href="#DejaVuSans-48"/>
       <use x="63.623047" xlink:href="#DejaVuSans-46"/>
       <use x="95.410156" xlink:href="#DejaVuSans-53"/>
      </g>
     </g>
    </g>
    <g id="ytick_7">
     <g id="line2d_22">
      <g>
       <use style="stroke:#000000;stroke-width:1.875;" x="90.084" xlink:href="#m4fd700be5f" y="110.726708"/>
      </g>
     </g>
     <g id="text_22">
      <!-- 0.6 -->
      <defs>
       <path d="M 33.015625 40.375 
Q 26.375 40.375 22.484375 35.828125 
Q 18.609375 31.296875 18.609375 23.390625 
Q 18.609375 15.53125 22.484375 10.953125 
Q 26.375 6.390625 33.015625 6.390625 
Q 39.65625 6.390625 43.53125 10.953125 
Q 47.40625 15.53125 47.40625 23.390625 
Q 47.40625 31.296875 43.53125 35.828125 
Q 39.65625 40.375 33.015625 40.375 
z
M 52.59375 71.296875 
L 52.59375 62.3125 
Q 48.875 64.0625 45.09375 64.984375 
Q 41.3125 65.921875 37.59375 65.921875 
Q 27.828125 65.921875 22.671875 59.328125 
Q 17.53125 52.734375 16.796875 39.40625 
Q 19.671875 43.65625 24.015625 45.921875 
Q 28.375 48.1875 33.59375 48.1875 
Q 44.578125 48.1875 50.953125 41.515625 
Q 57.328125 34.859375 57.328125 23.390625 
Q 57.328125 12.15625 50.6875 5.359375 
Q 44.046875 -1.421875 33.015625 -1.421875 
Q 20.359375 -1.421875 13.671875 8.265625 
Q 6.984375 17.96875 6.984375 36.375 
Q 6.984375 53.65625 15.1875 63.9375 
Q 23.390625 74.21875 37.203125 74.21875 
Q 40.921875 74.21875 44.703125 73.484375 
Q 48.484375 72.75 52.59375 71.296875 
z
" id="DejaVuSans-54"/>
      </defs>
      <g transform="translate(51.343844 116.995419)scale(0.165 -0.165)">
       <use xlink:href="#DejaVuSans-48"/>
       <use x="63.623047" xlink:href="#DejaVuSans-46"/>
       <use x="95.410156" xlink:href="#DejaVuSans-54"/>
      </g>
     </g>
    </g>
    <g id="ytick_8">
     <g id="line2d_23">
      <g>
       <use style="stroke:#000000;stroke-width:1.875;" x="90.084" xlink:href="#m4fd700be5f" y="51.794493"/>
      </g>
     </g>
     <g id="text_23">
      <!-- 0.7 -->
      <defs>
       <path d="M 8.203125 72.90625 
L 55.078125 72.90625 
L 55.078125 68.703125 
L 28.609375 0 
L 18.3125 0 
L 43.21875 64.59375 
L 8.203125 64.59375 
z
" id="DejaVuSans-55"/>
      </defs>
      <g transform="translate(51.343844 58.063204)scale(0.165 -0.165)">
       <use xlink:href="#DejaVuSans-48"/>
       <use x="63.623047" xlink:href="#DejaVuSans-46"/>
       <use x="95.410156" xlink:href="#DejaVuSans-55"/>
      </g>
     </g>
    </g>
    <g id="text_24">
     <!-- Estimated $h_g^2$ -->
     <defs>
      <path d="M 55.71875 33.015625 
L 49.3125 0 
L 40.28125 0 
L 46.6875 32.671875 
Q 47.125 34.96875 47.359375 36.71875 
Q 47.609375 38.484375 47.609375 39.5 
Q 47.609375 43.609375 45.015625 45.890625 
Q 42.4375 48.1875 37.796875 48.1875 
Q 30.5625 48.1875 25.265625 43.296875 
Q 19.96875 38.421875 18.40625 30.328125 
L 12.5 0 
L 3.515625 0 
L 18.3125 75.984375 
L 27.296875 75.984375 
L 21.484375 46.09375 
Q 24.90625 50.6875 30.21875 53.34375 
Q 35.546875 56 41.40625 56 
Q 48.640625 56 52.609375 52.09375 
Q 56.59375 48.1875 56.59375 41.109375 
Q 56.59375 39.359375 56.375 37.359375 
Q 56.15625 35.359375 55.71875 33.015625 
z
" id="DejaVuSans-Oblique-104"/>
      <path d="M 59.625 54.6875 
L 50.296875 6.78125 
Q 47.609375 -7.125 40.015625 -13.953125 
Q 32.421875 -20.796875 19.578125 -20.796875 
Q 14.84375 -20.796875 10.78125 -20.09375 
Q 6.734375 -19.390625 3.21875 -17.921875 
L 4.890625 -9.1875 
Q 8.203125 -11.328125 11.90625 -12.34375 
Q 15.625 -13.375 19.828125 -13.375 
Q 28.375 -13.375 33.859375 -8.703125 
Q 39.359375 -4.046875 41.109375 4.6875 
L 41.890625 8.796875 
Q 38.140625 4.5 33.15625 2.25 
Q 28.171875 0 22.40625 0 
Q 14.109375 0 9.34375 5.484375 
Q 4.59375 10.984375 4.59375 20.609375 
Q 4.59375 28.171875 7.46875 35.421875 
Q 10.359375 42.671875 15.578125 48.296875 
Q 19.046875 52 23.65625 54 
Q 28.265625 56 33.296875 56 
Q 38.8125 56 42.90625 53.4375 
Q 47.015625 50.875 49.03125 46.1875 
L 50.59375 54.6875 
z
M 46.09375 34.625 
Q 46.09375 41.265625 42.96875 44.875 
Q 39.84375 48.484375 34.078125 48.484375 
Q 30.515625 48.484375 27.296875 47.0625 
Q 24.078125 45.65625 21.78125 43.109375 
Q 18.0625 38.921875 15.984375 33.234375 
Q 13.921875 27.546875 13.921875 21.484375 
Q 13.921875 14.75 17.0625 11.125 
Q 20.21875 7.515625 26.125 7.515625 
Q 34.671875 7.515625 40.375 15.25 
Q 46.09375 23 46.09375 34.625 
z
" id="DejaVuSans-Oblique-103"/>
     </defs>
     <g transform="translate(39.783844 300.92)rotate(-90)scale(0.18 -0.18)">
      <use transform="translate(0 0.765625)" xlink:href="#DejaVuSans-69"/>
      <use transform="translate(63.183594 0.765625)" xlink:href="#DejaVuSans-115"/>
      <use transform="translate(115.283203 0.765625)" xlink:href="#DejaVuSans-116"/>
      <use transform="translate(154.492188 0.765625)" xlink:href="#DejaVuSans-105"/>
      <use transform="translate(182.275391 0.765625)" xlink:href="#DejaVuSans-109"/>
      <use transform="translate(279.6875 0.765625)" xlink:href="#DejaVuSans-97"/>
      <use transform="translate(340.966797 0.765625)" xlink:href="#DejaVuSans-116"/>
      <use transform="translate(380.175781 0.765625)" xlink:href="#DejaVuSans-101"/>
      <use transform="translate(441.699219 0.765625)" xlink:href="#DejaVuSans-100"/>
      <use transform="translate(505.175781 0.765625)" xlink:href="#DejaVuSans-32"/>
      <use transform="translate(536.962891 0.765625)" xlink:href="#DejaVuSans-Oblique-104"/>
      <use transform="translate(607.789505 39.046875)scale(0.7)" xlink:href="#DejaVuSans-50"/>
      <use transform="translate(600.341797 -26.578125)scale(0.7)" xlink:href="#DejaVuSans-Oblique-103"/>
     </g>
    </g>
   </g>
   <g id="LineCollection_1">
    <path clip-path="url(#p750ba96fc7)" d="M 130.184968 75.510412 
L 130.184968 45.309689 
" style="fill:none;stroke:#000000;"/>
    <path clip-path="url(#p750ba96fc7)" d="M 178.792202 310.753142 
L 178.792202 297.48495 
" style="fill:none;stroke:#000000;"/>
    <path clip-path="url(#p750ba96fc7)" d="M 227.399436 318.363533 
L 227.399436 304.119452 
" style="fill:none;stroke:#000000;"/>
    <path clip-path="url(#p750ba96fc7)" d="M 276.00667 336.682874 
L 276.00667 326.652692 
" style="fill:none;stroke:#000000;"/>
    <path clip-path="url(#p750ba96fc7)" d="M 324.613904 310.375422 
L 324.613904 302.925223 
" style="fill:none;stroke:#000000;"/>
    <path clip-path="url(#p750ba96fc7)" d="M 373.221138 269.300047 
L 373.221138 249.598259 
" style="fill:none;stroke:#000000;"/>
    <path clip-path="url(#p750ba96fc7)" d="M 421.828371 269.17215 
L 421.828371 250.1469 
" style="fill:none;stroke:#000000;"/>
    <path clip-path="url(#p750ba96fc7)" d="M 470.435605 335.393483 
L 470.435605 326.811179 
" style="fill:none;stroke:#000000;"/>
    <path clip-path="url(#p750ba96fc7)" d="M 519.042839 371.158428 
L 519.042839 363.334582 
" style="fill:none;stroke:#000000;"/>
    <path clip-path="url(#p750ba96fc7)" d="M 567.650073 344.627012 
L 567.650073 334.567406 
" style="fill:none;stroke:#000000;"/>
    <path clip-path="url(#p750ba96fc7)" d="M 616.257307 402.31804 
L 616.257307 390.042292 
" style="fill:none;stroke:#000000;"/>
    <path clip-path="url(#p750ba96fc7)" d="M 664.864541 401.099061 
L 664.864541 396.773856 
" style="fill:none;stroke:#000000;"/>
    <path clip-path="url(#p750ba96fc7)" d="M 713.471775 410.064728 
L 713.471775 406.266817 
" style="fill:none;stroke:#000000;"/>
    <path clip-path="url(#p750ba96fc7)" d="M 762.079009 391.645392 
L 762.079009 387.427072 
" style="fill:none;stroke:#000000;"/>
    <path clip-path="url(#p750ba96fc7)" d="M 810.686243 407.513113 
L 810.686243 403.039687 
" style="fill:none;stroke:#000000;"/>
   </g>
   <g id="LineCollection_2">
    <path clip-path="url(#p750ba96fc7)" d="M 138.286174 71.32055 
L 138.286174 40.624762 
" style="fill:none;stroke:#000000;"/>
    <path clip-path="url(#p750ba96fc7)" d="M 186.893408 308.721555 
L 186.893408 295.552096 
" style="fill:none;stroke:#000000;"/>
    <path clip-path="url(#p750ba96fc7)" d="M 235.500641 315.8936 
L 235.500641 301.468485 
" style="fill:none;stroke:#000000;"/>
    <path clip-path="url(#p750ba96fc7)" d="M 284.107875 334.889587 
L 284.107875 325.025446 
" style="fill:none;stroke:#000000;"/>
    <path clip-path="url(#p750ba96fc7)" d="M 332.715109 308.235775 
L 332.715109 300.756603 
" style="fill:none;stroke:#000000;"/>
    <path clip-path="url(#p750ba96fc7)" d="M 381.322343 266.994763 
L 381.322343 247.301424 
" style="fill:none;stroke:#000000;"/>
    <path clip-path="url(#p750ba96fc7)" d="M 429.929577 265.860967 
L 429.929577 246.917463 
" style="fill:none;stroke:#000000;"/>
    <path clip-path="url(#p750ba96fc7)" d="M 478.536811 333.952639 
L 478.536811 325.486232 
" style="fill:none;stroke:#000000;"/>
    <path clip-path="url(#p750ba96fc7)" d="M 527.144045 369.40333 
L 527.144045 361.427551 
" style="fill:none;stroke:#000000;"/>
    <path clip-path="url(#p750ba96fc7)" d="M 575.751279 341.197757 
L 575.751279 331.648233 
" style="fill:none;stroke:#000000;"/>
    <path clip-path="url(#p750ba96fc7)" d="M 624.358513 401.666591 
L 624.358513 389.013318 
" style="fill:none;stroke:#000000;"/>
    <path clip-path="url(#p750ba96fc7)" d="M 672.965747 400.280493 
L 672.965747 395.90244 
" style="fill:none;stroke:#000000;"/>
    <path clip-path="url(#p750ba96fc7)" d="M 721.572981 409.184584 
L 721.572981 405.387637 
" style="fill:none;stroke:#000000;"/>
    <path clip-path="url(#p750ba96fc7)" d="M 770.180214 389.924524 
L 770.180214 385.711259 
" style="fill:none;stroke:#000000;"/>
    <path clip-path="url(#p750ba96fc7)" d="M 818.787448 405.924192 
L 818.787448 401.468509 
" style="fill:none;stroke:#000000;"/>
   </g>
   <g id="LineCollection_3">
    <path clip-path="url(#p750ba96fc7)" d="M 146.387379 71.917054 
L 146.387379 41.076984 
" style="fill:none;stroke:#000000;"/>
    <path clip-path="url(#p750ba96fc7)" d="M 194.994613 308.192683 
L 194.994613 295.102477 
" style="fill:none;stroke:#000000;"/>
    <path clip-path="url(#p750ba96fc7)" d="M 243.601847 315.166204 
L 243.601847 300.865075 
" style="fill:none;stroke:#000000;"/>
    <path clip-path="url(#p750ba96fc7)" d="M 292.209081 333.524737 
L 292.209081 323.877844 
" style="fill:none;stroke:#000000;"/>
    <path clip-path="url(#p750ba96fc7)" d="M 340.816315 306.715596 
L 340.816315 299.188351 
" style="fill:none;stroke:#000000;"/>
    <path clip-path="url(#p750ba96fc7)" d="M 389.423549 265.940882 
L 389.423549 246.258653 
" style="fill:none;stroke:#000000;"/>
    <path clip-path="url(#p750ba96fc7)" d="M 438.030783 264.500045 
L 438.030783 245.378521 
" style="fill:none;stroke:#000000;"/>
    <path clip-path="url(#p750ba96fc7)" d="M 486.638017 332.635581 
L 486.638017 324.281303 
" style="fill:none;stroke:#000000;"/>
    <path clip-path="url(#p750ba96fc7)" d="M 535.245251 368.613099 
L 535.245251 360.507318 
" style="fill:none;stroke:#000000;"/>
    <path clip-path="url(#p750ba96fc7)" d="M 583.852484 338.705697 
L 583.852484 329.336163 
" style="fill:none;stroke:#000000;"/>
    <path clip-path="url(#p750ba96fc7)" d="M 632.459718 401.96214 
L 632.459718 388.761809 
" style="fill:none;stroke:#000000;"/>
    <path clip-path="url(#p750ba96fc7)" d="M 681.066952 399.593419 
L 681.066952 395.184185 
" style="fill:none;stroke:#000000;"/>
    <path clip-path="url(#p750ba96fc7)" d="M 729.674186 408.552309 
L 729.674186 404.755744 
" style="fill:none;stroke:#000000;"/>
    <path clip-path="url(#p750ba96fc7)" d="M 778.28142 388.274218 
L 778.28142 384.067433 
" style="fill:none;stroke:#000000;"/>
    <path clip-path="url(#p750ba96fc7)" d="M 826.888654 404.476042 
L 826.888654 400.006618 
" style="fill:none;stroke:#000000;"/>
   </g>
   <g id="LineCollection_4">
    <path clip-path="url(#p750ba96fc7)" d="M 154.488585 76.621184 
L 154.488585 46.132785 
" style="fill:none;stroke:#000000;"/>
    <path clip-path="url(#p750ba96fc7)" d="M 203.095819 308.448031 
L 203.095819 295.269108 
" style="fill:none;stroke:#000000;"/>
    <path clip-path="url(#p750ba96fc7)" d="M 251.703053 316.563458 
L 251.703053 302.481209 
" style="fill:none;stroke:#000000;"/>
    <path clip-path="url(#p750ba96fc7)" d="M 300.310287 333.117447 
L 300.310287 323.564901 
" style="fill:none;stroke:#000000;"/>
    <path clip-path="url(#p750ba96fc7)" d="M 348.917521 306.029041 
L 348.917521 298.422353 
" style="fill:none;stroke:#000000;"/>
    <path clip-path="url(#p750ba96fc7)" d="M 397.524754 266.447085 
L 397.524754 246.989018 
" style="fill:none;stroke:#000000;"/>
    <path clip-path="url(#p750ba96fc7)" d="M 446.131988 264.814657 
L 446.131988 245.304974 
" style="fill:none;stroke:#000000;"/>
    <path clip-path="url(#p750ba96fc7)" d="M 494.739222 331.917575 
L 494.739222 323.661179 
" style="fill:none;stroke:#000000;"/>
    <path clip-path="url(#p750ba96fc7)" d="M 543.346456 368.568459 
L 543.346456 360.375223 
" style="fill:none;stroke:#000000;"/>
    <path clip-path="url(#p750ba96fc7)" d="M 591.95369 337.081486 
L 591.95369 327.746655 
" style="fill:none;stroke:#000000;"/>
    <path clip-path="url(#p750ba96fc7)" d="M 640.560924 402.897829 
L 640.560924 389.172251 
" style="fill:none;stroke:#000000;"/>
    <path clip-path="url(#p750ba96fc7)" d="M 689.168158 399.683896 
L 689.168158 395.206919 
" style="fill:none;stroke:#000000;"/>
    <path clip-path="url(#p750ba96fc7)" d="M 737.775392 408.368097 
L 737.775392 404.566574 
" style="fill:none;stroke:#000000;"/>
    <path clip-path="url(#p750ba96fc7)" d="M 786.382626 387.450346 
L 786.382626 383.233077 
" style="fill:none;stroke:#000000;"/>
    <path clip-path="url(#p750ba96fc7)" d="M 834.98986 403.928434 
L 834.98986 399.385844 
" style="fill:none;stroke:#000000;"/>
   </g>
   <g id="LineCollection_5">
    <path clip-path="url(#p750ba96fc7)" d="M 162.589791 83.476085 
L 162.589791 53.106325 
" style="fill:none;stroke:#000000;"/>
    <path clip-path="url(#p750ba96fc7)" d="M 211.197024 310.015704 
L 211.197024 296.410325 
" style="fill:none;stroke:#000000;"/>
    <path clip-path="url(#p750ba96fc7)" d="M 259.804258 319.144371 
L 259.804258 305.22762 
" style="fill:none;stroke:#000000;"/>
    <path clip-path="url(#p750ba96fc7)" d="M 308.411492 334.24205 
L 308.411492 324.685639 
" style="fill:none;stroke:#000000;"/>
    <path clip-path="url(#p750ba96fc7)" d="M 357.018726 306.877712 
L 357.018726 299.167535 
" style="fill:none;stroke:#000000;"/>
    <path clip-path="url(#p750ba96fc7)" d="M 405.62596 268.641332 
L 405.62596 249.261754 
" style="fill:none;stroke:#000000;"/>
    <path clip-path="url(#p750ba96fc7)" d="M 454.233194 267.047314 
L 454.233194 246.928549 
" style="fill:none;stroke:#000000;"/>
    <path clip-path="url(#p750ba96fc7)" d="M 502.840428 332.549004 
L 502.840428 324.23579 
" style="fill:none;stroke:#000000;"/>
    <path clip-path="url(#p750ba96fc7)" d="M 551.447662 369.664149 
L 551.447662 361.293884 
" style="fill:none;stroke:#000000;"/>
    <path clip-path="url(#p750ba96fc7)" d="M 600.054896 336.477578 
L 600.054896 326.937957 
" style="fill:none;stroke:#000000;"/>
    <path clip-path="url(#p750ba96fc7)" d="M 648.66213 404.171341 
L 648.66213 389.723935 
" style="fill:none;stroke:#000000;"/>
    <path clip-path="url(#p750ba96fc7)" d="M 697.269364 400.575921 
L 697.269364 396.024234 
" style="fill:none;stroke:#000000;"/>
    <path clip-path="url(#p750ba96fc7)" d="M 745.876598 408.831073 
L 745.876598 404.95299 
" style="fill:none;stroke:#000000;"/>
    <path clip-path="url(#p750ba96fc7)" d="M 794.483831 387.35259 
L 794.483831 383.041671 
" style="fill:none;stroke:#000000;"/>
    <path clip-path="url(#p750ba96fc7)" d="M 843.091065 403.953349 
L 843.091065 399.234862 
" style="fill:none;stroke:#000000;"/>
   </g>
   <g id="line2d_24">
    <defs>
     <path d="M 2 0 
L -2 -0 
" id="mbf0078aa22" style="stroke:#000000;"/>
    </defs>
    <g clip-path="url(#p750ba96fc7)">
     <use style="stroke:#000000;" x="130.184968" xlink:href="#mbf0078aa22" y="75.510412"/>
     <use style="stroke:#000000;" x="178.792202" xlink:href="#mbf0078aa22" y="310.753142"/>
     <use style="stroke:#000000;" x="227.399436" xlink:href="#mbf0078aa22" y="318.363533"/>
     <use style="stroke:#000000;" x="276.00667" xlink:href="#mbf0078aa22" y="336.682874"/>
     <use style="stroke:#000000;" x="324.613904" xlink:href="#mbf0078aa22" y="310.375422"/>
     <use style="stroke:#000000;" x="373.221138" xlink:href="#mbf0078aa22" y="269.300047"/>
     <use style="stroke:#000000;" x="421.828371" xlink:href="#mbf0078aa22" y="269.17215"/>
     <use style="stroke:#000000;" x="470.435605" xlink:href="#mbf0078aa22" y="335.393483"/>
     <use style="stroke:#000000;" x="519.042839" xlink:href="#mbf0078aa22" y="371.158428"/>
     <use style="stroke:#000000;" x="567.650073" xlink:href="#mbf0078aa22" y="344.627012"/>
     <use style="stroke:#000000;" x="616.257307" xlink:href="#mbf0078aa22" y="402.31804"/>
     <use style="stroke:#000000;" x="664.864541" xlink:href="#mbf0078aa22" y="401.099061"/>
     <use style="stroke:#000000;" x="713.471775" xlink:href="#mbf0078aa22" y="410.064728"/>
     <use style="stroke:#000000;" x="762.079009" xlink:href="#mbf0078aa22" y="391.645392"/>
     <use style="stroke:#000000;" x="810.686243" xlink:href="#mbf0078aa22" y="407.513113"/>
    </g>
   </g>
   <g id="line2d_25">
    <g clip-path="url(#p750ba96fc7)">
     <use style="stroke:#000000;" x="130.184968" xlink:href="#mbf0078aa22" y="45.309689"/>
     <use style="stroke:#000000;" x="178.792202" xlink:href="#mbf0078aa22" y="297.48495"/>
     <use style="stroke:#000000;" x="227.399436" xlink:href="#mbf0078aa22" y="304.119452"/>
     <use style="stroke:#000000;" x="276.00667" xlink:href="#mbf0078aa22" y="326.652692"/>
     <use style="stroke:#000000;" x="324.613904" xlink:href="#mbf0078aa22" y="302.925223"/>
     <use style="stroke:#000000;" x="373.221138" xlink:href="#mbf0078aa22" y="249.598259"/>
     <use style="stroke:#000000;" x="421.828371" xlink:href="#mbf0078aa22" y="250.1469"/>
     <use style="stroke:#000000;" x="470.435605" xlink:href="#mbf0078aa22" y="326.811179"/>
     <use style="stroke:#000000;" x="519.042839" xlink:href="#mbf0078aa22" y="363.334582"/>
     <use style="stroke:#000000;" x="567.650073" xlink:href="#mbf0078aa22" y="334.567406"/>
     <use style="stroke:#000000;" x="616.257307" xlink:href="#mbf0078aa22" y="390.042292"/>
     <use style="stroke:#000000;" x="664.864541" xlink:href="#mbf0078aa22" y="396.773856"/>
     <use style="stroke:#000000;" x="713.471775" xlink:href="#mbf0078aa22" y="406.266817"/>
     <use style="stroke:#000000;" x="762.079009" xlink:href="#mbf0078aa22" y="387.427072"/>
     <use style="stroke:#000000;" x="810.686243" xlink:href="#mbf0078aa22" y="403.039687"/>
    </g>
   </g>
   <g id="line2d_26">
    <g clip-path="url(#p750ba96fc7)">
     <use style="stroke:#000000;" x="138.286174" xlink:href="#mbf0078aa22" y="71.32055"/>
     <use style="stroke:#000000;" x="186.893408" xlink:href="#mbf0078aa22" y="308.721555"/>
     <use style="stroke:#000000;" x="235.500641" xlink:href="#mbf0078aa22" y="315.8936"/>
     <use style="stroke:#000000;" x="284.107875" xlink:href="#mbf0078aa22" y="334.889587"/>
     <use style="stroke:#000000;" x="332.715109" xlink:href="#mbf0078aa22" y="308.235775"/>
     <use style="stroke:#000000;" x="381.322343" xlink:href="#mbf0078aa22" y="266.994763"/>
     <use style="stroke:#000000;" x="429.929577" xlink:href="#mbf0078aa22" y="265.860967"/>
     <use style="stroke:#000000;" x="478.536811" xlink:href="#mbf0078aa22" y="333.952639"/>
     <use style="stroke:#000000;" x="527.144045" xlink:href="#mbf0078aa22" y="369.40333"/>
     <use style="stroke:#000000;" x="575.751279" xlink:href="#mbf0078aa22" y="341.197757"/>
     <use style="stroke:#000000;" x="624.358513" xlink:href="#mbf0078aa22" y="401.666591"/>
     <use style="stroke:#000000;" x="672.965747" xlink:href="#mbf0078aa22" y="400.280493"/>
     <use style="stroke:#000000;" x="721.572981" xlink:href="#mbf0078aa22" y="409.184584"/>
     <use style="stroke:#000000;" x="770.180214" xlink:href="#mbf0078aa22" y="389.924524"/>
     <use style="stroke:#000000;" x="818.787448" xlink:href="#mbf0078aa22" y="405.924192"/>
    </g>
   </g>
   <g id="line2d_27">
    <g clip-path="url(#p750ba96fc7)">
     <use style="stroke:#000000;" x="138.286174" xlink:href="#mbf0078aa22" y="40.624762"/>
     <use style="stroke:#000000;" x="186.893408" xlink:href="#mbf0078aa22" y="295.552096"/>
     <use style="stroke:#000000;" x="235.500641" xlink:href="#mbf0078aa22" y="301.468485"/>
     <use style="stroke:#000000;" x="284.107875" xlink:href="#mbf0078aa22" y="325.025446"/>
     <use style="stroke:#000000;" x="332.715109" xlink:href="#mbf0078aa22" y="300.756603"/>
     <use style="stroke:#000000;" x="381.322343" xlink:href="#mbf0078aa22" y="247.301424"/>
     <use style="stroke:#000000;" x="429.929577" xlink:href="#mbf0078aa22" y="246.917463"/>
     <use style="stroke:#000000;" x="478.536811" xlink:href="#mbf0078aa22" y="325.486232"/>
     <use style="stroke:#000000;" x="527.144045" xlink:href="#mbf0078aa22" y="361.427551"/>
     <use style="stroke:#000000;" x="575.751279" xlink:href="#mbf0078aa22" y="331.648233"/>
     <use style="stroke:#000000;" x="624.358513" xlink:href="#mbf0078aa22" y="389.013318"/>
     <use style="stroke:#000000;" x="672.965747" xlink:href="#mbf0078aa22" y="395.90244"/>
     <use style="stroke:#000000;" x="721.572981" xlink:href="#mbf0078aa22" y="405.387637"/>
     <use style="stroke:#000000;" x="770.180214" xlink:href="#mbf0078aa22" y="385.711259"/>
     <use style="stroke:#000000;" x="818.787448" xlink:href="#mbf0078aa22" y="401.468509"/>
    </g>
   </g>
   <g id="line2d_28">
    <g clip-path="url(#p750ba96fc7)">
     <use style="stroke:#000000;" x="146.387379" xlink:href="#mbf0078aa22" y="71.917054"/>
     <use style="stroke:#000000;" x="194.994613" xlink:href="#mbf0078aa22" y="308.192683"/>
     <use style="stroke:#000000;" x="243.601847" xlink:href="#mbf0078aa22" y="315.166204"/>
     <use style="stroke:#000000;" x="292.209081" xlink:href="#mbf0078aa22" y="333.524737"/>
     <use style="stroke:#000000;" x="340.816315" xlink:href="#mbf0078aa22" y="306.715596"/>
     <use style="stroke:#000000;" x="389.423549" xlink:href="#mbf0078aa22" y="265.940882"/>
     <use style="stroke:#000000;" x="438.030783" xlink:href="#mbf0078aa22" y="264.500045"/>
     <use style="stroke:#000000;" x="486.638017" xlink:href="#mbf0078aa22" y="332.635581"/>
     <use style="stroke:#000000;" x="535.245251" xlink:href="#mbf0078aa22" y="368.613099"/>
     <use style="stroke:#000000;" x="583.852484" xlink:href="#mbf0078aa22" y="338.705697"/>
     <use style="stroke:#000000;" x="632.459718" xlink:href="#mbf0078aa22" y="401.96214"/>
     <use style="stroke:#000000;" x="681.066952" xlink:href="#mbf0078aa22" y="399.593419"/>
     <use style="stroke:#000000;" x="729.674186" xlink:href="#mbf0078aa22" y="408.552309"/>
     <use style="stroke:#000000;" x="778.28142" xlink:href="#mbf0078aa22" y="388.274218"/>
     <use style="stroke:#000000;" x="826.888654" xlink:href="#mbf0078aa22" y="404.476042"/>
    </g>
   </g>
   <g id="line2d_29">
    <g clip-path="url(#p750ba96fc7)">
     <use style="stroke:#000000;" x="146.387379" xlink:href="#mbf0078aa22" y="41.076984"/>
     <use style="stroke:#000000;" x="194.994613" xlink:href="#mbf0078aa22" y="295.102477"/>
     <use style="stroke:#000000;" x="243.601847" xlink:href="#mbf0078aa22" y="300.865075"/>
     <use style="stroke:#000000;" x="292.209081" xlink:href="#mbf0078aa22" y="323.877844"/>
     <use style="stroke:#000000;" x="340.816315" xlink:href="#mbf0078aa22" y="299.188351"/>
     <use style="stroke:#000000;" x="389.423549" xlink:href="#mbf0078aa22" y="246.258653"/>
     <use style="stroke:#000000;" x="438.030783" xlink:href="#mbf0078aa22" y="245.378521"/>
     <use style="stroke:#000000;" x="486.638017" xlink:href="#mbf0078aa22" y="324.281303"/>
     <use style="stroke:#000000;" x="535.245251" xlink:href="#mbf0078aa22" y="360.507318"/>
     <use style="stroke:#000000;" x="583.852484" xlink:href="#mbf0078aa22" y="329.336163"/>
     <use style="stroke:#000000;" x="632.459718" xlink:href="#mbf0078aa22" y="388.761809"/>
     <use style="stroke:#000000;" x="681.066952" xlink:href="#mbf0078aa22" y="395.184185"/>
     <use style="stroke:#000000;" x="729.674186" xlink:href="#mbf0078aa22" y="404.755744"/>
     <use style="stroke:#000000;" x="778.28142" xlink:href="#mbf0078aa22" y="384.067433"/>
     <use style="stroke:#000000;" x="826.888654" xlink:href="#mbf0078aa22" y="400.006618"/>
    </g>
   </g>
   <g id="line2d_30">
    <g clip-path="url(#p750ba96fc7)">
     <use style="stroke:#000000;" x="154.488585" xlink:href="#mbf0078aa22" y="76.621184"/>
     <use style="stroke:#000000;" x="203.095819" xlink:href="#mbf0078aa22" y="308.448031"/>
     <use style="stroke:#000000;" x="251.703053" xlink:href="#mbf0078aa22" y="316.563458"/>
     <use style="stroke:#000000;" x="300.310287" xlink:href="#mbf0078aa22" y="333.117447"/>
     <use style="stroke:#000000;" x="348.917521" xlink:href="#mbf0078aa22" y="306.029041"/>
     <use style="stroke:#000000;" x="397.524754" xlink:href="#mbf0078aa22" y="266.447085"/>
     <use style="stroke:#000000;" x="446.131988" xlink:href="#mbf0078aa22" y="264.814657"/>
     <use style="stroke:#000000;" x="494.739222" xlink:href="#mbf0078aa22" y="331.917575"/>
     <use style="stroke:#000000;" x="543.346456" xlink:href="#mbf0078aa22" y="368.568459"/>
     <use style="stroke:#000000;" x="591.95369" xlink:href="#mbf0078aa22" y="337.081486"/>
     <use style="stroke:#000000;" x="640.560924" xlink:href="#mbf0078aa22" y="402.897829"/>
     <use style="stroke:#000000;" x="689.168158" xlink:href="#mbf0078aa22" y="399.683896"/>
     <use style="stroke:#000000;" x="737.775392" xlink:href="#mbf0078aa22" y="408.368097"/>
     <use style="stroke:#000000;" x="786.382626" xlink:href="#mbf0078aa22" y="387.450346"/>
     <use style="stroke:#000000;" x="834.98986" xlink:href="#mbf0078aa22" y="403.928434"/>
    </g>
   </g>
   <g id="line2d_31">
    <g clip-path="url(#p750ba96fc7)">
     <use style="stroke:#000000;" x="154.488585" xlink:href="#mbf0078aa22" y="46.132785"/>
     <use style="stroke:#000000;" x="203.095819" xlink:href="#mbf0078aa22" y="295.269108"/>
     <use style="stroke:#000000;" x="251.703053" xlink:href="#mbf0078aa22" y="302.481209"/>
     <use style="stroke:#000000;" x="300.310287" xlink:href="#mbf0078aa22" y="323.564901"/>
     <use style="stroke:#000000;" x="348.917521" xlink:href="#mbf0078aa22" y="298.422353"/>
     <use style="stroke:#000000;" x="397.524754" xlink:href="#mbf0078aa22" y="246.989018"/>
     <use style="stroke:#000000;" x="446.131988" xlink:href="#mbf0078aa22" y="245.304974"/>
     <use style="stroke:#000000;" x="494.739222" xlink:href="#mbf0078aa22" y="323.661179"/>
     <use style="stroke:#000000;" x="543.346456" xlink:href="#mbf0078aa22" y="360.375223"/>
     <use style="stroke:#000000;" x="591.95369" xlink:href="#mbf0078aa22" y="327.746655"/>
     <use style="stroke:#000000;" x="640.560924" xlink:href="#mbf0078aa22" y="389.172251"/>
     <use style="stroke:#000000;" x="689.168158" xlink:href="#mbf0078aa22" y="395.206919"/>
     <use style="stroke:#000000;" x="737.775392" xlink:href="#mbf0078aa22" y="404.566574"/>
     <use style="stroke:#000000;" x="786.382626" xlink:href="#mbf0078aa22" y="383.233077"/>
     <use style="stroke:#000000;" x="834.98986" xlink:href="#mbf0078aa22" y="399.385844"/>
    </g>
   </g>
   <g id="line2d_32">
    <g clip-path="url(#p750ba96fc7)">
     <use style="stroke:#000000;" x="162.589791" xlink:href="#mbf0078aa22" y="83.476085"/>
     <use style="stroke:#000000;" x="211.197024" xlink:href="#mbf0078aa22" y="310.015704"/>
     <use style="stroke:#000000;" x="259.804258" xlink:href="#mbf0078aa22" y="319.144371"/>
     <use style="stroke:#000000;" x="308.411492" xlink:href="#mbf0078aa22" y="334.24205"/>
     <use style="stroke:#000000;" x="357.018726" xlink:href="#mbf0078aa22" y="306.877712"/>
     <use style="stroke:#000000;" x="405.62596" xlink:href="#mbf0078aa22" y="268.641332"/>
     <use style="stroke:#000000;" x="454.233194" xlink:href="#mbf0078aa22" y="267.047314"/>
     <use style="stroke:#000000;" x="502.840428" xlink:href="#mbf0078aa22" y="332.549004"/>
     <use style="stroke:#000000;" x="551.447662" xlink:href="#mbf0078aa22" y="369.664149"/>
     <use style="stroke:#000000;" x="600.054896" xlink:href="#mbf0078aa22" y="336.477578"/>
     <use style="stroke:#000000;" x="648.66213" xlink:href="#mbf0078aa22" y="404.171341"/>
     <use style="stroke:#000000;" x="697.269364" xlink:href="#mbf0078aa22" y="400.575921"/>
     <use style="stroke:#000000;" x="745.876598" xlink:href="#mbf0078aa22" y="408.831073"/>
     <use style="stroke:#000000;" x="794.483831" xlink:href="#mbf0078aa22" y="387.35259"/>
     <use style="stroke:#000000;" x="843.091065" xlink:href="#mbf0078aa22" y="403.953349"/>
    </g>
   </g>
   <g id="line2d_33">
    <g clip-path="url(#p750ba96fc7)">
     <use style="stroke:#000000;" x="162.589791" xlink:href="#mbf0078aa22" y="53.106325"/>
     <use style="stroke:#000000;" x="211.197024" xlink:href="#mbf0078aa22" y="296.410325"/>
     <use style="stroke:#000000;" x="259.804258" xlink:href="#mbf0078aa22" y="305.22762"/>
     <use style="stroke:#000000;" x="308.411492" xlink:href="#mbf0078aa22" y="324.685639"/>
     <use style="stroke:#000000;" x="357.018726" xlink:href="#mbf0078aa22" y="299.167535"/>
     <use style="stroke:#000000;" x="405.62596" xlink:href="#mbf0078aa22" y="249.261754"/>
     <use style="stroke:#000000;" x="454.233194" xlink:href="#mbf0078aa22" y="246.928549"/>
     <use style="stroke:#000000;" x="502.840428" xlink:href="#mbf0078aa22" y="324.23579"/>
     <use style="stroke:#000000;" x="551.447662" xlink:href="#mbf0078aa22" y="361.293884"/>
     <use style="stroke:#000000;" x="600.054896" xlink:href="#mbf0078aa22" y="326.937957"/>
     <use style="stroke:#000000;" x="648.66213" xlink:href="#mbf0078aa22" y="389.723935"/>
     <use style="stroke:#000000;" x="697.269364" xlink:href="#mbf0078aa22" y="396.024234"/>
     <use style="stroke:#000000;" x="745.876598" xlink:href="#mbf0078aa22" y="404.95299"/>
     <use style="stroke:#000000;" x="794.483831" xlink:href="#mbf0078aa22" y="383.041671"/>
     <use style="stroke:#000000;" x="843.091065" xlink:href="#mbf0078aa22" y="399.234862"/>
    </g>
   </g>
   <g id="patch_78">
    <path d="M 90.084 464.32 
L 90.084 19.44 
" style="fill:none;stroke:#000000;stroke-linecap:square;stroke-linejoin:miter;stroke-width:1.875;"/>
   </g>
   <g id="patch_79">
    <path d="M 883.192033 464.32 
L 883.192033 19.44 
" style="fill:none;stroke:#000000;stroke-linecap:square;stroke-linejoin:miter;stroke-width:1.875;"/>
   </g>
   <g id="patch_80">
    <path d="M 90.084 464.32 
L 883.192033 464.32 
" style="fill:none;stroke:#000000;stroke-linecap:square;stroke-linejoin:miter;stroke-width:1.875;"/>
   </g>
   <g id="patch_81">
    <path d="M 90.084 19.44 
L 883.192033 19.44 
" style="fill:none;stroke:#000000;stroke-linecap:square;stroke-linejoin:miter;stroke-width:1.875;"/>
   </g>
   <g id="legend_1">
    <g id="patch_82">
     <path d="M 905.973114 195.961016 
L 938.973114 195.961016 
L 938.973114 184.411016 
L 905.973114 184.411016 
z
" style="fill:#e15759;"/>
    </g>
    <g id="text_25">
     <!-- $D^2 (\alpha=0)$ -->
     <defs>
      <path d="M 16.890625 72.90625 
L 38.09375 72.90625 
Q 54.984375 72.90625 63.59375 65.75 
Q 72.21875 58.59375 72.21875 44.484375 
Q 72.21875 35.15625 68.9375 26.53125 
Q 65.671875 17.921875 59.90625 12.015625 
Q 54.109375 5.953125 45.171875 2.96875 
Q 36.234375 0 24.03125 0 
L 2.6875 0 
z
M 25.203125 64.796875 
L 14.203125 8.109375 
L 27.09375 8.109375 
Q 43.65625 8.109375 52.734375 17.625 
Q 61.8125 27.15625 61.8125 44.484375 
Q 61.8125 54.984375 55.953125 59.890625 
Q 50.09375 64.796875 37.59375 64.796875 
z
" id="DejaVuSans-Oblique-68"/>
      <path d="M 40.921875 25.4375 
L 40.96875 36.71875 
Q 41.015625 48.25 32.328125 48.296875 
Q 25.828125 48.34375 21.78125 42.921875 
Q 16.703125 36.234375 14.984375 27.296875 
Q 12.890625 16.546875 15.53125 11.421875 
Q 18.265625 6.203125 24.171875 6.203125 
Q 30.71875 6.203125 36.234375 16.609375 
z
M 33.84375 55.90625 
Q 49.078125 56.15625 48.875 40.375 
Q 48.875 40.375 56.5 54.6875 
L 64.5 54.6875 
L 48.734375 25.046875 
L 48.578125 14.359375 
Q 48.578125 11.96875 49.90625 9.96875 
Q 51.421875 7.625 52.984375 7.625 
L 57.328125 7.625 
L 55.859375 0 
L 50.4375 0 
Q 45.84375 0 42.53125 4.109375 
Q 40.96875 6.15625 40.921875 10.453125 
Q 37.75 5.21875 32.28125 0.78125 
Q 29.6875 -1.265625 22.703125 -1.21875 
Q 11.28125 -1.125 7.125 6.203125 
Q 2.875 13.8125 5.515625 27.296875 
Q 8.34375 41.796875 15.765625 48.390625 
Q 24.125 55.765625 33.84375 55.90625 
z
" id="DejaVuSans-Oblique-945"/>
      <path d="M 10.59375 45.40625 
L 73.1875 45.40625 
L 73.1875 37.203125 
L 10.59375 37.203125 
z
M 10.59375 25.484375 
L 73.1875 25.484375 
L 73.1875 17.1875 
L 10.59375 17.1875 
z
" id="DejaVuSans-61"/>
     </defs>
     <g transform="translate(952.173114 195.961016)scale(0.165 -0.165)">
      <use transform="translate(0 0.765625)" xlink:href="#DejaVuSans-Oblique-68"/>
      <use transform="translate(84.018724 39.046875)scale(0.7)" xlink:href="#DejaVuSans-50"/>
      <use transform="translate(131.289232 0.765625)" xlink:href="#DejaVuSans-40"/>
      <use transform="translate(170.302904 0.765625)" xlink:href="#DejaVuSans-Oblique-945"/>
      <use transform="translate(255.703294 0.765625)" xlink:href="#DejaVuSans-61"/>
      <use transform="translate(358.974779 0.765625)" xlink:href="#DejaVuSans-48"/>
      <use transform="translate(422.597826 0.765625)" xlink:href="#DejaVuSans-41"/>
     </g>
    </g>
    <g id="patch_83">
     <path d="M 905.973114 221.536016 
L 938.973114 221.536016 
L 938.973114 209.986016 
L 905.973114 209.986016 
z
" style="fill:#c66f6f;"/>
    </g>
    <g id="text_26">
     <!-- $D^2 (\alpha=0.25)$ -->
     <g transform="translate(952.173114 221.536016)scale(0.165 -0.165)">
      <use transform="translate(0 0.765625)" xlink:href="#DejaVuSans-Oblique-68"/>
      <use transform="translate(84.018724 39.046875)scale(0.7)" xlink:href="#DejaVuSans-50"/>
      <use transform="translate(131.289232 0.765625)" xlink:href="#DejaVuSans-40"/>
      <use transform="translate(170.302904 0.765625)" xlink:href="#DejaVuSans-Oblique-945"/>
      <use transform="translate(255.703294 0.765625)" xlink:href="#DejaVuSans-61"/>
      <use transform="translate(358.974779 0.765625)" xlink:href="#DejaVuSans-48"/>
      <use transform="translate(422.597826 0.765625)" xlink:href="#DejaVuSans-46"/>
      <use transform="translate(448.884935 0.765625)" xlink:href="#DejaVuSans-50"/>
      <use transform="translate(512.507982 0.765625)" xlink:href="#DejaVuSans-53"/>
      <use transform="translate(576.131029 0.765625)" xlink:href="#DejaVuSans-41"/>
     </g>
    </g>
    <g id="patch_84">
     <path d="M 905.973114 247.111016 
L 938.973114 247.111016 
L 938.973114 235.561016 
L 905.973114 235.561016 
z
" style="fill:#ac8786;"/>
    </g>
    <g id="text_27">
     <!-- $D^2 (\alpha=0.5)$ -->
     <g transform="translate(952.173114 247.111016)scale(0.165 -0.165)">
      <use transform="translate(0 0.765625)" xlink:href="#DejaVuSans-Oblique-68"/>
      <use transform="translate(84.018724 39.046875)scale(0.7)" xlink:href="#DejaVuSans-50"/>
      <use transform="translate(131.289232 0.765625)" xlink:href="#DejaVuSans-40"/>
      <use transform="translate(170.302904 0.765625)" xlink:href="#DejaVuSans-Oblique-945"/>
      <use transform="translate(255.703294 0.765625)" xlink:href="#DejaVuSans-61"/>
      <use transform="translate(358.974779 0.765625)" xlink:href="#DejaVuSans-48"/>
      <use transform="translate(422.597826 0.765625)" xlink:href="#DejaVuSans-46"/>
      <use transform="translate(454.384935 0.765625)" xlink:href="#DejaVuSans-53"/>
      <use transform="translate(518.007982 0.765625)" xlink:href="#DejaVuSans-41"/>
     </g>
    </g>
    <g id="patch_85">
     <path d="M 905.973114 272.686016 
L 938.973114 272.686016 
L 938.973114 261.136016 
L 905.973114 261.136016 
z
" style="fill:#919f9c;"/>
    </g>
    <g id="text_28">
     <!-- $D^2 (\alpha=0.75)$ -->
     <g transform="translate(952.173114 272.686016)scale(0.165 -0.165)">
      <use transform="translate(0 0.765625)" xlink:href="#DejaVuSans-Oblique-68"/>
      <use transform="translate(84.018724 39.046875)scale(0.7)" xlink:href="#DejaVuSans-50"/>
      <use transform="translate(131.289232 0.765625)" xlink:href="#DejaVuSans-40"/>
      <use transform="translate(170.302904 0.765625)" xlink:href="#DejaVuSans-Oblique-945"/>
      <use transform="translate(255.703294 0.765625)" xlink:href="#DejaVuSans-61"/>
      <use transform="translate(358.974779 0.765625)" xlink:href="#DejaVuSans-48"/>
      <use transform="translate(422.597826 0.765625)" xlink:href="#DejaVuSans-46"/>
      <use transform="translate(446.634935 0.765625)" xlink:href="#DejaVuSans-55"/>
      <use transform="translate(510.257982 0.765625)" xlink:href="#DejaVuSans-53"/>
      <use transform="translate(573.881029 0.765625)" xlink:href="#DejaVuSans-41"/>
     </g>
    </g>
    <g id="patch_86">
     <path d="M 905.973114 298.261016 
L 938.973114 298.261016 
L 938.973114 286.711016 
L 905.973114 286.711016 
z
" style="fill:#76b7b2;"/>
    </g>
    <g id="text_29">
     <!-- $D^2 (\alpha=1)$ -->
     <g transform="translate(952.173114 298.261016)scale(0.165 -0.165)">
      <use transform="translate(0 0.765625)" xlink:href="#DejaVuSans-Oblique-68"/>
      <use transform="translate(84.018724 39.046875)scale(0.7)" xlink:href="#DejaVuSans-50"/>
      <use transform="translate(131.289232 0.765625)" xlink:href="#DejaVuSans-40"/>
      <use transform="translate(170.302904 0.765625)" xlink:href="#DejaVuSans-Oblique-945"/>
      <use transform="translate(255.703294 0.765625)" xlink:href="#DejaVuSans-61"/>
      <use transform="translate(358.974779 0.765625)" xlink:href="#DejaVuSans-49"/>
      <use transform="translate(422.597826 0.765625)" xlink:href="#DejaVuSans-41"/>
     </g>
    </g>
   </g>
  </g>
 </g>
 <defs>
  <clipPath id="p750ba96fc7">
   <rect height="444.88" width="793.108033" x="90.084" y="19.44"/>
  </clipPath>
 </defs>
</svg>
