<?xml version="1.0" encoding="utf-8" standalone="no"?>
<!DOCTYPE svg PUBLIC "-//W3C//DTD SVG 1.1//EN"
  "http://www.w3.org/Graphics/SVG/1.1/DTD/svg11.dtd">
<!-- Created with matplotlib (https://matplotlib.org/) -->
<svg height="720pt" version="1.1" viewBox="0 0 1080 720" width="1080pt" xmlns="http://www.w3.org/2000/svg" xmlns:xlink="http://www.w3.org/1999/xlink">
 <defs>
  <style type="text/css">
*{stroke-linecap:butt;stroke-linejoin:round;}
  </style>
 </defs>
 <g id="figure_1">
  <g id="patch_1">
   <path d="M 0 720 
L 1080 720 
L 1080 0 
L 0 0 
z
" style="fill:#ffffff;"/>
  </g>
  <g id="axes_1">
   <g id="patch_2">
    <path d="M 93.27 464.32 
L 883.192033 464.32 
L 883.192033 19.44 
L 93.27 19.44 
z
" style="fill:#ffffff;"/>
   </g>
   <g id="patch_3">
    <path clip-path="url(#p84aeea2bbc)" d="M 129.175547 371.697929 
L 137.244209 371.697929 
L 137.244209 69.630826 
L 129.175547 69.630826 
z
" style="fill:#e15759;"/>
   </g>
   <g id="patch_4">
    <path clip-path="url(#p84aeea2bbc)" d="M 177.58752 371.697929 
L 185.656183 371.697929 
L 185.656183 289.508219 
L 177.58752 289.508219 
z
" style="fill:#e15759;"/>
   </g>
   <g id="patch_5">
    <path clip-path="url(#p84aeea2bbc)" d="M 225.999494 371.697929 
L 234.068156 371.697929 
L 234.068156 247.850918 
L 225.999494 247.850918 
z
" style="fill:#e15759;"/>
   </g>
   <g id="patch_6">
    <path clip-path="url(#p84aeea2bbc)" d="M 274.411467 371.697929 
L 282.48013 371.697929 
L 282.48013 277.111993 
L 274.411467 277.111993 
z
" style="fill:#e15759;"/>
   </g>
   <g id="patch_7">
    <path clip-path="url(#p84aeea2bbc)" d="M 322.823441 371.697929 
L 330.892103 371.697929 
L 330.892103 258.30296 
L 322.823441 258.30296 
z
" style="fill:#e15759;"/>
   </g>
   <g id="patch_8">
    <path clip-path="url(#p84aeea2bbc)" d="M 371.235414 371.697929 
L 379.304076 371.697929 
L 379.304076 169.197573 
L 371.235414 169.197573 
z
" style="fill:#e15759;"/>
   </g>
   <g id="patch_9">
    <path clip-path="url(#p84aeea2bbc)" d="M 419.647388 371.697929 
L 427.71605 371.697929 
L 427.71605 180.94086 
L 419.647388 180.94086 
z
" style="fill:#e15759;"/>
   </g>
   <g id="patch_10">
    <path clip-path="url(#p84aeea2bbc)" d="M 468.059361 371.697929 
L 476.128023 371.697929 
L 476.128023 283.649834 
L 468.059361 283.649834 
z
" style="fill:#e15759;"/>
   </g>
   <g id="patch_11">
    <path clip-path="url(#p84aeea2bbc)" d="M 516.471334 371.697929 
L 524.539997 371.697929 
L 524.539997 302.477949 
L 516.471334 302.477949 
z
" style="fill:#e15759;"/>
   </g>
   <g id="patch_12">
    <path clip-path="url(#p84aeea2bbc)" d="M 564.883308 371.697929 
L 572.95197 371.697929 
L 572.95197 249.0146 
L 564.883308 249.0146 
z
" style="fill:#e15759;"/>
   </g>
   <g id="patch_13">
    <path clip-path="url(#p84aeea2bbc)" d="M 613.295281 371.697929 
L 621.363944 371.697929 
L 621.363944 436.501297 
L 613.295281 436.501297 
z
" style="fill:#e15759;"/>
   </g>
   <g id="patch_14">
    <path clip-path="url(#p84aeea2bbc)" d="M 661.707255 371.697929 
L 669.775917 371.697929 
L 669.775917 326.173158 
L 661.707255 326.173158 
z
" style="fill:#e15759;"/>
   </g>
   <g id="patch_15">
    <path clip-path="url(#p84aeea2bbc)" d="M 710.119228 371.697929 
L 718.18789 371.697929 
L 718.18789 324.851456 
L 710.119228 324.851456 
z
" style="fill:#e15759;"/>
   </g>
   <g id="patch_16">
    <path clip-path="url(#p84aeea2bbc)" d="M 758.531202 371.697929 
L 766.599864 371.697929 
L 766.599864 279.130985 
L 758.531202 279.130985 
z
" style="fill:#e15759;"/>
   </g>
   <g id="patch_17">
    <path clip-path="url(#p84aeea2bbc)" d="M 806.943175 371.697929 
L 815.011837 371.697929 
L 815.011837 377.106146 
L 806.943175 377.106146 
z
" style="fill:#e15759;"/>
   </g>
   <g id="patch_18">
    <path clip-path="url(#p84aeea2bbc)" d="M 137.244209 371.697929 
L 145.312871 371.697929 
L 145.312871 94.863819 
L 137.244209 94.863819 
z
" style="fill:#c66f6f;"/>
   </g>
   <g id="patch_19">
    <path clip-path="url(#p84aeea2bbc)" d="M 185.656183 371.697929 
L 193.724845 371.697929 
L 193.724845 295.435323 
L 185.656183 295.435323 
z
" style="fill:#c66f6f;"/>
   </g>
   <g id="patch_20">
    <path clip-path="url(#p84aeea2bbc)" d="M 234.068156 371.697929 
L 242.136818 371.697929 
L 242.136818 257.854107 
L 234.068156 257.854107 
z
" style="fill:#c66f6f;"/>
   </g>
   <g id="patch_21">
    <path clip-path="url(#p84aeea2bbc)" d="M 282.48013 371.697929 
L 290.548792 371.697929 
L 290.548792 285.377972 
L 282.48013 285.377972 
z
" style="fill:#c66f6f;"/>
   </g>
   <g id="patch_22">
    <path clip-path="url(#p84aeea2bbc)" d="M 330.892103 371.697929 
L 338.960765 371.697929 
L 338.960765 269.264623 
L 330.892103 269.264623 
z
" style="fill:#c66f6f;"/>
   </g>
   <g id="patch_23">
    <path clip-path="url(#p84aeea2bbc)" d="M 379.304076 371.697929 
L 387.372739 371.697929 
L 387.372739 181.96941 
L 379.304076 181.96941 
z
" style="fill:#c66f6f;"/>
   </g>
   <g id="patch_24">
    <path clip-path="url(#p84aeea2bbc)" d="M 427.71605 371.697929 
L 435.784712 371.697929 
L 435.784712 199.881513 
L 427.71605 199.881513 
z
" style="fill:#c66f6f;"/>
   </g>
   <g id="patch_25">
    <path clip-path="url(#p84aeea2bbc)" d="M 476.128023 371.697929 
L 484.196686 371.697929 
L 484.196686 290.533565 
L 476.128023 290.533565 
z
" style="fill:#c66f6f;"/>
   </g>
   <g id="patch_26">
    <path clip-path="url(#p84aeea2bbc)" d="M 524.539997 371.697929 
L 532.608659 371.697929 
L 532.608659 310.830944 
L 524.539997 310.830944 
z
" style="fill:#c66f6f;"/>
   </g>
   <g id="patch_27">
    <path clip-path="url(#p84aeea2bbc)" d="M 572.95197 371.697929 
L 581.020632 371.697929 
L 581.020632 264.881135 
L 572.95197 264.881135 
z
" style="fill:#c66f6f;"/>
   </g>
   <g id="patch_28">
    <path clip-path="url(#p84aeea2bbc)" d="M 621.363944 371.697929 
L 629.432606 371.697929 
L 629.432606 437.205954 
L 621.363944 437.205954 
z
" style="fill:#c66f6f;"/>
   </g>
   <g id="patch_29">
    <path clip-path="url(#p84aeea2bbc)" d="M 669.775917 371.697929 
L 677.844579 371.697929 
L 677.844579 329.416336 
L 669.775917 329.416336 
z
" style="fill:#c66f6f;"/>
   </g>
   <g id="patch_30">
    <path clip-path="url(#p84aeea2bbc)" d="M 718.18789 371.697929 
L 726.256553 371.697929 
L 726.256553 328.807231 
L 718.18789 328.807231 
z
" style="fill:#c66f6f;"/>
   </g>
   <g id="patch_31">
    <path clip-path="url(#p84aeea2bbc)" d="M 766.599864 371.697929 
L 774.668526 371.697929 
L 774.668526 286.945637 
L 766.599864 286.945637 
z
" style="fill:#c66f6f;"/>
   </g>
   <g id="patch_32">
    <path clip-path="url(#p84aeea2bbc)" d="M 815.011837 371.697929 
L 823.0805 371.697929 
L 823.0805 382.599293 
L 815.011837 382.599293 
z
" style="fill:#c66f6f;"/>
   </g>
   <g id="patch_33">
    <path clip-path="url(#p84aeea2bbc)" d="M 145.312871 371.697929 
L 153.381534 371.697929 
L 153.381534 98.484455 
L 145.312871 98.484455 
z
" style="fill:#ac8786;"/>
   </g>
   <g id="patch_34">
    <path clip-path="url(#p84aeea2bbc)" d="M 193.724845 371.697929 
L 201.793507 371.697929 
L 201.793507 296.519308 
L 193.724845 296.519308 
z
" style="fill:#ac8786;"/>
   </g>
   <g id="patch_35">
    <path clip-path="url(#p84aeea2bbc)" d="M 242.136818 371.697929 
L 250.205481 371.697929 
L 250.205481 260.270395 
L 242.136818 260.270395 
z
" style="fill:#ac8786;"/>
   </g>
   <g id="patch_36">
    <path clip-path="url(#p84aeea2bbc)" d="M 290.548792 371.697929 
L 298.617454 371.697929 
L 298.617454 291.472902 
L 290.548792 291.472902 
z
" style="fill:#ac8786;"/>
   </g>
   <g id="patch_37">
    <path clip-path="url(#p84aeea2bbc)" d="M 338.960765 371.697929 
L 347.029427 371.697929 
L 347.029427 276.577205 
L 338.960765 276.577205 
z
" style="fill:#ac8786;"/>
   </g>
   <g id="patch_38">
    <path clip-path="url(#p84aeea2bbc)" d="M 387.372739 371.697929 
L 395.441401 371.697929 
L 395.441401 191.18614 
L 387.372739 191.18614 
z
" style="fill:#ac8786;"/>
   </g>
   <g id="patch_39">
    <path clip-path="url(#p84aeea2bbc)" d="M 435.784712 371.697929 
L 443.853374 371.697929 
L 443.853374 210.851028 
L 435.784712 210.851028 
z
" style="fill:#ac8786;"/>
   </g>
   <g id="patch_40">
    <path clip-path="url(#p84aeea2bbc)" d="M 484.196686 371.697929 
L 492.265348 371.697929 
L 492.265348 297.036018 
L 484.196686 297.036018 
z
" style="fill:#ac8786;"/>
   </g>
   <g id="patch_41">
    <path clip-path="url(#p84aeea2bbc)" d="M 532.608659 371.697929 
L 540.677321 371.697929 
L 540.677321 314.525368 
L 532.608659 314.525368 
z
" style="fill:#ac8786;"/>
   </g>
   <g id="patch_42">
    <path clip-path="url(#p84aeea2bbc)" d="M 581.020632 371.697929 
L 589.089295 371.697929 
L 589.089295 276.676587 
L 581.020632 276.676587 
z
" style="fill:#ac8786;"/>
   </g>
   <g id="patch_43">
    <path clip-path="url(#p84aeea2bbc)" d="M 629.432606 371.697929 
L 637.501268 371.697929 
L 637.501268 436.555991 
L 629.432606 436.555991 
z
" style="fill:#ac8786;"/>
   </g>
   <g id="patch_44">
    <path clip-path="url(#p84aeea2bbc)" d="M 677.844579 371.697929 
L 685.913242 371.697929 
L 685.913242 331.513674 
L 677.844579 331.513674 
z
" style="fill:#ac8786;"/>
   </g>
   <g id="patch_45">
    <path clip-path="url(#p84aeea2bbc)" d="M 726.256553 371.697929 
L 734.325215 371.697929 
L 734.325215 331.146415 
L 726.256553 331.146415 
z
" style="fill:#ac8786;"/>
   </g>
   <g id="patch_46">
    <path clip-path="url(#p84aeea2bbc)" d="M 774.668526 371.697929 
L 782.737188 371.697929 
L 782.737188 294.087995 
L 774.668526 294.087995 
z
" style="fill:#ac8786;"/>
   </g>
   <g id="patch_47">
    <path clip-path="url(#p84aeea2bbc)" d="M 823.0805 371.697929 
L 831.149162 371.697929 
L 831.149162 387.567605 
L 823.0805 387.567605 
z
" style="fill:#ac8786;"/>
   </g>
   <g id="patch_48">
    <path clip-path="url(#p84aeea2bbc)" d="M 153.381534 371.697929 
L 161.450196 371.697929 
L 161.450196 89.043595 
L 153.381534 89.043595 
z
" style="fill:#919f9c;"/>
   </g>
   <g id="patch_49">
    <path clip-path="url(#p84aeea2bbc)" d="M 201.793507 371.697929 
L 209.862169 371.697929 
L 209.862169 296.685474 
L 201.793507 296.685474 
z
" style="fill:#919f9c;"/>
   </g>
   <g id="patch_50">
    <path clip-path="url(#p84aeea2bbc)" d="M 250.205481 371.697929 
L 258.274143 371.697929 
L 258.274143 254.923173 
L 250.205481 254.923173 
z
" style="fill:#919f9c;"/>
   </g>
   <g id="patch_51">
    <path clip-path="url(#p84aeea2bbc)" d="M 298.617454 371.697929 
L 306.686116 371.697929 
L 306.686116 293.98835 
L 298.617454 293.98835 
z
" style="fill:#919f9c;"/>
   </g>
   <g id="patch_52">
    <path clip-path="url(#p84aeea2bbc)" d="M 347.029427 371.697929 
L 355.09809 371.697929 
L 355.09809 279.754622 
L 347.029427 279.754622 
z
" style="fill:#919f9c;"/>
   </g>
   <g id="patch_53">
    <path clip-path="url(#p84aeea2bbc)" d="M 395.441401 371.697929 
L 403.510063 371.697929 
L 403.510063 195.270998 
L 395.441401 195.270998 
z
" style="fill:#919f9c;"/>
   </g>
   <g id="patch_54">
    <path clip-path="url(#p84aeea2bbc)" d="M 443.853374 371.697929 
L 451.922037 371.697929 
L 451.922037 216.412212 
L 443.853374 216.412212 
z
" style="fill:#919f9c;"/>
   </g>
   <g id="patch_55">
    <path clip-path="url(#p84aeea2bbc)" d="M 492.265348 371.697929 
L 500.33401 371.697929 
L 500.33401 301.182719 
L 492.265348 301.182719 
z
" style="fill:#919f9c;"/>
   </g>
   <g id="patch_56">
    <path clip-path="url(#p84aeea2bbc)" d="M 540.677321 371.697929 
L 548.745983 371.697929 
L 548.745983 315.375214 
L 540.677321 315.375214 
z
" style="fill:#919f9c;"/>
   </g>
   <g id="patch_57">
    <path clip-path="url(#p84aeea2bbc)" d="M 589.089295 371.697929 
L 597.157957 371.697929 
L 597.157957 286.76633 
L 589.089295 286.76633 
z
" style="fill:#919f9c;"/>
   </g>
   <g id="patch_58">
    <path clip-path="url(#p84aeea2bbc)" d="M 637.501268 371.697929 
L 645.56993 371.697929 
L 645.56993 434.906921 
L 637.501268 434.906921 
z
" style="fill:#919f9c;"/>
   </g>
   <g id="patch_59">
    <path clip-path="url(#p84aeea2bbc)" d="M 685.913242 371.697929 
L 693.981904 371.697929 
L 693.981904 329.729551 
L 685.913242 329.729551 
z
" style="fill:#919f9c;"/>
   </g>
   <g id="patch_60">
    <path clip-path="url(#p84aeea2bbc)" d="M 734.325215 371.697929 
L 742.393877 371.697929 
L 742.393877 331.204617 
L 734.325215 331.204617 
z
" style="fill:#919f9c;"/>
   </g>
   <g id="patch_61">
    <path clip-path="url(#p84aeea2bbc)" d="M 782.737188 371.697929 
L 790.805851 371.697929 
L 790.805851 296.723204 
L 782.737188 296.723204 
z
" style="fill:#919f9c;"/>
   </g>
   <g id="patch_62">
    <path clip-path="url(#p84aeea2bbc)" d="M 831.149162 371.697929 
L 839.217824 371.697929 
L 839.217824 389.056341 
L 831.149162 389.056341 
z
" style="fill:#919f9c;"/>
   </g>
   <g id="patch_63">
    <path clip-path="url(#p84aeea2bbc)" d="M 161.450196 371.697929 
L 169.518858 371.697929 
L 169.518858 75.494814 
L 161.450196 75.494814 
z
" style="fill:#76b7b2;"/>
   </g>
   <g id="patch_64">
    <path clip-path="url(#p84aeea2bbc)" d="M 209.862169 371.697929 
L 217.930832 371.697929 
L 217.930832 294.251821 
L 209.862169 294.251821 
z
" style="fill:#76b7b2;"/>
   </g>
   <g id="patch_65">
    <path clip-path="url(#p84aeea2bbc)" d="M 258.274143 371.697929 
L 266.342805 371.697929 
L 266.342805 246.015339 
L 258.274143 246.015339 
z
" style="fill:#76b7b2;"/>
   </g>
   <g id="patch_66">
    <path clip-path="url(#p84aeea2bbc)" d="M 306.686116 371.697929 
L 314.754778 371.697929 
L 314.754778 289.540581 
L 306.686116 289.540581 
z
" style="fill:#76b7b2;"/>
   </g>
   <g id="patch_67">
    <path clip-path="url(#p84aeea2bbc)" d="M 355.09809 371.697929 
L 363.166752 371.697929 
L 363.166752 275.808192 
L 355.09809 275.808192 
z
" style="fill:#76b7b2;"/>
   </g>
   <g id="patch_68">
    <path clip-path="url(#p84aeea2bbc)" d="M 403.510063 371.697929 
L 411.578725 371.697929 
L 411.578725 194.127589 
L 403.510063 194.127589 
z
" style="fill:#76b7b2;"/>
   </g>
   <g id="patch_69">
    <path clip-path="url(#p84aeea2bbc)" d="M 451.922037 371.697929 
L 459.990699 371.697929 
L 459.990699 215.379973 
L 451.922037 215.379973 
z
" style="fill:#76b7b2;"/>
   </g>
   <g id="patch_70">
    <path clip-path="url(#p84aeea2bbc)" d="M 500.33401 371.697929 
L 508.402672 371.697929 
L 508.402672 299.672813 
L 500.33401 299.672813 
z
" style="fill:#76b7b2;"/>
   </g>
   <g id="patch_71">
    <path clip-path="url(#p84aeea2bbc)" d="M 548.745983 371.697929 
L 556.814646 371.697929 
L 556.814646 311.424386 
L 548.745983 311.424386 
z
" style="fill:#76b7b2;"/>
   </g>
   <g id="patch_72">
    <path clip-path="url(#p84aeea2bbc)" d="M 597.157957 371.697929 
L 605.226619 371.697929 
L 605.226619 293.688352 
L 597.157957 293.688352 
z
" style="fill:#76b7b2;"/>
   </g>
   <g id="patch_73">
    <path clip-path="url(#p84aeea2bbc)" d="M 645.56993 371.697929 
L 653.638593 371.697929 
L 653.638593 432.776819 
L 645.56993 432.776819 
z
" style="fill:#76b7b2;"/>
   </g>
   <g id="patch_74">
    <path clip-path="url(#p84aeea2bbc)" d="M 693.981904 371.697929 
L 702.050566 371.697929 
L 702.050566 324.40208 
L 693.981904 324.40208 
z
" style="fill:#76b7b2;"/>
   </g>
   <g id="patch_75">
    <path clip-path="url(#p84aeea2bbc)" d="M 742.393877 371.697929 
L 750.462539 371.697929 
L 750.462539 328.100927 
L 742.393877 328.100927 
z
" style="fill:#76b7b2;"/>
   </g>
   <g id="patch_76">
    <path clip-path="url(#p84aeea2bbc)" d="M 790.805851 371.697929 
L 798.874513 371.697929 
L 798.874513 295.696194 
L 790.805851 295.696194 
z
" style="fill:#76b7b2;"/>
   </g>
   <g id="patch_77">
    <path clip-path="url(#p84aeea2bbc)" d="M 839.217824 371.697929 
L 847.286486 371.697929 
L 847.286486 388.478348 
L 839.217824 388.478348 
z
" style="fill:#76b7b2;"/>
   </g>
   <g id="matplotlib.axis_1">
    <g id="xtick_1">
     <g id="line2d_1">
      <defs>
       <path d="M 0 0 
L 0 9 
" id="m085090d285" style="stroke:#000000;stroke-width:1.875;"/>
      </defs>
      <g>
       <use style="stroke:#000000;stroke-width:1.875;" x="149.347203" xlink:href="#m085090d285" y="464.32"/>
      </g>
     </g>
     <g id="text_1">
      <!-- Height (UKBB) -->
      <defs>
       <path d="M 9.8125 72.90625 
L 19.671875 72.90625 
L 19.671875 43.015625 
L 55.515625 43.015625 
L 55.515625 72.90625 
L 65.375 72.90625 
L 65.375 0 
L 55.515625 0 
L 55.515625 34.71875 
L 19.671875 34.71875 
L 19.671875 0 
L 9.8125 0 
z
" id="DejaVuSans-72"/>
       <path d="M 56.203125 29.59375 
L 56.203125 25.203125 
L 14.890625 25.203125 
Q 15.484375 15.921875 20.484375 11.0625 
Q 25.484375 6.203125 34.421875 6.203125 
Q 39.59375 6.203125 44.453125 7.46875 
Q 49.3125 8.734375 54.109375 11.28125 
L 54.109375 2.78125 
Q 49.265625 0.734375 44.1875 -0.34375 
Q 39.109375 -1.421875 33.890625 -1.421875 
Q 20.796875 -1.421875 13.15625 6.1875 
Q 5.515625 13.8125 5.515625 26.8125 
Q 5.515625 40.234375 12.765625 48.109375 
Q 20.015625 56 32.328125 56 
Q 43.359375 56 49.78125 48.890625 
Q 56.203125 41.796875 56.203125 29.59375 
z
M 47.21875 32.234375 
Q 47.125 39.59375 43.09375 43.984375 
Q 39.0625 48.390625 32.421875 48.390625 
Q 24.90625 48.390625 20.390625 44.140625 
Q 15.875 39.890625 15.1875 32.171875 
z
" id="DejaVuSans-101"/>
       <path d="M 9.421875 54.6875 
L 18.40625 54.6875 
L 18.40625 0 
L 9.421875 0 
z
M 9.421875 75.984375 
L 18.40625 75.984375 
L 18.40625 64.59375 
L 9.421875 64.59375 
z
" id="DejaVuSans-105"/>
       <path d="M 45.40625 27.984375 
Q 45.40625 37.75 41.375 43.109375 
Q 37.359375 48.484375 30.078125 48.484375 
Q 22.859375 48.484375 18.828125 43.109375 
Q 14.796875 37.75 14.796875 27.984375 
Q 14.796875 18.265625 18.828125 12.890625 
Q 22.859375 7.515625 30.078125 7.515625 
Q 37.359375 7.515625 41.375 12.890625 
Q 45.40625 18.265625 45.40625 27.984375 
z
M 54.390625 6.78125 
Q 54.390625 -7.171875 48.1875 -13.984375 
Q 42 -20.796875 29.203125 -20.796875 
Q 24.46875 -20.796875 20.265625 -20.09375 
Q 16.0625 -19.390625 12.109375 -17.921875 
L 12.109375 -9.1875 
Q 16.0625 -11.328125 19.921875 -12.34375 
Q 23.78125 -13.375 27.78125 -13.375 
Q 36.625 -13.375 41.015625 -8.765625 
Q 45.40625 -4.15625 45.40625 5.171875 
L 45.40625 9.625 
Q 42.625 4.78125 38.28125 2.390625 
Q 33.9375 0 27.875 0 
Q 17.828125 0 11.671875 7.65625 
Q 5.515625 15.328125 5.515625 27.984375 
Q 5.515625 40.671875 11.671875 48.328125 
Q 17.828125 56 27.875 56 
Q 33.9375 56 38.28125 53.609375 
Q 42.625 51.21875 45.40625 46.390625 
L 45.40625 54.6875 
L 54.390625 54.6875 
z
" id="DejaVuSans-103"/>
       <path d="M 54.890625 33.015625 
L 54.890625 0 
L 45.90625 0 
L 45.90625 32.71875 
Q 45.90625 40.484375 42.875 44.328125 
Q 39.84375 48.1875 33.796875 48.1875 
Q 26.515625 48.1875 22.3125 43.546875 
Q 18.109375 38.921875 18.109375 30.90625 
L 18.109375 0 
L 9.078125 0 
L 9.078125 75.984375 
L 18.109375 75.984375 
L 18.109375 46.1875 
Q 21.34375 51.125 25.703125 53.5625 
Q 30.078125 56 35.796875 56 
Q 45.21875 56 50.046875 50.171875 
Q 54.890625 44.34375 54.890625 33.015625 
z
" id="DejaVuSans-104"/>
       <path d="M 18.3125 70.21875 
L 18.3125 54.6875 
L 36.8125 54.6875 
L 36.8125 47.703125 
L 18.3125 47.703125 
L 18.3125 18.015625 
Q 18.3125 11.328125 20.140625 9.421875 
Q 21.96875 7.515625 27.59375 7.515625 
L 36.8125 7.515625 
L 36.8125 0 
L 27.59375 0 
Q 17.1875 0 13.234375 3.875 
Q 9.28125 7.765625 9.28125 18.015625 
L 9.28125 47.703125 
L 2.6875 47.703125 
L 2.6875 54.6875 
L 9.28125 54.6875 
L 9.28125 70.21875 
z
" id="DejaVuSans-116"/>
       <path id="DejaVuSans-32"/>
       <path d="M 31 75.875 
Q 24.46875 64.65625 21.28125 53.65625 
Q 18.109375 42.671875 18.109375 31.390625 
Q 18.109375 20.125 21.3125 9.0625 
Q 24.515625 -2 31 -13.1875 
L 23.1875 -13.1875 
Q 15.875 -1.703125 12.234375 9.375 
Q 8.59375 20.453125 8.59375 31.390625 
Q 8.59375 42.28125 12.203125 53.3125 
Q 15.828125 64.359375 23.1875 75.875 
z
" id="DejaVuSans-40"/>
       <path d="M 8.6875 72.90625 
L 18.609375 72.90625 
L 18.609375 28.609375 
Q 18.609375 16.890625 22.84375 11.734375 
Q 27.09375 6.59375 36.625 6.59375 
Q 46.09375 6.59375 50.34375 11.734375 
Q 54.59375 16.890625 54.59375 28.609375 
L 54.59375 72.90625 
L 64.5 72.90625 
L 64.5 27.390625 
Q 64.5 13.140625 57.4375 5.859375 
Q 50.390625 -1.421875 36.625 -1.421875 
Q 22.796875 -1.421875 15.734375 5.859375 
Q 8.6875 13.140625 8.6875 27.390625 
z
" id="DejaVuSans-85"/>
       <path d="M 9.8125 72.90625 
L 19.671875 72.90625 
L 19.671875 42.09375 
L 52.390625 72.90625 
L 65.09375 72.90625 
L 28.90625 38.921875 
L 67.671875 0 
L 54.6875 0 
L 19.671875 35.109375 
L 19.671875 0 
L 9.8125 0 
z
" id="DejaVuSans-75"/>
       <path d="M 19.671875 34.8125 
L 19.671875 8.109375 
L 35.5 8.109375 
Q 43.453125 8.109375 47.28125 11.40625 
Q 51.125 14.703125 51.125 21.484375 
Q 51.125 28.328125 47.28125 31.5625 
Q 43.453125 34.8125 35.5 34.8125 
z
M 19.671875 64.796875 
L 19.671875 42.828125 
L 34.28125 42.828125 
Q 41.5 42.828125 45.03125 45.53125 
Q 48.578125 48.25 48.578125 53.8125 
Q 48.578125 59.328125 45.03125 62.0625 
Q 41.5 64.796875 34.28125 64.796875 
z
M 9.8125 72.90625 
L 35.015625 72.90625 
Q 46.296875 72.90625 52.390625 68.21875 
Q 58.5 63.53125 58.5 54.890625 
Q 58.5 48.1875 55.375 44.234375 
Q 52.25 40.28125 46.1875 39.3125 
Q 53.46875 37.75 57.5 32.78125 
Q 61.53125 27.828125 61.53125 20.40625 
Q 61.53125 10.640625 54.890625 5.3125 
Q 48.25 0 35.984375 0 
L 9.8125 0 
z
" id="DejaVuSans-66"/>
       <path d="M 8.015625 75.875 
L 15.828125 75.875 
Q 23.140625 64.359375 26.78125 53.3125 
Q 30.421875 42.28125 30.421875 31.390625 
Q 30.421875 20.453125 26.78125 9.375 
Q 23.140625 -1.703125 15.828125 -13.1875 
L 8.015625 -13.1875 
Q 14.5 -2 17.703125 9.0625 
Q 20.90625 20.125 20.90625 31.390625 
Q 20.90625 42.671875 17.703125 53.65625 
Q 14.5 64.65625 8.015625 75.875 
z
" id="DejaVuSans-41"/>
      </defs>
      <g transform="translate(153.900171 595.021875)rotate(-90)scale(0.165 -0.165)">
       <use xlink:href="#DejaVuSans-72"/>
       <use x="75.195312" xlink:href="#DejaVuSans-101"/>
       <use x="136.71875" xlink:href="#DejaVuSans-105"/>
       <use x="164.501953" xlink:href="#DejaVuSans-103"/>
       <use x="227.978516" xlink:href="#DejaVuSans-104"/>
       <use x="291.357422" xlink:href="#DejaVuSans-116"/>
       <use x="330.566406" xlink:href="#DejaVuSans-32"/>
       <use x="362.353516" xlink:href="#DejaVuSans-40"/>
       <use x="401.367188" xlink:href="#DejaVuSans-85"/>
       <use x="474.560547" xlink:href="#DejaVuSans-75"/>
       <use x="540.136719" xlink:href="#DejaVuSans-66"/>
       <use x="608.740234" xlink:href="#DejaVuSans-66"/>
       <use x="677.34375" xlink:href="#DejaVuSans-41"/>
      </g>
     </g>
    </g>
    <g id="xtick_2">
     <g id="line2d_2">
      <g>
       <use style="stroke:#000000;stroke-width:1.875;" x="197.759176" xlink:href="#m085090d285" y="464.32"/>
      </g>
     </g>
     <g id="text_2">
      <!-- FEV1-FVC Ratio -->
      <defs>
       <path d="M 9.8125 72.90625 
L 51.703125 72.90625 
L 51.703125 64.59375 
L 19.671875 64.59375 
L 19.671875 43.109375 
L 48.578125 43.109375 
L 48.578125 34.8125 
L 19.671875 34.8125 
L 19.671875 0 
L 9.8125 0 
z
" id="DejaVuSans-70"/>
       <path d="M 9.8125 72.90625 
L 55.90625 72.90625 
L 55.90625 64.59375 
L 19.671875 64.59375 
L 19.671875 43.015625 
L 54.390625 43.015625 
L 54.390625 34.71875 
L 19.671875 34.71875 
L 19.671875 8.296875 
L 56.78125 8.296875 
L 56.78125 0 
L 9.8125 0 
z
" id="DejaVuSans-69"/>
       <path d="M 28.609375 0 
L 0.78125 72.90625 
L 11.078125 72.90625 
L 34.1875 11.53125 
L 57.328125 72.90625 
L 67.578125 72.90625 
L 39.796875 0 
z
" id="DejaVuSans-86"/>
       <path d="M 12.40625 8.296875 
L 28.515625 8.296875 
L 28.515625 63.921875 
L 10.984375 60.40625 
L 10.984375 69.390625 
L 28.421875 72.90625 
L 38.28125 72.90625 
L 38.28125 8.296875 
L 54.390625 8.296875 
L 54.390625 0 
L 12.40625 0 
z
" id="DejaVuSans-49"/>
       <path d="M 4.890625 31.390625 
L 31.203125 31.390625 
L 31.203125 23.390625 
L 4.890625 23.390625 
z
" id="DejaVuSans-45"/>
       <path d="M 64.40625 67.28125 
L 64.40625 56.890625 
Q 59.421875 61.53125 53.78125 63.8125 
Q 48.140625 66.109375 41.796875 66.109375 
Q 29.296875 66.109375 22.65625 58.46875 
Q 16.015625 50.828125 16.015625 36.375 
Q 16.015625 21.96875 22.65625 14.328125 
Q 29.296875 6.6875 41.796875 6.6875 
Q 48.140625 6.6875 53.78125 8.984375 
Q 59.421875 11.28125 64.40625 15.921875 
L 64.40625 5.609375 
Q 59.234375 2.09375 53.4375 0.328125 
Q 47.65625 -1.421875 41.21875 -1.421875 
Q 24.65625 -1.421875 15.125 8.703125 
Q 5.609375 18.84375 5.609375 36.375 
Q 5.609375 53.953125 15.125 64.078125 
Q 24.65625 74.21875 41.21875 74.21875 
Q 47.75 74.21875 53.53125 72.484375 
Q 59.328125 70.75 64.40625 67.28125 
z
" id="DejaVuSans-67"/>
       <path d="M 44.390625 34.1875 
Q 47.5625 33.109375 50.5625 29.59375 
Q 53.5625 26.078125 56.59375 19.921875 
L 66.609375 0 
L 56 0 
L 46.6875 18.703125 
Q 43.0625 26.03125 39.671875 28.421875 
Q 36.28125 30.8125 30.421875 30.8125 
L 19.671875 30.8125 
L 19.671875 0 
L 9.8125 0 
L 9.8125 72.90625 
L 32.078125 72.90625 
Q 44.578125 72.90625 50.734375 67.671875 
Q 56.890625 62.453125 56.890625 51.90625 
Q 56.890625 45.015625 53.6875 40.46875 
Q 50.484375 35.9375 44.390625 34.1875 
z
M 19.671875 64.796875 
L 19.671875 38.921875 
L 32.078125 38.921875 
Q 39.203125 38.921875 42.84375 42.21875 
Q 46.484375 45.515625 46.484375 51.90625 
Q 46.484375 58.296875 42.84375 61.546875 
Q 39.203125 64.796875 32.078125 64.796875 
z
" id="DejaVuSans-82"/>
       <path d="M 34.28125 27.484375 
Q 23.390625 27.484375 19.1875 25 
Q 14.984375 22.515625 14.984375 16.5 
Q 14.984375 11.71875 18.140625 8.90625 
Q 21.296875 6.109375 26.703125 6.109375 
Q 34.1875 6.109375 38.703125 11.40625 
Q 43.21875 16.703125 43.21875 25.484375 
L 43.21875 27.484375 
z
M 52.203125 31.203125 
L 52.203125 0 
L 43.21875 0 
L 43.21875 8.296875 
Q 40.140625 3.328125 35.546875 0.953125 
Q 30.953125 -1.421875 24.3125 -1.421875 
Q 15.921875 -1.421875 10.953125 3.296875 
Q 6 8.015625 6 15.921875 
Q 6 25.140625 12.171875 29.828125 
Q 18.359375 34.515625 30.609375 34.515625 
L 43.21875 34.515625 
L 43.21875 35.40625 
Q 43.21875 41.609375 39.140625 45 
Q 35.0625 48.390625 27.6875 48.390625 
Q 23 48.390625 18.546875 47.265625 
Q 14.109375 46.140625 10.015625 43.890625 
L 10.015625 52.203125 
Q 14.9375 54.109375 19.578125 55.046875 
Q 24.21875 56 28.609375 56 
Q 40.484375 56 46.34375 49.84375 
Q 52.203125 43.703125 52.203125 31.203125 
z
" id="DejaVuSans-97"/>
       <path d="M 30.609375 48.390625 
Q 23.390625 48.390625 19.1875 42.75 
Q 14.984375 37.109375 14.984375 27.296875 
Q 14.984375 17.484375 19.15625 11.84375 
Q 23.34375 6.203125 30.609375 6.203125 
Q 37.796875 6.203125 41.984375 11.859375 
Q 46.1875 17.53125 46.1875 27.296875 
Q 46.1875 37.015625 41.984375 42.703125 
Q 37.796875 48.390625 30.609375 48.390625 
z
M 30.609375 56 
Q 42.328125 56 49.015625 48.375 
Q 55.71875 40.765625 55.71875 27.296875 
Q 55.71875 13.875 49.015625 6.21875 
Q 42.328125 -1.421875 30.609375 -1.421875 
Q 18.84375 -1.421875 12.171875 6.21875 
Q 5.515625 13.875 5.515625 27.296875 
Q 5.515625 40.765625 12.171875 48.375 
Q 18.84375 56 30.609375 56 
z
" id="DejaVuSans-111"/>
      </defs>
      <g transform="translate(202.312145 604.370156)rotate(-90)scale(0.165 -0.165)">
       <use xlink:href="#DejaVuSans-70"/>
       <use x="57.519531" xlink:href="#DejaVuSans-69"/>
       <use x="120.703125" xlink:href="#DejaVuSans-86"/>
       <use x="189.111328" xlink:href="#DejaVuSans-49"/>
       <use x="252.734375" xlink:href="#DejaVuSans-45"/>
       <use x="288.818359" xlink:href="#DejaVuSans-70"/>
       <use x="346.337891" xlink:href="#DejaVuSans-86"/>
       <use x="414.746094" xlink:href="#DejaVuSans-67"/>
       <use x="484.570312" xlink:href="#DejaVuSans-32"/>
       <use x="516.357422" xlink:href="#DejaVuSans-82"/>
       <use x="583.589844" xlink:href="#DejaVuSans-97"/>
       <use x="644.869141" xlink:href="#DejaVuSans-116"/>
       <use x="684.078125" xlink:href="#DejaVuSans-105"/>
       <use x="711.861328" xlink:href="#DejaVuSans-111"/>
      </g>
     </g>
    </g>
    <g id="xtick_3">
     <g id="line2d_3">
      <g>
       <use style="stroke:#000000;stroke-width:1.875;" x="246.171149" xlink:href="#m085090d285" y="464.32"/>
      </g>
     </g>
     <g id="text_3">
      <!-- Red Blood Cell Count -->
      <defs>
       <path d="M 45.40625 46.390625 
L 45.40625 75.984375 
L 54.390625 75.984375 
L 54.390625 0 
L 45.40625 0 
L 45.40625 8.203125 
Q 42.578125 3.328125 38.25 0.953125 
Q 33.9375 -1.421875 27.875 -1.421875 
Q 17.96875 -1.421875 11.734375 6.484375 
Q 5.515625 14.40625 5.515625 27.296875 
Q 5.515625 40.1875 11.734375 48.09375 
Q 17.96875 56 27.875 56 
Q 33.9375 56 38.25 53.625 
Q 42.578125 51.265625 45.40625 46.390625 
z
M 14.796875 27.296875 
Q 14.796875 17.390625 18.875 11.75 
Q 22.953125 6.109375 30.078125 6.109375 
Q 37.203125 6.109375 41.296875 11.75 
Q 45.40625 17.390625 45.40625 27.296875 
Q 45.40625 37.203125 41.296875 42.84375 
Q 37.203125 48.484375 30.078125 48.484375 
Q 22.953125 48.484375 18.875 42.84375 
Q 14.796875 37.203125 14.796875 27.296875 
z
" id="DejaVuSans-100"/>
       <path d="M 9.421875 75.984375 
L 18.40625 75.984375 
L 18.40625 0 
L 9.421875 0 
z
" id="DejaVuSans-108"/>
       <path d="M 8.5 21.578125 
L 8.5 54.6875 
L 17.484375 54.6875 
L 17.484375 21.921875 
Q 17.484375 14.15625 20.5 10.265625 
Q 23.53125 6.390625 29.59375 6.390625 
Q 36.859375 6.390625 41.078125 11.03125 
Q 45.3125 15.671875 45.3125 23.6875 
L 45.3125 54.6875 
L 54.296875 54.6875 
L 54.296875 0 
L 45.3125 0 
L 45.3125 8.40625 
Q 42.046875 3.421875 37.71875 1 
Q 33.40625 -1.421875 27.6875 -1.421875 
Q 18.265625 -1.421875 13.375 4.4375 
Q 8.5 10.296875 8.5 21.578125 
z
M 31.109375 56 
z
" id="DejaVuSans-117"/>
       <path d="M 54.890625 33.015625 
L 54.890625 0 
L 45.90625 0 
L 45.90625 32.71875 
Q 45.90625 40.484375 42.875 44.328125 
Q 39.84375 48.1875 33.796875 48.1875 
Q 26.515625 48.1875 22.3125 43.546875 
Q 18.109375 38.921875 18.109375 30.90625 
L 18.109375 0 
L 9.078125 0 
L 9.078125 54.6875 
L 18.109375 54.6875 
L 18.109375 46.1875 
Q 21.34375 51.125 25.703125 53.5625 
Q 30.078125 56 35.796875 56 
Q 45.21875 56 50.046875 50.171875 
Q 54.890625 44.34375 54.890625 33.015625 
z
" id="DejaVuSans-110"/>
      </defs>
      <g transform="translate(250.724118 650.314922)rotate(-90)scale(0.165 -0.165)">
       <use xlink:href="#DejaVuSans-82"/>
       <use x="64.982422" xlink:href="#DejaVuSans-101"/>
       <use x="126.505859" xlink:href="#DejaVuSans-100"/>
       <use x="189.982422" xlink:href="#DejaVuSans-32"/>
       <use x="221.769531" xlink:href="#DejaVuSans-66"/>
       <use x="290.373047" xlink:href="#DejaVuSans-108"/>
       <use x="318.15625" xlink:href="#DejaVuSans-111"/>
       <use x="379.337891" xlink:href="#DejaVuSans-111"/>
       <use x="440.519531" xlink:href="#DejaVuSans-100"/>
       <use x="503.996094" xlink:href="#DejaVuSans-32"/>
       <use x="535.783203" xlink:href="#DejaVuSans-67"/>
       <use x="605.607422" xlink:href="#DejaVuSans-101"/>
       <use x="667.130859" xlink:href="#DejaVuSans-108"/>
       <use x="694.914062" xlink:href="#DejaVuSans-108"/>
       <use x="722.697266" xlink:href="#DejaVuSans-32"/>
       <use x="754.484375" xlink:href="#DejaVuSans-67"/>
       <use x="824.308594" xlink:href="#DejaVuSans-111"/>
       <use x="885.490234" xlink:href="#DejaVuSans-117"/>
       <use x="948.869141" xlink:href="#DejaVuSans-110"/>
       <use x="1012.248047" xlink:href="#DejaVuSans-116"/>
      </g>
     </g>
    </g>
    <g id="xtick_4">
     <g id="line2d_4">
      <g>
       <use style="stroke:#000000;stroke-width:1.875;" x="294.583123" xlink:href="#m085090d285" y="464.32"/>
      </g>
     </g>
     <g id="text_4">
      <!-- Systolic Blood Pressure -->
      <defs>
       <path d="M 53.515625 70.515625 
L 53.515625 60.890625 
Q 47.90625 63.578125 42.921875 64.890625 
Q 37.9375 66.21875 33.296875 66.21875 
Q 25.25 66.21875 20.875 63.09375 
Q 16.5 59.96875 16.5 54.203125 
Q 16.5 49.359375 19.40625 46.890625 
Q 22.3125 44.4375 30.421875 42.921875 
L 36.375 41.703125 
Q 47.40625 39.59375 52.65625 34.296875 
Q 57.90625 29 57.90625 20.125 
Q 57.90625 9.515625 50.796875 4.046875 
Q 43.703125 -1.421875 29.984375 -1.421875 
Q 24.8125 -1.421875 18.96875 -0.25 
Q 13.140625 0.921875 6.890625 3.21875 
L 6.890625 13.375 
Q 12.890625 10.015625 18.65625 8.296875 
Q 24.421875 6.59375 29.984375 6.59375 
Q 38.421875 6.59375 43.015625 9.90625 
Q 47.609375 13.234375 47.609375 19.390625 
Q 47.609375 24.75 44.3125 27.78125 
Q 41.015625 30.8125 33.5 32.328125 
L 27.484375 33.5 
Q 16.453125 35.6875 11.515625 40.375 
Q 6.59375 45.0625 6.59375 53.421875 
Q 6.59375 63.09375 13.40625 68.65625 
Q 20.21875 74.21875 32.171875 74.21875 
Q 37.3125 74.21875 42.625 73.28125 
Q 47.953125 72.359375 53.515625 70.515625 
z
" id="DejaVuSans-83"/>
       <path d="M 32.171875 -5.078125 
Q 28.375 -14.84375 24.75 -17.8125 
Q 21.140625 -20.796875 15.09375 -20.796875 
L 7.90625 -20.796875 
L 7.90625 -13.28125 
L 13.1875 -13.28125 
Q 16.890625 -13.28125 18.9375 -11.515625 
Q 21 -9.765625 23.484375 -3.21875 
L 25.09375 0.875 
L 2.984375 54.6875 
L 12.5 54.6875 
L 29.59375 11.921875 
L 46.6875 54.6875 
L 56.203125 54.6875 
z
" id="DejaVuSans-121"/>
       <path d="M 44.28125 53.078125 
L 44.28125 44.578125 
Q 40.484375 46.53125 36.375 47.5 
Q 32.28125 48.484375 27.875 48.484375 
Q 21.1875 48.484375 17.84375 46.4375 
Q 14.5 44.390625 14.5 40.28125 
Q 14.5 37.15625 16.890625 35.375 
Q 19.28125 33.59375 26.515625 31.984375 
L 29.59375 31.296875 
Q 39.15625 29.25 43.1875 25.515625 
Q 47.21875 21.78125 47.21875 15.09375 
Q 47.21875 7.46875 41.1875 3.015625 
Q 35.15625 -1.421875 24.609375 -1.421875 
Q 20.21875 -1.421875 15.453125 -0.5625 
Q 10.6875 0.296875 5.421875 2 
L 5.421875 11.28125 
Q 10.40625 8.6875 15.234375 7.390625 
Q 20.0625 6.109375 24.8125 6.109375 
Q 31.15625 6.109375 34.5625 8.28125 
Q 37.984375 10.453125 37.984375 14.40625 
Q 37.984375 18.0625 35.515625 20.015625 
Q 33.0625 21.96875 24.703125 23.78125 
L 21.578125 24.515625 
Q 13.234375 26.265625 9.515625 29.90625 
Q 5.8125 33.546875 5.8125 39.890625 
Q 5.8125 47.609375 11.28125 51.796875 
Q 16.75 56 26.8125 56 
Q 31.78125 56 36.171875 55.265625 
Q 40.578125 54.546875 44.28125 53.078125 
z
" id="DejaVuSans-115"/>
       <path d="M 48.78125 52.59375 
L 48.78125 44.1875 
Q 44.96875 46.296875 41.140625 47.34375 
Q 37.3125 48.390625 33.40625 48.390625 
Q 24.65625 48.390625 19.8125 42.84375 
Q 14.984375 37.3125 14.984375 27.296875 
Q 14.984375 17.28125 19.8125 11.734375 
Q 24.65625 6.203125 33.40625 6.203125 
Q 37.3125 6.203125 41.140625 7.25 
Q 44.96875 8.296875 48.78125 10.40625 
L 48.78125 2.09375 
Q 45.015625 0.34375 40.984375 -0.53125 
Q 36.96875 -1.421875 32.421875 -1.421875 
Q 20.0625 -1.421875 12.78125 6.34375 
Q 5.515625 14.109375 5.515625 27.296875 
Q 5.515625 40.671875 12.859375 48.328125 
Q 20.21875 56 33.015625 56 
Q 37.15625 56 41.109375 55.140625 
Q 45.0625 54.296875 48.78125 52.59375 
z
" id="DejaVuSans-99"/>
       <path d="M 19.671875 64.796875 
L 19.671875 37.40625 
L 32.078125 37.40625 
Q 38.96875 37.40625 42.71875 40.96875 
Q 46.484375 44.53125 46.484375 51.125 
Q 46.484375 57.671875 42.71875 61.234375 
Q 38.96875 64.796875 32.078125 64.796875 
z
M 9.8125 72.90625 
L 32.078125 72.90625 
Q 44.34375 72.90625 50.609375 67.359375 
Q 56.890625 61.8125 56.890625 51.125 
Q 56.890625 40.328125 50.609375 34.8125 
Q 44.34375 29.296875 32.078125 29.296875 
L 19.671875 29.296875 
L 19.671875 0 
L 9.8125 0 
z
" id="DejaVuSans-80"/>
       <path d="M 41.109375 46.296875 
Q 39.59375 47.171875 37.8125 47.578125 
Q 36.03125 48 33.890625 48 
Q 26.265625 48 22.1875 43.046875 
Q 18.109375 38.09375 18.109375 28.8125 
L 18.109375 0 
L 9.078125 0 
L 9.078125 54.6875 
L 18.109375 54.6875 
L 18.109375 46.1875 
Q 20.953125 51.171875 25.484375 53.578125 
Q 30.03125 56 36.53125 56 
Q 37.453125 56 38.578125 55.875 
Q 39.703125 55.765625 41.0625 55.515625 
z
" id="DejaVuSans-114"/>
      </defs>
      <g transform="translate(299.136092 667.957031)rotate(-90)scale(0.165 -0.165)">
       <use xlink:href="#DejaVuSans-83"/>
       <use x="63.476562" xlink:href="#DejaVuSans-121"/>
       <use x="122.65625" xlink:href="#DejaVuSans-115"/>
       <use x="174.755859" xlink:href="#DejaVuSans-116"/>
       <use x="213.964844" xlink:href="#DejaVuSans-111"/>
       <use x="275.146484" xlink:href="#DejaVuSans-108"/>
       <use x="302.929688" xlink:href="#DejaVuSans-105"/>
       <use x="330.712891" xlink:href="#DejaVuSans-99"/>
       <use x="385.693359" xlink:href="#DejaVuSans-32"/>
       <use x="417.480469" xlink:href="#DejaVuSans-66"/>
       <use x="486.083984" xlink:href="#DejaVuSans-108"/>
       <use x="513.867188" xlink:href="#DejaVuSans-111"/>
       <use x="575.048828" xlink:href="#DejaVuSans-111"/>
       <use x="636.230469" xlink:href="#DejaVuSans-100"/>
       <use x="699.707031" xlink:href="#DejaVuSans-32"/>
       <use x="731.494141" xlink:href="#DejaVuSans-80"/>
       <use x="790.046875" xlink:href="#DejaVuSans-114"/>
       <use x="828.910156" xlink:href="#DejaVuSans-101"/>
       <use x="890.433594" xlink:href="#DejaVuSans-115"/>
       <use x="942.533203" xlink:href="#DejaVuSans-115"/>
       <use x="994.632812" xlink:href="#DejaVuSans-117"/>
       <use x="1058.011719" xlink:href="#DejaVuSans-114"/>
       <use x="1096.875" xlink:href="#DejaVuSans-101"/>
      </g>
     </g>
    </g>
    <g id="xtick_5">
     <g id="line2d_5">
      <g>
       <use style="stroke:#000000;stroke-width:1.875;" x="342.995096" xlink:href="#m085090d285" y="464.32"/>
      </g>
     </g>
     <g id="text_5">
      <!-- BMI (UKBB) -->
      <defs>
       <path d="M 9.8125 72.90625 
L 24.515625 72.90625 
L 43.109375 23.296875 
L 61.8125 72.90625 
L 76.515625 72.90625 
L 76.515625 0 
L 66.890625 0 
L 66.890625 64.015625 
L 48.09375 14.015625 
L 38.1875 14.015625 
L 19.390625 64.015625 
L 19.390625 0 
L 9.8125 0 
z
" id="DejaVuSans-77"/>
       <path d="M 9.8125 72.90625 
L 19.671875 72.90625 
L 19.671875 0 
L 9.8125 0 
z
" id="DejaVuSans-73"/>
      </defs>
      <g transform="translate(347.548065 570.900937)rotate(-90)scale(0.165 -0.165)">
       <use xlink:href="#DejaVuSans-66"/>
       <use x="68.603516" xlink:href="#DejaVuSans-77"/>
       <use x="154.882812" xlink:href="#DejaVuSans-73"/>
       <use x="184.375" xlink:href="#DejaVuSans-32"/>
       <use x="216.162109" xlink:href="#DejaVuSans-40"/>
       <use x="255.175781" xlink:href="#DejaVuSans-85"/>
       <use x="328.369141" xlink:href="#DejaVuSans-75"/>
       <use x="393.945312" xlink:href="#DejaVuSans-66"/>
       <use x="462.548828" xlink:href="#DejaVuSans-66"/>
       <use x="531.152344" xlink:href="#DejaVuSans-41"/>
      </g>
     </g>
    </g>
    <g id="xtick_6">
     <g id="line2d_6">
      <g>
       <use style="stroke:#000000;stroke-width:1.875;" x="391.40707" xlink:href="#m085090d285" y="464.32"/>
      </g>
     </g>
     <g id="text_6">
      <!-- Platelet Count -->
      <g transform="translate(395.960039 593.534297)rotate(-90)scale(0.165 -0.165)">
       <use xlink:href="#DejaVuSans-80"/>
       <use x="60.302734" xlink:href="#DejaVuSans-108"/>
       <use x="88.085938" xlink:href="#DejaVuSans-97"/>
       <use x="149.365234" xlink:href="#DejaVuSans-116"/>
       <use x="188.574219" xlink:href="#DejaVuSans-101"/>
       <use x="250.097656" xlink:href="#DejaVuSans-108"/>
       <use x="277.880859" xlink:href="#DejaVuSans-101"/>
       <use x="339.404297" xlink:href="#DejaVuSans-116"/>
       <use x="378.613281" xlink:href="#DejaVuSans-32"/>
       <use x="410.400391" xlink:href="#DejaVuSans-67"/>
       <use x="480.224609" xlink:href="#DejaVuSans-111"/>
       <use x="541.40625" xlink:href="#DejaVuSans-117"/>
       <use x="604.785156" xlink:href="#DejaVuSans-110"/>
       <use x="668.164062" xlink:href="#DejaVuSans-116"/>
      </g>
     </g>
    </g>
    <g id="xtick_7">
     <g id="line2d_7">
      <g>
       <use style="stroke:#000000;stroke-width:1.875;" x="439.819043" xlink:href="#m085090d285" y="464.32"/>
      </g>
     </g>
     <g id="text_7">
      <!-- Heel T Score -->
      <defs>
       <path d="M -0.296875 72.90625 
L 61.375 72.90625 
L 61.375 64.59375 
L 35.5 64.59375 
L 35.5 0 
L 25.59375 0 
L 25.59375 64.59375 
L -0.296875 64.59375 
z
" id="DejaVuSans-84"/>
      </defs>
      <g transform="translate(444.372012 580.891172)rotate(-90)scale(0.165 -0.165)">
       <use xlink:href="#DejaVuSans-72"/>
       <use x="75.195312" xlink:href="#DejaVuSans-101"/>
       <use x="136.71875" xlink:href="#DejaVuSans-101"/>
       <use x="198.242188" xlink:href="#DejaVuSans-108"/>
       <use x="226.025391" xlink:href="#DejaVuSans-32"/>
       <use x="257.8125" xlink:href="#DejaVuSans-84"/>
       <use x="318.896484" xlink:href="#DejaVuSans-32"/>
       <use x="350.683594" xlink:href="#DejaVuSans-83"/>
       <use x="414.160156" xlink:href="#DejaVuSans-99"/>
       <use x="469.140625" xlink:href="#DejaVuSans-111"/>
       <use x="530.322266" xlink:href="#DejaVuSans-114"/>
       <use x="569.185547" xlink:href="#DejaVuSans-101"/>
      </g>
     </g>
    </g>
    <g id="xtick_8">
     <g id="line2d_8">
      <g>
       <use style="stroke:#000000;stroke-width:1.875;" x="488.231017" xlink:href="#m085090d285" y="464.32"/>
      </g>
     </g>
     <g id="text_8">
      <!-- Forced Vital Capacity (FVC) -->
      <defs>
       <path d="M 18.109375 8.203125 
L 18.109375 -20.796875 
L 9.078125 -20.796875 
L 9.078125 54.6875 
L 18.109375 54.6875 
L 18.109375 46.390625 
Q 20.953125 51.265625 25.265625 53.625 
Q 29.59375 56 35.59375 56 
Q 45.5625 56 51.78125 48.09375 
Q 58.015625 40.1875 58.015625 27.296875 
Q 58.015625 14.40625 51.78125 6.484375 
Q 45.5625 -1.421875 35.59375 -1.421875 
Q 29.59375 -1.421875 25.265625 0.953125 
Q 20.953125 3.328125 18.109375 8.203125 
z
M 48.6875 27.296875 
Q 48.6875 37.203125 44.609375 42.84375 
Q 40.53125 48.484375 33.40625 48.484375 
Q 26.265625 48.484375 22.1875 42.84375 
Q 18.109375 37.203125 18.109375 27.296875 
Q 18.109375 17.390625 22.1875 11.75 
Q 26.265625 6.109375 33.40625 6.109375 
Q 40.53125 6.109375 44.609375 11.75 
Q 48.6875 17.390625 48.6875 27.296875 
z
" id="DejaVuSans-112"/>
      </defs>
      <g transform="translate(492.783985 701.598984)rotate(-90)scale(0.165 -0.165)">
       <use xlink:href="#DejaVuSans-70"/>
       <use x="53.894531" xlink:href="#DejaVuSans-111"/>
       <use x="115.076172" xlink:href="#DejaVuSans-114"/>
       <use x="153.939453" xlink:href="#DejaVuSans-99"/>
       <use x="208.919922" xlink:href="#DejaVuSans-101"/>
       <use x="270.443359" xlink:href="#DejaVuSans-100"/>
       <use x="333.919922" xlink:href="#DejaVuSans-32"/>
       <use x="365.707031" xlink:href="#DejaVuSans-86"/>
       <use x="431.865234" xlink:href="#DejaVuSans-105"/>
       <use x="459.648438" xlink:href="#DejaVuSans-116"/>
       <use x="498.857422" xlink:href="#DejaVuSans-97"/>
       <use x="560.136719" xlink:href="#DejaVuSans-108"/>
       <use x="587.919922" xlink:href="#DejaVuSans-32"/>
       <use x="619.707031" xlink:href="#DejaVuSans-67"/>
       <use x="689.53125" xlink:href="#DejaVuSans-97"/>
       <use x="750.810547" xlink:href="#DejaVuSans-112"/>
       <use x="814.287109" xlink:href="#DejaVuSans-97"/>
       <use x="875.566406" xlink:href="#DejaVuSans-99"/>
       <use x="930.546875" xlink:href="#DejaVuSans-105"/>
       <use x="958.330078" xlink:href="#DejaVuSans-116"/>
       <use x="997.539062" xlink:href="#DejaVuSans-121"/>
       <use x="1056.71875" xlink:href="#DejaVuSans-32"/>
       <use x="1088.505859" xlink:href="#DejaVuSans-40"/>
       <use x="1127.519531" xlink:href="#DejaVuSans-70"/>
       <use x="1185.039062" xlink:href="#DejaVuSans-86"/>
       <use x="1253.447266" xlink:href="#DejaVuSans-67"/>
       <use x="1323.271484" xlink:href="#DejaVuSans-41"/>
      </g>
     </g>
    </g>
    <g id="xtick_9">
     <g id="line2d_9">
      <g>
       <use style="stroke:#000000;stroke-width:1.875;" x="536.64299" xlink:href="#m085090d285" y="464.32"/>
      </g>
     </g>
     <g id="text_9">
      <!-- Waist-hip Ratio -->
      <defs>
       <path d="M 3.328125 72.90625 
L 13.28125 72.90625 
L 28.609375 11.28125 
L 43.890625 72.90625 
L 54.984375 72.90625 
L 70.3125 11.28125 
L 85.59375 72.90625 
L 95.609375 72.90625 
L 77.296875 0 
L 64.890625 0 
L 49.515625 63.28125 
L 33.984375 0 
L 21.578125 0 
z
" id="DejaVuSans-87"/>
      </defs>
      <g transform="translate(541.195959 600.907734)rotate(-90)scale(0.165 -0.165)">
       <use xlink:href="#DejaVuSans-87"/>
       <use x="92.501953" xlink:href="#DejaVuSans-97"/>
       <use x="153.78125" xlink:href="#DejaVuSans-105"/>
       <use x="181.564453" xlink:href="#DejaVuSans-115"/>
       <use x="233.664062" xlink:href="#DejaVuSans-116"/>
       <use x="272.873047" xlink:href="#DejaVuSans-45"/>
       <use x="308.957031" xlink:href="#DejaVuSans-104"/>
       <use x="372.335938" xlink:href="#DejaVuSans-105"/>
       <use x="400.119141" xlink:href="#DejaVuSans-112"/>
       <use x="463.595703" xlink:href="#DejaVuSans-32"/>
       <use x="495.382812" xlink:href="#DejaVuSans-82"/>
       <use x="562.615234" xlink:href="#DejaVuSans-97"/>
       <use x="623.894531" xlink:href="#DejaVuSans-116"/>
       <use x="663.103516" xlink:href="#DejaVuSans-105"/>
       <use x="690.886719" xlink:href="#DejaVuSans-111"/>
      </g>
     </g>
    </g>
    <g id="xtick_10">
     <g id="line2d_10">
      <g>
       <use style="stroke:#000000;stroke-width:1.875;" x="585.054964" xlink:href="#m085090d285" y="464.32"/>
      </g>
     </g>
     <g id="text_10">
      <!-- White Blood Cell Count -->
      <g transform="translate(589.607932 666.94125)rotate(-90)scale(0.165 -0.165)">
       <use xlink:href="#DejaVuSans-87"/>
       <use x="98.876953" xlink:href="#DejaVuSans-104"/>
       <use x="162.255859" xlink:href="#DejaVuSans-105"/>
       <use x="190.039062" xlink:href="#DejaVuSans-116"/>
       <use x="229.248047" xlink:href="#DejaVuSans-101"/>
       <use x="290.771484" xlink:href="#DejaVuSans-32"/>
       <use x="322.558594" xlink:href="#DejaVuSans-66"/>
       <use x="391.162109" xlink:href="#DejaVuSans-108"/>
       <use x="418.945312" xlink:href="#DejaVuSans-111"/>
       <use x="480.126953" xlink:href="#DejaVuSans-111"/>
       <use x="541.308594" xlink:href="#DejaVuSans-100"/>
       <use x="604.785156" xlink:href="#DejaVuSans-32"/>
       <use x="636.572266" xlink:href="#DejaVuSans-67"/>
       <use x="706.396484" xlink:href="#DejaVuSans-101"/>
       <use x="767.919922" xlink:href="#DejaVuSans-108"/>
       <use x="795.703125" xlink:href="#DejaVuSans-108"/>
       <use x="823.486328" xlink:href="#DejaVuSans-32"/>
       <use x="855.273438" xlink:href="#DejaVuSans-67"/>
       <use x="925.097656" xlink:href="#DejaVuSans-111"/>
       <use x="986.279297" xlink:href="#DejaVuSans-117"/>
       <use x="1049.658203" xlink:href="#DejaVuSans-110"/>
       <use x="1113.037109" xlink:href="#DejaVuSans-116"/>
      </g>
     </g>
    </g>
    <g id="xtick_11">
     <g id="line2d_11">
      <g>
       <use style="stroke:#000000;stroke-width:1.875;" x="633.466937" xlink:href="#m085090d285" y="464.32"/>
      </g>
     </g>
     <g id="text_11">
      <!-- HDL -->
      <defs>
       <path d="M 19.671875 64.796875 
L 19.671875 8.109375 
L 31.59375 8.109375 
Q 46.6875 8.109375 53.6875 14.9375 
Q 60.6875 21.78125 60.6875 36.53125 
Q 60.6875 51.171875 53.6875 57.984375 
Q 46.6875 64.796875 31.59375 64.796875 
z
M 9.8125 72.90625 
L 30.078125 72.90625 
Q 51.265625 72.90625 61.171875 64.09375 
Q 71.09375 55.28125 71.09375 36.53125 
Q 71.09375 17.671875 61.125 8.828125 
Q 51.171875 0 30.078125 0 
L 9.8125 0 
z
" id="DejaVuSans-68"/>
       <path d="M 9.8125 72.90625 
L 19.671875 72.90625 
L 19.671875 8.296875 
L 55.171875 8.296875 
L 55.171875 0 
L 9.8125 0 
z
" id="DejaVuSans-76"/>
      </defs>
      <g transform="translate(638.019906 511.127109)rotate(-90)scale(0.165 -0.165)">
       <use xlink:href="#DejaVuSans-72"/>
       <use x="75.195312" xlink:href="#DejaVuSans-68"/>
       <use x="152.197266" xlink:href="#DejaVuSans-76"/>
      </g>
     </g>
    </g>
    <g id="xtick_12">
     <g id="line2d_12">
      <g>
       <use style="stroke:#000000;stroke-width:1.875;" x="681.87891" xlink:href="#m085090d285" y="464.32"/>
      </g>
     </g>
     <g id="text_12">
      <!-- Neuroticism -->
      <defs>
       <path d="M 9.8125 72.90625 
L 23.09375 72.90625 
L 55.421875 11.921875 
L 55.421875 72.90625 
L 64.984375 72.90625 
L 64.984375 0 
L 51.703125 0 
L 19.390625 60.984375 
L 19.390625 0 
L 9.8125 0 
z
" id="DejaVuSans-78"/>
       <path d="M 52 44.1875 
Q 55.375 50.25 60.0625 53.125 
Q 64.75 56 71.09375 56 
Q 79.640625 56 84.28125 50.015625 
Q 88.921875 44.046875 88.921875 33.015625 
L 88.921875 0 
L 79.890625 0 
L 79.890625 32.71875 
Q 79.890625 40.578125 77.09375 44.375 
Q 74.3125 48.1875 68.609375 48.1875 
Q 61.625 48.1875 57.5625 43.546875 
Q 53.515625 38.921875 53.515625 30.90625 
L 53.515625 0 
L 44.484375 0 
L 44.484375 32.71875 
Q 44.484375 40.625 41.703125 44.40625 
Q 38.921875 48.1875 33.109375 48.1875 
Q 26.21875 48.1875 22.15625 43.53125 
Q 18.109375 38.875 18.109375 30.90625 
L 18.109375 0 
L 9.078125 0 
L 9.078125 54.6875 
L 18.109375 54.6875 
L 18.109375 46.1875 
Q 21.1875 51.21875 25.484375 53.609375 
Q 29.78125 56 35.6875 56 
Q 41.65625 56 45.828125 52.96875 
Q 50 49.953125 52 44.1875 
z
" id="DejaVuSans-109"/>
      </defs>
      <g transform="translate(686.431879 575.657578)rotate(-90)scale(0.165 -0.165)">
       <use xlink:href="#DejaVuSans-78"/>
       <use x="74.804688" xlink:href="#DejaVuSans-101"/>
       <use x="136.328125" xlink:href="#DejaVuSans-117"/>
       <use x="199.707031" xlink:href="#DejaVuSans-114"/>
       <use x="238.570312" xlink:href="#DejaVuSans-111"/>
       <use x="299.751953" xlink:href="#DejaVuSans-116"/>
       <use x="338.960938" xlink:href="#DejaVuSans-105"/>
       <use x="366.744141" xlink:href="#DejaVuSans-99"/>
       <use x="421.724609" xlink:href="#DejaVuSans-105"/>
       <use x="449.507812" xlink:href="#DejaVuSans-115"/>
       <use x="501.607422" xlink:href="#DejaVuSans-109"/>
      </g>
     </g>
    </g>
    <g id="xtick_13">
     <g id="line2d_13">
      <g>
       <use style="stroke:#000000;stroke-width:1.875;" x="730.290884" xlink:href="#m085090d285" y="464.32"/>
      </g>
     </g>
     <g id="text_13">
      <!-- Smoking Status -->
      <defs>
       <path d="M 9.078125 75.984375 
L 18.109375 75.984375 
L 18.109375 31.109375 
L 44.921875 54.6875 
L 56.390625 54.6875 
L 27.390625 29.109375 
L 57.625 0 
L 45.90625 0 
L 18.109375 26.703125 
L 18.109375 0 
L 9.078125 0 
z
" id="DejaVuSans-107"/>
      </defs>
      <g transform="translate(734.843853 606.352734)rotate(-90)scale(0.165 -0.165)">
       <use xlink:href="#DejaVuSans-83"/>
       <use x="63.476562" xlink:href="#DejaVuSans-109"/>
       <use x="160.888672" xlink:href="#DejaVuSans-111"/>
       <use x="222.070312" xlink:href="#DejaVuSans-107"/>
       <use x="279.980469" xlink:href="#DejaVuSans-105"/>
       <use x="307.763672" xlink:href="#DejaVuSans-110"/>
       <use x="371.142578" xlink:href="#DejaVuSans-103"/>
       <use x="434.619141" xlink:href="#DejaVuSans-32"/>
       <use x="466.40625" xlink:href="#DejaVuSans-83"/>
       <use x="529.882812" xlink:href="#DejaVuSans-116"/>
       <use x="569.091797" xlink:href="#DejaVuSans-97"/>
       <use x="630.371094" xlink:href="#DejaVuSans-116"/>
       <use x="669.580078" xlink:href="#DejaVuSans-117"/>
       <use x="732.958984" xlink:href="#DejaVuSans-115"/>
      </g>
     </g>
    </g>
    <g id="xtick_14">
     <g id="line2d_14">
      <g>
       <use style="stroke:#000000;stroke-width:1.875;" x="778.702857" xlink:href="#m085090d285" y="464.32"/>
      </g>
     </g>
     <g id="text_14">
      <!-- College Education -->
      <g transform="translate(783.255826 625.776328)rotate(-90)scale(0.165 -0.165)">
       <use xlink:href="#DejaVuSans-67"/>
       <use x="69.824219" xlink:href="#DejaVuSans-111"/>
       <use x="131.005859" xlink:href="#DejaVuSans-108"/>
       <use x="158.789062" xlink:href="#DejaVuSans-108"/>
       <use x="186.572266" xlink:href="#DejaVuSans-101"/>
       <use x="248.095703" xlink:href="#DejaVuSans-103"/>
       <use x="311.572266" xlink:href="#DejaVuSans-101"/>
       <use x="373.095703" xlink:href="#DejaVuSans-32"/>
       <use x="404.882812" xlink:href="#DejaVuSans-69"/>
       <use x="468.066406" xlink:href="#DejaVuSans-100"/>
       <use x="531.542969" xlink:href="#DejaVuSans-117"/>
       <use x="594.921875" xlink:href="#DejaVuSans-99"/>
       <use x="649.902344" xlink:href="#DejaVuSans-97"/>
       <use x="711.181641" xlink:href="#DejaVuSans-116"/>
       <use x="750.390625" xlink:href="#DejaVuSans-105"/>
       <use x="778.173828" xlink:href="#DejaVuSans-111"/>
       <use x="839.355469" xlink:href="#DejaVuSans-110"/>
      </g>
     </g>
    </g>
    <g id="xtick_15">
     <g id="line2d_15">
      <g>
       <use style="stroke:#000000;stroke-width:1.875;" x="827.114831" xlink:href="#m085090d285" y="464.32"/>
      </g>
     </g>
     <g id="text_15">
      <!-- Years of Education -->
      <defs>
       <path d="M -0.203125 72.90625 
L 10.40625 72.90625 
L 30.609375 42.921875 
L 50.6875 72.90625 
L 61.28125 72.90625 
L 35.5 34.71875 
L 35.5 0 
L 25.59375 0 
L 25.59375 34.71875 
z
" id="DejaVuSans-89"/>
       <path d="M 37.109375 75.984375 
L 37.109375 68.5 
L 28.515625 68.5 
Q 23.6875 68.5 21.796875 66.546875 
Q 19.921875 64.59375 19.921875 59.515625 
L 19.921875 54.6875 
L 34.71875 54.6875 
L 34.71875 47.703125 
L 19.921875 47.703125 
L 19.921875 0 
L 10.890625 0 
L 10.890625 47.703125 
L 2.296875 47.703125 
L 2.296875 54.6875 
L 10.890625 54.6875 
L 10.890625 58.5 
Q 10.890625 67.625 15.140625 71.796875 
Q 19.390625 75.984375 28.609375 75.984375 
z
" id="DejaVuSans-102"/>
      </defs>
      <g transform="translate(831.667799 628.893281)rotate(-90)scale(0.165 -0.165)">
       <use xlink:href="#DejaVuSans-89"/>
       <use x="47.833984" xlink:href="#DejaVuSans-101"/>
       <use x="109.357422" xlink:href="#DejaVuSans-97"/>
       <use x="170.636719" xlink:href="#DejaVuSans-114"/>
       <use x="211.75" xlink:href="#DejaVuSans-115"/>
       <use x="263.849609" xlink:href="#DejaVuSans-32"/>
       <use x="295.636719" xlink:href="#DejaVuSans-111"/>
       <use x="356.818359" xlink:href="#DejaVuSans-102"/>
       <use x="392.023438" xlink:href="#DejaVuSans-32"/>
       <use x="423.810547" xlink:href="#DejaVuSans-69"/>
       <use x="486.994141" xlink:href="#DejaVuSans-100"/>
       <use x="550.470703" xlink:href="#DejaVuSans-117"/>
       <use x="613.849609" xlink:href="#DejaVuSans-99"/>
       <use x="668.830078" xlink:href="#DejaVuSans-97"/>
       <use x="730.109375" xlink:href="#DejaVuSans-116"/>
       <use x="769.318359" xlink:href="#DejaVuSans-105"/>
       <use x="797.101562" xlink:href="#DejaVuSans-111"/>
       <use x="858.283203" xlink:href="#DejaVuSans-110"/>
      </g>
     </g>
    </g>
   </g>
   <g id="matplotlib.axis_2">
    <g id="ytick_1">
     <g id="line2d_16">
      <defs>
       <path d="M 0 0 
L -9 0 
" id="m0a70328e43" style="stroke:#000000;stroke-width:1.875;"/>
      </defs>
      <g>
       <use style="stroke:#000000;stroke-width:1.875;" x="93.27" xlink:href="#m0a70328e43" y="435.499009"/>
      </g>
     </g>
     <g id="text_16">
      <!-- 0.1 -->
      <defs>
       <path d="M 10.59375 35.5 
L 73.1875 35.5 
L 73.1875 27.203125 
L 10.59375 27.203125 
z
" id="DejaVuSans-8722"/>
       <path d="M 31.78125 66.40625 
Q 24.171875 66.40625 20.328125 58.90625 
Q 16.5 51.421875 16.5 36.375 
Q 16.5 21.390625 20.328125 13.890625 
Q 24.171875 6.390625 31.78125 6.390625 
Q 39.453125 6.390625 43.28125 13.890625 
Q 47.125 21.390625 47.125 36.375 
Q 47.125 51.421875 43.28125 58.90625 
Q 39.453125 66.40625 31.78125 66.40625 
z
M 31.78125 74.21875 
Q 44.046875 74.21875 50.515625 64.515625 
Q 56.984375 54.828125 56.984375 36.375 
Q 56.984375 17.96875 50.515625 8.265625 
Q 44.046875 -1.421875 31.78125 -1.421875 
Q 19.53125 -1.421875 13.0625 8.265625 
Q 6.59375 17.96875 6.59375 36.375 
Q 6.59375 54.828125 13.0625 64.515625 
Q 19.53125 74.21875 31.78125 74.21875 
z
" id="DejaVuSans-48"/>
       <path d="M 10.6875 12.40625 
L 21 12.40625 
L 21 0 
L 10.6875 0 
z
" id="DejaVuSans-46"/>
      </defs>
      <g transform="translate(40.703359 441.76772)scale(0.165 -0.165)">
       <use xlink:href="#DejaVuSans-8722"/>
       <use x="83.789062" xlink:href="#DejaVuSans-48"/>
       <use x="147.412109" xlink:href="#DejaVuSans-46"/>
       <use x="179.199219" xlink:href="#DejaVuSans-49"/>
      </g>
     </g>
    </g>
    <g id="ytick_2">
     <g id="line2d_17">
      <g>
       <use style="stroke:#000000;stroke-width:1.875;" x="93.27" xlink:href="#m0a70328e43" y="371.697929"/>
      </g>
     </g>
     <g id="text_17">
      <!-- 0.0 -->
      <g transform="translate(54.529844 377.966639)scale(0.165 -0.165)">
       <use xlink:href="#DejaVuSans-48"/>
       <use x="63.623047" xlink:href="#DejaVuSans-46"/>
       <use x="95.410156" xlink:href="#DejaVuSans-48"/>
      </g>
     </g>
    </g>
    <g id="ytick_3">
     <g id="line2d_18">
      <g>
       <use style="stroke:#000000;stroke-width:1.875;" x="93.27" xlink:href="#m0a70328e43" y="307.896848"/>
      </g>
     </g>
     <g id="text_18">
      <!-- 0.1 -->
      <g transform="translate(54.529844 314.165559)scale(0.165 -0.165)">
       <use xlink:href="#DejaVuSans-48"/>
       <use x="63.623047" xlink:href="#DejaVuSans-46"/>
       <use x="95.410156" xlink:href="#DejaVuSans-49"/>
      </g>
     </g>
    </g>
    <g id="ytick_4">
     <g id="line2d_19">
      <g>
       <use style="stroke:#000000;stroke-width:1.875;" x="93.27" xlink:href="#m0a70328e43" y="244.095767"/>
      </g>
     </g>
     <g id="text_19">
      <!-- 0.2 -->
      <defs>
       <path d="M 19.1875 8.296875 
L 53.609375 8.296875 
L 53.609375 0 
L 7.328125 0 
L 7.328125 8.296875 
Q 12.9375 14.109375 22.625 23.890625 
Q 32.328125 33.6875 34.8125 36.53125 
Q 39.546875 41.84375 41.421875 45.53125 
Q 43.3125 49.21875 43.3125 52.78125 
Q 43.3125 58.59375 39.234375 62.25 
Q 35.15625 65.921875 28.609375 65.921875 
Q 23.96875 65.921875 18.8125 64.3125 
Q 13.671875 62.703125 7.8125 59.421875 
L 7.8125 69.390625 
Q 13.765625 71.78125 18.9375 73 
Q 24.125 74.21875 28.421875 74.21875 
Q 39.75 74.21875 46.484375 68.546875 
Q 53.21875 62.890625 53.21875 53.421875 
Q 53.21875 48.921875 51.53125 44.890625 
Q 49.859375 40.875 45.40625 35.40625 
Q 44.1875 33.984375 37.640625 27.21875 
Q 31.109375 20.453125 19.1875 8.296875 
z
" id="DejaVuSans-50"/>
      </defs>
      <g transform="translate(54.529844 250.364478)scale(0.165 -0.165)">
       <use xlink:href="#DejaVuSans-48"/>
       <use x="63.623047" xlink:href="#DejaVuSans-46"/>
       <use x="95.410156" xlink:href="#DejaVuSans-50"/>
      </g>
     </g>
    </g>
    <g id="ytick_5">
     <g id="line2d_20">
      <g>
       <use style="stroke:#000000;stroke-width:1.875;" x="93.27" xlink:href="#m0a70328e43" y="180.294686"/>
      </g>
     </g>
     <g id="text_20">
      <!-- 0.3 -->
      <defs>
       <path d="M 40.578125 39.3125 
Q 47.65625 37.796875 51.625 33 
Q 55.609375 28.21875 55.609375 21.1875 
Q 55.609375 10.40625 48.1875 4.484375 
Q 40.765625 -1.421875 27.09375 -1.421875 
Q 22.515625 -1.421875 17.65625 -0.515625 
Q 12.796875 0.390625 7.625 2.203125 
L 7.625 11.71875 
Q 11.71875 9.328125 16.59375 8.109375 
Q 21.484375 6.890625 26.8125 6.890625 
Q 36.078125 6.890625 40.9375 10.546875 
Q 45.796875 14.203125 45.796875 21.1875 
Q 45.796875 27.640625 41.28125 31.265625 
Q 36.765625 34.90625 28.71875 34.90625 
L 20.21875 34.90625 
L 20.21875 43.015625 
L 29.109375 43.015625 
Q 36.375 43.015625 40.234375 45.921875 
Q 44.09375 48.828125 44.09375 54.296875 
Q 44.09375 59.90625 40.109375 62.90625 
Q 36.140625 65.921875 28.71875 65.921875 
Q 24.65625 65.921875 20.015625 65.03125 
Q 15.375 64.15625 9.8125 62.3125 
L 9.8125 71.09375 
Q 15.4375 72.65625 20.34375 73.4375 
Q 25.25 74.21875 29.59375 74.21875 
Q 40.828125 74.21875 47.359375 69.109375 
Q 53.90625 64.015625 53.90625 55.328125 
Q 53.90625 49.265625 50.4375 45.09375 
Q 46.96875 40.921875 40.578125 39.3125 
z
" id="DejaVuSans-51"/>
      </defs>
      <g transform="translate(54.529844 186.563397)scale(0.165 -0.165)">
       <use xlink:href="#DejaVuSans-48"/>
       <use x="63.623047" xlink:href="#DejaVuSans-46"/>
       <use x="95.410156" xlink:href="#DejaVuSans-51"/>
      </g>
     </g>
    </g>
    <g id="ytick_6">
     <g id="line2d_21">
      <g>
       <use style="stroke:#000000;stroke-width:1.875;" x="93.27" xlink:href="#m0a70328e43" y="116.493605"/>
      </g>
     </g>
     <g id="text_21">
      <!-- 0.4 -->
      <defs>
       <path d="M 37.796875 64.3125 
L 12.890625 25.390625 
L 37.796875 25.390625 
z
M 35.203125 72.90625 
L 47.609375 72.90625 
L 47.609375 25.390625 
L 58.015625 25.390625 
L 58.015625 17.1875 
L 47.609375 17.1875 
L 47.609375 0 
L 37.796875 0 
L 37.796875 17.1875 
L 4.890625 17.1875 
L 4.890625 26.703125 
z
" id="DejaVuSans-52"/>
      </defs>
      <g transform="translate(54.529844 122.762316)scale(0.165 -0.165)">
       <use xlink:href="#DejaVuSans-48"/>
       <use x="63.623047" xlink:href="#DejaVuSans-46"/>
       <use x="95.410156" xlink:href="#DejaVuSans-52"/>
      </g>
     </g>
    </g>
    <g id="ytick_7">
     <g id="line2d_22">
      <g>
       <use style="stroke:#000000;stroke-width:1.875;" x="93.27" xlink:href="#m0a70328e43" y="52.692525"/>
      </g>
     </g>
     <g id="text_22">
      <!-- 0.5 -->
      <defs>
       <path d="M 10.796875 72.90625 
L 49.515625 72.90625 
L 49.515625 64.59375 
L 19.828125 64.59375 
L 19.828125 46.734375 
Q 21.96875 47.46875 24.109375 47.828125 
Q 26.265625 48.1875 28.421875 48.1875 
Q 40.625 48.1875 47.75 41.5 
Q 54.890625 34.8125 54.890625 23.390625 
Q 54.890625 11.625 47.5625 5.09375 
Q 40.234375 -1.421875 26.90625 -1.421875 
Q 22.3125 -1.421875 17.546875 -0.640625 
Q 12.796875 0.140625 7.71875 1.703125 
L 7.71875 11.625 
Q 12.109375 9.234375 16.796875 8.0625 
Q 21.484375 6.890625 26.703125 6.890625 
Q 35.15625 6.890625 40.078125 11.328125 
Q 45.015625 15.765625 45.015625 23.390625 
Q 45.015625 31 40.078125 35.4375 
Q 35.15625 39.890625 26.703125 39.890625 
Q 22.75 39.890625 18.8125 39.015625 
Q 14.890625 38.140625 10.796875 36.28125 
z
" id="DejaVuSans-53"/>
      </defs>
      <g transform="translate(54.529844 58.961236)scale(0.165 -0.165)">
       <use xlink:href="#DejaVuSans-48"/>
       <use x="63.623047" xlink:href="#DejaVuSans-46"/>
       <use x="95.410156" xlink:href="#DejaVuSans-53"/>
      </g>
     </g>
    </g>
    <g id="text_23">
     <!-- Estimated Confounding (Intercept - 1.0) -->
     <g transform="translate(32.959922 421.228906)rotate(-90)scale(0.18 -0.18)">
      <use xlink:href="#DejaVuSans-69"/>
      <use x="63.183594" xlink:href="#DejaVuSans-115"/>
      <use x="115.283203" xlink:href="#DejaVuSans-116"/>
      <use x="154.492188" xlink:href="#DejaVuSans-105"/>
      <use x="182.275391" xlink:href="#DejaVuSans-109"/>
      <use x="279.6875" xlink:href="#DejaVuSans-97"/>
      <use x="340.966797" xlink:href="#DejaVuSans-116"/>
      <use x="380.175781" xlink:href="#DejaVuSans-101"/>
      <use x="441.699219" xlink:href="#DejaVuSans-100"/>
      <use x="505.175781" xlink:href="#DejaVuSans-32"/>
      <use x="536.962891" xlink:href="#DejaVuSans-67"/>
      <use x="606.787109" xlink:href="#DejaVuSans-111"/>
      <use x="667.96875" xlink:href="#DejaVuSans-110"/>
      <use x="731.347656" xlink:href="#DejaVuSans-102"/>
      <use x="766.552734" xlink:href="#DejaVuSans-111"/>
      <use x="827.734375" xlink:href="#DejaVuSans-117"/>
      <use x="891.113281" xlink:href="#DejaVuSans-110"/>
      <use x="954.492188" xlink:href="#DejaVuSans-100"/>
      <use x="1017.96875" xlink:href="#DejaVuSans-105"/>
      <use x="1045.751953" xlink:href="#DejaVuSans-110"/>
      <use x="1109.130859" xlink:href="#DejaVuSans-103"/>
      <use x="1172.607422" xlink:href="#DejaVuSans-32"/>
      <use x="1204.394531" xlink:href="#DejaVuSans-40"/>
      <use x="1243.408203" xlink:href="#DejaVuSans-73"/>
      <use x="1272.900391" xlink:href="#DejaVuSans-110"/>
      <use x="1336.279297" xlink:href="#DejaVuSans-116"/>
      <use x="1375.488281" xlink:href="#DejaVuSans-101"/>
      <use x="1437.011719" xlink:href="#DejaVuSans-114"/>
      <use x="1475.875" xlink:href="#DejaVuSans-99"/>
      <use x="1530.855469" xlink:href="#DejaVuSans-101"/>
      <use x="1592.378906" xlink:href="#DejaVuSans-112"/>
      <use x="1655.855469" xlink:href="#DejaVuSans-116"/>
      <use x="1695.064453" xlink:href="#DejaVuSans-32"/>
      <use x="1726.851562" xlink:href="#DejaVuSans-45"/>
      <use x="1762.935547" xlink:href="#DejaVuSans-32"/>
      <use x="1794.722656" xlink:href="#DejaVuSans-49"/>
      <use x="1858.345703" xlink:href="#DejaVuSans-46"/>
      <use x="1890.132812" xlink:href="#DejaVuSans-48"/>
      <use x="1953.755859" xlink:href="#DejaVuSans-41"/>
     </g>
    </g>
   </g>
   <g id="LineCollection_1">
    <path clip-path="url(#p84aeea2bbc)" d="M 133.209878 95.014074 
L 133.209878 44.247579 
" style="fill:none;stroke:#000000;"/>
    <path clip-path="url(#p84aeea2bbc)" d="M 181.621852 300.766496 
L 181.621852 278.249942 
" style="fill:none;stroke:#000000;"/>
    <path clip-path="url(#p84aeea2bbc)" d="M 230.033825 266.047601 
L 230.033825 229.654235 
" style="fill:none;stroke:#000000;"/>
    <path clip-path="url(#p84aeea2bbc)" d="M 278.445798 288.989613 
L 278.445798 265.234374 
" style="fill:none;stroke:#000000;"/>
    <path clip-path="url(#p84aeea2bbc)" d="M 326.857772 269.488365 
L 326.857772 247.117555 
" style="fill:none;stroke:#000000;"/>
    <path clip-path="url(#p84aeea2bbc)" d="M 375.269745 196.357064 
L 375.269745 142.038082 
" style="fill:none;stroke:#000000;"/>
    <path clip-path="url(#p84aeea2bbc)" d="M 423.681719 203.746959 
L 423.681719 158.134761 
" style="fill:none;stroke:#000000;"/>
    <path clip-path="url(#p84aeea2bbc)" d="M 472.093692 292.673323 
L 472.093692 274.626345 
" style="fill:none;stroke:#000000;"/>
    <path clip-path="url(#p84aeea2bbc)" d="M 520.505666 313.598937 
L 520.505666 291.356961 
" style="fill:none;stroke:#000000;"/>
    <path clip-path="url(#p84aeea2bbc)" d="M 568.917639 265.999919 
L 568.917639 232.029282 
" style="fill:none;stroke:#000000;"/>
    <path clip-path="url(#p84aeea2bbc)" d="M 617.329612 443.49452 
L 617.329612 429.508074 
" style="fill:none;stroke:#000000;"/>
    <path clip-path="url(#p84aeea2bbc)" d="M 665.741586 333.405146 
L 665.741586 318.941171 
" style="fill:none;stroke:#000000;"/>
    <path clip-path="url(#p84aeea2bbc)" d="M 714.153559 331.848974 
L 714.153559 317.853938 
" style="fill:none;stroke:#000000;"/>
    <path clip-path="url(#p84aeea2bbc)" d="M 762.565533 286.897664 
L 762.565533 271.364305 
" style="fill:none;stroke:#000000;"/>
    <path clip-path="url(#p84aeea2bbc)" d="M 810.977506 383.903198 
L 810.977506 370.309095 
" style="fill:none;stroke:#000000;"/>
   </g>
   <g id="LineCollection_2">
    <path clip-path="url(#p84aeea2bbc)" d="M 141.27854 120.004978 
L 141.27854 69.722659 
" style="fill:none;stroke:#000000;"/>
    <path clip-path="url(#p84aeea2bbc)" d="M 189.690514 305.992076 
L 189.690514 284.878569 
" style="fill:none;stroke:#000000;"/>
    <path clip-path="url(#p84aeea2bbc)" d="M 238.102487 275.294639 
L 238.102487 240.413576 
" style="fill:none;stroke:#000000;"/>
    <path clip-path="url(#p84aeea2bbc)" d="M 286.514461 296.647771 
L 286.514461 274.108174 
" style="fill:none;stroke:#000000;"/>
    <path clip-path="url(#p84aeea2bbc)" d="M 334.926434 279.69615 
L 334.926434 258.833095 
" style="fill:none;stroke:#000000;"/>
    <path clip-path="url(#p84aeea2bbc)" d="M 383.338408 209.244615 
L 383.338408 154.694206 
" style="fill:none;stroke:#000000;"/>
    <path clip-path="url(#p84aeea2bbc)" d="M 431.750381 220.164663 
L 431.750381 179.598362 
" style="fill:none;stroke:#000000;"/>
    <path clip-path="url(#p84aeea2bbc)" d="M 480.162354 299.246235 
L 480.162354 281.820896 
" style="fill:none;stroke:#000000;"/>
    <path clip-path="url(#p84aeea2bbc)" d="M 528.574328 321.468495 
L 528.574328 300.193392 
" style="fill:none;stroke:#000000;"/>
    <path clip-path="url(#p84aeea2bbc)" d="M 576.986301 279.721736 
L 576.986301 250.040535 
" style="fill:none;stroke:#000000;"/>
    <path clip-path="url(#p84aeea2bbc)" d="M 625.398275 444.098182 
L 625.398275 430.313726 
" style="fill:none;stroke:#000000;"/>
    <path clip-path="url(#p84aeea2bbc)" d="M 673.810248 336.456694 
L 673.810248 322.375978 
" style="fill:none;stroke:#000000;"/>
    <path clip-path="url(#p84aeea2bbc)" d="M 722.222222 335.559768 
L 722.222222 322.054694 
" style="fill:none;stroke:#000000;"/>
    <path clip-path="url(#p84aeea2bbc)" d="M 770.634195 294.201771 
L 770.634195 279.689502 
" style="fill:none;stroke:#000000;"/>
    <path clip-path="url(#p84aeea2bbc)" d="M 819.046168 389.106118 
L 819.046168 376.092467 
" style="fill:none;stroke:#000000;"/>
   </g>
   <g id="LineCollection_3">
    <path clip-path="url(#p84aeea2bbc)" d="M 149.347203 125.354357 
L 149.347203 71.614554 
" style="fill:none;stroke:#000000;"/>
    <path clip-path="url(#p84aeea2bbc)" d="M 197.759176 307.077286 
L 197.759176 285.961331 
" style="fill:none;stroke:#000000;"/>
    <path clip-path="url(#p84aeea2bbc)" d="M 246.171149 277.675297 
L 246.171149 242.865493 
" style="fill:none;stroke:#000000;"/>
    <path clip-path="url(#p84aeea2bbc)" d="M 294.583123 302.083992 
L 294.583123 280.861812 
" style="fill:none;stroke:#000000;"/>
    <path clip-path="url(#p84aeea2bbc)" d="M 342.995096 286.492748 
L 342.995096 266.661663 
" style="fill:none;stroke:#000000;"/>
    <path clip-path="url(#p84aeea2bbc)" d="M 391.40707 218.611779 
L 391.40707 163.760501 
" style="fill:none;stroke:#000000;"/>
    <path clip-path="url(#p84aeea2bbc)" d="M 439.819043 231.693338 
L 439.819043 190.008718 
" style="fill:none;stroke:#000000;"/>
    <path clip-path="url(#p84aeea2bbc)" d="M 488.231017 305.432226 
L 488.231017 288.639809 
" style="fill:none;stroke:#000000;"/>
    <path clip-path="url(#p84aeea2bbc)" d="M 536.64299 325.115814 
L 536.64299 303.934923 
" style="fill:none;stroke:#000000;"/>
    <path clip-path="url(#p84aeea2bbc)" d="M 585.054964 290.461354 
L 585.054964 262.89182 
" style="fill:none;stroke:#000000;"/>
    <path clip-path="url(#p84aeea2bbc)" d="M 633.466937 443.427352 
L 633.466937 429.68463 
" style="fill:none;stroke:#000000;"/>
    <path clip-path="url(#p84aeea2bbc)" d="M 681.87891 338.421095 
L 681.87891 324.606252 
" style="fill:none;stroke:#000000;"/>
    <path clip-path="url(#p84aeea2bbc)" d="M 730.290884 337.775099 
L 730.290884 324.51773 
" style="fill:none;stroke:#000000;"/>
    <path clip-path="url(#p84aeea2bbc)" d="M 778.702857 301.07563 
L 778.702857 287.10036 
" style="fill:none;stroke:#000000;"/>
    <path clip-path="url(#p84aeea2bbc)" d="M 827.114831 394.009464 
L 827.114831 381.125746 
" style="fill:none;stroke:#000000;"/>
   </g>
   <g id="LineCollection_4">
    <path clip-path="url(#p84aeea2bbc)" d="M 157.415865 118.900291 
L 157.415865 59.1869 
" style="fill:none;stroke:#000000;"/>
    <path clip-path="url(#p84aeea2bbc)" d="M 205.827838 307.912367 
L 205.827838 285.45858 
" style="fill:none;stroke:#000000;"/>
    <path clip-path="url(#p84aeea2bbc)" d="M 254.239812 273.680525 
L 254.239812 236.165821 
" style="fill:none;stroke:#000000;"/>
    <path clip-path="url(#p84aeea2bbc)" d="M 302.651785 304.594178 
L 302.651785 283.382523 
" style="fill:none;stroke:#000000;"/>
    <path clip-path="url(#p84aeea2bbc)" d="M 351.063759 289.679093 
L 351.063759 269.83015 
" style="fill:none;stroke:#000000;"/>
    <path clip-path="url(#p84aeea2bbc)" d="M 399.475732 222.281709 
L 399.475732 168.260288 
" style="fill:none;stroke:#000000;"/>
    <path clip-path="url(#p84aeea2bbc)" d="M 447.887705 239.832106 
L 447.887705 192.992318 
" style="fill:none;stroke:#000000;"/>
    <path clip-path="url(#p84aeea2bbc)" d="M 496.299679 309.571927 
L 496.299679 292.793512 
" style="fill:none;stroke:#000000;"/>
    <path clip-path="url(#p84aeea2bbc)" d="M 544.711652 326.34323 
L 544.711652 304.407199 
" style="fill:none;stroke:#000000;"/>
    <path clip-path="url(#p84aeea2bbc)" d="M 593.123626 299.606638 
L 593.123626 273.926023 
" style="fill:none;stroke:#000000;"/>
    <path clip-path="url(#p84aeea2bbc)" d="M 641.535599 441.888989 
L 641.535599 427.924853 
" style="fill:none;stroke:#000000;"/>
    <path clip-path="url(#p84aeea2bbc)" d="M 689.947573 336.764629 
L 689.947573 322.694472 
" style="fill:none;stroke:#000000;"/>
    <path clip-path="url(#p84aeea2bbc)" d="M 738.359546 337.777567 
L 738.359546 324.631667 
" style="fill:none;stroke:#000000;"/>
    <path clip-path="url(#p84aeea2bbc)" d="M 786.77152 303.824309 
L 786.77152 289.622099 
" style="fill:none;stroke:#000000;"/>
    <path clip-path="url(#p84aeea2bbc)" d="M 835.183493 395.54229 
L 835.183493 382.570392 
" style="fill:none;stroke:#000000;"/>
   </g>
   <g id="LineCollection_5">
    <path clip-path="url(#p84aeea2bbc)" d="M 165.484527 111.327809 
L 165.484527 39.661818 
" style="fill:none;stroke:#000000;"/>
    <path clip-path="url(#p84aeea2bbc)" d="M 213.8965 307.187489 
L 213.8965 281.316153 
" style="fill:none;stroke:#000000;"/>
    <path clip-path="url(#p84aeea2bbc)" d="M 262.308474 268.061621 
L 262.308474 223.969057 
" style="fill:none;stroke:#000000;"/>
    <path clip-path="url(#p84aeea2bbc)" d="M 310.720447 301.045604 
L 310.720447 278.035558 
" style="fill:none;stroke:#000000;"/>
    <path clip-path="url(#p84aeea2bbc)" d="M 359.132421 286.822372 
L 359.132421 264.794012 
" style="fill:none;stroke:#000000;"/>
    <path clip-path="url(#p84aeea2bbc)" d="M 407.544394 221.345524 
L 407.544394 166.909654 
" style="fill:none;stroke:#000000;"/>
    <path clip-path="url(#p84aeea2bbc)" d="M 455.956368 243.360441 
L 455.956368 187.399505 
" style="fill:none;stroke:#000000;"/>
    <path clip-path="url(#p84aeea2bbc)" d="M 504.368341 308.909331 
L 504.368341 290.436295 
" style="fill:none;stroke:#000000;"/>
    <path clip-path="url(#p84aeea2bbc)" d="M 552.780315 323.707046 
L 552.780315 299.141726 
" style="fill:none;stroke:#000000;"/>
    <path clip-path="url(#p84aeea2bbc)" d="M 601.192288 306.73703 
L 601.192288 280.639673 
" style="fill:none;stroke:#000000;"/>
    <path clip-path="url(#p84aeea2bbc)" d="M 649.604261 440.149702 
L 649.604261 425.403935 
" style="fill:none;stroke:#000000;"/>
    <path clip-path="url(#p84aeea2bbc)" d="M 698.016235 331.620802 
L 698.016235 317.183359 
" style="fill:none;stroke:#000000;"/>
    <path clip-path="url(#p84aeea2bbc)" d="M 746.428208 335.049463 
L 746.428208 321.152391 
" style="fill:none;stroke:#000000;"/>
    <path clip-path="url(#p84aeea2bbc)" d="M 794.840182 303.367953 
L 794.840182 288.024435 
" style="fill:none;stroke:#000000;"/>
    <path clip-path="url(#p84aeea2bbc)" d="M 843.252155 395.241325 
L 843.252155 381.715372 
" style="fill:none;stroke:#000000;"/>
   </g>
   <g id="line2d_23">
    <defs>
     <path d="M 2 0 
L -2 -0 
" id="m2038c1194c" style="stroke:#000000;"/>
    </defs>
    <g clip-path="url(#p84aeea2bbc)">
     <use style="stroke:#000000;" x="133.209878" xlink:href="#m2038c1194c" y="95.014074"/>
     <use style="stroke:#000000;" x="181.621852" xlink:href="#m2038c1194c" y="300.766496"/>
     <use style="stroke:#000000;" x="230.033825" xlink:href="#m2038c1194c" y="266.047601"/>
     <use style="stroke:#000000;" x="278.445798" xlink:href="#m2038c1194c" y="288.989613"/>
     <use style="stroke:#000000;" x="326.857772" xlink:href="#m2038c1194c" y="269.488365"/>
     <use style="stroke:#000000;" x="375.269745" xlink:href="#m2038c1194c" y="196.357064"/>
     <use style="stroke:#000000;" x="423.681719" xlink:href="#m2038c1194c" y="203.746959"/>
     <use style="stroke:#000000;" x="472.093692" xlink:href="#m2038c1194c" y="292.673323"/>
     <use style="stroke:#000000;" x="520.505666" xlink:href="#m2038c1194c" y="313.598937"/>
     <use style="stroke:#000000;" x="568.917639" xlink:href="#m2038c1194c" y="265.999919"/>
     <use style="stroke:#000000;" x="617.329612" xlink:href="#m2038c1194c" y="443.49452"/>
     <use style="stroke:#000000;" x="665.741586" xlink:href="#m2038c1194c" y="333.405146"/>
     <use style="stroke:#000000;" x="714.153559" xlink:href="#m2038c1194c" y="331.848974"/>
     <use style="stroke:#000000;" x="762.565533" xlink:href="#m2038c1194c" y="286.897664"/>
     <use style="stroke:#000000;" x="810.977506" xlink:href="#m2038c1194c" y="383.903198"/>
    </g>
   </g>
   <g id="line2d_24">
    <g clip-path="url(#p84aeea2bbc)">
     <use style="stroke:#000000;" x="133.209878" xlink:href="#m2038c1194c" y="44.247579"/>
     <use style="stroke:#000000;" x="181.621852" xlink:href="#m2038c1194c" y="278.249942"/>
     <use style="stroke:#000000;" x="230.033825" xlink:href="#m2038c1194c" y="229.654235"/>
     <use style="stroke:#000000;" x="278.445798" xlink:href="#m2038c1194c" y="265.234374"/>
     <use style="stroke:#000000;" x="326.857772" xlink:href="#m2038c1194c" y="247.117555"/>
     <use style="stroke:#000000;" x="375.269745" xlink:href="#m2038c1194c" y="142.038082"/>
     <use style="stroke:#000000;" x="423.681719" xlink:href="#m2038c1194c" y="158.134761"/>
     <use style="stroke:#000000;" x="472.093692" xlink:href="#m2038c1194c" y="274.626345"/>
     <use style="stroke:#000000;" x="520.505666" xlink:href="#m2038c1194c" y="291.356961"/>
     <use style="stroke:#000000;" x="568.917639" xlink:href="#m2038c1194c" y="232.029282"/>
     <use style="stroke:#000000;" x="617.329612" xlink:href="#m2038c1194c" y="429.508074"/>
     <use style="stroke:#000000;" x="665.741586" xlink:href="#m2038c1194c" y="318.941171"/>
     <use style="stroke:#000000;" x="714.153559" xlink:href="#m2038c1194c" y="317.853938"/>
     <use style="stroke:#000000;" x="762.565533" xlink:href="#m2038c1194c" y="271.364305"/>
     <use style="stroke:#000000;" x="810.977506" xlink:href="#m2038c1194c" y="370.309095"/>
    </g>
   </g>
   <g id="line2d_25">
    <g clip-path="url(#p84aeea2bbc)">
     <use style="stroke:#000000;" x="141.27854" xlink:href="#m2038c1194c" y="120.004978"/>
     <use style="stroke:#000000;" x="189.690514" xlink:href="#m2038c1194c" y="305.992076"/>
     <use style="stroke:#000000;" x="238.102487" xlink:href="#m2038c1194c" y="275.294639"/>
     <use style="stroke:#000000;" x="286.514461" xlink:href="#m2038c1194c" y="296.647771"/>
     <use style="stroke:#000000;" x="334.926434" xlink:href="#m2038c1194c" y="279.69615"/>
     <use style="stroke:#000000;" x="383.338408" xlink:href="#m2038c1194c" y="209.244615"/>
     <use style="stroke:#000000;" x="431.750381" xlink:href="#m2038c1194c" y="220.164663"/>
     <use style="stroke:#000000;" x="480.162354" xlink:href="#m2038c1194c" y="299.246235"/>
     <use style="stroke:#000000;" x="528.574328" xlink:href="#m2038c1194c" y="321.468495"/>
     <use style="stroke:#000000;" x="576.986301" xlink:href="#m2038c1194c" y="279.721736"/>
     <use style="stroke:#000000;" x="625.398275" xlink:href="#m2038c1194c" y="444.098182"/>
     <use style="stroke:#000000;" x="673.810248" xlink:href="#m2038c1194c" y="336.456694"/>
     <use style="stroke:#000000;" x="722.222222" xlink:href="#m2038c1194c" y="335.559768"/>
     <use style="stroke:#000000;" x="770.634195" xlink:href="#m2038c1194c" y="294.201771"/>
     <use style="stroke:#000000;" x="819.046168" xlink:href="#m2038c1194c" y="389.106118"/>
    </g>
   </g>
   <g id="line2d_26">
    <g clip-path="url(#p84aeea2bbc)">
     <use style="stroke:#000000;" x="141.27854" xlink:href="#m2038c1194c" y="69.722659"/>
     <use style="stroke:#000000;" x="189.690514" xlink:href="#m2038c1194c" y="284.878569"/>
     <use style="stroke:#000000;" x="238.102487" xlink:href="#m2038c1194c" y="240.413576"/>
     <use style="stroke:#000000;" x="286.514461" xlink:href="#m2038c1194c" y="274.108174"/>
     <use style="stroke:#000000;" x="334.926434" xlink:href="#m2038c1194c" y="258.833095"/>
     <use style="stroke:#000000;" x="383.338408" xlink:href="#m2038c1194c" y="154.694206"/>
     <use style="stroke:#000000;" x="431.750381" xlink:href="#m2038c1194c" y="179.598362"/>
     <use style="stroke:#000000;" x="480.162354" xlink:href="#m2038c1194c" y="281.820896"/>
     <use style="stroke:#000000;" x="528.574328" xlink:href="#m2038c1194c" y="300.193392"/>
     <use style="stroke:#000000;" x="576.986301" xlink:href="#m2038c1194c" y="250.040535"/>
     <use style="stroke:#000000;" x="625.398275" xlink:href="#m2038c1194c" y="430.313726"/>
     <use style="stroke:#000000;" x="673.810248" xlink:href="#m2038c1194c" y="322.375978"/>
     <use style="stroke:#000000;" x="722.222222" xlink:href="#m2038c1194c" y="322.054694"/>
     <use style="stroke:#000000;" x="770.634195" xlink:href="#m2038c1194c" y="279.689502"/>
     <use style="stroke:#000000;" x="819.046168" xlink:href="#m2038c1194c" y="376.092467"/>
    </g>
   </g>
   <g id="line2d_27">
    <g clip-path="url(#p84aeea2bbc)">
     <use style="stroke:#000000;" x="149.347203" xlink:href="#m2038c1194c" y="125.354357"/>
     <use style="stroke:#000000;" x="197.759176" xlink:href="#m2038c1194c" y="307.077286"/>
     <use style="stroke:#000000;" x="246.171149" xlink:href="#m2038c1194c" y="277.675297"/>
     <use style="stroke:#000000;" x="294.583123" xlink:href="#m2038c1194c" y="302.083992"/>
     <use style="stroke:#000000;" x="342.995096" xlink:href="#m2038c1194c" y="286.492748"/>
     <use style="stroke:#000000;" x="391.40707" xlink:href="#m2038c1194c" y="218.611779"/>
     <use style="stroke:#000000;" x="439.819043" xlink:href="#m2038c1194c" y="231.693338"/>
     <use style="stroke:#000000;" x="488.231017" xlink:href="#m2038c1194c" y="305.432226"/>
     <use style="stroke:#000000;" x="536.64299" xlink:href="#m2038c1194c" y="325.115814"/>
     <use style="stroke:#000000;" x="585.054964" xlink:href="#m2038c1194c" y="290.461354"/>
     <use style="stroke:#000000;" x="633.466937" xlink:href="#m2038c1194c" y="443.427352"/>
     <use style="stroke:#000000;" x="681.87891" xlink:href="#m2038c1194c" y="338.421095"/>
     <use style="stroke:#000000;" x="730.290884" xlink:href="#m2038c1194c" y="337.775099"/>
     <use style="stroke:#000000;" x="778.702857" xlink:href="#m2038c1194c" y="301.07563"/>
     <use style="stroke:#000000;" x="827.114831" xlink:href="#m2038c1194c" y="394.009464"/>
    </g>
   </g>
   <g id="line2d_28">
    <g clip-path="url(#p84aeea2bbc)">
     <use style="stroke:#000000;" x="149.347203" xlink:href="#m2038c1194c" y="71.614554"/>
     <use style="stroke:#000000;" x="197.759176" xlink:href="#m2038c1194c" y="285.961331"/>
     <use style="stroke:#000000;" x="246.171149" xlink:href="#m2038c1194c" y="242.865493"/>
     <use style="stroke:#000000;" x="294.583123" xlink:href="#m2038c1194c" y="280.861812"/>
     <use style="stroke:#000000;" x="342.995096" xlink:href="#m2038c1194c" y="266.661663"/>
     <use style="stroke:#000000;" x="391.40707" xlink:href="#m2038c1194c" y="163.760501"/>
     <use style="stroke:#000000;" x="439.819043" xlink:href="#m2038c1194c" y="190.008718"/>
     <use style="stroke:#000000;" x="488.231017" xlink:href="#m2038c1194c" y="288.639809"/>
     <use style="stroke:#000000;" x="536.64299" xlink:href="#m2038c1194c" y="303.934923"/>
     <use style="stroke:#000000;" x="585.054964" xlink:href="#m2038c1194c" y="262.89182"/>
     <use style="stroke:#000000;" x="633.466937" xlink:href="#m2038c1194c" y="429.68463"/>
     <use style="stroke:#000000;" x="681.87891" xlink:href="#m2038c1194c" y="324.606252"/>
     <use style="stroke:#000000;" x="730.290884" xlink:href="#m2038c1194c" y="324.51773"/>
     <use style="stroke:#000000;" x="778.702857" xlink:href="#m2038c1194c" y="287.10036"/>
     <use style="stroke:#000000;" x="827.114831" xlink:href="#m2038c1194c" y="381.125746"/>
    </g>
   </g>
   <g id="line2d_29">
    <g clip-path="url(#p84aeea2bbc)">
     <use style="stroke:#000000;" x="157.415865" xlink:href="#m2038c1194c" y="118.900291"/>
     <use style="stroke:#000000;" x="205.827838" xlink:href="#m2038c1194c" y="307.912367"/>
     <use style="stroke:#000000;" x="254.239812" xlink:href="#m2038c1194c" y="273.680525"/>
     <use style="stroke:#000000;" x="302.651785" xlink:href="#m2038c1194c" y="304.594178"/>
     <use style="stroke:#000000;" x="351.063759" xlink:href="#m2038c1194c" y="289.679093"/>
     <use style="stroke:#000000;" x="399.475732" xlink:href="#m2038c1194c" y="222.281709"/>
     <use style="stroke:#000000;" x="447.887705" xlink:href="#m2038c1194c" y="239.832106"/>
     <use style="stroke:#000000;" x="496.299679" xlink:href="#m2038c1194c" y="309.571927"/>
     <use style="stroke:#000000;" x="544.711652" xlink:href="#m2038c1194c" y="326.34323"/>
     <use style="stroke:#000000;" x="593.123626" xlink:href="#m2038c1194c" y="299.606638"/>
     <use style="stroke:#000000;" x="641.535599" xlink:href="#m2038c1194c" y="441.888989"/>
     <use style="stroke:#000000;" x="689.947573" xlink:href="#m2038c1194c" y="336.764629"/>
     <use style="stroke:#000000;" x="738.359546" xlink:href="#m2038c1194c" y="337.777567"/>
     <use style="stroke:#000000;" x="786.77152" xlink:href="#m2038c1194c" y="303.824309"/>
     <use style="stroke:#000000;" x="835.183493" xlink:href="#m2038c1194c" y="395.54229"/>
    </g>
   </g>
   <g id="line2d_30">
    <g clip-path="url(#p84aeea2bbc)">
     <use style="stroke:#000000;" x="157.415865" xlink:href="#m2038c1194c" y="59.1869"/>
     <use style="stroke:#000000;" x="205.827838" xlink:href="#m2038c1194c" y="285.45858"/>
     <use style="stroke:#000000;" x="254.239812" xlink:href="#m2038c1194c" y="236.165821"/>
     <use style="stroke:#000000;" x="302.651785" xlink:href="#m2038c1194c" y="283.382523"/>
     <use style="stroke:#000000;" x="351.063759" xlink:href="#m2038c1194c" y="269.83015"/>
     <use style="stroke:#000000;" x="399.475732" xlink:href="#m2038c1194c" y="168.260288"/>
     <use style="stroke:#000000;" x="447.887705" xlink:href="#m2038c1194c" y="192.992318"/>
     <use style="stroke:#000000;" x="496.299679" xlink:href="#m2038c1194c" y="292.793512"/>
     <use style="stroke:#000000;" x="544.711652" xlink:href="#m2038c1194c" y="304.407199"/>
     <use style="stroke:#000000;" x="593.123626" xlink:href="#m2038c1194c" y="273.926023"/>
     <use style="stroke:#000000;" x="641.535599" xlink:href="#m2038c1194c" y="427.924853"/>
     <use style="stroke:#000000;" x="689.947573" xlink:href="#m2038c1194c" y="322.694472"/>
     <use style="stroke:#000000;" x="738.359546" xlink:href="#m2038c1194c" y="324.631667"/>
     <use style="stroke:#000000;" x="786.77152" xlink:href="#m2038c1194c" y="289.622099"/>
     <use style="stroke:#000000;" x="835.183493" xlink:href="#m2038c1194c" y="382.570392"/>
    </g>
   </g>
   <g id="line2d_31">
    <g clip-path="url(#p84aeea2bbc)">
     <use style="stroke:#000000;" x="165.484527" xlink:href="#m2038c1194c" y="111.327809"/>
     <use style="stroke:#000000;" x="213.8965" xlink:href="#m2038c1194c" y="307.187489"/>
     <use style="stroke:#000000;" x="262.308474" xlink:href="#m2038c1194c" y="268.061621"/>
     <use style="stroke:#000000;" x="310.720447" xlink:href="#m2038c1194c" y="301.045604"/>
     <use style="stroke:#000000;" x="359.132421" xlink:href="#m2038c1194c" y="286.822372"/>
     <use style="stroke:#000000;" x="407.544394" xlink:href="#m2038c1194c" y="221.345524"/>
     <use style="stroke:#000000;" x="455.956368" xlink:href="#m2038c1194c" y="243.360441"/>
     <use style="stroke:#000000;" x="504.368341" xlink:href="#m2038c1194c" y="308.909331"/>
     <use style="stroke:#000000;" x="552.780315" xlink:href="#m2038c1194c" y="323.707046"/>
     <use style="stroke:#000000;" x="601.192288" xlink:href="#m2038c1194c" y="306.73703"/>
     <use style="stroke:#000000;" x="649.604261" xlink:href="#m2038c1194c" y="440.149702"/>
     <use style="stroke:#000000;" x="698.016235" xlink:href="#m2038c1194c" y="331.620802"/>
     <use style="stroke:#000000;" x="746.428208" xlink:href="#m2038c1194c" y="335.049463"/>
     <use style="stroke:#000000;" x="794.840182" xlink:href="#m2038c1194c" y="303.367953"/>
     <use style="stroke:#000000;" x="843.252155" xlink:href="#m2038c1194c" y="395.241325"/>
    </g>
   </g>
   <g id="line2d_32">
    <g clip-path="url(#p84aeea2bbc)">
     <use style="stroke:#000000;" x="165.484527" xlink:href="#m2038c1194c" y="39.661818"/>
     <use style="stroke:#000000;" x="213.8965" xlink:href="#m2038c1194c" y="281.316153"/>
     <use style="stroke:#000000;" x="262.308474" xlink:href="#m2038c1194c" y="223.969057"/>
     <use style="stroke:#000000;" x="310.720447" xlink:href="#m2038c1194c" y="278.035558"/>
     <use style="stroke:#000000;" x="359.132421" xlink:href="#m2038c1194c" y="264.794012"/>
     <use style="stroke:#000000;" x="407.544394" xlink:href="#m2038c1194c" y="166.909654"/>
     <use style="stroke:#000000;" x="455.956368" xlink:href="#m2038c1194c" y="187.399505"/>
     <use style="stroke:#000000;" x="504.368341" xlink:href="#m2038c1194c" y="290.436295"/>
     <use style="stroke:#000000;" x="552.780315" xlink:href="#m2038c1194c" y="299.141726"/>
     <use style="stroke:#000000;" x="601.192288" xlink:href="#m2038c1194c" y="280.639673"/>
     <use style="stroke:#000000;" x="649.604261" xlink:href="#m2038c1194c" y="425.403935"/>
     <use style="stroke:#000000;" x="698.016235" xlink:href="#m2038c1194c" y="317.183359"/>
     <use style="stroke:#000000;" x="746.428208" xlink:href="#m2038c1194c" y="321.152391"/>
     <use style="stroke:#000000;" x="794.840182" xlink:href="#m2038c1194c" y="288.024435"/>
     <use style="stroke:#000000;" x="843.252155" xlink:href="#m2038c1194c" y="381.715372"/>
    </g>
   </g>
   <g id="patch_78">
    <path d="M 93.27 464.32 
L 93.27 19.44 
" style="fill:none;stroke:#000000;stroke-linecap:square;stroke-linejoin:miter;stroke-width:1.875;"/>
   </g>
   <g id="patch_79">
    <path d="M 883.192033 464.32 
L 883.192033 19.44 
" style="fill:none;stroke:#000000;stroke-linecap:square;stroke-linejoin:miter;stroke-width:1.875;"/>
   </g>
   <g id="patch_80">
    <path d="M 93.27 464.32 
L 883.192033 464.32 
" style="fill:none;stroke:#000000;stroke-linecap:square;stroke-linejoin:miter;stroke-width:1.875;"/>
   </g>
   <g id="patch_81">
    <path d="M 93.27 19.44 
L 883.192033 19.44 
" style="fill:none;stroke:#000000;stroke-linecap:square;stroke-linejoin:miter;stroke-width:1.875;"/>
   </g>
   <g id="legend_1">
    <g id="patch_82">
     <path d="M 905.941254 195.961016 
L 938.941254 195.961016 
L 938.941254 184.411016 
L 905.941254 184.411016 
z
" style="fill:#e15759;"/>
    </g>
    <g id="text_24">
     <!-- $D^2 (\alpha=0)$ -->
     <defs>
      <path d="M 16.890625 72.90625 
L 38.09375 72.90625 
Q 54.984375 72.90625 63.59375 65.75 
Q 72.21875 58.59375 72.21875 44.484375 
Q 72.21875 35.15625 68.9375 26.53125 
Q 65.671875 17.921875 59.90625 12.015625 
Q 54.109375 5.953125 45.171875 2.96875 
Q 36.234375 0 24.03125 0 
L 2.6875 0 
z
M 25.203125 64.796875 
L 14.203125 8.109375 
L 27.09375 8.109375 
Q 43.65625 8.109375 52.734375 17.625 
Q 61.8125 27.15625 61.8125 44.484375 
Q 61.8125 54.984375 55.953125 59.890625 
Q 50.09375 64.796875 37.59375 64.796875 
z
" id="DejaVuSans-Oblique-68"/>
      <path d="M 40.921875 25.4375 
L 40.96875 36.71875 
Q 41.015625 48.25 32.328125 48.296875 
Q 25.828125 48.34375 21.78125 42.921875 
Q 16.703125 36.234375 14.984375 27.296875 
Q 12.890625 16.546875 15.53125 11.421875 
Q 18.265625 6.203125 24.171875 6.203125 
Q 30.71875 6.203125 36.234375 16.609375 
z
M 33.84375 55.90625 
Q 49.078125 56.15625 48.875 40.375 
Q 48.875 40.375 56.5 54.6875 
L 64.5 54.6875 
L 48.734375 25.046875 
L 48.578125 14.359375 
Q 48.578125 11.96875 49.90625 9.96875 
Q 51.421875 7.625 52.984375 7.625 
L 57.328125 7.625 
L 55.859375 0 
L 50.4375 0 
Q 45.84375 0 42.53125 4.109375 
Q 40.96875 6.15625 40.921875 10.453125 
Q 37.75 5.21875 32.28125 0.78125 
Q 29.6875 -1.265625 22.703125 -1.21875 
Q 11.28125 -1.125 7.125 6.203125 
Q 2.875 13.8125 5.515625 27.296875 
Q 8.34375 41.796875 15.765625 48.390625 
Q 24.125 55.765625 33.84375 55.90625 
z
" id="DejaVuSans-Oblique-945"/>
      <path d="M 10.59375 45.40625 
L 73.1875 45.40625 
L 73.1875 37.203125 
L 10.59375 37.203125 
z
M 10.59375 25.484375 
L 73.1875 25.484375 
L 73.1875 17.1875 
L 10.59375 17.1875 
z
" id="DejaVuSans-61"/>
     </defs>
     <g transform="translate(952.141254 195.961016)scale(0.165 -0.165)">
      <use transform="translate(0 0.765625)" xlink:href="#DejaVuSans-Oblique-68"/>
      <use transform="translate(84.018724 39.046875)scale(0.7)" xlink:href="#DejaVuSans-50"/>
      <use transform="translate(131.289232 0.765625)" xlink:href="#DejaVuSans-40"/>
      <use transform="translate(170.302904 0.765625)" xlink:href="#DejaVuSans-Oblique-945"/>
      <use transform="translate(255.703294 0.765625)" xlink:href="#DejaVuSans-61"/>
      <use transform="translate(358.974779 0.765625)" xlink:href="#DejaVuSans-48"/>
      <use transform="translate(422.597826 0.765625)" xlink:href="#DejaVuSans-41"/>
     </g>
    </g>
    <g id="patch_83">
     <path d="M 905.941254 221.536016 
L 938.941254 221.536016 
L 938.941254 209.986016 
L 905.941254 209.986016 
z
" style="fill:#c66f6f;"/>
    </g>
    <g id="text_25">
     <!-- $D^2 (\alpha=0.25)$ -->
     <g transform="translate(952.141254 221.536016)scale(0.165 -0.165)">
      <use transform="translate(0 0.765625)" xlink:href="#DejaVuSans-Oblique-68"/>
      <use transform="translate(84.018724 39.046875)scale(0.7)" xlink:href="#DejaVuSans-50"/>
      <use transform="translate(131.289232 0.765625)" xlink:href="#DejaVuSans-40"/>
      <use transform="translate(170.302904 0.765625)" xlink:href="#DejaVuSans-Oblique-945"/>
      <use transform="translate(255.703294 0.765625)" xlink:href="#DejaVuSans-61"/>
      <use transform="translate(358.974779 0.765625)" xlink:href="#DejaVuSans-48"/>
      <use transform="translate(422.597826 0.765625)" xlink:href="#DejaVuSans-46"/>
      <use transform="translate(448.884935 0.765625)" xlink:href="#DejaVuSans-50"/>
      <use transform="translate(512.507982 0.765625)" xlink:href="#DejaVuSans-53"/>
      <use transform="translate(576.131029 0.765625)" xlink:href="#DejaVuSans-41"/>
     </g>
    </g>
    <g id="patch_84">
     <path d="M 905.941254 247.111016 
L 938.941254 247.111016 
L 938.941254 235.561016 
L 905.941254 235.561016 
z
" style="fill:#ac8786;"/>
    </g>
    <g id="text_26">
     <!-- $D^2 (\alpha=0.5)$ -->
     <g transform="translate(952.141254 247.111016)scale(0.165 -0.165)">
      <use transform="translate(0 0.765625)" xlink:href="#DejaVuSans-Oblique-68"/>
      <use transform="translate(84.018724 39.046875)scale(0.7)" xlink:href="#DejaVuSans-50"/>
      <use transform="translate(131.289232 0.765625)" xlink:href="#DejaVuSans-40"/>
      <use transform="translate(170.302904 0.765625)" xlink:href="#DejaVuSans-Oblique-945"/>
      <use transform="translate(255.703294 0.765625)" xlink:href="#DejaVuSans-61"/>
      <use transform="translate(358.974779 0.765625)" xlink:href="#DejaVuSans-48"/>
      <use transform="translate(422.597826 0.765625)" xlink:href="#DejaVuSans-46"/>
      <use transform="translate(454.384935 0.765625)" xlink:href="#DejaVuSans-53"/>
      <use transform="translate(518.007982 0.765625)" xlink:href="#DejaVuSans-41"/>
     </g>
    </g>
    <g id="patch_85">
     <path d="M 905.941254 272.686016 
L 938.941254 272.686016 
L 938.941254 261.136016 
L 905.941254 261.136016 
z
" style="fill:#919f9c;"/>
    </g>
    <g id="text_27">
     <!-- $D^2 (\alpha=0.75)$ -->
     <defs>
      <path d="M 8.203125 72.90625 
L 55.078125 72.90625 
L 55.078125 68.703125 
L 28.609375 0 
L 18.3125 0 
L 43.21875 64.59375 
L 8.203125 64.59375 
z
" id="DejaVuSans-55"/>
     </defs>
     <g transform="translate(952.141254 272.686016)scale(0.165 -0.165)">
      <use transform="translate(0 0.765625)" xlink:href="#DejaVuSans-Oblique-68"/>
      <use transform="translate(84.018724 39.046875)scale(0.7)" xlink:href="#DejaVuSans-50"/>
      <use transform="translate(131.289232 0.765625)" xlink:href="#DejaVuSans-40"/>
      <use transform="translate(170.302904 0.765625)" xlink:href="#DejaVuSans-Oblique-945"/>
      <use transform="translate(255.703294 0.765625)" xlink:href="#DejaVuSans-61"/>
      <use transform="translate(358.974779 0.765625)" xlink:href="#DejaVuSans-48"/>
      <use transform="translate(422.597826 0.765625)" xlink:href="#DejaVuSans-46"/>
      <use transform="translate(446.634935 0.765625)" xlink:href="#DejaVuSans-55"/>
      <use transform="translate(510.257982 0.765625)" xlink:href="#DejaVuSans-53"/>
      <use transform="translate(573.881029 0.765625)" xlink:href="#DejaVuSans-41"/>
     </g>
    </g>
    <g id="patch_86">
     <path d="M 905.941254 298.261016 
L 938.941254 298.261016 
L 938.941254 286.711016 
L 905.941254 286.711016 
z
" style="fill:#76b7b2;"/>
    </g>
    <g id="text_28">
     <!-- $D^2 (\alpha=1)$ -->
     <g transform="translate(952.141254 298.261016)scale(0.165 -0.165)">
      <use transform="translate(0 0.765625)" xlink:href="#DejaVuSans-Oblique-68"/>
      <use transform="translate(84.018724 39.046875)scale(0.7)" xlink:href="#DejaVuSans-50"/>
      <use transform="translate(131.289232 0.765625)" xlink:href="#DejaVuSans-40"/>
      <use transform="translate(170.302904 0.765625)" xlink:href="#DejaVuSans-Oblique-945"/>
      <use transform="translate(255.703294 0.765625)" xlink:href="#DejaVuSans-61"/>
      <use transform="translate(358.974779 0.765625)" xlink:href="#DejaVuSans-49"/>
      <use transform="translate(422.597826 0.765625)" xlink:href="#DejaVuSans-41"/>
     </g>
    </g>
   </g>
  </g>
 </g>
 <defs>
  <clipPath id="p84aeea2bbc">
   <rect height="444.88" width="789.922033" x="93.27" y="19.44"/>
  </clipPath>
 </defs>
</svg>
