<?xml version="1.0" encoding="utf-8" standalone="no"?>
<!DOCTYPE svg PUBLIC "-//W3C//DTD SVG 1.1//EN"
  "http://www.w3.org/Graphics/SVG/1.1/DTD/svg11.dtd">
<!-- Created with matplotlib (https://matplotlib.org/) -->
<svg height="576pt" version="1.1" viewBox="0 0 720 576" width="720pt" xmlns="http://www.w3.org/2000/svg" xmlns:xlink="http://www.w3.org/1999/xlink">
 <defs>
  <style type="text/css">
*{stroke-linecap:butt;stroke-linejoin:round;}
  </style>
 </defs>
 <g id="figure_1">
  <g id="patch_1">
   <path d="M 0 576 
L 720 576 
L 720 0 
L 0 0 
z
" style="fill:#ffffff;"/>
  </g>
  <g id="axes_1">
   <g id="patch_2">
    <path d="M 90 512.64 
L 648 512.64 
L 648 69.12 
L 90 69.12 
z
" style="fill:#ffffff;"/>
   </g>
   <g id="PathCollection_1"/>
   <g id="PathCollection_2"/>
   <g id="PathCollection_3"/>
   <g id="PathCollection_4"/>
   <g id="PathCollection_5"/>
   <g id="matplotlib.axis_1">
    <g id="xtick_1">
     <g id="line2d_1">
      <defs>
       <path d="M 0 0 
L 0 4.8 
" id="mc7eb75c87e" style="stroke:#000000;"/>
      </defs>
      <g>
       <use style="stroke:#000000;" x="90" xlink:href="#mc7eb75c87e" y="512.64"/>
      </g>
     </g>
     <g id="text_1">
      <!-- 0 -->
      <defs>
       <path d="M 31.78125 66.40625 
Q 24.171875 66.40625 20.328125 58.90625 
Q 16.5 51.421875 16.5 36.375 
Q 16.5 21.390625 20.328125 13.890625 
Q 24.171875 6.390625 31.78125 6.390625 
Q 39.453125 6.390625 43.28125 13.890625 
Q 47.125 21.390625 47.125 36.375 
Q 47.125 51.421875 43.28125 58.90625 
Q 39.453125 66.40625 31.78125 66.40625 
z
M 31.78125 74.21875 
Q 44.046875 74.21875 50.515625 64.515625 
Q 56.984375 54.828125 56.984375 36.375 
Q 56.984375 17.96875 50.515625 8.265625 
Q 44.046875 -1.421875 31.78125 -1.421875 
Q 19.53125 -1.421875 13.0625 8.265625 
Q 6.59375 17.96875 6.59375 36.375 
Q 6.59375 54.828125 13.0625 64.515625 
Q 19.53125 74.21875 31.78125 74.21875 
z
" id="DejaVuSans-48"/>
      </defs>
      <g transform="translate(87.2005 527.626625)scale(0.088 -0.088)">
       <use xlink:href="#DejaVuSans-48"/>
      </g>
     </g>
    </g>
    <g id="xtick_2">
     <g id="line2d_2">
      <g>
       <use style="stroke:#000000;" x="157.573986" xlink:href="#mc7eb75c87e" y="512.64"/>
      </g>
     </g>
     <g id="text_2">
      <!-- 25 -->
      <defs>
       <path d="M 19.1875 8.296875 
L 53.609375 8.296875 
L 53.609375 0 
L 7.328125 0 
L 7.328125 8.296875 
Q 12.9375 14.109375 22.625 23.890625 
Q 32.328125 33.6875 34.8125 36.53125 
Q 39.546875 41.84375 41.421875 45.53125 
Q 43.3125 49.21875 43.3125 52.78125 
Q 43.3125 58.59375 39.234375 62.25 
Q 35.15625 65.921875 28.609375 65.921875 
Q 23.96875 65.921875 18.8125 64.3125 
Q 13.671875 62.703125 7.8125 59.421875 
L 7.8125 69.390625 
Q 13.765625 71.78125 18.9375 73 
Q 24.125 74.21875 28.421875 74.21875 
Q 39.75 74.21875 46.484375 68.546875 
Q 53.21875 62.890625 53.21875 53.421875 
Q 53.21875 48.921875 51.53125 44.890625 
Q 49.859375 40.875 45.40625 35.40625 
Q 44.1875 33.984375 37.640625 27.21875 
Q 31.109375 20.453125 19.1875 8.296875 
z
" id="DejaVuSans-50"/>
       <path d="M 10.796875 72.90625 
L 49.515625 72.90625 
L 49.515625 64.59375 
L 19.828125 64.59375 
L 19.828125 46.734375 
Q 21.96875 47.46875 24.109375 47.828125 
Q 26.265625 48.1875 28.421875 48.1875 
Q 40.625 48.1875 47.75 41.5 
Q 54.890625 34.8125 54.890625 23.390625 
Q 54.890625 11.625 47.5625 5.09375 
Q 40.234375 -1.421875 26.90625 -1.421875 
Q 22.3125 -1.421875 17.546875 -0.640625 
Q 12.796875 0.140625 7.71875 1.703125 
L 7.71875 11.625 
Q 12.109375 9.234375 16.796875 8.0625 
Q 21.484375 6.890625 26.703125 6.890625 
Q 35.15625 6.890625 40.078125 11.328125 
Q 45.015625 15.765625 45.015625 23.390625 
Q 45.015625 31 40.078125 35.4375 
Q 35.15625 39.890625 26.703125 39.890625 
Q 22.75 39.890625 18.8125 39.015625 
Q 14.890625 38.140625 10.796875 36.28125 
z
" id="DejaVuSans-53"/>
      </defs>
      <g transform="translate(151.974986 527.626625)scale(0.088 -0.088)">
       <use xlink:href="#DejaVuSans-50"/>
       <use x="63.623047" xlink:href="#DejaVuSans-53"/>
      </g>
     </g>
    </g>
    <g id="xtick_3">
     <g id="line2d_3">
      <g>
       <use style="stroke:#000000;" x="225.147971" xlink:href="#mc7eb75c87e" y="512.64"/>
      </g>
     </g>
     <g id="text_3">
      <!-- 50 -->
      <g transform="translate(219.548971 527.626625)scale(0.088 -0.088)">
       <use xlink:href="#DejaVuSans-53"/>
       <use x="63.623047" xlink:href="#DejaVuSans-48"/>
      </g>
     </g>
    </g>
    <g id="xtick_4">
     <g id="line2d_4">
      <g>
       <use style="stroke:#000000;" x="292.721957" xlink:href="#mc7eb75c87e" y="512.64"/>
      </g>
     </g>
     <g id="text_4">
      <!-- 75 -->
      <defs>
       <path d="M 8.203125 72.90625 
L 55.078125 72.90625 
L 55.078125 68.703125 
L 28.609375 0 
L 18.3125 0 
L 43.21875 64.59375 
L 8.203125 64.59375 
z
" id="DejaVuSans-55"/>
      </defs>
      <g transform="translate(287.122957 527.626625)scale(0.088 -0.088)">
       <use xlink:href="#DejaVuSans-55"/>
       <use x="63.623047" xlink:href="#DejaVuSans-53"/>
      </g>
     </g>
    </g>
    <g id="xtick_5">
     <g id="line2d_5">
      <g>
       <use style="stroke:#000000;" x="360.295942" xlink:href="#mc7eb75c87e" y="512.64"/>
      </g>
     </g>
     <g id="text_5">
      <!-- 100 -->
      <defs>
       <path d="M 12.40625 8.296875 
L 28.515625 8.296875 
L 28.515625 63.921875 
L 10.984375 60.40625 
L 10.984375 69.390625 
L 28.421875 72.90625 
L 38.28125 72.90625 
L 38.28125 8.296875 
L 54.390625 8.296875 
L 54.390625 0 
L 12.40625 0 
z
" id="DejaVuSans-49"/>
      </defs>
      <g transform="translate(351.897442 527.626625)scale(0.088 -0.088)">
       <use xlink:href="#DejaVuSans-49"/>
       <use x="63.623047" xlink:href="#DejaVuSans-48"/>
       <use x="127.246094" xlink:href="#DejaVuSans-48"/>
      </g>
     </g>
    </g>
    <g id="xtick_6">
     <g id="line2d_6">
      <g>
       <use style="stroke:#000000;" x="427.869928" xlink:href="#mc7eb75c87e" y="512.64"/>
      </g>
     </g>
     <g id="text_6">
      <!-- 125 -->
      <g transform="translate(419.471428 527.626625)scale(0.088 -0.088)">
       <use xlink:href="#DejaVuSans-49"/>
       <use x="63.623047" xlink:href="#DejaVuSans-50"/>
       <use x="127.246094" xlink:href="#DejaVuSans-53"/>
      </g>
     </g>
    </g>
    <g id="xtick_7">
     <g id="line2d_7">
      <g>
       <use style="stroke:#000000;" x="495.443913" xlink:href="#mc7eb75c87e" y="512.64"/>
      </g>
     </g>
     <g id="text_7">
      <!-- 150 -->
      <g transform="translate(487.045413 527.626625)scale(0.088 -0.088)">
       <use xlink:href="#DejaVuSans-49"/>
       <use x="63.623047" xlink:href="#DejaVuSans-53"/>
       <use x="127.246094" xlink:href="#DejaVuSans-48"/>
      </g>
     </g>
    </g>
    <g id="xtick_8">
     <g id="line2d_8">
      <g>
       <use style="stroke:#000000;" x="563.017899" xlink:href="#mc7eb75c87e" y="512.64"/>
      </g>
     </g>
     <g id="text_8">
      <!-- 175 -->
      <g transform="translate(554.619399 527.626625)scale(0.088 -0.088)">
       <use xlink:href="#DejaVuSans-49"/>
       <use x="63.623047" xlink:href="#DejaVuSans-55"/>
       <use x="127.246094" xlink:href="#DejaVuSans-53"/>
      </g>
     </g>
    </g>
    <g id="xtick_9">
     <g id="line2d_9">
      <g>
       <use style="stroke:#000000;" x="630.591884" xlink:href="#mc7eb75c87e" y="512.64"/>
      </g>
     </g>
     <g id="text_9">
      <!-- 200 -->
      <g transform="translate(622.193384 527.626625)scale(0.088 -0.088)">
       <use xlink:href="#DejaVuSans-50"/>
       <use x="63.623047" xlink:href="#DejaVuSans-48"/>
       <use x="127.246094" xlink:href="#DejaVuSans-48"/>
      </g>
     </g>
    </g>
    <g id="text_10">
     <!-- LD Score bin -->
     <defs>
      <path d="M 9.8125 72.90625 
L 19.671875 72.90625 
L 19.671875 8.296875 
L 55.171875 8.296875 
L 55.171875 0 
L 9.8125 0 
z
" id="DejaVuSans-76"/>
      <path d="M 19.671875 64.796875 
L 19.671875 8.109375 
L 31.59375 8.109375 
Q 46.6875 8.109375 53.6875 14.9375 
Q 60.6875 21.78125 60.6875 36.53125 
Q 60.6875 51.171875 53.6875 57.984375 
Q 46.6875 64.796875 31.59375 64.796875 
z
M 9.8125 72.90625 
L 30.078125 72.90625 
Q 51.265625 72.90625 61.171875 64.09375 
Q 71.09375 55.28125 71.09375 36.53125 
Q 71.09375 17.671875 61.125 8.828125 
Q 51.171875 0 30.078125 0 
L 9.8125 0 
z
" id="DejaVuSans-68"/>
      <path id="DejaVuSans-32"/>
      <path d="M 53.515625 70.515625 
L 53.515625 60.890625 
Q 47.90625 63.578125 42.921875 64.890625 
Q 37.9375 66.21875 33.296875 66.21875 
Q 25.25 66.21875 20.875 63.09375 
Q 16.5 59.96875 16.5 54.203125 
Q 16.5 49.359375 19.40625 46.890625 
Q 22.3125 44.4375 30.421875 42.921875 
L 36.375 41.703125 
Q 47.40625 39.59375 52.65625 34.296875 
Q 57.90625 29 57.90625 20.125 
Q 57.90625 9.515625 50.796875 4.046875 
Q 43.703125 -1.421875 29.984375 -1.421875 
Q 24.8125 -1.421875 18.96875 -0.25 
Q 13.140625 0.921875 6.890625 3.21875 
L 6.890625 13.375 
Q 12.890625 10.015625 18.65625 8.296875 
Q 24.421875 6.59375 29.984375 6.59375 
Q 38.421875 6.59375 43.015625 9.90625 
Q 47.609375 13.234375 47.609375 19.390625 
Q 47.609375 24.75 44.3125 27.78125 
Q 41.015625 30.8125 33.5 32.328125 
L 27.484375 33.5 
Q 16.453125 35.6875 11.515625 40.375 
Q 6.59375 45.0625 6.59375 53.421875 
Q 6.59375 63.09375 13.40625 68.65625 
Q 20.21875 74.21875 32.171875 74.21875 
Q 37.3125 74.21875 42.625 73.28125 
Q 47.953125 72.359375 53.515625 70.515625 
z
" id="DejaVuSans-83"/>
      <path d="M 48.78125 52.59375 
L 48.78125 44.1875 
Q 44.96875 46.296875 41.140625 47.34375 
Q 37.3125 48.390625 33.40625 48.390625 
Q 24.65625 48.390625 19.8125 42.84375 
Q 14.984375 37.3125 14.984375 27.296875 
Q 14.984375 17.28125 19.8125 11.734375 
Q 24.65625 6.203125 33.40625 6.203125 
Q 37.3125 6.203125 41.140625 7.25 
Q 44.96875 8.296875 48.78125 10.40625 
L 48.78125 2.09375 
Q 45.015625 0.34375 40.984375 -0.53125 
Q 36.96875 -1.421875 32.421875 -1.421875 
Q 20.0625 -1.421875 12.78125 6.34375 
Q 5.515625 14.109375 5.515625 27.296875 
Q 5.515625 40.671875 12.859375 48.328125 
Q 20.21875 56 33.015625 56 
Q 37.15625 56 41.109375 55.140625 
Q 45.0625 54.296875 48.78125 52.59375 
z
" id="DejaVuSans-99"/>
      <path d="M 30.609375 48.390625 
Q 23.390625 48.390625 19.1875 42.75 
Q 14.984375 37.109375 14.984375 27.296875 
Q 14.984375 17.484375 19.15625 11.84375 
Q 23.34375 6.203125 30.609375 6.203125 
Q 37.796875 6.203125 41.984375 11.859375 
Q 46.1875 17.53125 46.1875 27.296875 
Q 46.1875 37.015625 41.984375 42.703125 
Q 37.796875 48.390625 30.609375 48.390625 
z
M 30.609375 56 
Q 42.328125 56 49.015625 48.375 
Q 55.71875 40.765625 55.71875 27.296875 
Q 55.71875 13.875 49.015625 6.21875 
Q 42.328125 -1.421875 30.609375 -1.421875 
Q 18.84375 -1.421875 12.171875 6.21875 
Q 5.515625 13.875 5.515625 27.296875 
Q 5.515625 40.765625 12.171875 48.375 
Q 18.84375 56 30.609375 56 
z
" id="DejaVuSans-111"/>
      <path d="M 41.109375 46.296875 
Q 39.59375 47.171875 37.8125 47.578125 
Q 36.03125 48 33.890625 48 
Q 26.265625 48 22.1875 43.046875 
Q 18.109375 38.09375 18.109375 28.8125 
L 18.109375 0 
L 9.078125 0 
L 9.078125 54.6875 
L 18.109375 54.6875 
L 18.109375 46.1875 
Q 20.953125 51.171875 25.484375 53.578125 
Q 30.03125 56 36.53125 56 
Q 37.453125 56 38.578125 55.875 
Q 39.703125 55.765625 41.0625 55.515625 
z
" id="DejaVuSans-114"/>
      <path d="M 56.203125 29.59375 
L 56.203125 25.203125 
L 14.890625 25.203125 
Q 15.484375 15.921875 20.484375 11.0625 
Q 25.484375 6.203125 34.421875 6.203125 
Q 39.59375 6.203125 44.453125 7.46875 
Q 49.3125 8.734375 54.109375 11.28125 
L 54.109375 2.78125 
Q 49.265625 0.734375 44.1875 -0.34375 
Q 39.109375 -1.421875 33.890625 -1.421875 
Q 20.796875 -1.421875 13.15625 6.1875 
Q 5.515625 13.8125 5.515625 26.8125 
Q 5.515625 40.234375 12.765625 48.109375 
Q 20.015625 56 32.328125 56 
Q 43.359375 56 49.78125 48.890625 
Q 56.203125 41.796875 56.203125 29.59375 
z
M 47.21875 32.234375 
Q 47.125 39.59375 43.09375 43.984375 
Q 39.0625 48.390625 32.421875 48.390625 
Q 24.90625 48.390625 20.390625 44.140625 
Q 15.875 39.890625 15.1875 32.171875 
z
" id="DejaVuSans-101"/>
      <path d="M 48.6875 27.296875 
Q 48.6875 37.203125 44.609375 42.84375 
Q 40.53125 48.484375 33.40625 48.484375 
Q 26.265625 48.484375 22.1875 42.84375 
Q 18.109375 37.203125 18.109375 27.296875 
Q 18.109375 17.390625 22.1875 11.75 
Q 26.265625 6.109375 33.40625 6.109375 
Q 40.53125 6.109375 44.609375 11.75 
Q 48.6875 17.390625 48.6875 27.296875 
z
M 18.109375 46.390625 
Q 20.953125 51.265625 25.265625 53.625 
Q 29.59375 56 35.59375 56 
Q 45.5625 56 51.78125 48.09375 
Q 58.015625 40.1875 58.015625 27.296875 
Q 58.015625 14.40625 51.78125 6.484375 
Q 45.5625 -1.421875 35.59375 -1.421875 
Q 29.59375 -1.421875 25.265625 0.953125 
Q 20.953125 3.328125 18.109375 8.203125 
L 18.109375 0 
L 9.078125 0 
L 9.078125 75.984375 
L 18.109375 75.984375 
z
" id="DejaVuSans-98"/>
      <path d="M 9.421875 54.6875 
L 18.40625 54.6875 
L 18.40625 0 
L 9.421875 0 
z
M 9.421875 75.984375 
L 18.40625 75.984375 
L 18.40625 64.59375 
L 9.421875 64.59375 
z
" id="DejaVuSans-105"/>
      <path d="M 54.890625 33.015625 
L 54.890625 0 
L 45.90625 0 
L 45.90625 32.71875 
Q 45.90625 40.484375 42.875 44.328125 
Q 39.84375 48.1875 33.796875 48.1875 
Q 26.515625 48.1875 22.3125 43.546875 
Q 18.109375 38.921875 18.109375 30.90625 
L 18.109375 0 
L 9.078125 0 
L 9.078125 54.6875 
L 18.109375 54.6875 
L 18.109375 46.1875 
Q 21.34375 51.125 25.703125 53.5625 
Q 30.078125 56 35.796875 56 
Q 45.21875 56 50.046875 50.171875 
Q 54.890625 44.34375 54.890625 33.015625 
z
" id="DejaVuSans-110"/>
     </defs>
     <g transform="translate(338.7135 540.75125)scale(0.096 -0.096)">
      <use xlink:href="#DejaVuSans-76"/>
      <use x="55.712891" xlink:href="#DejaVuSans-68"/>
      <use x="132.714844" xlink:href="#DejaVuSans-32"/>
      <use x="164.501953" xlink:href="#DejaVuSans-83"/>
      <use x="227.978516" xlink:href="#DejaVuSans-99"/>
      <use x="282.958984" xlink:href="#DejaVuSans-111"/>
      <use x="344.140625" xlink:href="#DejaVuSans-114"/>
      <use x="383.003906" xlink:href="#DejaVuSans-101"/>
      <use x="444.527344" xlink:href="#DejaVuSans-32"/>
      <use x="476.314453" xlink:href="#DejaVuSans-98"/>
      <use x="539.791016" xlink:href="#DejaVuSans-105"/>
      <use x="567.574219" xlink:href="#DejaVuSans-110"/>
     </g>
    </g>
   </g>
   <g id="matplotlib.axis_2">
    <g id="ytick_1">
     <g id="line2d_10">
      <defs>
       <path d="M 0 0 
L -4.8 0 
" id="m2d25e33681" style="stroke:#000000;"/>
      </defs>
      <g>
       <use style="stroke:#000000;" x="90" xlink:href="#m2d25e33681" y="426.962821"/>
      </g>
     </g>
     <g id="text_11">
      <!-- 2 -->
      <g transform="translate(76.101 430.306134)scale(0.088 -0.088)">
       <use xlink:href="#DejaVuSans-50"/>
      </g>
     </g>
    </g>
    <g id="ytick_2">
     <g id="line2d_11">
      <g>
       <use style="stroke:#000000;" x="90" xlink:href="#m2d25e33681" y="329.031149"/>
      </g>
     </g>
     <g id="text_12">
      <!-- 3 -->
      <defs>
       <path d="M 40.578125 39.3125 
Q 47.65625 37.796875 51.625 33 
Q 55.609375 28.21875 55.609375 21.1875 
Q 55.609375 10.40625 48.1875 4.484375 
Q 40.765625 -1.421875 27.09375 -1.421875 
Q 22.515625 -1.421875 17.65625 -0.515625 
Q 12.796875 0.390625 7.625 2.203125 
L 7.625 11.71875 
Q 11.71875 9.328125 16.59375 8.109375 
Q 21.484375 6.890625 26.8125 6.890625 
Q 36.078125 6.890625 40.9375 10.546875 
Q 45.796875 14.203125 45.796875 21.1875 
Q 45.796875 27.640625 41.28125 31.265625 
Q 36.765625 34.90625 28.71875 34.90625 
L 20.21875 34.90625 
L 20.21875 43.015625 
L 29.109375 43.015625 
Q 36.375 43.015625 40.234375 45.921875 
Q 44.09375 48.828125 44.09375 54.296875 
Q 44.09375 59.90625 40.109375 62.90625 
Q 36.140625 65.921875 28.71875 65.921875 
Q 24.65625 65.921875 20.015625 65.03125 
Q 15.375 64.15625 9.8125 62.3125 
L 9.8125 71.09375 
Q 15.4375 72.65625 20.34375 73.4375 
Q 25.25 74.21875 29.59375 74.21875 
Q 40.828125 74.21875 47.359375 69.109375 
Q 53.90625 64.015625 53.90625 55.328125 
Q 53.90625 49.265625 50.4375 45.09375 
Q 46.96875 40.921875 40.578125 39.3125 
z
" id="DejaVuSans-51"/>
      </defs>
      <g transform="translate(76.101 332.374461)scale(0.088 -0.088)">
       <use xlink:href="#DejaVuSans-51"/>
      </g>
     </g>
    </g>
    <g id="ytick_3">
     <g id="line2d_12">
      <g>
       <use style="stroke:#000000;" x="90" xlink:href="#m2d25e33681" y="231.099476"/>
      </g>
     </g>
     <g id="text_13">
      <!-- 4 -->
      <defs>
       <path d="M 37.796875 64.3125 
L 12.890625 25.390625 
L 37.796875 25.390625 
z
M 35.203125 72.90625 
L 47.609375 72.90625 
L 47.609375 25.390625 
L 58.015625 25.390625 
L 58.015625 17.1875 
L 47.609375 17.1875 
L 47.609375 0 
L 37.796875 0 
L 37.796875 17.1875 
L 4.890625 17.1875 
L 4.890625 26.703125 
z
" id="DejaVuSans-52"/>
      </defs>
      <g transform="translate(76.101 234.442788)scale(0.088 -0.088)">
       <use xlink:href="#DejaVuSans-52"/>
      </g>
     </g>
    </g>
    <g id="ytick_4">
     <g id="line2d_13">
      <g>
       <use style="stroke:#000000;" x="90" xlink:href="#m2d25e33681" y="133.167803"/>
      </g>
     </g>
     <g id="text_14">
      <!-- 5 -->
      <g transform="translate(76.101 136.511116)scale(0.088 -0.088)">
       <use xlink:href="#DejaVuSans-53"/>
      </g>
     </g>
    </g>
    <g id="text_15">
     <!-- Mean $\chi^2$ -->
     <defs>
      <path d="M 9.8125 72.90625 
L 24.515625 72.90625 
L 43.109375 23.296875 
L 61.8125 72.90625 
L 76.515625 72.90625 
L 76.515625 0 
L 66.890625 0 
L 66.890625 64.015625 
L 48.09375 14.015625 
L 38.1875 14.015625 
L 19.390625 64.015625 
L 19.390625 0 
L 9.8125 0 
z
" id="DejaVuSans-77"/>
      <path d="M 34.28125 27.484375 
Q 23.390625 27.484375 19.1875 25 
Q 14.984375 22.515625 14.984375 16.5 
Q 14.984375 11.71875 18.140625 8.90625 
Q 21.296875 6.109375 26.703125 6.109375 
Q 34.1875 6.109375 38.703125 11.40625 
Q 43.21875 16.703125 43.21875 25.484375 
L 43.21875 27.484375 
z
M 52.203125 31.203125 
L 52.203125 0 
L 43.21875 0 
L 43.21875 8.296875 
Q 40.140625 3.328125 35.546875 0.953125 
Q 30.953125 -1.421875 24.3125 -1.421875 
Q 15.921875 -1.421875 10.953125 3.296875 
Q 6 8.015625 6 15.921875 
Q 6 25.140625 12.171875 29.828125 
Q 18.359375 34.515625 30.609375 34.515625 
L 43.21875 34.515625 
L 43.21875 35.40625 
Q 43.21875 41.609375 39.140625 45 
Q 35.0625 48.390625 27.6875 48.390625 
Q 23 48.390625 18.546875 47.265625 
Q 14.109375 46.140625 10.015625 43.890625 
L 10.015625 52.203125 
Q 14.9375 54.109375 19.578125 55.046875 
Q 24.21875 56 28.609375 56 
Q 40.484375 56 46.34375 49.84375 
Q 52.203125 43.703125 52.203125 31.203125 
z
" id="DejaVuSans-97"/>
      <path d="M 30.03125 -12.203125 
L 26.421875 6.5 
L 6.15625 -20.84375 
L -4.4375 -20.84375 
L 24.265625 17.828125 
L 19.828125 40.828125 
Q 18.65625 46.96875 11.140625 46.96875 
L 8.734375 46.96875 
L 10.203125 54.6875 
L 13.625 54.59375 
Q 26.171875 54.25 27.734375 46.09375 
L 31.34375 27.390625 
L 51.609375 54.734375 
L 62.203125 54.734375 
L 33.5 16.0625 
L 37.9375 -6.9375 
Q 39.109375 -13.09375 46.625 -13.09375 
L 49.03125 -13.09375 
L 47.5625 -20.796875 
L 44.140625 -20.703125 
Q 31.59375 -20.359375 30.03125 -12.203125 
z
" id="DejaVuSans-Oblique-967"/>
     </defs>
     <g transform="translate(70.085 310.848)rotate(-90)scale(0.096 -0.096)">
      <use transform="translate(0 0.765625)" xlink:href="#DejaVuSans-77"/>
      <use transform="translate(86.279297 0.765625)" xlink:href="#DejaVuSans-101"/>
      <use transform="translate(147.802734 0.765625)" xlink:href="#DejaVuSans-97"/>
      <use transform="translate(209.082031 0.765625)" xlink:href="#DejaVuSans-110"/>
      <use transform="translate(272.460938 0.765625)" xlink:href="#DejaVuSans-32"/>
      <use transform="translate(304.248047 0.765625)" xlink:href="#DejaVuSans-Oblique-967"/>
      <use transform="translate(367.900443 39.046875)scale(0.7)" xlink:href="#DejaVuSans-50"/>
     </g>
    </g>
   </g>
   <g id="line2d_14">
    <path clip-path="url(#p4a4e70cab8)" d="M 90 508.428402 
L 673.954994 101.30265 
L 673.954994 101.30265 
" style="fill:none;stroke:#1f77b4;stroke-linecap:square;stroke-width:1.2;"/>
   </g>
   <g id="patch_3">
    <path d="M 90 512.64 
L 90 69.12 
" style="fill:none;stroke:#000000;stroke-linecap:square;stroke-linejoin:miter;"/>
   </g>
   <g id="patch_4">
    <path d="M 648 512.64 
L 648 69.12 
" style="fill:none;stroke:#000000;stroke-linecap:square;stroke-linejoin:miter;"/>
   </g>
   <g id="patch_5">
    <path d="M 90 512.64 
L 648 512.64 
" style="fill:none;stroke:#000000;stroke-linecap:square;stroke-linejoin:miter;"/>
   </g>
   <g id="patch_6">
    <path d="M 90 69.12 
L 648 69.12 
" style="fill:none;stroke:#000000;stroke-linecap:square;stroke-linejoin:miter;"/>
   </g>
   <g id="text_16">
    <!-- Regression Result for BMI -->
    <defs>
     <path d="M 44.390625 34.1875 
Q 47.5625 33.109375 50.5625 29.59375 
Q 53.5625 26.078125 56.59375 19.921875 
L 66.609375 0 
L 56 0 
L 46.6875 18.703125 
Q 43.0625 26.03125 39.671875 28.421875 
Q 36.28125 30.8125 30.421875 30.8125 
L 19.671875 30.8125 
L 19.671875 0 
L 9.8125 0 
L 9.8125 72.90625 
L 32.078125 72.90625 
Q 44.578125 72.90625 50.734375 67.671875 
Q 56.890625 62.453125 56.890625 51.90625 
Q 56.890625 45.015625 53.6875 40.46875 
Q 50.484375 35.9375 44.390625 34.1875 
z
M 19.671875 64.796875 
L 19.671875 38.921875 
L 32.078125 38.921875 
Q 39.203125 38.921875 42.84375 42.21875 
Q 46.484375 45.515625 46.484375 51.90625 
Q 46.484375 58.296875 42.84375 61.546875 
Q 39.203125 64.796875 32.078125 64.796875 
z
" id="DejaVuSans-82"/>
     <path d="M 45.40625 27.984375 
Q 45.40625 37.75 41.375 43.109375 
Q 37.359375 48.484375 30.078125 48.484375 
Q 22.859375 48.484375 18.828125 43.109375 
Q 14.796875 37.75 14.796875 27.984375 
Q 14.796875 18.265625 18.828125 12.890625 
Q 22.859375 7.515625 30.078125 7.515625 
Q 37.359375 7.515625 41.375 12.890625 
Q 45.40625 18.265625 45.40625 27.984375 
z
M 54.390625 6.78125 
Q 54.390625 -7.171875 48.1875 -13.984375 
Q 42 -20.796875 29.203125 -20.796875 
Q 24.46875 -20.796875 20.265625 -20.09375 
Q 16.0625 -19.390625 12.109375 -17.921875 
L 12.109375 -9.1875 
Q 16.0625 -11.328125 19.921875 -12.34375 
Q 23.78125 -13.375 27.78125 -13.375 
Q 36.625 -13.375 41.015625 -8.765625 
Q 45.40625 -4.15625 45.40625 5.171875 
L 45.40625 9.625 
Q 42.625 4.78125 38.28125 2.390625 
Q 33.9375 0 27.875 0 
Q 17.828125 0 11.671875 7.65625 
Q 5.515625 15.328125 5.515625 27.984375 
Q 5.515625 40.671875 11.671875 48.328125 
Q 17.828125 56 27.875 56 
Q 33.9375 56 38.28125 53.609375 
Q 42.625 51.21875 45.40625 46.390625 
L 45.40625 54.6875 
L 54.390625 54.6875 
z
" id="DejaVuSans-103"/>
     <path d="M 44.28125 53.078125 
L 44.28125 44.578125 
Q 40.484375 46.53125 36.375 47.5 
Q 32.28125 48.484375 27.875 48.484375 
Q 21.1875 48.484375 17.84375 46.4375 
Q 14.5 44.390625 14.5 40.28125 
Q 14.5 37.15625 16.890625 35.375 
Q 19.28125 33.59375 26.515625 31.984375 
L 29.59375 31.296875 
Q 39.15625 29.25 43.1875 25.515625 
Q 47.21875 21.78125 47.21875 15.09375 
Q 47.21875 7.46875 41.1875 3.015625 
Q 35.15625 -1.421875 24.609375 -1.421875 
Q 20.21875 -1.421875 15.453125 -0.5625 
Q 10.6875 0.296875 5.421875 2 
L 5.421875 11.28125 
Q 10.40625 8.6875 15.234375 7.390625 
Q 20.0625 6.109375 24.8125 6.109375 
Q 31.15625 6.109375 34.5625 8.28125 
Q 37.984375 10.453125 37.984375 14.40625 
Q 37.984375 18.0625 35.515625 20.015625 
Q 33.0625 21.96875 24.703125 23.78125 
L 21.578125 24.515625 
Q 13.234375 26.265625 9.515625 29.90625 
Q 5.8125 33.546875 5.8125 39.890625 
Q 5.8125 47.609375 11.28125 51.796875 
Q 16.75 56 26.8125 56 
Q 31.78125 56 36.171875 55.265625 
Q 40.578125 54.546875 44.28125 53.078125 
z
" id="DejaVuSans-115"/>
     <path d="M 8.5 21.578125 
L 8.5 54.6875 
L 17.484375 54.6875 
L 17.484375 21.921875 
Q 17.484375 14.15625 20.5 10.265625 
Q 23.53125 6.390625 29.59375 6.390625 
Q 36.859375 6.390625 41.078125 11.03125 
Q 45.3125 15.671875 45.3125 23.6875 
L 45.3125 54.6875 
L 54.296875 54.6875 
L 54.296875 0 
L 45.3125 0 
L 45.3125 8.40625 
Q 42.046875 3.421875 37.71875 1 
Q 33.40625 -1.421875 27.6875 -1.421875 
Q 18.265625 -1.421875 13.375 4.4375 
Q 8.5 10.296875 8.5 21.578125 
z
M 31.109375 56 
z
" id="DejaVuSans-117"/>
     <path d="M 9.421875 75.984375 
L 18.40625 75.984375 
L 18.40625 0 
L 9.421875 0 
z
" id="DejaVuSans-108"/>
     <path d="M 18.3125 70.21875 
L 18.3125 54.6875 
L 36.8125 54.6875 
L 36.8125 47.703125 
L 18.3125 47.703125 
L 18.3125 18.015625 
Q 18.3125 11.328125 20.140625 9.421875 
Q 21.96875 7.515625 27.59375 7.515625 
L 36.8125 7.515625 
L 36.8125 0 
L 27.59375 0 
Q 17.1875 0 13.234375 3.875 
Q 9.28125 7.765625 9.28125 18.015625 
L 9.28125 47.703125 
L 2.6875 47.703125 
L 2.6875 54.6875 
L 9.28125 54.6875 
L 9.28125 70.21875 
z
" id="DejaVuSans-116"/>
     <path d="M 37.109375 75.984375 
L 37.109375 68.5 
L 28.515625 68.5 
Q 23.6875 68.5 21.796875 66.546875 
Q 19.921875 64.59375 19.921875 59.515625 
L 19.921875 54.6875 
L 34.71875 54.6875 
L 34.71875 47.703125 
L 19.921875 47.703125 
L 19.921875 0 
L 10.890625 0 
L 10.890625 47.703125 
L 2.296875 47.703125 
L 2.296875 54.6875 
L 10.890625 54.6875 
L 10.890625 58.5 
Q 10.890625 67.625 15.140625 71.796875 
Q 19.390625 75.984375 28.609375 75.984375 
z
" id="DejaVuSans-102"/>
     <path d="M 19.671875 34.8125 
L 19.671875 8.109375 
L 35.5 8.109375 
Q 43.453125 8.109375 47.28125 11.40625 
Q 51.125 14.703125 51.125 21.484375 
Q 51.125 28.328125 47.28125 31.5625 
Q 43.453125 34.8125 35.5 34.8125 
z
M 19.671875 64.796875 
L 19.671875 42.828125 
L 34.28125 42.828125 
Q 41.5 42.828125 45.03125 45.53125 
Q 48.578125 48.25 48.578125 53.8125 
Q 48.578125 59.328125 45.03125 62.0625 
Q 41.5 64.796875 34.28125 64.796875 
z
M 9.8125 72.90625 
L 35.015625 72.90625 
Q 46.296875 72.90625 52.390625 68.21875 
Q 58.5 63.53125 58.5 54.890625 
Q 58.5 48.1875 55.375 44.234375 
Q 52.25 40.28125 46.1875 39.3125 
Q 53.46875 37.75 57.5 32.78125 
Q 61.53125 27.828125 61.53125 20.40625 
Q 61.53125 10.640625 54.890625 5.3125 
Q 48.25 0 35.984375 0 
L 9.8125 0 
z
" id="DejaVuSans-66"/>
     <path d="M 9.8125 72.90625 
L 19.671875 72.90625 
L 19.671875 0 
L 9.8125 0 
z
" id="DejaVuSans-73"/>
    </defs>
    <g transform="translate(307.89 63.12)scale(0.096 -0.096)">
     <use xlink:href="#DejaVuSans-82"/>
     <use x="64.982422" xlink:href="#DejaVuSans-101"/>
     <use x="126.505859" xlink:href="#DejaVuSans-103"/>
     <use x="189.982422" xlink:href="#DejaVuSans-114"/>
     <use x="228.845703" xlink:href="#DejaVuSans-101"/>
     <use x="290.369141" xlink:href="#DejaVuSans-115"/>
     <use x="342.46875" xlink:href="#DejaVuSans-115"/>
     <use x="394.568359" xlink:href="#DejaVuSans-105"/>
     <use x="422.351562" xlink:href="#DejaVuSans-111"/>
     <use x="483.533203" xlink:href="#DejaVuSans-110"/>
     <use x="546.912109" xlink:href="#DejaVuSans-32"/>
     <use x="578.699219" xlink:href="#DejaVuSans-82"/>
     <use x="643.681641" xlink:href="#DejaVuSans-101"/>
     <use x="705.205078" xlink:href="#DejaVuSans-115"/>
     <use x="757.304688" xlink:href="#DejaVuSans-117"/>
     <use x="820.683594" xlink:href="#DejaVuSans-108"/>
     <use x="848.466797" xlink:href="#DejaVuSans-116"/>
     <use x="887.675781" xlink:href="#DejaVuSans-32"/>
     <use x="919.462891" xlink:href="#DejaVuSans-102"/>
     <use x="954.667969" xlink:href="#DejaVuSans-111"/>
     <use x="1015.849609" xlink:href="#DejaVuSans-114"/>
     <use x="1056.962891" xlink:href="#DejaVuSans-32"/>
     <use x="1088.75" xlink:href="#DejaVuSans-66"/>
     <use x="1157.353516" xlink:href="#DejaVuSans-77"/>
     <use x="1243.632812" xlink:href="#DejaVuSans-73"/>
    </g>
   </g>
   <g id="legend_1">
    <g id="patch_7">
     <path d="M 96.16 156.84775 
L 340.36 156.84775 
Q 342.12 156.84775 342.12 155.08775 
L 342.12 75.28 
Q 342.12 73.52 340.36 73.52 
L 96.16 73.52 
Q 94.4 73.52 94.4 75.28 
L 94.4 155.08775 
Q 94.4 156.84775 96.16 156.84775 
z
" style="fill:#ffffff;opacity:0.8;stroke:#cccccc;stroke-linejoin:miter;stroke-width:0.8;"/>
    </g>
    <g id="line2d_15">
     <path d="M 97.92 81.968 
L 115.52 81.968 
" style="fill:none;stroke:#1f77b4;stroke-linecap:square;stroke-width:1.2;"/>
    </g>
    <g id="line2d_16"/>
    <g id="text_17">
     <!-- LD2MAF Regression line: ($h_g^2=$0.251, $b_0=$1.168) -->
     <defs>
      <path d="M 34.1875 63.1875 
L 20.796875 26.90625 
L 47.609375 26.90625 
z
M 28.609375 72.90625 
L 39.796875 72.90625 
L 67.578125 0 
L 57.328125 0 
L 50.6875 18.703125 
L 17.828125 18.703125 
L 11.1875 0 
L 0.78125 0 
z
" id="DejaVuSans-65"/>
      <path d="M 9.8125 72.90625 
L 51.703125 72.90625 
L 51.703125 64.59375 
L 19.671875 64.59375 
L 19.671875 43.109375 
L 48.578125 43.109375 
L 48.578125 34.8125 
L 19.671875 34.8125 
L 19.671875 0 
L 9.8125 0 
z
" id="DejaVuSans-70"/>
      <path d="M 11.71875 12.40625 
L 22.015625 12.40625 
L 22.015625 0 
L 11.71875 0 
z
M 11.71875 51.703125 
L 22.015625 51.703125 
L 22.015625 39.3125 
L 11.71875 39.3125 
z
" id="DejaVuSans-58"/>
      <path d="M 31 75.875 
Q 24.46875 64.65625 21.28125 53.65625 
Q 18.109375 42.671875 18.109375 31.390625 
Q 18.109375 20.125 21.3125 9.0625 
Q 24.515625 -2 31 -13.1875 
L 23.1875 -13.1875 
Q 15.875 -1.703125 12.234375 9.375 
Q 8.59375 20.453125 8.59375 31.390625 
Q 8.59375 42.28125 12.203125 53.3125 
Q 15.828125 64.359375 23.1875 75.875 
z
" id="DejaVuSans-40"/>
      <path d="M 55.71875 33.015625 
L 49.3125 0 
L 40.28125 0 
L 46.6875 32.671875 
Q 47.125 34.96875 47.359375 36.71875 
Q 47.609375 38.484375 47.609375 39.5 
Q 47.609375 43.609375 45.015625 45.890625 
Q 42.4375 48.1875 37.796875 48.1875 
Q 30.5625 48.1875 25.265625 43.296875 
Q 19.96875 38.421875 18.40625 30.328125 
L 12.5 0 
L 3.515625 0 
L 18.3125 75.984375 
L 27.296875 75.984375 
L 21.484375 46.09375 
Q 24.90625 50.6875 30.21875 53.34375 
Q 35.546875 56 41.40625 56 
Q 48.640625 56 52.609375 52.09375 
Q 56.59375 48.1875 56.59375 41.109375 
Q 56.59375 39.359375 56.375 37.359375 
Q 56.15625 35.359375 55.71875 33.015625 
z
" id="DejaVuSans-Oblique-104"/>
      <path d="M 59.625 54.6875 
L 50.296875 6.78125 
Q 47.609375 -7.125 40.015625 -13.953125 
Q 32.421875 -20.796875 19.578125 -20.796875 
Q 14.84375 -20.796875 10.78125 -20.09375 
Q 6.734375 -19.390625 3.21875 -17.921875 
L 4.890625 -9.1875 
Q 8.203125 -11.328125 11.90625 -12.34375 
Q 15.625 -13.375 19.828125 -13.375 
Q 28.375 -13.375 33.859375 -8.703125 
Q 39.359375 -4.046875 41.109375 4.6875 
L 41.890625 8.796875 
Q 38.140625 4.5 33.15625 2.25 
Q 28.171875 0 22.40625 0 
Q 14.109375 0 9.34375 5.484375 
Q 4.59375 10.984375 4.59375 20.609375 
Q 4.59375 28.171875 7.46875 35.421875 
Q 10.359375 42.671875 15.578125 48.296875 
Q 19.046875 52 23.65625 54 
Q 28.265625 56 33.296875 56 
Q 38.8125 56 42.90625 53.4375 
Q 47.015625 50.875 49.03125 46.1875 
L 50.59375 54.6875 
z
M 46.09375 34.625 
Q 46.09375 41.265625 42.96875 44.875 
Q 39.84375 48.484375 34.078125 48.484375 
Q 30.515625 48.484375 27.296875 47.0625 
Q 24.078125 45.65625 21.78125 43.109375 
Q 18.0625 38.921875 15.984375 33.234375 
Q 13.921875 27.546875 13.921875 21.484375 
Q 13.921875 14.75 17.0625 11.125 
Q 20.21875 7.515625 26.125 7.515625 
Q 34.671875 7.515625 40.375 15.25 
Q 46.09375 23 46.09375 34.625 
z
" id="DejaVuSans-Oblique-103"/>
      <path d="M 10.59375 45.40625 
L 73.1875 45.40625 
L 73.1875 37.203125 
L 10.59375 37.203125 
z
M 10.59375 25.484375 
L 73.1875 25.484375 
L 73.1875 17.1875 
L 10.59375 17.1875 
z
" id="DejaVuSans-61"/>
      <path d="M 10.6875 12.40625 
L 21 12.40625 
L 21 0 
L 10.6875 0 
z
" id="DejaVuSans-46"/>
      <path d="M 11.71875 12.40625 
L 22.015625 12.40625 
L 22.015625 4 
L 14.015625 -11.625 
L 7.71875 -11.625 
L 11.71875 4 
z
" id="DejaVuSans-44"/>
      <path d="M 49.515625 33.40625 
Q 49.515625 40.484375 46.265625 44.484375 
Q 43.015625 48.484375 37.3125 48.484375 
Q 33.15625 48.484375 29.515625 46.453125 
Q 25.875 44.4375 23.1875 40.578125 
Q 20.359375 36.53125 18.71875 31.171875 
Q 17.09375 25.828125 17.09375 20.515625 
Q 17.09375 13.765625 20.28125 9.9375 
Q 23.484375 6.109375 29.109375 6.109375 
Q 33.34375 6.109375 36.953125 8.078125 
Q 40.578125 10.0625 43.3125 13.921875 
Q 46.09375 17.921875 47.796875 23.234375 
Q 49.515625 28.5625 49.515625 33.40625 
z
M 21.578125 46.390625 
Q 24.90625 50.875 29.90625 53.4375 
Q 34.90625 56 40.375 56 
Q 48.78125 56 53.734375 50.328125 
Q 58.6875 44.671875 58.6875 35.015625 
Q 58.6875 27.09375 55.78125 19.671875 
Q 52.875 12.25 47.515625 6.5 
Q 44 2.6875 39.40625 0.625 
Q 34.8125 -1.421875 29.78125 -1.421875 
Q 24.46875 -1.421875 20.5625 1.015625 
Q 16.65625 3.46875 14.203125 8.296875 
L 12.59375 0 
L 3.609375 0 
L 18.40625 75.984375 
L 27.390625 75.984375 
z
" id="DejaVuSans-Oblique-98"/>
      <path d="M 33.015625 40.375 
Q 26.375 40.375 22.484375 35.828125 
Q 18.609375 31.296875 18.609375 23.390625 
Q 18.609375 15.53125 22.484375 10.953125 
Q 26.375 6.390625 33.015625 6.390625 
Q 39.65625 6.390625 43.53125 10.953125 
Q 47.40625 15.53125 47.40625 23.390625 
Q 47.40625 31.296875 43.53125 35.828125 
Q 39.65625 40.375 33.015625 40.375 
z
M 52.59375 71.296875 
L 52.59375 62.3125 
Q 48.875 64.0625 45.09375 64.984375 
Q 41.3125 65.921875 37.59375 65.921875 
Q 27.828125 65.921875 22.671875 59.328125 
Q 17.53125 52.734375 16.796875 39.40625 
Q 19.671875 43.65625 24.015625 45.921875 
Q 28.375 48.1875 33.59375 48.1875 
Q 44.578125 48.1875 50.953125 41.515625 
Q 57.328125 34.859375 57.328125 23.390625 
Q 57.328125 12.15625 50.6875 5.359375 
Q 44.046875 -1.421875 33.015625 -1.421875 
Q 20.359375 -1.421875 13.671875 8.265625 
Q 6.984375 17.96875 6.984375 36.375 
Q 6.984375 53.65625 15.1875 63.9375 
Q 23.390625 74.21875 37.203125 74.21875 
Q 40.921875 74.21875 44.703125 73.484375 
Q 48.484375 72.75 52.59375 71.296875 
z
" id="DejaVuSans-54"/>
      <path d="M 31.78125 34.625 
Q 24.75 34.625 20.71875 30.859375 
Q 16.703125 27.09375 16.703125 20.515625 
Q 16.703125 13.921875 20.71875 10.15625 
Q 24.75 6.390625 31.78125 6.390625 
Q 38.8125 6.390625 42.859375 10.171875 
Q 46.921875 13.96875 46.921875 20.515625 
Q 46.921875 27.09375 42.890625 30.859375 
Q 38.875 34.625 31.78125 34.625 
z
M 21.921875 38.8125 
Q 15.578125 40.375 12.03125 44.71875 
Q 8.5 49.078125 8.5 55.328125 
Q 8.5 64.0625 14.71875 69.140625 
Q 20.953125 74.21875 31.78125 74.21875 
Q 42.671875 74.21875 48.875 69.140625 
Q 55.078125 64.0625 55.078125 55.328125 
Q 55.078125 49.078125 51.53125 44.71875 
Q 48 40.375 41.703125 38.8125 
Q 48.828125 37.15625 52.796875 32.3125 
Q 56.78125 27.484375 56.78125 20.515625 
Q 56.78125 9.90625 50.3125 4.234375 
Q 43.84375 -1.421875 31.78125 -1.421875 
Q 19.734375 -1.421875 13.25 4.234375 
Q 6.78125 9.90625 6.78125 20.515625 
Q 6.78125 27.484375 10.78125 32.3125 
Q 14.796875 37.15625 21.921875 38.8125 
z
M 18.3125 54.390625 
Q 18.3125 48.734375 21.84375 45.5625 
Q 25.390625 42.390625 31.78125 42.390625 
Q 38.140625 42.390625 41.71875 45.5625 
Q 45.3125 48.734375 45.3125 54.390625 
Q 45.3125 60.0625 41.71875 63.234375 
Q 38.140625 66.40625 31.78125 66.40625 
Q 25.390625 66.40625 21.84375 63.234375 
Q 18.3125 60.0625 18.3125 54.390625 
z
" id="DejaVuSans-56"/>
      <path d="M 8.015625 75.875 
L 15.828125 75.875 
Q 23.140625 64.359375 26.78125 53.3125 
Q 30.421875 42.28125 30.421875 31.390625 
Q 30.421875 20.453125 26.78125 9.375 
Q 23.140625 -1.703125 15.828125 -13.1875 
L 8.015625 -13.1875 
Q 14.5 -2 17.703125 9.0625 
Q 20.90625 20.125 20.90625 31.390625 
Q 20.90625 42.671875 17.703125 53.65625 
Q 14.5 64.65625 8.015625 75.875 
z
" id="DejaVuSans-41"/>
     </defs>
     <g transform="translate(122.56 85.048)scale(0.088 -0.088)">
      <use transform="translate(0 0.765625)" xlink:href="#DejaVuSans-76"/>
      <use transform="translate(55.712891 0.765625)" xlink:href="#DejaVuSans-68"/>
      <use transform="translate(132.714844 0.765625)" xlink:href="#DejaVuSans-50"/>
      <use transform="translate(196.337891 0.765625)" xlink:href="#DejaVuSans-77"/>
      <use transform="translate(282.617188 0.765625)" xlink:href="#DejaVuSans-65"/>
      <use transform="translate(351.025391 0.765625)" xlink:href="#DejaVuSans-70"/>
      <use transform="translate(408.544922 0.765625)" xlink:href="#DejaVuSans-32"/>
      <use transform="translate(440.332031 0.765625)" xlink:href="#DejaVuSans-82"/>
      <use transform="translate(509.814453 0.765625)" xlink:href="#DejaVuSans-101"/>
      <use transform="translate(571.337891 0.765625)" xlink:href="#DejaVuSans-103"/>
      <use transform="translate(634.814453 0.765625)" xlink:href="#DejaVuSans-114"/>
      <use transform="translate(675.927734 0.765625)" xlink:href="#DejaVuSans-101"/>
      <use transform="translate(737.451172 0.765625)" xlink:href="#DejaVuSans-115"/>
      <use transform="translate(789.550781 0.765625)" xlink:href="#DejaVuSans-115"/>
      <use transform="translate(841.650391 0.765625)" xlink:href="#DejaVuSans-105"/>
      <use transform="translate(869.433594 0.765625)" xlink:href="#DejaVuSans-111"/>
      <use transform="translate(930.615234 0.765625)" xlink:href="#DejaVuSans-110"/>
      <use transform="translate(993.994141 0.765625)" xlink:href="#DejaVuSans-32"/>
      <use transform="translate(1025.78125 0.765625)" xlink:href="#DejaVuSans-108"/>
      <use transform="translate(1053.564453 0.765625)" xlink:href="#DejaVuSans-105"/>
      <use transform="translate(1081.347656 0.765625)" xlink:href="#DejaVuSans-110"/>
      <use transform="translate(1144.726562 0.765625)" xlink:href="#DejaVuSans-101"/>
      <use transform="translate(1206.25 0.765625)" xlink:href="#DejaVuSans-58"/>
      <use transform="translate(1239.941406 0.765625)" xlink:href="#DejaVuSans-32"/>
      <use transform="translate(1271.728516 0.765625)" xlink:href="#DejaVuSans-40"/>
      <use transform="translate(1310.742188 0.765625)" xlink:href="#DejaVuSans-Oblique-104"/>
      <use transform="translate(1381.568802 39.046875)scale(0.7)" xlink:href="#DejaVuSans-50"/>
      <use transform="translate(1374.121094 -26.578125)scale(0.7)" xlink:href="#DejaVuSans-Oblique-103"/>
      <use transform="translate(1448.321732 0.765625)" xlink:href="#DejaVuSans-61"/>
      <use transform="translate(1551.593216 0.765625)" xlink:href="#DejaVuSans-48"/>
      <use transform="translate(1615.216263 0.765625)" xlink:href="#DejaVuSans-46"/>
      <use transform="translate(1641.503372 0.765625)" xlink:href="#DejaVuSans-50"/>
      <use transform="translate(1705.126419 0.765625)" xlink:href="#DejaVuSans-53"/>
      <use transform="translate(1768.749466 0.765625)" xlink:href="#DejaVuSans-49"/>
      <use transform="translate(1832.372513 0.765625)" xlink:href="#DejaVuSans-44"/>
      <use transform="translate(1864.159622 0.765625)" xlink:href="#DejaVuSans-32"/>
      <use transform="translate(1895.946732 0.765625)" xlink:href="#DejaVuSans-Oblique-98"/>
      <use transform="translate(1959.423294 -15.640625)scale(0.7)" xlink:href="#DejaVuSans-48"/>
      <use transform="translate(2026.176224 0.765625)" xlink:href="#DejaVuSans-61"/>
      <use transform="translate(2129.447708 0.765625)" xlink:href="#DejaVuSans-49"/>
      <use transform="translate(2193.070755 0.765625)" xlink:href="#DejaVuSans-46"/>
      <use transform="translate(2224.857865 0.765625)" xlink:href="#DejaVuSans-49"/>
      <use transform="translate(2288.480911 0.765625)" xlink:href="#DejaVuSans-54"/>
      <use transform="translate(2352.103958 0.765625)" xlink:href="#DejaVuSans-56"/>
      <use transform="translate(2415.727005 0.765625)" xlink:href="#DejaVuSans-41"/>
     </g>
    </g>
    <g id="PathCollection_6">
     <defs>
      <path id="m8af1f249b5" style="stroke:#ffffff;stroke-width:1.2;"/>
     </defs>
     <g>
      <use style="fill:#ffffff;stroke:#ffffff;stroke-width:1.2;" x="106.72" xlink:href="#m8af1f249b5" y="97.520625"/>
     </g>
    </g>
    <g id="text_18">
     <!-- Regression weight -->
     <defs>
      <path d="M 4.203125 54.6875 
L 13.1875 54.6875 
L 24.421875 12.015625 
L 35.59375 54.6875 
L 46.1875 54.6875 
L 57.421875 12.015625 
L 68.609375 54.6875 
L 77.59375 54.6875 
L 63.28125 0 
L 52.6875 0 
L 40.921875 44.828125 
L 29.109375 0 
L 18.5 0 
z
" id="DejaVuSans-119"/>
      <path d="M 54.890625 33.015625 
L 54.890625 0 
L 45.90625 0 
L 45.90625 32.71875 
Q 45.90625 40.484375 42.875 44.328125 
Q 39.84375 48.1875 33.796875 48.1875 
Q 26.515625 48.1875 22.3125 43.546875 
Q 18.109375 38.921875 18.109375 30.90625 
L 18.109375 0 
L 9.078125 0 
L 9.078125 75.984375 
L 18.109375 75.984375 
L 18.109375 46.1875 
Q 21.34375 51.125 25.703125 53.5625 
Q 30.078125 56 35.796875 56 
Q 45.21875 56 50.046875 50.171875 
Q 54.890625 44.34375 54.890625 33.015625 
z
" id="DejaVuSans-104"/>
     </defs>
     <g transform="translate(122.56 99.830625)scale(0.088 -0.088)">
      <use xlink:href="#DejaVuSans-82"/>
      <use x="64.982422" xlink:href="#DejaVuSans-101"/>
      <use x="126.505859" xlink:href="#DejaVuSans-103"/>
      <use x="189.982422" xlink:href="#DejaVuSans-114"/>
      <use x="228.845703" xlink:href="#DejaVuSans-101"/>
      <use x="290.369141" xlink:href="#DejaVuSans-115"/>
      <use x="342.46875" xlink:href="#DejaVuSans-115"/>
      <use x="394.568359" xlink:href="#DejaVuSans-105"/>
      <use x="422.351562" xlink:href="#DejaVuSans-111"/>
      <use x="483.533203" xlink:href="#DejaVuSans-110"/>
      <use x="546.912109" xlink:href="#DejaVuSans-32"/>
      <use x="578.699219" xlink:href="#DejaVuSans-119"/>
      <use x="660.486328" xlink:href="#DejaVuSans-101"/>
      <use x="722.009766" xlink:href="#DejaVuSans-105"/>
      <use x="749.792969" xlink:href="#DejaVuSans-103"/>
      <use x="813.269531" xlink:href="#DejaVuSans-104"/>
      <use x="876.648438" xlink:href="#DejaVuSans-116"/>
     </g>
    </g>
    <g id="PathCollection_7">
     <defs>
      <path d="M 0 2.4 
C 0.636487 2.4 1.246992 2.147121 1.697056 1.697056 
C 2.147121 1.246992 2.4 0.636487 2.4 0 
C 2.4 -0.636487 2.147121 -1.246992 1.697056 -1.697056 
C 1.246992 -2.147121 0.636487 -2.4 0 -2.4 
C -0.636487 -2.4 -1.246992 -2.147121 -1.697056 -1.697056 
C -2.147121 -1.246992 -2.4 -0.636487 -2.4 0 
C -2.4 0.636487 -2.147121 1.246992 -1.697056 1.697056 
C -1.246992 2.147121 -0.636487 2.4 0 2.4 
z
" id="mb408fb15bc" style="stroke:#e5d7c2;stroke-width:0.8;"/>
     </defs>
     <g>
      <use style="fill:#e5d7c2;stroke:#e5d7c2;stroke-width:0.8;" x="106.72" xlink:href="#mb408fb15bc" y="110.437375"/>
     </g>
    </g>
    <g id="text_19">
     <!-- 0.0 -->
     <g transform="translate(122.56 112.747375)scale(0.088 -0.088)">
      <use xlink:href="#DejaVuSans-48"/>
      <use x="63.623047" xlink:href="#DejaVuSans-46"/>
      <use x="95.410156" xlink:href="#DejaVuSans-48"/>
     </g>
    </g>
    <g id="PathCollection_8">
     <defs>
      <path d="M 0 2.4 
C 0.636487 2.4 1.246992 2.147121 1.697056 1.697056 
C 2.147121 1.246992 2.4 0.636487 2.4 0 
C 2.4 -0.636487 2.147121 -1.246992 1.697056 -1.697056 
C 1.246992 -2.147121 0.636487 -2.4 0 -2.4 
C -0.636487 -2.4 -1.246992 -2.147121 -1.697056 -1.697056 
C -2.147121 -1.246992 -2.4 -0.636487 -2.4 0 
C -2.4 0.636487 -2.147121 1.246992 -1.697056 1.697056 
C -1.246992 2.147121 -0.636487 2.4 0 2.4 
z
" id="mc481582d39" style="stroke:#c79289;stroke-width:0.8;"/>
     </defs>
     <g>
      <use style="fill:#c79289;stroke:#c79289;stroke-width:0.8;" x="106.72" xlink:href="#mc481582d39" y="123.354125"/>
     </g>
    </g>
    <g id="text_20">
     <!-- 0.2 -->
     <g transform="translate(122.56 125.664125)scale(0.088 -0.088)">
      <use xlink:href="#DejaVuSans-48"/>
      <use x="63.623047" xlink:href="#DejaVuSans-46"/>
      <use x="95.410156" xlink:href="#DejaVuSans-50"/>
     </g>
    </g>
    <g id="PathCollection_9">
     <defs>
      <path d="M 0 2.4 
C 0.636487 2.4 1.246992 2.147121 1.697056 1.697056 
C 2.147121 1.246992 2.4 0.636487 2.4 0 
C 2.4 -0.636487 2.147121 -1.246992 1.697056 -1.697056 
C 1.246992 -2.147121 0.636487 -2.4 0 -2.4 
C -0.636487 -2.4 -1.246992 -2.147121 -1.697056 -1.697056 
C -2.147121 -1.246992 -2.4 -0.636487 -2.4 0 
C -2.4 0.636487 -2.147121 1.246992 -1.697056 1.697056 
C -1.246992 2.147121 -0.636487 2.4 0 2.4 
z
" id="mbc582552cb" style="stroke:#864763;stroke-width:0.8;"/>
     </defs>
     <g>
      <use style="fill:#864763;stroke:#864763;stroke-width:0.8;" x="106.72" xlink:href="#mbc582552cb" y="136.270875"/>
     </g>
    </g>
    <g id="text_21">
     <!-- 0.4 -->
     <g transform="translate(122.56 138.580875)scale(0.088 -0.088)">
      <use xlink:href="#DejaVuSans-48"/>
      <use x="63.623047" xlink:href="#DejaVuSans-46"/>
      <use x="95.410156" xlink:href="#DejaVuSans-52"/>
     </g>
    </g>
    <g id="PathCollection_10">
     <defs>
      <path d="M 0 2.4 
C 0.636487 2.4 1.246992 2.147121 1.697056 1.697056 
C 2.147121 1.246992 2.4 0.636487 2.4 0 
C 2.4 -0.636487 2.147121 -1.246992 1.697056 -1.697056 
C 1.246992 -2.147121 0.636487 -2.4 0 -2.4 
C -0.636487 -2.4 -1.246992 -2.147121 -1.697056 -1.697056 
C -2.147121 -1.246992 -2.4 -0.636487 -2.4 0 
C -2.4 0.636487 -2.147121 1.246992 -1.697056 1.697056 
C -1.246992 2.147121 -0.636487 2.4 0 2.4 
z
" id="mc2e84f9a6b" style="stroke:#371a36;stroke-width:0.8;"/>
     </defs>
     <g>
      <use style="fill:#371a36;stroke:#371a36;stroke-width:0.8;" x="106.72" xlink:href="#mc2e84f9a6b" y="149.187625"/>
     </g>
    </g>
    <g id="text_22">
     <!-- 0.6 -->
     <g transform="translate(122.56 151.497625)scale(0.088 -0.088)">
      <use xlink:href="#DejaVuSans-48"/>
      <use x="63.623047" xlink:href="#DejaVuSans-46"/>
      <use x="95.410156" xlink:href="#DejaVuSans-54"/>
     </g>
    </g>
   </g>
   <g id="PathCollection_11">
    <defs>
     <path d="M 0 2.4 
C 0.636487 2.4 1.246992 2.147121 1.697056 1.697056 
C 2.147121 1.246992 2.4 0.636487 2.4 0 
C 2.4 -0.636487 2.147121 -1.246992 1.697056 -1.697056 
C 1.246992 -2.147121 0.636487 -2.4 0 -2.4 
C -0.636487 -2.4 -1.246992 -2.147121 -1.697056 -1.697056 
C -2.147121 -1.246992 -2.4 -0.636487 -2.4 0 
C -2.4 0.636487 -2.147121 1.246992 -1.697056 1.697056 
C -1.246992 2.147121 -0.636487 2.4 0 2.4 
z
" id="C0_0_a19732ab49"/>
    </defs>
    <g clip-path="url(#p4a4e70cab8)">
     <use style="fill:#371a36;stroke:#ffffff;stroke-width:0.75;" x="36.707385" xlink:href="#C0_0_a19732ab49" y="500.397093"/>
    </g>
    <g clip-path="url(#p4a4e70cab8)">
     <use style="fill:#935169;stroke:#ffffff;stroke-width:0.75;" x="117.299548" xlink:href="#C0_0_a19732ab49" y="486.123901"/>
    </g>
    <g clip-path="url(#p4a4e70cab8)">
     <use style="fill:#a96773;stroke:#ffffff;stroke-width:0.75;" x="126.670388" xlink:href="#C0_0_a19732ab49" y="481.152783"/>
    </g>
    <g clip-path="url(#p4a4e70cab8)">
     <use style="fill:#b4747a;stroke:#ffffff;stroke-width:0.75;" x="133.696676" xlink:href="#C0_0_a19732ab49" y="472.748361"/>
    </g>
    <g clip-path="url(#p4a4e70cab8)">
     <use style="fill:#bc7f7f;stroke:#ffffff;stroke-width:0.75;" x="139.545106" xlink:href="#C0_0_a19732ab49" y="469.127318"/>
    </g>
    <g clip-path="url(#p4a4e70cab8)">
     <use style="fill:#c08682;stroke:#ffffff;stroke-width:0.75;" x="144.768944" xlink:href="#C0_0_a19732ab49" y="462.293614"/>
    </g>
    <g clip-path="url(#p4a4e70cab8)">
     <use style="fill:#c48c85;stroke:#ffffff;stroke-width:0.75;" x="149.566377" xlink:href="#C0_0_a19732ab49" y="461.007906"/>
    </g>
    <g clip-path="url(#p4a4e70cab8)">
     <use style="fill:#c69188;stroke:#ffffff;stroke-width:0.75;" x="153.993834" xlink:href="#C0_0_a19732ab49" y="449.965646"/>
    </g>
    <g clip-path="url(#p4a4e70cab8)">
     <use style="fill:#c8958a;stroke:#ffffff;stroke-width:0.75;" x="158.227413" xlink:href="#C0_0_a19732ab49" y="456.061139"/>
    </g>
    <g clip-path="url(#p4a4e70cab8)">
     <use style="fill:#cb9a8d;stroke:#ffffff;stroke-width:0.75;" x="162.258811" xlink:href="#C0_0_a19732ab49" y="448.94896"/>
    </g>
    <g clip-path="url(#p4a4e70cab8)">
     <use style="fill:#cc9c8f;stroke:#ffffff;stroke-width:0.75;" x="165.989366" xlink:href="#C0_0_a19732ab49" y="444.983386"/>
    </g>
    <g clip-path="url(#p4a4e70cab8)">
     <use style="fill:#cd9f91;stroke:#ffffff;stroke-width:0.75;" x="169.733786" xlink:href="#C0_0_a19732ab49" y="446.744566"/>
    </g>
    <g clip-path="url(#p4a4e70cab8)">
     <use style="fill:#cfa293;stroke:#ffffff;stroke-width:0.75;" x="173.404776" xlink:href="#C0_0_a19732ab49" y="446.379151"/>
    </g>
    <g clip-path="url(#p4a4e70cab8)">
     <use style="fill:#d0a595;stroke:#ffffff;stroke-width:0.75;" x="176.976748" xlink:href="#C0_0_a19732ab49" y="440.686175"/>
    </g>
    <g clip-path="url(#p4a4e70cab8)">
     <use style="fill:#d1a696;stroke:#ffffff;stroke-width:0.75;" x="180.532048" xlink:href="#C0_0_a19732ab49" y="436.94717"/>
    </g>
    <g clip-path="url(#p4a4e70cab8)">
     <use style="fill:#d2a997;stroke:#ffffff;stroke-width:0.75;" x="184.073105" xlink:href="#C0_0_a19732ab49" y="428.76941"/>
    </g>
    <g clip-path="url(#p4a4e70cab8)">
     <use style="fill:#d3ab99;stroke:#ffffff;stroke-width:0.75;" x="187.474423" xlink:href="#C0_0_a19732ab49" y="421.883083"/>
    </g>
    <g clip-path="url(#p4a4e70cab8)">
     <use style="fill:#d3ac9a;stroke:#ffffff;stroke-width:0.75;" x="190.833322" xlink:href="#C0_0_a19732ab49" y="424.63266"/>
    </g>
    <g clip-path="url(#p4a4e70cab8)">
     <use style="fill:#d4ae9b;stroke:#ffffff;stroke-width:0.75;" x="194.098998" xlink:href="#C0_0_a19732ab49" y="423.130625"/>
    </g>
    <g clip-path="url(#p4a4e70cab8)">
     <use style="fill:#d4af9c;stroke:#ffffff;stroke-width:0.75;" x="197.318138" xlink:href="#C0_0_a19732ab49" y="422.103388"/>
    </g>
    <g clip-path="url(#p4a4e70cab8)">
     <use style="fill:#d5b19e;stroke:#ffffff;stroke-width:0.75;" x="200.55875" xlink:href="#C0_0_a19732ab49" y="409.41901"/>
    </g>
    <g clip-path="url(#p4a4e70cab8)">
     <use style="fill:#d5b19e;stroke:#ffffff;stroke-width:0.75;" x="203.793823" xlink:href="#C0_0_a19732ab49" y="415.540295"/>
    </g>
    <g clip-path="url(#p4a4e70cab8)">
     <use style="fill:#d7b4a0;stroke:#ffffff;stroke-width:0.75;" x="207.055406" xlink:href="#C0_0_a19732ab49" y="415.973777"/>
    </g>
    <g clip-path="url(#p4a4e70cab8)">
     <use style="fill:#d7b4a0;stroke:#ffffff;stroke-width:0.75;" x="210.180326" xlink:href="#C0_0_a19732ab49" y="403.342483"/>
    </g>
    <g clip-path="url(#p4a4e70cab8)">
     <use style="fill:#d7b5a1;stroke:#ffffff;stroke-width:0.75;" x="213.310527" xlink:href="#C0_0_a19732ab49" y="408.228727"/>
    </g>
    <g clip-path="url(#p4a4e70cab8)">
     <use style="fill:#d8b6a2;stroke:#ffffff;stroke-width:0.75;" x="216.453949" xlink:href="#C0_0_a19732ab49" y="407.873917"/>
    </g>
    <g clip-path="url(#p4a4e70cab8)">
     <use style="fill:#d8b7a3;stroke:#ffffff;stroke-width:0.75;" x="219.626573" xlink:href="#C0_0_a19732ab49" y="402.087985"/>
    </g>
    <g clip-path="url(#p4a4e70cab8)">
     <use style="fill:#d9b9a4;stroke:#ffffff;stroke-width:0.75;" x="222.796661" xlink:href="#C0_0_a19732ab49" y="400.73758"/>
    </g>
    <g clip-path="url(#p4a4e70cab8)">
     <use style="fill:#d9baa5;stroke:#ffffff;stroke-width:0.75;" x="225.904199" xlink:href="#C0_0_a19732ab49" y="400.233328"/>
    </g>
    <g clip-path="url(#p4a4e70cab8)">
     <use style="fill:#d9baa5;stroke:#ffffff;stroke-width:0.75;" x="229.061719" xlink:href="#C0_0_a19732ab49" y="393.788994"/>
    </g>
    <g clip-path="url(#p4a4e70cab8)">
     <use style="fill:#dabba6;stroke:#ffffff;stroke-width:0.75;" x="232.335212" xlink:href="#C0_0_a19732ab49" y="390.690833"/>
    </g>
    <g clip-path="url(#p4a4e70cab8)">
     <use style="fill:#dabca7;stroke:#ffffff;stroke-width:0.75;" x="235.527307" xlink:href="#C0_0_a19732ab49" y="393.437552"/>
    </g>
    <g clip-path="url(#p4a4e70cab8)">
     <use style="fill:#dabca7;stroke:#ffffff;stroke-width:0.75;" x="238.692412" xlink:href="#C0_0_a19732ab49" y="381.091767"/>
    </g>
    <g clip-path="url(#p4a4e70cab8)">
     <use style="fill:#dbbea8;stroke:#ffffff;stroke-width:0.75;" x="241.964154" xlink:href="#C0_0_a19732ab49" y="379.193934"/>
    </g>
    <g clip-path="url(#p4a4e70cab8)">
     <use style="fill:#dbbfa9;stroke:#ffffff;stroke-width:0.75;" x="245.25015" xlink:href="#C0_0_a19732ab49" y="365.000337"/>
    </g>
    <g clip-path="url(#p4a4e70cab8)">
     <use style="fill:#dbbfa9;stroke:#ffffff;stroke-width:0.75;" x="248.637531" xlink:href="#C0_0_a19732ab49" y="368.288985"/>
    </g>
    <g clip-path="url(#p4a4e70cab8)">
     <use style="fill:#dbbfa9;stroke:#ffffff;stroke-width:0.75;" x="251.887094" xlink:href="#C0_0_a19732ab49" y="363.36478"/>
    </g>
    <g clip-path="url(#p4a4e70cab8)">
     <use style="fill:#dcc0ab;stroke:#ffffff;stroke-width:0.75;" x="255.309713" xlink:href="#C0_0_a19732ab49" y="357.735365"/>
    </g>
    <g clip-path="url(#p4a4e70cab8)">
     <use style="fill:#dcc1ac;stroke:#ffffff;stroke-width:0.75;" x="258.716055" xlink:href="#C0_0_a19732ab49" y="379.10135"/>
    </g>
    <g clip-path="url(#p4a4e70cab8)">
     <use style="fill:#dcc1ac;stroke:#ffffff;stroke-width:0.75;" x="262.137778" xlink:href="#C0_0_a19732ab49" y="360.0263"/>
    </g>
    <g clip-path="url(#p4a4e70cab8)">
     <use style="fill:#ddc3ad;stroke:#ffffff;stroke-width:0.75;" x="265.56683" xlink:href="#C0_0_a19732ab49" y="349.294611"/>
    </g>
    <g clip-path="url(#p4a4e70cab8)">
     <use style="fill:#ddc3ad;stroke:#ffffff;stroke-width:0.75;" x="269.073583" xlink:href="#C0_0_a19732ab49" y="352.328689"/>
    </g>
    <g clip-path="url(#p4a4e70cab8)">
     <use style="fill:#ddc3ad;stroke:#ffffff;stroke-width:0.75;" x="272.546706" xlink:href="#C0_0_a19732ab49" y="355.233944"/>
    </g>
    <g clip-path="url(#p4a4e70cab8)">
     <use style="fill:#ddc4ae;stroke:#ffffff;stroke-width:0.75;" x="276.154895" xlink:href="#C0_0_a19732ab49" y="358.591968"/>
    </g>
    <g clip-path="url(#p4a4e70cab8)">
     <use style="fill:#ddc4ae;stroke:#ffffff;stroke-width:0.75;" x="279.755237" xlink:href="#C0_0_a19732ab49" y="360.729005"/>
    </g>
    <g clip-path="url(#p4a4e70cab8)">
     <use style="fill:#dec5af;stroke:#ffffff;stroke-width:0.75;" x="283.441421" xlink:href="#C0_0_a19732ab49" y="355.544703"/>
    </g>
    <g clip-path="url(#p4a4e70cab8)">
     <use style="fill:#dec5af;stroke:#ffffff;stroke-width:0.75;" x="287.164528" xlink:href="#C0_0_a19732ab49" y="345.242902"/>
    </g>
    <g clip-path="url(#p4a4e70cab8)">
     <use style="fill:#dec6b0;stroke:#ffffff;stroke-width:0.75;" x="290.87922" xlink:href="#C0_0_a19732ab49" y="354.347506"/>
    </g>
    <g clip-path="url(#p4a4e70cab8)">
     <use style="fill:#dec6b0;stroke:#ffffff;stroke-width:0.75;" x="294.62585" xlink:href="#C0_0_a19732ab49" y="350.724744"/>
    </g>
    <g clip-path="url(#p4a4e70cab8)">
     <use style="fill:#dec6b0;stroke:#ffffff;stroke-width:0.75;" x="298.412998" xlink:href="#C0_0_a19732ab49" y="343.889606"/>
    </g>
    <g clip-path="url(#p4a4e70cab8)">
     <use style="fill:#dfc7b2;stroke:#ffffff;stroke-width:0.75;" x="302.331238" xlink:href="#C0_0_a19732ab49" y="332.318422"/>
    </g>
    <g clip-path="url(#p4a4e70cab8)">
     <use style="fill:#dfc7b2;stroke:#ffffff;stroke-width:0.75;" x="306.198456" xlink:href="#C0_0_a19732ab49" y="321.225145"/>
    </g>
    <g clip-path="url(#p4a4e70cab8)">
     <use style="fill:#dfc7b2;stroke:#ffffff;stroke-width:0.75;" x="310.149818" xlink:href="#C0_0_a19732ab49" y="328.001851"/>
    </g>
    <g clip-path="url(#p4a4e70cab8)">
     <use style="fill:#dfc9b3;stroke:#ffffff;stroke-width:0.75;" x="314.273052" xlink:href="#C0_0_a19732ab49" y="325.264277"/>
    </g>
    <g clip-path="url(#p4a4e70cab8)">
     <use style="fill:#dfc9b3;stroke:#ffffff;stroke-width:0.75;" x="318.417579" xlink:href="#C0_0_a19732ab49" y="324.613657"/>
    </g>
    <g clip-path="url(#p4a4e70cab8)">
     <use style="fill:#e0cab4;stroke:#ffffff;stroke-width:0.75;" x="322.663564" xlink:href="#C0_0_a19732ab49" y="323.077519"/>
    </g>
    <g clip-path="url(#p4a4e70cab8)">
     <use style="fill:#e0cab4;stroke:#ffffff;stroke-width:0.75;" x="327.018048" xlink:href="#C0_0_a19732ab49" y="315.029678"/>
    </g>
    <g clip-path="url(#p4a4e70cab8)">
     <use style="fill:#e0cab4;stroke:#ffffff;stroke-width:0.75;" x="331.335367" xlink:href="#C0_0_a19732ab49" y="328.880572"/>
    </g>
    <g clip-path="url(#p4a4e70cab8)">
     <use style="fill:#e0cbb5;stroke:#ffffff;stroke-width:0.75;" x="335.660621" xlink:href="#C0_0_a19732ab49" y="323.876249"/>
    </g>
    <g clip-path="url(#p4a4e70cab8)">
     <use style="fill:#e0cbb5;stroke:#ffffff;stroke-width:0.75;" x="340.314595" xlink:href="#C0_0_a19732ab49" y="314.08933"/>
    </g>
    <g clip-path="url(#p4a4e70cab8)">
     <use style="fill:#e0cbb5;stroke:#ffffff;stroke-width:0.75;" x="344.819979" xlink:href="#C0_0_a19732ab49" y="309.557791"/>
    </g>
    <g clip-path="url(#p4a4e70cab8)">
     <use style="fill:#e0cbb5;stroke:#ffffff;stroke-width:0.75;" x="349.368729" xlink:href="#C0_0_a19732ab49" y="311.659396"/>
    </g>
    <g clip-path="url(#p4a4e70cab8)">
     <use style="fill:#e1ccb6;stroke:#ffffff;stroke-width:0.75;" x="354.140186" xlink:href="#C0_0_a19732ab49" y="306.314855"/>
    </g>
    <g clip-path="url(#p4a4e70cab8)">
     <use style="fill:#e1ccb6;stroke:#ffffff;stroke-width:0.75;" x="358.926288" xlink:href="#C0_0_a19732ab49" y="298.897282"/>
    </g>
    <g clip-path="url(#p4a4e70cab8)">
     <use style="fill:#e1cdb8;stroke:#ffffff;stroke-width:0.75;" x="363.766441" xlink:href="#C0_0_a19732ab49" y="290.115178"/>
    </g>
    <g clip-path="url(#p4a4e70cab8)">
     <use style="fill:#e1cdb8;stroke:#ffffff;stroke-width:0.75;" x="368.677365" xlink:href="#C0_0_a19732ab49" y="287.22066"/>
    </g>
    <g clip-path="url(#p4a4e70cab8)">
     <use style="fill:#e1cdb8;stroke:#ffffff;stroke-width:0.75;" x="373.764215" xlink:href="#C0_0_a19732ab49" y="286.447101"/>
    </g>
    <g clip-path="url(#p4a4e70cab8)">
     <use style="fill:#e1cdb8;stroke:#ffffff;stroke-width:0.75;" x="378.999375" xlink:href="#C0_0_a19732ab49" y="277.574408"/>
    </g>
    <g clip-path="url(#p4a4e70cab8)">
     <use style="fill:#e1cdb8;stroke:#ffffff;stroke-width:0.75;" x="384.23308" xlink:href="#C0_0_a19732ab49" y="282.143868"/>
    </g>
    <g clip-path="url(#p4a4e70cab8)">
     <use style="fill:#e2cfb9;stroke:#ffffff;stroke-width:0.75;" x="389.660112" xlink:href="#C0_0_a19732ab49" y="257.834924"/>
    </g>
    <g clip-path="url(#p4a4e70cab8)">
     <use style="fill:#e2cfb9;stroke:#ffffff;stroke-width:0.75;" x="395.210744" xlink:href="#C0_0_a19732ab49" y="283.584375"/>
    </g>
    <g clip-path="url(#p4a4e70cab8)">
     <use style="fill:#e2cfb9;stroke:#ffffff;stroke-width:0.75;" x="401.035832" xlink:href="#C0_0_a19732ab49" y="279.570058"/>
    </g>
    <g clip-path="url(#p4a4e70cab8)">
     <use style="fill:#e2d0ba;stroke:#ffffff;stroke-width:0.75;" x="406.971496" xlink:href="#C0_0_a19732ab49" y="282.680142"/>
    </g>
    <g clip-path="url(#p4a4e70cab8)">
     <use style="fill:#e2d0ba;stroke:#ffffff;stroke-width:0.75;" x="413.09177" xlink:href="#C0_0_a19732ab49" y="275.905773"/>
    </g>
    <g clip-path="url(#p4a4e70cab8)">
     <use style="fill:#e2d0ba;stroke:#ffffff;stroke-width:0.75;" x="419.156332" xlink:href="#C0_0_a19732ab49" y="266.117577"/>
    </g>
    <g clip-path="url(#p4a4e70cab8)">
     <use style="fill:#e2d0ba;stroke:#ffffff;stroke-width:0.75;" x="425.499455" xlink:href="#C0_0_a19732ab49" y="279.127991"/>
    </g>
    <g clip-path="url(#p4a4e70cab8)">
     <use style="fill:#e2d0ba;stroke:#ffffff;stroke-width:0.75;" x="431.997442" xlink:href="#C0_0_a19732ab49" y="283.260599"/>
    </g>
    <g clip-path="url(#p4a4e70cab8)">
     <use style="fill:#e3d1bc;stroke:#ffffff;stroke-width:0.75;" x="438.852705" xlink:href="#C0_0_a19732ab49" y="222.871202"/>
    </g>
    <g clip-path="url(#p4a4e70cab8)">
     <use style="fill:#e3d1bc;stroke:#ffffff;stroke-width:0.75;" x="445.784809" xlink:href="#C0_0_a19732ab49" y="259.653266"/>
    </g>
    <g clip-path="url(#p4a4e70cab8)">
     <use style="fill:#e3d2bd;stroke:#ffffff;stroke-width:0.75;" x="452.876353" xlink:href="#C0_0_a19732ab49" y="261.867393"/>
    </g>
    <g clip-path="url(#p4a4e70cab8)">
     <use style="fill:#e3d2bd;stroke:#ffffff;stroke-width:0.75;" x="460.217851" xlink:href="#C0_0_a19732ab49" y="258.53214"/>
    </g>
    <g clip-path="url(#p4a4e70cab8)">
     <use style="fill:#e3d2bd;stroke:#ffffff;stroke-width:0.75;" x="467.557446" xlink:href="#C0_0_a19732ab49" y="236.180275"/>
    </g>
    <g clip-path="url(#p4a4e70cab8)">
     <use style="fill:#e4d3be;stroke:#ffffff;stroke-width:0.75;" x="475.192464" xlink:href="#C0_0_a19732ab49" y="268.45956"/>
    </g>
    <g clip-path="url(#p4a4e70cab8)">
     <use style="fill:#e4d3be;stroke:#ffffff;stroke-width:0.75;" x="483.454629" xlink:href="#C0_0_a19732ab49" y="248.740776"/>
    </g>
    <g clip-path="url(#p4a4e70cab8)">
     <use style="fill:#e4d3be;stroke:#ffffff;stroke-width:0.75;" x="491.747952" xlink:href="#C0_0_a19732ab49" y="213.641883"/>
    </g>
    <g clip-path="url(#p4a4e70cab8)">
     <use style="fill:#e4d3be;stroke:#ffffff;stroke-width:0.75;" x="500.39881" xlink:href="#C0_0_a19732ab49" y="170.707545"/>
    </g>
    <g clip-path="url(#p4a4e70cab8)">
     <use style="fill:#e4d3be;stroke:#ffffff;stroke-width:0.75;" x="509.195202" xlink:href="#C0_0_a19732ab49" y="201.046505"/>
    </g>
    <g clip-path="url(#p4a4e70cab8)">
     <use style="fill:#e4d3be;stroke:#ffffff;stroke-width:0.75;" x="518.656562" xlink:href="#C0_0_a19732ab49" y="213.699507"/>
    </g>
    <g clip-path="url(#p4a4e70cab8)">
     <use style="fill:#e4d5c0;stroke:#ffffff;stroke-width:0.75;" x="528.320399" xlink:href="#C0_0_a19732ab49" y="210.912442"/>
    </g>
    <g clip-path="url(#p4a4e70cab8)">
     <use style="fill:#e4d5c0;stroke:#ffffff;stroke-width:0.75;" x="538.552168" xlink:href="#C0_0_a19732ab49" y="204.386756"/>
    </g>
    <g clip-path="url(#p4a4e70cab8)">
     <use style="fill:#e4d5c0;stroke:#ffffff;stroke-width:0.75;" x="549.005195" xlink:href="#C0_0_a19732ab49" y="223.396071"/>
    </g>
    <g clip-path="url(#p4a4e70cab8)">
     <use style="fill:#e5d6c1;stroke:#ffffff;stroke-width:0.75;" x="560.243387" xlink:href="#C0_0_a19732ab49" y="166.408878"/>
    </g>
    <g clip-path="url(#p4a4e70cab8)">
     <use style="fill:#e5d6c1;stroke:#ffffff;stroke-width:0.75;" x="571.743853" xlink:href="#C0_0_a19732ab49" y="186.074733"/>
    </g>
    <g clip-path="url(#p4a4e70cab8)">
     <use style="fill:#e5d6c1;stroke:#ffffff;stroke-width:0.75;" x="583.921315" xlink:href="#C0_0_a19732ab49" y="159.898438"/>
    </g>
    <g clip-path="url(#p4a4e70cab8)">
     <use style="fill:#e5d6c1;stroke:#ffffff;stroke-width:0.75;" x="596.595445" xlink:href="#C0_0_a19732ab49" y="124.194085"/>
    </g>
    <g clip-path="url(#p4a4e70cab8)">
     <use style="fill:#e5d6c1;stroke:#ffffff;stroke-width:0.75;" x="610.141082" xlink:href="#C0_0_a19732ab49" y="149.020627"/>
    </g>
    <g clip-path="url(#p4a4e70cab8)">
     <use style="fill:#e5d6c1;stroke:#ffffff;stroke-width:0.75;" x="624.834571" xlink:href="#C0_0_a19732ab49" y="140.102742"/>
    </g>
    <g clip-path="url(#p4a4e70cab8)">
     <use style="fill:#e5d7c2;stroke:#ffffff;stroke-width:0.75;" x="639.998412" xlink:href="#C0_0_a19732ab49" y="119.456924"/>
    </g>
    <g clip-path="url(#p4a4e70cab8)">
     <use style="fill:#e5d7c2;stroke:#ffffff;stroke-width:0.75;" x="656.57772" xlink:href="#C0_0_a19732ab49" y="120.104294"/>
    </g>
    <g clip-path="url(#p4a4e70cab8)">
     <use style="fill:#e5d7c2;stroke:#ffffff;stroke-width:0.75;" x="673.954994" xlink:href="#C0_0_a19732ab49" y="132.521537"/>
    </g>
   </g>
  </g>
 </g>
 <defs>
  <clipPath id="p4a4e70cab8">
   <rect height="443.52" width="558" x="90" y="69.12"/>
  </clipPath>
 </defs>
</svg>
