<?xml version="1.0" encoding="utf-8" standalone="no"?>
<!DOCTYPE svg PUBLIC "-//W3C//DTD SVG 1.1//EN"
  "http://www.w3.org/Graphics/SVG/1.1/DTD/svg11.dtd">
<!-- Created with matplotlib (https://matplotlib.org/) -->
<svg height="576pt" version="1.1" viewBox="0 0 1080 576" width="1080pt" xmlns="http://www.w3.org/2000/svg" xmlns:xlink="http://www.w3.org/1999/xlink">
 <defs>
  <style type="text/css">
*{stroke-linecap:butt;stroke-linejoin:round;}
  </style>
 </defs>
 <g id="figure_1">
  <g id="patch_1">
   <path d="M 0 576 
L 1080 576 
L 1080 0 
L 0 0 
z
" style="fill:#ffffff;"/>
  </g>
  <g id="axes_1">
   <g id="patch_2">
    <path d="M 49.74 424.582 
L 957.474582 424.582 
L 957.474582 26.376 
L 49.74 26.376 
z
" style="fill:#ffffff;"/>
   </g>
   <g id="patch_3">
    <path clip-path="url(#pb3cc7587f6)" d="M 91.000663 260.867975 
L 121.564117 260.867975 
L 121.564117 301.123282 
L 91.000663 301.123282 
z
" style="fill:url(#h7fa8afa741);stroke:#ffffff;stroke-linejoin:miter;stroke-width:0.8;"/>
   </g>
   <g id="patch_4">
    <path clip-path="url(#pb3cc7587f6)" d="M 213.254479 260.867975 
L 243.817933 260.867975 
L 243.817933 294.187879 
L 213.254479 294.187879 
z
" style="fill:url(#h7fa8afa741);stroke:#ffffff;stroke-linejoin:miter;stroke-width:0.8;"/>
   </g>
   <g id="patch_5">
    <path clip-path="url(#pb3cc7587f6)" d="M 335.508294 260.867975 
L 366.071748 260.867975 
L 366.071748 297.459362 
L 335.508294 297.459362 
z
" style="fill:url(#h7fa8afa741);stroke:#ffffff;stroke-linejoin:miter;stroke-width:0.8;"/>
   </g>
   <g id="patch_6">
    <path clip-path="url(#pb3cc7587f6)" d="M 457.76211 260.867975 
L 488.325564 260.867975 
L 488.325564 274.741326 
L 457.76211 274.741326 
z
" style="fill:url(#h7fa8afa741);stroke:#ffffff;stroke-linejoin:miter;stroke-width:0.8;"/>
   </g>
   <g id="patch_7">
    <path clip-path="url(#pb3cc7587f6)" d="M 580.015926 260.867975 
L 610.57938 260.867975 
L 610.57938 240.385346 
L 580.015926 240.385346 
z
" style="fill:url(#h7fa8afa741);stroke:#ffffff;stroke-linejoin:miter;stroke-width:0.8;"/>
   </g>
   <g id="patch_8">
    <path clip-path="url(#pb3cc7587f6)" d="M 702.269742 260.867975 
L 732.833196 260.867975 
L 732.833196 218.268817 
L 702.269742 218.268817 
z
" style="fill:url(#h7fa8afa741);stroke:#ffffff;stroke-linejoin:miter;stroke-width:0.8;"/>
   </g>
   <g id="patch_9">
    <path clip-path="url(#pb3cc7587f6)" d="M 824.523558 260.867975 
L 855.087012 260.867975 
L 855.087012 316.31946 
L 824.523558 316.31946 
z
" style="fill:url(#h7fa8afa741);stroke:#ffffff;stroke-linejoin:miter;stroke-width:0.8;"/>
   </g>
   <g id="patch_10">
    <path clip-path="url(#pb3cc7587f6)" d="M 121.564117 260.867975 
L 152.127571 260.867975 
L 152.127571 299.449053 
L 121.564117 299.449053 
z
" style="fill:url(#h69a7f746dc);stroke:#ffffff;stroke-linejoin:miter;stroke-width:0.8;"/>
   </g>
   <g id="patch_11">
    <path clip-path="url(#pb3cc7587f6)" d="M 243.817933 260.867975 
L 274.381387 260.867975 
L 274.381387 290.78401 
L 243.817933 290.78401 
z
" style="fill:url(#h69a7f746dc);stroke:#ffffff;stroke-linejoin:miter;stroke-width:0.8;"/>
   </g>
   <g id="patch_12">
    <path clip-path="url(#pb3cc7587f6)" d="M 366.071748 260.867975 
L 396.635202 260.867975 
L 396.635202 298.873866 
L 366.071748 298.873866 
z
" style="fill:url(#h69a7f746dc);stroke:#ffffff;stroke-linejoin:miter;stroke-width:0.8;"/>
   </g>
   <g id="patch_13">
    <path clip-path="url(#pb3cc7587f6)" d="M 488.325564 260.867975 
L 518.889018 260.867975 
L 518.889018 274.743026 
L 488.325564 274.743026 
z
" style="fill:url(#h69a7f746dc);stroke:#ffffff;stroke-linejoin:miter;stroke-width:0.8;"/>
   </g>
   <g id="patch_14">
    <path clip-path="url(#pb3cc7587f6)" d="M 610.57938 260.867975 
L 641.142834 260.867975 
L 641.142834 238.798041 
L 610.57938 238.798041 
z
" style="fill:url(#h69a7f746dc);stroke:#ffffff;stroke-linejoin:miter;stroke-width:0.8;"/>
   </g>
   <g id="patch_15">
    <path clip-path="url(#pb3cc7587f6)" d="M 732.833196 260.867975 
L 763.39665 260.867975 
L 763.39665 217.061455 
L 732.833196 217.061455 
z
" style="fill:url(#h69a7f746dc);stroke:#ffffff;stroke-linejoin:miter;stroke-width:0.8;"/>
   </g>
   <g id="patch_16">
    <path clip-path="url(#pb3cc7587f6)" d="M 855.087012 260.867975 
L 885.650465 260.867975 
L 885.650465 317.113945 
L 855.087012 317.113945 
z
" style="fill:url(#h69a7f746dc);stroke:#ffffff;stroke-linejoin:miter;stroke-width:0.8;"/>
   </g>
   <g id="patch_17">
    <path clip-path="url(#pb3cc7587f6)" d="M 152.127571 260.867975 
L 182.691025 260.867975 
L 182.691025 389.641204 
L 152.127571 389.641204 
z
" style="fill:url(#h4a4f3382dc);stroke:#ffffff;stroke-linejoin:miter;stroke-width:0.8;"/>
   </g>
   <g id="patch_18">
    <path clip-path="url(#pb3cc7587f6)" d="M 274.381387 260.867975 
L 304.94484 260.867975 
L 304.94484 323.78521 
L 274.381387 323.78521 
z
" style="fill:url(#h4a4f3382dc);stroke:#ffffff;stroke-linejoin:miter;stroke-width:0.8;"/>
   </g>
   <g id="patch_19">
    <path clip-path="url(#pb3cc7587f6)" d="M 396.635202 260.867975 
L 427.198656 260.867975 
L 427.198656 382.057427 
L 396.635202 382.057427 
z
" style="fill:url(#h4a4f3382dc);stroke:#ffffff;stroke-linejoin:miter;stroke-width:0.8;"/>
   </g>
   <g id="patch_20">
    <path clip-path="url(#pb3cc7587f6)" d="M 518.889018 260.867975 
L 549.452472 260.867975 
L 549.452472 362.551395 
L 518.889018 362.551395 
z
" style="fill:url(#h4a4f3382dc);stroke:#ffffff;stroke-linejoin:miter;stroke-width:0.8;"/>
   </g>
   <g id="patch_21">
    <path clip-path="url(#pb3cc7587f6)" d="M 641.142834 260.867975 
L 671.706288 260.867975 
L 671.706288 151.183891 
L 641.142834 151.183891 
z
" style="fill:url(#h4a4f3382dc);stroke:#ffffff;stroke-linejoin:miter;stroke-width:0.8;"/>
   </g>
   <g id="patch_22">
    <path clip-path="url(#pb3cc7587f6)" d="M 763.39665 260.867975 
L 793.960104 260.867975 
L 793.960104 70.520102 
L 763.39665 70.520102 
z
" style="fill:url(#h4a4f3382dc);stroke:#ffffff;stroke-linejoin:miter;stroke-width:0.8;"/>
   </g>
   <g id="patch_23">
    <path clip-path="url(#pb3cc7587f6)" d="M 885.650465 260.867975 
L 916.213919 260.867975 
L 916.213919 351.36939 
L 885.650465 351.36939 
z
" style="fill:url(#h4a4f3382dc);stroke:#ffffff;stroke-linejoin:miter;stroke-width:0.8;"/>
   </g>
   <g id="matplotlib.axis_1">
    <g id="xtick_1">
     <g id="line2d_1">
      <defs>
       <path d="M 0 0 
L 0 4.8 
" id="mb5f5055f6c" style="stroke:#000000;"/>
      </defs>
      <g>
       <use style="stroke:#000000;" x="136.845844" xlink:href="#mb5f5055f6c" y="424.582"/>
      </g>
     </g>
     <g id="text_1">
      <!-- MAF_Adj_Predicted_Allele_Age -->
      <defs>
       <path d="M 9.8125 72.90625 
L 24.515625 72.90625 
L 43.109375 23.296875 
L 61.8125 72.90625 
L 76.515625 72.90625 
L 76.515625 0 
L 66.890625 0 
L 66.890625 64.015625 
L 48.09375 14.015625 
L 38.1875 14.015625 
L 19.390625 64.015625 
L 19.390625 0 
L 9.8125 0 
z
" id="DejaVuSans-77"/>
       <path d="M 34.1875 63.1875 
L 20.796875 26.90625 
L 47.609375 26.90625 
z
M 28.609375 72.90625 
L 39.796875 72.90625 
L 67.578125 0 
L 57.328125 0 
L 50.6875 18.703125 
L 17.828125 18.703125 
L 11.1875 0 
L 0.78125 0 
z
" id="DejaVuSans-65"/>
       <path d="M 9.8125 72.90625 
L 51.703125 72.90625 
L 51.703125 64.59375 
L 19.671875 64.59375 
L 19.671875 43.109375 
L 48.578125 43.109375 
L 48.578125 34.8125 
L 19.671875 34.8125 
L 19.671875 0 
L 9.8125 0 
z
" id="DejaVuSans-70"/>
       <path d="M 50.984375 -16.609375 
L 50.984375 -23.578125 
L -0.984375 -23.578125 
L -0.984375 -16.609375 
z
" id="DejaVuSans-95"/>
       <path d="M 45.40625 46.390625 
L 45.40625 75.984375 
L 54.390625 75.984375 
L 54.390625 0 
L 45.40625 0 
L 45.40625 8.203125 
Q 42.578125 3.328125 38.25 0.953125 
Q 33.9375 -1.421875 27.875 -1.421875 
Q 17.96875 -1.421875 11.734375 6.484375 
Q 5.515625 14.40625 5.515625 27.296875 
Q 5.515625 40.1875 11.734375 48.09375 
Q 17.96875 56 27.875 56 
Q 33.9375 56 38.25 53.625 
Q 42.578125 51.265625 45.40625 46.390625 
z
M 14.796875 27.296875 
Q 14.796875 17.390625 18.875 11.75 
Q 22.953125 6.109375 30.078125 6.109375 
Q 37.203125 6.109375 41.296875 11.75 
Q 45.40625 17.390625 45.40625 27.296875 
Q 45.40625 37.203125 41.296875 42.84375 
Q 37.203125 48.484375 30.078125 48.484375 
Q 22.953125 48.484375 18.875 42.84375 
Q 14.796875 37.203125 14.796875 27.296875 
z
" id="DejaVuSans-100"/>
       <path d="M 9.421875 54.6875 
L 18.40625 54.6875 
L 18.40625 -0.984375 
Q 18.40625 -11.421875 14.421875 -16.109375 
Q 10.453125 -20.796875 1.609375 -20.796875 
L -1.8125 -20.796875 
L -1.8125 -13.1875 
L 0.59375 -13.1875 
Q 5.71875 -13.1875 7.5625 -10.8125 
Q 9.421875 -8.453125 9.421875 -0.984375 
z
M 9.421875 75.984375 
L 18.40625 75.984375 
L 18.40625 64.59375 
L 9.421875 64.59375 
z
" id="DejaVuSans-106"/>
       <path d="M 19.671875 64.796875 
L 19.671875 37.40625 
L 32.078125 37.40625 
Q 38.96875 37.40625 42.71875 40.96875 
Q 46.484375 44.53125 46.484375 51.125 
Q 46.484375 57.671875 42.71875 61.234375 
Q 38.96875 64.796875 32.078125 64.796875 
z
M 9.8125 72.90625 
L 32.078125 72.90625 
Q 44.34375 72.90625 50.609375 67.359375 
Q 56.890625 61.8125 56.890625 51.125 
Q 56.890625 40.328125 50.609375 34.8125 
Q 44.34375 29.296875 32.078125 29.296875 
L 19.671875 29.296875 
L 19.671875 0 
L 9.8125 0 
z
" id="DejaVuSans-80"/>
       <path d="M 41.109375 46.296875 
Q 39.59375 47.171875 37.8125 47.578125 
Q 36.03125 48 33.890625 48 
Q 26.265625 48 22.1875 43.046875 
Q 18.109375 38.09375 18.109375 28.8125 
L 18.109375 0 
L 9.078125 0 
L 9.078125 54.6875 
L 18.109375 54.6875 
L 18.109375 46.1875 
Q 20.953125 51.171875 25.484375 53.578125 
Q 30.03125 56 36.53125 56 
Q 37.453125 56 38.578125 55.875 
Q 39.703125 55.765625 41.0625 55.515625 
z
" id="DejaVuSans-114"/>
       <path d="M 56.203125 29.59375 
L 56.203125 25.203125 
L 14.890625 25.203125 
Q 15.484375 15.921875 20.484375 11.0625 
Q 25.484375 6.203125 34.421875 6.203125 
Q 39.59375 6.203125 44.453125 7.46875 
Q 49.3125 8.734375 54.109375 11.28125 
L 54.109375 2.78125 
Q 49.265625 0.734375 44.1875 -0.34375 
Q 39.109375 -1.421875 33.890625 -1.421875 
Q 20.796875 -1.421875 13.15625 6.1875 
Q 5.515625 13.8125 5.515625 26.8125 
Q 5.515625 40.234375 12.765625 48.109375 
Q 20.015625 56 32.328125 56 
Q 43.359375 56 49.78125 48.890625 
Q 56.203125 41.796875 56.203125 29.59375 
z
M 47.21875 32.234375 
Q 47.125 39.59375 43.09375 43.984375 
Q 39.0625 48.390625 32.421875 48.390625 
Q 24.90625 48.390625 20.390625 44.140625 
Q 15.875 39.890625 15.1875 32.171875 
z
" id="DejaVuSans-101"/>
       <path d="M 9.421875 54.6875 
L 18.40625 54.6875 
L 18.40625 0 
L 9.421875 0 
z
M 9.421875 75.984375 
L 18.40625 75.984375 
L 18.40625 64.59375 
L 9.421875 64.59375 
z
" id="DejaVuSans-105"/>
       <path d="M 48.78125 52.59375 
L 48.78125 44.1875 
Q 44.96875 46.296875 41.140625 47.34375 
Q 37.3125 48.390625 33.40625 48.390625 
Q 24.65625 48.390625 19.8125 42.84375 
Q 14.984375 37.3125 14.984375 27.296875 
Q 14.984375 17.28125 19.8125 11.734375 
Q 24.65625 6.203125 33.40625 6.203125 
Q 37.3125 6.203125 41.140625 7.25 
Q 44.96875 8.296875 48.78125 10.40625 
L 48.78125 2.09375 
Q 45.015625 0.34375 40.984375 -0.53125 
Q 36.96875 -1.421875 32.421875 -1.421875 
Q 20.0625 -1.421875 12.78125 6.34375 
Q 5.515625 14.109375 5.515625 27.296875 
Q 5.515625 40.671875 12.859375 48.328125 
Q 20.21875 56 33.015625 56 
Q 37.15625 56 41.109375 55.140625 
Q 45.0625 54.296875 48.78125 52.59375 
z
" id="DejaVuSans-99"/>
       <path d="M 18.3125 70.21875 
L 18.3125 54.6875 
L 36.8125 54.6875 
L 36.8125 47.703125 
L 18.3125 47.703125 
L 18.3125 18.015625 
Q 18.3125 11.328125 20.140625 9.421875 
Q 21.96875 7.515625 27.59375 7.515625 
L 36.8125 7.515625 
L 36.8125 0 
L 27.59375 0 
Q 17.1875 0 13.234375 3.875 
Q 9.28125 7.765625 9.28125 18.015625 
L 9.28125 47.703125 
L 2.6875 47.703125 
L 2.6875 54.6875 
L 9.28125 54.6875 
L 9.28125 70.21875 
z
" id="DejaVuSans-116"/>
       <path d="M 9.421875 75.984375 
L 18.40625 75.984375 
L 18.40625 0 
L 9.421875 0 
z
" id="DejaVuSans-108"/>
       <path d="M 45.40625 27.984375 
Q 45.40625 37.75 41.375 43.109375 
Q 37.359375 48.484375 30.078125 48.484375 
Q 22.859375 48.484375 18.828125 43.109375 
Q 14.796875 37.75 14.796875 27.984375 
Q 14.796875 18.265625 18.828125 12.890625 
Q 22.859375 7.515625 30.078125 7.515625 
Q 37.359375 7.515625 41.375 12.890625 
Q 45.40625 18.265625 45.40625 27.984375 
z
M 54.390625 6.78125 
Q 54.390625 -7.171875 48.1875 -13.984375 
Q 42 -20.796875 29.203125 -20.796875 
Q 24.46875 -20.796875 20.265625 -20.09375 
Q 16.0625 -19.390625 12.109375 -17.921875 
L 12.109375 -9.1875 
Q 16.0625 -11.328125 19.921875 -12.34375 
Q 23.78125 -13.375 27.78125 -13.375 
Q 36.625 -13.375 41.015625 -8.765625 
Q 45.40625 -4.15625 45.40625 5.171875 
L 45.40625 9.625 
Q 42.625 4.78125 38.28125 2.390625 
Q 33.9375 0 27.875 0 
Q 17.828125 0 11.671875 7.65625 
Q 5.515625 15.328125 5.515625 27.984375 
Q 5.515625 40.671875 11.671875 48.328125 
Q 17.828125 56 27.875 56 
Q 33.9375 56 38.28125 53.609375 
Q 42.625 51.21875 45.40625 46.390625 
L 45.40625 54.6875 
L 54.390625 54.6875 
z
" id="DejaVuSans-103"/>
      </defs>
      <g transform="translate(139.151719 565.565375)rotate(-90)scale(0.088 -0.088)">
       <use xlink:href="#DejaVuSans-77"/>
       <use x="86.279297" xlink:href="#DejaVuSans-65"/>
       <use x="154.6875" xlink:href="#DejaVuSans-70"/>
       <use x="212.207031" xlink:href="#DejaVuSans-95"/>
       <use x="262.207031" xlink:href="#DejaVuSans-65"/>
       <use x="328.865234" xlink:href="#DejaVuSans-100"/>
       <use x="392.341797" xlink:href="#DejaVuSans-106"/>
       <use x="420.125" xlink:href="#DejaVuSans-95"/>
       <use x="470.125" xlink:href="#DejaVuSans-80"/>
       <use x="528.677734" xlink:href="#DejaVuSans-114"/>
       <use x="567.541016" xlink:href="#DejaVuSans-101"/>
       <use x="629.064453" xlink:href="#DejaVuSans-100"/>
       <use x="692.541016" xlink:href="#DejaVuSans-105"/>
       <use x="720.324219" xlink:href="#DejaVuSans-99"/>
       <use x="775.304688" xlink:href="#DejaVuSans-116"/>
       <use x="814.513672" xlink:href="#DejaVuSans-101"/>
       <use x="876.037109" xlink:href="#DejaVuSans-100"/>
       <use x="939.513672" xlink:href="#DejaVuSans-95"/>
       <use x="989.513672" xlink:href="#DejaVuSans-65"/>
       <use x="1057.921875" xlink:href="#DejaVuSans-108"/>
       <use x="1085.705078" xlink:href="#DejaVuSans-108"/>
       <use x="1113.488281" xlink:href="#DejaVuSans-101"/>
       <use x="1175.011719" xlink:href="#DejaVuSans-108"/>
       <use x="1202.794922" xlink:href="#DejaVuSans-101"/>
       <use x="1264.318359" xlink:href="#DejaVuSans-95"/>
       <use x="1314.318359" xlink:href="#DejaVuSans-65"/>
       <use x="1382.726562" xlink:href="#DejaVuSans-103"/>
       <use x="1446.203125" xlink:href="#DejaVuSans-101"/>
      </g>
     </g>
    </g>
    <g id="xtick_2">
     <g id="line2d_2">
      <g>
       <use style="stroke:#000000;" x="259.09966" xlink:href="#mb5f5055f6c" y="424.582"/>
      </g>
     </g>
     <g id="text_2">
      <!-- MAF_Adj_LLD_AFR -->
      <defs>
       <path d="M 9.8125 72.90625 
L 19.671875 72.90625 
L 19.671875 8.296875 
L 55.171875 8.296875 
L 55.171875 0 
L 9.8125 0 
z
" id="DejaVuSans-76"/>
       <path d="M 19.671875 64.796875 
L 19.671875 8.109375 
L 31.59375 8.109375 
Q 46.6875 8.109375 53.6875 14.9375 
Q 60.6875 21.78125 60.6875 36.53125 
Q 60.6875 51.171875 53.6875 57.984375 
Q 46.6875 64.796875 31.59375 64.796875 
z
M 9.8125 72.90625 
L 30.078125 72.90625 
Q 51.265625 72.90625 61.171875 64.09375 
Q 71.09375 55.28125 71.09375 36.53125 
Q 71.09375 17.671875 61.125 8.828125 
Q 51.171875 0 30.078125 0 
L 9.8125 0 
z
" id="DejaVuSans-68"/>
       <path d="M 44.390625 34.1875 
Q 47.5625 33.109375 50.5625 29.59375 
Q 53.5625 26.078125 56.59375 19.921875 
L 66.609375 0 
L 56 0 
L 46.6875 18.703125 
Q 43.0625 26.03125 39.671875 28.421875 
Q 36.28125 30.8125 30.421875 30.8125 
L 19.671875 30.8125 
L 19.671875 0 
L 9.8125 0 
L 9.8125 72.90625 
L 32.078125 72.90625 
Q 44.578125 72.90625 50.734375 67.671875 
Q 56.890625 62.453125 56.890625 51.90625 
Q 56.890625 45.015625 53.6875 40.46875 
Q 50.484375 35.9375 44.390625 34.1875 
z
M 19.671875 64.796875 
L 19.671875 38.921875 
L 32.078125 38.921875 
Q 39.203125 38.921875 42.84375 42.21875 
Q 46.484375 45.515625 46.484375 51.90625 
Q 46.484375 58.296875 42.84375 61.546875 
Q 39.203125 64.796875 32.078125 64.796875 
z
" id="DejaVuSans-82"/>
      </defs>
      <g transform="translate(261.405535 512.43125)rotate(-90)scale(0.088 -0.088)">
       <use xlink:href="#DejaVuSans-77"/>
       <use x="86.279297" xlink:href="#DejaVuSans-65"/>
       <use x="154.6875" xlink:href="#DejaVuSans-70"/>
       <use x="212.207031" xlink:href="#DejaVuSans-95"/>
       <use x="262.207031" xlink:href="#DejaVuSans-65"/>
       <use x="328.865234" xlink:href="#DejaVuSans-100"/>
       <use x="392.341797" xlink:href="#DejaVuSans-106"/>
       <use x="420.125" xlink:href="#DejaVuSans-95"/>
       <use x="470.125" xlink:href="#DejaVuSans-76"/>
       <use x="525.837891" xlink:href="#DejaVuSans-76"/>
       <use x="581.550781" xlink:href="#DejaVuSans-68"/>
       <use x="658.552734" xlink:href="#DejaVuSans-95"/>
       <use x="708.552734" xlink:href="#DejaVuSans-65"/>
       <use x="776.960938" xlink:href="#DejaVuSans-70"/>
       <use x="834.480469" xlink:href="#DejaVuSans-82"/>
      </g>
     </g>
    </g>
    <g id="xtick_3">
     <g id="line2d_3">
      <g>
       <use style="stroke:#000000;" x="381.353475" xlink:href="#mb5f5055f6c" y="424.582"/>
      </g>
     </g>
     <g id="text_3">
      <!-- Recomb_Rate_10kb -->
      <defs>
       <path d="M 30.609375 48.390625 
Q 23.390625 48.390625 19.1875 42.75 
Q 14.984375 37.109375 14.984375 27.296875 
Q 14.984375 17.484375 19.15625 11.84375 
Q 23.34375 6.203125 30.609375 6.203125 
Q 37.796875 6.203125 41.984375 11.859375 
Q 46.1875 17.53125 46.1875 27.296875 
Q 46.1875 37.015625 41.984375 42.703125 
Q 37.796875 48.390625 30.609375 48.390625 
z
M 30.609375 56 
Q 42.328125 56 49.015625 48.375 
Q 55.71875 40.765625 55.71875 27.296875 
Q 55.71875 13.875 49.015625 6.21875 
Q 42.328125 -1.421875 30.609375 -1.421875 
Q 18.84375 -1.421875 12.171875 6.21875 
Q 5.515625 13.875 5.515625 27.296875 
Q 5.515625 40.765625 12.171875 48.375 
Q 18.84375 56 30.609375 56 
z
" id="DejaVuSans-111"/>
       <path d="M 52 44.1875 
Q 55.375 50.25 60.0625 53.125 
Q 64.75 56 71.09375 56 
Q 79.640625 56 84.28125 50.015625 
Q 88.921875 44.046875 88.921875 33.015625 
L 88.921875 0 
L 79.890625 0 
L 79.890625 32.71875 
Q 79.890625 40.578125 77.09375 44.375 
Q 74.3125 48.1875 68.609375 48.1875 
Q 61.625 48.1875 57.5625 43.546875 
Q 53.515625 38.921875 53.515625 30.90625 
L 53.515625 0 
L 44.484375 0 
L 44.484375 32.71875 
Q 44.484375 40.625 41.703125 44.40625 
Q 38.921875 48.1875 33.109375 48.1875 
Q 26.21875 48.1875 22.15625 43.53125 
Q 18.109375 38.875 18.109375 30.90625 
L 18.109375 0 
L 9.078125 0 
L 9.078125 54.6875 
L 18.109375 54.6875 
L 18.109375 46.1875 
Q 21.1875 51.21875 25.484375 53.609375 
Q 29.78125 56 35.6875 56 
Q 41.65625 56 45.828125 52.96875 
Q 50 49.953125 52 44.1875 
z
" id="DejaVuSans-109"/>
       <path d="M 48.6875 27.296875 
Q 48.6875 37.203125 44.609375 42.84375 
Q 40.53125 48.484375 33.40625 48.484375 
Q 26.265625 48.484375 22.1875 42.84375 
Q 18.109375 37.203125 18.109375 27.296875 
Q 18.109375 17.390625 22.1875 11.75 
Q 26.265625 6.109375 33.40625 6.109375 
Q 40.53125 6.109375 44.609375 11.75 
Q 48.6875 17.390625 48.6875 27.296875 
z
M 18.109375 46.390625 
Q 20.953125 51.265625 25.265625 53.625 
Q 29.59375 56 35.59375 56 
Q 45.5625 56 51.78125 48.09375 
Q 58.015625 40.1875 58.015625 27.296875 
Q 58.015625 14.40625 51.78125 6.484375 
Q 45.5625 -1.421875 35.59375 -1.421875 
Q 29.59375 -1.421875 25.265625 0.953125 
Q 20.953125 3.328125 18.109375 8.203125 
L 18.109375 0 
L 9.078125 0 
L 9.078125 75.984375 
L 18.109375 75.984375 
z
" id="DejaVuSans-98"/>
       <path d="M 34.28125 27.484375 
Q 23.390625 27.484375 19.1875 25 
Q 14.984375 22.515625 14.984375 16.5 
Q 14.984375 11.71875 18.140625 8.90625 
Q 21.296875 6.109375 26.703125 6.109375 
Q 34.1875 6.109375 38.703125 11.40625 
Q 43.21875 16.703125 43.21875 25.484375 
L 43.21875 27.484375 
z
M 52.203125 31.203125 
L 52.203125 0 
L 43.21875 0 
L 43.21875 8.296875 
Q 40.140625 3.328125 35.546875 0.953125 
Q 30.953125 -1.421875 24.3125 -1.421875 
Q 15.921875 -1.421875 10.953125 3.296875 
Q 6 8.015625 6 15.921875 
Q 6 25.140625 12.171875 29.828125 
Q 18.359375 34.515625 30.609375 34.515625 
L 43.21875 34.515625 
L 43.21875 35.40625 
Q 43.21875 41.609375 39.140625 45 
Q 35.0625 48.390625 27.6875 48.390625 
Q 23 48.390625 18.546875 47.265625 
Q 14.109375 46.140625 10.015625 43.890625 
L 10.015625 52.203125 
Q 14.9375 54.109375 19.578125 55.046875 
Q 24.21875 56 28.609375 56 
Q 40.484375 56 46.34375 49.84375 
Q 52.203125 43.703125 52.203125 31.203125 
z
" id="DejaVuSans-97"/>
       <path d="M 12.40625 8.296875 
L 28.515625 8.296875 
L 28.515625 63.921875 
L 10.984375 60.40625 
L 10.984375 69.390625 
L 28.421875 72.90625 
L 38.28125 72.90625 
L 38.28125 8.296875 
L 54.390625 8.296875 
L 54.390625 0 
L 12.40625 0 
z
" id="DejaVuSans-49"/>
       <path d="M 31.78125 66.40625 
Q 24.171875 66.40625 20.328125 58.90625 
Q 16.5 51.421875 16.5 36.375 
Q 16.5 21.390625 20.328125 13.890625 
Q 24.171875 6.390625 31.78125 6.390625 
Q 39.453125 6.390625 43.28125 13.890625 
Q 47.125 21.390625 47.125 36.375 
Q 47.125 51.421875 43.28125 58.90625 
Q 39.453125 66.40625 31.78125 66.40625 
z
M 31.78125 74.21875 
Q 44.046875 74.21875 50.515625 64.515625 
Q 56.984375 54.828125 56.984375 36.375 
Q 56.984375 17.96875 50.515625 8.265625 
Q 44.046875 -1.421875 31.78125 -1.421875 
Q 19.53125 -1.421875 13.0625 8.265625 
Q 6.59375 17.96875 6.59375 36.375 
Q 6.59375 54.828125 13.0625 64.515625 
Q 19.53125 74.21875 31.78125 74.21875 
z
" id="DejaVuSans-48"/>
       <path d="M 9.078125 75.984375 
L 18.109375 75.984375 
L 18.109375 31.109375 
L 44.921875 54.6875 
L 56.390625 54.6875 
L 27.390625 29.109375 
L 57.625 0 
L 45.90625 0 
L 18.109375 26.703125 
L 18.109375 0 
L 9.078125 0 
z
" id="DejaVuSans-107"/>
      </defs>
      <g transform="translate(383.65935 519.25125)rotate(-90)scale(0.088 -0.088)">
       <use xlink:href="#DejaVuSans-82"/>
       <use x="64.982422" xlink:href="#DejaVuSans-101"/>
       <use x="126.505859" xlink:href="#DejaVuSans-99"/>
       <use x="181.486328" xlink:href="#DejaVuSans-111"/>
       <use x="242.667969" xlink:href="#DejaVuSans-109"/>
       <use x="340.080078" xlink:href="#DejaVuSans-98"/>
       <use x="403.556641" xlink:href="#DejaVuSans-95"/>
       <use x="453.556641" xlink:href="#DejaVuSans-82"/>
       <use x="520.789062" xlink:href="#DejaVuSans-97"/>
       <use x="582.068359" xlink:href="#DejaVuSans-116"/>
       <use x="621.277344" xlink:href="#DejaVuSans-101"/>
       <use x="682.800781" xlink:href="#DejaVuSans-95"/>
       <use x="732.800781" xlink:href="#DejaVuSans-49"/>
       <use x="796.423828" xlink:href="#DejaVuSans-48"/>
       <use x="860.046875" xlink:href="#DejaVuSans-107"/>
       <use x="917.957031" xlink:href="#DejaVuSans-98"/>
      </g>
     </g>
    </g>
    <g id="xtick_4">
     <g id="line2d_4">
      <g>
       <use style="stroke:#000000;" x="503.607291" xlink:href="#mb5f5055f6c" y="424.582"/>
      </g>
     </g>
     <g id="text_4">
      <!-- Nucleotide_Diversity_10kb -->
      <defs>
       <path d="M 9.8125 72.90625 
L 23.09375 72.90625 
L 55.421875 11.921875 
L 55.421875 72.90625 
L 64.984375 72.90625 
L 64.984375 0 
L 51.703125 0 
L 19.390625 60.984375 
L 19.390625 0 
L 9.8125 0 
z
" id="DejaVuSans-78"/>
       <path d="M 8.5 21.578125 
L 8.5 54.6875 
L 17.484375 54.6875 
L 17.484375 21.921875 
Q 17.484375 14.15625 20.5 10.265625 
Q 23.53125 6.390625 29.59375 6.390625 
Q 36.859375 6.390625 41.078125 11.03125 
Q 45.3125 15.671875 45.3125 23.6875 
L 45.3125 54.6875 
L 54.296875 54.6875 
L 54.296875 0 
L 45.3125 0 
L 45.3125 8.40625 
Q 42.046875 3.421875 37.71875 1 
Q 33.40625 -1.421875 27.6875 -1.421875 
Q 18.265625 -1.421875 13.375 4.4375 
Q 8.5 10.296875 8.5 21.578125 
z
M 31.109375 56 
z
" id="DejaVuSans-117"/>
       <path d="M 2.984375 54.6875 
L 12.5 54.6875 
L 29.59375 8.796875 
L 46.6875 54.6875 
L 56.203125 54.6875 
L 35.6875 0 
L 23.484375 0 
z
" id="DejaVuSans-118"/>
       <path d="M 44.28125 53.078125 
L 44.28125 44.578125 
Q 40.484375 46.53125 36.375 47.5 
Q 32.28125 48.484375 27.875 48.484375 
Q 21.1875 48.484375 17.84375 46.4375 
Q 14.5 44.390625 14.5 40.28125 
Q 14.5 37.15625 16.890625 35.375 
Q 19.28125 33.59375 26.515625 31.984375 
L 29.59375 31.296875 
Q 39.15625 29.25 43.1875 25.515625 
Q 47.21875 21.78125 47.21875 15.09375 
Q 47.21875 7.46875 41.1875 3.015625 
Q 35.15625 -1.421875 24.609375 -1.421875 
Q 20.21875 -1.421875 15.453125 -0.5625 
Q 10.6875 0.296875 5.421875 2 
L 5.421875 11.28125 
Q 10.40625 8.6875 15.234375 7.390625 
Q 20.0625 6.109375 24.8125 6.109375 
Q 31.15625 6.109375 34.5625 8.28125 
Q 37.984375 10.453125 37.984375 14.40625 
Q 37.984375 18.0625 35.515625 20.015625 
Q 33.0625 21.96875 24.703125 23.78125 
L 21.578125 24.515625 
Q 13.234375 26.265625 9.515625 29.90625 
Q 5.8125 33.546875 5.8125 39.890625 
Q 5.8125 47.609375 11.28125 51.796875 
Q 16.75 56 26.8125 56 
Q 31.78125 56 36.171875 55.265625 
Q 40.578125 54.546875 44.28125 53.078125 
z
" id="DejaVuSans-115"/>
       <path d="M 32.171875 -5.078125 
Q 28.375 -14.84375 24.75 -17.8125 
Q 21.140625 -20.796875 15.09375 -20.796875 
L 7.90625 -20.796875 
L 7.90625 -13.28125 
L 13.1875 -13.28125 
Q 16.890625 -13.28125 18.9375 -11.515625 
Q 21 -9.765625 23.484375 -3.21875 
L 25.09375 0.875 
L 2.984375 54.6875 
L 12.5 54.6875 
L 29.59375 11.921875 
L 46.6875 54.6875 
L 56.203125 54.6875 
z
" id="DejaVuSans-121"/>
      </defs>
      <g transform="translate(505.913166 549.8505)rotate(-90)scale(0.088 -0.088)">
       <use xlink:href="#DejaVuSans-78"/>
       <use x="74.804688" xlink:href="#DejaVuSans-117"/>
       <use x="138.183594" xlink:href="#DejaVuSans-99"/>
       <use x="193.164062" xlink:href="#DejaVuSans-108"/>
       <use x="220.947266" xlink:href="#DejaVuSans-101"/>
       <use x="282.470703" xlink:href="#DejaVuSans-111"/>
       <use x="343.652344" xlink:href="#DejaVuSans-116"/>
       <use x="382.861328" xlink:href="#DejaVuSans-105"/>
       <use x="410.644531" xlink:href="#DejaVuSans-100"/>
       <use x="474.121094" xlink:href="#DejaVuSans-101"/>
       <use x="535.644531" xlink:href="#DejaVuSans-95"/>
       <use x="585.644531" xlink:href="#DejaVuSans-68"/>
       <use x="662.646484" xlink:href="#DejaVuSans-105"/>
       <use x="690.429688" xlink:href="#DejaVuSans-118"/>
       <use x="749.609375" xlink:href="#DejaVuSans-101"/>
       <use x="811.132812" xlink:href="#DejaVuSans-114"/>
       <use x="852.246094" xlink:href="#DejaVuSans-115"/>
       <use x="904.345703" xlink:href="#DejaVuSans-105"/>
       <use x="932.128906" xlink:href="#DejaVuSans-116"/>
       <use x="971.337891" xlink:href="#DejaVuSans-121"/>
       <use x="1030.517578" xlink:href="#DejaVuSans-95"/>
       <use x="1080.517578" xlink:href="#DejaVuSans-49"/>
       <use x="1144.140625" xlink:href="#DejaVuSans-48"/>
       <use x="1207.763672" xlink:href="#DejaVuSans-107"/>
       <use x="1265.673828" xlink:href="#DejaVuSans-98"/>
      </g>
     </g>
    </g>
    <g id="xtick_5">
     <g id="line2d_5">
      <g>
       <use style="stroke:#000000;" x="625.861107" xlink:href="#mb5f5055f6c" y="424.582"/>
      </g>
     </g>
     <g id="text_5">
      <!-- Backgrd_Selection_Stat -->
      <defs>
       <path d="M 19.671875 34.8125 
L 19.671875 8.109375 
L 35.5 8.109375 
Q 43.453125 8.109375 47.28125 11.40625 
Q 51.125 14.703125 51.125 21.484375 
Q 51.125 28.328125 47.28125 31.5625 
Q 43.453125 34.8125 35.5 34.8125 
z
M 19.671875 64.796875 
L 19.671875 42.828125 
L 34.28125 42.828125 
Q 41.5 42.828125 45.03125 45.53125 
Q 48.578125 48.25 48.578125 53.8125 
Q 48.578125 59.328125 45.03125 62.0625 
Q 41.5 64.796875 34.28125 64.796875 
z
M 9.8125 72.90625 
L 35.015625 72.90625 
Q 46.296875 72.90625 52.390625 68.21875 
Q 58.5 63.53125 58.5 54.890625 
Q 58.5 48.1875 55.375 44.234375 
Q 52.25 40.28125 46.1875 39.3125 
Q 53.46875 37.75 57.5 32.78125 
Q 61.53125 27.828125 61.53125 20.40625 
Q 61.53125 10.640625 54.890625 5.3125 
Q 48.25 0 35.984375 0 
L 9.8125 0 
z
" id="DejaVuSans-66"/>
       <path d="M 53.515625 70.515625 
L 53.515625 60.890625 
Q 47.90625 63.578125 42.921875 64.890625 
Q 37.9375 66.21875 33.296875 66.21875 
Q 25.25 66.21875 20.875 63.09375 
Q 16.5 59.96875 16.5 54.203125 
Q 16.5 49.359375 19.40625 46.890625 
Q 22.3125 44.4375 30.421875 42.921875 
L 36.375 41.703125 
Q 47.40625 39.59375 52.65625 34.296875 
Q 57.90625 29 57.90625 20.125 
Q 57.90625 9.515625 50.796875 4.046875 
Q 43.703125 -1.421875 29.984375 -1.421875 
Q 24.8125 -1.421875 18.96875 -0.25 
Q 13.140625 0.921875 6.890625 3.21875 
L 6.890625 13.375 
Q 12.890625 10.015625 18.65625 8.296875 
Q 24.421875 6.59375 29.984375 6.59375 
Q 38.421875 6.59375 43.015625 9.90625 
Q 47.609375 13.234375 47.609375 19.390625 
Q 47.609375 24.75 44.3125 27.78125 
Q 41.015625 30.8125 33.5 32.328125 
L 27.484375 33.5 
Q 16.453125 35.6875 11.515625 40.375 
Q 6.59375 45.0625 6.59375 53.421875 
Q 6.59375 63.09375 13.40625 68.65625 
Q 20.21875 74.21875 32.171875 74.21875 
Q 37.3125 74.21875 42.625 73.28125 
Q 47.953125 72.359375 53.515625 70.515625 
z
" id="DejaVuSans-83"/>
       <path d="M 54.890625 33.015625 
L 54.890625 0 
L 45.90625 0 
L 45.90625 32.71875 
Q 45.90625 40.484375 42.875 44.328125 
Q 39.84375 48.1875 33.796875 48.1875 
Q 26.515625 48.1875 22.3125 43.546875 
Q 18.109375 38.921875 18.109375 30.90625 
L 18.109375 0 
L 9.078125 0 
L 9.078125 54.6875 
L 18.109375 54.6875 
L 18.109375 46.1875 
Q 21.34375 51.125 25.703125 53.5625 
Q 30.078125 56 35.796875 56 
Q 45.21875 56 50.046875 50.171875 
Q 54.890625 44.34375 54.890625 33.015625 
z
" id="DejaVuSans-110"/>
      </defs>
      <g transform="translate(628.166982 536.118375)rotate(-90)scale(0.088 -0.088)">
       <use xlink:href="#DejaVuSans-66"/>
       <use x="68.603516" xlink:href="#DejaVuSans-97"/>
       <use x="129.882812" xlink:href="#DejaVuSans-99"/>
       <use x="184.863281" xlink:href="#DejaVuSans-107"/>
       <use x="242.773438" xlink:href="#DejaVuSans-103"/>
       <use x="306.25" xlink:href="#DejaVuSans-114"/>
       <use x="345.613281" xlink:href="#DejaVuSans-100"/>
       <use x="409.089844" xlink:href="#DejaVuSans-95"/>
       <use x="459.089844" xlink:href="#DejaVuSans-83"/>
       <use x="522.566406" xlink:href="#DejaVuSans-101"/>
       <use x="584.089844" xlink:href="#DejaVuSans-108"/>
       <use x="611.873047" xlink:href="#DejaVuSans-101"/>
       <use x="673.396484" xlink:href="#DejaVuSans-99"/>
       <use x="728.376953" xlink:href="#DejaVuSans-116"/>
       <use x="767.585938" xlink:href="#DejaVuSans-105"/>
       <use x="795.369141" xlink:href="#DejaVuSans-111"/>
       <use x="856.550781" xlink:href="#DejaVuSans-110"/>
       <use x="919.929688" xlink:href="#DejaVuSans-95"/>
       <use x="969.929688" xlink:href="#DejaVuSans-83"/>
       <use x="1033.40625" xlink:href="#DejaVuSans-116"/>
       <use x="1072.615234" xlink:href="#DejaVuSans-97"/>
       <use x="1133.894531" xlink:href="#DejaVuSans-116"/>
      </g>
     </g>
    </g>
    <g id="xtick_6">
     <g id="line2d_6">
      <g>
       <use style="stroke:#000000;" x="748.114923" xlink:href="#mb5f5055f6c" y="424.582"/>
      </g>
     </g>
     <g id="text_6">
      <!-- CpG_Content_50kb -->
      <defs>
       <path d="M 64.40625 67.28125 
L 64.40625 56.890625 
Q 59.421875 61.53125 53.78125 63.8125 
Q 48.140625 66.109375 41.796875 66.109375 
Q 29.296875 66.109375 22.65625 58.46875 
Q 16.015625 50.828125 16.015625 36.375 
Q 16.015625 21.96875 22.65625 14.328125 
Q 29.296875 6.6875 41.796875 6.6875 
Q 48.140625 6.6875 53.78125 8.984375 
Q 59.421875 11.28125 64.40625 15.921875 
L 64.40625 5.609375 
Q 59.234375 2.09375 53.4375 0.328125 
Q 47.65625 -1.421875 41.21875 -1.421875 
Q 24.65625 -1.421875 15.125 8.703125 
Q 5.609375 18.84375 5.609375 36.375 
Q 5.609375 53.953125 15.125 64.078125 
Q 24.65625 74.21875 41.21875 74.21875 
Q 47.75 74.21875 53.53125 72.484375 
Q 59.328125 70.75 64.40625 67.28125 
z
" id="DejaVuSans-67"/>
       <path d="M 18.109375 8.203125 
L 18.109375 -20.796875 
L 9.078125 -20.796875 
L 9.078125 54.6875 
L 18.109375 54.6875 
L 18.109375 46.390625 
Q 20.953125 51.265625 25.265625 53.625 
Q 29.59375 56 35.59375 56 
Q 45.5625 56 51.78125 48.09375 
Q 58.015625 40.1875 58.015625 27.296875 
Q 58.015625 14.40625 51.78125 6.484375 
Q 45.5625 -1.421875 35.59375 -1.421875 
Q 29.59375 -1.421875 25.265625 0.953125 
Q 20.953125 3.328125 18.109375 8.203125 
z
M 48.6875 27.296875 
Q 48.6875 37.203125 44.609375 42.84375 
Q 40.53125 48.484375 33.40625 48.484375 
Q 26.265625 48.484375 22.1875 42.84375 
Q 18.109375 37.203125 18.109375 27.296875 
Q 18.109375 17.390625 22.1875 11.75 
Q 26.265625 6.109375 33.40625 6.109375 
Q 40.53125 6.109375 44.609375 11.75 
Q 48.6875 17.390625 48.6875 27.296875 
z
" id="DejaVuSans-112"/>
       <path d="M 59.515625 10.40625 
L 59.515625 29.984375 
L 43.40625 29.984375 
L 43.40625 38.09375 
L 69.28125 38.09375 
L 69.28125 6.78125 
Q 63.578125 2.734375 56.6875 0.65625 
Q 49.8125 -1.421875 42 -1.421875 
Q 24.90625 -1.421875 15.25 8.5625 
Q 5.609375 18.5625 5.609375 36.375 
Q 5.609375 54.25 15.25 64.234375 
Q 24.90625 74.21875 42 74.21875 
Q 49.125 74.21875 55.546875 72.453125 
Q 61.96875 70.703125 67.390625 67.28125 
L 67.390625 56.78125 
Q 61.921875 61.421875 55.765625 63.765625 
Q 49.609375 66.109375 42.828125 66.109375 
Q 29.4375 66.109375 22.71875 58.640625 
Q 16.015625 51.171875 16.015625 36.375 
Q 16.015625 21.625 22.71875 14.15625 
Q 29.4375 6.6875 42.828125 6.6875 
Q 48.046875 6.6875 52.140625 7.59375 
Q 56.25 8.5 59.515625 10.40625 
z
" id="DejaVuSans-71"/>
       <path d="M 10.796875 72.90625 
L 49.515625 72.90625 
L 49.515625 64.59375 
L 19.828125 64.59375 
L 19.828125 46.734375 
Q 21.96875 47.46875 24.109375 47.828125 
Q 26.265625 48.1875 28.421875 48.1875 
Q 40.625 48.1875 47.75 41.5 
Q 54.890625 34.8125 54.890625 23.390625 
Q 54.890625 11.625 47.5625 5.09375 
Q 40.234375 -1.421875 26.90625 -1.421875 
Q 22.3125 -1.421875 17.546875 -0.640625 
Q 12.796875 0.140625 7.71875 1.703125 
L 7.71875 11.625 
Q 12.109375 9.234375 16.796875 8.0625 
Q 21.484375 6.890625 26.703125 6.890625 
Q 35.15625 6.890625 40.078125 11.328125 
Q 45.015625 15.765625 45.015625 23.390625 
Q 45.015625 31 40.078125 35.4375 
Q 35.15625 39.890625 26.703125 39.890625 
Q 22.75 39.890625 18.8125 39.015625 
Q 14.890625 38.140625 10.796875 36.28125 
z
" id="DejaVuSans-53"/>
      </defs>
      <g transform="translate(750.420798 517.110375)rotate(-90)scale(0.088 -0.088)">
       <use xlink:href="#DejaVuSans-67"/>
       <use x="69.824219" xlink:href="#DejaVuSans-112"/>
       <use x="133.300781" xlink:href="#DejaVuSans-71"/>
       <use x="210.791016" xlink:href="#DejaVuSans-95"/>
       <use x="260.791016" xlink:href="#DejaVuSans-67"/>
       <use x="330.615234" xlink:href="#DejaVuSans-111"/>
       <use x="391.796875" xlink:href="#DejaVuSans-110"/>
       <use x="455.175781" xlink:href="#DejaVuSans-116"/>
       <use x="494.384766" xlink:href="#DejaVuSans-101"/>
       <use x="555.908203" xlink:href="#DejaVuSans-110"/>
       <use x="619.287109" xlink:href="#DejaVuSans-116"/>
       <use x="658.496094" xlink:href="#DejaVuSans-95"/>
       <use x="708.496094" xlink:href="#DejaVuSans-53"/>
       <use x="772.119141" xlink:href="#DejaVuSans-48"/>
       <use x="835.742188" xlink:href="#DejaVuSans-107"/>
       <use x="893.652344" xlink:href="#DejaVuSans-98"/>
      </g>
     </g>
    </g>
    <g id="xtick_7">
     <g id="line2d_7">
      <g>
       <use style="stroke:#000000;" x="870.368738" xlink:href="#mb5f5055f6c" y="424.582"/>
      </g>
     </g>
     <g id="text_7">
      <!-- MAF_Adj_ASMC -->
      <g transform="translate(872.674613 499.597)rotate(-90)scale(0.088 -0.088)">
       <use xlink:href="#DejaVuSans-77"/>
       <use x="86.279297" xlink:href="#DejaVuSans-65"/>
       <use x="154.6875" xlink:href="#DejaVuSans-70"/>
       <use x="212.207031" xlink:href="#DejaVuSans-95"/>
       <use x="262.207031" xlink:href="#DejaVuSans-65"/>
       <use x="328.865234" xlink:href="#DejaVuSans-100"/>
       <use x="392.341797" xlink:href="#DejaVuSans-106"/>
       <use x="420.125" xlink:href="#DejaVuSans-95"/>
       <use x="470.125" xlink:href="#DejaVuSans-65"/>
       <use x="538.533203" xlink:href="#DejaVuSans-83"/>
       <use x="602.009766" xlink:href="#DejaVuSans-77"/>
       <use x="688.289062" xlink:href="#DejaVuSans-67"/>
      </g>
     </g>
    </g>
   </g>
   <g id="matplotlib.axis_2">
    <g id="ytick_1">
     <g id="line2d_8">
      <defs>
       <path d="M 0 0 
L -4.8 0 
" id="m08689dbb8c" style="stroke:#000000;"/>
      </defs>
      <g>
       <use style="stroke:#000000;" x="49.74" xlink:href="#m08689dbb8c" y="403.640562"/>
      </g>
     </g>
     <g id="text_8">
      <!-- −6 -->
      <defs>
       <path d="M 10.59375 35.5 
L 73.1875 35.5 
L 73.1875 27.203125 
L 10.59375 27.203125 
z
" id="DejaVuSans-8722"/>
       <path d="M 33.015625 40.375 
Q 26.375 40.375 22.484375 35.828125 
Q 18.609375 31.296875 18.609375 23.390625 
Q 18.609375 15.53125 22.484375 10.953125 
Q 26.375 6.390625 33.015625 6.390625 
Q 39.65625 6.390625 43.53125 10.953125 
Q 47.40625 15.53125 47.40625 23.390625 
Q 47.40625 31.296875 43.53125 35.828125 
Q 39.65625 40.375 33.015625 40.375 
z
M 52.59375 71.296875 
L 52.59375 62.3125 
Q 48.875 64.0625 45.09375 64.984375 
Q 41.3125 65.921875 37.59375 65.921875 
Q 27.828125 65.921875 22.671875 59.328125 
Q 17.53125 52.734375 16.796875 39.40625 
Q 19.671875 43.65625 24.015625 45.921875 
Q 28.375 48.1875 33.59375 48.1875 
Q 44.578125 48.1875 50.953125 41.515625 
Q 57.328125 34.859375 57.328125 23.390625 
Q 57.328125 12.15625 50.6875 5.359375 
Q 44.046875 -1.421875 33.015625 -1.421875 
Q 20.359375 -1.421875 13.671875 8.265625 
Q 6.984375 17.96875 6.984375 36.375 
Q 6.984375 53.65625 15.1875 63.9375 
Q 23.390625 74.21875 37.203125 74.21875 
Q 40.921875 74.21875 44.703125 73.484375 
Q 48.484375 72.75 52.59375 71.296875 
z
" id="DejaVuSans-54"/>
      </defs>
      <g transform="translate(28.466875 406.983874)scale(0.088 -0.088)">
       <use xlink:href="#DejaVuSans-8722"/>
       <use x="83.789062" xlink:href="#DejaVuSans-54"/>
      </g>
     </g>
    </g>
    <g id="ytick_2">
     <g id="line2d_9">
      <g>
       <use style="stroke:#000000;" x="49.74" xlink:href="#m08689dbb8c" y="356.049699"/>
      </g>
     </g>
     <g id="text_9">
      <!-- −4 -->
      <defs>
       <path d="M 37.796875 64.3125 
L 12.890625 25.390625 
L 37.796875 25.390625 
z
M 35.203125 72.90625 
L 47.609375 72.90625 
L 47.609375 25.390625 
L 58.015625 25.390625 
L 58.015625 17.1875 
L 47.609375 17.1875 
L 47.609375 0 
L 37.796875 0 
L 37.796875 17.1875 
L 4.890625 17.1875 
L 4.890625 26.703125 
z
" id="DejaVuSans-52"/>
      </defs>
      <g transform="translate(28.466875 359.393012)scale(0.088 -0.088)">
       <use xlink:href="#DejaVuSans-8722"/>
       <use x="83.789062" xlink:href="#DejaVuSans-52"/>
      </g>
     </g>
    </g>
    <g id="ytick_3">
     <g id="line2d_10">
      <g>
       <use style="stroke:#000000;" x="49.74" xlink:href="#m08689dbb8c" y="308.458837"/>
      </g>
     </g>
     <g id="text_10">
      <!-- −2 -->
      <defs>
       <path d="M 19.1875 8.296875 
L 53.609375 8.296875 
L 53.609375 0 
L 7.328125 0 
L 7.328125 8.296875 
Q 12.9375 14.109375 22.625 23.890625 
Q 32.328125 33.6875 34.8125 36.53125 
Q 39.546875 41.84375 41.421875 45.53125 
Q 43.3125 49.21875 43.3125 52.78125 
Q 43.3125 58.59375 39.234375 62.25 
Q 35.15625 65.921875 28.609375 65.921875 
Q 23.96875 65.921875 18.8125 64.3125 
Q 13.671875 62.703125 7.8125 59.421875 
L 7.8125 69.390625 
Q 13.765625 71.78125 18.9375 73 
Q 24.125 74.21875 28.421875 74.21875 
Q 39.75 74.21875 46.484375 68.546875 
Q 53.21875 62.890625 53.21875 53.421875 
Q 53.21875 48.921875 51.53125 44.890625 
Q 49.859375 40.875 45.40625 35.40625 
Q 44.1875 33.984375 37.640625 27.21875 
Q 31.109375 20.453125 19.1875 8.296875 
z
" id="DejaVuSans-50"/>
      </defs>
      <g transform="translate(28.466875 311.80215)scale(0.088 -0.088)">
       <use xlink:href="#DejaVuSans-8722"/>
       <use x="83.789062" xlink:href="#DejaVuSans-50"/>
      </g>
     </g>
    </g>
    <g id="ytick_4">
     <g id="line2d_11">
      <g>
       <use style="stroke:#000000;" x="49.74" xlink:href="#m08689dbb8c" y="260.867975"/>
      </g>
     </g>
     <g id="text_11">
      <!-- 0 -->
      <g transform="translate(35.841 264.211287)scale(0.088 -0.088)">
       <use xlink:href="#DejaVuSans-48"/>
      </g>
     </g>
    </g>
    <g id="ytick_5">
     <g id="line2d_12">
      <g>
       <use style="stroke:#000000;" x="49.74" xlink:href="#m08689dbb8c" y="213.277112"/>
      </g>
     </g>
     <g id="text_12">
      <!-- 2 -->
      <g transform="translate(35.841 216.620425)scale(0.088 -0.088)">
       <use xlink:href="#DejaVuSans-50"/>
      </g>
     </g>
    </g>
    <g id="ytick_6">
     <g id="line2d_13">
      <g>
       <use style="stroke:#000000;" x="49.74" xlink:href="#m08689dbb8c" y="165.68625"/>
      </g>
     </g>
     <g id="text_13">
      <!-- 4 -->
      <g transform="translate(35.841 169.029562)scale(0.088 -0.088)">
       <use xlink:href="#DejaVuSans-52"/>
      </g>
     </g>
    </g>
    <g id="ytick_7">
     <g id="line2d_14">
      <g>
       <use style="stroke:#000000;" x="49.74" xlink:href="#m08689dbb8c" y="118.095388"/>
      </g>
     </g>
     <g id="text_14">
      <!-- 6 -->
      <g transform="translate(35.841 121.4387)scale(0.088 -0.088)">
       <use xlink:href="#DejaVuSans-54"/>
      </g>
     </g>
    </g>
    <g id="ytick_8">
     <g id="line2d_15">
      <g>
       <use style="stroke:#000000;" x="49.74" xlink:href="#m08689dbb8c" y="70.504525"/>
      </g>
     </g>
     <g id="text_15">
      <!-- 8 -->
      <defs>
       <path d="M 31.78125 34.625 
Q 24.75 34.625 20.71875 30.859375 
Q 16.703125 27.09375 16.703125 20.515625 
Q 16.703125 13.921875 20.71875 10.15625 
Q 24.75 6.390625 31.78125 6.390625 
Q 38.8125 6.390625 42.859375 10.171875 
Q 46.921875 13.96875 46.921875 20.515625 
Q 46.921875 27.09375 42.890625 30.859375 
Q 38.875 34.625 31.78125 34.625 
z
M 21.921875 38.8125 
Q 15.578125 40.375 12.03125 44.71875 
Q 8.5 49.078125 8.5 55.328125 
Q 8.5 64.0625 14.71875 69.140625 
Q 20.953125 74.21875 31.78125 74.21875 
Q 42.671875 74.21875 48.875 69.140625 
Q 55.078125 64.0625 55.078125 55.328125 
Q 55.078125 49.078125 51.53125 44.71875 
Q 48 40.375 41.703125 38.8125 
Q 48.828125 37.15625 52.796875 32.3125 
Q 56.78125 27.484375 56.78125 20.515625 
Q 56.78125 9.90625 50.3125 4.234375 
Q 43.84375 -1.421875 31.78125 -1.421875 
Q 19.734375 -1.421875 13.25 4.234375 
Q 6.78125 9.90625 6.78125 20.515625 
Q 6.78125 27.484375 10.78125 32.3125 
Q 14.796875 37.15625 21.921875 38.8125 
z
M 18.3125 54.390625 
Q 18.3125 48.734375 21.84375 45.5625 
Q 25.390625 42.390625 31.78125 42.390625 
Q 38.140625 42.390625 41.71875 45.5625 
Q 45.3125 48.734375 45.3125 54.390625 
Q 45.3125 60.0625 41.71875 63.234375 
Q 38.140625 66.40625 31.78125 66.40625 
Q 25.390625 66.40625 21.84375 63.234375 
Q 18.3125 60.0625 18.3125 54.390625 
z
" id="DejaVuSans-56"/>
      </defs>
      <g transform="translate(35.841 73.847838)scale(0.088 -0.088)">
       <use xlink:href="#DejaVuSans-56"/>
      </g>
     </g>
    </g>
    <g id="text_16">
     <!-- Meta-analyzed $\tau^*$ (x 0.1) -->
     <defs>
      <path d="M 4.890625 31.390625 
L 31.203125 31.390625 
L 31.203125 23.390625 
L 4.890625 23.390625 
z
" id="DejaVuSans-45"/>
      <path d="M 5.515625 54.6875 
L 48.1875 54.6875 
L 48.1875 46.484375 
L 14.40625 7.171875 
L 48.1875 7.171875 
L 48.1875 0 
L 4.296875 0 
L 4.296875 8.203125 
L 38.09375 47.515625 
L 5.515625 47.515625 
z
" id="DejaVuSans-122"/>
      <path id="DejaVuSans-32"/>
      <path d="M 32.859375 9.96875 
Q 34.1875 7.625 39.453125 7.625 
L 43.75 7.625 
L 42.28125 0 
L 36.921875 0 
Q 28.125 0 25 4.6875 
Q 21.921875 9.46875 23.96875 19.828125 
L 29 45.703125 
L 8.453125 45.703125 
L 10.203125 54.6875 
L 60.640625 54.6875 
L 58.890625 45.703125 
L 38.1875 45.703125 
L 33.015625 19.28125 
Q 31.640625 12.203125 32.859375 9.96875 
z
" id="DejaVuSans-Oblique-964"/>
      <path d="M 47.015625 60.890625 
L 29.5 51.421875 
L 47.015625 41.890625 
L 44.1875 37.109375 
L 27.78125 47.015625 
L 27.78125 28.609375 
L 22.21875 28.609375 
L 22.21875 47.015625 
L 5.8125 37.109375 
L 2.984375 41.890625 
L 20.515625 51.421875 
L 2.984375 60.890625 
L 5.8125 65.71875 
L 22.21875 55.8125 
L 22.21875 74.21875 
L 27.78125 74.21875 
L 27.78125 55.8125 
L 44.1875 65.71875 
z
" id="DejaVuSans-42"/>
      <path d="M 31 75.875 
Q 24.46875 64.65625 21.28125 53.65625 
Q 18.109375 42.671875 18.109375 31.390625 
Q 18.109375 20.125 21.3125 9.0625 
Q 24.515625 -2 31 -13.1875 
L 23.1875 -13.1875 
Q 15.875 -1.703125 12.234375 9.375 
Q 8.59375 20.453125 8.59375 31.390625 
Q 8.59375 42.28125 12.203125 53.3125 
Q 15.828125 64.359375 23.1875 75.875 
z
" id="DejaVuSans-40"/>
      <path d="M 54.890625 54.6875 
L 35.109375 28.078125 
L 55.90625 0 
L 45.3125 0 
L 29.390625 21.484375 
L 13.484375 0 
L 2.875 0 
L 24.125 28.609375 
L 4.6875 54.6875 
L 15.28125 54.6875 
L 29.78125 35.203125 
L 44.28125 54.6875 
z
" id="DejaVuSans-120"/>
      <path d="M 10.6875 12.40625 
L 21 12.40625 
L 21 0 
L 10.6875 0 
z
" id="DejaVuSans-46"/>
      <path d="M 8.015625 75.875 
L 15.828125 75.875 
Q 23.140625 64.359375 26.78125 53.3125 
Q 30.421875 42.28125 30.421875 31.390625 
Q 30.421875 20.453125 26.78125 9.375 
Q 23.140625 -1.703125 15.828125 -13.1875 
L 8.015625 -13.1875 
Q 14.5 -2 17.703125 9.0625 
Q 20.90625 20.125 20.90625 31.390625 
Q 20.90625 42.671875 17.703125 53.65625 
Q 14.5 64.65625 8.015625 75.875 
z
" id="DejaVuSans-41"/>
     </defs>
     <g transform="translate(22.450875 285.815)rotate(-90)scale(0.096 -0.096)">
      <use transform="translate(0 0.765625)" xlink:href="#DejaVuSans-77"/>
      <use transform="translate(86.279297 0.765625)" xlink:href="#DejaVuSans-101"/>
      <use transform="translate(147.802734 0.765625)" xlink:href="#DejaVuSans-116"/>
      <use transform="translate(187.011719 0.765625)" xlink:href="#DejaVuSans-97"/>
      <use transform="translate(248.291016 0.765625)" xlink:href="#DejaVuSans-45"/>
      <use transform="translate(284.375 0.765625)" xlink:href="#DejaVuSans-97"/>
      <use transform="translate(345.654297 0.765625)" xlink:href="#DejaVuSans-110"/>
      <use transform="translate(409.033203 0.765625)" xlink:href="#DejaVuSans-97"/>
      <use transform="translate(470.3125 0.765625)" xlink:href="#DejaVuSans-108"/>
      <use transform="translate(498.095703 0.765625)" xlink:href="#DejaVuSans-121"/>
      <use transform="translate(557.275391 0.765625)" xlink:href="#DejaVuSans-122"/>
      <use transform="translate(609.765625 0.765625)" xlink:href="#DejaVuSans-101"/>
      <use transform="translate(671.289062 0.765625)" xlink:href="#DejaVuSans-100"/>
      <use transform="translate(734.765625 0.765625)" xlink:href="#DejaVuSans-32"/>
      <use transform="translate(766.552734 0.765625)" xlink:href="#DejaVuSans-Oblique-964"/>
      <use transform="translate(844.861654 39.046875)scale(0.7)" xlink:href="#DejaVuSans-42"/>
      <use transform="translate(896.233724 0.765625)" xlink:href="#DejaVuSans-32"/>
      <use transform="translate(928.020833 0.765625)" xlink:href="#DejaVuSans-40"/>
      <use transform="translate(967.034505 0.765625)" xlink:href="#DejaVuSans-120"/>
      <use transform="translate(1026.214193 0.765625)" xlink:href="#DejaVuSans-32"/>
      <use transform="translate(1058.001302 0.765625)" xlink:href="#DejaVuSans-48"/>
      <use transform="translate(1121.624349 0.765625)" xlink:href="#DejaVuSans-46"/>
      <use transform="translate(1153.411458 0.765625)" xlink:href="#DejaVuSans-49"/>
      <use transform="translate(1217.034505 0.765625)" xlink:href="#DejaVuSans-41"/>
     </g>
    </g>
   </g>
   <g id="LineCollection_1">
    <path clip-path="url(#pb3cc7587f6)" d="M 106.28239 306.885319 
L 106.28239 295.361244 
" style="fill:none;stroke:#000000;"/>
    <path clip-path="url(#pb3cc7587f6)" d="M 228.536206 298.207757 
L 228.536206 290.168002 
" style="fill:none;stroke:#000000;"/>
    <path clip-path="url(#pb3cc7587f6)" d="M 350.790021 300.189833 
L 350.790021 294.72889 
" style="fill:none;stroke:#000000;"/>
    <path clip-path="url(#pb3cc7587f6)" d="M 473.043837 278.218463 
L 473.043837 271.26419 
" style="fill:none;stroke:#000000;"/>
    <path clip-path="url(#pb3cc7587f6)" d="M 595.297653 244.420854 
L 595.297653 236.349837 
" style="fill:none;stroke:#000000;"/>
    <path clip-path="url(#pb3cc7587f6)" d="M 717.551469 226.076675 
L 717.551469 210.46096 
" style="fill:none;stroke:#000000;"/>
    <path clip-path="url(#pb3cc7587f6)" d="M 839.805285 321.908716 
L 839.805285 310.730203 
" style="fill:none;stroke:#000000;"/>
   </g>
   <g id="LineCollection_2">
    <path clip-path="url(#pb3cc7587f6)" d="M 136.845844 304.884982 
L 136.845844 294.013124 
" style="fill:none;stroke:#000000;"/>
    <path clip-path="url(#pb3cc7587f6)" d="M 259.09966 294.825034 
L 259.09966 286.742985 
" style="fill:none;stroke:#000000;"/>
    <path clip-path="url(#pb3cc7587f6)" d="M 381.353475 301.61762 
L 381.353475 296.130113 
" style="fill:none;stroke:#000000;"/>
    <path clip-path="url(#pb3cc7587f6)" d="M 503.607291 278.118881 
L 503.607291 271.367171 
" style="fill:none;stroke:#000000;"/>
    <path clip-path="url(#pb3cc7587f6)" d="M 625.861107 242.899001 
L 625.861107 234.697082 
" style="fill:none;stroke:#000000;"/>
    <path clip-path="url(#pb3cc7587f6)" d="M 748.114923 224.824236 
L 748.114923 209.298675 
" style="fill:none;stroke:#000000;"/>
    <path clip-path="url(#pb3cc7587f6)" d="M 870.368738 322.691877 
L 870.368738 311.536012 
" style="fill:none;stroke:#000000;"/>
   </g>
   <g id="LineCollection_3">
    <path clip-path="url(#pb3cc7587f6)" d="M 167.409298 406.481727 
L 167.409298 372.80068 
" style="fill:none;stroke:#000000;"/>
    <path clip-path="url(#pb3cc7587f6)" d="M 289.663113 337.336306 
L 289.663113 310.234114 
" style="fill:none;stroke:#000000;"/>
    <path clip-path="url(#pb3cc7587f6)" d="M 411.916929 392.087338 
L 411.916929 372.027517 
" style="fill:none;stroke:#000000;"/>
    <path clip-path="url(#pb3cc7587f6)" d="M 534.170745 378.627002 
L 534.170745 346.475789 
" style="fill:none;stroke:#000000;"/>
    <path clip-path="url(#pb3cc7587f6)" d="M 656.424561 169.564841 
L 656.424561 132.802941 
" style="fill:none;stroke:#000000;"/>
    <path clip-path="url(#pb3cc7587f6)" d="M 778.678377 96.563931 
L 778.678377 44.476273 
" style="fill:none;stroke:#000000;"/>
    <path clip-path="url(#pb3cc7587f6)" d="M 900.932192 373.564991 
L 900.932192 329.173789 
" style="fill:none;stroke:#000000;"/>
   </g>
   <g id="line2d_16">
    <defs>
     <path d="M 2 0 
L -2 -0 
" id="mb7569a88ff" style="stroke:#000000;"/>
    </defs>
    <g clip-path="url(#pb3cc7587f6)">
     <use style="stroke:#000000;" x="106.28239" xlink:href="#mb7569a88ff" y="306.885319"/>
     <use style="stroke:#000000;" x="228.536206" xlink:href="#mb7569a88ff" y="298.207757"/>
     <use style="stroke:#000000;" x="350.790021" xlink:href="#mb7569a88ff" y="300.189833"/>
     <use style="stroke:#000000;" x="473.043837" xlink:href="#mb7569a88ff" y="278.218463"/>
     <use style="stroke:#000000;" x="595.297653" xlink:href="#mb7569a88ff" y="244.420854"/>
     <use style="stroke:#000000;" x="717.551469" xlink:href="#mb7569a88ff" y="226.076675"/>
     <use style="stroke:#000000;" x="839.805285" xlink:href="#mb7569a88ff" y="321.908716"/>
    </g>
   </g>
   <g id="line2d_17">
    <g clip-path="url(#pb3cc7587f6)">
     <use style="stroke:#000000;" x="106.28239" xlink:href="#mb7569a88ff" y="295.361244"/>
     <use style="stroke:#000000;" x="228.536206" xlink:href="#mb7569a88ff" y="290.168002"/>
     <use style="stroke:#000000;" x="350.790021" xlink:href="#mb7569a88ff" y="294.72889"/>
     <use style="stroke:#000000;" x="473.043837" xlink:href="#mb7569a88ff" y="271.26419"/>
     <use style="stroke:#000000;" x="595.297653" xlink:href="#mb7569a88ff" y="236.349837"/>
     <use style="stroke:#000000;" x="717.551469" xlink:href="#mb7569a88ff" y="210.46096"/>
     <use style="stroke:#000000;" x="839.805285" xlink:href="#mb7569a88ff" y="310.730203"/>
    </g>
   </g>
   <g id="line2d_18">
    <g clip-path="url(#pb3cc7587f6)">
     <use style="stroke:#000000;" x="136.845844" xlink:href="#mb7569a88ff" y="304.884982"/>
     <use style="stroke:#000000;" x="259.09966" xlink:href="#mb7569a88ff" y="294.825034"/>
     <use style="stroke:#000000;" x="381.353475" xlink:href="#mb7569a88ff" y="301.61762"/>
     <use style="stroke:#000000;" x="503.607291" xlink:href="#mb7569a88ff" y="278.118881"/>
     <use style="stroke:#000000;" x="625.861107" xlink:href="#mb7569a88ff" y="242.899001"/>
     <use style="stroke:#000000;" x="748.114923" xlink:href="#mb7569a88ff" y="224.824236"/>
     <use style="stroke:#000000;" x="870.368738" xlink:href="#mb7569a88ff" y="322.691877"/>
    </g>
   </g>
   <g id="line2d_19">
    <g clip-path="url(#pb3cc7587f6)">
     <use style="stroke:#000000;" x="136.845844" xlink:href="#mb7569a88ff" y="294.013124"/>
     <use style="stroke:#000000;" x="259.09966" xlink:href="#mb7569a88ff" y="286.742985"/>
     <use style="stroke:#000000;" x="381.353475" xlink:href="#mb7569a88ff" y="296.130113"/>
     <use style="stroke:#000000;" x="503.607291" xlink:href="#mb7569a88ff" y="271.367171"/>
     <use style="stroke:#000000;" x="625.861107" xlink:href="#mb7569a88ff" y="234.697082"/>
     <use style="stroke:#000000;" x="748.114923" xlink:href="#mb7569a88ff" y="209.298675"/>
     <use style="stroke:#000000;" x="870.368738" xlink:href="#mb7569a88ff" y="311.536012"/>
    </g>
   </g>
   <g id="line2d_20">
    <g clip-path="url(#pb3cc7587f6)">
     <use style="stroke:#000000;" x="167.409298" xlink:href="#mb7569a88ff" y="406.481727"/>
     <use style="stroke:#000000;" x="289.663113" xlink:href="#mb7569a88ff" y="337.336306"/>
     <use style="stroke:#000000;" x="411.916929" xlink:href="#mb7569a88ff" y="392.087338"/>
     <use style="stroke:#000000;" x="534.170745" xlink:href="#mb7569a88ff" y="378.627002"/>
     <use style="stroke:#000000;" x="656.424561" xlink:href="#mb7569a88ff" y="169.564841"/>
     <use style="stroke:#000000;" x="778.678377" xlink:href="#mb7569a88ff" y="96.563931"/>
     <use style="stroke:#000000;" x="900.932192" xlink:href="#mb7569a88ff" y="373.564991"/>
    </g>
   </g>
   <g id="line2d_21">
    <g clip-path="url(#pb3cc7587f6)">
     <use style="stroke:#000000;" x="167.409298" xlink:href="#mb7569a88ff" y="372.80068"/>
     <use style="stroke:#000000;" x="289.663113" xlink:href="#mb7569a88ff" y="310.234114"/>
     <use style="stroke:#000000;" x="411.916929" xlink:href="#mb7569a88ff" y="372.027517"/>
     <use style="stroke:#000000;" x="534.170745" xlink:href="#mb7569a88ff" y="346.475789"/>
     <use style="stroke:#000000;" x="656.424561" xlink:href="#mb7569a88ff" y="132.802941"/>
     <use style="stroke:#000000;" x="778.678377" xlink:href="#mb7569a88ff" y="44.476273"/>
     <use style="stroke:#000000;" x="900.932192" xlink:href="#mb7569a88ff" y="329.173789"/>
    </g>
   </g>
   <g id="patch_24">
    <path d="M 49.74 424.582 
L 49.74 26.376 
" style="fill:none;stroke:#000000;stroke-linecap:square;stroke-linejoin:miter;"/>
   </g>
   <g id="patch_25">
    <path d="M 957.474582 424.582 
L 957.474582 26.376 
" style="fill:none;stroke:#000000;stroke-linecap:square;stroke-linejoin:miter;"/>
   </g>
   <g id="patch_26">
    <path d="M 49.74 424.582 
L 957.474582 424.582 
" style="fill:none;stroke:#000000;stroke-linecap:square;stroke-linejoin:miter;"/>
   </g>
   <g id="patch_27">
    <path d="M 49.74 26.376 
L 957.474582 26.376 
" style="fill:none;stroke:#000000;stroke-linecap:square;stroke-linejoin:miter;"/>
   </g>
   <g id="text_17">
    <!-- Meta-analyzed $\tau^*$ -->
    <g transform="translate(460.551291 20.376)scale(0.096 -0.096)">
     <use transform="translate(0 0.765625)" xlink:href="#DejaVuSans-77"/>
     <use transform="translate(86.279297 0.765625)" xlink:href="#DejaVuSans-101"/>
     <use transform="translate(147.802734 0.765625)" xlink:href="#DejaVuSans-116"/>
     <use transform="translate(187.011719 0.765625)" xlink:href="#DejaVuSans-97"/>
     <use transform="translate(248.291016 0.765625)" xlink:href="#DejaVuSans-45"/>
     <use transform="translate(284.375 0.765625)" xlink:href="#DejaVuSans-97"/>
     <use transform="translate(345.654297 0.765625)" xlink:href="#DejaVuSans-110"/>
     <use transform="translate(409.033203 0.765625)" xlink:href="#DejaVuSans-97"/>
     <use transform="translate(470.3125 0.765625)" xlink:href="#DejaVuSans-108"/>
     <use transform="translate(498.095703 0.765625)" xlink:href="#DejaVuSans-121"/>
     <use transform="translate(557.275391 0.765625)" xlink:href="#DejaVuSans-122"/>
     <use transform="translate(609.765625 0.765625)" xlink:href="#DejaVuSans-101"/>
     <use transform="translate(671.289062 0.765625)" xlink:href="#DejaVuSans-100"/>
     <use transform="translate(734.765625 0.765625)" xlink:href="#DejaVuSans-32"/>
     <use transform="translate(766.552734 0.765625)" xlink:href="#DejaVuSans-Oblique-964"/>
     <use transform="translate(844.861654 39.046875)scale(0.7)" xlink:href="#DejaVuSans-42"/>
    </g>
   </g>
   <g id="legend_1">
    <g id="patch_28">
     <path d="M 974.471928 214.628875 
L 992.071928 214.628875 
L 992.071928 208.468875 
L 974.471928 208.468875 
z
" style="fill:url(#h7fa8afa741);stroke:#ffffff;stroke-linejoin:miter;stroke-width:0.8;"/>
    </g>
    <g id="text_18">
     <!-- $r^2 (\alpha=1, \theta=1)$ -->
     <defs>
      <path d="M 44.578125 46.390625 
Q 43.21875 47.125 41.453125 47.515625 
Q 39.703125 47.90625 37.703125 47.90625 
Q 30.515625 47.90625 25.140625 42.453125 
Q 19.78125 37.015625 18.015625 27.875 
L 12.5 0 
L 3.515625 0 
L 14.203125 54.6875 
L 23.1875 54.6875 
L 21.484375 46.1875 
Q 25.046875 50.921875 30 53.453125 
Q 34.96875 56 40.578125 56 
Q 42.046875 56 43.453125 55.828125 
Q 44.875 55.671875 46.296875 55.28125 
z
" id="DejaVuSans-Oblique-114"/>
      <path d="M 40.921875 25.4375 
L 40.96875 36.71875 
Q 41.015625 48.25 32.328125 48.296875 
Q 25.828125 48.34375 21.78125 42.921875 
Q 16.703125 36.234375 14.984375 27.296875 
Q 12.890625 16.546875 15.53125 11.421875 
Q 18.265625 6.203125 24.171875 6.203125 
Q 30.71875 6.203125 36.234375 16.609375 
z
M 33.84375 55.90625 
Q 49.078125 56.15625 48.875 40.375 
Q 48.875 40.375 56.5 54.6875 
L 64.5 54.6875 
L 48.734375 25.046875 
L 48.578125 14.359375 
Q 48.578125 11.96875 49.90625 9.96875 
Q 51.421875 7.625 52.984375 7.625 
L 57.328125 7.625 
L 55.859375 0 
L 50.4375 0 
Q 45.84375 0 42.53125 4.109375 
Q 40.96875 6.15625 40.921875 10.453125 
Q 37.75 5.21875 32.28125 0.78125 
Q 29.6875 -1.265625 22.703125 -1.21875 
Q 11.28125 -1.125 7.125 6.203125 
Q 2.875 13.8125 5.515625 27.296875 
Q 8.34375 41.796875 15.765625 48.390625 
Q 24.125 55.765625 33.84375 55.90625 
z
" id="DejaVuSans-Oblique-945"/>
      <path d="M 10.59375 45.40625 
L 73.1875 45.40625 
L 73.1875 37.203125 
L 10.59375 37.203125 
z
M 10.59375 25.484375 
L 73.1875 25.484375 
L 73.1875 17.1875 
L 10.59375 17.1875 
z
" id="DejaVuSans-61"/>
      <path d="M 11.71875 12.40625 
L 22.015625 12.40625 
L 22.015625 4 
L 14.015625 -11.625 
L 7.71875 -11.625 
L 11.71875 4 
z
" id="DejaVuSans-44"/>
      <path d="M 45.515625 34.671875 
L 14.453125 34.671875 
Q 12.359375 20.0625 14.5 13.875 
Q 17.1875 6.25 24.46875 6.25 
Q 31.78125 6.25 37.359375 13.921875 
Q 42.234375 20.65625 45.515625 34.671875 
z
M 47.015625 42.96875 
Q 48.34375 56.84375 46.625 61.71875 
Q 43.953125 69.4375 36.765625 69.4375 
Q 29.296875 69.4375 23.828125 61.8125 
Q 19.53125 55.671875 16.15625 42.96875 
z
M 38.1875 76.765625 
Q 49.90625 76.765625 54.59375 66.40625 
Q 59.28125 56.109375 55.71875 37.84375 
Q 52.203125 19.625 43.453125 9.28125 
Q 34.765625 -1.125 23.046875 -1.125 
Q 11.28125 -1.125 6.640625 9.28125 
Q 2 19.625 5.515625 37.84375 
Q 9.078125 56.109375 17.71875 66.40625 
Q 26.421875 76.765625 38.1875 76.765625 
z
" id="DejaVuSans-Oblique-952"/>
     </defs>
     <g transform="translate(999.111928 214.628875)scale(0.088 -0.088)">
      <use transform="translate(0 0.765625)" xlink:href="#DejaVuSans-Oblique-114"/>
      <use transform="translate(45.763177 39.046875)scale(0.7)" xlink:href="#DejaVuSans-50"/>
      <use transform="translate(93.033685 0.765625)" xlink:href="#DejaVuSans-40"/>
      <use transform="translate(132.047357 0.765625)" xlink:href="#DejaVuSans-Oblique-945"/>
      <use transform="translate(217.447747 0.765625)" xlink:href="#DejaVuSans-61"/>
      <use transform="translate(320.719232 0.765625)" xlink:href="#DejaVuSans-49"/>
      <use transform="translate(384.342279 0.765625)" xlink:href="#DejaVuSans-44"/>
      <use transform="translate(435.61181 0.765625)" xlink:href="#DejaVuSans-Oblique-952"/>
      <use transform="translate(516.275872 0.765625)" xlink:href="#DejaVuSans-61"/>
      <use transform="translate(619.547357 0.765625)" xlink:href="#DejaVuSans-49"/>
      <use transform="translate(683.170404 0.765625)" xlink:href="#DejaVuSans-41"/>
     </g>
    </g>
    <g id="patch_29">
     <path d="M 974.471928 228.268875 
L 992.071928 228.268875 
L 992.071928 222.108875 
L 974.471928 222.108875 
z
" style="fill:url(#h69a7f746dc);stroke:#ffffff;stroke-linejoin:miter;stroke-width:0.8;"/>
    </g>
    <g id="text_19">
     <!-- $D^2 (\alpha=1, \theta=1)$ -->
     <defs>
      <path d="M 16.890625 72.90625 
L 38.09375 72.90625 
Q 54.984375 72.90625 63.59375 65.75 
Q 72.21875 58.59375 72.21875 44.484375 
Q 72.21875 35.15625 68.9375 26.53125 
Q 65.671875 17.921875 59.90625 12.015625 
Q 54.109375 5.953125 45.171875 2.96875 
Q 36.234375 0 24.03125 0 
L 2.6875 0 
z
M 25.203125 64.796875 
L 14.203125 8.109375 
L 27.09375 8.109375 
Q 43.65625 8.109375 52.734375 17.625 
Q 61.8125 27.15625 61.8125 44.484375 
Q 61.8125 54.984375 55.953125 59.890625 
Q 50.09375 64.796875 37.59375 64.796875 
z
" id="DejaVuSans-Oblique-68"/>
     </defs>
     <g transform="translate(999.111928 228.268875)scale(0.088 -0.088)">
      <use transform="translate(0 0.765625)" xlink:href="#DejaVuSans-Oblique-68"/>
      <use transform="translate(84.018724 39.046875)scale(0.7)" xlink:href="#DejaVuSans-50"/>
      <use transform="translate(131.289232 0.765625)" xlink:href="#DejaVuSans-40"/>
      <use transform="translate(170.302904 0.765625)" xlink:href="#DejaVuSans-Oblique-945"/>
      <use transform="translate(255.703294 0.765625)" xlink:href="#DejaVuSans-61"/>
      <use transform="translate(358.974779 0.765625)" xlink:href="#DejaVuSans-49"/>
      <use transform="translate(422.597826 0.765625)" xlink:href="#DejaVuSans-44"/>
      <use transform="translate(473.867357 0.765625)" xlink:href="#DejaVuSans-Oblique-952"/>
      <use transform="translate(554.531419 0.765625)" xlink:href="#DejaVuSans-61"/>
      <use transform="translate(657.802904 0.765625)" xlink:href="#DejaVuSans-49"/>
      <use transform="translate(721.425951 0.765625)" xlink:href="#DejaVuSans-41"/>
     </g>
    </g>
    <g id="patch_30">
     <path d="M 974.471928 241.908875 
L 992.071928 241.908875 
L 992.071928 235.748875 
L 974.471928 235.748875 
z
" style="fill:url(#h4a4f3382dc);stroke:#ffffff;stroke-linejoin:miter;stroke-width:0.8;"/>
    </g>
    <g id="text_20">
     <!-- $D^2 (\alpha=0, \theta=1)$ -->
     <g transform="translate(999.111928 241.908875)scale(0.088 -0.088)">
      <use transform="translate(0 0.765625)" xlink:href="#DejaVuSans-Oblique-68"/>
      <use transform="translate(84.018724 39.046875)scale(0.7)" xlink:href="#DejaVuSans-50"/>
      <use transform="translate(131.289232 0.765625)" xlink:href="#DejaVuSans-40"/>
      <use transform="translate(170.302904 0.765625)" xlink:href="#DejaVuSans-Oblique-945"/>
      <use transform="translate(255.703294 0.765625)" xlink:href="#DejaVuSans-61"/>
      <use transform="translate(358.974779 0.765625)" xlink:href="#DejaVuSans-48"/>
      <use transform="translate(422.597826 0.765625)" xlink:href="#DejaVuSans-44"/>
      <use transform="translate(473.867357 0.765625)" xlink:href="#DejaVuSans-Oblique-952"/>
      <use transform="translate(554.531419 0.765625)" xlink:href="#DejaVuSans-61"/>
      <use transform="translate(657.802904 0.765625)" xlink:href="#DejaVuSans-49"/>
      <use transform="translate(721.425951 0.765625)" xlink:href="#DejaVuSans-41"/>
     </g>
    </g>
   </g>
  </g>
 </g>
 <defs>
  <clipPath id="pb3cc7587f6">
   <rect height="398.206" width="907.734582" x="49.74" y="26.376"/>
  </clipPath>
 </defs>
 <defs>
  <pattern height="72" id="h7fa8afa741" patternUnits="userSpaceOnUse" width="72" x="0" y="0">
   <rect fill="#f28e2b" height="73" width="73" x="0" y="0"/>
   <path d="M -36 36 
L 36 -36 
M -33 39 
L 39 -33 
M -30 42 
L 42 -30 
M -27 45 
L 45 -27 
M -24 48 
L 48 -24 
M -21 51 
L 51 -21 
M -18 54 
L 54 -18 
M -15 57 
L 57 -15 
M -12 60 
L 60 -12 
M -9 63 
L 63 -9 
M -6 66 
L 66 -6 
M -3 69 
L 69 -3 
M 0 72 
L 72 0 
M 3 75 
L 75 3 
M 6 78 
L 78 6 
M 9 81 
L 81 9 
M 12 84 
L 84 12 
M 15 87 
L 87 15 
M 18 90 
L 90 18 
M 21 93 
L 93 21 
M 24 96 
L 96 24 
M 27 99 
L 99 27 
M 30 102 
L 102 30 
M 33 105 
L 105 33 
M 36 108 
L 108 36 
" style="fill:#ffffff;stroke:#ffffff;stroke-linecap:butt;stroke-linejoin:miter;stroke-width:2.0;"/>
  </pattern>
  <pattern height="72" id="h69a7f746dc" patternUnits="userSpaceOnUse" width="72" x="0" y="0">
   <rect fill="#76b7b2" height="73" width="73" x="0" y="0"/>
   <path d="M -36 36 
L 36 -36 
M -33 39 
L 39 -33 
M -30 42 
L 42 -30 
M -27 45 
L 45 -27 
M -24 48 
L 48 -24 
M -21 51 
L 51 -21 
M -18 54 
L 54 -18 
M -15 57 
L 57 -15 
M -12 60 
L 60 -12 
M -9 63 
L 63 -9 
M -6 66 
L 66 -6 
M -3 69 
L 69 -3 
M 0 72 
L 72 0 
M 3 75 
L 75 3 
M 6 78 
L 78 6 
M 9 81 
L 81 9 
M 12 84 
L 84 12 
M 15 87 
L 87 15 
M 18 90 
L 90 18 
M 21 93 
L 93 21 
M 24 96 
L 96 24 
M 27 99 
L 99 27 
M 30 102 
L 102 30 
M 33 105 
L 105 33 
M 36 108 
L 108 36 
" style="fill:#ffffff;stroke:#ffffff;stroke-linecap:butt;stroke-linejoin:miter;stroke-width:2.0;"/>
  </pattern>
  <pattern height="72" id="h4a4f3382dc" patternUnits="userSpaceOnUse" width="72" x="0" y="0">
   <rect fill="#e15759" height="73" width="73" x="0" y="0"/>
   <path d="M -36 36 
L 36 -36 
M -33 39 
L 39 -33 
M -30 42 
L 42 -30 
M -27 45 
L 45 -27 
M -24 48 
L 48 -24 
M -21 51 
L 51 -21 
M -18 54 
L 54 -18 
M -15 57 
L 57 -15 
M -12 60 
L 60 -12 
M -9 63 
L 63 -9 
M -6 66 
L 66 -6 
M -3 69 
L 69 -3 
M 0 72 
L 72 0 
M 3 75 
L 75 3 
M 6 78 
L 78 6 
M 9 81 
L 81 9 
M 12 84 
L 84 12 
M 15 87 
L 87 15 
M 18 90 
L 90 18 
M 21 93 
L 93 21 
M 24 96 
L 96 24 
M 27 99 
L 99 27 
M 30 102 
L 102 30 
M 33 105 
L 105 33 
M 36 108 
L 108 36 
" style="fill:#ffffff;stroke:#ffffff;stroke-linecap:butt;stroke-linejoin:miter;stroke-width:2.0;"/>
  </pattern>
 </defs>
</svg>
