<?xml version="1.0" encoding="utf-8" standalone="no"?>
<!DOCTYPE svg PUBLIC "-//W3C//DTD SVG 1.1//EN"
  "http://www.w3.org/Graphics/SVG/1.1/DTD/svg11.dtd">
<!-- Created with matplotlib (https://matplotlib.org/) -->
<svg height="576pt" version="1.1" viewBox="0 0 1080 576" width="1080pt" xmlns="http://www.w3.org/2000/svg" xmlns:xlink="http://www.w3.org/1999/xlink">
 <defs>
  <style type="text/css">
*{stroke-linecap:butt;stroke-linejoin:round;}
  </style>
 </defs>
 <g id="figure_1">
  <g id="patch_1">
   <path d="M 0 576 
L 1080 576 
L 1080 0 
L 0 0 
z
" style="fill:#ffffff;"/>
  </g>
  <g id="axes_1">
   <g id="patch_2">
    <path d="M 57.048 424.492 
L 957.474582 424.492 
L 957.474582 26.304 
L 57.048 26.304 
z
" style="fill:#ffffff;"/>
   </g>
   <g id="patch_3">
    <path clip-path="url(#pef6701e754)" d="M 97.976481 190.43542 
L 109.505631 190.43542 
L 109.505631 212.248484 
L 97.976481 212.248484 
z
" style="fill:#f28e2b;"/>
   </g>
   <g id="patch_4">
    <path clip-path="url(#pef6701e754)" d="M 167.151378 190.43542 
L 178.680528 190.43542 
L 178.680528 254.523874 
L 167.151378 254.523874 
z
" style="fill:#f28e2b;"/>
   </g>
   <g id="patch_5">
    <path clip-path="url(#pef6701e754)" d="M 236.326276 190.43542 
L 247.855426 190.43542 
L 247.855426 242.218735 
L 236.326276 242.218735 
z
" style="fill:#f28e2b;"/>
   </g>
   <g id="patch_6">
    <path clip-path="url(#pef6701e754)" d="M 305.501173 190.43542 
L 317.030323 190.43542 
L 317.030323 229.74449 
L 305.501173 229.74449 
z
" style="fill:#f28e2b;"/>
   </g>
   <g id="patch_7">
    <path clip-path="url(#pef6701e754)" d="M 374.676071 190.43542 
L 386.205221 190.43542 
L 386.205221 252.536077 
L 374.676071 252.536077 
z
" style="fill:#f28e2b;"/>
   </g>
   <g id="patch_8">
    <path clip-path="url(#pef6701e754)" d="M 443.850968 190.43542 
L 455.380118 190.43542 
L 455.380118 247.690283 
L 443.850968 247.690283 
z
" style="fill:#f28e2b;"/>
   </g>
   <g id="patch_9">
    <path clip-path="url(#pef6701e754)" d="M 513.025866 190.43542 
L 524.555015 190.43542 
L 524.555015 289.319408 
L 513.025866 289.319408 
z
" style="fill:#f28e2b;"/>
   </g>
   <g id="patch_10">
    <path clip-path="url(#pef6701e754)" d="M 582.200763 190.43542 
L 593.729913 190.43542 
L 593.729913 265.6333 
L 582.200763 265.6333 
z
" style="fill:#f28e2b;"/>
   </g>
   <g id="patch_11">
    <path clip-path="url(#pef6701e754)" d="M 651.375661 190.43542 
L 662.90481 190.43542 
L 662.90481 280.79453 
L 651.375661 280.79453 
z
" style="fill:#f28e2b;"/>
   </g>
   <g id="patch_12">
    <path clip-path="url(#pef6701e754)" d="M 720.550558 190.43542 
L 732.079708 190.43542 
L 732.079708 332.571372 
L 720.550558 332.571372 
z
" style="fill:#f28e2b;"/>
   </g>
   <g id="patch_13">
    <path clip-path="url(#pef6701e754)" d="M 789.725456 190.43542 
L 801.254605 190.43542 
L 801.254605 265.465461 
L 789.725456 265.465461 
z
" style="fill:#f28e2b;"/>
   </g>
   <g id="patch_14">
    <path clip-path="url(#pef6701e754)" d="M 858.900353 190.43542 
L 870.429503 190.43542 
L 870.429503 260.075177 
L 858.900353 260.075177 
z
" style="fill:#f28e2b;"/>
   </g>
   <g id="patch_15">
    <path clip-path="url(#pef6701e754)" d="M 109.505631 190.43542 
L 121.03478 190.43542 
L 121.03478 215.957478 
L 109.505631 215.957478 
z
" style="fill:#76b7b2;"/>
   </g>
   <g id="patch_16">
    <path clip-path="url(#pef6701e754)" d="M 178.680528 190.43542 
L 190.209678 190.43542 
L 190.209678 249.653325 
L 178.680528 249.653325 
z
" style="fill:#76b7b2;"/>
   </g>
   <g id="patch_17">
    <path clip-path="url(#pef6701e754)" d="M 247.855426 190.43542 
L 259.384575 190.43542 
L 259.384575 238.418987 
L 247.855426 238.418987 
z
" style="fill:#76b7b2;"/>
   </g>
   <g id="patch_18">
    <path clip-path="url(#pef6701e754)" d="M 317.030323 190.43542 
L 328.559473 190.43542 
L 328.559473 227.509025 
L 317.030323 227.509025 
z
" style="fill:#76b7b2;"/>
   </g>
   <g id="patch_19">
    <path clip-path="url(#pef6701e754)" d="M 386.205221 190.43542 
L 397.73437 190.43542 
L 397.73437 249.284466 
L 386.205221 249.284466 
z
" style="fill:#76b7b2;"/>
   </g>
   <g id="patch_20">
    <path clip-path="url(#pef6701e754)" d="M 455.380118 190.43542 
L 466.909268 190.43542 
L 466.909268 244.259672 
L 455.380118 244.259672 
z
" style="fill:#76b7b2;"/>
   </g>
   <g id="patch_21">
    <path clip-path="url(#pef6701e754)" d="M 524.555015 190.43542 
L 536.084165 190.43542 
L 536.084165 284.975141 
L 524.555015 284.975141 
z
" style="fill:#76b7b2;"/>
   </g>
   <g id="patch_22">
    <path clip-path="url(#pef6701e754)" d="M 593.729913 190.43542 
L 605.259063 190.43542 
L 605.259063 264.93719 
L 593.729913 264.93719 
z
" style="fill:#76b7b2;"/>
   </g>
   <g id="patch_23">
    <path clip-path="url(#pef6701e754)" d="M 662.90481 190.43542 
L 674.43396 190.43542 
L 674.43396 274.92059 
L 662.90481 274.92059 
z
" style="fill:#76b7b2;"/>
   </g>
   <g id="patch_24">
    <path clip-path="url(#pef6701e754)" d="M 732.079708 190.43542 
L 743.608858 190.43542 
L 743.608858 339.122403 
L 732.079708 339.122403 
z
" style="fill:#76b7b2;"/>
   </g>
   <g id="patch_25">
    <path clip-path="url(#pef6701e754)" d="M 801.254605 190.43542 
L 812.783755 190.43542 
L 812.783755 265.542238 
L 801.254605 265.542238 
z
" style="fill:#76b7b2;"/>
   </g>
   <g id="patch_26">
    <path clip-path="url(#pef6701e754)" d="M 870.429503 190.43542 
L 881.958652 190.43542 
L 881.958652 251.432358 
L 870.429503 251.432358 
z
" style="fill:#76b7b2;"/>
   </g>
   <g id="patch_27">
    <path clip-path="url(#pef6701e754)" d="M 121.03478 190.43542 
L 132.56393 190.43542 
L 132.56393 179.627745 
L 121.03478 179.627745 
z
" style="fill:#e15759;"/>
   </g>
   <g id="patch_28">
    <path clip-path="url(#pef6701e754)" d="M 190.209678 190.43542 
L 201.738827 190.43542 
L 201.738827 187.687863 
L 190.209678 187.687863 
z
" style="fill:#e15759;"/>
   </g>
   <g id="patch_29">
    <path clip-path="url(#pef6701e754)" d="M 259.384575 190.43542 
L 270.913725 190.43542 
L 270.913725 182.534512 
L 259.384575 182.534512 
z
" style="fill:#e15759;"/>
   </g>
   <g id="patch_30">
    <path clip-path="url(#pef6701e754)" d="M 328.559473 190.43542 
L 340.088622 190.43542 
L 340.088622 193.66344 
L 328.559473 193.66344 
z
" style="fill:#e15759;"/>
   </g>
   <g id="patch_31">
    <path clip-path="url(#pef6701e754)" d="M 397.73437 190.43542 
L 409.26352 190.43542 
L 409.26352 210.116498 
L 397.73437 210.116498 
z
" style="fill:#e15759;"/>
   </g>
   <g id="patch_32">
    <path clip-path="url(#pef6701e754)" d="M 466.909268 190.43542 
L 478.438417 190.43542 
L 478.438417 201.105136 
L 466.909268 201.105136 
z
" style="fill:#e15759;"/>
   </g>
   <g id="patch_33">
    <path clip-path="url(#pef6701e754)" d="M 536.084165 190.43542 
L 547.613315 190.43542 
L 547.613315 196.267421 
L 536.084165 196.267421 
z
" style="fill:#e15759;"/>
   </g>
   <g id="patch_34">
    <path clip-path="url(#pef6701e754)" d="M 605.259063 190.43542 
L 616.788212 190.43542 
L 616.788212 196.230934 
L 605.259063 196.230934 
z
" style="fill:#e15759;"/>
   </g>
   <g id="patch_35">
    <path clip-path="url(#pef6701e754)" d="M 674.43396 190.43542 
L 685.96311 190.43542 
L 685.96311 235.564838 
L 674.43396 235.564838 
z
" style="fill:#e15759;"/>
   </g>
   <g id="patch_36">
    <path clip-path="url(#pef6701e754)" d="M 743.608858 190.43542 
L 755.138007 190.43542 
L 755.138007 160.224237 
L 743.608858 160.224237 
z
" style="fill:#e15759;"/>
   </g>
   <g id="patch_37">
    <path clip-path="url(#pef6701e754)" d="M 812.783755 190.43542 
L 824.312905 190.43542 
L 824.312905 237.587227 
L 812.783755 237.587227 
z
" style="fill:#e15759;"/>
   </g>
   <g id="patch_38">
    <path clip-path="url(#pef6701e754)" d="M 881.958652 190.43542 
L 893.487802 190.43542 
L 893.487802 170.561518 
L 881.958652 170.561518 
z
" style="fill:#e15759;"/>
   </g>
   <g id="patch_39">
    <path clip-path="url(#pef6701e754)" d="M 132.56393 190.43542 
L 144.093079 190.43542 
L 144.093079 184.333463 
L 132.56393 184.333463 
z
" style="fill:url(#h1a03c9b323);stroke:#ffffff;stroke-linejoin:miter;stroke-width:0.8;"/>
   </g>
   <g id="patch_40">
    <path clip-path="url(#pef6701e754)" d="M 201.738827 190.43542 
L 213.267977 190.43542 
L 213.267977 188.993358 
L 201.738827 188.993358 
z
" style="fill:url(#h1a03c9b323);stroke:#ffffff;stroke-linejoin:miter;stroke-width:0.8;"/>
   </g>
   <g id="patch_41">
    <path clip-path="url(#pef6701e754)" d="M 270.913725 190.43542 
L 282.442874 190.43542 
L 282.442874 189.746131 
L 270.913725 189.746131 
z
" style="fill:url(#h1a03c9b323);stroke:#ffffff;stroke-linejoin:miter;stroke-width:0.8;"/>
   </g>
   <g id="patch_42">
    <path clip-path="url(#pef6701e754)" d="M 340.088622 190.43542 
L 351.617772 190.43542 
L 351.617772 186.873124 
L 340.088622 186.873124 
z
" style="fill:url(#h1a03c9b323);stroke:#ffffff;stroke-linejoin:miter;stroke-width:0.8;"/>
   </g>
   <g id="patch_43">
    <path clip-path="url(#pef6701e754)" d="M 409.26352 190.43542 
L 420.792669 190.43542 
L 420.792669 186.568523 
L 409.26352 186.568523 
z
" style="fill:url(#h1a03c9b323);stroke:#ffffff;stroke-linejoin:miter;stroke-width:0.8;"/>
   </g>
   <g id="patch_44">
    <path clip-path="url(#pef6701e754)" d="M 478.438417 190.43542 
L 489.967567 190.43542 
L 489.967567 187.059958 
L 478.438417 187.059958 
z
" style="fill:url(#h1a03c9b323);stroke:#ffffff;stroke-linejoin:miter;stroke-width:0.8;"/>
   </g>
   <g id="patch_45">
    <path clip-path="url(#pef6701e754)" d="M 547.613315 190.43542 
L 559.142464 190.43542 
L 559.142464 186.095952 
L 547.613315 186.095952 
z
" style="fill:url(#h1a03c9b323);stroke:#ffffff;stroke-linejoin:miter;stroke-width:0.8;"/>
   </g>
   <g id="patch_46">
    <path clip-path="url(#pef6701e754)" d="M 616.788212 190.43542 
L 628.317362 190.43542 
L 628.317362 182.953407 
L 616.788212 182.953407 
z
" style="fill:url(#h1a03c9b323);stroke:#ffffff;stroke-linejoin:miter;stroke-width:0.8;"/>
   </g>
   <g id="patch_47">
    <path clip-path="url(#pef6701e754)" d="M 685.96311 190.43542 
L 697.492259 190.43542 
L 697.492259 190.770937 
L 685.96311 190.770937 
z
" style="fill:url(#h1a03c9b323);stroke:#ffffff;stroke-linejoin:miter;stroke-width:0.8;"/>
   </g>
   <g id="patch_48">
    <path clip-path="url(#pef6701e754)" d="M 755.138007 190.43542 
L 766.667157 190.43542 
L 766.667157 176.463604 
L 755.138007 176.463604 
z
" style="fill:url(#h1a03c9b323);stroke:#ffffff;stroke-linejoin:miter;stroke-width:0.8;"/>
   </g>
   <g id="patch_49">
    <path clip-path="url(#pef6701e754)" d="M 824.312905 190.43542 
L 835.842054 190.43542 
L 835.842054 183.760011 
L 824.312905 183.760011 
z
" style="fill:url(#h1a03c9b323);stroke:#ffffff;stroke-linejoin:miter;stroke-width:0.8;"/>
   </g>
   <g id="patch_50">
    <path clip-path="url(#pef6701e754)" d="M 893.487802 190.43542 
L 905.016952 190.43542 
L 905.016952 188.75597 
L 893.487802 188.75597 
z
" style="fill:url(#h1a03c9b323);stroke:#ffffff;stroke-linejoin:miter;stroke-width:0.8;"/>
   </g>
   <g id="patch_51">
    <path clip-path="url(#pef6701e754)" d="M 144.093079 190.43542 
L 155.622229 190.43542 
L 155.622229 198.455923 
L 144.093079 198.455923 
z
" style="fill:url(#hb3918a773a);stroke:#ffffff;stroke-linejoin:miter;stroke-width:0.8;"/>
   </g>
   <g id="patch_52">
    <path clip-path="url(#pef6701e754)" d="M 213.267977 190.43542 
L 224.797126 190.43542 
L 224.797126 180.252282 
L 213.267977 180.252282 
z
" style="fill:url(#hb3918a773a);stroke:#ffffff;stroke-linejoin:miter;stroke-width:0.8;"/>
   </g>
   <g id="patch_53">
    <path clip-path="url(#pef6701e754)" d="M 282.442874 190.43542 
L 293.972024 190.43542 
L 293.972024 178.324607 
L 282.442874 178.324607 
z
" style="fill:url(#hb3918a773a);stroke:#ffffff;stroke-linejoin:miter;stroke-width:0.8;"/>
   </g>
   <g id="patch_54">
    <path clip-path="url(#pef6701e754)" d="M 351.617772 190.43542 
L 363.146921 190.43542 
L 363.146921 197.258637 
L 351.617772 197.258637 
z
" style="fill:url(#hb3918a773a);stroke:#ffffff;stroke-linejoin:miter;stroke-width:0.8;"/>
   </g>
   <g id="patch_55">
    <path clip-path="url(#pef6701e754)" d="M 420.792669 190.43542 
L 432.321819 190.43542 
L 432.321819 197.510857 
L 420.792669 197.510857 
z
" style="fill:url(#hb3918a773a);stroke:#ffffff;stroke-linejoin:miter;stroke-width:0.8;"/>
   </g>
   <g id="patch_56">
    <path clip-path="url(#pef6701e754)" d="M 489.967567 190.43542 
L 501.496716 190.43542 
L 501.496716 193.793548 
L 489.967567 193.793548 
z
" style="fill:url(#hb3918a773a);stroke:#ffffff;stroke-linejoin:miter;stroke-width:0.8;"/>
   </g>
   <g id="patch_57">
    <path clip-path="url(#pef6701e754)" d="M 559.142464 190.43542 
L 570.671614 190.43542 
L 570.671614 175.974223 
L 559.142464 175.974223 
z
" style="fill:url(#hb3918a773a);stroke:#ffffff;stroke-linejoin:miter;stroke-width:0.8;"/>
   </g>
   <g id="patch_58">
    <path clip-path="url(#pef6701e754)" d="M 628.317362 190.43542 
L 639.846511 190.43542 
L 639.846511 178.130542 
L 628.317362 178.130542 
z
" style="fill:url(#hb3918a773a);stroke:#ffffff;stroke-linejoin:miter;stroke-width:0.8;"/>
   </g>
   <g id="patch_59">
    <path clip-path="url(#pef6701e754)" d="M 697.492259 190.43542 
L 709.021409 190.43542 
L 709.021409 213.961655 
L 697.492259 213.961655 
z
" style="fill:url(#hb3918a773a);stroke:#ffffff;stroke-linejoin:miter;stroke-width:0.8;"/>
   </g>
   <g id="patch_60">
    <path clip-path="url(#pef6701e754)" d="M 766.667157 190.43542 
L 778.196306 190.43542 
L 778.196306 121.771202 
L 766.667157 121.771202 
z
" style="fill:url(#hb3918a773a);stroke:#ffffff;stroke-linejoin:miter;stroke-width:0.8;"/>
   </g>
   <g id="patch_61">
    <path clip-path="url(#pef6701e754)" d="M 835.842054 190.43542 
L 847.371204 190.43542 
L 847.371204 212.022504 
L 835.842054 212.022504 
z
" style="fill:url(#hb3918a773a);stroke:#ffffff;stroke-linejoin:miter;stroke-width:0.8;"/>
   </g>
   <g id="patch_62">
    <path clip-path="url(#pef6701e754)" d="M 905.016952 190.43542 
L 916.546101 190.43542 
L 916.546101 186.886257 
L 905.016952 186.886257 
z
" style="fill:url(#hb3918a773a);stroke:#ffffff;stroke-linejoin:miter;stroke-width:0.8;"/>
   </g>
   <g id="matplotlib.axis_1">
    <g id="xtick_1">
     <g id="line2d_1">
      <defs>
       <path d="M 0 0 
L 0 4.8 
" id="medb9a2f2fb" style="stroke:#000000;"/>
      </defs>
      <g>
       <use style="stroke:#000000;" x="126.799355" xlink:href="#medb9a2f2fb" y="424.492"/>
      </g>
     </g>
     <g id="text_1">
      <!-- Age at Menarche -->
      <defs>
       <path d="M 34.1875 63.1875 
L 20.796875 26.90625 
L 47.609375 26.90625 
z
M 28.609375 72.90625 
L 39.796875 72.90625 
L 67.578125 0 
L 57.328125 0 
L 50.6875 18.703125 
L 17.828125 18.703125 
L 11.1875 0 
L 0.78125 0 
z
" id="DejaVuSans-65"/>
       <path d="M 45.40625 27.984375 
Q 45.40625 37.75 41.375 43.109375 
Q 37.359375 48.484375 30.078125 48.484375 
Q 22.859375 48.484375 18.828125 43.109375 
Q 14.796875 37.75 14.796875 27.984375 
Q 14.796875 18.265625 18.828125 12.890625 
Q 22.859375 7.515625 30.078125 7.515625 
Q 37.359375 7.515625 41.375 12.890625 
Q 45.40625 18.265625 45.40625 27.984375 
z
M 54.390625 6.78125 
Q 54.390625 -7.171875 48.1875 -13.984375 
Q 42 -20.796875 29.203125 -20.796875 
Q 24.46875 -20.796875 20.265625 -20.09375 
Q 16.0625 -19.390625 12.109375 -17.921875 
L 12.109375 -9.1875 
Q 16.0625 -11.328125 19.921875 -12.34375 
Q 23.78125 -13.375 27.78125 -13.375 
Q 36.625 -13.375 41.015625 -8.765625 
Q 45.40625 -4.15625 45.40625 5.171875 
L 45.40625 9.625 
Q 42.625 4.78125 38.28125 2.390625 
Q 33.9375 0 27.875 0 
Q 17.828125 0 11.671875 7.65625 
Q 5.515625 15.328125 5.515625 27.984375 
Q 5.515625 40.671875 11.671875 48.328125 
Q 17.828125 56 27.875 56 
Q 33.9375 56 38.28125 53.609375 
Q 42.625 51.21875 45.40625 46.390625 
L 45.40625 54.6875 
L 54.390625 54.6875 
z
" id="DejaVuSans-103"/>
       <path d="M 56.203125 29.59375 
L 56.203125 25.203125 
L 14.890625 25.203125 
Q 15.484375 15.921875 20.484375 11.0625 
Q 25.484375 6.203125 34.421875 6.203125 
Q 39.59375 6.203125 44.453125 7.46875 
Q 49.3125 8.734375 54.109375 11.28125 
L 54.109375 2.78125 
Q 49.265625 0.734375 44.1875 -0.34375 
Q 39.109375 -1.421875 33.890625 -1.421875 
Q 20.796875 -1.421875 13.15625 6.1875 
Q 5.515625 13.8125 5.515625 26.8125 
Q 5.515625 40.234375 12.765625 48.109375 
Q 20.015625 56 32.328125 56 
Q 43.359375 56 49.78125 48.890625 
Q 56.203125 41.796875 56.203125 29.59375 
z
M 47.21875 32.234375 
Q 47.125 39.59375 43.09375 43.984375 
Q 39.0625 48.390625 32.421875 48.390625 
Q 24.90625 48.390625 20.390625 44.140625 
Q 15.875 39.890625 15.1875 32.171875 
z
" id="DejaVuSans-101"/>
       <path id="DejaVuSans-32"/>
       <path d="M 34.28125 27.484375 
Q 23.390625 27.484375 19.1875 25 
Q 14.984375 22.515625 14.984375 16.5 
Q 14.984375 11.71875 18.140625 8.90625 
Q 21.296875 6.109375 26.703125 6.109375 
Q 34.1875 6.109375 38.703125 11.40625 
Q 43.21875 16.703125 43.21875 25.484375 
L 43.21875 27.484375 
z
M 52.203125 31.203125 
L 52.203125 0 
L 43.21875 0 
L 43.21875 8.296875 
Q 40.140625 3.328125 35.546875 0.953125 
Q 30.953125 -1.421875 24.3125 -1.421875 
Q 15.921875 -1.421875 10.953125 3.296875 
Q 6 8.015625 6 15.921875 
Q 6 25.140625 12.171875 29.828125 
Q 18.359375 34.515625 30.609375 34.515625 
L 43.21875 34.515625 
L 43.21875 35.40625 
Q 43.21875 41.609375 39.140625 45 
Q 35.0625 48.390625 27.6875 48.390625 
Q 23 48.390625 18.546875 47.265625 
Q 14.109375 46.140625 10.015625 43.890625 
L 10.015625 52.203125 
Q 14.9375 54.109375 19.578125 55.046875 
Q 24.21875 56 28.609375 56 
Q 40.484375 56 46.34375 49.84375 
Q 52.203125 43.703125 52.203125 31.203125 
z
" id="DejaVuSans-97"/>
       <path d="M 18.3125 70.21875 
L 18.3125 54.6875 
L 36.8125 54.6875 
L 36.8125 47.703125 
L 18.3125 47.703125 
L 18.3125 18.015625 
Q 18.3125 11.328125 20.140625 9.421875 
Q 21.96875 7.515625 27.59375 7.515625 
L 36.8125 7.515625 
L 36.8125 0 
L 27.59375 0 
Q 17.1875 0 13.234375 3.875 
Q 9.28125 7.765625 9.28125 18.015625 
L 9.28125 47.703125 
L 2.6875 47.703125 
L 2.6875 54.6875 
L 9.28125 54.6875 
L 9.28125 70.21875 
z
" id="DejaVuSans-116"/>
       <path d="M 9.8125 72.90625 
L 24.515625 72.90625 
L 43.109375 23.296875 
L 61.8125 72.90625 
L 76.515625 72.90625 
L 76.515625 0 
L 66.890625 0 
L 66.890625 64.015625 
L 48.09375 14.015625 
L 38.1875 14.015625 
L 19.390625 64.015625 
L 19.390625 0 
L 9.8125 0 
z
" id="DejaVuSans-77"/>
       <path d="M 54.890625 33.015625 
L 54.890625 0 
L 45.90625 0 
L 45.90625 32.71875 
Q 45.90625 40.484375 42.875 44.328125 
Q 39.84375 48.1875 33.796875 48.1875 
Q 26.515625 48.1875 22.3125 43.546875 
Q 18.109375 38.921875 18.109375 30.90625 
L 18.109375 0 
L 9.078125 0 
L 9.078125 54.6875 
L 18.109375 54.6875 
L 18.109375 46.1875 
Q 21.34375 51.125 25.703125 53.5625 
Q 30.078125 56 35.796875 56 
Q 45.21875 56 50.046875 50.171875 
Q 54.890625 44.34375 54.890625 33.015625 
z
" id="DejaVuSans-110"/>
       <path d="M 41.109375 46.296875 
Q 39.59375 47.171875 37.8125 47.578125 
Q 36.03125 48 33.890625 48 
Q 26.265625 48 22.1875 43.046875 
Q 18.109375 38.09375 18.109375 28.8125 
L 18.109375 0 
L 9.078125 0 
L 9.078125 54.6875 
L 18.109375 54.6875 
L 18.109375 46.1875 
Q 20.953125 51.171875 25.484375 53.578125 
Q 30.03125 56 36.53125 56 
Q 37.453125 56 38.578125 55.875 
Q 39.703125 55.765625 41.0625 55.515625 
z
" id="DejaVuSans-114"/>
       <path d="M 48.78125 52.59375 
L 48.78125 44.1875 
Q 44.96875 46.296875 41.140625 47.34375 
Q 37.3125 48.390625 33.40625 48.390625 
Q 24.65625 48.390625 19.8125 42.84375 
Q 14.984375 37.3125 14.984375 27.296875 
Q 14.984375 17.28125 19.8125 11.734375 
Q 24.65625 6.203125 33.40625 6.203125 
Q 37.3125 6.203125 41.140625 7.25 
Q 44.96875 8.296875 48.78125 10.40625 
L 48.78125 2.09375 
Q 45.015625 0.34375 40.984375 -0.53125 
Q 36.96875 -1.421875 32.421875 -1.421875 
Q 20.0625 -1.421875 12.78125 6.34375 
Q 5.515625 14.109375 5.515625 27.296875 
Q 5.515625 40.671875 12.859375 48.328125 
Q 20.21875 56 33.015625 56 
Q 37.15625 56 41.109375 55.140625 
Q 45.0625 54.296875 48.78125 52.59375 
z
" id="DejaVuSans-99"/>
       <path d="M 54.890625 33.015625 
L 54.890625 0 
L 45.90625 0 
L 45.90625 32.71875 
Q 45.90625 40.484375 42.875 44.328125 
Q 39.84375 48.1875 33.796875 48.1875 
Q 26.515625 48.1875 22.3125 43.546875 
Q 18.109375 38.921875 18.109375 30.90625 
L 18.109375 0 
L 9.078125 0 
L 9.078125 75.984375 
L 18.109375 75.984375 
L 18.109375 46.1875 
Q 21.34375 51.125 25.703125 53.5625 
Q 30.078125 56 35.796875 56 
Q 45.21875 56 50.046875 50.171875 
Q 54.890625 44.34375 54.890625 33.015625 
z
" id="DejaVuSans-104"/>
      </defs>
      <g transform="translate(129.227605 507.4765)rotate(-90)scale(0.088 -0.088)">
       <use xlink:href="#DejaVuSans-65"/>
       <use x="68.408203" xlink:href="#DejaVuSans-103"/>
       <use x="131.884766" xlink:href="#DejaVuSans-101"/>
       <use x="193.408203" xlink:href="#DejaVuSans-32"/>
       <use x="225.195312" xlink:href="#DejaVuSans-97"/>
       <use x="286.474609" xlink:href="#DejaVuSans-116"/>
       <use x="325.683594" xlink:href="#DejaVuSans-32"/>
       <use x="357.470703" xlink:href="#DejaVuSans-77"/>
       <use x="443.75" xlink:href="#DejaVuSans-101"/>
       <use x="505.273438" xlink:href="#DejaVuSans-110"/>
       <use x="568.652344" xlink:href="#DejaVuSans-97"/>
       <use x="629.931641" xlink:href="#DejaVuSans-114"/>
       <use x="668.794922" xlink:href="#DejaVuSans-99"/>
       <use x="723.775391" xlink:href="#DejaVuSans-104"/>
       <use x="787.154297" xlink:href="#DejaVuSans-101"/>
      </g>
     </g>
    </g>
    <g id="xtick_2">
     <g id="line2d_2">
      <g>
       <use style="stroke:#000000;" x="195.974252" xlink:href="#medb9a2f2fb" y="424.492"/>
      </g>
     </g>
     <g id="text_2">
      <!-- Age at Menopause -->
      <defs>
       <path d="M 30.609375 48.390625 
Q 23.390625 48.390625 19.1875 42.75 
Q 14.984375 37.109375 14.984375 27.296875 
Q 14.984375 17.484375 19.15625 11.84375 
Q 23.34375 6.203125 30.609375 6.203125 
Q 37.796875 6.203125 41.984375 11.859375 
Q 46.1875 17.53125 46.1875 27.296875 
Q 46.1875 37.015625 41.984375 42.703125 
Q 37.796875 48.390625 30.609375 48.390625 
z
M 30.609375 56 
Q 42.328125 56 49.015625 48.375 
Q 55.71875 40.765625 55.71875 27.296875 
Q 55.71875 13.875 49.015625 6.21875 
Q 42.328125 -1.421875 30.609375 -1.421875 
Q 18.84375 -1.421875 12.171875 6.21875 
Q 5.515625 13.875 5.515625 27.296875 
Q 5.515625 40.765625 12.171875 48.375 
Q 18.84375 56 30.609375 56 
z
" id="DejaVuSans-111"/>
       <path d="M 18.109375 8.203125 
L 18.109375 -20.796875 
L 9.078125 -20.796875 
L 9.078125 54.6875 
L 18.109375 54.6875 
L 18.109375 46.390625 
Q 20.953125 51.265625 25.265625 53.625 
Q 29.59375 56 35.59375 56 
Q 45.5625 56 51.78125 48.09375 
Q 58.015625 40.1875 58.015625 27.296875 
Q 58.015625 14.40625 51.78125 6.484375 
Q 45.5625 -1.421875 35.59375 -1.421875 
Q 29.59375 -1.421875 25.265625 0.953125 
Q 20.953125 3.328125 18.109375 8.203125 
z
M 48.6875 27.296875 
Q 48.6875 37.203125 44.609375 42.84375 
Q 40.53125 48.484375 33.40625 48.484375 
Q 26.265625 48.484375 22.1875 42.84375 
Q 18.109375 37.203125 18.109375 27.296875 
Q 18.109375 17.390625 22.1875 11.75 
Q 26.265625 6.109375 33.40625 6.109375 
Q 40.53125 6.109375 44.609375 11.75 
Q 48.6875 17.390625 48.6875 27.296875 
z
" id="DejaVuSans-112"/>
       <path d="M 8.5 21.578125 
L 8.5 54.6875 
L 17.484375 54.6875 
L 17.484375 21.921875 
Q 17.484375 14.15625 20.5 10.265625 
Q 23.53125 6.390625 29.59375 6.390625 
Q 36.859375 6.390625 41.078125 11.03125 
Q 45.3125 15.671875 45.3125 23.6875 
L 45.3125 54.6875 
L 54.296875 54.6875 
L 54.296875 0 
L 45.3125 0 
L 45.3125 8.40625 
Q 42.046875 3.421875 37.71875 1 
Q 33.40625 -1.421875 27.6875 -1.421875 
Q 18.265625 -1.421875 13.375 4.4375 
Q 8.5 10.296875 8.5 21.578125 
z
M 31.109375 56 
z
" id="DejaVuSans-117"/>
       <path d="M 44.28125 53.078125 
L 44.28125 44.578125 
Q 40.484375 46.53125 36.375 47.5 
Q 32.28125 48.484375 27.875 48.484375 
Q 21.1875 48.484375 17.84375 46.4375 
Q 14.5 44.390625 14.5 40.28125 
Q 14.5 37.15625 16.890625 35.375 
Q 19.28125 33.59375 26.515625 31.984375 
L 29.59375 31.296875 
Q 39.15625 29.25 43.1875 25.515625 
Q 47.21875 21.78125 47.21875 15.09375 
Q 47.21875 7.46875 41.1875 3.015625 
Q 35.15625 -1.421875 24.609375 -1.421875 
Q 20.21875 -1.421875 15.453125 -0.5625 
Q 10.6875 0.296875 5.421875 2 
L 5.421875 11.28125 
Q 10.40625 8.6875 15.234375 7.390625 
Q 20.0625 6.109375 24.8125 6.109375 
Q 31.15625 6.109375 34.5625 8.28125 
Q 37.984375 10.453125 37.984375 14.40625 
Q 37.984375 18.0625 35.515625 20.015625 
Q 33.0625 21.96875 24.703125 23.78125 
L 21.578125 24.515625 
Q 13.234375 26.265625 9.515625 29.90625 
Q 5.8125 33.546875 5.8125 39.890625 
Q 5.8125 47.609375 11.28125 51.796875 
Q 16.75 56 26.8125 56 
Q 31.78125 56 36.171875 55.265625 
Q 40.578125 54.546875 44.28125 53.078125 
z
" id="DejaVuSans-115"/>
      </defs>
      <g transform="translate(198.402502 514.773625)rotate(-90)scale(0.088 -0.088)">
       <use xlink:href="#DejaVuSans-65"/>
       <use x="68.408203" xlink:href="#DejaVuSans-103"/>
       <use x="131.884766" xlink:href="#DejaVuSans-101"/>
       <use x="193.408203" xlink:href="#DejaVuSans-32"/>
       <use x="225.195312" xlink:href="#DejaVuSans-97"/>
       <use x="286.474609" xlink:href="#DejaVuSans-116"/>
       <use x="325.683594" xlink:href="#DejaVuSans-32"/>
       <use x="357.470703" xlink:href="#DejaVuSans-77"/>
       <use x="443.75" xlink:href="#DejaVuSans-101"/>
       <use x="505.273438" xlink:href="#DejaVuSans-110"/>
       <use x="568.652344" xlink:href="#DejaVuSans-111"/>
       <use x="629.833984" xlink:href="#DejaVuSans-112"/>
       <use x="693.310547" xlink:href="#DejaVuSans-97"/>
       <use x="754.589844" xlink:href="#DejaVuSans-117"/>
       <use x="817.96875" xlink:href="#DejaVuSans-115"/>
       <use x="870.068359" xlink:href="#DejaVuSans-101"/>
      </g>
     </g>
    </g>
    <g id="xtick_3">
     <g id="line2d_3">
      <g>
       <use style="stroke:#000000;" x="265.14915" xlink:href="#medb9a2f2fb" y="424.492"/>
      </g>
     </g>
     <g id="text_3">
      <!-- Height -->
      <defs>
       <path d="M 9.8125 72.90625 
L 19.671875 72.90625 
L 19.671875 43.015625 
L 55.515625 43.015625 
L 55.515625 72.90625 
L 65.375 72.90625 
L 65.375 0 
L 55.515625 0 
L 55.515625 34.71875 
L 19.671875 34.71875 
L 19.671875 0 
L 9.8125 0 
z
" id="DejaVuSans-72"/>
       <path d="M 9.421875 54.6875 
L 18.40625 54.6875 
L 18.40625 0 
L 9.421875 0 
z
M 9.421875 75.984375 
L 18.40625 75.984375 
L 18.40625 64.59375 
L 9.421875 64.59375 
z
" id="DejaVuSans-105"/>
      </defs>
      <g transform="translate(267.5774 461.882875)rotate(-90)scale(0.088 -0.088)">
       <use xlink:href="#DejaVuSans-72"/>
       <use x="75.195312" xlink:href="#DejaVuSans-101"/>
       <use x="136.71875" xlink:href="#DejaVuSans-105"/>
       <use x="164.501953" xlink:href="#DejaVuSans-103"/>
       <use x="227.978516" xlink:href="#DejaVuSans-104"/>
       <use x="291.357422" xlink:href="#DejaVuSans-116"/>
      </g>
     </g>
    </g>
    <g id="xtick_4">
     <g id="line2d_4">
      <g>
       <use style="stroke:#000000;" x="334.324047" xlink:href="#medb9a2f2fb" y="424.492"/>
      </g>
     </g>
     <g id="text_4">
      <!-- BMI -->
      <defs>
       <path d="M 19.671875 34.8125 
L 19.671875 8.109375 
L 35.5 8.109375 
Q 43.453125 8.109375 47.28125 11.40625 
Q 51.125 14.703125 51.125 21.484375 
Q 51.125 28.328125 47.28125 31.5625 
Q 43.453125 34.8125 35.5 34.8125 
z
M 19.671875 64.796875 
L 19.671875 42.828125 
L 34.28125 42.828125 
Q 41.5 42.828125 45.03125 45.53125 
Q 48.578125 48.25 48.578125 53.8125 
Q 48.578125 59.328125 45.03125 62.0625 
Q 41.5 64.796875 34.28125 64.796875 
z
M 9.8125 72.90625 
L 35.015625 72.90625 
Q 46.296875 72.90625 52.390625 68.21875 
Q 58.5 63.53125 58.5 54.890625 
Q 58.5 48.1875 55.375 44.234375 
Q 52.25 40.28125 46.1875 39.3125 
Q 53.46875 37.75 57.5 32.78125 
Q 61.53125 27.828125 61.53125 20.40625 
Q 61.53125 10.640625 54.890625 5.3125 
Q 48.25 0 35.984375 0 
L 9.8125 0 
z
" id="DejaVuSans-66"/>
       <path d="M 9.8125 72.90625 
L 19.671875 72.90625 
L 19.671875 0 
L 9.8125 0 
z
" id="DejaVuSans-73"/>
      </defs>
      <g transform="translate(336.752297 449.018375)rotate(-90)scale(0.088 -0.088)">
       <use xlink:href="#DejaVuSans-66"/>
       <use x="68.603516" xlink:href="#DejaVuSans-77"/>
       <use x="154.882812" xlink:href="#DejaVuSans-73"/>
      </g>
     </g>
    </g>
    <g id="xtick_5">
     <g id="line2d_5">
      <g>
       <use style="stroke:#000000;" x="403.498945" xlink:href="#medb9a2f2fb" y="424.492"/>
      </g>
     </g>
     <g id="text_5">
      <!-- Waist-hip Ratio -->
      <defs>
       <path d="M 3.328125 72.90625 
L 13.28125 72.90625 
L 28.609375 11.28125 
L 43.890625 72.90625 
L 54.984375 72.90625 
L 70.3125 11.28125 
L 85.59375 72.90625 
L 95.609375 72.90625 
L 77.296875 0 
L 64.890625 0 
L 49.515625 63.28125 
L 33.984375 0 
L 21.578125 0 
z
" id="DejaVuSans-87"/>
       <path d="M 4.890625 31.390625 
L 31.203125 31.390625 
L 31.203125 23.390625 
L 4.890625 23.390625 
z
" id="DejaVuSans-45"/>
       <path d="M 44.390625 34.1875 
Q 47.5625 33.109375 50.5625 29.59375 
Q 53.5625 26.078125 56.59375 19.921875 
L 66.609375 0 
L 56 0 
L 46.6875 18.703125 
Q 43.0625 26.03125 39.671875 28.421875 
Q 36.28125 30.8125 30.421875 30.8125 
L 19.671875 30.8125 
L 19.671875 0 
L 9.8125 0 
L 9.8125 72.90625 
L 32.078125 72.90625 
Q 44.578125 72.90625 50.734375 67.671875 
Q 56.890625 62.453125 56.890625 51.90625 
Q 56.890625 45.015625 53.6875 40.46875 
Q 50.484375 35.9375 44.390625 34.1875 
z
M 19.671875 64.796875 
L 19.671875 38.921875 
L 32.078125 38.921875 
Q 39.203125 38.921875 42.84375 42.21875 
Q 46.484375 45.515625 46.484375 51.90625 
Q 46.484375 58.296875 42.84375 61.546875 
Q 39.203125 64.796875 32.078125 64.796875 
z
" id="DejaVuSans-82"/>
      </defs>
      <g transform="translate(405.927195 498.972125)rotate(-90)scale(0.088 -0.088)">
       <use xlink:href="#DejaVuSans-87"/>
       <use x="92.501953" xlink:href="#DejaVuSans-97"/>
       <use x="153.78125" xlink:href="#DejaVuSans-105"/>
       <use x="181.564453" xlink:href="#DejaVuSans-115"/>
       <use x="233.664062" xlink:href="#DejaVuSans-116"/>
       <use x="272.873047" xlink:href="#DejaVuSans-45"/>
       <use x="308.957031" xlink:href="#DejaVuSans-104"/>
       <use x="372.335938" xlink:href="#DejaVuSans-105"/>
       <use x="400.119141" xlink:href="#DejaVuSans-112"/>
       <use x="463.595703" xlink:href="#DejaVuSans-32"/>
       <use x="495.382812" xlink:href="#DejaVuSans-82"/>
       <use x="562.615234" xlink:href="#DejaVuSans-97"/>
       <use x="623.894531" xlink:href="#DejaVuSans-116"/>
       <use x="663.103516" xlink:href="#DejaVuSans-105"/>
       <use x="690.886719" xlink:href="#DejaVuSans-111"/>
      </g>
     </g>
    </g>
    <g id="xtick_6">
     <g id="line2d_6">
      <g>
       <use style="stroke:#000000;" x="472.673842" xlink:href="#medb9a2f2fb" y="424.492"/>
      </g>
     </g>
     <g id="text_6">
      <!-- Systolic Blood Pressure -->
      <defs>
       <path d="M 53.515625 70.515625 
L 53.515625 60.890625 
Q 47.90625 63.578125 42.921875 64.890625 
Q 37.9375 66.21875 33.296875 66.21875 
Q 25.25 66.21875 20.875 63.09375 
Q 16.5 59.96875 16.5 54.203125 
Q 16.5 49.359375 19.40625 46.890625 
Q 22.3125 44.4375 30.421875 42.921875 
L 36.375 41.703125 
Q 47.40625 39.59375 52.65625 34.296875 
Q 57.90625 29 57.90625 20.125 
Q 57.90625 9.515625 50.796875 4.046875 
Q 43.703125 -1.421875 29.984375 -1.421875 
Q 24.8125 -1.421875 18.96875 -0.25 
Q 13.140625 0.921875 6.890625 3.21875 
L 6.890625 13.375 
Q 12.890625 10.015625 18.65625 8.296875 
Q 24.421875 6.59375 29.984375 6.59375 
Q 38.421875 6.59375 43.015625 9.90625 
Q 47.609375 13.234375 47.609375 19.390625 
Q 47.609375 24.75 44.3125 27.78125 
Q 41.015625 30.8125 33.5 32.328125 
L 27.484375 33.5 
Q 16.453125 35.6875 11.515625 40.375 
Q 6.59375 45.0625 6.59375 53.421875 
Q 6.59375 63.09375 13.40625 68.65625 
Q 20.21875 74.21875 32.171875 74.21875 
Q 37.3125 74.21875 42.625 73.28125 
Q 47.953125 72.359375 53.515625 70.515625 
z
" id="DejaVuSans-83"/>
       <path d="M 32.171875 -5.078125 
Q 28.375 -14.84375 24.75 -17.8125 
Q 21.140625 -20.796875 15.09375 -20.796875 
L 7.90625 -20.796875 
L 7.90625 -13.28125 
L 13.1875 -13.28125 
Q 16.890625 -13.28125 18.9375 -11.515625 
Q 21 -9.765625 23.484375 -3.21875 
L 25.09375 0.875 
L 2.984375 54.6875 
L 12.5 54.6875 
L 29.59375 11.921875 
L 46.6875 54.6875 
L 56.203125 54.6875 
z
" id="DejaVuSans-121"/>
       <path d="M 9.421875 75.984375 
L 18.40625 75.984375 
L 18.40625 0 
L 9.421875 0 
z
" id="DejaVuSans-108"/>
       <path d="M 45.40625 46.390625 
L 45.40625 75.984375 
L 54.390625 75.984375 
L 54.390625 0 
L 45.40625 0 
L 45.40625 8.203125 
Q 42.578125 3.328125 38.25 0.953125 
Q 33.9375 -1.421875 27.875 -1.421875 
Q 17.96875 -1.421875 11.734375 6.484375 
Q 5.515625 14.40625 5.515625 27.296875 
Q 5.515625 40.1875 11.734375 48.09375 
Q 17.96875 56 27.875 56 
Q 33.9375 56 38.25 53.625 
Q 42.578125 51.265625 45.40625 46.390625 
z
M 14.796875 27.296875 
Q 14.796875 17.390625 18.875 11.75 
Q 22.953125 6.109375 30.078125 6.109375 
Q 37.203125 6.109375 41.296875 11.75 
Q 45.40625 17.390625 45.40625 27.296875 
Q 45.40625 37.203125 41.296875 42.84375 
Q 37.203125 48.484375 30.078125 48.484375 
Q 22.953125 48.484375 18.875 42.84375 
Q 14.796875 37.203125 14.796875 27.296875 
z
" id="DejaVuSans-100"/>
       <path d="M 19.671875 64.796875 
L 19.671875 37.40625 
L 32.078125 37.40625 
Q 38.96875 37.40625 42.71875 40.96875 
Q 46.484375 44.53125 46.484375 51.125 
Q 46.484375 57.671875 42.71875 61.234375 
Q 38.96875 64.796875 32.078125 64.796875 
z
M 9.8125 72.90625 
L 32.078125 72.90625 
Q 44.34375 72.90625 50.609375 67.359375 
Q 56.890625 61.8125 56.890625 51.125 
Q 56.890625 40.328125 50.609375 34.8125 
Q 44.34375 29.296875 32.078125 29.296875 
L 19.671875 29.296875 
L 19.671875 0 
L 9.8125 0 
z
" id="DejaVuSans-80"/>
      </defs>
      <g transform="translate(475.102092 534.73175)rotate(-90)scale(0.088 -0.088)">
       <use xlink:href="#DejaVuSans-83"/>
       <use x="63.476562" xlink:href="#DejaVuSans-121"/>
       <use x="122.65625" xlink:href="#DejaVuSans-115"/>
       <use x="174.755859" xlink:href="#DejaVuSans-116"/>
       <use x="213.964844" xlink:href="#DejaVuSans-111"/>
       <use x="275.146484" xlink:href="#DejaVuSans-108"/>
       <use x="302.929688" xlink:href="#DejaVuSans-105"/>
       <use x="330.712891" xlink:href="#DejaVuSans-99"/>
       <use x="385.693359" xlink:href="#DejaVuSans-32"/>
       <use x="417.480469" xlink:href="#DejaVuSans-66"/>
       <use x="486.083984" xlink:href="#DejaVuSans-108"/>
       <use x="513.867188" xlink:href="#DejaVuSans-111"/>
       <use x="575.048828" xlink:href="#DejaVuSans-111"/>
       <use x="636.230469" xlink:href="#DejaVuSans-100"/>
       <use x="699.707031" xlink:href="#DejaVuSans-32"/>
       <use x="731.494141" xlink:href="#DejaVuSans-80"/>
       <use x="790.046875" xlink:href="#DejaVuSans-114"/>
       <use x="828.910156" xlink:href="#DejaVuSans-101"/>
       <use x="890.433594" xlink:href="#DejaVuSans-115"/>
       <use x="942.533203" xlink:href="#DejaVuSans-115"/>
       <use x="994.632812" xlink:href="#DejaVuSans-117"/>
       <use x="1058.011719" xlink:href="#DejaVuSans-114"/>
       <use x="1096.875" xlink:href="#DejaVuSans-101"/>
      </g>
     </g>
    </g>
    <g id="xtick_7">
     <g id="line2d_7">
      <g>
       <use style="stroke:#000000;" x="541.84874" xlink:href="#medb9a2f2fb" y="424.492"/>
      </g>
     </g>
     <g id="text_7">
      <!-- High Cholesterol -->
      <defs>
       <path d="M 64.40625 67.28125 
L 64.40625 56.890625 
Q 59.421875 61.53125 53.78125 63.8125 
Q 48.140625 66.109375 41.796875 66.109375 
Q 29.296875 66.109375 22.65625 58.46875 
Q 16.015625 50.828125 16.015625 36.375 
Q 16.015625 21.96875 22.65625 14.328125 
Q 29.296875 6.6875 41.796875 6.6875 
Q 48.140625 6.6875 53.78125 8.984375 
Q 59.421875 11.28125 64.40625 15.921875 
L 64.40625 5.609375 
Q 59.234375 2.09375 53.4375 0.328125 
Q 47.65625 -1.421875 41.21875 -1.421875 
Q 24.65625 -1.421875 15.125 8.703125 
Q 5.609375 18.84375 5.609375 36.375 
Q 5.609375 53.953125 15.125 64.078125 
Q 24.65625 74.21875 41.21875 74.21875 
Q 47.75 74.21875 53.53125 72.484375 
Q 59.328125 70.75 64.40625 67.28125 
z
" id="DejaVuSans-67"/>
      </defs>
      <g transform="translate(544.27699 505.478625)rotate(-90)scale(0.088 -0.088)">
       <use xlink:href="#DejaVuSans-72"/>
       <use x="75.195312" xlink:href="#DejaVuSans-105"/>
       <use x="102.978516" xlink:href="#DejaVuSans-103"/>
       <use x="166.455078" xlink:href="#DejaVuSans-104"/>
       <use x="229.833984" xlink:href="#DejaVuSans-32"/>
       <use x="261.621094" xlink:href="#DejaVuSans-67"/>
       <use x="331.445312" xlink:href="#DejaVuSans-104"/>
       <use x="394.824219" xlink:href="#DejaVuSans-111"/>
       <use x="456.005859" xlink:href="#DejaVuSans-108"/>
       <use x="483.789062" xlink:href="#DejaVuSans-101"/>
       <use x="545.3125" xlink:href="#DejaVuSans-115"/>
       <use x="597.412109" xlink:href="#DejaVuSans-116"/>
       <use x="636.621094" xlink:href="#DejaVuSans-101"/>
       <use x="698.144531" xlink:href="#DejaVuSans-114"/>
       <use x="737.007812" xlink:href="#DejaVuSans-111"/>
       <use x="798.189453" xlink:href="#DejaVuSans-108"/>
      </g>
     </g>
    </g>
    <g id="xtick_8">
     <g id="line2d_8">
      <g>
       <use style="stroke:#000000;" x="611.023637" xlink:href="#medb9a2f2fb" y="424.492"/>
      </g>
     </g>
     <g id="text_8">
      <!-- Type 2 diabetes -->
      <defs>
       <path d="M -0.296875 72.90625 
L 61.375 72.90625 
L 61.375 64.59375 
L 35.5 64.59375 
L 35.5 0 
L 25.59375 0 
L 25.59375 64.59375 
L -0.296875 64.59375 
z
" id="DejaVuSans-84"/>
       <path d="M 19.1875 8.296875 
L 53.609375 8.296875 
L 53.609375 0 
L 7.328125 0 
L 7.328125 8.296875 
Q 12.9375 14.109375 22.625 23.890625 
Q 32.328125 33.6875 34.8125 36.53125 
Q 39.546875 41.84375 41.421875 45.53125 
Q 43.3125 49.21875 43.3125 52.78125 
Q 43.3125 58.59375 39.234375 62.25 
Q 35.15625 65.921875 28.609375 65.921875 
Q 23.96875 65.921875 18.8125 64.3125 
Q 13.671875 62.703125 7.8125 59.421875 
L 7.8125 69.390625 
Q 13.765625 71.78125 18.9375 73 
Q 24.125 74.21875 28.421875 74.21875 
Q 39.75 74.21875 46.484375 68.546875 
Q 53.21875 62.890625 53.21875 53.421875 
Q 53.21875 48.921875 51.53125 44.890625 
Q 49.859375 40.875 45.40625 35.40625 
Q 44.1875 33.984375 37.640625 27.21875 
Q 31.109375 20.453125 19.1875 8.296875 
z
" id="DejaVuSans-50"/>
       <path d="M 48.6875 27.296875 
Q 48.6875 37.203125 44.609375 42.84375 
Q 40.53125 48.484375 33.40625 48.484375 
Q 26.265625 48.484375 22.1875 42.84375 
Q 18.109375 37.203125 18.109375 27.296875 
Q 18.109375 17.390625 22.1875 11.75 
Q 26.265625 6.109375 33.40625 6.109375 
Q 40.53125 6.109375 44.609375 11.75 
Q 48.6875 17.390625 48.6875 27.296875 
z
M 18.109375 46.390625 
Q 20.953125 51.265625 25.265625 53.625 
Q 29.59375 56 35.59375 56 
Q 45.5625 56 51.78125 48.09375 
Q 58.015625 40.1875 58.015625 27.296875 
Q 58.015625 14.40625 51.78125 6.484375 
Q 45.5625 -1.421875 35.59375 -1.421875 
Q 29.59375 -1.421875 25.265625 0.953125 
Q 20.953125 3.328125 18.109375 8.203125 
L 18.109375 0 
L 9.078125 0 
L 9.078125 75.984375 
L 18.109375 75.984375 
z
" id="DejaVuSans-98"/>
      </defs>
      <g transform="translate(613.451887 502.068625)rotate(-90)scale(0.088 -0.088)">
       <use xlink:href="#DejaVuSans-84"/>
       <use x="45.458984" xlink:href="#DejaVuSans-121"/>
       <use x="104.638672" xlink:href="#DejaVuSans-112"/>
       <use x="168.115234" xlink:href="#DejaVuSans-101"/>
       <use x="229.638672" xlink:href="#DejaVuSans-32"/>
       <use x="261.425781" xlink:href="#DejaVuSans-50"/>
       <use x="325.048828" xlink:href="#DejaVuSans-32"/>
       <use x="356.835938" xlink:href="#DejaVuSans-100"/>
       <use x="420.3125" xlink:href="#DejaVuSans-105"/>
       <use x="448.095703" xlink:href="#DejaVuSans-97"/>
       <use x="509.375" xlink:href="#DejaVuSans-98"/>
       <use x="572.851562" xlink:href="#DejaVuSans-101"/>
       <use x="634.375" xlink:href="#DejaVuSans-116"/>
       <use x="673.583984" xlink:href="#DejaVuSans-101"/>
       <use x="735.107422" xlink:href="#DejaVuSans-115"/>
      </g>
     </g>
    </g>
    <g id="xtick_9">
     <g id="line2d_9">
      <g>
       <use style="stroke:#000000;" x="680.198535" xlink:href="#medb9a2f2fb" y="424.492"/>
      </g>
     </g>
     <g id="text_9">
      <!-- Respiratory and ENT Diseases -->
      <defs>
       <path d="M 9.8125 72.90625 
L 55.90625 72.90625 
L 55.90625 64.59375 
L 19.671875 64.59375 
L 19.671875 43.015625 
L 54.390625 43.015625 
L 54.390625 34.71875 
L 19.671875 34.71875 
L 19.671875 8.296875 
L 56.78125 8.296875 
L 56.78125 0 
L 9.8125 0 
z
" id="DejaVuSans-69"/>
       <path d="M 9.8125 72.90625 
L 23.09375 72.90625 
L 55.421875 11.921875 
L 55.421875 72.90625 
L 64.984375 72.90625 
L 64.984375 0 
L 51.703125 0 
L 19.390625 60.984375 
L 19.390625 0 
L 9.8125 0 
z
" id="DejaVuSans-78"/>
       <path d="M 19.671875 64.796875 
L 19.671875 8.109375 
L 31.59375 8.109375 
Q 46.6875 8.109375 53.6875 14.9375 
Q 60.6875 21.78125 60.6875 36.53125 
Q 60.6875 51.171875 53.6875 57.984375 
Q 46.6875 64.796875 31.59375 64.796875 
z
M 9.8125 72.90625 
L 30.078125 72.90625 
Q 51.265625 72.90625 61.171875 64.09375 
Q 71.09375 55.28125 71.09375 36.53125 
Q 71.09375 17.671875 61.125 8.828125 
Q 51.171875 0 30.078125 0 
L 9.8125 0 
z
" id="DejaVuSans-68"/>
      </defs>
      <g transform="translate(682.626785 564.873125)rotate(-90)scale(0.088 -0.088)">
       <use xlink:href="#DejaVuSans-82"/>
       <use x="64.982422" xlink:href="#DejaVuSans-101"/>
       <use x="126.505859" xlink:href="#DejaVuSans-115"/>
       <use x="178.605469" xlink:href="#DejaVuSans-112"/>
       <use x="242.082031" xlink:href="#DejaVuSans-105"/>
       <use x="269.865234" xlink:href="#DejaVuSans-114"/>
       <use x="310.978516" xlink:href="#DejaVuSans-97"/>
       <use x="372.257812" xlink:href="#DejaVuSans-116"/>
       <use x="411.466797" xlink:href="#DejaVuSans-111"/>
       <use x="472.648438" xlink:href="#DejaVuSans-114"/>
       <use x="513.761719" xlink:href="#DejaVuSans-121"/>
       <use x="572.941406" xlink:href="#DejaVuSans-32"/>
       <use x="604.728516" xlink:href="#DejaVuSans-97"/>
       <use x="666.007812" xlink:href="#DejaVuSans-110"/>
       <use x="729.386719" xlink:href="#DejaVuSans-100"/>
       <use x="792.863281" xlink:href="#DejaVuSans-32"/>
       <use x="824.650391" xlink:href="#DejaVuSans-69"/>
       <use x="887.833984" xlink:href="#DejaVuSans-78"/>
       <use x="962.638672" xlink:href="#DejaVuSans-84"/>
       <use x="1023.722656" xlink:href="#DejaVuSans-32"/>
       <use x="1055.509766" xlink:href="#DejaVuSans-68"/>
       <use x="1132.511719" xlink:href="#DejaVuSans-105"/>
       <use x="1160.294922" xlink:href="#DejaVuSans-115"/>
       <use x="1212.394531" xlink:href="#DejaVuSans-101"/>
       <use x="1273.917969" xlink:href="#DejaVuSans-97"/>
       <use x="1335.197266" xlink:href="#DejaVuSans-115"/>
       <use x="1387.296875" xlink:href="#DejaVuSans-101"/>
       <use x="1448.820312" xlink:href="#DejaVuSans-115"/>
      </g>
     </g>
    </g>
    <g id="xtick_10">
     <g id="line2d_10">
      <g>
       <use style="stroke:#000000;" x="749.373432" xlink:href="#medb9a2f2fb" y="424.492"/>
      </g>
     </g>
     <g id="text_10">
      <!-- Auto Immune Traits -->
      <defs>
       <path d="M 52 44.1875 
Q 55.375 50.25 60.0625 53.125 
Q 64.75 56 71.09375 56 
Q 79.640625 56 84.28125 50.015625 
Q 88.921875 44.046875 88.921875 33.015625 
L 88.921875 0 
L 79.890625 0 
L 79.890625 32.71875 
Q 79.890625 40.578125 77.09375 44.375 
Q 74.3125 48.1875 68.609375 48.1875 
Q 61.625 48.1875 57.5625 43.546875 
Q 53.515625 38.921875 53.515625 30.90625 
L 53.515625 0 
L 44.484375 0 
L 44.484375 32.71875 
Q 44.484375 40.625 41.703125 44.40625 
Q 38.921875 48.1875 33.109375 48.1875 
Q 26.21875 48.1875 22.15625 43.53125 
Q 18.109375 38.875 18.109375 30.90625 
L 18.109375 0 
L 9.078125 0 
L 9.078125 54.6875 
L 18.109375 54.6875 
L 18.109375 46.1875 
Q 21.1875 51.21875 25.484375 53.609375 
Q 29.78125 56 35.6875 56 
Q 41.65625 56 45.828125 52.96875 
Q 50 49.953125 52 44.1875 
z
" id="DejaVuSans-109"/>
      </defs>
      <g transform="translate(751.801682 518.691)rotate(-90)scale(0.088 -0.088)">
       <use xlink:href="#DejaVuSans-65"/>
       <use x="68.408203" xlink:href="#DejaVuSans-117"/>
       <use x="131.787109" xlink:href="#DejaVuSans-116"/>
       <use x="170.996094" xlink:href="#DejaVuSans-111"/>
       <use x="232.177734" xlink:href="#DejaVuSans-32"/>
       <use x="263.964844" xlink:href="#DejaVuSans-73"/>
       <use x="293.457031" xlink:href="#DejaVuSans-109"/>
       <use x="390.869141" xlink:href="#DejaVuSans-109"/>
       <use x="488.28125" xlink:href="#DejaVuSans-117"/>
       <use x="551.660156" xlink:href="#DejaVuSans-110"/>
       <use x="615.039062" xlink:href="#DejaVuSans-101"/>
       <use x="676.5625" xlink:href="#DejaVuSans-32"/>
       <use x="708.349609" xlink:href="#DejaVuSans-84"/>
       <use x="754.683594" xlink:href="#DejaVuSans-114"/>
       <use x="795.796875" xlink:href="#DejaVuSans-97"/>
       <use x="857.076172" xlink:href="#DejaVuSans-105"/>
       <use x="884.859375" xlink:href="#DejaVuSans-116"/>
       <use x="924.068359" xlink:href="#DejaVuSans-115"/>
      </g>
     </g>
    </g>
    <g id="xtick_11">
     <g id="line2d_11">
      <g>
       <use style="stroke:#000000;" x="818.54833" xlink:href="#medb9a2f2fb" y="424.492"/>
      </g>
     </g>
     <g id="text_11">
      <!-- Eczema -->
      <defs>
       <path d="M 5.515625 54.6875 
L 48.1875 54.6875 
L 48.1875 46.484375 
L 14.40625 7.171875 
L 48.1875 7.171875 
L 48.1875 0 
L 4.296875 0 
L 4.296875 8.203125 
L 38.09375 47.515625 
L 5.515625 47.515625 
z
" id="DejaVuSans-122"/>
      </defs>
      <g transform="translate(820.97658 467.189)rotate(-90)scale(0.088 -0.088)">
       <use xlink:href="#DejaVuSans-69"/>
       <use x="63.183594" xlink:href="#DejaVuSans-99"/>
       <use x="118.164062" xlink:href="#DejaVuSans-122"/>
       <use x="170.654297" xlink:href="#DejaVuSans-101"/>
       <use x="232.177734" xlink:href="#DejaVuSans-109"/>
       <use x="329.589844" xlink:href="#DejaVuSans-97"/>
      </g>
     </g>
    </g>
    <g id="xtick_12">
     <g id="line2d_12">
      <g>
       <use style="stroke:#000000;" x="887.723227" xlink:href="#medb9a2f2fb" y="424.492"/>
      </g>
     </g>
     <g id="text_12">
      <!-- Hypothyroidism -->
      <g transform="translate(890.151477 502.261125)rotate(-90)scale(0.088 -0.088)">
       <use xlink:href="#DejaVuSans-72"/>
       <use x="75.195312" xlink:href="#DejaVuSans-121"/>
       <use x="134.375" xlink:href="#DejaVuSans-112"/>
       <use x="197.851562" xlink:href="#DejaVuSans-111"/>
       <use x="259.033203" xlink:href="#DejaVuSans-116"/>
       <use x="298.242188" xlink:href="#DejaVuSans-104"/>
       <use x="361.621094" xlink:href="#DejaVuSans-121"/>
       <use x="420.800781" xlink:href="#DejaVuSans-114"/>
       <use x="459.664062" xlink:href="#DejaVuSans-111"/>
       <use x="520.845703" xlink:href="#DejaVuSans-105"/>
       <use x="548.628906" xlink:href="#DejaVuSans-100"/>
       <use x="612.105469" xlink:href="#DejaVuSans-105"/>
       <use x="639.888672" xlink:href="#DejaVuSans-115"/>
       <use x="691.988281" xlink:href="#DejaVuSans-109"/>
      </g>
     </g>
    </g>
   </g>
   <g id="matplotlib.axis_2">
    <g id="ytick_1">
     <g id="line2d_13">
      <defs>
       <path d="M 0 0 
L -4.8 0 
" id="m3bcf1eb650" style="stroke:#000000;"/>
      </defs>
      <g>
       <use style="stroke:#000000;" x="57.048" xlink:href="#m3bcf1eb650" y="346.950697"/>
      </g>
     </g>
     <g id="text_13">
      <!-- −40 -->
      <defs>
       <path d="M 10.59375 35.5 
L 73.1875 35.5 
L 73.1875 27.203125 
L 10.59375 27.203125 
z
" id="DejaVuSans-8722"/>
       <path d="M 37.796875 64.3125 
L 12.890625 25.390625 
L 37.796875 25.390625 
z
M 35.203125 72.90625 
L 47.609375 72.90625 
L 47.609375 25.390625 
L 58.015625 25.390625 
L 58.015625 17.1875 
L 47.609375 17.1875 
L 47.609375 0 
L 37.796875 0 
L 37.796875 17.1875 
L 4.890625 17.1875 
L 4.890625 26.703125 
z
" id="DejaVuSans-52"/>
       <path d="M 31.78125 66.40625 
Q 24.171875 66.40625 20.328125 58.90625 
Q 16.5 51.421875 16.5 36.375 
Q 16.5 21.390625 20.328125 13.890625 
Q 24.171875 6.390625 31.78125 6.390625 
Q 39.453125 6.390625 43.28125 13.890625 
Q 47.125 21.390625 47.125 36.375 
Q 47.125 51.421875 43.28125 58.90625 
Q 39.453125 66.40625 31.78125 66.40625 
z
M 31.78125 74.21875 
Q 44.046875 74.21875 50.515625 64.515625 
Q 56.984375 54.828125 56.984375 36.375 
Q 56.984375 17.96875 50.515625 8.265625 
Q 44.046875 -1.421875 31.78125 -1.421875 
Q 19.53125 -1.421875 13.0625 8.265625 
Q 6.59375 17.96875 6.59375 36.375 
Q 6.59375 54.828125 13.0625 64.515625 
Q 19.53125 74.21875 31.78125 74.21875 
z
" id="DejaVuSans-48"/>
      </defs>
      <g transform="translate(30.175875 350.294009)scale(0.088 -0.088)">
       <use xlink:href="#DejaVuSans-8722"/>
       <use x="83.789062" xlink:href="#DejaVuSans-52"/>
       <use x="147.412109" xlink:href="#DejaVuSans-48"/>
      </g>
     </g>
    </g>
    <g id="ytick_2">
     <g id="line2d_14">
      <g>
       <use style="stroke:#000000;" x="57.048" xlink:href="#m3bcf1eb650" y="268.693059"/>
      </g>
     </g>
     <g id="text_14">
      <!-- −20 -->
      <g transform="translate(30.175875 272.036371)scale(0.088 -0.088)">
       <use xlink:href="#DejaVuSans-8722"/>
       <use x="83.789062" xlink:href="#DejaVuSans-50"/>
       <use x="147.412109" xlink:href="#DejaVuSans-48"/>
      </g>
     </g>
    </g>
    <g id="ytick_3">
     <g id="line2d_15">
      <g>
       <use style="stroke:#000000;" x="57.048" xlink:href="#m3bcf1eb650" y="190.43542"/>
      </g>
     </g>
     <g id="text_15">
      <!-- 0 -->
      <g transform="translate(43.149 193.778733)scale(0.088 -0.088)">
       <use xlink:href="#DejaVuSans-48"/>
      </g>
     </g>
    </g>
    <g id="ytick_4">
     <g id="line2d_16">
      <g>
       <use style="stroke:#000000;" x="57.048" xlink:href="#m3bcf1eb650" y="112.177782"/>
      </g>
     </g>
     <g id="text_16">
      <!-- 20 -->
      <g transform="translate(37.55 115.521095)scale(0.088 -0.088)">
       <use xlink:href="#DejaVuSans-50"/>
       <use x="63.623047" xlink:href="#DejaVuSans-48"/>
      </g>
     </g>
    </g>
    <g id="ytick_5">
     <g id="line2d_17">
      <g>
       <use style="stroke:#000000;" x="57.048" xlink:href="#m3bcf1eb650" y="33.920144"/>
      </g>
     </g>
     <g id="text_17">
      <!-- 40 -->
      <g transform="translate(37.55 37.263457)scale(0.088 -0.088)">
       <use xlink:href="#DejaVuSans-52"/>
       <use x="63.623047" xlink:href="#DejaVuSans-48"/>
      </g>
     </g>
    </g>
    <g id="text_18">
     <!-- $h_g^2$ (% difference w.r.t. S-LD2MAF) -->
     <defs>
      <path d="M 55.71875 33.015625 
L 49.3125 0 
L 40.28125 0 
L 46.6875 32.671875 
Q 47.125 34.96875 47.359375 36.71875 
Q 47.609375 38.484375 47.609375 39.5 
Q 47.609375 43.609375 45.015625 45.890625 
Q 42.4375 48.1875 37.796875 48.1875 
Q 30.5625 48.1875 25.265625 43.296875 
Q 19.96875 38.421875 18.40625 30.328125 
L 12.5 0 
L 3.515625 0 
L 18.3125 75.984375 
L 27.296875 75.984375 
L 21.484375 46.09375 
Q 24.90625 50.6875 30.21875 53.34375 
Q 35.546875 56 41.40625 56 
Q 48.640625 56 52.609375 52.09375 
Q 56.59375 48.1875 56.59375 41.109375 
Q 56.59375 39.359375 56.375 37.359375 
Q 56.15625 35.359375 55.71875 33.015625 
z
" id="DejaVuSans-Oblique-104"/>
      <path d="M 59.625 54.6875 
L 50.296875 6.78125 
Q 47.609375 -7.125 40.015625 -13.953125 
Q 32.421875 -20.796875 19.578125 -20.796875 
Q 14.84375 -20.796875 10.78125 -20.09375 
Q 6.734375 -19.390625 3.21875 -17.921875 
L 4.890625 -9.1875 
Q 8.203125 -11.328125 11.90625 -12.34375 
Q 15.625 -13.375 19.828125 -13.375 
Q 28.375 -13.375 33.859375 -8.703125 
Q 39.359375 -4.046875 41.109375 4.6875 
L 41.890625 8.796875 
Q 38.140625 4.5 33.15625 2.25 
Q 28.171875 0 22.40625 0 
Q 14.109375 0 9.34375 5.484375 
Q 4.59375 10.984375 4.59375 20.609375 
Q 4.59375 28.171875 7.46875 35.421875 
Q 10.359375 42.671875 15.578125 48.296875 
Q 19.046875 52 23.65625 54 
Q 28.265625 56 33.296875 56 
Q 38.8125 56 42.90625 53.4375 
Q 47.015625 50.875 49.03125 46.1875 
L 50.59375 54.6875 
z
M 46.09375 34.625 
Q 46.09375 41.265625 42.96875 44.875 
Q 39.84375 48.484375 34.078125 48.484375 
Q 30.515625 48.484375 27.296875 47.0625 
Q 24.078125 45.65625 21.78125 43.109375 
Q 18.0625 38.921875 15.984375 33.234375 
Q 13.921875 27.546875 13.921875 21.484375 
Q 13.921875 14.75 17.0625 11.125 
Q 20.21875 7.515625 26.125 7.515625 
Q 34.671875 7.515625 40.375 15.25 
Q 46.09375 23 46.09375 34.625 
z
" id="DejaVuSans-Oblique-103"/>
      <path d="M 31 75.875 
Q 24.46875 64.65625 21.28125 53.65625 
Q 18.109375 42.671875 18.109375 31.390625 
Q 18.109375 20.125 21.3125 9.0625 
Q 24.515625 -2 31 -13.1875 
L 23.1875 -13.1875 
Q 15.875 -1.703125 12.234375 9.375 
Q 8.59375 20.453125 8.59375 31.390625 
Q 8.59375 42.28125 12.203125 53.3125 
Q 15.828125 64.359375 23.1875 75.875 
z
" id="DejaVuSans-40"/>
      <path d="M 72.703125 32.078125 
Q 68.453125 32.078125 66.03125 28.46875 
Q 63.625 24.859375 63.625 18.40625 
Q 63.625 12.0625 66.03125 8.421875 
Q 68.453125 4.78125 72.703125 4.78125 
Q 76.859375 4.78125 79.265625 8.421875 
Q 81.6875 12.0625 81.6875 18.40625 
Q 81.6875 24.8125 79.265625 28.4375 
Q 76.859375 32.078125 72.703125 32.078125 
z
M 72.703125 38.28125 
Q 80.421875 38.28125 84.953125 32.90625 
Q 89.5 27.546875 89.5 18.40625 
Q 89.5 9.28125 84.9375 3.921875 
Q 80.375 -1.421875 72.703125 -1.421875 
Q 64.890625 -1.421875 60.34375 3.921875 
Q 55.8125 9.28125 55.8125 18.40625 
Q 55.8125 27.59375 60.375 32.9375 
Q 64.9375 38.28125 72.703125 38.28125 
z
M 22.3125 68.015625 
Q 18.109375 68.015625 15.6875 64.375 
Q 13.28125 60.75 13.28125 54.390625 
Q 13.28125 47.953125 15.671875 44.328125 
Q 18.0625 40.71875 22.3125 40.71875 
Q 26.5625 40.71875 28.96875 44.328125 
Q 31.390625 47.953125 31.390625 54.390625 
Q 31.390625 60.6875 28.953125 64.34375 
Q 26.515625 68.015625 22.3125 68.015625 
z
M 66.40625 74.21875 
L 74.21875 74.21875 
L 28.609375 -1.421875 
L 20.796875 -1.421875 
z
M 22.3125 74.21875 
Q 30.03125 74.21875 34.609375 68.875 
Q 39.203125 63.53125 39.203125 54.390625 
Q 39.203125 45.171875 34.640625 39.84375 
Q 30.078125 34.515625 22.3125 34.515625 
Q 14.546875 34.515625 10.03125 39.859375 
Q 5.515625 45.21875 5.515625 54.390625 
Q 5.515625 63.484375 10.046875 68.84375 
Q 14.59375 74.21875 22.3125 74.21875 
z
" id="DejaVuSans-37"/>
      <path d="M 37.109375 75.984375 
L 37.109375 68.5 
L 28.515625 68.5 
Q 23.6875 68.5 21.796875 66.546875 
Q 19.921875 64.59375 19.921875 59.515625 
L 19.921875 54.6875 
L 34.71875 54.6875 
L 34.71875 47.703125 
L 19.921875 47.703125 
L 19.921875 0 
L 10.890625 0 
L 10.890625 47.703125 
L 2.296875 47.703125 
L 2.296875 54.6875 
L 10.890625 54.6875 
L 10.890625 58.5 
Q 10.890625 67.625 15.140625 71.796875 
Q 19.390625 75.984375 28.609375 75.984375 
z
" id="DejaVuSans-102"/>
      <path d="M 4.203125 54.6875 
L 13.1875 54.6875 
L 24.421875 12.015625 
L 35.59375 54.6875 
L 46.1875 54.6875 
L 57.421875 12.015625 
L 68.609375 54.6875 
L 77.59375 54.6875 
L 63.28125 0 
L 52.6875 0 
L 40.921875 44.828125 
L 29.109375 0 
L 18.5 0 
z
" id="DejaVuSans-119"/>
      <path d="M 10.6875 12.40625 
L 21 12.40625 
L 21 0 
L 10.6875 0 
z
" id="DejaVuSans-46"/>
      <path d="M 9.8125 72.90625 
L 19.671875 72.90625 
L 19.671875 8.296875 
L 55.171875 8.296875 
L 55.171875 0 
L 9.8125 0 
z
" id="DejaVuSans-76"/>
      <path d="M 9.8125 72.90625 
L 51.703125 72.90625 
L 51.703125 64.59375 
L 19.671875 64.59375 
L 19.671875 43.109375 
L 48.578125 43.109375 
L 48.578125 34.8125 
L 19.671875 34.8125 
L 19.671875 0 
L 9.8125 0 
z
" id="DejaVuSans-70"/>
      <path d="M 8.015625 75.875 
L 15.828125 75.875 
Q 23.140625 64.359375 26.78125 53.3125 
Q 30.421875 42.28125 30.421875 31.390625 
Q 30.421875 20.453125 26.78125 9.375 
Q 23.140625 -1.703125 15.828125 -13.1875 
L 8.015625 -13.1875 
Q 14.5 -2 17.703125 9.0625 
Q 20.90625 20.125 20.90625 31.390625 
Q 20.90625 42.671875 17.703125 53.65625 
Q 14.5 64.65625 8.015625 75.875 
z
" id="DejaVuSans-41"/>
     </defs>
     <g transform="translate(22.143875 306.518)rotate(-90)scale(0.096 -0.096)">
      <use transform="translate(0 0.765625)" xlink:href="#DejaVuSans-Oblique-104"/>
      <use transform="translate(70.826615 39.046875)scale(0.7)" xlink:href="#DejaVuSans-50"/>
      <use transform="translate(63.378906 -26.578125)scale(0.7)" xlink:href="#DejaVuSans-Oblique-103"/>
      <use transform="translate(118.097122 0.765625)" xlink:href="#DejaVuSans-32"/>
      <use transform="translate(149.884232 0.765625)" xlink:href="#DejaVuSans-40"/>
      <use transform="translate(188.897904 0.765625)" xlink:href="#DejaVuSans-37"/>
      <use transform="translate(283.917435 0.765625)" xlink:href="#DejaVuSans-32"/>
      <use transform="translate(315.704544 0.765625)" xlink:href="#DejaVuSans-100"/>
      <use transform="translate(379.181107 0.765625)" xlink:href="#DejaVuSans-105"/>
      <use transform="translate(406.96431 0.765625)" xlink:href="#DejaVuSans-102"/>
      <use transform="translate(442.169388 0.765625)" xlink:href="#DejaVuSans-102"/>
      <use transform="translate(477.374466 0.765625)" xlink:href="#DejaVuSans-101"/>
      <use transform="translate(538.897904 0.765625)" xlink:href="#DejaVuSans-114"/>
      <use transform="translate(580.011185 0.765625)" xlink:href="#DejaVuSans-101"/>
      <use transform="translate(641.534622 0.765625)" xlink:href="#DejaVuSans-110"/>
      <use transform="translate(704.913529 0.765625)" xlink:href="#DejaVuSans-99"/>
      <use transform="translate(759.893997 0.765625)" xlink:href="#DejaVuSans-101"/>
      <use transform="translate(821.417435 0.765625)" xlink:href="#DejaVuSans-32"/>
      <use transform="translate(853.204544 0.765625)" xlink:href="#DejaVuSans-119"/>
      <use transform="translate(934.991654 0.765625)" xlink:href="#DejaVuSans-46"/>
      <use transform="translate(966.778763 0.765625)" xlink:href="#DejaVuSans-114"/>
      <use transform="translate(1007.892044 0.765625)" xlink:href="#DejaVuSans-46"/>
      <use transform="translate(1039.679154 0.765625)" xlink:href="#DejaVuSans-116"/>
      <use transform="translate(1078.888138 0.765625)" xlink:href="#DejaVuSans-46"/>
      <use transform="translate(1110.675247 0.765625)" xlink:href="#DejaVuSans-32"/>
      <use transform="translate(1142.462357 0.765625)" xlink:href="#DejaVuSans-83"/>
      <use transform="translate(1205.938919 0.765625)" xlink:href="#DejaVuSans-45"/>
      <use transform="translate(1242.022904 0.765625)" xlink:href="#DejaVuSans-76"/>
      <use transform="translate(1297.735794 0.765625)" xlink:href="#DejaVuSans-68"/>
      <use transform="translate(1374.737747 0.765625)" xlink:href="#DejaVuSans-50"/>
      <use transform="translate(1438.360794 0.765625)" xlink:href="#DejaVuSans-77"/>
      <use transform="translate(1524.640091 0.765625)" xlink:href="#DejaVuSans-65"/>
      <use transform="translate(1593.048294 0.765625)" xlink:href="#DejaVuSans-70"/>
      <use transform="translate(1650.567826 0.765625)" xlink:href="#DejaVuSans-41"/>
     </g>
    </g>
   </g>
   <g id="LineCollection_1">
    <path clip-path="url(#pef6701e754)" d="M 103.741056 229.491353 
L 103.741056 195.005615 
" style="fill:none;stroke:#000000;"/>
    <path clip-path="url(#pef6701e754)" d="M 172.915953 291.182277 
L 172.915953 217.86547 
" style="fill:none;stroke:#000000;"/>
    <path clip-path="url(#pef6701e754)" d="M 242.090851 259.452565 
L 242.090851 224.984906 
" style="fill:none;stroke:#000000;"/>
    <path clip-path="url(#pef6701e754)" d="M 311.265748 240.110723 
L 311.265748 219.378257 
" style="fill:none;stroke:#000000;"/>
    <path clip-path="url(#pef6701e754)" d="M 380.440646 272.502973 
L 380.440646 232.56918 
" style="fill:none;stroke:#000000;"/>
    <path clip-path="url(#pef6701e754)" d="M 449.615543 262.088014 
L 449.615543 233.292553 
" style="fill:none;stroke:#000000;"/>
    <path clip-path="url(#pef6701e754)" d="M 518.790441 330.462984 
L 518.790441 248.175833 
" style="fill:none;stroke:#000000;"/>
    <path clip-path="url(#pef6701e754)" d="M 587.965338 290.173628 
L 587.965338 241.092972 
" style="fill:none;stroke:#000000;"/>
    <path clip-path="url(#pef6701e754)" d="M 657.140236 309.932889 
L 657.140236 251.656171 
" style="fill:none;stroke:#000000;"/>
    <path clip-path="url(#pef6701e754)" d="M 726.315133 398.130751 
L 726.315133 267.011993 
" style="fill:none;stroke:#000000;"/>
    <path clip-path="url(#pef6701e754)" d="M 795.490031 288.23815 
L 795.490031 242.692772 
" style="fill:none;stroke:#000000;"/>
    <path clip-path="url(#pef6701e754)" d="M 864.664928 288.289395 
L 864.664928 231.860959 
" style="fill:none;stroke:#000000;"/>
   </g>
   <g id="LineCollection_2">
    <path clip-path="url(#pef6701e754)" d="M 115.270205 232.08852 
L 115.270205 199.826436 
" style="fill:none;stroke:#000000;"/>
    <path clip-path="url(#pef6701e754)" d="M 184.445103 287.149865 
L 184.445103 212.156786 
" style="fill:none;stroke:#000000;"/>
    <path clip-path="url(#pef6701e754)" d="M 253.62 255.445809 
L 253.62 221.392165 
" style="fill:none;stroke:#000000;"/>
    <path clip-path="url(#pef6701e754)" d="M 322.794898 237.785363 
L 322.794898 217.232687 
" style="fill:none;stroke:#000000;"/>
    <path clip-path="url(#pef6701e754)" d="M 391.969795 268.992035 
L 391.969795 229.576898 
" style="fill:none;stroke:#000000;"/>
    <path clip-path="url(#pef6701e754)" d="M 461.144693 258.441248 
L 461.144693 230.078096 
" style="fill:none;stroke:#000000;"/>
    <path clip-path="url(#pef6701e754)" d="M 530.31959 324.94875 
L 530.31959 245.001532 
" style="fill:none;stroke:#000000;"/>
    <path clip-path="url(#pef6701e754)" d="M 599.494488 288.187502 
L 599.494488 241.686878 
" style="fill:none;stroke:#000000;"/>
    <path clip-path="url(#pef6701e754)" d="M 668.669385 304.071559 
L 668.669385 245.769622 
" style="fill:none;stroke:#000000;"/>
    <path clip-path="url(#pef6701e754)" d="M 737.844283 406.392545 
L 737.844283 271.852261 
" style="fill:none;stroke:#000000;"/>
    <path clip-path="url(#pef6701e754)" d="M 807.01918 288.050601 
L 807.01918 243.033875 
" style="fill:none;stroke:#000000;"/>
    <path clip-path="url(#pef6701e754)" d="M 876.194078 279.271375 
L 876.194078 223.59334 
" style="fill:none;stroke:#000000;"/>
   </g>
   <g id="LineCollection_3">
    <path clip-path="url(#pef6701e754)" d="M 126.799355 196.240208 
L 126.799355 163.015281 
" style="fill:none;stroke:#000000;"/>
    <path clip-path="url(#pef6701e754)" d="M 195.974252 227.009972 
L 195.974252 148.365755 
" style="fill:none;stroke:#000000;"/>
    <path clip-path="url(#pef6701e754)" d="M 265.14915 201.050246 
L 265.14915 164.018778 
" style="fill:none;stroke:#000000;"/>
    <path clip-path="url(#pef6701e754)" d="M 334.324047 203.813263 
L 334.324047 183.513617 
" style="fill:none;stroke:#000000;"/>
    <path clip-path="url(#pef6701e754)" d="M 403.498945 228.856399 
L 403.498945 191.376598 
" style="fill:none;stroke:#000000;"/>
    <path clip-path="url(#pef6701e754)" d="M 472.673842 216.31841 
L 472.673842 185.891862 
" style="fill:none;stroke:#000000;"/>
    <path clip-path="url(#pef6701e754)" d="M 541.84874 240.266153 
L 541.84874 152.268689 
" style="fill:none;stroke:#000000;"/>
    <path clip-path="url(#pef6701e754)" d="M 611.023637 221.716773 
L 611.023637 170.745094 
" style="fill:none;stroke:#000000;"/>
    <path clip-path="url(#pef6701e754)" d="M 680.198535 263.729659 
L 680.198535 207.400017 
" style="fill:none;stroke:#000000;"/>
    <path clip-path="url(#pef6701e754)" d="M 749.373432 229.226144 
L 749.373432 91.222329 
" style="fill:none;stroke:#000000;"/>
    <path clip-path="url(#pef6701e754)" d="M 818.54833 259.047283 
L 818.54833 216.127171 
" style="fill:none;stroke:#000000;"/>
    <path clip-path="url(#pef6701e754)" d="M 887.723227 203.461378 
L 887.723227 137.661658 
" style="fill:none;stroke:#000000;"/>
   </g>
   <g id="LineCollection_4">
    <path clip-path="url(#pef6701e754)" d="M 138.328505 202.106733 
L 138.328505 166.560192 
" style="fill:none;stroke:#000000;"/>
    <path clip-path="url(#pef6701e754)" d="M 207.503402 231.882251 
L 207.503402 146.104466 
" style="fill:none;stroke:#000000;"/>
    <path clip-path="url(#pef6701e754)" d="M 276.6783 204.512647 
L 276.6783 174.979614 
" style="fill:none;stroke:#000000;"/>
    <path clip-path="url(#pef6701e754)" d="M 345.853197 197.338207 
L 345.853197 176.408042 
" style="fill:none;stroke:#000000;"/>
    <path clip-path="url(#pef6701e754)" d="M 415.028094 204.282182 
L 415.028094 168.854864 
" style="fill:none;stroke:#000000;"/>
    <path clip-path="url(#pef6701e754)" d="M 484.202992 201.826902 
L 484.202992 172.293014 
" style="fill:none;stroke:#000000;"/>
    <path clip-path="url(#pef6701e754)" d="M 553.377889 227.310807 
L 553.377889 144.881097 
" style="fill:none;stroke:#000000;"/>
    <path clip-path="url(#pef6701e754)" d="M 622.552787 208.328406 
L 622.552787 157.578407 
" style="fill:none;stroke:#000000;"/>
    <path clip-path="url(#pef6701e754)" d="M 691.727684 221.352232 
L 691.727684 160.189642 
" style="fill:none;stroke:#000000;"/>
    <path clip-path="url(#pef6701e754)" d="M 760.902582 263.955436 
L 760.902582 88.971771 
" style="fill:none;stroke:#000000;"/>
    <path clip-path="url(#pef6701e754)" d="M 830.077479 206.474624 
L 830.077479 161.045399 
" style="fill:none;stroke:#000000;"/>
    <path clip-path="url(#pef6701e754)" d="M 899.252377 220.82588 
L 899.252377 156.686059 
" style="fill:none;stroke:#000000;"/>
   </g>
   <g id="LineCollection_5">
    <path clip-path="url(#pef6701e754)" d="M 149.857654 214.133666 
L 149.857654 182.77818 
" style="fill:none;stroke:#000000;"/>
    <path clip-path="url(#pef6701e754)" d="M 219.032552 223.199698 
L 219.032552 137.304866 
" style="fill:none;stroke:#000000;"/>
    <path clip-path="url(#pef6701e754)" d="M 288.207449 193.424717 
L 288.207449 163.224497 
" style="fill:none;stroke:#000000;"/>
    <path clip-path="url(#pef6701e754)" d="M 357.382347 207.085841 
L 357.382347 187.431434 
" style="fill:none;stroke:#000000;"/>
    <path clip-path="url(#pef6701e754)" d="M 426.557244 213.819713 
L 426.557244 181.202 
" style="fill:none;stroke:#000000;"/>
    <path clip-path="url(#pef6701e754)" d="M 495.732142 208.793159 
L 495.732142 178.793937 
" style="fill:none;stroke:#000000;"/>
    <path clip-path="url(#pef6701e754)" d="M 564.907039 220.65405 
L 564.907039 131.294397 
" style="fill:none;stroke:#000000;"/>
    <path clip-path="url(#pef6701e754)" d="M 634.081936 201.816432 
L 634.081936 154.444652 
" style="fill:none;stroke:#000000;"/>
    <path clip-path="url(#pef6701e754)" d="M 703.256834 241.880685 
L 703.256834 186.042625 
" style="fill:none;stroke:#000000;"/>
    <path clip-path="url(#pef6701e754)" d="M 772.431731 199.13895 
L 772.431731 44.403455 
" style="fill:none;stroke:#000000;"/>
    <path clip-path="url(#pef6701e754)" d="M 841.606629 233.340041 
L 841.606629 190.704968 
" style="fill:none;stroke:#000000;"/>
    <path clip-path="url(#pef6701e754)" d="M 910.781526 216.771946 
L 910.781526 157.000567 
" style="fill:none;stroke:#000000;"/>
   </g>
   <g id="line2d_18">
    <defs>
     <path d="M 2 0 
L -2 -0 
" id="m7aec3e6ea3" style="stroke:#000000;"/>
    </defs>
    <g clip-path="url(#pef6701e754)">
     <use style="stroke:#000000;" x="103.741056" xlink:href="#m7aec3e6ea3" y="229.491353"/>
     <use style="stroke:#000000;" x="172.915953" xlink:href="#m7aec3e6ea3" y="291.182277"/>
     <use style="stroke:#000000;" x="242.090851" xlink:href="#m7aec3e6ea3" y="259.452565"/>
     <use style="stroke:#000000;" x="311.265748" xlink:href="#m7aec3e6ea3" y="240.110723"/>
     <use style="stroke:#000000;" x="380.440646" xlink:href="#m7aec3e6ea3" y="272.502973"/>
     <use style="stroke:#000000;" x="449.615543" xlink:href="#m7aec3e6ea3" y="262.088014"/>
     <use style="stroke:#000000;" x="518.790441" xlink:href="#m7aec3e6ea3" y="330.462984"/>
     <use style="stroke:#000000;" x="587.965338" xlink:href="#m7aec3e6ea3" y="290.173628"/>
     <use style="stroke:#000000;" x="657.140236" xlink:href="#m7aec3e6ea3" y="309.932889"/>
     <use style="stroke:#000000;" x="726.315133" xlink:href="#m7aec3e6ea3" y="398.130751"/>
     <use style="stroke:#000000;" x="795.490031" xlink:href="#m7aec3e6ea3" y="288.23815"/>
     <use style="stroke:#000000;" x="864.664928" xlink:href="#m7aec3e6ea3" y="288.289395"/>
    </g>
   </g>
   <g id="line2d_19">
    <g clip-path="url(#pef6701e754)">
     <use style="stroke:#000000;" x="103.741056" xlink:href="#m7aec3e6ea3" y="195.005615"/>
     <use style="stroke:#000000;" x="172.915953" xlink:href="#m7aec3e6ea3" y="217.86547"/>
     <use style="stroke:#000000;" x="242.090851" xlink:href="#m7aec3e6ea3" y="224.984906"/>
     <use style="stroke:#000000;" x="311.265748" xlink:href="#m7aec3e6ea3" y="219.378257"/>
     <use style="stroke:#000000;" x="380.440646" xlink:href="#m7aec3e6ea3" y="232.56918"/>
     <use style="stroke:#000000;" x="449.615543" xlink:href="#m7aec3e6ea3" y="233.292553"/>
     <use style="stroke:#000000;" x="518.790441" xlink:href="#m7aec3e6ea3" y="248.175833"/>
     <use style="stroke:#000000;" x="587.965338" xlink:href="#m7aec3e6ea3" y="241.092972"/>
     <use style="stroke:#000000;" x="657.140236" xlink:href="#m7aec3e6ea3" y="251.656171"/>
     <use style="stroke:#000000;" x="726.315133" xlink:href="#m7aec3e6ea3" y="267.011993"/>
     <use style="stroke:#000000;" x="795.490031" xlink:href="#m7aec3e6ea3" y="242.692772"/>
     <use style="stroke:#000000;" x="864.664928" xlink:href="#m7aec3e6ea3" y="231.860959"/>
    </g>
   </g>
   <g id="line2d_20">
    <g clip-path="url(#pef6701e754)">
     <use style="stroke:#000000;" x="115.270205" xlink:href="#m7aec3e6ea3" y="232.08852"/>
     <use style="stroke:#000000;" x="184.445103" xlink:href="#m7aec3e6ea3" y="287.149865"/>
     <use style="stroke:#000000;" x="253.62" xlink:href="#m7aec3e6ea3" y="255.445809"/>
     <use style="stroke:#000000;" x="322.794898" xlink:href="#m7aec3e6ea3" y="237.785363"/>
     <use style="stroke:#000000;" x="391.969795" xlink:href="#m7aec3e6ea3" y="268.992035"/>
     <use style="stroke:#000000;" x="461.144693" xlink:href="#m7aec3e6ea3" y="258.441248"/>
     <use style="stroke:#000000;" x="530.31959" xlink:href="#m7aec3e6ea3" y="324.94875"/>
     <use style="stroke:#000000;" x="599.494488" xlink:href="#m7aec3e6ea3" y="288.187502"/>
     <use style="stroke:#000000;" x="668.669385" xlink:href="#m7aec3e6ea3" y="304.071559"/>
     <use style="stroke:#000000;" x="737.844283" xlink:href="#m7aec3e6ea3" y="406.392545"/>
     <use style="stroke:#000000;" x="807.01918" xlink:href="#m7aec3e6ea3" y="288.050601"/>
     <use style="stroke:#000000;" x="876.194078" xlink:href="#m7aec3e6ea3" y="279.271375"/>
    </g>
   </g>
   <g id="line2d_21">
    <g clip-path="url(#pef6701e754)">
     <use style="stroke:#000000;" x="115.270205" xlink:href="#m7aec3e6ea3" y="199.826436"/>
     <use style="stroke:#000000;" x="184.445103" xlink:href="#m7aec3e6ea3" y="212.156786"/>
     <use style="stroke:#000000;" x="253.62" xlink:href="#m7aec3e6ea3" y="221.392165"/>
     <use style="stroke:#000000;" x="322.794898" xlink:href="#m7aec3e6ea3" y="217.232687"/>
     <use style="stroke:#000000;" x="391.969795" xlink:href="#m7aec3e6ea3" y="229.576898"/>
     <use style="stroke:#000000;" x="461.144693" xlink:href="#m7aec3e6ea3" y="230.078096"/>
     <use style="stroke:#000000;" x="530.31959" xlink:href="#m7aec3e6ea3" y="245.001532"/>
     <use style="stroke:#000000;" x="599.494488" xlink:href="#m7aec3e6ea3" y="241.686878"/>
     <use style="stroke:#000000;" x="668.669385" xlink:href="#m7aec3e6ea3" y="245.769622"/>
     <use style="stroke:#000000;" x="737.844283" xlink:href="#m7aec3e6ea3" y="271.852261"/>
     <use style="stroke:#000000;" x="807.01918" xlink:href="#m7aec3e6ea3" y="243.033875"/>
     <use style="stroke:#000000;" x="876.194078" xlink:href="#m7aec3e6ea3" y="223.59334"/>
    </g>
   </g>
   <g id="line2d_22">
    <g clip-path="url(#pef6701e754)">
     <use style="stroke:#000000;" x="126.799355" xlink:href="#m7aec3e6ea3" y="196.240208"/>
     <use style="stroke:#000000;" x="195.974252" xlink:href="#m7aec3e6ea3" y="227.009972"/>
     <use style="stroke:#000000;" x="265.14915" xlink:href="#m7aec3e6ea3" y="201.050246"/>
     <use style="stroke:#000000;" x="334.324047" xlink:href="#m7aec3e6ea3" y="203.813263"/>
     <use style="stroke:#000000;" x="403.498945" xlink:href="#m7aec3e6ea3" y="228.856399"/>
     <use style="stroke:#000000;" x="472.673842" xlink:href="#m7aec3e6ea3" y="216.31841"/>
     <use style="stroke:#000000;" x="541.84874" xlink:href="#m7aec3e6ea3" y="240.266153"/>
     <use style="stroke:#000000;" x="611.023637" xlink:href="#m7aec3e6ea3" y="221.716773"/>
     <use style="stroke:#000000;" x="680.198535" xlink:href="#m7aec3e6ea3" y="263.729659"/>
     <use style="stroke:#000000;" x="749.373432" xlink:href="#m7aec3e6ea3" y="229.226144"/>
     <use style="stroke:#000000;" x="818.54833" xlink:href="#m7aec3e6ea3" y="259.047283"/>
     <use style="stroke:#000000;" x="887.723227" xlink:href="#m7aec3e6ea3" y="203.461378"/>
    </g>
   </g>
   <g id="line2d_23">
    <g clip-path="url(#pef6701e754)">
     <use style="stroke:#000000;" x="126.799355" xlink:href="#m7aec3e6ea3" y="163.015281"/>
     <use style="stroke:#000000;" x="195.974252" xlink:href="#m7aec3e6ea3" y="148.365755"/>
     <use style="stroke:#000000;" x="265.14915" xlink:href="#m7aec3e6ea3" y="164.018778"/>
     <use style="stroke:#000000;" x="334.324047" xlink:href="#m7aec3e6ea3" y="183.513617"/>
     <use style="stroke:#000000;" x="403.498945" xlink:href="#m7aec3e6ea3" y="191.376598"/>
     <use style="stroke:#000000;" x="472.673842" xlink:href="#m7aec3e6ea3" y="185.891862"/>
     <use style="stroke:#000000;" x="541.84874" xlink:href="#m7aec3e6ea3" y="152.268689"/>
     <use style="stroke:#000000;" x="611.023637" xlink:href="#m7aec3e6ea3" y="170.745094"/>
     <use style="stroke:#000000;" x="680.198535" xlink:href="#m7aec3e6ea3" y="207.400017"/>
     <use style="stroke:#000000;" x="749.373432" xlink:href="#m7aec3e6ea3" y="91.222329"/>
     <use style="stroke:#000000;" x="818.54833" xlink:href="#m7aec3e6ea3" y="216.127171"/>
     <use style="stroke:#000000;" x="887.723227" xlink:href="#m7aec3e6ea3" y="137.661658"/>
    </g>
   </g>
   <g id="line2d_24">
    <g clip-path="url(#pef6701e754)">
     <use style="stroke:#000000;" x="138.328505" xlink:href="#m7aec3e6ea3" y="202.106733"/>
     <use style="stroke:#000000;" x="207.503402" xlink:href="#m7aec3e6ea3" y="231.882251"/>
     <use style="stroke:#000000;" x="276.6783" xlink:href="#m7aec3e6ea3" y="204.512647"/>
     <use style="stroke:#000000;" x="345.853197" xlink:href="#m7aec3e6ea3" y="197.338207"/>
     <use style="stroke:#000000;" x="415.028094" xlink:href="#m7aec3e6ea3" y="204.282182"/>
     <use style="stroke:#000000;" x="484.202992" xlink:href="#m7aec3e6ea3" y="201.826902"/>
     <use style="stroke:#000000;" x="553.377889" xlink:href="#m7aec3e6ea3" y="227.310807"/>
     <use style="stroke:#000000;" x="622.552787" xlink:href="#m7aec3e6ea3" y="208.328406"/>
     <use style="stroke:#000000;" x="691.727684" xlink:href="#m7aec3e6ea3" y="221.352232"/>
     <use style="stroke:#000000;" x="760.902582" xlink:href="#m7aec3e6ea3" y="263.955436"/>
     <use style="stroke:#000000;" x="830.077479" xlink:href="#m7aec3e6ea3" y="206.474624"/>
     <use style="stroke:#000000;" x="899.252377" xlink:href="#m7aec3e6ea3" y="220.82588"/>
    </g>
   </g>
   <g id="line2d_25">
    <g clip-path="url(#pef6701e754)">
     <use style="stroke:#000000;" x="138.328505" xlink:href="#m7aec3e6ea3" y="166.560192"/>
     <use style="stroke:#000000;" x="207.503402" xlink:href="#m7aec3e6ea3" y="146.104466"/>
     <use style="stroke:#000000;" x="276.6783" xlink:href="#m7aec3e6ea3" y="174.979614"/>
     <use style="stroke:#000000;" x="345.853197" xlink:href="#m7aec3e6ea3" y="176.408042"/>
     <use style="stroke:#000000;" x="415.028094" xlink:href="#m7aec3e6ea3" y="168.854864"/>
     <use style="stroke:#000000;" x="484.202992" xlink:href="#m7aec3e6ea3" y="172.293014"/>
     <use style="stroke:#000000;" x="553.377889" xlink:href="#m7aec3e6ea3" y="144.881097"/>
     <use style="stroke:#000000;" x="622.552787" xlink:href="#m7aec3e6ea3" y="157.578407"/>
     <use style="stroke:#000000;" x="691.727684" xlink:href="#m7aec3e6ea3" y="160.189642"/>
     <use style="stroke:#000000;" x="760.902582" xlink:href="#m7aec3e6ea3" y="88.971771"/>
     <use style="stroke:#000000;" x="830.077479" xlink:href="#m7aec3e6ea3" y="161.045399"/>
     <use style="stroke:#000000;" x="899.252377" xlink:href="#m7aec3e6ea3" y="156.686059"/>
    </g>
   </g>
   <g id="line2d_26">
    <g clip-path="url(#pef6701e754)">
     <use style="stroke:#000000;" x="149.857654" xlink:href="#m7aec3e6ea3" y="214.133666"/>
     <use style="stroke:#000000;" x="219.032552" xlink:href="#m7aec3e6ea3" y="223.199698"/>
     <use style="stroke:#000000;" x="288.207449" xlink:href="#m7aec3e6ea3" y="193.424717"/>
     <use style="stroke:#000000;" x="357.382347" xlink:href="#m7aec3e6ea3" y="207.085841"/>
     <use style="stroke:#000000;" x="426.557244" xlink:href="#m7aec3e6ea3" y="213.819713"/>
     <use style="stroke:#000000;" x="495.732142" xlink:href="#m7aec3e6ea3" y="208.793159"/>
     <use style="stroke:#000000;" x="564.907039" xlink:href="#m7aec3e6ea3" y="220.65405"/>
     <use style="stroke:#000000;" x="634.081936" xlink:href="#m7aec3e6ea3" y="201.816432"/>
     <use style="stroke:#000000;" x="703.256834" xlink:href="#m7aec3e6ea3" y="241.880685"/>
     <use style="stroke:#000000;" x="772.431731" xlink:href="#m7aec3e6ea3" y="199.13895"/>
     <use style="stroke:#000000;" x="841.606629" xlink:href="#m7aec3e6ea3" y="233.340041"/>
     <use style="stroke:#000000;" x="910.781526" xlink:href="#m7aec3e6ea3" y="216.771946"/>
    </g>
   </g>
   <g id="line2d_27">
    <g clip-path="url(#pef6701e754)">
     <use style="stroke:#000000;" x="149.857654" xlink:href="#m7aec3e6ea3" y="182.77818"/>
     <use style="stroke:#000000;" x="219.032552" xlink:href="#m7aec3e6ea3" y="137.304866"/>
     <use style="stroke:#000000;" x="288.207449" xlink:href="#m7aec3e6ea3" y="163.224497"/>
     <use style="stroke:#000000;" x="357.382347" xlink:href="#m7aec3e6ea3" y="187.431434"/>
     <use style="stroke:#000000;" x="426.557244" xlink:href="#m7aec3e6ea3" y="181.202"/>
     <use style="stroke:#000000;" x="495.732142" xlink:href="#m7aec3e6ea3" y="178.793937"/>
     <use style="stroke:#000000;" x="564.907039" xlink:href="#m7aec3e6ea3" y="131.294397"/>
     <use style="stroke:#000000;" x="634.081936" xlink:href="#m7aec3e6ea3" y="154.444652"/>
     <use style="stroke:#000000;" x="703.256834" xlink:href="#m7aec3e6ea3" y="186.042625"/>
     <use style="stroke:#000000;" x="772.431731" xlink:href="#m7aec3e6ea3" y="44.403455"/>
     <use style="stroke:#000000;" x="841.606629" xlink:href="#m7aec3e6ea3" y="190.704968"/>
     <use style="stroke:#000000;" x="910.781526" xlink:href="#m7aec3e6ea3" y="157.000567"/>
    </g>
   </g>
   <g id="patch_63">
    <path d="M 57.048 424.492 
L 57.048 26.304 
" style="fill:none;stroke:#000000;stroke-linecap:square;stroke-linejoin:miter;"/>
   </g>
   <g id="patch_64">
    <path d="M 957.474582 424.492 
L 957.474582 26.304 
" style="fill:none;stroke:#000000;stroke-linecap:square;stroke-linejoin:miter;"/>
   </g>
   <g id="patch_65">
    <path d="M 57.048 424.492 
L 957.474582 424.492 
" style="fill:none;stroke:#000000;stroke-linecap:square;stroke-linejoin:miter;"/>
   </g>
   <g id="patch_66">
    <path d="M 57.048 26.304 
L 957.474582 26.304 
" style="fill:none;stroke:#000000;stroke-linecap:square;stroke-linejoin:miter;"/>
   </g>
   <g id="text_19">
    <!-- $h_g^2$ -->
    <g transform="translate(501.549291 20.304)scale(0.096 -0.096)">
     <use transform="translate(0 0.765625)" xlink:href="#DejaVuSans-Oblique-104"/>
     <use transform="translate(70.826615 39.046875)scale(0.7)" xlink:href="#DejaVuSans-50"/>
     <use transform="translate(63.378906 -26.578125)scale(0.7)" xlink:href="#DejaVuSans-Oblique-103"/>
    </g>
   </g>
   <g id="legend_1">
    <g id="patch_67">
     <path d="M 974.398848 200.907875 
L 991.998848 200.907875 
L 991.998848 194.747875 
L 974.398848 194.747875 
z
" style="fill:#f28e2b;"/>
    </g>
    <g id="text_20">
     <!-- $r^2 (\alpha=1, \theta=0)$ -->
     <defs>
      <path d="M 44.578125 46.390625 
Q 43.21875 47.125 41.453125 47.515625 
Q 39.703125 47.90625 37.703125 47.90625 
Q 30.515625 47.90625 25.140625 42.453125 
Q 19.78125 37.015625 18.015625 27.875 
L 12.5 0 
L 3.515625 0 
L 14.203125 54.6875 
L 23.1875 54.6875 
L 21.484375 46.1875 
Q 25.046875 50.921875 30 53.453125 
Q 34.96875 56 40.578125 56 
Q 42.046875 56 43.453125 55.828125 
Q 44.875 55.671875 46.296875 55.28125 
z
" id="DejaVuSans-Oblique-114"/>
      <path d="M 40.921875 25.4375 
L 40.96875 36.71875 
Q 41.015625 48.25 32.328125 48.296875 
Q 25.828125 48.34375 21.78125 42.921875 
Q 16.703125 36.234375 14.984375 27.296875 
Q 12.890625 16.546875 15.53125 11.421875 
Q 18.265625 6.203125 24.171875 6.203125 
Q 30.71875 6.203125 36.234375 16.609375 
z
M 33.84375 55.90625 
Q 49.078125 56.15625 48.875 40.375 
Q 48.875 40.375 56.5 54.6875 
L 64.5 54.6875 
L 48.734375 25.046875 
L 48.578125 14.359375 
Q 48.578125 11.96875 49.90625 9.96875 
Q 51.421875 7.625 52.984375 7.625 
L 57.328125 7.625 
L 55.859375 0 
L 50.4375 0 
Q 45.84375 0 42.53125 4.109375 
Q 40.96875 6.15625 40.921875 10.453125 
Q 37.75 5.21875 32.28125 0.78125 
Q 29.6875 -1.265625 22.703125 -1.21875 
Q 11.28125 -1.125 7.125 6.203125 
Q 2.875 13.8125 5.515625 27.296875 
Q 8.34375 41.796875 15.765625 48.390625 
Q 24.125 55.765625 33.84375 55.90625 
z
" id="DejaVuSans-Oblique-945"/>
      <path d="M 10.59375 45.40625 
L 73.1875 45.40625 
L 73.1875 37.203125 
L 10.59375 37.203125 
z
M 10.59375 25.484375 
L 73.1875 25.484375 
L 73.1875 17.1875 
L 10.59375 17.1875 
z
" id="DejaVuSans-61"/>
      <path d="M 12.40625 8.296875 
L 28.515625 8.296875 
L 28.515625 63.921875 
L 10.984375 60.40625 
L 10.984375 69.390625 
L 28.421875 72.90625 
L 38.28125 72.90625 
L 38.28125 8.296875 
L 54.390625 8.296875 
L 54.390625 0 
L 12.40625 0 
z
" id="DejaVuSans-49"/>
      <path d="M 11.71875 12.40625 
L 22.015625 12.40625 
L 22.015625 4 
L 14.015625 -11.625 
L 7.71875 -11.625 
L 11.71875 4 
z
" id="DejaVuSans-44"/>
      <path d="M 45.515625 34.671875 
L 14.453125 34.671875 
Q 12.359375 20.0625 14.5 13.875 
Q 17.1875 6.25 24.46875 6.25 
Q 31.78125 6.25 37.359375 13.921875 
Q 42.234375 20.65625 45.515625 34.671875 
z
M 47.015625 42.96875 
Q 48.34375 56.84375 46.625 61.71875 
Q 43.953125 69.4375 36.765625 69.4375 
Q 29.296875 69.4375 23.828125 61.8125 
Q 19.53125 55.671875 16.15625 42.96875 
z
M 38.1875 76.765625 
Q 49.90625 76.765625 54.59375 66.40625 
Q 59.28125 56.109375 55.71875 37.84375 
Q 52.203125 19.625 43.453125 9.28125 
Q 34.765625 -1.125 23.046875 -1.125 
Q 11.28125 -1.125 6.640625 9.28125 
Q 2 19.625 5.515625 37.84375 
Q 9.078125 56.109375 17.71875 66.40625 
Q 26.421875 76.765625 38.1875 76.765625 
z
" id="DejaVuSans-Oblique-952"/>
     </defs>
     <g transform="translate(999.038848 200.907875)scale(0.088 -0.088)">
      <use transform="translate(0 0.765625)" xlink:href="#DejaVuSans-Oblique-114"/>
      <use transform="translate(45.763177 39.046875)scale(0.7)" xlink:href="#DejaVuSans-50"/>
      <use transform="translate(93.033685 0.765625)" xlink:href="#DejaVuSans-40"/>
      <use transform="translate(132.047357 0.765625)" xlink:href="#DejaVuSans-Oblique-945"/>
      <use transform="translate(217.447747 0.765625)" xlink:href="#DejaVuSans-61"/>
      <use transform="translate(320.719232 0.765625)" xlink:href="#DejaVuSans-49"/>
      <use transform="translate(384.342279 0.765625)" xlink:href="#DejaVuSans-44"/>
      <use transform="translate(435.61181 0.765625)" xlink:href="#DejaVuSans-Oblique-952"/>
      <use transform="translate(516.275872 0.765625)" xlink:href="#DejaVuSans-61"/>
      <use transform="translate(619.547357 0.765625)" xlink:href="#DejaVuSans-48"/>
      <use transform="translate(683.170404 0.765625)" xlink:href="#DejaVuSans-41"/>
     </g>
    </g>
    <g id="patch_68">
     <path d="M 974.398848 214.547875 
L 991.998848 214.547875 
L 991.998848 208.387875 
L 974.398848 208.387875 
z
" style="fill:#76b7b2;"/>
    </g>
    <g id="text_21">
     <!-- $D^2 (\alpha=1, \theta=0)$ -->
     <defs>
      <path d="M 16.890625 72.90625 
L 38.09375 72.90625 
Q 54.984375 72.90625 63.59375 65.75 
Q 72.21875 58.59375 72.21875 44.484375 
Q 72.21875 35.15625 68.9375 26.53125 
Q 65.671875 17.921875 59.90625 12.015625 
Q 54.109375 5.953125 45.171875 2.96875 
Q 36.234375 0 24.03125 0 
L 2.6875 0 
z
M 25.203125 64.796875 
L 14.203125 8.109375 
L 27.09375 8.109375 
Q 43.65625 8.109375 52.734375 17.625 
Q 61.8125 27.15625 61.8125 44.484375 
Q 61.8125 54.984375 55.953125 59.890625 
Q 50.09375 64.796875 37.59375 64.796875 
z
" id="DejaVuSans-Oblique-68"/>
     </defs>
     <g transform="translate(999.038848 214.547875)scale(0.088 -0.088)">
      <use transform="translate(0 0.765625)" xlink:href="#DejaVuSans-Oblique-68"/>
      <use transform="translate(84.018724 39.046875)scale(0.7)" xlink:href="#DejaVuSans-50"/>
      <use transform="translate(131.289232 0.765625)" xlink:href="#DejaVuSans-40"/>
      <use transform="translate(170.302904 0.765625)" xlink:href="#DejaVuSans-Oblique-945"/>
      <use transform="translate(255.703294 0.765625)" xlink:href="#DejaVuSans-61"/>
      <use transform="translate(358.974779 0.765625)" xlink:href="#DejaVuSans-49"/>
      <use transform="translate(422.597826 0.765625)" xlink:href="#DejaVuSans-44"/>
      <use transform="translate(473.867357 0.765625)" xlink:href="#DejaVuSans-Oblique-952"/>
      <use transform="translate(554.531419 0.765625)" xlink:href="#DejaVuSans-61"/>
      <use transform="translate(657.802904 0.765625)" xlink:href="#DejaVuSans-48"/>
      <use transform="translate(721.425951 0.765625)" xlink:href="#DejaVuSans-41"/>
     </g>
    </g>
    <g id="patch_69">
     <path d="M 974.398848 228.187875 
L 991.998848 228.187875 
L 991.998848 222.027875 
L 974.398848 222.027875 
z
" style="fill:#e15759;"/>
    </g>
    <g id="text_22">
     <!-- $D^2 (\alpha=0, \theta=0)$ -->
     <g transform="translate(999.038848 228.187875)scale(0.088 -0.088)">
      <use transform="translate(0 0.765625)" xlink:href="#DejaVuSans-Oblique-68"/>
      <use transform="translate(84.018724 39.046875)scale(0.7)" xlink:href="#DejaVuSans-50"/>
      <use transform="translate(131.289232 0.765625)" xlink:href="#DejaVuSans-40"/>
      <use transform="translate(170.302904 0.765625)" xlink:href="#DejaVuSans-Oblique-945"/>
      <use transform="translate(255.703294 0.765625)" xlink:href="#DejaVuSans-61"/>
      <use transform="translate(358.974779 0.765625)" xlink:href="#DejaVuSans-48"/>
      <use transform="translate(422.597826 0.765625)" xlink:href="#DejaVuSans-44"/>
      <use transform="translate(473.867357 0.765625)" xlink:href="#DejaVuSans-Oblique-952"/>
      <use transform="translate(554.531419 0.765625)" xlink:href="#DejaVuSans-61"/>
      <use transform="translate(657.802904 0.765625)" xlink:href="#DejaVuSans-48"/>
      <use transform="translate(721.425951 0.765625)" xlink:href="#DejaVuSans-41"/>
     </g>
    </g>
    <g id="patch_70">
     <path d="M 974.398848 241.827875 
L 991.998848 241.827875 
L 991.998848 235.667875 
L 974.398848 235.667875 
z
" style="fill:url(#h1a03c9b323);stroke:#ffffff;stroke-linejoin:miter;stroke-width:0.8;"/>
    </g>
    <g id="text_23">
     <!-- $r^2 (\alpha=1, \theta=1)$ -->
     <g transform="translate(999.038848 241.827875)scale(0.088 -0.088)">
      <use transform="translate(0 0.765625)" xlink:href="#DejaVuSans-Oblique-114"/>
      <use transform="translate(45.763177 39.046875)scale(0.7)" xlink:href="#DejaVuSans-50"/>
      <use transform="translate(93.033685 0.765625)" xlink:href="#DejaVuSans-40"/>
      <use transform="translate(132.047357 0.765625)" xlink:href="#DejaVuSans-Oblique-945"/>
      <use transform="translate(217.447747 0.765625)" xlink:href="#DejaVuSans-61"/>
      <use transform="translate(320.719232 0.765625)" xlink:href="#DejaVuSans-49"/>
      <use transform="translate(384.342279 0.765625)" xlink:href="#DejaVuSans-44"/>
      <use transform="translate(435.61181 0.765625)" xlink:href="#DejaVuSans-Oblique-952"/>
      <use transform="translate(516.275872 0.765625)" xlink:href="#DejaVuSans-61"/>
      <use transform="translate(619.547357 0.765625)" xlink:href="#DejaVuSans-49"/>
      <use transform="translate(683.170404 0.765625)" xlink:href="#DejaVuSans-41"/>
     </g>
    </g>
    <g id="patch_71">
     <path d="M 974.398848 255.467875 
L 991.998848 255.467875 
L 991.998848 249.307875 
L 974.398848 249.307875 
z
" style="fill:url(#hb3918a773a);stroke:#ffffff;stroke-linejoin:miter;stroke-width:0.8;"/>
    </g>
    <g id="text_24">
     <!-- $D^2 (\alpha=0, \theta=1)$ -->
     <g transform="translate(999.038848 255.467875)scale(0.088 -0.088)">
      <use transform="translate(0 0.765625)" xlink:href="#DejaVuSans-Oblique-68"/>
      <use transform="translate(84.018724 39.046875)scale(0.7)" xlink:href="#DejaVuSans-50"/>
      <use transform="translate(131.289232 0.765625)" xlink:href="#DejaVuSans-40"/>
      <use transform="translate(170.302904 0.765625)" xlink:href="#DejaVuSans-Oblique-945"/>
      <use transform="translate(255.703294 0.765625)" xlink:href="#DejaVuSans-61"/>
      <use transform="translate(358.974779 0.765625)" xlink:href="#DejaVuSans-48"/>
      <use transform="translate(422.597826 0.765625)" xlink:href="#DejaVuSans-44"/>
      <use transform="translate(473.867357 0.765625)" xlink:href="#DejaVuSans-Oblique-952"/>
      <use transform="translate(554.531419 0.765625)" xlink:href="#DejaVuSans-61"/>
      <use transform="translate(657.802904 0.765625)" xlink:href="#DejaVuSans-49"/>
      <use transform="translate(721.425951 0.765625)" xlink:href="#DejaVuSans-41"/>
     </g>
    </g>
   </g>
  </g>
 </g>
 <defs>
  <clipPath id="pef6701e754">
   <rect height="398.188" width="900.426582" x="57.048" y="26.304"/>
  </clipPath>
 </defs>
 <defs>
  <pattern height="72" id="h1a03c9b323" patternUnits="userSpaceOnUse" width="72" x="0" y="0">
   <rect fill="#f28e2b" height="73" width="73" x="0" y="0"/>
   <path d="M -36 36 
L 36 -36 
M -33 39 
L 39 -33 
M -30 42 
L 42 -30 
M -27 45 
L 45 -27 
M -24 48 
L 48 -24 
M -21 51 
L 51 -21 
M -18 54 
L 54 -18 
M -15 57 
L 57 -15 
M -12 60 
L 60 -12 
M -9 63 
L 63 -9 
M -6 66 
L 66 -6 
M -3 69 
L 69 -3 
M 0 72 
L 72 0 
M 3 75 
L 75 3 
M 6 78 
L 78 6 
M 9 81 
L 81 9 
M 12 84 
L 84 12 
M 15 87 
L 87 15 
M 18 90 
L 90 18 
M 21 93 
L 93 21 
M 24 96 
L 96 24 
M 27 99 
L 99 27 
M 30 102 
L 102 30 
M 33 105 
L 105 33 
M 36 108 
L 108 36 
" style="fill:#ffffff;stroke:#ffffff;stroke-linecap:butt;stroke-linejoin:miter;stroke-width:2.0;"/>
  </pattern>
  <pattern height="72" id="hb3918a773a" patternUnits="userSpaceOnUse" width="72" x="0" y="0">
   <rect fill="#e15759" height="73" width="73" x="0" y="0"/>
   <path d="M -36 36 
L 36 -36 
M -33 39 
L 39 -33 
M -30 42 
L 42 -30 
M -27 45 
L 45 -27 
M -24 48 
L 48 -24 
M -21 51 
L 51 -21 
M -18 54 
L 54 -18 
M -15 57 
L 57 -15 
M -12 60 
L 60 -12 
M -9 63 
L 63 -9 
M -6 66 
L 66 -6 
M -3 69 
L 69 -3 
M 0 72 
L 72 0 
M 3 75 
L 75 3 
M 6 78 
L 78 6 
M 9 81 
L 81 9 
M 12 84 
L 84 12 
M 15 87 
L 87 15 
M 18 90 
L 90 18 
M 21 93 
L 93 21 
M 24 96 
L 96 24 
M 27 99 
L 99 27 
M 30 102 
L 102 30 
M 33 105 
L 105 33 
M 36 108 
L 108 36 
" style="fill:#ffffff;stroke:#ffffff;stroke-linecap:butt;stroke-linejoin:miter;stroke-width:2.0;"/>
  </pattern>
 </defs>
</svg>
