<?xml version="1.0" encoding="utf-8" standalone="no"?>
<!DOCTYPE svg PUBLIC "-//W3C//DTD SVG 1.1//EN"
  "http://www.w3.org/Graphics/SVG/1.1/DTD/svg11.dtd">
<!-- Created with matplotlib (https://matplotlib.org/) -->
<svg height="576pt" version="1.1" viewBox="0 0 1080 576" width="1080pt" xmlns="http://www.w3.org/2000/svg" xmlns:xlink="http://www.w3.org/1999/xlink">
 <defs>
  <style type="text/css">
*{stroke-linecap:butt;stroke-linejoin:round;}
  </style>
 </defs>
 <g id="figure_1">
  <g id="patch_1">
   <path d="M 0 576 
L 1080 576 
L 1080 0 
L 0 0 
z
" style="fill:#ffffff;"/>
  </g>
  <g id="axes_1">
   <g id="patch_2">
    <path d="M 51.648 424.492 
L 957.474582 424.492 
L 957.474582 23.568 
L 51.648 23.568 
z
" style="fill:#ffffff;"/>
   </g>
   <g id="patch_3">
    <path clip-path="url(#pe3ea25c4a3)" d="M 92.821936 424.492 
L 101.582347 424.492 
L 101.582347 194.629131 
L 92.821936 194.629131 
z
" style="fill:#f28e2b;"/>
   </g>
   <g id="patch_4">
    <path clip-path="url(#pe3ea25c4a3)" d="M 162.90523 424.492 
L 171.665642 424.492 
L 171.665642 192.642818 
L 162.90523 192.642818 
z
" style="fill:#f28e2b;"/>
   </g>
   <g id="patch_5">
    <path clip-path="url(#pe3ea25c4a3)" d="M 232.988525 424.492 
L 241.748937 424.492 
L 241.748937 64.100465 
L 232.988525 64.100465 
z
" style="fill:#f28e2b;"/>
   </g>
   <g id="patch_6">
    <path clip-path="url(#pe3ea25c4a3)" d="M 303.071819 424.492 
L 311.832231 424.492 
L 311.832231 164.237179 
L 303.071819 164.237179 
z
" style="fill:#f28e2b;"/>
   </g>
   <g id="patch_7">
    <path clip-path="url(#pe3ea25c4a3)" d="M 373.155114 424.492 
L 381.915526 424.492 
L 381.915526 164.298644 
L 373.155114 164.298644 
z
" style="fill:#f28e2b;"/>
   </g>
   <g id="patch_8">
    <path clip-path="url(#pe3ea25c4a3)" d="M 443.238408 424.492 
L 451.99882 424.492 
L 451.99882 159.03382 
L 443.238408 159.03382 
z
" style="fill:#f28e2b;"/>
   </g>
   <g id="patch_9">
    <path clip-path="url(#pe3ea25c4a3)" d="M 513.321703 424.492 
L 522.082115 424.492 
L 522.082115 181.512292 
L 513.321703 181.512292 
z
" style="fill:#f28e2b;"/>
   </g>
   <g id="patch_10">
    <path clip-path="url(#pe3ea25c4a3)" d="M 583.404997 424.492 
L 592.165409 424.492 
L 592.165409 188.370184 
L 583.404997 188.370184 
z
" style="fill:#f28e2b;"/>
   </g>
   <g id="patch_11">
    <path clip-path="url(#pe3ea25c4a3)" d="M 653.488292 424.492 
L 662.248704 424.492 
L 662.248704 187.036032 
L 653.488292 187.036032 
z
" style="fill:#f28e2b;"/>
   </g>
   <g id="patch_12">
    <path clip-path="url(#pe3ea25c4a3)" d="M 723.571587 424.492 
L 732.331998 424.492 
L 732.331998 200.33763 
L 723.571587 200.33763 
z
" style="fill:#f28e2b;"/>
   </g>
   <g id="patch_13">
    <path clip-path="url(#pe3ea25c4a3)" d="M 793.654881 424.492 
L 802.415293 424.492 
L 802.415293 181.96034 
L 793.654881 181.96034 
z
" style="fill:#f28e2b;"/>
   </g>
   <g id="patch_14">
    <path clip-path="url(#pe3ea25c4a3)" d="M 863.738176 424.492 
L 872.498588 424.492 
L 872.498588 187.922434 
L 863.738176 187.922434 
z
" style="fill:#f28e2b;"/>
   </g>
   <g id="patch_15">
    <path clip-path="url(#pe3ea25c4a3)" d="M 101.582347 424.492 
L 110.342759 424.492 
L 110.342759 193.987328 
L 101.582347 193.987328 
z
" style="fill:#76b7b2;"/>
   </g>
   <g id="patch_16">
    <path clip-path="url(#pe3ea25c4a3)" d="M 171.665642 424.492 
L 180.426054 424.492 
L 180.426054 192.910518 
L 171.665642 192.910518 
z
" style="fill:#76b7b2;"/>
   </g>
   <g id="patch_17">
    <path clip-path="url(#pe3ea25c4a3)" d="M 241.748937 424.492 
L 250.509348 424.492 
L 250.509348 70.989555 
L 241.748937 70.989555 
z
" style="fill:#76b7b2;"/>
   </g>
   <g id="patch_18">
    <path clip-path="url(#pe3ea25c4a3)" d="M 311.832231 424.492 
L 320.592643 424.492 
L 320.592643 165.33527 
L 311.832231 165.33527 
z
" style="fill:#76b7b2;"/>
   </g>
   <g id="patch_19">
    <path clip-path="url(#pe3ea25c4a3)" d="M 381.915526 424.492 
L 390.675937 424.492 
L 390.675937 165.823443 
L 381.915526 165.823443 
z
" style="fill:#76b7b2;"/>
   </g>
   <g id="patch_20">
    <path clip-path="url(#pe3ea25c4a3)" d="M 451.99882 424.492 
L 460.759232 424.492 
L 460.759232 161.177515 
L 451.99882 161.177515 
z
" style="fill:#76b7b2;"/>
   </g>
   <g id="patch_21">
    <path clip-path="url(#pe3ea25c4a3)" d="M 522.082115 424.492 
L 530.842527 424.492 
L 530.842527 181.914552 
L 522.082115 181.914552 
z
" style="fill:#76b7b2;"/>
   </g>
   <g id="patch_22">
    <path clip-path="url(#pe3ea25c4a3)" d="M 592.165409 424.492 
L 600.925821 424.492 
L 600.925821 188.587374 
L 592.165409 188.587374 
z
" style="fill:#76b7b2;"/>
   </g>
   <g id="patch_23">
    <path clip-path="url(#pe3ea25c4a3)" d="M 662.248704 424.492 
L 671.009116 424.492 
L 671.009116 188.041447 
L 662.248704 188.041447 
z
" style="fill:#76b7b2;"/>
   </g>
   <g id="patch_24">
    <path clip-path="url(#pe3ea25c4a3)" d="M 732.331998 424.492 
L 741.09241 424.492 
L 741.09241 200.207477 
L 732.331998 200.207477 
z
" style="fill:#76b7b2;"/>
   </g>
   <g id="patch_25">
    <path clip-path="url(#pe3ea25c4a3)" d="M 802.415293 424.492 
L 811.175705 424.492 
L 811.175705 182.402342 
L 802.415293 182.402342 
z
" style="fill:#76b7b2;"/>
   </g>
   <g id="patch_26">
    <path clip-path="url(#pe3ea25c4a3)" d="M 872.498588 424.492 
L 881.258999 424.492 
L 881.258999 189.369121 
L 872.498588 189.369121 
z
" style="fill:#76b7b2;"/>
   </g>
   <g id="patch_27">
    <path clip-path="url(#pe3ea25c4a3)" d="M 110.342759 424.492 
L 119.103171 424.492 
L 119.103171 185.038399 
L 110.342759 185.038399 
z
" style="fill:#e15759;"/>
   </g>
   <g id="patch_28">
    <path clip-path="url(#pe3ea25c4a3)" d="M 180.426054 424.492 
L 189.186466 424.492 
L 189.186466 193.36238 
L 180.426054 193.36238 
z
" style="fill:#e15759;"/>
   </g>
   <g id="patch_29">
    <path clip-path="url(#pe3ea25c4a3)" d="M 250.509348 424.492 
L 259.26976 424.492 
L 259.26976 55.551625 
L 250.509348 55.551625 
z
" style="fill:#e15759;"/>
   </g>
   <g id="patch_30">
    <path clip-path="url(#pe3ea25c4a3)" d="M 320.592643 424.492 
L 329.353055 424.492 
L 329.353055 151.924959 
L 320.592643 151.924959 
z
" style="fill:#e15759;"/>
   </g>
   <g id="patch_31">
    <path clip-path="url(#pe3ea25c4a3)" d="M 390.675937 424.492 
L 399.436349 424.492 
L 399.436349 162.44263 
L 390.675937 162.44263 
z
" style="fill:#e15759;"/>
   </g>
   <g id="patch_32">
    <path clip-path="url(#pe3ea25c4a3)" d="M 460.759232 424.492 
L 469.519644 424.492 
L 469.519644 157.616827 
L 460.759232 157.616827 
z
" style="fill:#e15759;"/>
   </g>
   <g id="patch_33">
    <path clip-path="url(#pe3ea25c4a3)" d="M 530.842527 424.492 
L 539.602938 424.492 
L 539.602938 184.901078 
L 530.842527 184.901078 
z
" style="fill:#e15759;"/>
   </g>
   <g id="patch_34">
    <path clip-path="url(#pe3ea25c4a3)" d="M 600.925821 424.492 
L 609.686233 424.492 
L 609.686233 190.789946 
L 600.925821 190.789946 
z
" style="fill:#e15759;"/>
   </g>
   <g id="patch_35">
    <path clip-path="url(#pe3ea25c4a3)" d="M 671.009116 424.492 
L 679.769528 424.492 
L 679.769528 188.989685 
L 671.009116 188.989685 
z
" style="fill:#e15759;"/>
   </g>
   <g id="patch_36">
    <path clip-path="url(#pe3ea25c4a3)" d="M 741.09241 424.492 
L 749.852822 424.492 
L 749.852822 203.161568 
L 741.09241 203.161568 
z
" style="fill:#e15759;"/>
   </g>
   <g id="patch_37">
    <path clip-path="url(#pe3ea25c4a3)" d="M 811.175705 424.492 
L 819.936117 424.492 
L 819.936117 180.579483 
L 811.175705 180.579483 
z
" style="fill:#e15759;"/>
   </g>
   <g id="patch_38">
    <path clip-path="url(#pe3ea25c4a3)" d="M 881.258999 424.492 
L 890.019411 424.492 
L 890.019411 191.457368 
L 881.258999 191.457368 
z
" style="fill:#e15759;"/>
   </g>
   <g id="patch_39">
    <path clip-path="url(#pe3ea25c4a3)" d="M 119.103171 424.492 
L 127.863583 424.492 
L 127.863583 193.170149 
L 119.103171 193.170149 
z
" style="fill:url(#h99d16c39f5);stroke:#ffffff;stroke-linejoin:miter;stroke-width:0.8;"/>
   </g>
   <g id="patch_40">
    <path clip-path="url(#pe3ea25c4a3)" d="M 189.186466 424.492 
L 197.946877 424.492 
L 197.946877 192.886672 
L 189.186466 192.886672 
z
" style="fill:url(#h99d16c39f5);stroke:#ffffff;stroke-linejoin:miter;stroke-width:0.8;"/>
   </g>
   <g id="patch_41">
    <path clip-path="url(#pe3ea25c4a3)" d="M 259.26976 424.492 
L 268.030172 424.492 
L 268.030172 101.227567 
L 259.26976 101.227567 
z
" style="fill:url(#h99d16c39f5);stroke:#ffffff;stroke-linejoin:miter;stroke-width:0.8;"/>
   </g>
   <g id="patch_42">
    <path clip-path="url(#pe3ea25c4a3)" d="M 329.353055 424.492 
L 338.113467 424.492 
L 338.113467 173.313912 
L 329.353055 173.313912 
z
" style="fill:url(#h99d16c39f5);stroke:#ffffff;stroke-linejoin:miter;stroke-width:0.8;"/>
   </g>
   <g id="patch_43">
    <path clip-path="url(#pe3ea25c4a3)" d="M 399.436349 424.492 
L 408.196761 424.492 
L 408.196761 184.048743 
L 399.436349 184.048743 
z
" style="fill:url(#h99d16c39f5);stroke:#ffffff;stroke-linejoin:miter;stroke-width:0.8;"/>
   </g>
   <g id="patch_44">
    <path clip-path="url(#pe3ea25c4a3)" d="M 469.519644 424.492 
L 478.280056 424.492 
L 478.280056 177.749492 
L 469.519644 177.749492 
z
" style="fill:url(#h99d16c39f5);stroke:#ffffff;stroke-linejoin:miter;stroke-width:0.8;"/>
   </g>
   <g id="patch_45">
    <path clip-path="url(#pe3ea25c4a3)" d="M 539.602938 424.492 
L 548.36335 424.492 
L 548.36335 189.331278 
L 539.602938 189.331278 
z
" style="fill:url(#h99d16c39f5);stroke:#ffffff;stroke-linejoin:miter;stroke-width:0.8;"/>
   </g>
   <g id="patch_46">
    <path clip-path="url(#pe3ea25c4a3)" d="M 609.686233 424.492 
L 618.446645 424.492 
L 618.446645 194.585126 
L 609.686233 194.585126 
z
" style="fill:url(#h99d16c39f5);stroke:#ffffff;stroke-linejoin:miter;stroke-width:0.8;"/>
   </g>
   <g id="patch_47">
    <path clip-path="url(#pe3ea25c4a3)" d="M 679.769528 424.492 
L 688.529939 424.492 
L 688.529939 194.73356 
L 679.769528 194.73356 
z
" style="fill:url(#h99d16c39f5);stroke:#ffffff;stroke-linejoin:miter;stroke-width:0.8;"/>
   </g>
   <g id="patch_48">
    <path clip-path="url(#pe3ea25c4a3)" d="M 749.852822 424.492 
L 758.613234 424.492 
L 758.613234 202.161064 
L 749.852822 202.161064 
z
" style="fill:url(#h99d16c39f5);stroke:#ffffff;stroke-linejoin:miter;stroke-width:0.8;"/>
   </g>
   <g id="patch_49">
    <path clip-path="url(#pe3ea25c4a3)" d="M 819.936117 424.492 
L 828.696528 424.492 
L 828.696528 192.488986 
L 819.936117 192.488986 
z
" style="fill:url(#h99d16c39f5);stroke:#ffffff;stroke-linejoin:miter;stroke-width:0.8;"/>
   </g>
   <g id="patch_50">
    <path clip-path="url(#pe3ea25c4a3)" d="M 890.019411 424.492 
L 898.779823 424.492 
L 898.779823 195.02867 
L 890.019411 195.02867 
z
" style="fill:url(#h99d16c39f5);stroke:#ffffff;stroke-linejoin:miter;stroke-width:0.8;"/>
   </g>
   <g id="patch_51">
    <path clip-path="url(#pe3ea25c4a3)" d="M 127.863583 424.492 
L 136.623995 424.492 
L 136.623995 191.131786 
L 127.863583 191.131786 
z
" style="fill:url(#hd165a91963);stroke:#ffffff;stroke-linejoin:miter;stroke-width:0.8;"/>
   </g>
   <g id="patch_52">
    <path clip-path="url(#pe3ea25c4a3)" d="M 197.946877 424.492 
L 206.707289 424.492 
L 206.707289 192.417004 
L 197.946877 192.417004 
z
" style="fill:url(#hd165a91963);stroke:#ffffff;stroke-linejoin:miter;stroke-width:0.8;"/>
   </g>
   <g id="patch_53">
    <path clip-path="url(#pe3ea25c4a3)" d="M 268.030172 424.492 
L 276.790584 424.492 
L 276.790584 101.053569 
L 268.030172 101.053569 
z
" style="fill:url(#hd165a91963);stroke:#ffffff;stroke-linejoin:miter;stroke-width:0.8;"/>
   </g>
   <g id="patch_54">
    <path clip-path="url(#pe3ea25c4a3)" d="M 338.113467 424.492 
L 346.873878 424.492 
L 346.873878 169.568405 
L 338.113467 169.568405 
z
" style="fill:url(#hd165a91963);stroke:#ffffff;stroke-linejoin:miter;stroke-width:0.8;"/>
   </g>
   <g id="patch_55">
    <path clip-path="url(#pe3ea25c4a3)" d="M 408.196761 424.492 
L 416.957173 424.492 
L 416.957173 182.220348 
L 408.196761 182.220348 
z
" style="fill:url(#hd165a91963);stroke:#ffffff;stroke-linejoin:miter;stroke-width:0.8;"/>
   </g>
   <g id="patch_56">
    <path clip-path="url(#pe3ea25c4a3)" d="M 478.280056 424.492 
L 487.040467 424.492 
L 487.040467 176.061602 
L 478.280056 176.061602 
z
" style="fill:url(#hd165a91963);stroke:#ffffff;stroke-linejoin:miter;stroke-width:0.8;"/>
   </g>
   <g id="patch_57">
    <path clip-path="url(#pe3ea25c4a3)" d="M 548.36335 424.492 
L 557.123762 424.492 
L 557.123762 188.34019 
L 548.36335 188.34019 
z
" style="fill:url(#hd165a91963);stroke:#ffffff;stroke-linejoin:miter;stroke-width:0.8;"/>
   </g>
   <g id="patch_58">
    <path clip-path="url(#pe3ea25c4a3)" d="M 618.446645 424.492 
L 627.207057 424.492 
L 627.207057 193.392002 
L 618.446645 193.392002 
z
" style="fill:url(#hd165a91963);stroke:#ffffff;stroke-linejoin:miter;stroke-width:0.8;"/>
   </g>
   <g id="patch_59">
    <path clip-path="url(#pe3ea25c4a3)" d="M 688.529939 424.492 
L 697.290351 424.492 
L 697.290351 194.253575 
L 688.529939 194.253575 
z
" style="fill:url(#hd165a91963);stroke:#ffffff;stroke-linejoin:miter;stroke-width:0.8;"/>
   </g>
   <g id="patch_60">
    <path clip-path="url(#pe3ea25c4a3)" d="M 758.613234 424.492 
L 767.373646 424.492 
L 767.373646 201.771416 
L 758.613234 201.771416 
z
" style="fill:url(#hd165a91963);stroke:#ffffff;stroke-linejoin:miter;stroke-width:0.8;"/>
   </g>
   <g id="patch_61">
    <path clip-path="url(#pe3ea25c4a3)" d="M 828.696528 424.492 
L 837.45694 424.492 
L 837.45694 191.212253 
L 828.696528 191.212253 
z
" style="fill:url(#hd165a91963);stroke:#ffffff;stroke-linejoin:miter;stroke-width:0.8;"/>
   </g>
   <g id="patch_62">
    <path clip-path="url(#pe3ea25c4a3)" d="M 898.779823 424.492 
L 907.540235 424.492 
L 907.540235 195.094021 
L 898.779823 195.094021 
z
" style="fill:url(#hd165a91963);stroke:#ffffff;stroke-linejoin:miter;stroke-width:0.8;"/>
   </g>
   <g id="patch_63">
    <path clip-path="url(#pe3ea25c4a3)" d="M 136.623995 424.492 
L 145.384406 424.492 
L 145.384406 187.879096 
L 136.623995 187.879096 
z
" style="fill:url(#h78904cd126);stroke:#ffffff;stroke-linejoin:miter;stroke-width:0.8;"/>
   </g>
   <g id="patch_64">
    <path clip-path="url(#pe3ea25c4a3)" d="M 206.707289 424.492 
L 215.467701 424.492 
L 215.467701 194.220843 
L 206.707289 194.220843 
z
" style="fill:url(#h78904cd126);stroke:#ffffff;stroke-linejoin:miter;stroke-width:0.8;"/>
   </g>
   <g id="patch_65">
    <path clip-path="url(#pe3ea25c4a3)" d="M 276.790584 424.492 
L 285.550996 424.492 
L 285.550996 100.662354 
L 276.790584 100.662354 
z
" style="fill:url(#h78904cd126);stroke:#ffffff;stroke-linejoin:miter;stroke-width:0.8;"/>
   </g>
   <g id="patch_66">
    <path clip-path="url(#pe3ea25c4a3)" d="M 346.873878 424.492 
L 355.63429 424.492 
L 355.63429 164.826765 
L 346.873878 164.826765 
z
" style="fill:url(#h78904cd126);stroke:#ffffff;stroke-linejoin:miter;stroke-width:0.8;"/>
   </g>
   <g id="patch_67">
    <path clip-path="url(#pe3ea25c4a3)" d="M 416.957173 424.492 
L 425.717585 424.492 
L 425.717585 180.40707 
L 416.957173 180.40707 
z
" style="fill:url(#h78904cd126);stroke:#ffffff;stroke-linejoin:miter;stroke-width:0.8;"/>
   </g>
   <g id="patch_68">
    <path clip-path="url(#pe3ea25c4a3)" d="M 487.040467 424.492 
L 495.800879 424.492 
L 495.800879 172.936826 
L 487.040467 172.936826 
z
" style="fill:url(#h78904cd126);stroke:#ffffff;stroke-linejoin:miter;stroke-width:0.8;"/>
   </g>
   <g id="patch_69">
    <path clip-path="url(#pe3ea25c4a3)" d="M 557.123762 424.492 
L 565.884174 424.492 
L 565.884174 186.492377 
L 557.123762 186.492377 
z
" style="fill:url(#h78904cd126);stroke:#ffffff;stroke-linejoin:miter;stroke-width:0.8;"/>
   </g>
   <g id="patch_70">
    <path clip-path="url(#pe3ea25c4a3)" d="M 627.207057 424.492 
L 635.967468 424.492 
L 635.967468 194.874434 
L 627.207057 194.874434 
z
" style="fill:url(#h78904cd126);stroke:#ffffff;stroke-linejoin:miter;stroke-width:0.8;"/>
   </g>
   <g id="patch_71">
    <path clip-path="url(#pe3ea25c4a3)" d="M 697.290351 424.492 
L 706.050763 424.492 
L 706.050763 193.612732 
L 697.290351 193.612732 
z
" style="fill:url(#h78904cd126);stroke:#ffffff;stroke-linejoin:miter;stroke-width:0.8;"/>
   </g>
   <g id="patch_72">
    <path clip-path="url(#pe3ea25c4a3)" d="M 767.373646 424.492 
L 776.134058 424.492 
L 776.134058 204.45206 
L 767.373646 204.45206 
z
" style="fill:url(#h78904cd126);stroke:#ffffff;stroke-linejoin:miter;stroke-width:0.8;"/>
   </g>
   <g id="patch_73">
    <path clip-path="url(#pe3ea25c4a3)" d="M 837.45694 424.492 
L 846.217352 424.492 
L 846.217352 188.701024 
L 837.45694 188.701024 
z
" style="fill:url(#h78904cd126);stroke:#ffffff;stroke-linejoin:miter;stroke-width:0.8;"/>
   </g>
   <g id="patch_74">
    <path clip-path="url(#pe3ea25c4a3)" d="M 907.540235 424.492 
L 916.300647 424.492 
L 916.300647 195.942374 
L 907.540235 195.942374 
z
" style="fill:url(#h78904cd126);stroke:#ffffff;stroke-linejoin:miter;stroke-width:0.8;"/>
   </g>
   <g id="matplotlib.axis_1">
    <g id="xtick_1">
     <g id="line2d_1">
      <defs>
       <path d="M 0 0 
L 0 4.8 
" id="mf8589c4597" style="stroke:#000000;"/>
      </defs>
      <g>
       <use style="stroke:#000000;" x="123.483377" xlink:href="#mf8589c4597" y="424.492"/>
      </g>
     </g>
     <g id="text_1">
      <!-- Age at Menarche -->
      <defs>
       <path d="M 34.1875 63.1875 
L 20.796875 26.90625 
L 47.609375 26.90625 
z
M 28.609375 72.90625 
L 39.796875 72.90625 
L 67.578125 0 
L 57.328125 0 
L 50.6875 18.703125 
L 17.828125 18.703125 
L 11.1875 0 
L 0.78125 0 
z
" id="DejaVuSans-65"/>
       <path d="M 45.40625 27.984375 
Q 45.40625 37.75 41.375 43.109375 
Q 37.359375 48.484375 30.078125 48.484375 
Q 22.859375 48.484375 18.828125 43.109375 
Q 14.796875 37.75 14.796875 27.984375 
Q 14.796875 18.265625 18.828125 12.890625 
Q 22.859375 7.515625 30.078125 7.515625 
Q 37.359375 7.515625 41.375 12.890625 
Q 45.40625 18.265625 45.40625 27.984375 
z
M 54.390625 6.78125 
Q 54.390625 -7.171875 48.1875 -13.984375 
Q 42 -20.796875 29.203125 -20.796875 
Q 24.46875 -20.796875 20.265625 -20.09375 
Q 16.0625 -19.390625 12.109375 -17.921875 
L 12.109375 -9.1875 
Q 16.0625 -11.328125 19.921875 -12.34375 
Q 23.78125 -13.375 27.78125 -13.375 
Q 36.625 -13.375 41.015625 -8.765625 
Q 45.40625 -4.15625 45.40625 5.171875 
L 45.40625 9.625 
Q 42.625 4.78125 38.28125 2.390625 
Q 33.9375 0 27.875 0 
Q 17.828125 0 11.671875 7.65625 
Q 5.515625 15.328125 5.515625 27.984375 
Q 5.515625 40.671875 11.671875 48.328125 
Q 17.828125 56 27.875 56 
Q 33.9375 56 38.28125 53.609375 
Q 42.625 51.21875 45.40625 46.390625 
L 45.40625 54.6875 
L 54.390625 54.6875 
z
" id="DejaVuSans-103"/>
       <path d="M 56.203125 29.59375 
L 56.203125 25.203125 
L 14.890625 25.203125 
Q 15.484375 15.921875 20.484375 11.0625 
Q 25.484375 6.203125 34.421875 6.203125 
Q 39.59375 6.203125 44.453125 7.46875 
Q 49.3125 8.734375 54.109375 11.28125 
L 54.109375 2.78125 
Q 49.265625 0.734375 44.1875 -0.34375 
Q 39.109375 -1.421875 33.890625 -1.421875 
Q 20.796875 -1.421875 13.15625 6.1875 
Q 5.515625 13.8125 5.515625 26.8125 
Q 5.515625 40.234375 12.765625 48.109375 
Q 20.015625 56 32.328125 56 
Q 43.359375 56 49.78125 48.890625 
Q 56.203125 41.796875 56.203125 29.59375 
z
M 47.21875 32.234375 
Q 47.125 39.59375 43.09375 43.984375 
Q 39.0625 48.390625 32.421875 48.390625 
Q 24.90625 48.390625 20.390625 44.140625 
Q 15.875 39.890625 15.1875 32.171875 
z
" id="DejaVuSans-101"/>
       <path id="DejaVuSans-32"/>
       <path d="M 34.28125 27.484375 
Q 23.390625 27.484375 19.1875 25 
Q 14.984375 22.515625 14.984375 16.5 
Q 14.984375 11.71875 18.140625 8.90625 
Q 21.296875 6.109375 26.703125 6.109375 
Q 34.1875 6.109375 38.703125 11.40625 
Q 43.21875 16.703125 43.21875 25.484375 
L 43.21875 27.484375 
z
M 52.203125 31.203125 
L 52.203125 0 
L 43.21875 0 
L 43.21875 8.296875 
Q 40.140625 3.328125 35.546875 0.953125 
Q 30.953125 -1.421875 24.3125 -1.421875 
Q 15.921875 -1.421875 10.953125 3.296875 
Q 6 8.015625 6 15.921875 
Q 6 25.140625 12.171875 29.828125 
Q 18.359375 34.515625 30.609375 34.515625 
L 43.21875 34.515625 
L 43.21875 35.40625 
Q 43.21875 41.609375 39.140625 45 
Q 35.0625 48.390625 27.6875 48.390625 
Q 23 48.390625 18.546875 47.265625 
Q 14.109375 46.140625 10.015625 43.890625 
L 10.015625 52.203125 
Q 14.9375 54.109375 19.578125 55.046875 
Q 24.21875 56 28.609375 56 
Q 40.484375 56 46.34375 49.84375 
Q 52.203125 43.703125 52.203125 31.203125 
z
" id="DejaVuSans-97"/>
       <path d="M 18.3125 70.21875 
L 18.3125 54.6875 
L 36.8125 54.6875 
L 36.8125 47.703125 
L 18.3125 47.703125 
L 18.3125 18.015625 
Q 18.3125 11.328125 20.140625 9.421875 
Q 21.96875 7.515625 27.59375 7.515625 
L 36.8125 7.515625 
L 36.8125 0 
L 27.59375 0 
Q 17.1875 0 13.234375 3.875 
Q 9.28125 7.765625 9.28125 18.015625 
L 9.28125 47.703125 
L 2.6875 47.703125 
L 2.6875 54.6875 
L 9.28125 54.6875 
L 9.28125 70.21875 
z
" id="DejaVuSans-116"/>
       <path d="M 9.8125 72.90625 
L 24.515625 72.90625 
L 43.109375 23.296875 
L 61.8125 72.90625 
L 76.515625 72.90625 
L 76.515625 0 
L 66.890625 0 
L 66.890625 64.015625 
L 48.09375 14.015625 
L 38.1875 14.015625 
L 19.390625 64.015625 
L 19.390625 0 
L 9.8125 0 
z
" id="DejaVuSans-77"/>
       <path d="M 54.890625 33.015625 
L 54.890625 0 
L 45.90625 0 
L 45.90625 32.71875 
Q 45.90625 40.484375 42.875 44.328125 
Q 39.84375 48.1875 33.796875 48.1875 
Q 26.515625 48.1875 22.3125 43.546875 
Q 18.109375 38.921875 18.109375 30.90625 
L 18.109375 0 
L 9.078125 0 
L 9.078125 54.6875 
L 18.109375 54.6875 
L 18.109375 46.1875 
Q 21.34375 51.125 25.703125 53.5625 
Q 30.078125 56 35.796875 56 
Q 45.21875 56 50.046875 50.171875 
Q 54.890625 44.34375 54.890625 33.015625 
z
" id="DejaVuSans-110"/>
       <path d="M 41.109375 46.296875 
Q 39.59375 47.171875 37.8125 47.578125 
Q 36.03125 48 33.890625 48 
Q 26.265625 48 22.1875 43.046875 
Q 18.109375 38.09375 18.109375 28.8125 
L 18.109375 0 
L 9.078125 0 
L 9.078125 54.6875 
L 18.109375 54.6875 
L 18.109375 46.1875 
Q 20.953125 51.171875 25.484375 53.578125 
Q 30.03125 56 36.53125 56 
Q 37.453125 56 38.578125 55.875 
Q 39.703125 55.765625 41.0625 55.515625 
z
" id="DejaVuSans-114"/>
       <path d="M 48.78125 52.59375 
L 48.78125 44.1875 
Q 44.96875 46.296875 41.140625 47.34375 
Q 37.3125 48.390625 33.40625 48.390625 
Q 24.65625 48.390625 19.8125 42.84375 
Q 14.984375 37.3125 14.984375 27.296875 
Q 14.984375 17.28125 19.8125 11.734375 
Q 24.65625 6.203125 33.40625 6.203125 
Q 37.3125 6.203125 41.140625 7.25 
Q 44.96875 8.296875 48.78125 10.40625 
L 48.78125 2.09375 
Q 45.015625 0.34375 40.984375 -0.53125 
Q 36.96875 -1.421875 32.421875 -1.421875 
Q 20.0625 -1.421875 12.78125 6.34375 
Q 5.515625 14.109375 5.515625 27.296875 
Q 5.515625 40.671875 12.859375 48.328125 
Q 20.21875 56 33.015625 56 
Q 37.15625 56 41.109375 55.140625 
Q 45.0625 54.296875 48.78125 52.59375 
z
" id="DejaVuSans-99"/>
       <path d="M 54.890625 33.015625 
L 54.890625 0 
L 45.90625 0 
L 45.90625 32.71875 
Q 45.90625 40.484375 42.875 44.328125 
Q 39.84375 48.1875 33.796875 48.1875 
Q 26.515625 48.1875 22.3125 43.546875 
Q 18.109375 38.921875 18.109375 30.90625 
L 18.109375 0 
L 9.078125 0 
L 9.078125 75.984375 
L 18.109375 75.984375 
L 18.109375 46.1875 
Q 21.34375 51.125 25.703125 53.5625 
Q 30.078125 56 35.796875 56 
Q 45.21875 56 50.046875 50.171875 
Q 54.890625 44.34375 54.890625 33.015625 
z
" id="DejaVuSans-104"/>
      </defs>
      <g transform="translate(125.911627 507.4765)rotate(-90)scale(0.088 -0.088)">
       <use xlink:href="#DejaVuSans-65"/>
       <use x="68.408203" xlink:href="#DejaVuSans-103"/>
       <use x="131.884766" xlink:href="#DejaVuSans-101"/>
       <use x="193.408203" xlink:href="#DejaVuSans-32"/>
       <use x="225.195312" xlink:href="#DejaVuSans-97"/>
       <use x="286.474609" xlink:href="#DejaVuSans-116"/>
       <use x="325.683594" xlink:href="#DejaVuSans-32"/>
       <use x="357.470703" xlink:href="#DejaVuSans-77"/>
       <use x="443.75" xlink:href="#DejaVuSans-101"/>
       <use x="505.273438" xlink:href="#DejaVuSans-110"/>
       <use x="568.652344" xlink:href="#DejaVuSans-97"/>
       <use x="629.931641" xlink:href="#DejaVuSans-114"/>
       <use x="668.794922" xlink:href="#DejaVuSans-99"/>
       <use x="723.775391" xlink:href="#DejaVuSans-104"/>
       <use x="787.154297" xlink:href="#DejaVuSans-101"/>
      </g>
     </g>
    </g>
    <g id="xtick_2">
     <g id="line2d_2">
      <g>
       <use style="stroke:#000000;" x="193.566671" xlink:href="#mf8589c4597" y="424.492"/>
      </g>
     </g>
     <g id="text_2">
      <!-- Age at Menopause -->
      <defs>
       <path d="M 30.609375 48.390625 
Q 23.390625 48.390625 19.1875 42.75 
Q 14.984375 37.109375 14.984375 27.296875 
Q 14.984375 17.484375 19.15625 11.84375 
Q 23.34375 6.203125 30.609375 6.203125 
Q 37.796875 6.203125 41.984375 11.859375 
Q 46.1875 17.53125 46.1875 27.296875 
Q 46.1875 37.015625 41.984375 42.703125 
Q 37.796875 48.390625 30.609375 48.390625 
z
M 30.609375 56 
Q 42.328125 56 49.015625 48.375 
Q 55.71875 40.765625 55.71875 27.296875 
Q 55.71875 13.875 49.015625 6.21875 
Q 42.328125 -1.421875 30.609375 -1.421875 
Q 18.84375 -1.421875 12.171875 6.21875 
Q 5.515625 13.875 5.515625 27.296875 
Q 5.515625 40.765625 12.171875 48.375 
Q 18.84375 56 30.609375 56 
z
" id="DejaVuSans-111"/>
       <path d="M 18.109375 8.203125 
L 18.109375 -20.796875 
L 9.078125 -20.796875 
L 9.078125 54.6875 
L 18.109375 54.6875 
L 18.109375 46.390625 
Q 20.953125 51.265625 25.265625 53.625 
Q 29.59375 56 35.59375 56 
Q 45.5625 56 51.78125 48.09375 
Q 58.015625 40.1875 58.015625 27.296875 
Q 58.015625 14.40625 51.78125 6.484375 
Q 45.5625 -1.421875 35.59375 -1.421875 
Q 29.59375 -1.421875 25.265625 0.953125 
Q 20.953125 3.328125 18.109375 8.203125 
z
M 48.6875 27.296875 
Q 48.6875 37.203125 44.609375 42.84375 
Q 40.53125 48.484375 33.40625 48.484375 
Q 26.265625 48.484375 22.1875 42.84375 
Q 18.109375 37.203125 18.109375 27.296875 
Q 18.109375 17.390625 22.1875 11.75 
Q 26.265625 6.109375 33.40625 6.109375 
Q 40.53125 6.109375 44.609375 11.75 
Q 48.6875 17.390625 48.6875 27.296875 
z
" id="DejaVuSans-112"/>
       <path d="M 8.5 21.578125 
L 8.5 54.6875 
L 17.484375 54.6875 
L 17.484375 21.921875 
Q 17.484375 14.15625 20.5 10.265625 
Q 23.53125 6.390625 29.59375 6.390625 
Q 36.859375 6.390625 41.078125 11.03125 
Q 45.3125 15.671875 45.3125 23.6875 
L 45.3125 54.6875 
L 54.296875 54.6875 
L 54.296875 0 
L 45.3125 0 
L 45.3125 8.40625 
Q 42.046875 3.421875 37.71875 1 
Q 33.40625 -1.421875 27.6875 -1.421875 
Q 18.265625 -1.421875 13.375 4.4375 
Q 8.5 10.296875 8.5 21.578125 
z
M 31.109375 56 
z
" id="DejaVuSans-117"/>
       <path d="M 44.28125 53.078125 
L 44.28125 44.578125 
Q 40.484375 46.53125 36.375 47.5 
Q 32.28125 48.484375 27.875 48.484375 
Q 21.1875 48.484375 17.84375 46.4375 
Q 14.5 44.390625 14.5 40.28125 
Q 14.5 37.15625 16.890625 35.375 
Q 19.28125 33.59375 26.515625 31.984375 
L 29.59375 31.296875 
Q 39.15625 29.25 43.1875 25.515625 
Q 47.21875 21.78125 47.21875 15.09375 
Q 47.21875 7.46875 41.1875 3.015625 
Q 35.15625 -1.421875 24.609375 -1.421875 
Q 20.21875 -1.421875 15.453125 -0.5625 
Q 10.6875 0.296875 5.421875 2 
L 5.421875 11.28125 
Q 10.40625 8.6875 15.234375 7.390625 
Q 20.0625 6.109375 24.8125 6.109375 
Q 31.15625 6.109375 34.5625 8.28125 
Q 37.984375 10.453125 37.984375 14.40625 
Q 37.984375 18.0625 35.515625 20.015625 
Q 33.0625 21.96875 24.703125 23.78125 
L 21.578125 24.515625 
Q 13.234375 26.265625 9.515625 29.90625 
Q 5.8125 33.546875 5.8125 39.890625 
Q 5.8125 47.609375 11.28125 51.796875 
Q 16.75 56 26.8125 56 
Q 31.78125 56 36.171875 55.265625 
Q 40.578125 54.546875 44.28125 53.078125 
z
" id="DejaVuSans-115"/>
      </defs>
      <g transform="translate(195.994921 514.773625)rotate(-90)scale(0.088 -0.088)">
       <use xlink:href="#DejaVuSans-65"/>
       <use x="68.408203" xlink:href="#DejaVuSans-103"/>
       <use x="131.884766" xlink:href="#DejaVuSans-101"/>
       <use x="193.408203" xlink:href="#DejaVuSans-32"/>
       <use x="225.195312" xlink:href="#DejaVuSans-97"/>
       <use x="286.474609" xlink:href="#DejaVuSans-116"/>
       <use x="325.683594" xlink:href="#DejaVuSans-32"/>
       <use x="357.470703" xlink:href="#DejaVuSans-77"/>
       <use x="443.75" xlink:href="#DejaVuSans-101"/>
       <use x="505.273438" xlink:href="#DejaVuSans-110"/>
       <use x="568.652344" xlink:href="#DejaVuSans-111"/>
       <use x="629.833984" xlink:href="#DejaVuSans-112"/>
       <use x="693.310547" xlink:href="#DejaVuSans-97"/>
       <use x="754.589844" xlink:href="#DejaVuSans-117"/>
       <use x="817.96875" xlink:href="#DejaVuSans-115"/>
       <use x="870.068359" xlink:href="#DejaVuSans-101"/>
      </g>
     </g>
    </g>
    <g id="xtick_3">
     <g id="line2d_3">
      <g>
       <use style="stroke:#000000;" x="263.649966" xlink:href="#mf8589c4597" y="424.492"/>
      </g>
     </g>
     <g id="text_3">
      <!-- Height -->
      <defs>
       <path d="M 9.8125 72.90625 
L 19.671875 72.90625 
L 19.671875 43.015625 
L 55.515625 43.015625 
L 55.515625 72.90625 
L 65.375 72.90625 
L 65.375 0 
L 55.515625 0 
L 55.515625 34.71875 
L 19.671875 34.71875 
L 19.671875 0 
L 9.8125 0 
z
" id="DejaVuSans-72"/>
       <path d="M 9.421875 54.6875 
L 18.40625 54.6875 
L 18.40625 0 
L 9.421875 0 
z
M 9.421875 75.984375 
L 18.40625 75.984375 
L 18.40625 64.59375 
L 9.421875 64.59375 
z
" id="DejaVuSans-105"/>
      </defs>
      <g transform="translate(266.078216 461.882875)rotate(-90)scale(0.088 -0.088)">
       <use xlink:href="#DejaVuSans-72"/>
       <use x="75.195312" xlink:href="#DejaVuSans-101"/>
       <use x="136.71875" xlink:href="#DejaVuSans-105"/>
       <use x="164.501953" xlink:href="#DejaVuSans-103"/>
       <use x="227.978516" xlink:href="#DejaVuSans-104"/>
       <use x="291.357422" xlink:href="#DejaVuSans-116"/>
      </g>
     </g>
    </g>
    <g id="xtick_4">
     <g id="line2d_4">
      <g>
       <use style="stroke:#000000;" x="333.733261" xlink:href="#mf8589c4597" y="424.492"/>
      </g>
     </g>
     <g id="text_4">
      <!-- BMI -->
      <defs>
       <path d="M 19.671875 34.8125 
L 19.671875 8.109375 
L 35.5 8.109375 
Q 43.453125 8.109375 47.28125 11.40625 
Q 51.125 14.703125 51.125 21.484375 
Q 51.125 28.328125 47.28125 31.5625 
Q 43.453125 34.8125 35.5 34.8125 
z
M 19.671875 64.796875 
L 19.671875 42.828125 
L 34.28125 42.828125 
Q 41.5 42.828125 45.03125 45.53125 
Q 48.578125 48.25 48.578125 53.8125 
Q 48.578125 59.328125 45.03125 62.0625 
Q 41.5 64.796875 34.28125 64.796875 
z
M 9.8125 72.90625 
L 35.015625 72.90625 
Q 46.296875 72.90625 52.390625 68.21875 
Q 58.5 63.53125 58.5 54.890625 
Q 58.5 48.1875 55.375 44.234375 
Q 52.25 40.28125 46.1875 39.3125 
Q 53.46875 37.75 57.5 32.78125 
Q 61.53125 27.828125 61.53125 20.40625 
Q 61.53125 10.640625 54.890625 5.3125 
Q 48.25 0 35.984375 0 
L 9.8125 0 
z
" id="DejaVuSans-66"/>
       <path d="M 9.8125 72.90625 
L 19.671875 72.90625 
L 19.671875 0 
L 9.8125 0 
z
" id="DejaVuSans-73"/>
      </defs>
      <g transform="translate(336.161511 449.018375)rotate(-90)scale(0.088 -0.088)">
       <use xlink:href="#DejaVuSans-66"/>
       <use x="68.603516" xlink:href="#DejaVuSans-77"/>
       <use x="154.882812" xlink:href="#DejaVuSans-73"/>
      </g>
     </g>
    </g>
    <g id="xtick_5">
     <g id="line2d_5">
      <g>
       <use style="stroke:#000000;" x="403.816555" xlink:href="#mf8589c4597" y="424.492"/>
      </g>
     </g>
     <g id="text_5">
      <!-- Waist-hip Ratio -->
      <defs>
       <path d="M 3.328125 72.90625 
L 13.28125 72.90625 
L 28.609375 11.28125 
L 43.890625 72.90625 
L 54.984375 72.90625 
L 70.3125 11.28125 
L 85.59375 72.90625 
L 95.609375 72.90625 
L 77.296875 0 
L 64.890625 0 
L 49.515625 63.28125 
L 33.984375 0 
L 21.578125 0 
z
" id="DejaVuSans-87"/>
       <path d="M 4.890625 31.390625 
L 31.203125 31.390625 
L 31.203125 23.390625 
L 4.890625 23.390625 
z
" id="DejaVuSans-45"/>
       <path d="M 44.390625 34.1875 
Q 47.5625 33.109375 50.5625 29.59375 
Q 53.5625 26.078125 56.59375 19.921875 
L 66.609375 0 
L 56 0 
L 46.6875 18.703125 
Q 43.0625 26.03125 39.671875 28.421875 
Q 36.28125 30.8125 30.421875 30.8125 
L 19.671875 30.8125 
L 19.671875 0 
L 9.8125 0 
L 9.8125 72.90625 
L 32.078125 72.90625 
Q 44.578125 72.90625 50.734375 67.671875 
Q 56.890625 62.453125 56.890625 51.90625 
Q 56.890625 45.015625 53.6875 40.46875 
Q 50.484375 35.9375 44.390625 34.1875 
z
M 19.671875 64.796875 
L 19.671875 38.921875 
L 32.078125 38.921875 
Q 39.203125 38.921875 42.84375 42.21875 
Q 46.484375 45.515625 46.484375 51.90625 
Q 46.484375 58.296875 42.84375 61.546875 
Q 39.203125 64.796875 32.078125 64.796875 
z
" id="DejaVuSans-82"/>
      </defs>
      <g transform="translate(406.244805 498.972125)rotate(-90)scale(0.088 -0.088)">
       <use xlink:href="#DejaVuSans-87"/>
       <use x="92.501953" xlink:href="#DejaVuSans-97"/>
       <use x="153.78125" xlink:href="#DejaVuSans-105"/>
       <use x="181.564453" xlink:href="#DejaVuSans-115"/>
       <use x="233.664062" xlink:href="#DejaVuSans-116"/>
       <use x="272.873047" xlink:href="#DejaVuSans-45"/>
       <use x="308.957031" xlink:href="#DejaVuSans-104"/>
       <use x="372.335938" xlink:href="#DejaVuSans-105"/>
       <use x="400.119141" xlink:href="#DejaVuSans-112"/>
       <use x="463.595703" xlink:href="#DejaVuSans-32"/>
       <use x="495.382812" xlink:href="#DejaVuSans-82"/>
       <use x="562.615234" xlink:href="#DejaVuSans-97"/>
       <use x="623.894531" xlink:href="#DejaVuSans-116"/>
       <use x="663.103516" xlink:href="#DejaVuSans-105"/>
       <use x="690.886719" xlink:href="#DejaVuSans-111"/>
      </g>
     </g>
    </g>
    <g id="xtick_6">
     <g id="line2d_6">
      <g>
       <use style="stroke:#000000;" x="473.89985" xlink:href="#mf8589c4597" y="424.492"/>
      </g>
     </g>
     <g id="text_6">
      <!-- Systolic Blood Pressure -->
      <defs>
       <path d="M 53.515625 70.515625 
L 53.515625 60.890625 
Q 47.90625 63.578125 42.921875 64.890625 
Q 37.9375 66.21875 33.296875 66.21875 
Q 25.25 66.21875 20.875 63.09375 
Q 16.5 59.96875 16.5 54.203125 
Q 16.5 49.359375 19.40625 46.890625 
Q 22.3125 44.4375 30.421875 42.921875 
L 36.375 41.703125 
Q 47.40625 39.59375 52.65625 34.296875 
Q 57.90625 29 57.90625 20.125 
Q 57.90625 9.515625 50.796875 4.046875 
Q 43.703125 -1.421875 29.984375 -1.421875 
Q 24.8125 -1.421875 18.96875 -0.25 
Q 13.140625 0.921875 6.890625 3.21875 
L 6.890625 13.375 
Q 12.890625 10.015625 18.65625 8.296875 
Q 24.421875 6.59375 29.984375 6.59375 
Q 38.421875 6.59375 43.015625 9.90625 
Q 47.609375 13.234375 47.609375 19.390625 
Q 47.609375 24.75 44.3125 27.78125 
Q 41.015625 30.8125 33.5 32.328125 
L 27.484375 33.5 
Q 16.453125 35.6875 11.515625 40.375 
Q 6.59375 45.0625 6.59375 53.421875 
Q 6.59375 63.09375 13.40625 68.65625 
Q 20.21875 74.21875 32.171875 74.21875 
Q 37.3125 74.21875 42.625 73.28125 
Q 47.953125 72.359375 53.515625 70.515625 
z
" id="DejaVuSans-83"/>
       <path d="M 32.171875 -5.078125 
Q 28.375 -14.84375 24.75 -17.8125 
Q 21.140625 -20.796875 15.09375 -20.796875 
L 7.90625 -20.796875 
L 7.90625 -13.28125 
L 13.1875 -13.28125 
Q 16.890625 -13.28125 18.9375 -11.515625 
Q 21 -9.765625 23.484375 -3.21875 
L 25.09375 0.875 
L 2.984375 54.6875 
L 12.5 54.6875 
L 29.59375 11.921875 
L 46.6875 54.6875 
L 56.203125 54.6875 
z
" id="DejaVuSans-121"/>
       <path d="M 9.421875 75.984375 
L 18.40625 75.984375 
L 18.40625 0 
L 9.421875 0 
z
" id="DejaVuSans-108"/>
       <path d="M 45.40625 46.390625 
L 45.40625 75.984375 
L 54.390625 75.984375 
L 54.390625 0 
L 45.40625 0 
L 45.40625 8.203125 
Q 42.578125 3.328125 38.25 0.953125 
Q 33.9375 -1.421875 27.875 -1.421875 
Q 17.96875 -1.421875 11.734375 6.484375 
Q 5.515625 14.40625 5.515625 27.296875 
Q 5.515625 40.1875 11.734375 48.09375 
Q 17.96875 56 27.875 56 
Q 33.9375 56 38.25 53.625 
Q 42.578125 51.265625 45.40625 46.390625 
z
M 14.796875 27.296875 
Q 14.796875 17.390625 18.875 11.75 
Q 22.953125 6.109375 30.078125 6.109375 
Q 37.203125 6.109375 41.296875 11.75 
Q 45.40625 17.390625 45.40625 27.296875 
Q 45.40625 37.203125 41.296875 42.84375 
Q 37.203125 48.484375 30.078125 48.484375 
Q 22.953125 48.484375 18.875 42.84375 
Q 14.796875 37.203125 14.796875 27.296875 
z
" id="DejaVuSans-100"/>
       <path d="M 19.671875 64.796875 
L 19.671875 37.40625 
L 32.078125 37.40625 
Q 38.96875 37.40625 42.71875 40.96875 
Q 46.484375 44.53125 46.484375 51.125 
Q 46.484375 57.671875 42.71875 61.234375 
Q 38.96875 64.796875 32.078125 64.796875 
z
M 9.8125 72.90625 
L 32.078125 72.90625 
Q 44.34375 72.90625 50.609375 67.359375 
Q 56.890625 61.8125 56.890625 51.125 
Q 56.890625 40.328125 50.609375 34.8125 
Q 44.34375 29.296875 32.078125 29.296875 
L 19.671875 29.296875 
L 19.671875 0 
L 9.8125 0 
z
" id="DejaVuSans-80"/>
      </defs>
      <g transform="translate(476.3281 534.73175)rotate(-90)scale(0.088 -0.088)">
       <use xlink:href="#DejaVuSans-83"/>
       <use x="63.476562" xlink:href="#DejaVuSans-121"/>
       <use x="122.65625" xlink:href="#DejaVuSans-115"/>
       <use x="174.755859" xlink:href="#DejaVuSans-116"/>
       <use x="213.964844" xlink:href="#DejaVuSans-111"/>
       <use x="275.146484" xlink:href="#DejaVuSans-108"/>
       <use x="302.929688" xlink:href="#DejaVuSans-105"/>
       <use x="330.712891" xlink:href="#DejaVuSans-99"/>
       <use x="385.693359" xlink:href="#DejaVuSans-32"/>
       <use x="417.480469" xlink:href="#DejaVuSans-66"/>
       <use x="486.083984" xlink:href="#DejaVuSans-108"/>
       <use x="513.867188" xlink:href="#DejaVuSans-111"/>
       <use x="575.048828" xlink:href="#DejaVuSans-111"/>
       <use x="636.230469" xlink:href="#DejaVuSans-100"/>
       <use x="699.707031" xlink:href="#DejaVuSans-32"/>
       <use x="731.494141" xlink:href="#DejaVuSans-80"/>
       <use x="790.046875" xlink:href="#DejaVuSans-114"/>
       <use x="828.910156" xlink:href="#DejaVuSans-101"/>
       <use x="890.433594" xlink:href="#DejaVuSans-115"/>
       <use x="942.533203" xlink:href="#DejaVuSans-115"/>
       <use x="994.632812" xlink:href="#DejaVuSans-117"/>
       <use x="1058.011719" xlink:href="#DejaVuSans-114"/>
       <use x="1096.875" xlink:href="#DejaVuSans-101"/>
      </g>
     </g>
    </g>
    <g id="xtick_7">
     <g id="line2d_7">
      <g>
       <use style="stroke:#000000;" x="543.983144" xlink:href="#mf8589c4597" y="424.492"/>
      </g>
     </g>
     <g id="text_7">
      <!-- High Cholesterol -->
      <defs>
       <path d="M 64.40625 67.28125 
L 64.40625 56.890625 
Q 59.421875 61.53125 53.78125 63.8125 
Q 48.140625 66.109375 41.796875 66.109375 
Q 29.296875 66.109375 22.65625 58.46875 
Q 16.015625 50.828125 16.015625 36.375 
Q 16.015625 21.96875 22.65625 14.328125 
Q 29.296875 6.6875 41.796875 6.6875 
Q 48.140625 6.6875 53.78125 8.984375 
Q 59.421875 11.28125 64.40625 15.921875 
L 64.40625 5.609375 
Q 59.234375 2.09375 53.4375 0.328125 
Q 47.65625 -1.421875 41.21875 -1.421875 
Q 24.65625 -1.421875 15.125 8.703125 
Q 5.609375 18.84375 5.609375 36.375 
Q 5.609375 53.953125 15.125 64.078125 
Q 24.65625 74.21875 41.21875 74.21875 
Q 47.75 74.21875 53.53125 72.484375 
Q 59.328125 70.75 64.40625 67.28125 
z
" id="DejaVuSans-67"/>
      </defs>
      <g transform="translate(546.411394 505.478625)rotate(-90)scale(0.088 -0.088)">
       <use xlink:href="#DejaVuSans-72"/>
       <use x="75.195312" xlink:href="#DejaVuSans-105"/>
       <use x="102.978516" xlink:href="#DejaVuSans-103"/>
       <use x="166.455078" xlink:href="#DejaVuSans-104"/>
       <use x="229.833984" xlink:href="#DejaVuSans-32"/>
       <use x="261.621094" xlink:href="#DejaVuSans-67"/>
       <use x="331.445312" xlink:href="#DejaVuSans-104"/>
       <use x="394.824219" xlink:href="#DejaVuSans-111"/>
       <use x="456.005859" xlink:href="#DejaVuSans-108"/>
       <use x="483.789062" xlink:href="#DejaVuSans-101"/>
       <use x="545.3125" xlink:href="#DejaVuSans-115"/>
       <use x="597.412109" xlink:href="#DejaVuSans-116"/>
       <use x="636.621094" xlink:href="#DejaVuSans-101"/>
       <use x="698.144531" xlink:href="#DejaVuSans-114"/>
       <use x="737.007812" xlink:href="#DejaVuSans-111"/>
       <use x="798.189453" xlink:href="#DejaVuSans-108"/>
      </g>
     </g>
    </g>
    <g id="xtick_8">
     <g id="line2d_8">
      <g>
       <use style="stroke:#000000;" x="614.066439" xlink:href="#mf8589c4597" y="424.492"/>
      </g>
     </g>
     <g id="text_8">
      <!-- Type 2 diabetes -->
      <defs>
       <path d="M -0.296875 72.90625 
L 61.375 72.90625 
L 61.375 64.59375 
L 35.5 64.59375 
L 35.5 0 
L 25.59375 0 
L 25.59375 64.59375 
L -0.296875 64.59375 
z
" id="DejaVuSans-84"/>
       <path d="M 19.1875 8.296875 
L 53.609375 8.296875 
L 53.609375 0 
L 7.328125 0 
L 7.328125 8.296875 
Q 12.9375 14.109375 22.625 23.890625 
Q 32.328125 33.6875 34.8125 36.53125 
Q 39.546875 41.84375 41.421875 45.53125 
Q 43.3125 49.21875 43.3125 52.78125 
Q 43.3125 58.59375 39.234375 62.25 
Q 35.15625 65.921875 28.609375 65.921875 
Q 23.96875 65.921875 18.8125 64.3125 
Q 13.671875 62.703125 7.8125 59.421875 
L 7.8125 69.390625 
Q 13.765625 71.78125 18.9375 73 
Q 24.125 74.21875 28.421875 74.21875 
Q 39.75 74.21875 46.484375 68.546875 
Q 53.21875 62.890625 53.21875 53.421875 
Q 53.21875 48.921875 51.53125 44.890625 
Q 49.859375 40.875 45.40625 35.40625 
Q 44.1875 33.984375 37.640625 27.21875 
Q 31.109375 20.453125 19.1875 8.296875 
z
" id="DejaVuSans-50"/>
       <path d="M 48.6875 27.296875 
Q 48.6875 37.203125 44.609375 42.84375 
Q 40.53125 48.484375 33.40625 48.484375 
Q 26.265625 48.484375 22.1875 42.84375 
Q 18.109375 37.203125 18.109375 27.296875 
Q 18.109375 17.390625 22.1875 11.75 
Q 26.265625 6.109375 33.40625 6.109375 
Q 40.53125 6.109375 44.609375 11.75 
Q 48.6875 17.390625 48.6875 27.296875 
z
M 18.109375 46.390625 
Q 20.953125 51.265625 25.265625 53.625 
Q 29.59375 56 35.59375 56 
Q 45.5625 56 51.78125 48.09375 
Q 58.015625 40.1875 58.015625 27.296875 
Q 58.015625 14.40625 51.78125 6.484375 
Q 45.5625 -1.421875 35.59375 -1.421875 
Q 29.59375 -1.421875 25.265625 0.953125 
Q 20.953125 3.328125 18.109375 8.203125 
L 18.109375 0 
L 9.078125 0 
L 9.078125 75.984375 
L 18.109375 75.984375 
z
" id="DejaVuSans-98"/>
      </defs>
      <g transform="translate(616.494689 502.068625)rotate(-90)scale(0.088 -0.088)">
       <use xlink:href="#DejaVuSans-84"/>
       <use x="45.458984" xlink:href="#DejaVuSans-121"/>
       <use x="104.638672" xlink:href="#DejaVuSans-112"/>
       <use x="168.115234" xlink:href="#DejaVuSans-101"/>
       <use x="229.638672" xlink:href="#DejaVuSans-32"/>
       <use x="261.425781" xlink:href="#DejaVuSans-50"/>
       <use x="325.048828" xlink:href="#DejaVuSans-32"/>
       <use x="356.835938" xlink:href="#DejaVuSans-100"/>
       <use x="420.3125" xlink:href="#DejaVuSans-105"/>
       <use x="448.095703" xlink:href="#DejaVuSans-97"/>
       <use x="509.375" xlink:href="#DejaVuSans-98"/>
       <use x="572.851562" xlink:href="#DejaVuSans-101"/>
       <use x="634.375" xlink:href="#DejaVuSans-116"/>
       <use x="673.583984" xlink:href="#DejaVuSans-101"/>
       <use x="735.107422" xlink:href="#DejaVuSans-115"/>
      </g>
     </g>
    </g>
    <g id="xtick_9">
     <g id="line2d_9">
      <g>
       <use style="stroke:#000000;" x="684.149733" xlink:href="#mf8589c4597" y="424.492"/>
      </g>
     </g>
     <g id="text_9">
      <!-- Respiratory and ENT Diseases -->
      <defs>
       <path d="M 9.8125 72.90625 
L 55.90625 72.90625 
L 55.90625 64.59375 
L 19.671875 64.59375 
L 19.671875 43.015625 
L 54.390625 43.015625 
L 54.390625 34.71875 
L 19.671875 34.71875 
L 19.671875 8.296875 
L 56.78125 8.296875 
L 56.78125 0 
L 9.8125 0 
z
" id="DejaVuSans-69"/>
       <path d="M 9.8125 72.90625 
L 23.09375 72.90625 
L 55.421875 11.921875 
L 55.421875 72.90625 
L 64.984375 72.90625 
L 64.984375 0 
L 51.703125 0 
L 19.390625 60.984375 
L 19.390625 0 
L 9.8125 0 
z
" id="DejaVuSans-78"/>
       <path d="M 19.671875 64.796875 
L 19.671875 8.109375 
L 31.59375 8.109375 
Q 46.6875 8.109375 53.6875 14.9375 
Q 60.6875 21.78125 60.6875 36.53125 
Q 60.6875 51.171875 53.6875 57.984375 
Q 46.6875 64.796875 31.59375 64.796875 
z
M 9.8125 72.90625 
L 30.078125 72.90625 
Q 51.265625 72.90625 61.171875 64.09375 
Q 71.09375 55.28125 71.09375 36.53125 
Q 71.09375 17.671875 61.125 8.828125 
Q 51.171875 0 30.078125 0 
L 9.8125 0 
z
" id="DejaVuSans-68"/>
      </defs>
      <g transform="translate(686.577983 564.873125)rotate(-90)scale(0.088 -0.088)">
       <use xlink:href="#DejaVuSans-82"/>
       <use x="64.982422" xlink:href="#DejaVuSans-101"/>
       <use x="126.505859" xlink:href="#DejaVuSans-115"/>
       <use x="178.605469" xlink:href="#DejaVuSans-112"/>
       <use x="242.082031" xlink:href="#DejaVuSans-105"/>
       <use x="269.865234" xlink:href="#DejaVuSans-114"/>
       <use x="310.978516" xlink:href="#DejaVuSans-97"/>
       <use x="372.257812" xlink:href="#DejaVuSans-116"/>
       <use x="411.466797" xlink:href="#DejaVuSans-111"/>
       <use x="472.648438" xlink:href="#DejaVuSans-114"/>
       <use x="513.761719" xlink:href="#DejaVuSans-121"/>
       <use x="572.941406" xlink:href="#DejaVuSans-32"/>
       <use x="604.728516" xlink:href="#DejaVuSans-97"/>
       <use x="666.007812" xlink:href="#DejaVuSans-110"/>
       <use x="729.386719" xlink:href="#DejaVuSans-100"/>
       <use x="792.863281" xlink:href="#DejaVuSans-32"/>
       <use x="824.650391" xlink:href="#DejaVuSans-69"/>
       <use x="887.833984" xlink:href="#DejaVuSans-78"/>
       <use x="962.638672" xlink:href="#DejaVuSans-84"/>
       <use x="1023.722656" xlink:href="#DejaVuSans-32"/>
       <use x="1055.509766" xlink:href="#DejaVuSans-68"/>
       <use x="1132.511719" xlink:href="#DejaVuSans-105"/>
       <use x="1160.294922" xlink:href="#DejaVuSans-115"/>
       <use x="1212.394531" xlink:href="#DejaVuSans-101"/>
       <use x="1273.917969" xlink:href="#DejaVuSans-97"/>
       <use x="1335.197266" xlink:href="#DejaVuSans-115"/>
       <use x="1387.296875" xlink:href="#DejaVuSans-101"/>
       <use x="1448.820312" xlink:href="#DejaVuSans-115"/>
      </g>
     </g>
    </g>
    <g id="xtick_10">
     <g id="line2d_10">
      <g>
       <use style="stroke:#000000;" x="754.233028" xlink:href="#mf8589c4597" y="424.492"/>
      </g>
     </g>
     <g id="text_10">
      <!-- Auto Immune Traits -->
      <defs>
       <path d="M 52 44.1875 
Q 55.375 50.25 60.0625 53.125 
Q 64.75 56 71.09375 56 
Q 79.640625 56 84.28125 50.015625 
Q 88.921875 44.046875 88.921875 33.015625 
L 88.921875 0 
L 79.890625 0 
L 79.890625 32.71875 
Q 79.890625 40.578125 77.09375 44.375 
Q 74.3125 48.1875 68.609375 48.1875 
Q 61.625 48.1875 57.5625 43.546875 
Q 53.515625 38.921875 53.515625 30.90625 
L 53.515625 0 
L 44.484375 0 
L 44.484375 32.71875 
Q 44.484375 40.625 41.703125 44.40625 
Q 38.921875 48.1875 33.109375 48.1875 
Q 26.21875 48.1875 22.15625 43.53125 
Q 18.109375 38.875 18.109375 30.90625 
L 18.109375 0 
L 9.078125 0 
L 9.078125 54.6875 
L 18.109375 54.6875 
L 18.109375 46.1875 
Q 21.1875 51.21875 25.484375 53.609375 
Q 29.78125 56 35.6875 56 
Q 41.65625 56 45.828125 52.96875 
Q 50 49.953125 52 44.1875 
z
" id="DejaVuSans-109"/>
      </defs>
      <g transform="translate(756.661278 518.691)rotate(-90)scale(0.088 -0.088)">
       <use xlink:href="#DejaVuSans-65"/>
       <use x="68.408203" xlink:href="#DejaVuSans-117"/>
       <use x="131.787109" xlink:href="#DejaVuSans-116"/>
       <use x="170.996094" xlink:href="#DejaVuSans-111"/>
       <use x="232.177734" xlink:href="#DejaVuSans-32"/>
       <use x="263.964844" xlink:href="#DejaVuSans-73"/>
       <use x="293.457031" xlink:href="#DejaVuSans-109"/>
       <use x="390.869141" xlink:href="#DejaVuSans-109"/>
       <use x="488.28125" xlink:href="#DejaVuSans-117"/>
       <use x="551.660156" xlink:href="#DejaVuSans-110"/>
       <use x="615.039062" xlink:href="#DejaVuSans-101"/>
       <use x="676.5625" xlink:href="#DejaVuSans-32"/>
       <use x="708.349609" xlink:href="#DejaVuSans-84"/>
       <use x="754.683594" xlink:href="#DejaVuSans-114"/>
       <use x="795.796875" xlink:href="#DejaVuSans-97"/>
       <use x="857.076172" xlink:href="#DejaVuSans-105"/>
       <use x="884.859375" xlink:href="#DejaVuSans-116"/>
       <use x="924.068359" xlink:href="#DejaVuSans-115"/>
      </g>
     </g>
    </g>
    <g id="xtick_11">
     <g id="line2d_11">
      <g>
       <use style="stroke:#000000;" x="824.316323" xlink:href="#mf8589c4597" y="424.492"/>
      </g>
     </g>
     <g id="text_11">
      <!-- Eczema -->
      <defs>
       <path d="M 5.515625 54.6875 
L 48.1875 54.6875 
L 48.1875 46.484375 
L 14.40625 7.171875 
L 48.1875 7.171875 
L 48.1875 0 
L 4.296875 0 
L 4.296875 8.203125 
L 38.09375 47.515625 
L 5.515625 47.515625 
z
" id="DejaVuSans-122"/>
      </defs>
      <g transform="translate(826.744573 467.189)rotate(-90)scale(0.088 -0.088)">
       <use xlink:href="#DejaVuSans-69"/>
       <use x="63.183594" xlink:href="#DejaVuSans-99"/>
       <use x="118.164062" xlink:href="#DejaVuSans-122"/>
       <use x="170.654297" xlink:href="#DejaVuSans-101"/>
       <use x="232.177734" xlink:href="#DejaVuSans-109"/>
       <use x="329.589844" xlink:href="#DejaVuSans-97"/>
      </g>
     </g>
    </g>
    <g id="xtick_12">
     <g id="line2d_12">
      <g>
       <use style="stroke:#000000;" x="894.399617" xlink:href="#mf8589c4597" y="424.492"/>
      </g>
     </g>
     <g id="text_12">
      <!-- Hypothyroidism -->
      <g transform="translate(896.827867 502.261125)rotate(-90)scale(0.088 -0.088)">
       <use xlink:href="#DejaVuSans-72"/>
       <use x="75.195312" xlink:href="#DejaVuSans-121"/>
       <use x="134.375" xlink:href="#DejaVuSans-112"/>
       <use x="197.851562" xlink:href="#DejaVuSans-111"/>
       <use x="259.033203" xlink:href="#DejaVuSans-116"/>
       <use x="298.242188" xlink:href="#DejaVuSans-104"/>
       <use x="361.621094" xlink:href="#DejaVuSans-121"/>
       <use x="420.800781" xlink:href="#DejaVuSans-114"/>
       <use x="459.664062" xlink:href="#DejaVuSans-111"/>
       <use x="520.845703" xlink:href="#DejaVuSans-105"/>
       <use x="548.628906" xlink:href="#DejaVuSans-100"/>
       <use x="612.105469" xlink:href="#DejaVuSans-105"/>
       <use x="639.888672" xlink:href="#DejaVuSans-115"/>
       <use x="691.988281" xlink:href="#DejaVuSans-109"/>
      </g>
     </g>
    </g>
   </g>
   <g id="matplotlib.axis_2">
    <g id="ytick_1">
     <g id="line2d_13">
      <defs>
       <path d="M 0 0 
L -4.8 0 
" id="m5534888503" style="stroke:#000000;"/>
      </defs>
      <g>
       <use style="stroke:#000000;" x="51.648" xlink:href="#m5534888503" y="424.492"/>
      </g>
     </g>
     <g id="text_13">
      <!-- 0.00 -->
      <defs>
       <path d="M 31.78125 66.40625 
Q 24.171875 66.40625 20.328125 58.90625 
Q 16.5 51.421875 16.5 36.375 
Q 16.5 21.390625 20.328125 13.890625 
Q 24.171875 6.390625 31.78125 6.390625 
Q 39.453125 6.390625 43.28125 13.890625 
Q 47.125 21.390625 47.125 36.375 
Q 47.125 51.421875 43.28125 58.90625 
Q 39.453125 66.40625 31.78125 66.40625 
z
M 31.78125 74.21875 
Q 44.046875 74.21875 50.515625 64.515625 
Q 56.984375 54.828125 56.984375 36.375 
Q 56.984375 17.96875 50.515625 8.265625 
Q 44.046875 -1.421875 31.78125 -1.421875 
Q 19.53125 -1.421875 13.0625 8.265625 
Q 6.59375 17.96875 6.59375 36.375 
Q 6.59375 54.828125 13.0625 64.515625 
Q 19.53125 74.21875 31.78125 74.21875 
z
" id="DejaVuSans-48"/>
       <path d="M 10.6875 12.40625 
L 21 12.40625 
L 21 0 
L 10.6875 0 
z
" id="DejaVuSans-46"/>
      </defs>
      <g transform="translate(23.75425 427.835312)scale(0.088 -0.088)">
       <use xlink:href="#DejaVuSans-48"/>
       <use x="63.623047" xlink:href="#DejaVuSans-46"/>
       <use x="95.410156" xlink:href="#DejaVuSans-48"/>
       <use x="159.033203" xlink:href="#DejaVuSans-48"/>
      </g>
     </g>
    </g>
    <g id="ytick_2">
     <g id="line2d_14">
      <g>
       <use style="stroke:#000000;" x="51.648" xlink:href="#m5534888503" y="369.02839"/>
      </g>
     </g>
     <g id="text_14">
      <!-- 0.25 -->
      <defs>
       <path d="M 10.796875 72.90625 
L 49.515625 72.90625 
L 49.515625 64.59375 
L 19.828125 64.59375 
L 19.828125 46.734375 
Q 21.96875 47.46875 24.109375 47.828125 
Q 26.265625 48.1875 28.421875 48.1875 
Q 40.625 48.1875 47.75 41.5 
Q 54.890625 34.8125 54.890625 23.390625 
Q 54.890625 11.625 47.5625 5.09375 
Q 40.234375 -1.421875 26.90625 -1.421875 
Q 22.3125 -1.421875 17.546875 -0.640625 
Q 12.796875 0.140625 7.71875 1.703125 
L 7.71875 11.625 
Q 12.109375 9.234375 16.796875 8.0625 
Q 21.484375 6.890625 26.703125 6.890625 
Q 35.15625 6.890625 40.078125 11.328125 
Q 45.015625 15.765625 45.015625 23.390625 
Q 45.015625 31 40.078125 35.4375 
Q 35.15625 39.890625 26.703125 39.890625 
Q 22.75 39.890625 18.8125 39.015625 
Q 14.890625 38.140625 10.796875 36.28125 
z
" id="DejaVuSans-53"/>
      </defs>
      <g transform="translate(23.75425 372.371703)scale(0.088 -0.088)">
       <use xlink:href="#DejaVuSans-48"/>
       <use x="63.623047" xlink:href="#DejaVuSans-46"/>
       <use x="95.410156" xlink:href="#DejaVuSans-50"/>
       <use x="159.033203" xlink:href="#DejaVuSans-53"/>
      </g>
     </g>
    </g>
    <g id="ytick_3">
     <g id="line2d_15">
      <g>
       <use style="stroke:#000000;" x="51.648" xlink:href="#m5534888503" y="313.56478"/>
      </g>
     </g>
     <g id="text_15">
      <!-- 0.50 -->
      <g transform="translate(23.75425 316.908093)scale(0.088 -0.088)">
       <use xlink:href="#DejaVuSans-48"/>
       <use x="63.623047" xlink:href="#DejaVuSans-46"/>
       <use x="95.410156" xlink:href="#DejaVuSans-53"/>
       <use x="159.033203" xlink:href="#DejaVuSans-48"/>
      </g>
     </g>
    </g>
    <g id="ytick_4">
     <g id="line2d_16">
      <g>
       <use style="stroke:#000000;" x="51.648" xlink:href="#m5534888503" y="258.10117"/>
      </g>
     </g>
     <g id="text_16">
      <!-- 0.75 -->
      <defs>
       <path d="M 8.203125 72.90625 
L 55.078125 72.90625 
L 55.078125 68.703125 
L 28.609375 0 
L 18.3125 0 
L 43.21875 64.59375 
L 8.203125 64.59375 
z
" id="DejaVuSans-55"/>
      </defs>
      <g transform="translate(23.75425 261.444483)scale(0.088 -0.088)">
       <use xlink:href="#DejaVuSans-48"/>
       <use x="63.623047" xlink:href="#DejaVuSans-46"/>
       <use x="95.410156" xlink:href="#DejaVuSans-55"/>
       <use x="159.033203" xlink:href="#DejaVuSans-53"/>
      </g>
     </g>
    </g>
    <g id="ytick_5">
     <g id="line2d_17">
      <g>
       <use style="stroke:#000000;" x="51.648" xlink:href="#m5534888503" y="202.63756"/>
      </g>
     </g>
     <g id="text_17">
      <!-- 1.00 -->
      <defs>
       <path d="M 12.40625 8.296875 
L 28.515625 8.296875 
L 28.515625 63.921875 
L 10.984375 60.40625 
L 10.984375 69.390625 
L 28.421875 72.90625 
L 38.28125 72.90625 
L 38.28125 8.296875 
L 54.390625 8.296875 
L 54.390625 0 
L 12.40625 0 
z
" id="DejaVuSans-49"/>
      </defs>
      <g transform="translate(23.75425 205.980873)scale(0.088 -0.088)">
       <use xlink:href="#DejaVuSans-49"/>
       <use x="63.623047" xlink:href="#DejaVuSans-46"/>
       <use x="95.410156" xlink:href="#DejaVuSans-48"/>
       <use x="159.033203" xlink:href="#DejaVuSans-48"/>
      </g>
     </g>
    </g>
    <g id="ytick_6">
     <g id="line2d_18">
      <g>
       <use style="stroke:#000000;" x="51.648" xlink:href="#m5534888503" y="147.17395"/>
      </g>
     </g>
     <g id="text_18">
      <!-- 1.25 -->
      <g transform="translate(23.75425 150.517263)scale(0.088 -0.088)">
       <use xlink:href="#DejaVuSans-49"/>
       <use x="63.623047" xlink:href="#DejaVuSans-46"/>
       <use x="95.410156" xlink:href="#DejaVuSans-50"/>
       <use x="159.033203" xlink:href="#DejaVuSans-53"/>
      </g>
     </g>
    </g>
    <g id="ytick_7">
     <g id="line2d_19">
      <g>
       <use style="stroke:#000000;" x="51.648" xlink:href="#m5534888503" y="91.710341"/>
      </g>
     </g>
     <g id="text_19">
      <!-- 1.50 -->
      <g transform="translate(23.75425 95.053653)scale(0.088 -0.088)">
       <use xlink:href="#DejaVuSans-49"/>
       <use x="63.623047" xlink:href="#DejaVuSans-46"/>
       <use x="95.410156" xlink:href="#DejaVuSans-53"/>
       <use x="159.033203" xlink:href="#DejaVuSans-48"/>
      </g>
     </g>
    </g>
    <g id="ytick_8">
     <g id="line2d_20">
      <g>
       <use style="stroke:#000000;" x="51.648" xlink:href="#m5534888503" y="36.246731"/>
      </g>
     </g>
     <g id="text_20">
      <!-- 1.75 -->
      <g transform="translate(23.75425 39.590043)scale(0.088 -0.088)">
       <use xlink:href="#DejaVuSans-49"/>
       <use x="63.623047" xlink:href="#DejaVuSans-46"/>
       <use x="95.410156" xlink:href="#DejaVuSans-55"/>
       <use x="159.033203" xlink:href="#DejaVuSans-53"/>
      </g>
     </g>
    </g>
    <g id="text_21">
     <!-- Estimated Intercept -->
     <g transform="translate(17.75775 271.484)rotate(-90)scale(0.096 -0.096)">
      <use xlink:href="#DejaVuSans-69"/>
      <use x="63.183594" xlink:href="#DejaVuSans-115"/>
      <use x="115.283203" xlink:href="#DejaVuSans-116"/>
      <use x="154.492188" xlink:href="#DejaVuSans-105"/>
      <use x="182.275391" xlink:href="#DejaVuSans-109"/>
      <use x="279.6875" xlink:href="#DejaVuSans-97"/>
      <use x="340.966797" xlink:href="#DejaVuSans-116"/>
      <use x="380.175781" xlink:href="#DejaVuSans-101"/>
      <use x="441.699219" xlink:href="#DejaVuSans-100"/>
      <use x="505.175781" xlink:href="#DejaVuSans-32"/>
      <use x="536.962891" xlink:href="#DejaVuSans-73"/>
      <use x="566.455078" xlink:href="#DejaVuSans-110"/>
      <use x="629.833984" xlink:href="#DejaVuSans-116"/>
      <use x="669.042969" xlink:href="#DejaVuSans-101"/>
      <use x="730.566406" xlink:href="#DejaVuSans-114"/>
      <use x="769.429688" xlink:href="#DejaVuSans-99"/>
      <use x="824.410156" xlink:href="#DejaVuSans-101"/>
      <use x="885.933594" xlink:href="#DejaVuSans-112"/>
      <use x="949.410156" xlink:href="#DejaVuSans-116"/>
     </g>
    </g>
   </g>
   <g id="LineCollection_1">
    <path clip-path="url(#pe3ea25c4a3)" d="M 97.202141 198.228232 
L 97.202141 191.03003 
" style="fill:none;stroke:#000000;"/>
    <path clip-path="url(#pe3ea25c4a3)" d="M 167.285436 195.902483 
L 167.285436 189.383154 
" style="fill:none;stroke:#000000;"/>
    <path clip-path="url(#pe3ea25c4a3)" d="M 237.368731 84.094823 
L 237.368731 44.106107 
" style="fill:none;stroke:#000000;"/>
    <path clip-path="url(#pe3ea25c4a3)" d="M 307.452025 168.433451 
L 307.452025 160.040907 
" style="fill:none;stroke:#000000;"/>
    <path clip-path="url(#pe3ea25c4a3)" d="M 377.53532 170.396238 
L 377.53532 158.201049 
" style="fill:none;stroke:#000000;"/>
    <path clip-path="url(#pe3ea25c4a3)" d="M 447.618614 163.749591 
L 447.618614 154.31805 
" style="fill:none;stroke:#000000;"/>
    <path clip-path="url(#pe3ea25c4a3)" d="M 517.701909 188.211779 
L 517.701909 174.812806 
" style="fill:none;stroke:#000000;"/>
    <path clip-path="url(#pe3ea25c4a3)" d="M 587.785203 191.928611 
L 587.785203 184.811758 
" style="fill:none;stroke:#000000;"/>
    <path clip-path="url(#pe3ea25c4a3)" d="M 657.868498 189.850377 
L 657.868498 184.221687 
" style="fill:none;stroke:#000000;"/>
    <path clip-path="url(#pe3ea25c4a3)" d="M 727.951793 202.11396 
L 727.951793 198.561299 
" style="fill:none;stroke:#000000;"/>
    <path clip-path="url(#pe3ea25c4a3)" d="M 798.035087 185.286058 
L 798.035087 178.634622 
" style="fill:none;stroke:#000000;"/>
    <path clip-path="url(#pe3ea25c4a3)" d="M 868.118382 191.122955 
L 868.118382 184.721912 
" style="fill:none;stroke:#000000;"/>
   </g>
   <g id="LineCollection_2">
    <path clip-path="url(#pe3ea25c4a3)" d="M 105.962553 197.232718 
L 105.962553 190.741939 
" style="fill:none;stroke:#000000;"/>
    <path clip-path="url(#pe3ea25c4a3)" d="M 176.045848 196.156694 
L 176.045848 189.664341 
" style="fill:none;stroke:#000000;"/>
    <path clip-path="url(#pe3ea25c4a3)" d="M 246.129142 89.966082 
L 246.129142 52.013029 
" style="fill:none;stroke:#000000;"/>
    <path clip-path="url(#pe3ea25c4a3)" d="M 316.212437 169.425287 
L 316.212437 161.245254 
" style="fill:none;stroke:#000000;"/>
    <path clip-path="url(#pe3ea25c4a3)" d="M 386.295732 171.56122 
L 386.295732 160.085666 
" style="fill:none;stroke:#000000;"/>
    <path clip-path="url(#pe3ea25c4a3)" d="M 456.379026 165.711018 
L 456.379026 156.644013 
" style="fill:none;stroke:#000000;"/>
    <path clip-path="url(#pe3ea25c4a3)" d="M 526.462321 188.628883 
L 526.462321 175.200222 
" style="fill:none;stroke:#000000;"/>
    <path clip-path="url(#pe3ea25c4a3)" d="M 596.545615 191.934255 
L 596.545615 185.240493 
" style="fill:none;stroke:#000000;"/>
    <path clip-path="url(#pe3ea25c4a3)" d="M 666.62891 190.624987 
L 666.62891 185.457906 
" style="fill:none;stroke:#000000;"/>
    <path clip-path="url(#pe3ea25c4a3)" d="M 736.712204 201.947835 
L 736.712204 198.467118 
" style="fill:none;stroke:#000000;"/>
    <path clip-path="url(#pe3ea25c4a3)" d="M 806.795499 185.632207 
L 806.795499 179.172477 
" style="fill:none;stroke:#000000;"/>
    <path clip-path="url(#pe3ea25c4a3)" d="M 876.878793 192.441082 
L 876.878793 186.297161 
" style="fill:none;stroke:#000000;"/>
   </g>
   <g id="LineCollection_3">
    <path clip-path="url(#pe3ea25c4a3)" d="M 114.722965 187.585041 
L 114.722965 182.491757 
" style="fill:none;stroke:#000000;"/>
    <path clip-path="url(#pe3ea25c4a3)" d="M 184.80626 195.907874 
L 184.80626 190.816886 
" style="fill:none;stroke:#000000;"/>
    <path clip-path="url(#pe3ea25c4a3)" d="M 254.889554 68.443632 
L 254.889554 42.659619 
" style="fill:none;stroke:#000000;"/>
    <path clip-path="url(#pe3ea25c4a3)" d="M 324.972849 155.488718 
L 324.972849 148.361201 
" style="fill:none;stroke:#000000;"/>
    <path clip-path="url(#pe3ea25c4a3)" d="M 395.056143 167.051993 
L 395.056143 157.833268 
" style="fill:none;stroke:#000000;"/>
    <path clip-path="url(#pe3ea25c4a3)" d="M 465.139438 161.563454 
L 465.139438 153.670199 
" style="fill:none;stroke:#000000;"/>
    <path clip-path="url(#pe3ea25c4a3)" d="M 535.222732 189.990389 
L 535.222732 179.811768 
" style="fill:none;stroke:#000000;"/>
    <path clip-path="url(#pe3ea25c4a3)" d="M 605.306027 193.309717 
L 605.306027 188.270174 
" style="fill:none;stroke:#000000;"/>
    <path clip-path="url(#pe3ea25c4a3)" d="M 675.389322 191.448806 
L 675.389322 186.530564 
" style="fill:none;stroke:#000000;"/>
    <path clip-path="url(#pe3ea25c4a3)" d="M 745.472616 204.642023 
L 745.472616 201.681113 
" style="fill:none;stroke:#000000;"/>
    <path clip-path="url(#pe3ea25c4a3)" d="M 815.555911 183.169681 
L 815.555911 177.989285 
" style="fill:none;stroke:#000000;"/>
    <path clip-path="url(#pe3ea25c4a3)" d="M 885.639205 193.712848 
L 885.639205 189.201887 
" style="fill:none;stroke:#000000;"/>
   </g>
   <g id="LineCollection_4">
    <path clip-path="url(#pe3ea25c4a3)" d="M 123.483377 196.941077 
L 123.483377 189.399221 
" style="fill:none;stroke:#000000;"/>
    <path clip-path="url(#pe3ea25c4a3)" d="M 193.566671 196.012443 
L 193.566671 189.7609 
" style="fill:none;stroke:#000000;"/>
    <path clip-path="url(#pe3ea25c4a3)" d="M 263.649966 114.619572 
L 263.649966 87.835561 
" style="fill:none;stroke:#000000;"/>
    <path clip-path="url(#pe3ea25c4a3)" d="M 333.733261 177.289845 
L 333.733261 169.337979 
" style="fill:none;stroke:#000000;"/>
    <path clip-path="url(#pe3ea25c4a3)" d="M 403.816555 188.252747 
L 403.816555 179.84474 
" style="fill:none;stroke:#000000;"/>
    <path clip-path="url(#pe3ea25c4a3)" d="M 473.89985 181.990609 
L 473.89985 173.508375 
" style="fill:none;stroke:#000000;"/>
    <path clip-path="url(#pe3ea25c4a3)" d="M 543.983144 194.026003 
L 543.983144 184.636553 
" style="fill:none;stroke:#000000;"/>
    <path clip-path="url(#pe3ea25c4a3)" d="M 614.066439 197.819937 
L 614.066439 191.350314 
" style="fill:none;stroke:#000000;"/>
    <path clip-path="url(#pe3ea25c4a3)" d="M 684.149733 197.651943 
L 684.149733 191.815177 
" style="fill:none;stroke:#000000;"/>
    <path clip-path="url(#pe3ea25c4a3)" d="M 754.233028 204.331248 
L 754.233028 199.99088 
" style="fill:none;stroke:#000000;"/>
    <path clip-path="url(#pe3ea25c4a3)" d="M 824.316323 195.515963 
L 824.316323 189.462009 
" style="fill:none;stroke:#000000;"/>
    <path clip-path="url(#pe3ea25c4a3)" d="M 894.399617 198.228838 
L 894.399617 191.828502 
" style="fill:none;stroke:#000000;"/>
   </g>
   <g id="LineCollection_5">
    <path clip-path="url(#pe3ea25c4a3)" d="M 132.243789 194.786832 
L 132.243789 187.47674 
" style="fill:none;stroke:#000000;"/>
    <path clip-path="url(#pe3ea25c4a3)" d="M 202.327083 195.548998 
L 202.327083 189.28501 
" style="fill:none;stroke:#000000;"/>
    <path clip-path="url(#pe3ea25c4a3)" d="M 272.410378 114.21329 
L 272.410378 87.893848 
" style="fill:none;stroke:#000000;"/>
    <path clip-path="url(#pe3ea25c4a3)" d="M 342.493672 173.401073 
L 342.493672 165.735737 
" style="fill:none;stroke:#000000;"/>
    <path clip-path="url(#pe3ea25c4a3)" d="M 412.576967 186.340434 
L 412.576967 178.100261 
" style="fill:none;stroke:#000000;"/>
    <path clip-path="url(#pe3ea25c4a3)" d="M 482.660262 180.141868 
L 482.660262 171.981337 
" style="fill:none;stroke:#000000;"/>
    <path clip-path="url(#pe3ea25c4a3)" d="M 552.743556 193.198161 
L 552.743556 183.482219 
" style="fill:none;stroke:#000000;"/>
    <path clip-path="url(#pe3ea25c4a3)" d="M 622.826851 196.353954 
L 622.826851 190.43005 
" style="fill:none;stroke:#000000;"/>
    <path clip-path="url(#pe3ea25c4a3)" d="M 692.910145 197.045563 
L 692.910145 191.461588 
" style="fill:none;stroke:#000000;"/>
    <path clip-path="url(#pe3ea25c4a3)" d="M 762.99344 203.87559 
L 762.99344 199.667241 
" style="fill:none;stroke:#000000;"/>
    <path clip-path="url(#pe3ea25c4a3)" d="M 833.076734 194.022162 
L 833.076734 188.402345 
" style="fill:none;stroke:#000000;"/>
    <path clip-path="url(#pe3ea25c4a3)" d="M 903.160029 198.150326 
L 903.160029 192.037717 
" style="fill:none;stroke:#000000;"/>
   </g>
   <g id="LineCollection_6">
    <path clip-path="url(#pe3ea25c4a3)" d="M 141.004201 190.4787 
L 141.004201 185.279493 
" style="fill:none;stroke:#000000;"/>
    <path clip-path="url(#pe3ea25c4a3)" d="M 211.087495 196.680856 
L 211.087495 191.76083 
" style="fill:none;stroke:#000000;"/>
    <path clip-path="url(#pe3ea25c4a3)" d="M 281.17079 109.581818 
L 281.17079 91.74289 
" style="fill:none;stroke:#000000;"/>
    <path clip-path="url(#pe3ea25c4a3)" d="M 351.254084 168.554336 
L 351.254084 161.099193 
" style="fill:none;stroke:#000000;"/>
    <path clip-path="url(#pe3ea25c4a3)" d="M 421.337379 184.332835 
L 421.337379 176.481306 
" style="fill:none;stroke:#000000;"/>
    <path clip-path="url(#pe3ea25c4a3)" d="M 491.420673 177.059033 
L 491.420673 168.814619 
" style="fill:none;stroke:#000000;"/>
    <path clip-path="url(#pe3ea25c4a3)" d="M 561.503968 191.166377 
L 561.503968 181.818377 
" style="fill:none;stroke:#000000;"/>
    <path clip-path="url(#pe3ea25c4a3)" d="M 631.587263 197.318386 
L 631.587263 192.430481 
" style="fill:none;stroke:#000000;"/>
    <path clip-path="url(#pe3ea25c4a3)" d="M 701.670557 196.210615 
L 701.670557 191.014849 
" style="fill:none;stroke:#000000;"/>
    <path clip-path="url(#pe3ea25c4a3)" d="M 771.753852 206.265568 
L 771.753852 202.638553 
" style="fill:none;stroke:#000000;"/>
    <path clip-path="url(#pe3ea25c4a3)" d="M 841.837146 191.4886 
L 841.837146 185.913447 
" style="fill:none;stroke:#000000;"/>
    <path clip-path="url(#pe3ea25c4a3)" d="M 911.920441 198.535613 
L 911.920441 193.349136 
" style="fill:none;stroke:#000000;"/>
   </g>
   <g id="line2d_21">
    <defs>
     <path d="M 2 0 
L -2 -0 
" id="m245eb03a8f" style="stroke:#000000;"/>
    </defs>
    <g clip-path="url(#pe3ea25c4a3)">
     <use style="stroke:#000000;" x="97.202141" xlink:href="#m245eb03a8f" y="198.228232"/>
     <use style="stroke:#000000;" x="167.285436" xlink:href="#m245eb03a8f" y="195.902483"/>
     <use style="stroke:#000000;" x="237.368731" xlink:href="#m245eb03a8f" y="84.094823"/>
     <use style="stroke:#000000;" x="307.452025" xlink:href="#m245eb03a8f" y="168.433451"/>
     <use style="stroke:#000000;" x="377.53532" xlink:href="#m245eb03a8f" y="170.396238"/>
     <use style="stroke:#000000;" x="447.618614" xlink:href="#m245eb03a8f" y="163.749591"/>
     <use style="stroke:#000000;" x="517.701909" xlink:href="#m245eb03a8f" y="188.211779"/>
     <use style="stroke:#000000;" x="587.785203" xlink:href="#m245eb03a8f" y="191.928611"/>
     <use style="stroke:#000000;" x="657.868498" xlink:href="#m245eb03a8f" y="189.850377"/>
     <use style="stroke:#000000;" x="727.951793" xlink:href="#m245eb03a8f" y="202.11396"/>
     <use style="stroke:#000000;" x="798.035087" xlink:href="#m245eb03a8f" y="185.286058"/>
     <use style="stroke:#000000;" x="868.118382" xlink:href="#m245eb03a8f" y="191.122955"/>
    </g>
   </g>
   <g id="line2d_22">
    <g clip-path="url(#pe3ea25c4a3)">
     <use style="stroke:#000000;" x="97.202141" xlink:href="#m245eb03a8f" y="191.03003"/>
     <use style="stroke:#000000;" x="167.285436" xlink:href="#m245eb03a8f" y="189.383154"/>
     <use style="stroke:#000000;" x="237.368731" xlink:href="#m245eb03a8f" y="44.106107"/>
     <use style="stroke:#000000;" x="307.452025" xlink:href="#m245eb03a8f" y="160.040907"/>
     <use style="stroke:#000000;" x="377.53532" xlink:href="#m245eb03a8f" y="158.201049"/>
     <use style="stroke:#000000;" x="447.618614" xlink:href="#m245eb03a8f" y="154.31805"/>
     <use style="stroke:#000000;" x="517.701909" xlink:href="#m245eb03a8f" y="174.812806"/>
     <use style="stroke:#000000;" x="587.785203" xlink:href="#m245eb03a8f" y="184.811758"/>
     <use style="stroke:#000000;" x="657.868498" xlink:href="#m245eb03a8f" y="184.221687"/>
     <use style="stroke:#000000;" x="727.951793" xlink:href="#m245eb03a8f" y="198.561299"/>
     <use style="stroke:#000000;" x="798.035087" xlink:href="#m245eb03a8f" y="178.634622"/>
     <use style="stroke:#000000;" x="868.118382" xlink:href="#m245eb03a8f" y="184.721912"/>
    </g>
   </g>
   <g id="line2d_23">
    <g clip-path="url(#pe3ea25c4a3)">
     <use style="stroke:#000000;" x="105.962553" xlink:href="#m245eb03a8f" y="197.232718"/>
     <use style="stroke:#000000;" x="176.045848" xlink:href="#m245eb03a8f" y="196.156694"/>
     <use style="stroke:#000000;" x="246.129142" xlink:href="#m245eb03a8f" y="89.966082"/>
     <use style="stroke:#000000;" x="316.212437" xlink:href="#m245eb03a8f" y="169.425287"/>
     <use style="stroke:#000000;" x="386.295732" xlink:href="#m245eb03a8f" y="171.56122"/>
     <use style="stroke:#000000;" x="456.379026" xlink:href="#m245eb03a8f" y="165.711018"/>
     <use style="stroke:#000000;" x="526.462321" xlink:href="#m245eb03a8f" y="188.628883"/>
     <use style="stroke:#000000;" x="596.545615" xlink:href="#m245eb03a8f" y="191.934255"/>
     <use style="stroke:#000000;" x="666.62891" xlink:href="#m245eb03a8f" y="190.624987"/>
     <use style="stroke:#000000;" x="736.712204" xlink:href="#m245eb03a8f" y="201.947835"/>
     <use style="stroke:#000000;" x="806.795499" xlink:href="#m245eb03a8f" y="185.632207"/>
     <use style="stroke:#000000;" x="876.878793" xlink:href="#m245eb03a8f" y="192.441082"/>
    </g>
   </g>
   <g id="line2d_24">
    <g clip-path="url(#pe3ea25c4a3)">
     <use style="stroke:#000000;" x="105.962553" xlink:href="#m245eb03a8f" y="190.741939"/>
     <use style="stroke:#000000;" x="176.045848" xlink:href="#m245eb03a8f" y="189.664341"/>
     <use style="stroke:#000000;" x="246.129142" xlink:href="#m245eb03a8f" y="52.013029"/>
     <use style="stroke:#000000;" x="316.212437" xlink:href="#m245eb03a8f" y="161.245254"/>
     <use style="stroke:#000000;" x="386.295732" xlink:href="#m245eb03a8f" y="160.085666"/>
     <use style="stroke:#000000;" x="456.379026" xlink:href="#m245eb03a8f" y="156.644013"/>
     <use style="stroke:#000000;" x="526.462321" xlink:href="#m245eb03a8f" y="175.200222"/>
     <use style="stroke:#000000;" x="596.545615" xlink:href="#m245eb03a8f" y="185.240493"/>
     <use style="stroke:#000000;" x="666.62891" xlink:href="#m245eb03a8f" y="185.457906"/>
     <use style="stroke:#000000;" x="736.712204" xlink:href="#m245eb03a8f" y="198.467118"/>
     <use style="stroke:#000000;" x="806.795499" xlink:href="#m245eb03a8f" y="179.172477"/>
     <use style="stroke:#000000;" x="876.878793" xlink:href="#m245eb03a8f" y="186.297161"/>
    </g>
   </g>
   <g id="line2d_25">
    <g clip-path="url(#pe3ea25c4a3)">
     <use style="stroke:#000000;" x="114.722965" xlink:href="#m245eb03a8f" y="187.585041"/>
     <use style="stroke:#000000;" x="184.80626" xlink:href="#m245eb03a8f" y="195.907874"/>
     <use style="stroke:#000000;" x="254.889554" xlink:href="#m245eb03a8f" y="68.443632"/>
     <use style="stroke:#000000;" x="324.972849" xlink:href="#m245eb03a8f" y="155.488718"/>
     <use style="stroke:#000000;" x="395.056143" xlink:href="#m245eb03a8f" y="167.051993"/>
     <use style="stroke:#000000;" x="465.139438" xlink:href="#m245eb03a8f" y="161.563454"/>
     <use style="stroke:#000000;" x="535.222732" xlink:href="#m245eb03a8f" y="189.990389"/>
     <use style="stroke:#000000;" x="605.306027" xlink:href="#m245eb03a8f" y="193.309717"/>
     <use style="stroke:#000000;" x="675.389322" xlink:href="#m245eb03a8f" y="191.448806"/>
     <use style="stroke:#000000;" x="745.472616" xlink:href="#m245eb03a8f" y="204.642023"/>
     <use style="stroke:#000000;" x="815.555911" xlink:href="#m245eb03a8f" y="183.169681"/>
     <use style="stroke:#000000;" x="885.639205" xlink:href="#m245eb03a8f" y="193.712848"/>
    </g>
   </g>
   <g id="line2d_26">
    <g clip-path="url(#pe3ea25c4a3)">
     <use style="stroke:#000000;" x="114.722965" xlink:href="#m245eb03a8f" y="182.491757"/>
     <use style="stroke:#000000;" x="184.80626" xlink:href="#m245eb03a8f" y="190.816886"/>
     <use style="stroke:#000000;" x="254.889554" xlink:href="#m245eb03a8f" y="42.659619"/>
     <use style="stroke:#000000;" x="324.972849" xlink:href="#m245eb03a8f" y="148.361201"/>
     <use style="stroke:#000000;" x="395.056143" xlink:href="#m245eb03a8f" y="157.833268"/>
     <use style="stroke:#000000;" x="465.139438" xlink:href="#m245eb03a8f" y="153.670199"/>
     <use style="stroke:#000000;" x="535.222732" xlink:href="#m245eb03a8f" y="179.811768"/>
     <use style="stroke:#000000;" x="605.306027" xlink:href="#m245eb03a8f" y="188.270174"/>
     <use style="stroke:#000000;" x="675.389322" xlink:href="#m245eb03a8f" y="186.530564"/>
     <use style="stroke:#000000;" x="745.472616" xlink:href="#m245eb03a8f" y="201.681113"/>
     <use style="stroke:#000000;" x="815.555911" xlink:href="#m245eb03a8f" y="177.989285"/>
     <use style="stroke:#000000;" x="885.639205" xlink:href="#m245eb03a8f" y="189.201887"/>
    </g>
   </g>
   <g id="line2d_27">
    <g clip-path="url(#pe3ea25c4a3)">
     <use style="stroke:#000000;" x="123.483377" xlink:href="#m245eb03a8f" y="196.941077"/>
     <use style="stroke:#000000;" x="193.566671" xlink:href="#m245eb03a8f" y="196.012443"/>
     <use style="stroke:#000000;" x="263.649966" xlink:href="#m245eb03a8f" y="114.619572"/>
     <use style="stroke:#000000;" x="333.733261" xlink:href="#m245eb03a8f" y="177.289845"/>
     <use style="stroke:#000000;" x="403.816555" xlink:href="#m245eb03a8f" y="188.252747"/>
     <use style="stroke:#000000;" x="473.89985" xlink:href="#m245eb03a8f" y="181.990609"/>
     <use style="stroke:#000000;" x="543.983144" xlink:href="#m245eb03a8f" y="194.026003"/>
     <use style="stroke:#000000;" x="614.066439" xlink:href="#m245eb03a8f" y="197.819937"/>
     <use style="stroke:#000000;" x="684.149733" xlink:href="#m245eb03a8f" y="197.651943"/>
     <use style="stroke:#000000;" x="754.233028" xlink:href="#m245eb03a8f" y="204.331248"/>
     <use style="stroke:#000000;" x="824.316323" xlink:href="#m245eb03a8f" y="195.515963"/>
     <use style="stroke:#000000;" x="894.399617" xlink:href="#m245eb03a8f" y="198.228838"/>
    </g>
   </g>
   <g id="line2d_28">
    <g clip-path="url(#pe3ea25c4a3)">
     <use style="stroke:#000000;" x="123.483377" xlink:href="#m245eb03a8f" y="189.399221"/>
     <use style="stroke:#000000;" x="193.566671" xlink:href="#m245eb03a8f" y="189.7609"/>
     <use style="stroke:#000000;" x="263.649966" xlink:href="#m245eb03a8f" y="87.835561"/>
     <use style="stroke:#000000;" x="333.733261" xlink:href="#m245eb03a8f" y="169.337979"/>
     <use style="stroke:#000000;" x="403.816555" xlink:href="#m245eb03a8f" y="179.84474"/>
     <use style="stroke:#000000;" x="473.89985" xlink:href="#m245eb03a8f" y="173.508375"/>
     <use style="stroke:#000000;" x="543.983144" xlink:href="#m245eb03a8f" y="184.636553"/>
     <use style="stroke:#000000;" x="614.066439" xlink:href="#m245eb03a8f" y="191.350314"/>
     <use style="stroke:#000000;" x="684.149733" xlink:href="#m245eb03a8f" y="191.815177"/>
     <use style="stroke:#000000;" x="754.233028" xlink:href="#m245eb03a8f" y="199.99088"/>
     <use style="stroke:#000000;" x="824.316323" xlink:href="#m245eb03a8f" y="189.462009"/>
     <use style="stroke:#000000;" x="894.399617" xlink:href="#m245eb03a8f" y="191.828502"/>
    </g>
   </g>
   <g id="line2d_29">
    <g clip-path="url(#pe3ea25c4a3)">
     <use style="stroke:#000000;" x="132.243789" xlink:href="#m245eb03a8f" y="194.786832"/>
     <use style="stroke:#000000;" x="202.327083" xlink:href="#m245eb03a8f" y="195.548998"/>
     <use style="stroke:#000000;" x="272.410378" xlink:href="#m245eb03a8f" y="114.21329"/>
     <use style="stroke:#000000;" x="342.493672" xlink:href="#m245eb03a8f" y="173.401073"/>
     <use style="stroke:#000000;" x="412.576967" xlink:href="#m245eb03a8f" y="186.340434"/>
     <use style="stroke:#000000;" x="482.660262" xlink:href="#m245eb03a8f" y="180.141868"/>
     <use style="stroke:#000000;" x="552.743556" xlink:href="#m245eb03a8f" y="193.198161"/>
     <use style="stroke:#000000;" x="622.826851" xlink:href="#m245eb03a8f" y="196.353954"/>
     <use style="stroke:#000000;" x="692.910145" xlink:href="#m245eb03a8f" y="197.045563"/>
     <use style="stroke:#000000;" x="762.99344" xlink:href="#m245eb03a8f" y="203.87559"/>
     <use style="stroke:#000000;" x="833.076734" xlink:href="#m245eb03a8f" y="194.022162"/>
     <use style="stroke:#000000;" x="903.160029" xlink:href="#m245eb03a8f" y="198.150326"/>
    </g>
   </g>
   <g id="line2d_30">
    <g clip-path="url(#pe3ea25c4a3)">
     <use style="stroke:#000000;" x="132.243789" xlink:href="#m245eb03a8f" y="187.47674"/>
     <use style="stroke:#000000;" x="202.327083" xlink:href="#m245eb03a8f" y="189.28501"/>
     <use style="stroke:#000000;" x="272.410378" xlink:href="#m245eb03a8f" y="87.893848"/>
     <use style="stroke:#000000;" x="342.493672" xlink:href="#m245eb03a8f" y="165.735737"/>
     <use style="stroke:#000000;" x="412.576967" xlink:href="#m245eb03a8f" y="178.100261"/>
     <use style="stroke:#000000;" x="482.660262" xlink:href="#m245eb03a8f" y="171.981337"/>
     <use style="stroke:#000000;" x="552.743556" xlink:href="#m245eb03a8f" y="183.482219"/>
     <use style="stroke:#000000;" x="622.826851" xlink:href="#m245eb03a8f" y="190.43005"/>
     <use style="stroke:#000000;" x="692.910145" xlink:href="#m245eb03a8f" y="191.461588"/>
     <use style="stroke:#000000;" x="762.99344" xlink:href="#m245eb03a8f" y="199.667241"/>
     <use style="stroke:#000000;" x="833.076734" xlink:href="#m245eb03a8f" y="188.402345"/>
     <use style="stroke:#000000;" x="903.160029" xlink:href="#m245eb03a8f" y="192.037717"/>
    </g>
   </g>
   <g id="line2d_31">
    <g clip-path="url(#pe3ea25c4a3)">
     <use style="stroke:#000000;" x="141.004201" xlink:href="#m245eb03a8f" y="190.4787"/>
     <use style="stroke:#000000;" x="211.087495" xlink:href="#m245eb03a8f" y="196.680856"/>
     <use style="stroke:#000000;" x="281.17079" xlink:href="#m245eb03a8f" y="109.581818"/>
     <use style="stroke:#000000;" x="351.254084" xlink:href="#m245eb03a8f" y="168.554336"/>
     <use style="stroke:#000000;" x="421.337379" xlink:href="#m245eb03a8f" y="184.332835"/>
     <use style="stroke:#000000;" x="491.420673" xlink:href="#m245eb03a8f" y="177.059033"/>
     <use style="stroke:#000000;" x="561.503968" xlink:href="#m245eb03a8f" y="191.166377"/>
     <use style="stroke:#000000;" x="631.587263" xlink:href="#m245eb03a8f" y="197.318386"/>
     <use style="stroke:#000000;" x="701.670557" xlink:href="#m245eb03a8f" y="196.210615"/>
     <use style="stroke:#000000;" x="771.753852" xlink:href="#m245eb03a8f" y="206.265568"/>
     <use style="stroke:#000000;" x="841.837146" xlink:href="#m245eb03a8f" y="191.4886"/>
     <use style="stroke:#000000;" x="911.920441" xlink:href="#m245eb03a8f" y="198.535613"/>
    </g>
   </g>
   <g id="line2d_32">
    <g clip-path="url(#pe3ea25c4a3)">
     <use style="stroke:#000000;" x="141.004201" xlink:href="#m245eb03a8f" y="185.279493"/>
     <use style="stroke:#000000;" x="211.087495" xlink:href="#m245eb03a8f" y="191.76083"/>
     <use style="stroke:#000000;" x="281.17079" xlink:href="#m245eb03a8f" y="91.74289"/>
     <use style="stroke:#000000;" x="351.254084" xlink:href="#m245eb03a8f" y="161.099193"/>
     <use style="stroke:#000000;" x="421.337379" xlink:href="#m245eb03a8f" y="176.481306"/>
     <use style="stroke:#000000;" x="491.420673" xlink:href="#m245eb03a8f" y="168.814619"/>
     <use style="stroke:#000000;" x="561.503968" xlink:href="#m245eb03a8f" y="181.818377"/>
     <use style="stroke:#000000;" x="631.587263" xlink:href="#m245eb03a8f" y="192.430481"/>
     <use style="stroke:#000000;" x="701.670557" xlink:href="#m245eb03a8f" y="191.014849"/>
     <use style="stroke:#000000;" x="771.753852" xlink:href="#m245eb03a8f" y="202.638553"/>
     <use style="stroke:#000000;" x="841.837146" xlink:href="#m245eb03a8f" y="185.913447"/>
     <use style="stroke:#000000;" x="911.920441" xlink:href="#m245eb03a8f" y="193.349136"/>
    </g>
   </g>
   <g id="patch_75">
    <path d="M 51.648 424.492 
L 51.648 23.568 
" style="fill:none;stroke:#000000;stroke-linecap:square;stroke-linejoin:miter;"/>
   </g>
   <g id="patch_76">
    <path d="M 957.474582 424.492 
L 957.474582 23.568 
" style="fill:none;stroke:#000000;stroke-linecap:square;stroke-linejoin:miter;"/>
   </g>
   <g id="patch_77">
    <path d="M 51.648 424.492 
L 957.474582 424.492 
" style="fill:none;stroke:#000000;stroke-linecap:square;stroke-linejoin:miter;"/>
   </g>
   <g id="patch_78">
    <path d="M 51.648 23.568 
L 957.474582 23.568 
" style="fill:none;stroke:#000000;stroke-linecap:square;stroke-linejoin:miter;"/>
   </g>
   <g id="text_22">
    <!-- Intercept -->
    <g transform="translate(482.881041 17.568)scale(0.096 -0.096)">
     <use xlink:href="#DejaVuSans-73"/>
     <use x="29.492188" xlink:href="#DejaVuSans-110"/>
     <use x="92.871094" xlink:href="#DejaVuSans-116"/>
     <use x="132.080078" xlink:href="#DejaVuSans-101"/>
     <use x="193.603516" xlink:href="#DejaVuSans-114"/>
     <use x="232.466797" xlink:href="#DejaVuSans-99"/>
     <use x="287.447266" xlink:href="#DejaVuSans-101"/>
     <use x="348.970703" xlink:href="#DejaVuSans-112"/>
     <use x="412.447266" xlink:href="#DejaVuSans-116"/>
    </g>
   </g>
   <g id="legend_1">
    <g id="patch_79">
     <path d="M 974.452848 192.719875 
L 992.052848 192.719875 
L 992.052848 186.559875 
L 974.452848 186.559875 
z
" style="fill:#f28e2b;"/>
    </g>
    <g id="text_23">
     <!-- $r^2 (\alpha=1, \theta=0)$ -->
     <defs>
      <path d="M 44.578125 46.390625 
Q 43.21875 47.125 41.453125 47.515625 
Q 39.703125 47.90625 37.703125 47.90625 
Q 30.515625 47.90625 25.140625 42.453125 
Q 19.78125 37.015625 18.015625 27.875 
L 12.5 0 
L 3.515625 0 
L 14.203125 54.6875 
L 23.1875 54.6875 
L 21.484375 46.1875 
Q 25.046875 50.921875 30 53.453125 
Q 34.96875 56 40.578125 56 
Q 42.046875 56 43.453125 55.828125 
Q 44.875 55.671875 46.296875 55.28125 
z
" id="DejaVuSans-Oblique-114"/>
      <path d="M 31 75.875 
Q 24.46875 64.65625 21.28125 53.65625 
Q 18.109375 42.671875 18.109375 31.390625 
Q 18.109375 20.125 21.3125 9.0625 
Q 24.515625 -2 31 -13.1875 
L 23.1875 -13.1875 
Q 15.875 -1.703125 12.234375 9.375 
Q 8.59375 20.453125 8.59375 31.390625 
Q 8.59375 42.28125 12.203125 53.3125 
Q 15.828125 64.359375 23.1875 75.875 
z
" id="DejaVuSans-40"/>
      <path d="M 40.921875 25.4375 
L 40.96875 36.71875 
Q 41.015625 48.25 32.328125 48.296875 
Q 25.828125 48.34375 21.78125 42.921875 
Q 16.703125 36.234375 14.984375 27.296875 
Q 12.890625 16.546875 15.53125 11.421875 
Q 18.265625 6.203125 24.171875 6.203125 
Q 30.71875 6.203125 36.234375 16.609375 
z
M 33.84375 55.90625 
Q 49.078125 56.15625 48.875 40.375 
Q 48.875 40.375 56.5 54.6875 
L 64.5 54.6875 
L 48.734375 25.046875 
L 48.578125 14.359375 
Q 48.578125 11.96875 49.90625 9.96875 
Q 51.421875 7.625 52.984375 7.625 
L 57.328125 7.625 
L 55.859375 0 
L 50.4375 0 
Q 45.84375 0 42.53125 4.109375 
Q 40.96875 6.15625 40.921875 10.453125 
Q 37.75 5.21875 32.28125 0.78125 
Q 29.6875 -1.265625 22.703125 -1.21875 
Q 11.28125 -1.125 7.125 6.203125 
Q 2.875 13.8125 5.515625 27.296875 
Q 8.34375 41.796875 15.765625 48.390625 
Q 24.125 55.765625 33.84375 55.90625 
z
" id="DejaVuSans-Oblique-945"/>
      <path d="M 10.59375 45.40625 
L 73.1875 45.40625 
L 73.1875 37.203125 
L 10.59375 37.203125 
z
M 10.59375 25.484375 
L 73.1875 25.484375 
L 73.1875 17.1875 
L 10.59375 17.1875 
z
" id="DejaVuSans-61"/>
      <path d="M 11.71875 12.40625 
L 22.015625 12.40625 
L 22.015625 4 
L 14.015625 -11.625 
L 7.71875 -11.625 
L 11.71875 4 
z
" id="DejaVuSans-44"/>
      <path d="M 45.515625 34.671875 
L 14.453125 34.671875 
Q 12.359375 20.0625 14.5 13.875 
Q 17.1875 6.25 24.46875 6.25 
Q 31.78125 6.25 37.359375 13.921875 
Q 42.234375 20.65625 45.515625 34.671875 
z
M 47.015625 42.96875 
Q 48.34375 56.84375 46.625 61.71875 
Q 43.953125 69.4375 36.765625 69.4375 
Q 29.296875 69.4375 23.828125 61.8125 
Q 19.53125 55.671875 16.15625 42.96875 
z
M 38.1875 76.765625 
Q 49.90625 76.765625 54.59375 66.40625 
Q 59.28125 56.109375 55.71875 37.84375 
Q 52.203125 19.625 43.453125 9.28125 
Q 34.765625 -1.125 23.046875 -1.125 
Q 11.28125 -1.125 6.640625 9.28125 
Q 2 19.625 5.515625 37.84375 
Q 9.078125 56.109375 17.71875 66.40625 
Q 26.421875 76.765625 38.1875 76.765625 
z
" id="DejaVuSans-Oblique-952"/>
      <path d="M 8.015625 75.875 
L 15.828125 75.875 
Q 23.140625 64.359375 26.78125 53.3125 
Q 30.421875 42.28125 30.421875 31.390625 
Q 30.421875 20.453125 26.78125 9.375 
Q 23.140625 -1.703125 15.828125 -13.1875 
L 8.015625 -13.1875 
Q 14.5 -2 17.703125 9.0625 
Q 20.90625 20.125 20.90625 31.390625 
Q 20.90625 42.671875 17.703125 53.65625 
Q 14.5 64.65625 8.015625 75.875 
z
" id="DejaVuSans-41"/>
     </defs>
     <g transform="translate(999.092848 192.719875)scale(0.088 -0.088)">
      <use transform="translate(0 0.765625)" xlink:href="#DejaVuSans-Oblique-114"/>
      <use transform="translate(45.763177 39.046875)scale(0.7)" xlink:href="#DejaVuSans-50"/>
      <use transform="translate(93.033685 0.765625)" xlink:href="#DejaVuSans-40"/>
      <use transform="translate(132.047357 0.765625)" xlink:href="#DejaVuSans-Oblique-945"/>
      <use transform="translate(217.447747 0.765625)" xlink:href="#DejaVuSans-61"/>
      <use transform="translate(320.719232 0.765625)" xlink:href="#DejaVuSans-49"/>
      <use transform="translate(384.342279 0.765625)" xlink:href="#DejaVuSans-44"/>
      <use transform="translate(435.61181 0.765625)" xlink:href="#DejaVuSans-Oblique-952"/>
      <use transform="translate(516.275872 0.765625)" xlink:href="#DejaVuSans-61"/>
      <use transform="translate(619.547357 0.765625)" xlink:href="#DejaVuSans-48"/>
      <use transform="translate(683.170404 0.765625)" xlink:href="#DejaVuSans-41"/>
     </g>
    </g>
    <g id="patch_80">
     <path d="M 974.452848 206.359875 
L 992.052848 206.359875 
L 992.052848 200.199875 
L 974.452848 200.199875 
z
" style="fill:#76b7b2;"/>
    </g>
    <g id="text_24">
     <!-- $D^2 (\alpha=1, \theta=0)$ -->
     <defs>
      <path d="M 16.890625 72.90625 
L 38.09375 72.90625 
Q 54.984375 72.90625 63.59375 65.75 
Q 72.21875 58.59375 72.21875 44.484375 
Q 72.21875 35.15625 68.9375 26.53125 
Q 65.671875 17.921875 59.90625 12.015625 
Q 54.109375 5.953125 45.171875 2.96875 
Q 36.234375 0 24.03125 0 
L 2.6875 0 
z
M 25.203125 64.796875 
L 14.203125 8.109375 
L 27.09375 8.109375 
Q 43.65625 8.109375 52.734375 17.625 
Q 61.8125 27.15625 61.8125 44.484375 
Q 61.8125 54.984375 55.953125 59.890625 
Q 50.09375 64.796875 37.59375 64.796875 
z
" id="DejaVuSans-Oblique-68"/>
     </defs>
     <g transform="translate(999.092848 206.359875)scale(0.088 -0.088)">
      <use transform="translate(0 0.765625)" xlink:href="#DejaVuSans-Oblique-68"/>
      <use transform="translate(84.018724 39.046875)scale(0.7)" xlink:href="#DejaVuSans-50"/>
      <use transform="translate(131.289232 0.765625)" xlink:href="#DejaVuSans-40"/>
      <use transform="translate(170.302904 0.765625)" xlink:href="#DejaVuSans-Oblique-945"/>
      <use transform="translate(255.703294 0.765625)" xlink:href="#DejaVuSans-61"/>
      <use transform="translate(358.974779 0.765625)" xlink:href="#DejaVuSans-49"/>
      <use transform="translate(422.597826 0.765625)" xlink:href="#DejaVuSans-44"/>
      <use transform="translate(473.867357 0.765625)" xlink:href="#DejaVuSans-Oblique-952"/>
      <use transform="translate(554.531419 0.765625)" xlink:href="#DejaVuSans-61"/>
      <use transform="translate(657.802904 0.765625)" xlink:href="#DejaVuSans-48"/>
      <use transform="translate(721.425951 0.765625)" xlink:href="#DejaVuSans-41"/>
     </g>
    </g>
    <g id="patch_81">
     <path d="M 974.452848 219.999875 
L 992.052848 219.999875 
L 992.052848 213.839875 
L 974.452848 213.839875 
z
" style="fill:#e15759;"/>
    </g>
    <g id="text_25">
     <!-- $D^2 (\alpha=0, \theta=0)$ -->
     <g transform="translate(999.092848 219.999875)scale(0.088 -0.088)">
      <use transform="translate(0 0.765625)" xlink:href="#DejaVuSans-Oblique-68"/>
      <use transform="translate(84.018724 39.046875)scale(0.7)" xlink:href="#DejaVuSans-50"/>
      <use transform="translate(131.289232 0.765625)" xlink:href="#DejaVuSans-40"/>
      <use transform="translate(170.302904 0.765625)" xlink:href="#DejaVuSans-Oblique-945"/>
      <use transform="translate(255.703294 0.765625)" xlink:href="#DejaVuSans-61"/>
      <use transform="translate(358.974779 0.765625)" xlink:href="#DejaVuSans-48"/>
      <use transform="translate(422.597826 0.765625)" xlink:href="#DejaVuSans-44"/>
      <use transform="translate(473.867357 0.765625)" xlink:href="#DejaVuSans-Oblique-952"/>
      <use transform="translate(554.531419 0.765625)" xlink:href="#DejaVuSans-61"/>
      <use transform="translate(657.802904 0.765625)" xlink:href="#DejaVuSans-48"/>
      <use transform="translate(721.425951 0.765625)" xlink:href="#DejaVuSans-41"/>
     </g>
    </g>
    <g id="patch_82">
     <path d="M 974.452848 233.639875 
L 992.052848 233.639875 
L 992.052848 227.479875 
L 974.452848 227.479875 
z
" style="fill:url(#h99d16c39f5);stroke:#ffffff;stroke-linejoin:miter;stroke-width:0.8;"/>
    </g>
    <g id="text_26">
     <!-- $r^2 (\alpha=1, \theta=1)$ -->
     <g transform="translate(999.092848 233.639875)scale(0.088 -0.088)">
      <use transform="translate(0 0.765625)" xlink:href="#DejaVuSans-Oblique-114"/>
      <use transform="translate(45.763177 39.046875)scale(0.7)" xlink:href="#DejaVuSans-50"/>
      <use transform="translate(93.033685 0.765625)" xlink:href="#DejaVuSans-40"/>
      <use transform="translate(132.047357 0.765625)" xlink:href="#DejaVuSans-Oblique-945"/>
      <use transform="translate(217.447747 0.765625)" xlink:href="#DejaVuSans-61"/>
      <use transform="translate(320.719232 0.765625)" xlink:href="#DejaVuSans-49"/>
      <use transform="translate(384.342279 0.765625)" xlink:href="#DejaVuSans-44"/>
      <use transform="translate(435.61181 0.765625)" xlink:href="#DejaVuSans-Oblique-952"/>
      <use transform="translate(516.275872 0.765625)" xlink:href="#DejaVuSans-61"/>
      <use transform="translate(619.547357 0.765625)" xlink:href="#DejaVuSans-49"/>
      <use transform="translate(683.170404 0.765625)" xlink:href="#DejaVuSans-41"/>
     </g>
    </g>
    <g id="patch_83">
     <path d="M 974.452848 247.279875 
L 992.052848 247.279875 
L 992.052848 241.119875 
L 974.452848 241.119875 
z
" style="fill:url(#hd165a91963);stroke:#ffffff;stroke-linejoin:miter;stroke-width:0.8;"/>
    </g>
    <g id="text_27">
     <!-- $D^2 (\alpha=1, \theta=1)$ -->
     <g transform="translate(999.092848 247.279875)scale(0.088 -0.088)">
      <use transform="translate(0 0.765625)" xlink:href="#DejaVuSans-Oblique-68"/>
      <use transform="translate(84.018724 39.046875)scale(0.7)" xlink:href="#DejaVuSans-50"/>
      <use transform="translate(131.289232 0.765625)" xlink:href="#DejaVuSans-40"/>
      <use transform="translate(170.302904 0.765625)" xlink:href="#DejaVuSans-Oblique-945"/>
      <use transform="translate(255.703294 0.765625)" xlink:href="#DejaVuSans-61"/>
      <use transform="translate(358.974779 0.765625)" xlink:href="#DejaVuSans-49"/>
      <use transform="translate(422.597826 0.765625)" xlink:href="#DejaVuSans-44"/>
      <use transform="translate(473.867357 0.765625)" xlink:href="#DejaVuSans-Oblique-952"/>
      <use transform="translate(554.531419 0.765625)" xlink:href="#DejaVuSans-61"/>
      <use transform="translate(657.802904 0.765625)" xlink:href="#DejaVuSans-49"/>
      <use transform="translate(721.425951 0.765625)" xlink:href="#DejaVuSans-41"/>
     </g>
    </g>
    <g id="patch_84">
     <path d="M 974.452848 260.919875 
L 992.052848 260.919875 
L 992.052848 254.759875 
L 974.452848 254.759875 
z
" style="fill:url(#h78904cd126);stroke:#ffffff;stroke-linejoin:miter;stroke-width:0.8;"/>
    </g>
    <g id="text_28">
     <!-- $D^2 (\alpha=0, \theta=1)$ -->
     <g transform="translate(999.092848 260.919875)scale(0.088 -0.088)">
      <use transform="translate(0 0.765625)" xlink:href="#DejaVuSans-Oblique-68"/>
      <use transform="translate(84.018724 39.046875)scale(0.7)" xlink:href="#DejaVuSans-50"/>
      <use transform="translate(131.289232 0.765625)" xlink:href="#DejaVuSans-40"/>
      <use transform="translate(170.302904 0.765625)" xlink:href="#DejaVuSans-Oblique-945"/>
      <use transform="translate(255.703294 0.765625)" xlink:href="#DejaVuSans-61"/>
      <use transform="translate(358.974779 0.765625)" xlink:href="#DejaVuSans-48"/>
      <use transform="translate(422.597826 0.765625)" xlink:href="#DejaVuSans-44"/>
      <use transform="translate(473.867357 0.765625)" xlink:href="#DejaVuSans-Oblique-952"/>
      <use transform="translate(554.531419 0.765625)" xlink:href="#DejaVuSans-61"/>
      <use transform="translate(657.802904 0.765625)" xlink:href="#DejaVuSans-49"/>
      <use transform="translate(721.425951 0.765625)" xlink:href="#DejaVuSans-41"/>
     </g>
    </g>
   </g>
  </g>
 </g>
 <defs>
  <clipPath id="pe3ea25c4a3">
   <rect height="400.924" width="905.826582" x="51.648" y="23.568"/>
  </clipPath>
 </defs>
 <defs>
  <pattern height="72" id="h99d16c39f5" patternUnits="userSpaceOnUse" width="72" x="0" y="0">
   <rect fill="#f28e2b" height="73" width="73" x="0" y="0"/>
   <path d="M -36 36 
L 36 -36 
M -33 39 
L 39 -33 
M -30 42 
L 42 -30 
M -27 45 
L 45 -27 
M -24 48 
L 48 -24 
M -21 51 
L 51 -21 
M -18 54 
L 54 -18 
M -15 57 
L 57 -15 
M -12 60 
L 60 -12 
M -9 63 
L 63 -9 
M -6 66 
L 66 -6 
M -3 69 
L 69 -3 
M 0 72 
L 72 0 
M 3 75 
L 75 3 
M 6 78 
L 78 6 
M 9 81 
L 81 9 
M 12 84 
L 84 12 
M 15 87 
L 87 15 
M 18 90 
L 90 18 
M 21 93 
L 93 21 
M 24 96 
L 96 24 
M 27 99 
L 99 27 
M 30 102 
L 102 30 
M 33 105 
L 105 33 
M 36 108 
L 108 36 
" style="fill:#ffffff;stroke:#ffffff;stroke-linecap:butt;stroke-linejoin:miter;stroke-width:2.0;"/>
  </pattern>
  <pattern height="72" id="hd165a91963" patternUnits="userSpaceOnUse" width="72" x="0" y="0">
   <rect fill="#76b7b2" height="73" width="73" x="0" y="0"/>
   <path d="M -36 36 
L 36 -36 
M -33 39 
L 39 -33 
M -30 42 
L 42 -30 
M -27 45 
L 45 -27 
M -24 48 
L 48 -24 
M -21 51 
L 51 -21 
M -18 54 
L 54 -18 
M -15 57 
L 57 -15 
M -12 60 
L 60 -12 
M -9 63 
L 63 -9 
M -6 66 
L 66 -6 
M -3 69 
L 69 -3 
M 0 72 
L 72 0 
M 3 75 
L 75 3 
M 6 78 
L 78 6 
M 9 81 
L 81 9 
M 12 84 
L 84 12 
M 15 87 
L 87 15 
M 18 90 
L 90 18 
M 21 93 
L 93 21 
M 24 96 
L 96 24 
M 27 99 
L 99 27 
M 30 102 
L 102 30 
M 33 105 
L 105 33 
M 36 108 
L 108 36 
" style="fill:#ffffff;stroke:#ffffff;stroke-linecap:butt;stroke-linejoin:miter;stroke-width:2.0;"/>
  </pattern>
  <pattern height="72" id="h78904cd126" patternUnits="userSpaceOnUse" width="72" x="0" y="0">
   <rect fill="#e15759" height="73" width="73" x="0" y="0"/>
   <path d="M -36 36 
L 36 -36 
M -33 39 
L 39 -33 
M -30 42 
L 42 -30 
M -27 45 
L 45 -27 
M -24 48 
L 48 -24 
M -21 51 
L 51 -21 
M -18 54 
L 54 -18 
M -15 57 
L 57 -15 
M -12 60 
L 60 -12 
M -9 63 
L 63 -9 
M -6 66 
L 66 -6 
M -3 69 
L 69 -3 
M 0 72 
L 72 0 
M 3 75 
L 75 3 
M 6 78 
L 78 6 
M 9 81 
L 81 9 
M 12 84 
L 84 12 
M 15 87 
L 87 15 
M 18 90 
L 90 18 
M 21 93 
L 93 21 
M 24 96 
L 96 24 
M 27 99 
L 99 27 
M 30 102 
L 102 30 
M 33 105 
L 105 33 
M 36 108 
L 108 36 
" style="fill:#ffffff;stroke:#ffffff;stroke-linecap:butt;stroke-linejoin:miter;stroke-width:2.0;"/>
  </pattern>
 </defs>
</svg>
