<?xml version="1.0" encoding="utf-8" standalone="no"?>
<!DOCTYPE svg PUBLIC "-//W3C//DTD SVG 1.1//EN"
  "http://www.w3.org/Graphics/SVG/1.1/DTD/svg11.dtd">
<!-- Created with matplotlib (https://matplotlib.org/) -->
<svg height="576pt" version="1.1" viewBox="0 0 1080 576" width="1080pt" xmlns="http://www.w3.org/2000/svg" xmlns:xlink="http://www.w3.org/1999/xlink">
 <defs>
  <style type="text/css">
*{stroke-linecap:butt;stroke-linejoin:round;}
  </style>
 </defs>
 <g id="figure_1">
  <g id="patch_1">
   <path d="M 0 576 
L 1080 576 
L 1080 0 
L 0 0 
z
" style="fill:#ffffff;"/>
  </g>
  <g id="axes_1">
   <g id="patch_2">
    <path d="M 45.078 424.492 
L 957.474582 424.492 
L 957.474582 23.568 
L 45.078 23.568 
z
" style="fill:#ffffff;"/>
   </g>
   <g id="patch_3">
    <path clip-path="url(#pb7323cc654)" d="M 86.550572 340.122182 
L 98.232987 340.122182 
L 98.232987 350.507715 
L 86.550572 350.507715 
z
" style="fill:#f28e2b;"/>
   </g>
   <g id="patch_4">
    <path clip-path="url(#pb7323cc654)" d="M 156.64506 340.122182 
L 168.327474 340.122182 
L 168.327474 338.388476 
L 156.64506 338.388476 
z
" style="fill:#f28e2b;"/>
   </g>
   <g id="patch_5">
    <path clip-path="url(#pb7323cc654)" d="M 226.739547 340.122182 
L 238.421962 340.122182 
L 238.421962 151.006082 
L 226.739547 151.006082 
z
" style="fill:#f28e2b;"/>
   </g>
   <g id="patch_6">
    <path clip-path="url(#pb7323cc654)" d="M 296.834035 340.122182 
L 308.51645 340.122182 
L 308.51645 280.618592 
L 296.834035 280.618592 
z
" style="fill:#f28e2b;"/>
   </g>
   <g id="patch_7">
    <path clip-path="url(#pb7323cc654)" d="M 366.928523 340.122182 
L 378.610938 340.122182 
L 378.610938 204.867576 
L 366.928523 204.867576 
z
" style="fill:#f28e2b;"/>
   </g>
   <g id="patch_8">
    <path clip-path="url(#pb7323cc654)" d="M 437.023011 340.122182 
L 448.705425 340.122182 
L 448.705425 215.223798 
L 437.023011 215.223798 
z
" style="fill:#f28e2b;"/>
   </g>
   <g id="patch_9">
    <path clip-path="url(#pb7323cc654)" d="M 507.117498 340.122182 
L 518.799913 340.122182 
L 518.799913 285.372577 
L 507.117498 285.372577 
z
" style="fill:#f28e2b;"/>
   </g>
   <g id="patch_10">
    <path clip-path="url(#pb7323cc654)" d="M 577.211986 340.122182 
L 588.894401 340.122182 
L 588.894401 295.609841 
L 577.211986 295.609841 
z
" style="fill:#f28e2b;"/>
   </g>
   <g id="patch_11">
    <path clip-path="url(#pb7323cc654)" d="M 647.306474 340.122182 
L 658.988889 340.122182 
L 658.988889 284.955711 
L 647.306474 284.955711 
z
" style="fill:#f28e2b;"/>
   </g>
   <g id="patch_12">
    <path clip-path="url(#pb7323cc654)" d="M 717.400962 340.122182 
L 729.083376 340.122182 
L 729.083376 326.617461 
L 717.400962 326.617461 
z
" style="fill:#f28e2b;"/>
   </g>
   <g id="patch_13">
    <path clip-path="url(#pb7323cc654)" d="M 787.495449 340.122182 
L 799.177864 340.122182 
L 799.177864 265.395748 
L 787.495449 265.395748 
z
" style="fill:#f28e2b;"/>
   </g>
   <g id="patch_14">
    <path clip-path="url(#pb7323cc654)" d="M 857.589937 340.122182 
L 869.272352 340.122182 
L 869.272352 289.127869 
L 857.589937 289.127869 
z
" style="fill:#f28e2b;"/>
   </g>
   <g id="patch_15">
    <path clip-path="url(#pb7323cc654)" d="M 98.232987 340.122182 
L 109.915401 340.122182 
L 109.915401 345.939144 
L 98.232987 345.939144 
z
" style="fill:#76b7b2;"/>
   </g>
   <g id="patch_16">
    <path clip-path="url(#pb7323cc654)" d="M 168.327474 340.122182 
L 180.009889 340.122182 
L 180.009889 340.291719 
L 168.327474 340.291719 
z
" style="fill:#76b7b2;"/>
   </g>
   <g id="patch_17">
    <path clip-path="url(#pb7323cc654)" d="M 238.421962 340.122182 
L 250.104377 340.122182 
L 250.104377 186.097373 
L 238.421962 186.097373 
z
" style="fill:#76b7b2;"/>
   </g>
   <g id="patch_18">
    <path clip-path="url(#pb7323cc654)" d="M 308.51645 340.122182 
L 320.198864 340.122182 
L 320.198864 287.817257 
L 308.51645 287.817257 
z
" style="fill:#76b7b2;"/>
   </g>
   <g id="patch_19">
    <path clip-path="url(#pb7323cc654)" d="M 378.610938 340.122182 
L 390.293352 340.122182 
L 390.293352 215.309859 
L 378.610938 215.309859 
z
" style="fill:#76b7b2;"/>
   </g>
   <g id="patch_20">
    <path clip-path="url(#pb7323cc654)" d="M 448.705425 340.122182 
L 460.38784 340.122182 
L 460.38784 229.529673 
L 448.705425 229.529673 
z
" style="fill:#76b7b2;"/>
   </g>
   <g id="patch_21">
    <path clip-path="url(#pb7323cc654)" d="M 518.799913 340.122182 
L 530.482328 340.122182 
L 530.482328 288.189256 
L 518.799913 288.189256 
z
" style="fill:#76b7b2;"/>
   </g>
   <g id="patch_22">
    <path clip-path="url(#pb7323cc654)" d="M 588.894401 340.122182 
L 600.576815 340.122182 
L 600.576815 297.165385 
L 588.894401 297.165385 
z
" style="fill:#76b7b2;"/>
   </g>
   <g id="patch_23">
    <path clip-path="url(#pb7323cc654)" d="M 658.988889 340.122182 
L 670.671303 340.122182 
L 670.671303 292.161295 
L 658.988889 292.161295 
z
" style="fill:#76b7b2;"/>
   </g>
   <g id="patch_24">
    <path clip-path="url(#pb7323cc654)" d="M 729.083376 340.122182 
L 740.765791 340.122182 
L 740.765791 325.653522 
L 729.083376 325.653522 
z
" style="fill:#76b7b2;"/>
   </g>
   <g id="patch_25">
    <path clip-path="url(#pb7323cc654)" d="M 799.177864 340.122182 
L 810.860279 340.122182 
L 810.860279 268.532827 
L 799.177864 268.532827 
z
" style="fill:#76b7b2;"/>
   </g>
   <g id="patch_26">
    <path clip-path="url(#pb7323cc654)" d="M 869.272352 340.122182 
L 880.954766 340.122182 
L 880.954766 299.509291 
L 869.272352 299.509291 
z
" style="fill:#76b7b2;"/>
   </g>
   <g id="patch_27">
    <path clip-path="url(#pb7323cc654)" d="M 109.915401 340.122182 
L 121.597816 340.122182 
L 121.597816 282.237622 
L 109.915401 282.237622 
z
" style="fill:#e15759;"/>
   </g>
   <g id="patch_28">
    <path clip-path="url(#pb7323cc654)" d="M 180.009889 340.122182 
L 191.692304 340.122182 
L 191.692304 343.504294 
L 180.009889 343.504294 
z
" style="fill:#e15759;"/>
   </g>
   <g id="patch_29">
    <path clip-path="url(#pb7323cc654)" d="M 250.104377 340.122182 
L 261.786791 340.122182 
L 261.786791 107.460449 
L 250.104377 107.460449 
z
" style="fill:#e15759;"/>
   </g>
   <g id="patch_30">
    <path clip-path="url(#pb7323cc654)" d="M 320.198864 340.122182 
L 331.881279 340.122182 
L 331.881279 199.904384 
L 320.198864 199.904384 
z
" style="fill:#e15759;"/>
   </g>
   <g id="patch_31">
    <path clip-path="url(#pb7323cc654)" d="M 390.293352 340.122182 
L 401.975767 340.122182 
L 401.975767 192.15704 
L 390.293352 192.15704 
z
" style="fill:#e15759;"/>
   </g>
   <g id="patch_32">
    <path clip-path="url(#pb7323cc654)" d="M 460.38784 340.122182 
L 472.070255 340.122182 
L 472.070255 205.767542 
L 460.38784 205.767542 
z
" style="fill:#e15759;"/>
   </g>
   <g id="patch_33">
    <path clip-path="url(#pb7323cc654)" d="M 530.482328 340.122182 
L 542.164742 340.122182 
L 542.164742 309.10132 
L 530.482328 309.10132 
z
" style="fill:#e15759;"/>
   </g>
   <g id="patch_34">
    <path clip-path="url(#pb7323cc654)" d="M 600.576815 340.122182 
L 612.25923 340.122182 
L 612.25923 312.940536 
L 600.576815 312.940536 
z
" style="fill:#e15759;"/>
   </g>
   <g id="patch_35">
    <path clip-path="url(#pb7323cc654)" d="M 670.671303 340.122182 
L 682.353718 340.122182 
L 682.353718 298.957105 
L 670.671303 298.957105 
z
" style="fill:#e15759;"/>
   </g>
   <g id="patch_36">
    <path clip-path="url(#pb7323cc654)" d="M 740.765791 340.122182 
L 752.448206 340.122182 
L 752.448206 347.532117 
L 740.765791 347.532117 
z
" style="fill:#e15759;"/>
   </g>
   <g id="patch_37">
    <path clip-path="url(#pb7323cc654)" d="M 810.860279 340.122182 
L 822.542693 340.122182 
L 822.542693 255.595198 
L 810.860279 255.595198 
z
" style="fill:#e15759;"/>
   </g>
   <g id="patch_38">
    <path clip-path="url(#pb7323cc654)" d="M 880.954766 340.122182 
L 892.637181 340.122182 
L 892.637181 314.494536 
L 880.954766 314.494536 
z
" style="fill:#e15759;"/>
   </g>
   <g id="patch_39">
    <path clip-path="url(#pb7323cc654)" d="M 121.597816 340.122182 
L 133.28023 340.122182 
L 133.28023 325.612423 
L 121.597816 325.612423 
z
" style="fill:url(#h3e7749dc54);stroke:#ffffff;stroke-linejoin:miter;stroke-width:0.8;"/>
   </g>
   <g id="patch_40">
    <path clip-path="url(#pb7323cc654)" d="M 191.692304 340.122182 
L 203.374718 340.122182 
L 203.374718 336.78302 
L 191.692304 336.78302 
z
" style="fill:url(#h3e7749dc54);stroke:#ffffff;stroke-linejoin:miter;stroke-width:0.8;"/>
   </g>
   <g id="patch_41">
    <path clip-path="url(#pb7323cc654)" d="M 261.786791 340.122182 
L 273.469206 340.122182 
L 273.469206 339.235881 
L 261.786791 339.235881 
z
" style="fill:url(#h3e7749dc54);stroke:#ffffff;stroke-linejoin:miter;stroke-width:0.8;"/>
   </g>
   <g id="patch_42">
    <path clip-path="url(#pb7323cc654)" d="M 331.881279 340.122182 
L 343.563694 340.122182 
L 343.563694 315.568071 
L 331.881279 315.568071 
z
" style="fill:url(#h3e7749dc54);stroke:#ffffff;stroke-linejoin:miter;stroke-width:0.8;"/>
   </g>
   <g id="patch_43">
    <path clip-path="url(#pb7323cc654)" d="M 401.975767 340.122182 
L 413.658181 340.122182 
L 413.658181 327.600781 
L 401.975767 327.600781 
z
" style="fill:url(#h3e7749dc54);stroke:#ffffff;stroke-linejoin:miter;stroke-width:0.8;"/>
   </g>
   <g id="patch_44">
    <path clip-path="url(#pb7323cc654)" d="M 472.070255 340.122182 
L 483.752669 340.122182 
L 483.752669 328.858111 
L 472.070255 328.858111 
z
" style="fill:url(#h3e7749dc54);stroke:#ffffff;stroke-linejoin:miter;stroke-width:0.8;"/>
   </g>
   <g id="patch_45">
    <path clip-path="url(#pb7323cc654)" d="M 542.164742 340.122182 
L 553.847157 340.122182 
L 553.847157 333.18245 
L 542.164742 333.18245 
z
" style="fill:url(#h3e7749dc54);stroke:#ffffff;stroke-linejoin:miter;stroke-width:0.8;"/>
   </g>
   <g id="patch_46">
    <path clip-path="url(#pb7323cc654)" d="M 612.25923 340.122182 
L 623.941645 340.122182 
L 623.941645 331.576854 
L 612.25923 331.576854 
z
" style="fill:url(#h3e7749dc54);stroke:#ffffff;stroke-linejoin:miter;stroke-width:0.8;"/>
   </g>
   <g id="patch_47">
    <path clip-path="url(#pb7323cc654)" d="M 682.353718 340.122182 
L 694.036132 340.122182 
L 694.036132 336.682238 
L 682.353718 336.682238 
z
" style="fill:url(#h3e7749dc54);stroke:#ffffff;stroke-linejoin:miter;stroke-width:0.8;"/>
   </g>
   <g id="patch_48">
    <path clip-path="url(#pb7323cc654)" d="M 752.448206 340.122182 
L 764.13062 340.122182 
L 764.13062 337.236367 
L 752.448206 337.236367 
z
" style="fill:url(#h3e7749dc54);stroke:#ffffff;stroke-linejoin:miter;stroke-width:0.8;"/>
   </g>
   <g id="patch_49">
    <path clip-path="url(#pb7323cc654)" d="M 822.542693 340.122182 
L 834.225108 340.122182 
L 834.225108 331.06065 
L 822.542693 331.06065 
z
" style="fill:url(#h3e7749dc54);stroke:#ffffff;stroke-linejoin:miter;stroke-width:0.8;"/>
   </g>
   <g id="patch_50">
    <path clip-path="url(#pb7323cc654)" d="M 892.637181 340.122182 
L 904.319596 340.122182 
L 904.319596 340.591141 
L 892.637181 340.591141 
z
" style="fill:url(#h3e7749dc54);stroke:#ffffff;stroke-linejoin:miter;stroke-width:0.8;"/>
   </g>
   <g id="patch_51">
    <path clip-path="url(#pb7323cc654)" d="M 133.28023 340.122182 
L 144.962645 340.122182 
L 144.962645 302.458671 
L 133.28023 302.458671 
z
" style="fill:url(#ha770ee48d0);stroke:#ffffff;stroke-linejoin:miter;stroke-width:0.8;"/>
   </g>
   <g id="patch_52">
    <path clip-path="url(#pb7323cc654)" d="M 203.374718 340.122182 
L 215.057133 340.122182 
L 215.057133 349.607644 
L 203.374718 349.607644 
z
" style="fill:url(#ha770ee48d0);stroke:#ffffff;stroke-linejoin:miter;stroke-width:0.8;"/>
   </g>
   <g id="patch_53">
    <path clip-path="url(#pb7323cc654)" d="M 273.469206 340.122182 
L 285.151621 340.122182 
L 285.151621 337.243131 
L 273.469206 337.243131 
z
" style="fill:url(#ha770ee48d0);stroke:#ffffff;stroke-linejoin:miter;stroke-width:0.8;"/>
   </g>
   <g id="patch_54">
    <path clip-path="url(#pb7323cc654)" d="M 343.563694 340.122182 
L 355.246108 340.122182 
L 355.246108 284.483687 
L 343.563694 284.483687 
z
" style="fill:url(#ha770ee48d0);stroke:#ffffff;stroke-linejoin:miter;stroke-width:0.8;"/>
   </g>
   <g id="patch_55">
    <path clip-path="url(#pb7323cc654)" d="M 413.658181 340.122182 
L 425.340596 340.122182 
L 425.340596 315.182914 
L 413.658181 315.182914 
z
" style="fill:url(#ha770ee48d0);stroke:#ffffff;stroke-linejoin:miter;stroke-width:0.8;"/>
   </g>
   <g id="patch_56">
    <path clip-path="url(#pb7323cc654)" d="M 483.752669 340.122182 
L 495.435084 340.122182 
L 495.435084 308.005024 
L 483.752669 308.005024 
z
" style="fill:url(#ha770ee48d0);stroke:#ffffff;stroke-linejoin:miter;stroke-width:0.8;"/>
   </g>
   <g id="patch_57">
    <path clip-path="url(#pb7323cc654)" d="M 553.847157 340.122182 
L 565.529572 340.122182 
L 565.529572 320.243812 
L 553.847157 320.243812 
z
" style="fill:url(#ha770ee48d0);stroke:#ffffff;stroke-linejoin:miter;stroke-width:0.8;"/>
   </g>
   <g id="patch_58">
    <path clip-path="url(#pb7323cc654)" d="M 623.941645 340.122182 
L 635.624059 340.122182 
L 635.624059 342.194251 
L 623.941645 342.194251 
z
" style="fill:url(#ha770ee48d0);stroke:#ffffff;stroke-linejoin:miter;stroke-width:0.8;"/>
   </g>
   <g id="patch_59">
    <path clip-path="url(#pb7323cc654)" d="M 694.036132 340.122182 
L 705.718547 340.122182 
L 705.718547 332.089457 
L 694.036132 332.089457 
z
" style="fill:url(#ha770ee48d0);stroke:#ffffff;stroke-linejoin:miter;stroke-width:0.8;"/>
   </g>
   <g id="patch_60">
    <path clip-path="url(#pb7323cc654)" d="M 764.13062 340.122182 
L 775.813035 340.122182 
L 775.813035 357.089761 
L 764.13062 357.089761 
z
" style="fill:url(#ha770ee48d0);stroke:#ffffff;stroke-linejoin:miter;stroke-width:0.8;"/>
   </g>
   <g id="patch_61">
    <path clip-path="url(#pb7323cc654)" d="M 834.225108 340.122182 
L 845.907523 340.122182 
L 845.907523 313.237346 
L 834.225108 313.237346 
z
" style="fill:url(#ha770ee48d0);stroke:#ffffff;stroke-linejoin:miter;stroke-width:0.8;"/>
   </g>
   <g id="patch_62">
    <path clip-path="url(#pb7323cc654)" d="M 904.319596 340.122182 
L 916.00201 340.122182 
L 916.00201 346.678916 
L 904.319596 346.678916 
z
" style="fill:url(#ha770ee48d0);stroke:#ffffff;stroke-linejoin:miter;stroke-width:0.8;"/>
   </g>
   <g id="matplotlib.axis_1">
    <g id="xtick_1">
     <g id="line2d_1">
      <defs>
       <path d="M 0 0 
L 0 4.8 
" id="mbcd21a4e1c" style="stroke:#000000;"/>
      </defs>
      <g>
       <use style="stroke:#000000;" x="115.756608" xlink:href="#mbcd21a4e1c" y="424.492"/>
      </g>
     </g>
     <g id="text_1">
      <!-- Age at Menarche -->
      <defs>
       <path d="M 34.1875 63.1875 
L 20.796875 26.90625 
L 47.609375 26.90625 
z
M 28.609375 72.90625 
L 39.796875 72.90625 
L 67.578125 0 
L 57.328125 0 
L 50.6875 18.703125 
L 17.828125 18.703125 
L 11.1875 0 
L 0.78125 0 
z
" id="DejaVuSans-65"/>
       <path d="M 45.40625 27.984375 
Q 45.40625 37.75 41.375 43.109375 
Q 37.359375 48.484375 30.078125 48.484375 
Q 22.859375 48.484375 18.828125 43.109375 
Q 14.796875 37.75 14.796875 27.984375 
Q 14.796875 18.265625 18.828125 12.890625 
Q 22.859375 7.515625 30.078125 7.515625 
Q 37.359375 7.515625 41.375 12.890625 
Q 45.40625 18.265625 45.40625 27.984375 
z
M 54.390625 6.78125 
Q 54.390625 -7.171875 48.1875 -13.984375 
Q 42 -20.796875 29.203125 -20.796875 
Q 24.46875 -20.796875 20.265625 -20.09375 
Q 16.0625 -19.390625 12.109375 -17.921875 
L 12.109375 -9.1875 
Q 16.0625 -11.328125 19.921875 -12.34375 
Q 23.78125 -13.375 27.78125 -13.375 
Q 36.625 -13.375 41.015625 -8.765625 
Q 45.40625 -4.15625 45.40625 5.171875 
L 45.40625 9.625 
Q 42.625 4.78125 38.28125 2.390625 
Q 33.9375 0 27.875 0 
Q 17.828125 0 11.671875 7.65625 
Q 5.515625 15.328125 5.515625 27.984375 
Q 5.515625 40.671875 11.671875 48.328125 
Q 17.828125 56 27.875 56 
Q 33.9375 56 38.28125 53.609375 
Q 42.625 51.21875 45.40625 46.390625 
L 45.40625 54.6875 
L 54.390625 54.6875 
z
" id="DejaVuSans-103"/>
       <path d="M 56.203125 29.59375 
L 56.203125 25.203125 
L 14.890625 25.203125 
Q 15.484375 15.921875 20.484375 11.0625 
Q 25.484375 6.203125 34.421875 6.203125 
Q 39.59375 6.203125 44.453125 7.46875 
Q 49.3125 8.734375 54.109375 11.28125 
L 54.109375 2.78125 
Q 49.265625 0.734375 44.1875 -0.34375 
Q 39.109375 -1.421875 33.890625 -1.421875 
Q 20.796875 -1.421875 13.15625 6.1875 
Q 5.515625 13.8125 5.515625 26.8125 
Q 5.515625 40.234375 12.765625 48.109375 
Q 20.015625 56 32.328125 56 
Q 43.359375 56 49.78125 48.890625 
Q 56.203125 41.796875 56.203125 29.59375 
z
M 47.21875 32.234375 
Q 47.125 39.59375 43.09375 43.984375 
Q 39.0625 48.390625 32.421875 48.390625 
Q 24.90625 48.390625 20.390625 44.140625 
Q 15.875 39.890625 15.1875 32.171875 
z
" id="DejaVuSans-101"/>
       <path id="DejaVuSans-32"/>
       <path d="M 34.28125 27.484375 
Q 23.390625 27.484375 19.1875 25 
Q 14.984375 22.515625 14.984375 16.5 
Q 14.984375 11.71875 18.140625 8.90625 
Q 21.296875 6.109375 26.703125 6.109375 
Q 34.1875 6.109375 38.703125 11.40625 
Q 43.21875 16.703125 43.21875 25.484375 
L 43.21875 27.484375 
z
M 52.203125 31.203125 
L 52.203125 0 
L 43.21875 0 
L 43.21875 8.296875 
Q 40.140625 3.328125 35.546875 0.953125 
Q 30.953125 -1.421875 24.3125 -1.421875 
Q 15.921875 -1.421875 10.953125 3.296875 
Q 6 8.015625 6 15.921875 
Q 6 25.140625 12.171875 29.828125 
Q 18.359375 34.515625 30.609375 34.515625 
L 43.21875 34.515625 
L 43.21875 35.40625 
Q 43.21875 41.609375 39.140625 45 
Q 35.0625 48.390625 27.6875 48.390625 
Q 23 48.390625 18.546875 47.265625 
Q 14.109375 46.140625 10.015625 43.890625 
L 10.015625 52.203125 
Q 14.9375 54.109375 19.578125 55.046875 
Q 24.21875 56 28.609375 56 
Q 40.484375 56 46.34375 49.84375 
Q 52.203125 43.703125 52.203125 31.203125 
z
" id="DejaVuSans-97"/>
       <path d="M 18.3125 70.21875 
L 18.3125 54.6875 
L 36.8125 54.6875 
L 36.8125 47.703125 
L 18.3125 47.703125 
L 18.3125 18.015625 
Q 18.3125 11.328125 20.140625 9.421875 
Q 21.96875 7.515625 27.59375 7.515625 
L 36.8125 7.515625 
L 36.8125 0 
L 27.59375 0 
Q 17.1875 0 13.234375 3.875 
Q 9.28125 7.765625 9.28125 18.015625 
L 9.28125 47.703125 
L 2.6875 47.703125 
L 2.6875 54.6875 
L 9.28125 54.6875 
L 9.28125 70.21875 
z
" id="DejaVuSans-116"/>
       <path d="M 9.8125 72.90625 
L 24.515625 72.90625 
L 43.109375 23.296875 
L 61.8125 72.90625 
L 76.515625 72.90625 
L 76.515625 0 
L 66.890625 0 
L 66.890625 64.015625 
L 48.09375 14.015625 
L 38.1875 14.015625 
L 19.390625 64.015625 
L 19.390625 0 
L 9.8125 0 
z
" id="DejaVuSans-77"/>
       <path d="M 54.890625 33.015625 
L 54.890625 0 
L 45.90625 0 
L 45.90625 32.71875 
Q 45.90625 40.484375 42.875 44.328125 
Q 39.84375 48.1875 33.796875 48.1875 
Q 26.515625 48.1875 22.3125 43.546875 
Q 18.109375 38.921875 18.109375 30.90625 
L 18.109375 0 
L 9.078125 0 
L 9.078125 54.6875 
L 18.109375 54.6875 
L 18.109375 46.1875 
Q 21.34375 51.125 25.703125 53.5625 
Q 30.078125 56 35.796875 56 
Q 45.21875 56 50.046875 50.171875 
Q 54.890625 44.34375 54.890625 33.015625 
z
" id="DejaVuSans-110"/>
       <path d="M 41.109375 46.296875 
Q 39.59375 47.171875 37.8125 47.578125 
Q 36.03125 48 33.890625 48 
Q 26.265625 48 22.1875 43.046875 
Q 18.109375 38.09375 18.109375 28.8125 
L 18.109375 0 
L 9.078125 0 
L 9.078125 54.6875 
L 18.109375 54.6875 
L 18.109375 46.1875 
Q 20.953125 51.171875 25.484375 53.578125 
Q 30.03125 56 36.53125 56 
Q 37.453125 56 38.578125 55.875 
Q 39.703125 55.765625 41.0625 55.515625 
z
" id="DejaVuSans-114"/>
       <path d="M 48.78125 52.59375 
L 48.78125 44.1875 
Q 44.96875 46.296875 41.140625 47.34375 
Q 37.3125 48.390625 33.40625 48.390625 
Q 24.65625 48.390625 19.8125 42.84375 
Q 14.984375 37.3125 14.984375 27.296875 
Q 14.984375 17.28125 19.8125 11.734375 
Q 24.65625 6.203125 33.40625 6.203125 
Q 37.3125 6.203125 41.140625 7.25 
Q 44.96875 8.296875 48.78125 10.40625 
L 48.78125 2.09375 
Q 45.015625 0.34375 40.984375 -0.53125 
Q 36.96875 -1.421875 32.421875 -1.421875 
Q 20.0625 -1.421875 12.78125 6.34375 
Q 5.515625 14.109375 5.515625 27.296875 
Q 5.515625 40.671875 12.859375 48.328125 
Q 20.21875 56 33.015625 56 
Q 37.15625 56 41.109375 55.140625 
Q 45.0625 54.296875 48.78125 52.59375 
z
" id="DejaVuSans-99"/>
       <path d="M 54.890625 33.015625 
L 54.890625 0 
L 45.90625 0 
L 45.90625 32.71875 
Q 45.90625 40.484375 42.875 44.328125 
Q 39.84375 48.1875 33.796875 48.1875 
Q 26.515625 48.1875 22.3125 43.546875 
Q 18.109375 38.921875 18.109375 30.90625 
L 18.109375 0 
L 9.078125 0 
L 9.078125 75.984375 
L 18.109375 75.984375 
L 18.109375 46.1875 
Q 21.34375 51.125 25.703125 53.5625 
Q 30.078125 56 35.796875 56 
Q 45.21875 56 50.046875 50.171875 
Q 54.890625 44.34375 54.890625 33.015625 
z
" id="DejaVuSans-104"/>
      </defs>
      <g transform="translate(118.184858 507.4765)rotate(-90)scale(0.088 -0.088)">
       <use xlink:href="#DejaVuSans-65"/>
       <use x="68.408203" xlink:href="#DejaVuSans-103"/>
       <use x="131.884766" xlink:href="#DejaVuSans-101"/>
       <use x="193.408203" xlink:href="#DejaVuSans-32"/>
       <use x="225.195312" xlink:href="#DejaVuSans-97"/>
       <use x="286.474609" xlink:href="#DejaVuSans-116"/>
       <use x="325.683594" xlink:href="#DejaVuSans-32"/>
       <use x="357.470703" xlink:href="#DejaVuSans-77"/>
       <use x="443.75" xlink:href="#DejaVuSans-101"/>
       <use x="505.273438" xlink:href="#DejaVuSans-110"/>
       <use x="568.652344" xlink:href="#DejaVuSans-97"/>
       <use x="629.931641" xlink:href="#DejaVuSans-114"/>
       <use x="668.794922" xlink:href="#DejaVuSans-99"/>
       <use x="723.775391" xlink:href="#DejaVuSans-104"/>
       <use x="787.154297" xlink:href="#DejaVuSans-101"/>
      </g>
     </g>
    </g>
    <g id="xtick_2">
     <g id="line2d_2">
      <g>
       <use style="stroke:#000000;" x="185.851096" xlink:href="#mbcd21a4e1c" y="424.492"/>
      </g>
     </g>
     <g id="text_2">
      <!-- Age at Menopause -->
      <defs>
       <path d="M 30.609375 48.390625 
Q 23.390625 48.390625 19.1875 42.75 
Q 14.984375 37.109375 14.984375 27.296875 
Q 14.984375 17.484375 19.15625 11.84375 
Q 23.34375 6.203125 30.609375 6.203125 
Q 37.796875 6.203125 41.984375 11.859375 
Q 46.1875 17.53125 46.1875 27.296875 
Q 46.1875 37.015625 41.984375 42.703125 
Q 37.796875 48.390625 30.609375 48.390625 
z
M 30.609375 56 
Q 42.328125 56 49.015625 48.375 
Q 55.71875 40.765625 55.71875 27.296875 
Q 55.71875 13.875 49.015625 6.21875 
Q 42.328125 -1.421875 30.609375 -1.421875 
Q 18.84375 -1.421875 12.171875 6.21875 
Q 5.515625 13.875 5.515625 27.296875 
Q 5.515625 40.765625 12.171875 48.375 
Q 18.84375 56 30.609375 56 
z
" id="DejaVuSans-111"/>
       <path d="M 18.109375 8.203125 
L 18.109375 -20.796875 
L 9.078125 -20.796875 
L 9.078125 54.6875 
L 18.109375 54.6875 
L 18.109375 46.390625 
Q 20.953125 51.265625 25.265625 53.625 
Q 29.59375 56 35.59375 56 
Q 45.5625 56 51.78125 48.09375 
Q 58.015625 40.1875 58.015625 27.296875 
Q 58.015625 14.40625 51.78125 6.484375 
Q 45.5625 -1.421875 35.59375 -1.421875 
Q 29.59375 -1.421875 25.265625 0.953125 
Q 20.953125 3.328125 18.109375 8.203125 
z
M 48.6875 27.296875 
Q 48.6875 37.203125 44.609375 42.84375 
Q 40.53125 48.484375 33.40625 48.484375 
Q 26.265625 48.484375 22.1875 42.84375 
Q 18.109375 37.203125 18.109375 27.296875 
Q 18.109375 17.390625 22.1875 11.75 
Q 26.265625 6.109375 33.40625 6.109375 
Q 40.53125 6.109375 44.609375 11.75 
Q 48.6875 17.390625 48.6875 27.296875 
z
" id="DejaVuSans-112"/>
       <path d="M 8.5 21.578125 
L 8.5 54.6875 
L 17.484375 54.6875 
L 17.484375 21.921875 
Q 17.484375 14.15625 20.5 10.265625 
Q 23.53125 6.390625 29.59375 6.390625 
Q 36.859375 6.390625 41.078125 11.03125 
Q 45.3125 15.671875 45.3125 23.6875 
L 45.3125 54.6875 
L 54.296875 54.6875 
L 54.296875 0 
L 45.3125 0 
L 45.3125 8.40625 
Q 42.046875 3.421875 37.71875 1 
Q 33.40625 -1.421875 27.6875 -1.421875 
Q 18.265625 -1.421875 13.375 4.4375 
Q 8.5 10.296875 8.5 21.578125 
z
M 31.109375 56 
z
" id="DejaVuSans-117"/>
       <path d="M 44.28125 53.078125 
L 44.28125 44.578125 
Q 40.484375 46.53125 36.375 47.5 
Q 32.28125 48.484375 27.875 48.484375 
Q 21.1875 48.484375 17.84375 46.4375 
Q 14.5 44.390625 14.5 40.28125 
Q 14.5 37.15625 16.890625 35.375 
Q 19.28125 33.59375 26.515625 31.984375 
L 29.59375 31.296875 
Q 39.15625 29.25 43.1875 25.515625 
Q 47.21875 21.78125 47.21875 15.09375 
Q 47.21875 7.46875 41.1875 3.015625 
Q 35.15625 -1.421875 24.609375 -1.421875 
Q 20.21875 -1.421875 15.453125 -0.5625 
Q 10.6875 0.296875 5.421875 2 
L 5.421875 11.28125 
Q 10.40625 8.6875 15.234375 7.390625 
Q 20.0625 6.109375 24.8125 6.109375 
Q 31.15625 6.109375 34.5625 8.28125 
Q 37.984375 10.453125 37.984375 14.40625 
Q 37.984375 18.0625 35.515625 20.015625 
Q 33.0625 21.96875 24.703125 23.78125 
L 21.578125 24.515625 
Q 13.234375 26.265625 9.515625 29.90625 
Q 5.8125 33.546875 5.8125 39.890625 
Q 5.8125 47.609375 11.28125 51.796875 
Q 16.75 56 26.8125 56 
Q 31.78125 56 36.171875 55.265625 
Q 40.578125 54.546875 44.28125 53.078125 
z
" id="DejaVuSans-115"/>
      </defs>
      <g transform="translate(188.279346 514.773625)rotate(-90)scale(0.088 -0.088)">
       <use xlink:href="#DejaVuSans-65"/>
       <use x="68.408203" xlink:href="#DejaVuSans-103"/>
       <use x="131.884766" xlink:href="#DejaVuSans-101"/>
       <use x="193.408203" xlink:href="#DejaVuSans-32"/>
       <use x="225.195312" xlink:href="#DejaVuSans-97"/>
       <use x="286.474609" xlink:href="#DejaVuSans-116"/>
       <use x="325.683594" xlink:href="#DejaVuSans-32"/>
       <use x="357.470703" xlink:href="#DejaVuSans-77"/>
       <use x="443.75" xlink:href="#DejaVuSans-101"/>
       <use x="505.273438" xlink:href="#DejaVuSans-110"/>
       <use x="568.652344" xlink:href="#DejaVuSans-111"/>
       <use x="629.833984" xlink:href="#DejaVuSans-112"/>
       <use x="693.310547" xlink:href="#DejaVuSans-97"/>
       <use x="754.589844" xlink:href="#DejaVuSans-117"/>
       <use x="817.96875" xlink:href="#DejaVuSans-115"/>
       <use x="870.068359" xlink:href="#DejaVuSans-101"/>
      </g>
     </g>
    </g>
    <g id="xtick_3">
     <g id="line2d_3">
      <g>
       <use style="stroke:#000000;" x="255.945584" xlink:href="#mbcd21a4e1c" y="424.492"/>
      </g>
     </g>
     <g id="text_3">
      <!-- Height -->
      <defs>
       <path d="M 9.8125 72.90625 
L 19.671875 72.90625 
L 19.671875 43.015625 
L 55.515625 43.015625 
L 55.515625 72.90625 
L 65.375 72.90625 
L 65.375 0 
L 55.515625 0 
L 55.515625 34.71875 
L 19.671875 34.71875 
L 19.671875 0 
L 9.8125 0 
z
" id="DejaVuSans-72"/>
       <path d="M 9.421875 54.6875 
L 18.40625 54.6875 
L 18.40625 0 
L 9.421875 0 
z
M 9.421875 75.984375 
L 18.40625 75.984375 
L 18.40625 64.59375 
L 9.421875 64.59375 
z
" id="DejaVuSans-105"/>
      </defs>
      <g transform="translate(258.373834 461.882875)rotate(-90)scale(0.088 -0.088)">
       <use xlink:href="#DejaVuSans-72"/>
       <use x="75.195312" xlink:href="#DejaVuSans-101"/>
       <use x="136.71875" xlink:href="#DejaVuSans-105"/>
       <use x="164.501953" xlink:href="#DejaVuSans-103"/>
       <use x="227.978516" xlink:href="#DejaVuSans-104"/>
       <use x="291.357422" xlink:href="#DejaVuSans-116"/>
      </g>
     </g>
    </g>
    <g id="xtick_4">
     <g id="line2d_4">
      <g>
       <use style="stroke:#000000;" x="326.040072" xlink:href="#mbcd21a4e1c" y="424.492"/>
      </g>
     </g>
     <g id="text_4">
      <!-- BMI -->
      <defs>
       <path d="M 19.671875 34.8125 
L 19.671875 8.109375 
L 35.5 8.109375 
Q 43.453125 8.109375 47.28125 11.40625 
Q 51.125 14.703125 51.125 21.484375 
Q 51.125 28.328125 47.28125 31.5625 
Q 43.453125 34.8125 35.5 34.8125 
z
M 19.671875 64.796875 
L 19.671875 42.828125 
L 34.28125 42.828125 
Q 41.5 42.828125 45.03125 45.53125 
Q 48.578125 48.25 48.578125 53.8125 
Q 48.578125 59.328125 45.03125 62.0625 
Q 41.5 64.796875 34.28125 64.796875 
z
M 9.8125 72.90625 
L 35.015625 72.90625 
Q 46.296875 72.90625 52.390625 68.21875 
Q 58.5 63.53125 58.5 54.890625 
Q 58.5 48.1875 55.375 44.234375 
Q 52.25 40.28125 46.1875 39.3125 
Q 53.46875 37.75 57.5 32.78125 
Q 61.53125 27.828125 61.53125 20.40625 
Q 61.53125 10.640625 54.890625 5.3125 
Q 48.25 0 35.984375 0 
L 9.8125 0 
z
" id="DejaVuSans-66"/>
       <path d="M 9.8125 72.90625 
L 19.671875 72.90625 
L 19.671875 0 
L 9.8125 0 
z
" id="DejaVuSans-73"/>
      </defs>
      <g transform="translate(328.468322 449.018375)rotate(-90)scale(0.088 -0.088)">
       <use xlink:href="#DejaVuSans-66"/>
       <use x="68.603516" xlink:href="#DejaVuSans-77"/>
       <use x="154.882812" xlink:href="#DejaVuSans-73"/>
      </g>
     </g>
    </g>
    <g id="xtick_5">
     <g id="line2d_5">
      <g>
       <use style="stroke:#000000;" x="396.134559" xlink:href="#mbcd21a4e1c" y="424.492"/>
      </g>
     </g>
     <g id="text_5">
      <!-- Waist-hip Ratio -->
      <defs>
       <path d="M 3.328125 72.90625 
L 13.28125 72.90625 
L 28.609375 11.28125 
L 43.890625 72.90625 
L 54.984375 72.90625 
L 70.3125 11.28125 
L 85.59375 72.90625 
L 95.609375 72.90625 
L 77.296875 0 
L 64.890625 0 
L 49.515625 63.28125 
L 33.984375 0 
L 21.578125 0 
z
" id="DejaVuSans-87"/>
       <path d="M 4.890625 31.390625 
L 31.203125 31.390625 
L 31.203125 23.390625 
L 4.890625 23.390625 
z
" id="DejaVuSans-45"/>
       <path d="M 44.390625 34.1875 
Q 47.5625 33.109375 50.5625 29.59375 
Q 53.5625 26.078125 56.59375 19.921875 
L 66.609375 0 
L 56 0 
L 46.6875 18.703125 
Q 43.0625 26.03125 39.671875 28.421875 
Q 36.28125 30.8125 30.421875 30.8125 
L 19.671875 30.8125 
L 19.671875 0 
L 9.8125 0 
L 9.8125 72.90625 
L 32.078125 72.90625 
Q 44.578125 72.90625 50.734375 67.671875 
Q 56.890625 62.453125 56.890625 51.90625 
Q 56.890625 45.015625 53.6875 40.46875 
Q 50.484375 35.9375 44.390625 34.1875 
z
M 19.671875 64.796875 
L 19.671875 38.921875 
L 32.078125 38.921875 
Q 39.203125 38.921875 42.84375 42.21875 
Q 46.484375 45.515625 46.484375 51.90625 
Q 46.484375 58.296875 42.84375 61.546875 
Q 39.203125 64.796875 32.078125 64.796875 
z
" id="DejaVuSans-82"/>
      </defs>
      <g transform="translate(398.562809 498.972125)rotate(-90)scale(0.088 -0.088)">
       <use xlink:href="#DejaVuSans-87"/>
       <use x="92.501953" xlink:href="#DejaVuSans-97"/>
       <use x="153.78125" xlink:href="#DejaVuSans-105"/>
       <use x="181.564453" xlink:href="#DejaVuSans-115"/>
       <use x="233.664062" xlink:href="#DejaVuSans-116"/>
       <use x="272.873047" xlink:href="#DejaVuSans-45"/>
       <use x="308.957031" xlink:href="#DejaVuSans-104"/>
       <use x="372.335938" xlink:href="#DejaVuSans-105"/>
       <use x="400.119141" xlink:href="#DejaVuSans-112"/>
       <use x="463.595703" xlink:href="#DejaVuSans-32"/>
       <use x="495.382812" xlink:href="#DejaVuSans-82"/>
       <use x="562.615234" xlink:href="#DejaVuSans-97"/>
       <use x="623.894531" xlink:href="#DejaVuSans-116"/>
       <use x="663.103516" xlink:href="#DejaVuSans-105"/>
       <use x="690.886719" xlink:href="#DejaVuSans-111"/>
      </g>
     </g>
    </g>
    <g id="xtick_6">
     <g id="line2d_6">
      <g>
       <use style="stroke:#000000;" x="466.229047" xlink:href="#mbcd21a4e1c" y="424.492"/>
      </g>
     </g>
     <g id="text_6">
      <!-- Systolic Blood Pressure -->
      <defs>
       <path d="M 53.515625 70.515625 
L 53.515625 60.890625 
Q 47.90625 63.578125 42.921875 64.890625 
Q 37.9375 66.21875 33.296875 66.21875 
Q 25.25 66.21875 20.875 63.09375 
Q 16.5 59.96875 16.5 54.203125 
Q 16.5 49.359375 19.40625 46.890625 
Q 22.3125 44.4375 30.421875 42.921875 
L 36.375 41.703125 
Q 47.40625 39.59375 52.65625 34.296875 
Q 57.90625 29 57.90625 20.125 
Q 57.90625 9.515625 50.796875 4.046875 
Q 43.703125 -1.421875 29.984375 -1.421875 
Q 24.8125 -1.421875 18.96875 -0.25 
Q 13.140625 0.921875 6.890625 3.21875 
L 6.890625 13.375 
Q 12.890625 10.015625 18.65625 8.296875 
Q 24.421875 6.59375 29.984375 6.59375 
Q 38.421875 6.59375 43.015625 9.90625 
Q 47.609375 13.234375 47.609375 19.390625 
Q 47.609375 24.75 44.3125 27.78125 
Q 41.015625 30.8125 33.5 32.328125 
L 27.484375 33.5 
Q 16.453125 35.6875 11.515625 40.375 
Q 6.59375 45.0625 6.59375 53.421875 
Q 6.59375 63.09375 13.40625 68.65625 
Q 20.21875 74.21875 32.171875 74.21875 
Q 37.3125 74.21875 42.625 73.28125 
Q 47.953125 72.359375 53.515625 70.515625 
z
" id="DejaVuSans-83"/>
       <path d="M 32.171875 -5.078125 
Q 28.375 -14.84375 24.75 -17.8125 
Q 21.140625 -20.796875 15.09375 -20.796875 
L 7.90625 -20.796875 
L 7.90625 -13.28125 
L 13.1875 -13.28125 
Q 16.890625 -13.28125 18.9375 -11.515625 
Q 21 -9.765625 23.484375 -3.21875 
L 25.09375 0.875 
L 2.984375 54.6875 
L 12.5 54.6875 
L 29.59375 11.921875 
L 46.6875 54.6875 
L 56.203125 54.6875 
z
" id="DejaVuSans-121"/>
       <path d="M 9.421875 75.984375 
L 18.40625 75.984375 
L 18.40625 0 
L 9.421875 0 
z
" id="DejaVuSans-108"/>
       <path d="M 45.40625 46.390625 
L 45.40625 75.984375 
L 54.390625 75.984375 
L 54.390625 0 
L 45.40625 0 
L 45.40625 8.203125 
Q 42.578125 3.328125 38.25 0.953125 
Q 33.9375 -1.421875 27.875 -1.421875 
Q 17.96875 -1.421875 11.734375 6.484375 
Q 5.515625 14.40625 5.515625 27.296875 
Q 5.515625 40.1875 11.734375 48.09375 
Q 17.96875 56 27.875 56 
Q 33.9375 56 38.25 53.625 
Q 42.578125 51.265625 45.40625 46.390625 
z
M 14.796875 27.296875 
Q 14.796875 17.390625 18.875 11.75 
Q 22.953125 6.109375 30.078125 6.109375 
Q 37.203125 6.109375 41.296875 11.75 
Q 45.40625 17.390625 45.40625 27.296875 
Q 45.40625 37.203125 41.296875 42.84375 
Q 37.203125 48.484375 30.078125 48.484375 
Q 22.953125 48.484375 18.875 42.84375 
Q 14.796875 37.203125 14.796875 27.296875 
z
" id="DejaVuSans-100"/>
       <path d="M 19.671875 64.796875 
L 19.671875 37.40625 
L 32.078125 37.40625 
Q 38.96875 37.40625 42.71875 40.96875 
Q 46.484375 44.53125 46.484375 51.125 
Q 46.484375 57.671875 42.71875 61.234375 
Q 38.96875 64.796875 32.078125 64.796875 
z
M 9.8125 72.90625 
L 32.078125 72.90625 
Q 44.34375 72.90625 50.609375 67.359375 
Q 56.890625 61.8125 56.890625 51.125 
Q 56.890625 40.328125 50.609375 34.8125 
Q 44.34375 29.296875 32.078125 29.296875 
L 19.671875 29.296875 
L 19.671875 0 
L 9.8125 0 
z
" id="DejaVuSans-80"/>
      </defs>
      <g transform="translate(468.657297 534.73175)rotate(-90)scale(0.088 -0.088)">
       <use xlink:href="#DejaVuSans-83"/>
       <use x="63.476562" xlink:href="#DejaVuSans-121"/>
       <use x="122.65625" xlink:href="#DejaVuSans-115"/>
       <use x="174.755859" xlink:href="#DejaVuSans-116"/>
       <use x="213.964844" xlink:href="#DejaVuSans-111"/>
       <use x="275.146484" xlink:href="#DejaVuSans-108"/>
       <use x="302.929688" xlink:href="#DejaVuSans-105"/>
       <use x="330.712891" xlink:href="#DejaVuSans-99"/>
       <use x="385.693359" xlink:href="#DejaVuSans-32"/>
       <use x="417.480469" xlink:href="#DejaVuSans-66"/>
       <use x="486.083984" xlink:href="#DejaVuSans-108"/>
       <use x="513.867188" xlink:href="#DejaVuSans-111"/>
       <use x="575.048828" xlink:href="#DejaVuSans-111"/>
       <use x="636.230469" xlink:href="#DejaVuSans-100"/>
       <use x="699.707031" xlink:href="#DejaVuSans-32"/>
       <use x="731.494141" xlink:href="#DejaVuSans-80"/>
       <use x="790.046875" xlink:href="#DejaVuSans-114"/>
       <use x="828.910156" xlink:href="#DejaVuSans-101"/>
       <use x="890.433594" xlink:href="#DejaVuSans-115"/>
       <use x="942.533203" xlink:href="#DejaVuSans-115"/>
       <use x="994.632812" xlink:href="#DejaVuSans-117"/>
       <use x="1058.011719" xlink:href="#DejaVuSans-114"/>
       <use x="1096.875" xlink:href="#DejaVuSans-101"/>
      </g>
     </g>
    </g>
    <g id="xtick_7">
     <g id="line2d_7">
      <g>
       <use style="stroke:#000000;" x="536.323535" xlink:href="#mbcd21a4e1c" y="424.492"/>
      </g>
     </g>
     <g id="text_7">
      <!-- High Cholesterol -->
      <defs>
       <path d="M 64.40625 67.28125 
L 64.40625 56.890625 
Q 59.421875 61.53125 53.78125 63.8125 
Q 48.140625 66.109375 41.796875 66.109375 
Q 29.296875 66.109375 22.65625 58.46875 
Q 16.015625 50.828125 16.015625 36.375 
Q 16.015625 21.96875 22.65625 14.328125 
Q 29.296875 6.6875 41.796875 6.6875 
Q 48.140625 6.6875 53.78125 8.984375 
Q 59.421875 11.28125 64.40625 15.921875 
L 64.40625 5.609375 
Q 59.234375 2.09375 53.4375 0.328125 
Q 47.65625 -1.421875 41.21875 -1.421875 
Q 24.65625 -1.421875 15.125 8.703125 
Q 5.609375 18.84375 5.609375 36.375 
Q 5.609375 53.953125 15.125 64.078125 
Q 24.65625 74.21875 41.21875 74.21875 
Q 47.75 74.21875 53.53125 72.484375 
Q 59.328125 70.75 64.40625 67.28125 
z
" id="DejaVuSans-67"/>
      </defs>
      <g transform="translate(538.751785 505.478625)rotate(-90)scale(0.088 -0.088)">
       <use xlink:href="#DejaVuSans-72"/>
       <use x="75.195312" xlink:href="#DejaVuSans-105"/>
       <use x="102.978516" xlink:href="#DejaVuSans-103"/>
       <use x="166.455078" xlink:href="#DejaVuSans-104"/>
       <use x="229.833984" xlink:href="#DejaVuSans-32"/>
       <use x="261.621094" xlink:href="#DejaVuSans-67"/>
       <use x="331.445312" xlink:href="#DejaVuSans-104"/>
       <use x="394.824219" xlink:href="#DejaVuSans-111"/>
       <use x="456.005859" xlink:href="#DejaVuSans-108"/>
       <use x="483.789062" xlink:href="#DejaVuSans-101"/>
       <use x="545.3125" xlink:href="#DejaVuSans-115"/>
       <use x="597.412109" xlink:href="#DejaVuSans-116"/>
       <use x="636.621094" xlink:href="#DejaVuSans-101"/>
       <use x="698.144531" xlink:href="#DejaVuSans-114"/>
       <use x="737.007812" xlink:href="#DejaVuSans-111"/>
       <use x="798.189453" xlink:href="#DejaVuSans-108"/>
      </g>
     </g>
    </g>
    <g id="xtick_8">
     <g id="line2d_8">
      <g>
       <use style="stroke:#000000;" x="606.418023" xlink:href="#mbcd21a4e1c" y="424.492"/>
      </g>
     </g>
     <g id="text_8">
      <!-- Type 2 diabetes -->
      <defs>
       <path d="M -0.296875 72.90625 
L 61.375 72.90625 
L 61.375 64.59375 
L 35.5 64.59375 
L 35.5 0 
L 25.59375 0 
L 25.59375 64.59375 
L -0.296875 64.59375 
z
" id="DejaVuSans-84"/>
       <path d="M 19.1875 8.296875 
L 53.609375 8.296875 
L 53.609375 0 
L 7.328125 0 
L 7.328125 8.296875 
Q 12.9375 14.109375 22.625 23.890625 
Q 32.328125 33.6875 34.8125 36.53125 
Q 39.546875 41.84375 41.421875 45.53125 
Q 43.3125 49.21875 43.3125 52.78125 
Q 43.3125 58.59375 39.234375 62.25 
Q 35.15625 65.921875 28.609375 65.921875 
Q 23.96875 65.921875 18.8125 64.3125 
Q 13.671875 62.703125 7.8125 59.421875 
L 7.8125 69.390625 
Q 13.765625 71.78125 18.9375 73 
Q 24.125 74.21875 28.421875 74.21875 
Q 39.75 74.21875 46.484375 68.546875 
Q 53.21875 62.890625 53.21875 53.421875 
Q 53.21875 48.921875 51.53125 44.890625 
Q 49.859375 40.875 45.40625 35.40625 
Q 44.1875 33.984375 37.640625 27.21875 
Q 31.109375 20.453125 19.1875 8.296875 
z
" id="DejaVuSans-50"/>
       <path d="M 48.6875 27.296875 
Q 48.6875 37.203125 44.609375 42.84375 
Q 40.53125 48.484375 33.40625 48.484375 
Q 26.265625 48.484375 22.1875 42.84375 
Q 18.109375 37.203125 18.109375 27.296875 
Q 18.109375 17.390625 22.1875 11.75 
Q 26.265625 6.109375 33.40625 6.109375 
Q 40.53125 6.109375 44.609375 11.75 
Q 48.6875 17.390625 48.6875 27.296875 
z
M 18.109375 46.390625 
Q 20.953125 51.265625 25.265625 53.625 
Q 29.59375 56 35.59375 56 
Q 45.5625 56 51.78125 48.09375 
Q 58.015625 40.1875 58.015625 27.296875 
Q 58.015625 14.40625 51.78125 6.484375 
Q 45.5625 -1.421875 35.59375 -1.421875 
Q 29.59375 -1.421875 25.265625 0.953125 
Q 20.953125 3.328125 18.109375 8.203125 
L 18.109375 0 
L 9.078125 0 
L 9.078125 75.984375 
L 18.109375 75.984375 
z
" id="DejaVuSans-98"/>
      </defs>
      <g transform="translate(608.846273 502.068625)rotate(-90)scale(0.088 -0.088)">
       <use xlink:href="#DejaVuSans-84"/>
       <use x="45.458984" xlink:href="#DejaVuSans-121"/>
       <use x="104.638672" xlink:href="#DejaVuSans-112"/>
       <use x="168.115234" xlink:href="#DejaVuSans-101"/>
       <use x="229.638672" xlink:href="#DejaVuSans-32"/>
       <use x="261.425781" xlink:href="#DejaVuSans-50"/>
       <use x="325.048828" xlink:href="#DejaVuSans-32"/>
       <use x="356.835938" xlink:href="#DejaVuSans-100"/>
       <use x="420.3125" xlink:href="#DejaVuSans-105"/>
       <use x="448.095703" xlink:href="#DejaVuSans-97"/>
       <use x="509.375" xlink:href="#DejaVuSans-98"/>
       <use x="572.851562" xlink:href="#DejaVuSans-101"/>
       <use x="634.375" xlink:href="#DejaVuSans-116"/>
       <use x="673.583984" xlink:href="#DejaVuSans-101"/>
       <use x="735.107422" xlink:href="#DejaVuSans-115"/>
      </g>
     </g>
    </g>
    <g id="xtick_9">
     <g id="line2d_9">
      <g>
       <use style="stroke:#000000;" x="676.51251" xlink:href="#mbcd21a4e1c" y="424.492"/>
      </g>
     </g>
     <g id="text_9">
      <!-- Respiratory and ENT Diseases -->
      <defs>
       <path d="M 9.8125 72.90625 
L 55.90625 72.90625 
L 55.90625 64.59375 
L 19.671875 64.59375 
L 19.671875 43.015625 
L 54.390625 43.015625 
L 54.390625 34.71875 
L 19.671875 34.71875 
L 19.671875 8.296875 
L 56.78125 8.296875 
L 56.78125 0 
L 9.8125 0 
z
" id="DejaVuSans-69"/>
       <path d="M 9.8125 72.90625 
L 23.09375 72.90625 
L 55.421875 11.921875 
L 55.421875 72.90625 
L 64.984375 72.90625 
L 64.984375 0 
L 51.703125 0 
L 19.390625 60.984375 
L 19.390625 0 
L 9.8125 0 
z
" id="DejaVuSans-78"/>
       <path d="M 19.671875 64.796875 
L 19.671875 8.109375 
L 31.59375 8.109375 
Q 46.6875 8.109375 53.6875 14.9375 
Q 60.6875 21.78125 60.6875 36.53125 
Q 60.6875 51.171875 53.6875 57.984375 
Q 46.6875 64.796875 31.59375 64.796875 
z
M 9.8125 72.90625 
L 30.078125 72.90625 
Q 51.265625 72.90625 61.171875 64.09375 
Q 71.09375 55.28125 71.09375 36.53125 
Q 71.09375 17.671875 61.125 8.828125 
Q 51.171875 0 30.078125 0 
L 9.8125 0 
z
" id="DejaVuSans-68"/>
      </defs>
      <g transform="translate(678.94076 564.873125)rotate(-90)scale(0.088 -0.088)">
       <use xlink:href="#DejaVuSans-82"/>
       <use x="64.982422" xlink:href="#DejaVuSans-101"/>
       <use x="126.505859" xlink:href="#DejaVuSans-115"/>
       <use x="178.605469" xlink:href="#DejaVuSans-112"/>
       <use x="242.082031" xlink:href="#DejaVuSans-105"/>
       <use x="269.865234" xlink:href="#DejaVuSans-114"/>
       <use x="310.978516" xlink:href="#DejaVuSans-97"/>
       <use x="372.257812" xlink:href="#DejaVuSans-116"/>
       <use x="411.466797" xlink:href="#DejaVuSans-111"/>
       <use x="472.648438" xlink:href="#DejaVuSans-114"/>
       <use x="513.761719" xlink:href="#DejaVuSans-121"/>
       <use x="572.941406" xlink:href="#DejaVuSans-32"/>
       <use x="604.728516" xlink:href="#DejaVuSans-97"/>
       <use x="666.007812" xlink:href="#DejaVuSans-110"/>
       <use x="729.386719" xlink:href="#DejaVuSans-100"/>
       <use x="792.863281" xlink:href="#DejaVuSans-32"/>
       <use x="824.650391" xlink:href="#DejaVuSans-69"/>
       <use x="887.833984" xlink:href="#DejaVuSans-78"/>
       <use x="962.638672" xlink:href="#DejaVuSans-84"/>
       <use x="1023.722656" xlink:href="#DejaVuSans-32"/>
       <use x="1055.509766" xlink:href="#DejaVuSans-68"/>
       <use x="1132.511719" xlink:href="#DejaVuSans-105"/>
       <use x="1160.294922" xlink:href="#DejaVuSans-115"/>
       <use x="1212.394531" xlink:href="#DejaVuSans-101"/>
       <use x="1273.917969" xlink:href="#DejaVuSans-97"/>
       <use x="1335.197266" xlink:href="#DejaVuSans-115"/>
       <use x="1387.296875" xlink:href="#DejaVuSans-101"/>
       <use x="1448.820312" xlink:href="#DejaVuSans-115"/>
      </g>
     </g>
    </g>
    <g id="xtick_10">
     <g id="line2d_10">
      <g>
       <use style="stroke:#000000;" x="746.606998" xlink:href="#mbcd21a4e1c" y="424.492"/>
      </g>
     </g>
     <g id="text_10">
      <!-- Auto Immune Traits -->
      <defs>
       <path d="M 52 44.1875 
Q 55.375 50.25 60.0625 53.125 
Q 64.75 56 71.09375 56 
Q 79.640625 56 84.28125 50.015625 
Q 88.921875 44.046875 88.921875 33.015625 
L 88.921875 0 
L 79.890625 0 
L 79.890625 32.71875 
Q 79.890625 40.578125 77.09375 44.375 
Q 74.3125 48.1875 68.609375 48.1875 
Q 61.625 48.1875 57.5625 43.546875 
Q 53.515625 38.921875 53.515625 30.90625 
L 53.515625 0 
L 44.484375 0 
L 44.484375 32.71875 
Q 44.484375 40.625 41.703125 44.40625 
Q 38.921875 48.1875 33.109375 48.1875 
Q 26.21875 48.1875 22.15625 43.53125 
Q 18.109375 38.875 18.109375 30.90625 
L 18.109375 0 
L 9.078125 0 
L 9.078125 54.6875 
L 18.109375 54.6875 
L 18.109375 46.1875 
Q 21.1875 51.21875 25.484375 53.609375 
Q 29.78125 56 35.6875 56 
Q 41.65625 56 45.828125 52.96875 
Q 50 49.953125 52 44.1875 
z
" id="DejaVuSans-109"/>
      </defs>
      <g transform="translate(749.035248 518.691)rotate(-90)scale(0.088 -0.088)">
       <use xlink:href="#DejaVuSans-65"/>
       <use x="68.408203" xlink:href="#DejaVuSans-117"/>
       <use x="131.787109" xlink:href="#DejaVuSans-116"/>
       <use x="170.996094" xlink:href="#DejaVuSans-111"/>
       <use x="232.177734" xlink:href="#DejaVuSans-32"/>
       <use x="263.964844" xlink:href="#DejaVuSans-73"/>
       <use x="293.457031" xlink:href="#DejaVuSans-109"/>
       <use x="390.869141" xlink:href="#DejaVuSans-109"/>
       <use x="488.28125" xlink:href="#DejaVuSans-117"/>
       <use x="551.660156" xlink:href="#DejaVuSans-110"/>
       <use x="615.039062" xlink:href="#DejaVuSans-101"/>
       <use x="676.5625" xlink:href="#DejaVuSans-32"/>
       <use x="708.349609" xlink:href="#DejaVuSans-84"/>
       <use x="754.683594" xlink:href="#DejaVuSans-114"/>
       <use x="795.796875" xlink:href="#DejaVuSans-97"/>
       <use x="857.076172" xlink:href="#DejaVuSans-105"/>
       <use x="884.859375" xlink:href="#DejaVuSans-116"/>
       <use x="924.068359" xlink:href="#DejaVuSans-115"/>
      </g>
     </g>
    </g>
    <g id="xtick_11">
     <g id="line2d_11">
      <g>
       <use style="stroke:#000000;" x="816.701486" xlink:href="#mbcd21a4e1c" y="424.492"/>
      </g>
     </g>
     <g id="text_11">
      <!-- Eczema -->
      <defs>
       <path d="M 5.515625 54.6875 
L 48.1875 54.6875 
L 48.1875 46.484375 
L 14.40625 7.171875 
L 48.1875 7.171875 
L 48.1875 0 
L 4.296875 0 
L 4.296875 8.203125 
L 38.09375 47.515625 
L 5.515625 47.515625 
z
" id="DejaVuSans-122"/>
      </defs>
      <g transform="translate(819.129736 467.189)rotate(-90)scale(0.088 -0.088)">
       <use xlink:href="#DejaVuSans-69"/>
       <use x="63.183594" xlink:href="#DejaVuSans-99"/>
       <use x="118.164062" xlink:href="#DejaVuSans-122"/>
       <use x="170.654297" xlink:href="#DejaVuSans-101"/>
       <use x="232.177734" xlink:href="#DejaVuSans-109"/>
       <use x="329.589844" xlink:href="#DejaVuSans-97"/>
      </g>
     </g>
    </g>
    <g id="xtick_12">
     <g id="line2d_12">
      <g>
       <use style="stroke:#000000;" x="886.795974" xlink:href="#mbcd21a4e1c" y="424.492"/>
      </g>
     </g>
     <g id="text_12">
      <!-- Hypothyroidism -->
      <g transform="translate(889.224224 502.261125)rotate(-90)scale(0.088 -0.088)">
       <use xlink:href="#DejaVuSans-72"/>
       <use x="75.195312" xlink:href="#DejaVuSans-121"/>
       <use x="134.375" xlink:href="#DejaVuSans-112"/>
       <use x="197.851562" xlink:href="#DejaVuSans-111"/>
       <use x="259.033203" xlink:href="#DejaVuSans-116"/>
       <use x="298.242188" xlink:href="#DejaVuSans-104"/>
       <use x="361.621094" xlink:href="#DejaVuSans-121"/>
       <use x="420.800781" xlink:href="#DejaVuSans-114"/>
       <use x="459.664062" xlink:href="#DejaVuSans-111"/>
       <use x="520.845703" xlink:href="#DejaVuSans-105"/>
       <use x="548.628906" xlink:href="#DejaVuSans-100"/>
       <use x="612.105469" xlink:href="#DejaVuSans-105"/>
       <use x="639.888672" xlink:href="#DejaVuSans-115"/>
       <use x="691.988281" xlink:href="#DejaVuSans-109"/>
      </g>
     </g>
    </g>
   </g>
   <g id="matplotlib.axis_2">
    <g id="ytick_1">
     <g id="line2d_13">
      <defs>
       <path d="M 0 0 
L -4.8 0 
" id="m784a742d0e" style="stroke:#000000;"/>
      </defs>
      <g>
       <use style="stroke:#000000;" x="45.078" xlink:href="#m784a742d0e" y="422.453559"/>
      </g>
     </g>
     <g id="text_13">
      <!-- −5 -->
      <defs>
       <path d="M 10.59375 35.5 
L 73.1875 35.5 
L 73.1875 27.203125 
L 10.59375 27.203125 
z
" id="DejaVuSans-8722"/>
       <path d="M 10.796875 72.90625 
L 49.515625 72.90625 
L 49.515625 64.59375 
L 19.828125 64.59375 
L 19.828125 46.734375 
Q 21.96875 47.46875 24.109375 47.828125 
Q 26.265625 48.1875 28.421875 48.1875 
Q 40.625 48.1875 47.75 41.5 
Q 54.890625 34.8125 54.890625 23.390625 
Q 54.890625 11.625 47.5625 5.09375 
Q 40.234375 -1.421875 26.90625 -1.421875 
Q 22.3125 -1.421875 17.546875 -0.640625 
Q 12.796875 0.140625 7.71875 1.703125 
L 7.71875 11.625 
Q 12.109375 9.234375 16.796875 8.0625 
Q 21.484375 6.890625 26.703125 6.890625 
Q 35.15625 6.890625 40.078125 11.328125 
Q 45.015625 15.765625 45.015625 23.390625 
Q 45.015625 31 40.078125 35.4375 
Q 35.15625 39.890625 26.703125 39.890625 
Q 22.75 39.890625 18.8125 39.015625 
Q 14.890625 38.140625 10.796875 36.28125 
z
" id="DejaVuSans-53"/>
      </defs>
      <g transform="translate(23.804875 425.796872)scale(0.088 -0.088)">
       <use xlink:href="#DejaVuSans-8722"/>
       <use x="83.789062" xlink:href="#DejaVuSans-53"/>
      </g>
     </g>
    </g>
    <g id="ytick_2">
     <g id="line2d_14">
      <g>
       <use style="stroke:#000000;" x="45.078" xlink:href="#m784a742d0e" y="340.122182"/>
      </g>
     </g>
     <g id="text_14">
      <!-- 0 -->
      <defs>
       <path d="M 31.78125 66.40625 
Q 24.171875 66.40625 20.328125 58.90625 
Q 16.5 51.421875 16.5 36.375 
Q 16.5 21.390625 20.328125 13.890625 
Q 24.171875 6.390625 31.78125 6.390625 
Q 39.453125 6.390625 43.28125 13.890625 
Q 47.125 21.390625 47.125 36.375 
Q 47.125 51.421875 43.28125 58.90625 
Q 39.453125 66.40625 31.78125 66.40625 
z
M 31.78125 74.21875 
Q 44.046875 74.21875 50.515625 64.515625 
Q 56.984375 54.828125 56.984375 36.375 
Q 56.984375 17.96875 50.515625 8.265625 
Q 44.046875 -1.421875 31.78125 -1.421875 
Q 19.53125 -1.421875 13.0625 8.265625 
Q 6.59375 17.96875 6.59375 36.375 
Q 6.59375 54.828125 13.0625 64.515625 
Q 19.53125 74.21875 31.78125 74.21875 
z
" id="DejaVuSans-48"/>
      </defs>
      <g transform="translate(31.179 343.465495)scale(0.088 -0.088)">
       <use xlink:href="#DejaVuSans-48"/>
      </g>
     </g>
    </g>
    <g id="ytick_3">
     <g id="line2d_15">
      <g>
       <use style="stroke:#000000;" x="45.078" xlink:href="#m784a742d0e" y="257.790805"/>
      </g>
     </g>
     <g id="text_15">
      <!-- 5 -->
      <g transform="translate(31.179 261.134118)scale(0.088 -0.088)">
       <use xlink:href="#DejaVuSans-53"/>
      </g>
     </g>
    </g>
    <g id="ytick_4">
     <g id="line2d_16">
      <g>
       <use style="stroke:#000000;" x="45.078" xlink:href="#m784a742d0e" y="175.459428"/>
      </g>
     </g>
     <g id="text_16">
      <!-- 10 -->
      <defs>
       <path d="M 12.40625 8.296875 
L 28.515625 8.296875 
L 28.515625 63.921875 
L 10.984375 60.40625 
L 10.984375 69.390625 
L 28.421875 72.90625 
L 38.28125 72.90625 
L 38.28125 8.296875 
L 54.390625 8.296875 
L 54.390625 0 
L 12.40625 0 
z
" id="DejaVuSans-49"/>
      </defs>
      <g transform="translate(25.58 178.80274)scale(0.088 -0.088)">
       <use xlink:href="#DejaVuSans-49"/>
       <use x="63.623047" xlink:href="#DejaVuSans-48"/>
      </g>
     </g>
    </g>
    <g id="ytick_5">
     <g id="line2d_17">
      <g>
       <use style="stroke:#000000;" x="45.078" xlink:href="#m784a742d0e" y="93.128051"/>
      </g>
     </g>
     <g id="text_17">
      <!-- 15 -->
      <g transform="translate(25.58 96.471363)scale(0.088 -0.088)">
       <use xlink:href="#DejaVuSans-49"/>
       <use x="63.623047" xlink:href="#DejaVuSans-53"/>
      </g>
     </g>
    </g>
    <g id="text_18">
     <!-- Intercept (% difference w.r.t. S-LDSC) -->
     <defs>
      <path d="M 31 75.875 
Q 24.46875 64.65625 21.28125 53.65625 
Q 18.109375 42.671875 18.109375 31.390625 
Q 18.109375 20.125 21.3125 9.0625 
Q 24.515625 -2 31 -13.1875 
L 23.1875 -13.1875 
Q 15.875 -1.703125 12.234375 9.375 
Q 8.59375 20.453125 8.59375 31.390625 
Q 8.59375 42.28125 12.203125 53.3125 
Q 15.828125 64.359375 23.1875 75.875 
z
" id="DejaVuSans-40"/>
      <path d="M 72.703125 32.078125 
Q 68.453125 32.078125 66.03125 28.46875 
Q 63.625 24.859375 63.625 18.40625 
Q 63.625 12.0625 66.03125 8.421875 
Q 68.453125 4.78125 72.703125 4.78125 
Q 76.859375 4.78125 79.265625 8.421875 
Q 81.6875 12.0625 81.6875 18.40625 
Q 81.6875 24.8125 79.265625 28.4375 
Q 76.859375 32.078125 72.703125 32.078125 
z
M 72.703125 38.28125 
Q 80.421875 38.28125 84.953125 32.90625 
Q 89.5 27.546875 89.5 18.40625 
Q 89.5 9.28125 84.9375 3.921875 
Q 80.375 -1.421875 72.703125 -1.421875 
Q 64.890625 -1.421875 60.34375 3.921875 
Q 55.8125 9.28125 55.8125 18.40625 
Q 55.8125 27.59375 60.375 32.9375 
Q 64.9375 38.28125 72.703125 38.28125 
z
M 22.3125 68.015625 
Q 18.109375 68.015625 15.6875 64.375 
Q 13.28125 60.75 13.28125 54.390625 
Q 13.28125 47.953125 15.671875 44.328125 
Q 18.0625 40.71875 22.3125 40.71875 
Q 26.5625 40.71875 28.96875 44.328125 
Q 31.390625 47.953125 31.390625 54.390625 
Q 31.390625 60.6875 28.953125 64.34375 
Q 26.515625 68.015625 22.3125 68.015625 
z
M 66.40625 74.21875 
L 74.21875 74.21875 
L 28.609375 -1.421875 
L 20.796875 -1.421875 
z
M 22.3125 74.21875 
Q 30.03125 74.21875 34.609375 68.875 
Q 39.203125 63.53125 39.203125 54.390625 
Q 39.203125 45.171875 34.640625 39.84375 
Q 30.078125 34.515625 22.3125 34.515625 
Q 14.546875 34.515625 10.03125 39.859375 
Q 5.515625 45.21875 5.515625 54.390625 
Q 5.515625 63.484375 10.046875 68.84375 
Q 14.59375 74.21875 22.3125 74.21875 
z
" id="DejaVuSans-37"/>
      <path d="M 37.109375 75.984375 
L 37.109375 68.5 
L 28.515625 68.5 
Q 23.6875 68.5 21.796875 66.546875 
Q 19.921875 64.59375 19.921875 59.515625 
L 19.921875 54.6875 
L 34.71875 54.6875 
L 34.71875 47.703125 
L 19.921875 47.703125 
L 19.921875 0 
L 10.890625 0 
L 10.890625 47.703125 
L 2.296875 47.703125 
L 2.296875 54.6875 
L 10.890625 54.6875 
L 10.890625 58.5 
Q 10.890625 67.625 15.140625 71.796875 
Q 19.390625 75.984375 28.609375 75.984375 
z
" id="DejaVuSans-102"/>
      <path d="M 4.203125 54.6875 
L 13.1875 54.6875 
L 24.421875 12.015625 
L 35.59375 54.6875 
L 46.1875 54.6875 
L 57.421875 12.015625 
L 68.609375 54.6875 
L 77.59375 54.6875 
L 63.28125 0 
L 52.6875 0 
L 40.921875 44.828125 
L 29.109375 0 
L 18.5 0 
z
" id="DejaVuSans-119"/>
      <path d="M 10.6875 12.40625 
L 21 12.40625 
L 21 0 
L 10.6875 0 
z
" id="DejaVuSans-46"/>
      <path d="M 9.8125 72.90625 
L 19.671875 72.90625 
L 19.671875 8.296875 
L 55.171875 8.296875 
L 55.171875 0 
L 9.8125 0 
z
" id="DejaVuSans-76"/>
      <path d="M 8.015625 75.875 
L 15.828125 75.875 
Q 23.140625 64.359375 26.78125 53.3125 
Q 30.421875 42.28125 30.421875 31.390625 
Q 30.421875 20.453125 26.78125 9.375 
Q 23.140625 -1.703125 15.828125 -13.1875 
L 8.015625 -13.1875 
Q 14.5 -2 17.703125 9.0625 
Q 20.90625 20.125 20.90625 31.390625 
Q 20.90625 42.671875 17.703125 53.65625 
Q 14.5 64.65625 8.015625 75.875 
z
" id="DejaVuSans-41"/>
     </defs>
     <g transform="translate(17.808375 313.31525)rotate(-90)scale(0.096 -0.096)">
      <use xlink:href="#DejaVuSans-73"/>
      <use x="29.492188" xlink:href="#DejaVuSans-110"/>
      <use x="92.871094" xlink:href="#DejaVuSans-116"/>
      <use x="132.080078" xlink:href="#DejaVuSans-101"/>
      <use x="193.603516" xlink:href="#DejaVuSans-114"/>
      <use x="232.466797" xlink:href="#DejaVuSans-99"/>
      <use x="287.447266" xlink:href="#DejaVuSans-101"/>
      <use x="348.970703" xlink:href="#DejaVuSans-112"/>
      <use x="412.447266" xlink:href="#DejaVuSans-116"/>
      <use x="451.65625" xlink:href="#DejaVuSans-32"/>
      <use x="483.443359" xlink:href="#DejaVuSans-40"/>
      <use x="522.457031" xlink:href="#DejaVuSans-37"/>
      <use x="617.476562" xlink:href="#DejaVuSans-32"/>
      <use x="649.263672" xlink:href="#DejaVuSans-100"/>
      <use x="712.740234" xlink:href="#DejaVuSans-105"/>
      <use x="740.523438" xlink:href="#DejaVuSans-102"/>
      <use x="775.728516" xlink:href="#DejaVuSans-102"/>
      <use x="810.933594" xlink:href="#DejaVuSans-101"/>
      <use x="872.457031" xlink:href="#DejaVuSans-114"/>
      <use x="911.320312" xlink:href="#DejaVuSans-101"/>
      <use x="972.84375" xlink:href="#DejaVuSans-110"/>
      <use x="1036.222656" xlink:href="#DejaVuSans-99"/>
      <use x="1091.203125" xlink:href="#DejaVuSans-101"/>
      <use x="1152.726562" xlink:href="#DejaVuSans-32"/>
      <use x="1184.513672" xlink:href="#DejaVuSans-119"/>
      <use x="1257.175781" xlink:href="#DejaVuSans-46"/>
      <use x="1288.962891" xlink:href="#DejaVuSans-114"/>
      <use x="1320.951172" xlink:href="#DejaVuSans-46"/>
      <use x="1352.738281" xlink:href="#DejaVuSans-116"/>
      <use x="1391.947266" xlink:href="#DejaVuSans-46"/>
      <use x="1423.734375" xlink:href="#DejaVuSans-32"/>
      <use x="1455.521484" xlink:href="#DejaVuSans-83"/>
      <use x="1518.998047" xlink:href="#DejaVuSans-45"/>
      <use x="1555.082031" xlink:href="#DejaVuSans-76"/>
      <use x="1610.794922" xlink:href="#DejaVuSans-68"/>
      <use x="1687.796875" xlink:href="#DejaVuSans-83"/>
      <use x="1751.273438" xlink:href="#DejaVuSans-67"/>
      <use x="1821.097656" xlink:href="#DejaVuSans-41"/>
     </g>
    </g>
   </g>
   <g id="LineCollection_1">
    <path clip-path="url(#pb7323cc654)" d="M 92.391779 376.127338 
L 92.391779 324.888092 
" style="fill:none;stroke:#000000;"/>
    <path clip-path="url(#pb7323cc654)" d="M 162.486267 361.563476 
L 162.486267 315.213476 
" style="fill:none;stroke:#000000;"/>
    <path clip-path="url(#pb7323cc654)" d="M 232.580755 252.852302 
L 232.580755 49.159861 
" style="fill:none;stroke:#000000;"/>
    <path clip-path="url(#pb7323cc654)" d="M 302.675242 308.127746 
L 302.675242 253.109437 
" style="fill:none;stroke:#000000;"/>
    <path clip-path="url(#pb7323cc654)" d="M 372.76973 246.625734 
L 372.76973 163.109418 
" style="fill:none;stroke:#000000;"/>
    <path clip-path="url(#pb7323cc654)" d="M 442.864218 246.694329 
L 442.864218 183.753267 
" style="fill:none;stroke:#000000;"/>
    <path clip-path="url(#pb7323cc654)" d="M 512.958706 332.283301 
L 512.958706 238.461854 
" style="fill:none;stroke:#000000;"/>
    <path clip-path="url(#pb7323cc654)" d="M 583.053193 321.095828 
L 583.053193 270.123855 
" style="fill:none;stroke:#000000;"/>
    <path clip-path="url(#pb7323cc654)" d="M 653.147681 305.125496 
L 653.147681 264.785927 
" style="fill:none;stroke:#000000;"/>
    <path clip-path="url(#pb7323cc654)" d="M 723.242169 339.773318 
L 723.242169 313.461603 
" style="fill:none;stroke:#000000;"/>
    <path clip-path="url(#pb7323cc654)" d="M 793.336657 288.999835 
L 793.336657 241.791661 
" style="fill:none;stroke:#000000;"/>
    <path clip-path="url(#pb7323cc654)" d="M 863.431144 312.094792 
L 863.431144 266.160946 
" style="fill:none;stroke:#000000;"/>
   </g>
   <g id="LineCollection_2">
    <path clip-path="url(#pb7323cc654)" d="M 104.074194 369.040931 
L 104.074194 322.837356 
" style="fill:none;stroke:#000000;"/>
    <path clip-path="url(#pb7323cc654)" d="M 174.168682 363.370824 
L 174.168682 317.212613 
" style="fill:none;stroke:#000000;"/>
    <path clip-path="url(#pb7323cc654)" d="M 244.263169 282.759015 
L 244.263169 89.435731 
" style="fill:none;stroke:#000000;"/>
    <path clip-path="url(#pb7323cc654)" d="M 314.357657 314.629841 
L 314.357657 261.004673 
" style="fill:none;stroke:#000000;"/>
    <path clip-path="url(#pb7323cc654)" d="M 384.452145 254.603877 
L 384.452145 176.015841 
" style="fill:none;stroke:#000000;"/>
    <path clip-path="url(#pb7323cc654)" d="M 454.546633 259.783844 
L 454.546633 199.275502 
" style="fill:none;stroke:#000000;"/>
    <path clip-path="url(#pb7323cc654)" d="M 524.64112 335.203918 
L 524.64112 241.174595 
" style="fill:none;stroke:#000000;"/>
    <path clip-path="url(#pb7323cc654)" d="M 594.735608 321.136252 
L 594.735608 273.194518 
" style="fill:none;stroke:#000000;"/>
    <path clip-path="url(#pb7323cc654)" d="M 664.830096 310.676953 
L 664.830096 273.645636 
" style="fill:none;stroke:#000000;"/>
    <path clip-path="url(#pb7323cc654)" d="M 734.924584 338.542968 
L 734.924584 312.764077 
" style="fill:none;stroke:#000000;"/>
    <path clip-path="url(#pb7323cc654)" d="M 805.019071 291.456601 
L 805.019071 245.609053 
" style="fill:none;stroke:#000000;"/>
    <path clip-path="url(#pb7323cc654)" d="M 875.113559 321.553663 
L 875.113559 277.46492 
" style="fill:none;stroke:#000000;"/>
   </g>
   <g id="LineCollection_3">
    <path clip-path="url(#pb7323cc654)" d="M 115.756608 300.365485 
L 115.756608 264.109759 
" style="fill:none;stroke:#000000;"/>
    <path clip-path="url(#pb7323cc654)" d="M 185.851096 361.601806 
L 185.851096 325.406781 
" style="fill:none;stroke:#000000;"/>
    <path clip-path="url(#pb7323cc654)" d="M 255.945584 173.129081 
L 255.945584 41.791818 
" style="fill:none;stroke:#000000;"/>
    <path clip-path="url(#pb7323cc654)" d="M 326.040072 223.267021 
L 326.040072 176.541747 
" style="fill:none;stroke:#000000;"/>
    <path clip-path="url(#pb7323cc654)" d="M 396.134559 223.723337 
L 396.134559 160.590743 
" style="fill:none;stroke:#000000;"/>
    <path clip-path="url(#pb7323cc654)" d="M 466.229047 232.105222 
L 466.229047 179.429862 
" style="fill:none;stroke:#000000;"/>
    <path clip-path="url(#pb7323cc654)" d="M 536.323535 344.737369 
L 536.323535 273.46527 
" style="fill:none;stroke:#000000;"/>
    <path clip-path="url(#pb7323cc654)" d="M 606.418023 330.987517 
L 606.418023 294.893554 
" style="fill:none;stroke:#000000;"/>
    <path clip-path="url(#pb7323cc654)" d="M 676.51251 316.581077 
L 676.51251 281.333133 
" style="fill:none;stroke:#000000;"/>
    <path clip-path="url(#pb7323cc654)" d="M 746.606998 358.496665 
L 746.606998 336.567569 
" style="fill:none;stroke:#000000;"/>
    <path clip-path="url(#pb7323cc654)" d="M 816.701486 273.978973 
L 816.701486 237.211424 
" style="fill:none;stroke:#000000;"/>
    <path clip-path="url(#pb7323cc654)" d="M 886.795974 330.67985 
L 886.795974 298.309222 
" style="fill:none;stroke:#000000;"/>
   </g>
   <g id="LineCollection_4">
    <path clip-path="url(#pb7323cc654)" d="M 127.439023 351.630285 
L 127.439023 299.594561 
" style="fill:none;stroke:#000000;"/>
    <path clip-path="url(#pb7323cc654)" d="M 197.533511 359.05033 
L 197.533511 314.51571 
" style="fill:none;stroke:#000000;"/>
    <path clip-path="url(#pb7323cc654)" d="M 267.627999 406.268182 
L 267.627999 272.20358 
" style="fill:none;stroke:#000000;"/>
    <path clip-path="url(#pb7323cc654)" d="M 337.722486 340.693579 
L 337.722486 290.442562 
" style="fill:none;stroke:#000000;"/>
    <path clip-path="url(#pb7323cc654)" d="M 407.816974 355.816367 
L 407.816974 299.385195 
" style="fill:none;stroke:#000000;"/>
    <path clip-path="url(#pb7323cc654)" d="M 477.911462 356.087621 
L 477.911462 301.628602 
" style="fill:none;stroke:#000000;"/>
    <path clip-path="url(#pb7323cc654)" d="M 548.00595 367.198628 
L 548.00595 299.166271 
" style="fill:none;stroke:#000000;"/>
    <path clip-path="url(#pb7323cc654)" d="M 618.100437 352.790798 
L 618.100437 310.36291 
" style="fill:none;stroke:#000000;"/>
    <path clip-path="url(#pb7323cc654)" d="M 688.194925 356.691791 
L 688.194925 316.672686 
" style="fill:none;stroke:#000000;"/>
    <path clip-path="url(#pb7323cc654)" d="M 758.289413 352.820308 
L 758.289413 321.652426 
" style="fill:none;stroke:#000000;"/>
    <path clip-path="url(#pb7323cc654)" d="M 828.383901 351.003808 
L 828.383901 311.117492 
" style="fill:none;stroke:#000000;"/>
    <path clip-path="url(#pb7323cc654)" d="M 898.478388 362.523163 
L 898.478388 318.659118 
" style="fill:none;stroke:#000000;"/>
   </g>
   <g id="LineCollection_5">
    <path clip-path="url(#pb7323cc654)" d="M 139.121438 320.963533 
L 139.121438 283.953809 
" style="fill:none;stroke:#000000;"/>
    <path clip-path="url(#pb7323cc654)" d="M 209.215925 367.097418 
L 209.215925 332.11787 
" style="fill:none;stroke:#000000;"/>
    <path clip-path="url(#pb7323cc654)" d="M 279.310413 382.676634 
L 279.310413 291.809629 
" style="fill:none;stroke:#000000;"/>
    <path clip-path="url(#pb7323cc654)" d="M 349.404901 308.920218 
L 349.404901 260.047155 
" style="fill:none;stroke:#000000;"/>
    <path clip-path="url(#pb7323cc654)" d="M 419.499389 342.067726 
L 419.499389 288.298102 
" style="fill:none;stroke:#000000;"/>
    <path clip-path="url(#pb7323cc654)" d="M 489.593876 335.514429 
L 489.593876 280.495619 
" style="fill:none;stroke:#000000;"/>
    <path clip-path="url(#pb7323cc654)" d="M 559.688364 352.971801 
L 559.688364 287.515823 
" style="fill:none;stroke:#000000;"/>
    <path clip-path="url(#pb7323cc654)" d="M 629.782852 359.698205 
L 629.782852 324.690296 
" style="fill:none;stroke:#000000;"/>
    <path clip-path="url(#pb7323cc654)" d="M 699.87734 350.707904 
L 699.87734 313.47101 
" style="fill:none;stroke:#000000;"/>
    <path clip-path="url(#pb7323cc654)" d="M 769.971827 370.520962 
L 769.971827 343.65856 
" style="fill:none;stroke:#000000;"/>
    <path clip-path="url(#pb7323cc654)" d="M 840.066315 333.022002 
L 840.066315 293.45269 
" style="fill:none;stroke:#000000;"/>
    <path clip-path="url(#pb7323cc654)" d="M 910.160803 365.28798 
L 910.160803 328.069852 
" style="fill:none;stroke:#000000;"/>
   </g>
   <g id="line2d_18">
    <defs>
     <path d="M 2 0 
L -2 -0 
" id="m640a6192ec" style="stroke:#000000;"/>
    </defs>
    <g clip-path="url(#pb7323cc654)">
     <use style="stroke:#000000;" x="92.391779" xlink:href="#m640a6192ec" y="376.127338"/>
     <use style="stroke:#000000;" x="162.486267" xlink:href="#m640a6192ec" y="361.563476"/>
     <use style="stroke:#000000;" x="232.580755" xlink:href="#m640a6192ec" y="252.852302"/>
     <use style="stroke:#000000;" x="302.675242" xlink:href="#m640a6192ec" y="308.127746"/>
     <use style="stroke:#000000;" x="372.76973" xlink:href="#m640a6192ec" y="246.625734"/>
     <use style="stroke:#000000;" x="442.864218" xlink:href="#m640a6192ec" y="246.694329"/>
     <use style="stroke:#000000;" x="512.958706" xlink:href="#m640a6192ec" y="332.283301"/>
     <use style="stroke:#000000;" x="583.053193" xlink:href="#m640a6192ec" y="321.095828"/>
     <use style="stroke:#000000;" x="653.147681" xlink:href="#m640a6192ec" y="305.125496"/>
     <use style="stroke:#000000;" x="723.242169" xlink:href="#m640a6192ec" y="339.773318"/>
     <use style="stroke:#000000;" x="793.336657" xlink:href="#m640a6192ec" y="288.999835"/>
     <use style="stroke:#000000;" x="863.431144" xlink:href="#m640a6192ec" y="312.094792"/>
    </g>
   </g>
   <g id="line2d_19">
    <g clip-path="url(#pb7323cc654)">
     <use style="stroke:#000000;" x="92.391779" xlink:href="#m640a6192ec" y="324.888092"/>
     <use style="stroke:#000000;" x="162.486267" xlink:href="#m640a6192ec" y="315.213476"/>
     <use style="stroke:#000000;" x="232.580755" xlink:href="#m640a6192ec" y="49.159861"/>
     <use style="stroke:#000000;" x="302.675242" xlink:href="#m640a6192ec" y="253.109437"/>
     <use style="stroke:#000000;" x="372.76973" xlink:href="#m640a6192ec" y="163.109418"/>
     <use style="stroke:#000000;" x="442.864218" xlink:href="#m640a6192ec" y="183.753267"/>
     <use style="stroke:#000000;" x="512.958706" xlink:href="#m640a6192ec" y="238.461854"/>
     <use style="stroke:#000000;" x="583.053193" xlink:href="#m640a6192ec" y="270.123855"/>
     <use style="stroke:#000000;" x="653.147681" xlink:href="#m640a6192ec" y="264.785927"/>
     <use style="stroke:#000000;" x="723.242169" xlink:href="#m640a6192ec" y="313.461603"/>
     <use style="stroke:#000000;" x="793.336657" xlink:href="#m640a6192ec" y="241.791661"/>
     <use style="stroke:#000000;" x="863.431144" xlink:href="#m640a6192ec" y="266.160946"/>
    </g>
   </g>
   <g id="line2d_20">
    <g clip-path="url(#pb7323cc654)">
     <use style="stroke:#000000;" x="104.074194" xlink:href="#m640a6192ec" y="369.040931"/>
     <use style="stroke:#000000;" x="174.168682" xlink:href="#m640a6192ec" y="363.370824"/>
     <use style="stroke:#000000;" x="244.263169" xlink:href="#m640a6192ec" y="282.759015"/>
     <use style="stroke:#000000;" x="314.357657" xlink:href="#m640a6192ec" y="314.629841"/>
     <use style="stroke:#000000;" x="384.452145" xlink:href="#m640a6192ec" y="254.603877"/>
     <use style="stroke:#000000;" x="454.546633" xlink:href="#m640a6192ec" y="259.783844"/>
     <use style="stroke:#000000;" x="524.64112" xlink:href="#m640a6192ec" y="335.203918"/>
     <use style="stroke:#000000;" x="594.735608" xlink:href="#m640a6192ec" y="321.136252"/>
     <use style="stroke:#000000;" x="664.830096" xlink:href="#m640a6192ec" y="310.676953"/>
     <use style="stroke:#000000;" x="734.924584" xlink:href="#m640a6192ec" y="338.542968"/>
     <use style="stroke:#000000;" x="805.019071" xlink:href="#m640a6192ec" y="291.456601"/>
     <use style="stroke:#000000;" x="875.113559" xlink:href="#m640a6192ec" y="321.553663"/>
    </g>
   </g>
   <g id="line2d_21">
    <g clip-path="url(#pb7323cc654)">
     <use style="stroke:#000000;" x="104.074194" xlink:href="#m640a6192ec" y="322.837356"/>
     <use style="stroke:#000000;" x="174.168682" xlink:href="#m640a6192ec" y="317.212613"/>
     <use style="stroke:#000000;" x="244.263169" xlink:href="#m640a6192ec" y="89.435731"/>
     <use style="stroke:#000000;" x="314.357657" xlink:href="#m640a6192ec" y="261.004673"/>
     <use style="stroke:#000000;" x="384.452145" xlink:href="#m640a6192ec" y="176.015841"/>
     <use style="stroke:#000000;" x="454.546633" xlink:href="#m640a6192ec" y="199.275502"/>
     <use style="stroke:#000000;" x="524.64112" xlink:href="#m640a6192ec" y="241.174595"/>
     <use style="stroke:#000000;" x="594.735608" xlink:href="#m640a6192ec" y="273.194518"/>
     <use style="stroke:#000000;" x="664.830096" xlink:href="#m640a6192ec" y="273.645636"/>
     <use style="stroke:#000000;" x="734.924584" xlink:href="#m640a6192ec" y="312.764077"/>
     <use style="stroke:#000000;" x="805.019071" xlink:href="#m640a6192ec" y="245.609053"/>
     <use style="stroke:#000000;" x="875.113559" xlink:href="#m640a6192ec" y="277.46492"/>
    </g>
   </g>
   <g id="line2d_22">
    <g clip-path="url(#pb7323cc654)">
     <use style="stroke:#000000;" x="115.756608" xlink:href="#m640a6192ec" y="300.365485"/>
     <use style="stroke:#000000;" x="185.851096" xlink:href="#m640a6192ec" y="361.601806"/>
     <use style="stroke:#000000;" x="255.945584" xlink:href="#m640a6192ec" y="173.129081"/>
     <use style="stroke:#000000;" x="326.040072" xlink:href="#m640a6192ec" y="223.267021"/>
     <use style="stroke:#000000;" x="396.134559" xlink:href="#m640a6192ec" y="223.723337"/>
     <use style="stroke:#000000;" x="466.229047" xlink:href="#m640a6192ec" y="232.105222"/>
     <use style="stroke:#000000;" x="536.323535" xlink:href="#m640a6192ec" y="344.737369"/>
     <use style="stroke:#000000;" x="606.418023" xlink:href="#m640a6192ec" y="330.987517"/>
     <use style="stroke:#000000;" x="676.51251" xlink:href="#m640a6192ec" y="316.581077"/>
     <use style="stroke:#000000;" x="746.606998" xlink:href="#m640a6192ec" y="358.496665"/>
     <use style="stroke:#000000;" x="816.701486" xlink:href="#m640a6192ec" y="273.978973"/>
     <use style="stroke:#000000;" x="886.795974" xlink:href="#m640a6192ec" y="330.67985"/>
    </g>
   </g>
   <g id="line2d_23">
    <g clip-path="url(#pb7323cc654)">
     <use style="stroke:#000000;" x="115.756608" xlink:href="#m640a6192ec" y="264.109759"/>
     <use style="stroke:#000000;" x="185.851096" xlink:href="#m640a6192ec" y="325.406781"/>
     <use style="stroke:#000000;" x="255.945584" xlink:href="#m640a6192ec" y="41.791818"/>
     <use style="stroke:#000000;" x="326.040072" xlink:href="#m640a6192ec" y="176.541747"/>
     <use style="stroke:#000000;" x="396.134559" xlink:href="#m640a6192ec" y="160.590743"/>
     <use style="stroke:#000000;" x="466.229047" xlink:href="#m640a6192ec" y="179.429862"/>
     <use style="stroke:#000000;" x="536.323535" xlink:href="#m640a6192ec" y="273.46527"/>
     <use style="stroke:#000000;" x="606.418023" xlink:href="#m640a6192ec" y="294.893554"/>
     <use style="stroke:#000000;" x="676.51251" xlink:href="#m640a6192ec" y="281.333133"/>
     <use style="stroke:#000000;" x="746.606998" xlink:href="#m640a6192ec" y="336.567569"/>
     <use style="stroke:#000000;" x="816.701486" xlink:href="#m640a6192ec" y="237.211424"/>
     <use style="stroke:#000000;" x="886.795974" xlink:href="#m640a6192ec" y="298.309222"/>
    </g>
   </g>
   <g id="line2d_24">
    <g clip-path="url(#pb7323cc654)">
     <use style="stroke:#000000;" x="127.439023" xlink:href="#m640a6192ec" y="351.630285"/>
     <use style="stroke:#000000;" x="197.533511" xlink:href="#m640a6192ec" y="359.05033"/>
     <use style="stroke:#000000;" x="267.627999" xlink:href="#m640a6192ec" y="406.268182"/>
     <use style="stroke:#000000;" x="337.722486" xlink:href="#m640a6192ec" y="340.693579"/>
     <use style="stroke:#000000;" x="407.816974" xlink:href="#m640a6192ec" y="355.816367"/>
     <use style="stroke:#000000;" x="477.911462" xlink:href="#m640a6192ec" y="356.087621"/>
     <use style="stroke:#000000;" x="548.00595" xlink:href="#m640a6192ec" y="367.198628"/>
     <use style="stroke:#000000;" x="618.100437" xlink:href="#m640a6192ec" y="352.790798"/>
     <use style="stroke:#000000;" x="688.194925" xlink:href="#m640a6192ec" y="356.691791"/>
     <use style="stroke:#000000;" x="758.289413" xlink:href="#m640a6192ec" y="352.820308"/>
     <use style="stroke:#000000;" x="828.383901" xlink:href="#m640a6192ec" y="351.003808"/>
     <use style="stroke:#000000;" x="898.478388" xlink:href="#m640a6192ec" y="362.523163"/>
    </g>
   </g>
   <g id="line2d_25">
    <g clip-path="url(#pb7323cc654)">
     <use style="stroke:#000000;" x="127.439023" xlink:href="#m640a6192ec" y="299.594561"/>
     <use style="stroke:#000000;" x="197.533511" xlink:href="#m640a6192ec" y="314.51571"/>
     <use style="stroke:#000000;" x="267.627999" xlink:href="#m640a6192ec" y="272.20358"/>
     <use style="stroke:#000000;" x="337.722486" xlink:href="#m640a6192ec" y="290.442562"/>
     <use style="stroke:#000000;" x="407.816974" xlink:href="#m640a6192ec" y="299.385195"/>
     <use style="stroke:#000000;" x="477.911462" xlink:href="#m640a6192ec" y="301.628602"/>
     <use style="stroke:#000000;" x="548.00595" xlink:href="#m640a6192ec" y="299.166271"/>
     <use style="stroke:#000000;" x="618.100437" xlink:href="#m640a6192ec" y="310.36291"/>
     <use style="stroke:#000000;" x="688.194925" xlink:href="#m640a6192ec" y="316.672686"/>
     <use style="stroke:#000000;" x="758.289413" xlink:href="#m640a6192ec" y="321.652426"/>
     <use style="stroke:#000000;" x="828.383901" xlink:href="#m640a6192ec" y="311.117492"/>
     <use style="stroke:#000000;" x="898.478388" xlink:href="#m640a6192ec" y="318.659118"/>
    </g>
   </g>
   <g id="line2d_26">
    <g clip-path="url(#pb7323cc654)">
     <use style="stroke:#000000;" x="139.121438" xlink:href="#m640a6192ec" y="320.963533"/>
     <use style="stroke:#000000;" x="209.215925" xlink:href="#m640a6192ec" y="367.097418"/>
     <use style="stroke:#000000;" x="279.310413" xlink:href="#m640a6192ec" y="382.676634"/>
     <use style="stroke:#000000;" x="349.404901" xlink:href="#m640a6192ec" y="308.920218"/>
     <use style="stroke:#000000;" x="419.499389" xlink:href="#m640a6192ec" y="342.067726"/>
     <use style="stroke:#000000;" x="489.593876" xlink:href="#m640a6192ec" y="335.514429"/>
     <use style="stroke:#000000;" x="559.688364" xlink:href="#m640a6192ec" y="352.971801"/>
     <use style="stroke:#000000;" x="629.782852" xlink:href="#m640a6192ec" y="359.698205"/>
     <use style="stroke:#000000;" x="699.87734" xlink:href="#m640a6192ec" y="350.707904"/>
     <use style="stroke:#000000;" x="769.971827" xlink:href="#m640a6192ec" y="370.520962"/>
     <use style="stroke:#000000;" x="840.066315" xlink:href="#m640a6192ec" y="333.022002"/>
     <use style="stroke:#000000;" x="910.160803" xlink:href="#m640a6192ec" y="365.28798"/>
    </g>
   </g>
   <g id="line2d_27">
    <g clip-path="url(#pb7323cc654)">
     <use style="stroke:#000000;" x="139.121438" xlink:href="#m640a6192ec" y="283.953809"/>
     <use style="stroke:#000000;" x="209.215925" xlink:href="#m640a6192ec" y="332.11787"/>
     <use style="stroke:#000000;" x="279.310413" xlink:href="#m640a6192ec" y="291.809629"/>
     <use style="stroke:#000000;" x="349.404901" xlink:href="#m640a6192ec" y="260.047155"/>
     <use style="stroke:#000000;" x="419.499389" xlink:href="#m640a6192ec" y="288.298102"/>
     <use style="stroke:#000000;" x="489.593876" xlink:href="#m640a6192ec" y="280.495619"/>
     <use style="stroke:#000000;" x="559.688364" xlink:href="#m640a6192ec" y="287.515823"/>
     <use style="stroke:#000000;" x="629.782852" xlink:href="#m640a6192ec" y="324.690296"/>
     <use style="stroke:#000000;" x="699.87734" xlink:href="#m640a6192ec" y="313.47101"/>
     <use style="stroke:#000000;" x="769.971827" xlink:href="#m640a6192ec" y="343.65856"/>
     <use style="stroke:#000000;" x="840.066315" xlink:href="#m640a6192ec" y="293.45269"/>
     <use style="stroke:#000000;" x="910.160803" xlink:href="#m640a6192ec" y="328.069852"/>
    </g>
   </g>
   <g id="patch_63">
    <path d="M 45.078 424.492 
L 45.078 23.568 
" style="fill:none;stroke:#000000;stroke-linecap:square;stroke-linejoin:miter;"/>
   </g>
   <g id="patch_64">
    <path d="M 957.474582 424.492 
L 957.474582 23.568 
" style="fill:none;stroke:#000000;stroke-linecap:square;stroke-linejoin:miter;"/>
   </g>
   <g id="patch_65">
    <path d="M 45.078 424.492 
L 957.474582 424.492 
" style="fill:none;stroke:#000000;stroke-linecap:square;stroke-linejoin:miter;"/>
   </g>
   <g id="patch_66">
    <path d="M 45.078 23.568 
L 957.474582 23.568 
" style="fill:none;stroke:#000000;stroke-linecap:square;stroke-linejoin:miter;"/>
   </g>
   <g id="text_19">
    <!-- Intercept -->
    <g transform="translate(479.596041 17.568)scale(0.096 -0.096)">
     <use xlink:href="#DejaVuSans-73"/>
     <use x="29.492188" xlink:href="#DejaVuSans-110"/>
     <use x="92.871094" xlink:href="#DejaVuSans-116"/>
     <use x="132.080078" xlink:href="#DejaVuSans-101"/>
     <use x="193.603516" xlink:href="#DejaVuSans-114"/>
     <use x="232.466797" xlink:href="#DejaVuSans-99"/>
     <use x="287.447266" xlink:href="#DejaVuSans-101"/>
     <use x="348.970703" xlink:href="#DejaVuSans-112"/>
     <use x="412.447266" xlink:href="#DejaVuSans-116"/>
    </g>
   </g>
   <g id="legend_1">
    <g id="patch_67">
     <path d="M 974.518548 199.539875 
L 992.118548 199.539875 
L 992.118548 193.379875 
L 974.518548 193.379875 
z
" style="fill:#f28e2b;"/>
    </g>
    <g id="text_20">
     <!-- $r^2 (\alpha=1, \theta=0)$ -->
     <defs>
      <path d="M 44.578125 46.390625 
Q 43.21875 47.125 41.453125 47.515625 
Q 39.703125 47.90625 37.703125 47.90625 
Q 30.515625 47.90625 25.140625 42.453125 
Q 19.78125 37.015625 18.015625 27.875 
L 12.5 0 
L 3.515625 0 
L 14.203125 54.6875 
L 23.1875 54.6875 
L 21.484375 46.1875 
Q 25.046875 50.921875 30 53.453125 
Q 34.96875 56 40.578125 56 
Q 42.046875 56 43.453125 55.828125 
Q 44.875 55.671875 46.296875 55.28125 
z
" id="DejaVuSans-Oblique-114"/>
      <path d="M 40.921875 25.4375 
L 40.96875 36.71875 
Q 41.015625 48.25 32.328125 48.296875 
Q 25.828125 48.34375 21.78125 42.921875 
Q 16.703125 36.234375 14.984375 27.296875 
Q 12.890625 16.546875 15.53125 11.421875 
Q 18.265625 6.203125 24.171875 6.203125 
Q 30.71875 6.203125 36.234375 16.609375 
z
M 33.84375 55.90625 
Q 49.078125 56.15625 48.875 40.375 
Q 48.875 40.375 56.5 54.6875 
L 64.5 54.6875 
L 48.734375 25.046875 
L 48.578125 14.359375 
Q 48.578125 11.96875 49.90625 9.96875 
Q 51.421875 7.625 52.984375 7.625 
L 57.328125 7.625 
L 55.859375 0 
L 50.4375 0 
Q 45.84375 0 42.53125 4.109375 
Q 40.96875 6.15625 40.921875 10.453125 
Q 37.75 5.21875 32.28125 0.78125 
Q 29.6875 -1.265625 22.703125 -1.21875 
Q 11.28125 -1.125 7.125 6.203125 
Q 2.875 13.8125 5.515625 27.296875 
Q 8.34375 41.796875 15.765625 48.390625 
Q 24.125 55.765625 33.84375 55.90625 
z
" id="DejaVuSans-Oblique-945"/>
      <path d="M 10.59375 45.40625 
L 73.1875 45.40625 
L 73.1875 37.203125 
L 10.59375 37.203125 
z
M 10.59375 25.484375 
L 73.1875 25.484375 
L 73.1875 17.1875 
L 10.59375 17.1875 
z
" id="DejaVuSans-61"/>
      <path d="M 11.71875 12.40625 
L 22.015625 12.40625 
L 22.015625 4 
L 14.015625 -11.625 
L 7.71875 -11.625 
L 11.71875 4 
z
" id="DejaVuSans-44"/>
      <path d="M 45.515625 34.671875 
L 14.453125 34.671875 
Q 12.359375 20.0625 14.5 13.875 
Q 17.1875 6.25 24.46875 6.25 
Q 31.78125 6.25 37.359375 13.921875 
Q 42.234375 20.65625 45.515625 34.671875 
z
M 47.015625 42.96875 
Q 48.34375 56.84375 46.625 61.71875 
Q 43.953125 69.4375 36.765625 69.4375 
Q 29.296875 69.4375 23.828125 61.8125 
Q 19.53125 55.671875 16.15625 42.96875 
z
M 38.1875 76.765625 
Q 49.90625 76.765625 54.59375 66.40625 
Q 59.28125 56.109375 55.71875 37.84375 
Q 52.203125 19.625 43.453125 9.28125 
Q 34.765625 -1.125 23.046875 -1.125 
Q 11.28125 -1.125 6.640625 9.28125 
Q 2 19.625 5.515625 37.84375 
Q 9.078125 56.109375 17.71875 66.40625 
Q 26.421875 76.765625 38.1875 76.765625 
z
" id="DejaVuSans-Oblique-952"/>
     </defs>
     <g transform="translate(999.158548 199.539875)scale(0.088 -0.088)">
      <use transform="translate(0 0.765625)" xlink:href="#DejaVuSans-Oblique-114"/>
      <use transform="translate(45.763177 39.046875)scale(0.7)" xlink:href="#DejaVuSans-50"/>
      <use transform="translate(93.033685 0.765625)" xlink:href="#DejaVuSans-40"/>
      <use transform="translate(132.047357 0.765625)" xlink:href="#DejaVuSans-Oblique-945"/>
      <use transform="translate(217.447747 0.765625)" xlink:href="#DejaVuSans-61"/>
      <use transform="translate(320.719232 0.765625)" xlink:href="#DejaVuSans-49"/>
      <use transform="translate(384.342279 0.765625)" xlink:href="#DejaVuSans-44"/>
      <use transform="translate(435.61181 0.765625)" xlink:href="#DejaVuSans-Oblique-952"/>
      <use transform="translate(516.275872 0.765625)" xlink:href="#DejaVuSans-61"/>
      <use transform="translate(619.547357 0.765625)" xlink:href="#DejaVuSans-48"/>
      <use transform="translate(683.170404 0.765625)" xlink:href="#DejaVuSans-41"/>
     </g>
    </g>
    <g id="patch_68">
     <path d="M 974.518548 213.179875 
L 992.118548 213.179875 
L 992.118548 207.019875 
L 974.518548 207.019875 
z
" style="fill:#76b7b2;"/>
    </g>
    <g id="text_21">
     <!-- $D^2 (\alpha=1, \theta=0)$ -->
     <defs>
      <path d="M 16.890625 72.90625 
L 38.09375 72.90625 
Q 54.984375 72.90625 63.59375 65.75 
Q 72.21875 58.59375 72.21875 44.484375 
Q 72.21875 35.15625 68.9375 26.53125 
Q 65.671875 17.921875 59.90625 12.015625 
Q 54.109375 5.953125 45.171875 2.96875 
Q 36.234375 0 24.03125 0 
L 2.6875 0 
z
M 25.203125 64.796875 
L 14.203125 8.109375 
L 27.09375 8.109375 
Q 43.65625 8.109375 52.734375 17.625 
Q 61.8125 27.15625 61.8125 44.484375 
Q 61.8125 54.984375 55.953125 59.890625 
Q 50.09375 64.796875 37.59375 64.796875 
z
" id="DejaVuSans-Oblique-68"/>
     </defs>
     <g transform="translate(999.158548 213.179875)scale(0.088 -0.088)">
      <use transform="translate(0 0.765625)" xlink:href="#DejaVuSans-Oblique-68"/>
      <use transform="translate(84.018724 39.046875)scale(0.7)" xlink:href="#DejaVuSans-50"/>
      <use transform="translate(131.289232 0.765625)" xlink:href="#DejaVuSans-40"/>
      <use transform="translate(170.302904 0.765625)" xlink:href="#DejaVuSans-Oblique-945"/>
      <use transform="translate(255.703294 0.765625)" xlink:href="#DejaVuSans-61"/>
      <use transform="translate(358.974779 0.765625)" xlink:href="#DejaVuSans-49"/>
      <use transform="translate(422.597826 0.765625)" xlink:href="#DejaVuSans-44"/>
      <use transform="translate(473.867357 0.765625)" xlink:href="#DejaVuSans-Oblique-952"/>
      <use transform="translate(554.531419 0.765625)" xlink:href="#DejaVuSans-61"/>
      <use transform="translate(657.802904 0.765625)" xlink:href="#DejaVuSans-48"/>
      <use transform="translate(721.425951 0.765625)" xlink:href="#DejaVuSans-41"/>
     </g>
    </g>
    <g id="patch_69">
     <path d="M 974.518548 226.819875 
L 992.118548 226.819875 
L 992.118548 220.659875 
L 974.518548 220.659875 
z
" style="fill:#e15759;"/>
    </g>
    <g id="text_22">
     <!-- $D^2 (\alpha=0, \theta=0)$ -->
     <g transform="translate(999.158548 226.819875)scale(0.088 -0.088)">
      <use transform="translate(0 0.765625)" xlink:href="#DejaVuSans-Oblique-68"/>
      <use transform="translate(84.018724 39.046875)scale(0.7)" xlink:href="#DejaVuSans-50"/>
      <use transform="translate(131.289232 0.765625)" xlink:href="#DejaVuSans-40"/>
      <use transform="translate(170.302904 0.765625)" xlink:href="#DejaVuSans-Oblique-945"/>
      <use transform="translate(255.703294 0.765625)" xlink:href="#DejaVuSans-61"/>
      <use transform="translate(358.974779 0.765625)" xlink:href="#DejaVuSans-48"/>
      <use transform="translate(422.597826 0.765625)" xlink:href="#DejaVuSans-44"/>
      <use transform="translate(473.867357 0.765625)" xlink:href="#DejaVuSans-Oblique-952"/>
      <use transform="translate(554.531419 0.765625)" xlink:href="#DejaVuSans-61"/>
      <use transform="translate(657.802904 0.765625)" xlink:href="#DejaVuSans-48"/>
      <use transform="translate(721.425951 0.765625)" xlink:href="#DejaVuSans-41"/>
     </g>
    </g>
    <g id="patch_70">
     <path d="M 974.518548 240.459875 
L 992.118548 240.459875 
L 992.118548 234.299875 
L 974.518548 234.299875 
z
" style="fill:url(#h3e7749dc54);stroke:#ffffff;stroke-linejoin:miter;stroke-width:0.8;"/>
    </g>
    <g id="text_23">
     <!-- $D^2 (\alpha=1, \theta=1)$ -->
     <g transform="translate(999.158548 240.459875)scale(0.088 -0.088)">
      <use transform="translate(0 0.765625)" xlink:href="#DejaVuSans-Oblique-68"/>
      <use transform="translate(84.018724 39.046875)scale(0.7)" xlink:href="#DejaVuSans-50"/>
      <use transform="translate(131.289232 0.765625)" xlink:href="#DejaVuSans-40"/>
      <use transform="translate(170.302904 0.765625)" xlink:href="#DejaVuSans-Oblique-945"/>
      <use transform="translate(255.703294 0.765625)" xlink:href="#DejaVuSans-61"/>
      <use transform="translate(358.974779 0.765625)" xlink:href="#DejaVuSans-49"/>
      <use transform="translate(422.597826 0.765625)" xlink:href="#DejaVuSans-44"/>
      <use transform="translate(473.867357 0.765625)" xlink:href="#DejaVuSans-Oblique-952"/>
      <use transform="translate(554.531419 0.765625)" xlink:href="#DejaVuSans-61"/>
      <use transform="translate(657.802904 0.765625)" xlink:href="#DejaVuSans-49"/>
      <use transform="translate(721.425951 0.765625)" xlink:href="#DejaVuSans-41"/>
     </g>
    </g>
    <g id="patch_71">
     <path d="M 974.518548 254.099875 
L 992.118548 254.099875 
L 992.118548 247.939875 
L 974.518548 247.939875 
z
" style="fill:url(#ha770ee48d0);stroke:#ffffff;stroke-linejoin:miter;stroke-width:0.8;"/>
    </g>
    <g id="text_24">
     <!-- $D^2 (\alpha=0, \theta=1)$ -->
     <g transform="translate(999.158548 254.099875)scale(0.088 -0.088)">
      <use transform="translate(0 0.765625)" xlink:href="#DejaVuSans-Oblique-68"/>
      <use transform="translate(84.018724 39.046875)scale(0.7)" xlink:href="#DejaVuSans-50"/>
      <use transform="translate(131.289232 0.765625)" xlink:href="#DejaVuSans-40"/>
      <use transform="translate(170.302904 0.765625)" xlink:href="#DejaVuSans-Oblique-945"/>
      <use transform="translate(255.703294 0.765625)" xlink:href="#DejaVuSans-61"/>
      <use transform="translate(358.974779 0.765625)" xlink:href="#DejaVuSans-48"/>
      <use transform="translate(422.597826 0.765625)" xlink:href="#DejaVuSans-44"/>
      <use transform="translate(473.867357 0.765625)" xlink:href="#DejaVuSans-Oblique-952"/>
      <use transform="translate(554.531419 0.765625)" xlink:href="#DejaVuSans-61"/>
      <use transform="translate(657.802904 0.765625)" xlink:href="#DejaVuSans-49"/>
      <use transform="translate(721.425951 0.765625)" xlink:href="#DejaVuSans-41"/>
     </g>
    </g>
   </g>
  </g>
 </g>
 <defs>
  <clipPath id="pb7323cc654">
   <rect height="400.924" width="912.396582" x="45.078" y="23.568"/>
  </clipPath>
 </defs>
 <defs>
  <pattern height="72" id="h3e7749dc54" patternUnits="userSpaceOnUse" width="72" x="0" y="0">
   <rect fill="#76b7b2" height="73" width="73" x="0" y="0"/>
   <path d="M -36 36 
L 36 -36 
M -33 39 
L 39 -33 
M -30 42 
L 42 -30 
M -27 45 
L 45 -27 
M -24 48 
L 48 -24 
M -21 51 
L 51 -21 
M -18 54 
L 54 -18 
M -15 57 
L 57 -15 
M -12 60 
L 60 -12 
M -9 63 
L 63 -9 
M -6 66 
L 66 -6 
M -3 69 
L 69 -3 
M 0 72 
L 72 0 
M 3 75 
L 75 3 
M 6 78 
L 78 6 
M 9 81 
L 81 9 
M 12 84 
L 84 12 
M 15 87 
L 87 15 
M 18 90 
L 90 18 
M 21 93 
L 93 21 
M 24 96 
L 96 24 
M 27 99 
L 99 27 
M 30 102 
L 102 30 
M 33 105 
L 105 33 
M 36 108 
L 108 36 
" style="fill:#ffffff;stroke:#ffffff;stroke-linecap:butt;stroke-linejoin:miter;stroke-width:2.0;"/>
  </pattern>
  <pattern height="72" id="ha770ee48d0" patternUnits="userSpaceOnUse" width="72" x="0" y="0">
   <rect fill="#e15759" height="73" width="73" x="0" y="0"/>
   <path d="M -36 36 
L 36 -36 
M -33 39 
L 39 -33 
M -30 42 
L 42 -30 
M -27 45 
L 45 -27 
M -24 48 
L 48 -24 
M -21 51 
L 51 -21 
M -18 54 
L 54 -18 
M -15 57 
L 57 -15 
M -12 60 
L 60 -12 
M -9 63 
L 63 -9 
M -6 66 
L 66 -6 
M -3 69 
L 69 -3 
M 0 72 
L 72 0 
M 3 75 
L 75 3 
M 6 78 
L 78 6 
M 9 81 
L 81 9 
M 12 84 
L 84 12 
M 15 87 
L 87 15 
M 18 90 
L 90 18 
M 21 93 
L 93 21 
M 24 96 
L 96 24 
M 27 99 
L 99 27 
M 30 102 
L 102 30 
M 33 105 
L 105 33 
M 36 108 
L 108 36 
" style="fill:#ffffff;stroke:#ffffff;stroke-linecap:butt;stroke-linejoin:miter;stroke-width:2.0;"/>
  </pattern>
 </defs>
</svg>
