<?xml version="1.0" encoding="utf-8" standalone="no"?>
<!DOCTYPE svg PUBLIC "-//W3C//DTD SVG 1.1//EN"
  "http://www.w3.org/Graphics/SVG/1.1/DTD/svg11.dtd">
<!-- Created with matplotlib (https://matplotlib.org/) -->
<svg height="576pt" version="1.1" viewBox="0 0 1080 576" width="1080pt" xmlns="http://www.w3.org/2000/svg" xmlns:xlink="http://www.w3.org/1999/xlink">
 <defs>
  <style type="text/css">
*{stroke-linecap:butt;stroke-linejoin:round;}
  </style>
 </defs>
 <g id="figure_1">
  <g id="patch_1">
   <path d="M 0 576 
L 1080 576 
L 1080 0 
L 0 0 
z
" style="fill:#ffffff;"/>
  </g>
  <g id="axes_1">
   <g id="patch_2">
    <path d="M 65.598 424.492 
L 957.474582 424.492 
L 957.474582 23.568 
L 65.598 23.568 
z
" style="fill:#ffffff;"/>
   </g>
   <g id="patch_3">
    <path clip-path="url(#pa082f7ecee)" d="M 106.137845 406.188085 
L 114.763344 406.188085 
L 114.763344 404.686779 
L 106.137845 404.686779 
z
" style="fill:#f28e2b;"/>
   </g>
   <g id="patch_4">
    <path clip-path="url(#pa082f7ecee)" d="M 175.141836 406.188085 
L 183.767334 406.188085 
L 183.767334 405.736185 
L 175.141836 405.736185 
z
" style="fill:#f28e2b;"/>
   </g>
   <g id="patch_5">
    <path clip-path="url(#pa082f7ecee)" d="M 244.145826 406.188085 
L 252.771325 406.188085 
L 252.771325 289.152237 
L 244.145826 289.152237 
z
" style="fill:#f28e2b;"/>
   </g>
   <g id="patch_6">
    <path clip-path="url(#pa082f7ecee)" d="M 313.149817 406.188085 
L 321.775316 406.188085 
L 321.775316 388.847203 
L 313.149817 388.847203 
z
" style="fill:#f28e2b;"/>
   </g>
   <g id="patch_7">
    <path clip-path="url(#pa082f7ecee)" d="M 382.153808 406.188085 
L 390.779307 406.188085 
L 390.779307 396.141837 
L 382.153808 396.141837 
z
" style="fill:#f28e2b;"/>
   </g>
   <g id="patch_8">
    <path clip-path="url(#pa082f7ecee)" d="M 451.157799 406.188085 
L 459.783298 406.188085 
L 459.783298 392.859023 
L 451.157799 392.859023 
z
" style="fill:#f28e2b;"/>
   </g>
   <g id="patch_9">
    <path clip-path="url(#pa082f7ecee)" d="M 520.16179 406.188085 
L 528.787289 406.188085 
L 528.787289 404.800539 
L 520.16179 404.800539 
z
" style="fill:#f28e2b;"/>
   </g>
   <g id="patch_10">
    <path clip-path="url(#pa082f7ecee)" d="M 589.165781 406.188085 
L 597.79128 406.188085 
L 597.79128 405.171525 
L 589.165781 405.171525 
z
" style="fill:#f28e2b;"/>
   </g>
   <g id="patch_11">
    <path clip-path="url(#pa082f7ecee)" d="M 658.169772 406.188085 
L 666.795271 406.188085 
L 666.795271 404.931245 
L 658.169772 404.931245 
z
" style="fill:#f28e2b;"/>
   </g>
   <g id="patch_12">
    <path clip-path="url(#pa082f7ecee)" d="M 727.173763 406.188085 
L 735.799261 406.188085 
L 735.799261 406.160784 
L 727.173763 406.160784 
z
" style="fill:#f28e2b;"/>
   </g>
   <g id="patch_13">
    <path clip-path="url(#pa082f7ecee)" d="M 796.177754 406.188085 
L 804.803252 406.188085 
L 804.803252 403.719029 
L 796.177754 403.719029 
z
" style="fill:#f28e2b;"/>
   </g>
   <g id="patch_14">
    <path clip-path="url(#pa082f7ecee)" d="M 865.181744 406.188085 
L 873.807243 406.188085 
L 873.807243 405.120143 
L 865.181744 405.120143 
z
" style="fill:#f28e2b;"/>
   </g>
   <g id="patch_15">
    <path clip-path="url(#pa082f7ecee)" d="M 114.763344 406.188085 
L 123.388842 406.188085 
L 123.388842 404.578618 
L 114.763344 404.578618 
z
" style="fill:#76b7b2;"/>
   </g>
   <g id="patch_16">
    <path clip-path="url(#pa082f7ecee)" d="M 183.767334 406.188085 
L 192.392833 406.188085 
L 192.392833 405.742421 
L 183.767334 405.742421 
z
" style="fill:#76b7b2;"/>
   </g>
   <g id="patch_17">
    <path clip-path="url(#pa082f7ecee)" d="M 252.771325 406.188085 
L 261.396824 406.188085 
L 261.396824 292.275354 
L 252.771325 292.275354 
z
" style="fill:#76b7b2;"/>
   </g>
   <g id="patch_18">
    <path clip-path="url(#pa082f7ecee)" d="M 321.775316 406.188085 
L 330.400815 406.188085 
L 330.400815 389.16507 
L 321.775316 389.16507 
z
" style="fill:#76b7b2;"/>
   </g>
   <g id="patch_19">
    <path clip-path="url(#pa082f7ecee)" d="M 390.779307 406.188085 
L 399.404806 406.188085 
L 399.404806 396.416063 
L 390.779307 396.416063 
z
" style="fill:#76b7b2;"/>
   </g>
   <g id="patch_20">
    <path clip-path="url(#pa082f7ecee)" d="M 459.783298 406.188085 
L 468.408797 406.188085 
L 468.408797 393.320087 
L 459.783298 393.320087 
z
" style="fill:#76b7b2;"/>
   </g>
   <g id="patch_21">
    <path clip-path="url(#pa082f7ecee)" d="M 528.787289 406.188085 
L 537.412788 406.188085 
L 537.412788 404.810681 
L 528.787289 404.810681 
z
" style="fill:#76b7b2;"/>
   </g>
   <g id="patch_22">
    <path clip-path="url(#pa082f7ecee)" d="M 597.79128 406.188085 
L 606.416779 406.188085 
L 606.416779 405.181239 
L 597.79128 405.181239 
z
" style="fill:#76b7b2;"/>
   </g>
   <g id="patch_23">
    <path clip-path="url(#pa082f7ecee)" d="M 666.795271 406.188085 
L 675.420769 406.188085 
L 675.420769 404.994152 
L 666.795271 404.994152 
z
" style="fill:#76b7b2;"/>
   </g>
   <g id="patch_24">
    <path clip-path="url(#pa082f7ecee)" d="M 735.799261 406.188085 
L 744.42476 406.188085 
L 744.42476 406.159434 
L 735.799261 406.159434 
z
" style="fill:#76b7b2;"/>
   </g>
   <g id="patch_25">
    <path clip-path="url(#pa082f7ecee)" d="M 804.803252 406.188085 
L 813.428751 406.188085 
L 813.428751 403.762741 
L 804.803252 403.762741 
z
" style="fill:#76b7b2;"/>
   </g>
   <g id="patch_26">
    <path clip-path="url(#pa082f7ecee)" d="M 873.807243 406.188085 
L 882.432742 406.188085 
L 882.432742 405.210883 
L 873.807243 405.210883 
z
" style="fill:#76b7b2;"/>
   </g>
   <g id="patch_27">
    <path clip-path="url(#pa082f7ecee)" d="M 123.388842 406.188085 
L 132.014341 406.188085 
L 132.014341 397.409141 
L 123.388842 397.409141 
z
" style="fill:#e15759;"/>
   </g>
   <g id="patch_28">
    <path clip-path="url(#pa082f7ecee)" d="M 192.392833 406.188085 
L 201.018332 406.188085 
L 201.018332 404.959478 
L 192.392833 404.959478 
z
" style="fill:#e15759;"/>
   </g>
   <g id="patch_29">
    <path clip-path="url(#pa082f7ecee)" d="M 261.396824 406.188085 
L 270.022323 406.188085 
L 270.022323 41.791818 
L 261.396824 41.791818 
z
" style="fill:#e15759;"/>
   </g>
   <g id="patch_30">
    <path clip-path="url(#pa082f7ecee)" d="M 330.400815 406.188085 
L 339.026314 406.188085 
L 339.026314 342.485403 
L 330.400815 342.485403 
z
" style="fill:#e15759;"/>
   </g>
   <g id="patch_31">
    <path clip-path="url(#pa082f7ecee)" d="M 399.404806 406.188085 
L 408.030305 406.188085 
L 408.030305 375.583644 
L 399.404806 375.583644 
z
" style="fill:#e15759;"/>
   </g>
   <g id="patch_32">
    <path clip-path="url(#pa082f7ecee)" d="M 468.408797 406.188085 
L 477.034296 406.188085 
L 477.034296 365.971345 
L 468.408797 365.971345 
z
" style="fill:#e15759;"/>
   </g>
   <g id="patch_33">
    <path clip-path="url(#pa082f7ecee)" d="M 537.412788 406.188085 
L 546.038287 406.188085 
L 546.038287 402.562386 
L 537.412788 402.562386 
z
" style="fill:#e15759;"/>
   </g>
   <g id="patch_34">
    <path clip-path="url(#pa082f7ecee)" d="M 606.416779 406.188085 
L 615.042277 406.188085 
L 615.042277 403.64474 
L 606.416779 403.64474 
z
" style="fill:#e15759;"/>
   </g>
   <g id="patch_35">
    <path clip-path="url(#pa082f7ecee)" d="M 675.420769 406.188085 
L 684.046268 406.188085 
L 684.046268 403.000066 
L 675.420769 403.000066 
z
" style="fill:#e15759;"/>
   </g>
   <g id="patch_36">
    <path clip-path="url(#pa082f7ecee)" d="M 744.42476 406.188085 
L 753.050259 406.188085 
L 753.050259 406.209054 
L 744.42476 406.209054 
z
" style="fill:#e15759;"/>
   </g>
   <g id="patch_37">
    <path clip-path="url(#pa082f7ecee)" d="M 813.428751 406.188085 
L 822.05425 406.188085 
L 822.05425 398.712464 
L 813.428751 398.712464 
z
" style="fill:#e15759;"/>
   </g>
   <g id="patch_38">
    <path clip-path="url(#pa082f7ecee)" d="M 882.432742 406.188085 
L 891.058241 406.188085 
L 891.058241 403.734295 
L 882.432742 403.734295 
z
" style="fill:#e15759;"/>
   </g>
   <g id="patch_39">
    <path clip-path="url(#pa082f7ecee)" d="M 132.014341 406.188085 
L 140.63984 406.188085 
L 140.63984 404.435404 
L 132.014341 404.435404 
z
" style="fill:url(#h5a8711ad10);stroke:#ffffff;stroke-linejoin:miter;stroke-width:0.8;"/>
   </g>
   <g id="patch_40">
    <path clip-path="url(#pa082f7ecee)" d="M 201.018332 406.188085 
L 209.643831 406.188085 
L 209.643831 405.744849 
L 201.018332 405.744849 
z
" style="fill:url(#h5a8711ad10);stroke:#ffffff;stroke-linejoin:miter;stroke-width:0.8;"/>
   </g>
   <g id="patch_41">
    <path clip-path="url(#pa082f7ecee)" d="M 270.022323 406.188085 
L 278.647822 406.188085 
L 278.647822 308.759737 
L 270.022323 308.759737 
z
" style="fill:url(#h5a8711ad10);stroke:#ffffff;stroke-linejoin:miter;stroke-width:0.8;"/>
   </g>
   <g id="patch_42">
    <path clip-path="url(#pa082f7ecee)" d="M 339.026314 406.188085 
L 347.651813 406.188085 
L 347.651813 392.25772 
L 339.026314 392.25772 
z
" style="fill:url(#h5a8711ad10);stroke:#ffffff;stroke-linejoin:miter;stroke-width:0.8;"/>
   </g>
   <g id="patch_43">
    <path clip-path="url(#pa082f7ecee)" d="M 408.030305 406.188085 
L 416.655804 406.188085 
L 416.655804 400.61557 
L 408.030305 400.61557 
z
" style="fill:url(#h5a8711ad10);stroke:#ffffff;stroke-linejoin:miter;stroke-width:0.8;"/>
   </g>
   <g id="patch_44">
    <path clip-path="url(#pa082f7ecee)" d="M 477.034296 406.188085 
L 485.659795 406.188085 
L 485.659795 397.641877 
L 477.034296 397.641877 
z
" style="fill:url(#h5a8711ad10);stroke:#ffffff;stroke-linejoin:miter;stroke-width:0.8;"/>
   </g>
   <g id="patch_45">
    <path clip-path="url(#pa082f7ecee)" d="M 546.038287 406.188085 
L 554.663785 406.188085 
L 554.663785 405.204658 
L 546.038287 405.204658 
z
" style="fill:url(#h5a8711ad10);stroke:#ffffff;stroke-linejoin:miter;stroke-width:0.8;"/>
   </g>
   <g id="patch_46">
    <path clip-path="url(#pa082f7ecee)" d="M 615.042277 406.188085 
L 623.667776 406.188085 
L 623.667776 405.556008 
L 615.042277 405.556008 
z
" style="fill:url(#h5a8711ad10);stroke:#ffffff;stroke-linejoin:miter;stroke-width:0.8;"/>
   </g>
   <g id="patch_47">
    <path clip-path="url(#pa082f7ecee)" d="M 684.046268 406.188085 
L 692.671767 406.188085 
L 692.671767 405.477456 
L 684.046268 405.477456 
z
" style="fill:url(#h5a8711ad10);stroke:#ffffff;stroke-linejoin:miter;stroke-width:0.8;"/>
   </g>
   <g id="patch_48">
    <path clip-path="url(#pa082f7ecee)" d="M 753.050259 406.188085 
L 761.675758 406.188085 
L 761.675758 406.181598 
L 753.050259 406.181598 
z
" style="fill:url(#h5a8711ad10);stroke:#ffffff;stroke-linejoin:miter;stroke-width:0.8;"/>
   </g>
   <g id="patch_49">
    <path clip-path="url(#pa082f7ecee)" d="M 822.05425 406.188085 
L 830.679749 406.188085 
L 830.679749 404.829717 
L 822.05425 404.829717 
z
" style="fill:url(#h5a8711ad10);stroke:#ffffff;stroke-linejoin:miter;stroke-width:0.8;"/>
   </g>
   <g id="patch_50">
    <path clip-path="url(#pa082f7ecee)" d="M 891.058241 406.188085 
L 899.68374 406.188085 
L 899.68374 405.575298 
L 891.058241 405.575298 
z
" style="fill:url(#h5a8711ad10);stroke:#ffffff;stroke-linejoin:miter;stroke-width:0.8;"/>
   </g>
   <g id="patch_51">
    <path clip-path="url(#pa082f7ecee)" d="M 140.63984 406.188085 
L 149.265339 406.188085 
L 149.265339 404.099756 
L 140.63984 404.099756 
z
" style="fill:url(#h35af11491d);stroke:#ffffff;stroke-linejoin:miter;stroke-width:0.8;"/>
   </g>
   <g id="patch_52">
    <path clip-path="url(#pa082f7ecee)" d="M 209.643831 406.188085 
L 218.26933 406.188085 
L 218.26933 405.724841 
L 209.643831 405.724841 
z
" style="fill:url(#h35af11491d);stroke:#ffffff;stroke-linejoin:miter;stroke-width:0.8;"/>
   </g>
   <g id="patch_53">
    <path clip-path="url(#pa082f7ecee)" d="M 278.647822 406.188085 
L 287.273321 406.188085 
L 287.273321 308.529283 
L 278.647822 308.529283 
z
" style="fill:url(#h35af11491d);stroke:#ffffff;stroke-linejoin:miter;stroke-width:0.8;"/>
   </g>
   <g id="patch_54">
    <path clip-path="url(#pa082f7ecee)" d="M 347.651813 406.188085 
L 356.277312 406.188085 
L 356.277312 390.736156 
L 347.651813 390.736156 
z
" style="fill:url(#h35af11491d);stroke:#ffffff;stroke-linejoin:miter;stroke-width:0.8;"/>
   </g>
   <g id="patch_55">
    <path clip-path="url(#pa082f7ecee)" d="M 416.655804 406.188085 
L 425.281303 406.188085 
L 425.281303 400.124626 
L 416.655804 400.124626 
z
" style="fill:url(#h35af11491d);stroke:#ffffff;stroke-linejoin:miter;stroke-width:0.8;"/>
   </g>
   <g id="patch_56">
    <path clip-path="url(#pa082f7ecee)" d="M 485.659795 406.188085 
L 494.285293 406.188085 
L 494.285293 397.135565 
L 485.659795 397.135565 
z
" style="fill:url(#h35af11491d);stroke:#ffffff;stroke-linejoin:miter;stroke-width:0.8;"/>
   </g>
   <g id="patch_57">
    <path clip-path="url(#pa082f7ecee)" d="M 554.663785 406.188085 
L 563.289284 406.188085 
L 563.289284 405.140037 
L 554.663785 405.140037 
z
" style="fill:url(#h35af11491d);stroke:#ffffff;stroke-linejoin:miter;stroke-width:0.8;"/>
   </g>
   <g id="patch_58">
    <path clip-path="url(#pa082f7ecee)" d="M 623.667776 406.188085 
L 632.293275 406.188085 
L 632.293275 405.473319 
L 623.667776 405.473319 
z
" style="fill:url(#h35af11491d);stroke:#ffffff;stroke-linejoin:miter;stroke-width:0.8;"/>
   </g>
   <g id="patch_59">
    <path clip-path="url(#pa082f7ecee)" d="M 692.671767 406.188085 
L 701.297266 406.188085 
L 701.297266 405.438064 
L 692.671767 405.438064 
z
" style="fill:url(#h35af11491d);stroke:#ffffff;stroke-linejoin:miter;stroke-width:0.8;"/>
   </g>
   <g id="patch_60">
    <path clip-path="url(#pa082f7ecee)" d="M 761.675758 406.188085 
L 770.301257 406.188085 
L 770.301257 406.176559 
L 761.675758 406.176559 
z
" style="fill:url(#h35af11491d);stroke:#ffffff;stroke-linejoin:miter;stroke-width:0.8;"/>
   </g>
   <g id="patch_61">
    <path clip-path="url(#pa082f7ecee)" d="M 830.679749 406.188085 
L 839.305248 406.188085 
L 839.305248 404.679838 
L 830.679749 404.679838 
z
" style="fill:url(#h35af11491d);stroke:#ffffff;stroke-linejoin:miter;stroke-width:0.8;"/>
   </g>
   <g id="patch_62">
    <path clip-path="url(#pa082f7ecee)" d="M 899.68374 406.188085 
L 908.309239 406.188085 
L 908.309239 405.583209 
L 899.68374 405.583209 
z
" style="fill:url(#h35af11491d);stroke:#ffffff;stroke-linejoin:miter;stroke-width:0.8;"/>
   </g>
   <g id="patch_63">
    <path clip-path="url(#pa082f7ecee)" d="M 149.265339 406.188085 
L 157.890838 406.188085 
L 157.890838 398.631144 
L 149.265339 398.631144 
z
" style="fill:url(#he602a12a4c);stroke:#ffffff;stroke-linejoin:miter;stroke-width:0.8;"/>
   </g>
   <g id="patch_64">
    <path clip-path="url(#pa082f7ecee)" d="M 218.26933 406.188085 
L 226.894829 406.188085 
L 226.894829 405.049734 
L 218.26933 405.049734 
z
" style="fill:url(#he602a12a4c);stroke:#ffffff;stroke-linejoin:miter;stroke-width:0.8;"/>
   </g>
   <g id="patch_65">
    <path clip-path="url(#pa082f7ecee)" d="M 287.273321 406.188085 
L 295.89882 406.188085 
L 295.89882 110.838032 
L 287.273321 110.838032 
z
" style="fill:url(#he602a12a4c);stroke:#ffffff;stroke-linejoin:miter;stroke-width:0.8;"/>
   </g>
   <g id="patch_66">
    <path clip-path="url(#pa082f7ecee)" d="M 356.277312 406.188085 
L 364.90281 406.188085 
L 364.90281 355.154245 
L 356.277312 355.154245 
z
" style="fill:url(#he602a12a4c);stroke:#ffffff;stroke-linejoin:miter;stroke-width:0.8;"/>
   </g>
   <g id="patch_67">
    <path clip-path="url(#pa082f7ecee)" d="M 425.281303 406.188085 
L 433.906801 406.188085 
L 433.906801 386.969673 
L 425.281303 386.969673 
z
" style="fill:url(#he602a12a4c);stroke:#ffffff;stroke-linejoin:miter;stroke-width:0.8;"/>
   </g>
   <g id="patch_68">
    <path clip-path="url(#pa082f7ecee)" d="M 494.285293 406.188085 
L 502.910792 406.188085 
L 502.910792 376.918331 
L 494.285293 376.918331 
z
" style="fill:url(#he602a12a4c);stroke:#ffffff;stroke-linejoin:miter;stroke-width:0.8;"/>
   </g>
   <g id="patch_69">
    <path clip-path="url(#pa082f7ecee)" d="M 563.289284 406.188085 
L 571.914783 406.188085 
L 571.914783 402.800314 
L 563.289284 402.800314 
z
" style="fill:url(#he602a12a4c);stroke:#ffffff;stroke-linejoin:miter;stroke-width:0.8;"/>
   </g>
   <g id="patch_70">
    <path clip-path="url(#pa082f7ecee)" d="M 632.293275 406.188085 
L 640.918774 406.188085 
L 640.918774 404.402433 
L 632.293275 404.402433 
z
" style="fill:url(#he602a12a4c);stroke:#ffffff;stroke-linejoin:miter;stroke-width:0.8;"/>
   </g>
   <g id="patch_71">
    <path clip-path="url(#pa082f7ecee)" d="M 701.297266 406.188085 
L 709.922765 406.188085 
L 709.922765 403.920055 
L 701.297266 403.920055 
z
" style="fill:url(#he602a12a4c);stroke:#ffffff;stroke-linejoin:miter;stroke-width:0.8;"/>
   </g>
   <g id="patch_72">
    <path clip-path="url(#pa082f7ecee)" d="M 770.301257 406.188085 
L 778.926756 406.188085 
L 778.926756 406.268182 
L 770.301257 406.268182 
z
" style="fill:url(#he602a12a4c);stroke:#ffffff;stroke-linejoin:miter;stroke-width:0.8;"/>
   </g>
   <g id="patch_73">
    <path clip-path="url(#pa082f7ecee)" d="M 839.305248 406.188085 
L 847.930747 406.188085 
L 847.930747 400.992109 
L 839.305248 400.992109 
z
" style="fill:url(#he602a12a4c);stroke:#ffffff;stroke-linejoin:miter;stroke-width:0.8;"/>
   </g>
   <g id="patch_74">
    <path clip-path="url(#pa082f7ecee)" d="M 908.309239 406.188085 
L 916.934738 406.188085 
L 916.934738 404.608604 
L 908.309239 404.608604 
z
" style="fill:url(#he602a12a4c);stroke:#ffffff;stroke-linejoin:miter;stroke-width:0.8;"/>
   </g>
   <g id="matplotlib.axis_1">
    <g id="xtick_1">
     <g id="line2d_1">
      <defs>
       <path d="M 0 0 
L 0 4.8 
" id="m0ed6931366" style="stroke:#000000;"/>
      </defs>
      <g>
       <use style="stroke:#000000;" x="136.327091" xlink:href="#m0ed6931366" y="424.492"/>
      </g>
     </g>
     <g id="text_1">
      <!-- Age at Menarche -->
      <defs>
       <path d="M 34.1875 63.1875 
L 20.796875 26.90625 
L 47.609375 26.90625 
z
M 28.609375 72.90625 
L 39.796875 72.90625 
L 67.578125 0 
L 57.328125 0 
L 50.6875 18.703125 
L 17.828125 18.703125 
L 11.1875 0 
L 0.78125 0 
z
" id="DejaVuSans-65"/>
       <path d="M 45.40625 27.984375 
Q 45.40625 37.75 41.375 43.109375 
Q 37.359375 48.484375 30.078125 48.484375 
Q 22.859375 48.484375 18.828125 43.109375 
Q 14.796875 37.75 14.796875 27.984375 
Q 14.796875 18.265625 18.828125 12.890625 
Q 22.859375 7.515625 30.078125 7.515625 
Q 37.359375 7.515625 41.375 12.890625 
Q 45.40625 18.265625 45.40625 27.984375 
z
M 54.390625 6.78125 
Q 54.390625 -7.171875 48.1875 -13.984375 
Q 42 -20.796875 29.203125 -20.796875 
Q 24.46875 -20.796875 20.265625 -20.09375 
Q 16.0625 -19.390625 12.109375 -17.921875 
L 12.109375 -9.1875 
Q 16.0625 -11.328125 19.921875 -12.34375 
Q 23.78125 -13.375 27.78125 -13.375 
Q 36.625 -13.375 41.015625 -8.765625 
Q 45.40625 -4.15625 45.40625 5.171875 
L 45.40625 9.625 
Q 42.625 4.78125 38.28125 2.390625 
Q 33.9375 0 27.875 0 
Q 17.828125 0 11.671875 7.65625 
Q 5.515625 15.328125 5.515625 27.984375 
Q 5.515625 40.671875 11.671875 48.328125 
Q 17.828125 56 27.875 56 
Q 33.9375 56 38.28125 53.609375 
Q 42.625 51.21875 45.40625 46.390625 
L 45.40625 54.6875 
L 54.390625 54.6875 
z
" id="DejaVuSans-103"/>
       <path d="M 56.203125 29.59375 
L 56.203125 25.203125 
L 14.890625 25.203125 
Q 15.484375 15.921875 20.484375 11.0625 
Q 25.484375 6.203125 34.421875 6.203125 
Q 39.59375 6.203125 44.453125 7.46875 
Q 49.3125 8.734375 54.109375 11.28125 
L 54.109375 2.78125 
Q 49.265625 0.734375 44.1875 -0.34375 
Q 39.109375 -1.421875 33.890625 -1.421875 
Q 20.796875 -1.421875 13.15625 6.1875 
Q 5.515625 13.8125 5.515625 26.8125 
Q 5.515625 40.234375 12.765625 48.109375 
Q 20.015625 56 32.328125 56 
Q 43.359375 56 49.78125 48.890625 
Q 56.203125 41.796875 56.203125 29.59375 
z
M 47.21875 32.234375 
Q 47.125 39.59375 43.09375 43.984375 
Q 39.0625 48.390625 32.421875 48.390625 
Q 24.90625 48.390625 20.390625 44.140625 
Q 15.875 39.890625 15.1875 32.171875 
z
" id="DejaVuSans-101"/>
       <path id="DejaVuSans-32"/>
       <path d="M 34.28125 27.484375 
Q 23.390625 27.484375 19.1875 25 
Q 14.984375 22.515625 14.984375 16.5 
Q 14.984375 11.71875 18.140625 8.90625 
Q 21.296875 6.109375 26.703125 6.109375 
Q 34.1875 6.109375 38.703125 11.40625 
Q 43.21875 16.703125 43.21875 25.484375 
L 43.21875 27.484375 
z
M 52.203125 31.203125 
L 52.203125 0 
L 43.21875 0 
L 43.21875 8.296875 
Q 40.140625 3.328125 35.546875 0.953125 
Q 30.953125 -1.421875 24.3125 -1.421875 
Q 15.921875 -1.421875 10.953125 3.296875 
Q 6 8.015625 6 15.921875 
Q 6 25.140625 12.171875 29.828125 
Q 18.359375 34.515625 30.609375 34.515625 
L 43.21875 34.515625 
L 43.21875 35.40625 
Q 43.21875 41.609375 39.140625 45 
Q 35.0625 48.390625 27.6875 48.390625 
Q 23 48.390625 18.546875 47.265625 
Q 14.109375 46.140625 10.015625 43.890625 
L 10.015625 52.203125 
Q 14.9375 54.109375 19.578125 55.046875 
Q 24.21875 56 28.609375 56 
Q 40.484375 56 46.34375 49.84375 
Q 52.203125 43.703125 52.203125 31.203125 
z
" id="DejaVuSans-97"/>
       <path d="M 18.3125 70.21875 
L 18.3125 54.6875 
L 36.8125 54.6875 
L 36.8125 47.703125 
L 18.3125 47.703125 
L 18.3125 18.015625 
Q 18.3125 11.328125 20.140625 9.421875 
Q 21.96875 7.515625 27.59375 7.515625 
L 36.8125 7.515625 
L 36.8125 0 
L 27.59375 0 
Q 17.1875 0 13.234375 3.875 
Q 9.28125 7.765625 9.28125 18.015625 
L 9.28125 47.703125 
L 2.6875 47.703125 
L 2.6875 54.6875 
L 9.28125 54.6875 
L 9.28125 70.21875 
z
" id="DejaVuSans-116"/>
       <path d="M 9.8125 72.90625 
L 24.515625 72.90625 
L 43.109375 23.296875 
L 61.8125 72.90625 
L 76.515625 72.90625 
L 76.515625 0 
L 66.890625 0 
L 66.890625 64.015625 
L 48.09375 14.015625 
L 38.1875 14.015625 
L 19.390625 64.015625 
L 19.390625 0 
L 9.8125 0 
z
" id="DejaVuSans-77"/>
       <path d="M 54.890625 33.015625 
L 54.890625 0 
L 45.90625 0 
L 45.90625 32.71875 
Q 45.90625 40.484375 42.875 44.328125 
Q 39.84375 48.1875 33.796875 48.1875 
Q 26.515625 48.1875 22.3125 43.546875 
Q 18.109375 38.921875 18.109375 30.90625 
L 18.109375 0 
L 9.078125 0 
L 9.078125 54.6875 
L 18.109375 54.6875 
L 18.109375 46.1875 
Q 21.34375 51.125 25.703125 53.5625 
Q 30.078125 56 35.796875 56 
Q 45.21875 56 50.046875 50.171875 
Q 54.890625 44.34375 54.890625 33.015625 
z
" id="DejaVuSans-110"/>
       <path d="M 41.109375 46.296875 
Q 39.59375 47.171875 37.8125 47.578125 
Q 36.03125 48 33.890625 48 
Q 26.265625 48 22.1875 43.046875 
Q 18.109375 38.09375 18.109375 28.8125 
L 18.109375 0 
L 9.078125 0 
L 9.078125 54.6875 
L 18.109375 54.6875 
L 18.109375 46.1875 
Q 20.953125 51.171875 25.484375 53.578125 
Q 30.03125 56 36.53125 56 
Q 37.453125 56 38.578125 55.875 
Q 39.703125 55.765625 41.0625 55.515625 
z
" id="DejaVuSans-114"/>
       <path d="M 48.78125 52.59375 
L 48.78125 44.1875 
Q 44.96875 46.296875 41.140625 47.34375 
Q 37.3125 48.390625 33.40625 48.390625 
Q 24.65625 48.390625 19.8125 42.84375 
Q 14.984375 37.3125 14.984375 27.296875 
Q 14.984375 17.28125 19.8125 11.734375 
Q 24.65625 6.203125 33.40625 6.203125 
Q 37.3125 6.203125 41.140625 7.25 
Q 44.96875 8.296875 48.78125 10.40625 
L 48.78125 2.09375 
Q 45.015625 0.34375 40.984375 -0.53125 
Q 36.96875 -1.421875 32.421875 -1.421875 
Q 20.0625 -1.421875 12.78125 6.34375 
Q 5.515625 14.109375 5.515625 27.296875 
Q 5.515625 40.671875 12.859375 48.328125 
Q 20.21875 56 33.015625 56 
Q 37.15625 56 41.109375 55.140625 
Q 45.0625 54.296875 48.78125 52.59375 
z
" id="DejaVuSans-99"/>
       <path d="M 54.890625 33.015625 
L 54.890625 0 
L 45.90625 0 
L 45.90625 32.71875 
Q 45.90625 40.484375 42.875 44.328125 
Q 39.84375 48.1875 33.796875 48.1875 
Q 26.515625 48.1875 22.3125 43.546875 
Q 18.109375 38.921875 18.109375 30.90625 
L 18.109375 0 
L 9.078125 0 
L 9.078125 75.984375 
L 18.109375 75.984375 
L 18.109375 46.1875 
Q 21.34375 51.125 25.703125 53.5625 
Q 30.078125 56 35.796875 56 
Q 45.21875 56 50.046875 50.171875 
Q 54.890625 44.34375 54.890625 33.015625 
z
" id="DejaVuSans-104"/>
      </defs>
      <g transform="translate(138.755341 507.4765)rotate(-90)scale(0.088 -0.088)">
       <use xlink:href="#DejaVuSans-65"/>
       <use x="68.408203" xlink:href="#DejaVuSans-103"/>
       <use x="131.884766" xlink:href="#DejaVuSans-101"/>
       <use x="193.408203" xlink:href="#DejaVuSans-32"/>
       <use x="225.195312" xlink:href="#DejaVuSans-97"/>
       <use x="286.474609" xlink:href="#DejaVuSans-116"/>
       <use x="325.683594" xlink:href="#DejaVuSans-32"/>
       <use x="357.470703" xlink:href="#DejaVuSans-77"/>
       <use x="443.75" xlink:href="#DejaVuSans-101"/>
       <use x="505.273438" xlink:href="#DejaVuSans-110"/>
       <use x="568.652344" xlink:href="#DejaVuSans-97"/>
       <use x="629.931641" xlink:href="#DejaVuSans-114"/>
       <use x="668.794922" xlink:href="#DejaVuSans-99"/>
       <use x="723.775391" xlink:href="#DejaVuSans-104"/>
       <use x="787.154297" xlink:href="#DejaVuSans-101"/>
      </g>
     </g>
    </g>
    <g id="xtick_2">
     <g id="line2d_2">
      <g>
       <use style="stroke:#000000;" x="205.331082" xlink:href="#m0ed6931366" y="424.492"/>
      </g>
     </g>
     <g id="text_2">
      <!-- Age at Menopause -->
      <defs>
       <path d="M 30.609375 48.390625 
Q 23.390625 48.390625 19.1875 42.75 
Q 14.984375 37.109375 14.984375 27.296875 
Q 14.984375 17.484375 19.15625 11.84375 
Q 23.34375 6.203125 30.609375 6.203125 
Q 37.796875 6.203125 41.984375 11.859375 
Q 46.1875 17.53125 46.1875 27.296875 
Q 46.1875 37.015625 41.984375 42.703125 
Q 37.796875 48.390625 30.609375 48.390625 
z
M 30.609375 56 
Q 42.328125 56 49.015625 48.375 
Q 55.71875 40.765625 55.71875 27.296875 
Q 55.71875 13.875 49.015625 6.21875 
Q 42.328125 -1.421875 30.609375 -1.421875 
Q 18.84375 -1.421875 12.171875 6.21875 
Q 5.515625 13.875 5.515625 27.296875 
Q 5.515625 40.765625 12.171875 48.375 
Q 18.84375 56 30.609375 56 
z
" id="DejaVuSans-111"/>
       <path d="M 18.109375 8.203125 
L 18.109375 -20.796875 
L 9.078125 -20.796875 
L 9.078125 54.6875 
L 18.109375 54.6875 
L 18.109375 46.390625 
Q 20.953125 51.265625 25.265625 53.625 
Q 29.59375 56 35.59375 56 
Q 45.5625 56 51.78125 48.09375 
Q 58.015625 40.1875 58.015625 27.296875 
Q 58.015625 14.40625 51.78125 6.484375 
Q 45.5625 -1.421875 35.59375 -1.421875 
Q 29.59375 -1.421875 25.265625 0.953125 
Q 20.953125 3.328125 18.109375 8.203125 
z
M 48.6875 27.296875 
Q 48.6875 37.203125 44.609375 42.84375 
Q 40.53125 48.484375 33.40625 48.484375 
Q 26.265625 48.484375 22.1875 42.84375 
Q 18.109375 37.203125 18.109375 27.296875 
Q 18.109375 17.390625 22.1875 11.75 
Q 26.265625 6.109375 33.40625 6.109375 
Q 40.53125 6.109375 44.609375 11.75 
Q 48.6875 17.390625 48.6875 27.296875 
z
" id="DejaVuSans-112"/>
       <path d="M 8.5 21.578125 
L 8.5 54.6875 
L 17.484375 54.6875 
L 17.484375 21.921875 
Q 17.484375 14.15625 20.5 10.265625 
Q 23.53125 6.390625 29.59375 6.390625 
Q 36.859375 6.390625 41.078125 11.03125 
Q 45.3125 15.671875 45.3125 23.6875 
L 45.3125 54.6875 
L 54.296875 54.6875 
L 54.296875 0 
L 45.3125 0 
L 45.3125 8.40625 
Q 42.046875 3.421875 37.71875 1 
Q 33.40625 -1.421875 27.6875 -1.421875 
Q 18.265625 -1.421875 13.375 4.4375 
Q 8.5 10.296875 8.5 21.578125 
z
M 31.109375 56 
z
" id="DejaVuSans-117"/>
       <path d="M 44.28125 53.078125 
L 44.28125 44.578125 
Q 40.484375 46.53125 36.375 47.5 
Q 32.28125 48.484375 27.875 48.484375 
Q 21.1875 48.484375 17.84375 46.4375 
Q 14.5 44.390625 14.5 40.28125 
Q 14.5 37.15625 16.890625 35.375 
Q 19.28125 33.59375 26.515625 31.984375 
L 29.59375 31.296875 
Q 39.15625 29.25 43.1875 25.515625 
Q 47.21875 21.78125 47.21875 15.09375 
Q 47.21875 7.46875 41.1875 3.015625 
Q 35.15625 -1.421875 24.609375 -1.421875 
Q 20.21875 -1.421875 15.453125 -0.5625 
Q 10.6875 0.296875 5.421875 2 
L 5.421875 11.28125 
Q 10.40625 8.6875 15.234375 7.390625 
Q 20.0625 6.109375 24.8125 6.109375 
Q 31.15625 6.109375 34.5625 8.28125 
Q 37.984375 10.453125 37.984375 14.40625 
Q 37.984375 18.0625 35.515625 20.015625 
Q 33.0625 21.96875 24.703125 23.78125 
L 21.578125 24.515625 
Q 13.234375 26.265625 9.515625 29.90625 
Q 5.8125 33.546875 5.8125 39.890625 
Q 5.8125 47.609375 11.28125 51.796875 
Q 16.75 56 26.8125 56 
Q 31.78125 56 36.171875 55.265625 
Q 40.578125 54.546875 44.28125 53.078125 
z
" id="DejaVuSans-115"/>
      </defs>
      <g transform="translate(207.759332 514.773625)rotate(-90)scale(0.088 -0.088)">
       <use xlink:href="#DejaVuSans-65"/>
       <use x="68.408203" xlink:href="#DejaVuSans-103"/>
       <use x="131.884766" xlink:href="#DejaVuSans-101"/>
       <use x="193.408203" xlink:href="#DejaVuSans-32"/>
       <use x="225.195312" xlink:href="#DejaVuSans-97"/>
       <use x="286.474609" xlink:href="#DejaVuSans-116"/>
       <use x="325.683594" xlink:href="#DejaVuSans-32"/>
       <use x="357.470703" xlink:href="#DejaVuSans-77"/>
       <use x="443.75" xlink:href="#DejaVuSans-101"/>
       <use x="505.273438" xlink:href="#DejaVuSans-110"/>
       <use x="568.652344" xlink:href="#DejaVuSans-111"/>
       <use x="629.833984" xlink:href="#DejaVuSans-112"/>
       <use x="693.310547" xlink:href="#DejaVuSans-97"/>
       <use x="754.589844" xlink:href="#DejaVuSans-117"/>
       <use x="817.96875" xlink:href="#DejaVuSans-115"/>
       <use x="870.068359" xlink:href="#DejaVuSans-101"/>
      </g>
     </g>
    </g>
    <g id="xtick_3">
     <g id="line2d_3">
      <g>
       <use style="stroke:#000000;" x="274.335072" xlink:href="#m0ed6931366" y="424.492"/>
      </g>
     </g>
     <g id="text_3">
      <!-- Height -->
      <defs>
       <path d="M 9.8125 72.90625 
L 19.671875 72.90625 
L 19.671875 43.015625 
L 55.515625 43.015625 
L 55.515625 72.90625 
L 65.375 72.90625 
L 65.375 0 
L 55.515625 0 
L 55.515625 34.71875 
L 19.671875 34.71875 
L 19.671875 0 
L 9.8125 0 
z
" id="DejaVuSans-72"/>
       <path d="M 9.421875 54.6875 
L 18.40625 54.6875 
L 18.40625 0 
L 9.421875 0 
z
M 9.421875 75.984375 
L 18.40625 75.984375 
L 18.40625 64.59375 
L 9.421875 64.59375 
z
" id="DejaVuSans-105"/>
      </defs>
      <g transform="translate(276.763322 461.882875)rotate(-90)scale(0.088 -0.088)">
       <use xlink:href="#DejaVuSans-72"/>
       <use x="75.195312" xlink:href="#DejaVuSans-101"/>
       <use x="136.71875" xlink:href="#DejaVuSans-105"/>
       <use x="164.501953" xlink:href="#DejaVuSans-103"/>
       <use x="227.978516" xlink:href="#DejaVuSans-104"/>
       <use x="291.357422" xlink:href="#DejaVuSans-116"/>
      </g>
     </g>
    </g>
    <g id="xtick_4">
     <g id="line2d_4">
      <g>
       <use style="stroke:#000000;" x="343.339063" xlink:href="#m0ed6931366" y="424.492"/>
      </g>
     </g>
     <g id="text_4">
      <!-- BMI -->
      <defs>
       <path d="M 19.671875 34.8125 
L 19.671875 8.109375 
L 35.5 8.109375 
Q 43.453125 8.109375 47.28125 11.40625 
Q 51.125 14.703125 51.125 21.484375 
Q 51.125 28.328125 47.28125 31.5625 
Q 43.453125 34.8125 35.5 34.8125 
z
M 19.671875 64.796875 
L 19.671875 42.828125 
L 34.28125 42.828125 
Q 41.5 42.828125 45.03125 45.53125 
Q 48.578125 48.25 48.578125 53.8125 
Q 48.578125 59.328125 45.03125 62.0625 
Q 41.5 64.796875 34.28125 64.796875 
z
M 9.8125 72.90625 
L 35.015625 72.90625 
Q 46.296875 72.90625 52.390625 68.21875 
Q 58.5 63.53125 58.5 54.890625 
Q 58.5 48.1875 55.375 44.234375 
Q 52.25 40.28125 46.1875 39.3125 
Q 53.46875 37.75 57.5 32.78125 
Q 61.53125 27.828125 61.53125 20.40625 
Q 61.53125 10.640625 54.890625 5.3125 
Q 48.25 0 35.984375 0 
L 9.8125 0 
z
" id="DejaVuSans-66"/>
       <path d="M 9.8125 72.90625 
L 19.671875 72.90625 
L 19.671875 0 
L 9.8125 0 
z
" id="DejaVuSans-73"/>
      </defs>
      <g transform="translate(345.767313 449.018375)rotate(-90)scale(0.088 -0.088)">
       <use xlink:href="#DejaVuSans-66"/>
       <use x="68.603516" xlink:href="#DejaVuSans-77"/>
       <use x="154.882812" xlink:href="#DejaVuSans-73"/>
      </g>
     </g>
    </g>
    <g id="xtick_5">
     <g id="line2d_5">
      <g>
       <use style="stroke:#000000;" x="412.343054" xlink:href="#m0ed6931366" y="424.492"/>
      </g>
     </g>
     <g id="text_5">
      <!-- Waist-hip Ratio -->
      <defs>
       <path d="M 3.328125 72.90625 
L 13.28125 72.90625 
L 28.609375 11.28125 
L 43.890625 72.90625 
L 54.984375 72.90625 
L 70.3125 11.28125 
L 85.59375 72.90625 
L 95.609375 72.90625 
L 77.296875 0 
L 64.890625 0 
L 49.515625 63.28125 
L 33.984375 0 
L 21.578125 0 
z
" id="DejaVuSans-87"/>
       <path d="M 4.890625 31.390625 
L 31.203125 31.390625 
L 31.203125 23.390625 
L 4.890625 23.390625 
z
" id="DejaVuSans-45"/>
       <path d="M 44.390625 34.1875 
Q 47.5625 33.109375 50.5625 29.59375 
Q 53.5625 26.078125 56.59375 19.921875 
L 66.609375 0 
L 56 0 
L 46.6875 18.703125 
Q 43.0625 26.03125 39.671875 28.421875 
Q 36.28125 30.8125 30.421875 30.8125 
L 19.671875 30.8125 
L 19.671875 0 
L 9.8125 0 
L 9.8125 72.90625 
L 32.078125 72.90625 
Q 44.578125 72.90625 50.734375 67.671875 
Q 56.890625 62.453125 56.890625 51.90625 
Q 56.890625 45.015625 53.6875 40.46875 
Q 50.484375 35.9375 44.390625 34.1875 
z
M 19.671875 64.796875 
L 19.671875 38.921875 
L 32.078125 38.921875 
Q 39.203125 38.921875 42.84375 42.21875 
Q 46.484375 45.515625 46.484375 51.90625 
Q 46.484375 58.296875 42.84375 61.546875 
Q 39.203125 64.796875 32.078125 64.796875 
z
" id="DejaVuSans-82"/>
      </defs>
      <g transform="translate(414.771304 498.972125)rotate(-90)scale(0.088 -0.088)">
       <use xlink:href="#DejaVuSans-87"/>
       <use x="92.501953" xlink:href="#DejaVuSans-97"/>
       <use x="153.78125" xlink:href="#DejaVuSans-105"/>
       <use x="181.564453" xlink:href="#DejaVuSans-115"/>
       <use x="233.664062" xlink:href="#DejaVuSans-116"/>
       <use x="272.873047" xlink:href="#DejaVuSans-45"/>
       <use x="308.957031" xlink:href="#DejaVuSans-104"/>
       <use x="372.335938" xlink:href="#DejaVuSans-105"/>
       <use x="400.119141" xlink:href="#DejaVuSans-112"/>
       <use x="463.595703" xlink:href="#DejaVuSans-32"/>
       <use x="495.382812" xlink:href="#DejaVuSans-82"/>
       <use x="562.615234" xlink:href="#DejaVuSans-97"/>
       <use x="623.894531" xlink:href="#DejaVuSans-116"/>
       <use x="663.103516" xlink:href="#DejaVuSans-105"/>
       <use x="690.886719" xlink:href="#DejaVuSans-111"/>
      </g>
     </g>
    </g>
    <g id="xtick_6">
     <g id="line2d_6">
      <g>
       <use style="stroke:#000000;" x="481.347045" xlink:href="#m0ed6931366" y="424.492"/>
      </g>
     </g>
     <g id="text_6">
      <!-- Systolic Blood Pressure -->
      <defs>
       <path d="M 53.515625 70.515625 
L 53.515625 60.890625 
Q 47.90625 63.578125 42.921875 64.890625 
Q 37.9375 66.21875 33.296875 66.21875 
Q 25.25 66.21875 20.875 63.09375 
Q 16.5 59.96875 16.5 54.203125 
Q 16.5 49.359375 19.40625 46.890625 
Q 22.3125 44.4375 30.421875 42.921875 
L 36.375 41.703125 
Q 47.40625 39.59375 52.65625 34.296875 
Q 57.90625 29 57.90625 20.125 
Q 57.90625 9.515625 50.796875 4.046875 
Q 43.703125 -1.421875 29.984375 -1.421875 
Q 24.8125 -1.421875 18.96875 -0.25 
Q 13.140625 0.921875 6.890625 3.21875 
L 6.890625 13.375 
Q 12.890625 10.015625 18.65625 8.296875 
Q 24.421875 6.59375 29.984375 6.59375 
Q 38.421875 6.59375 43.015625 9.90625 
Q 47.609375 13.234375 47.609375 19.390625 
Q 47.609375 24.75 44.3125 27.78125 
Q 41.015625 30.8125 33.5 32.328125 
L 27.484375 33.5 
Q 16.453125 35.6875 11.515625 40.375 
Q 6.59375 45.0625 6.59375 53.421875 
Q 6.59375 63.09375 13.40625 68.65625 
Q 20.21875 74.21875 32.171875 74.21875 
Q 37.3125 74.21875 42.625 73.28125 
Q 47.953125 72.359375 53.515625 70.515625 
z
" id="DejaVuSans-83"/>
       <path d="M 32.171875 -5.078125 
Q 28.375 -14.84375 24.75 -17.8125 
Q 21.140625 -20.796875 15.09375 -20.796875 
L 7.90625 -20.796875 
L 7.90625 -13.28125 
L 13.1875 -13.28125 
Q 16.890625 -13.28125 18.9375 -11.515625 
Q 21 -9.765625 23.484375 -3.21875 
L 25.09375 0.875 
L 2.984375 54.6875 
L 12.5 54.6875 
L 29.59375 11.921875 
L 46.6875 54.6875 
L 56.203125 54.6875 
z
" id="DejaVuSans-121"/>
       <path d="M 9.421875 75.984375 
L 18.40625 75.984375 
L 18.40625 0 
L 9.421875 0 
z
" id="DejaVuSans-108"/>
       <path d="M 45.40625 46.390625 
L 45.40625 75.984375 
L 54.390625 75.984375 
L 54.390625 0 
L 45.40625 0 
L 45.40625 8.203125 
Q 42.578125 3.328125 38.25 0.953125 
Q 33.9375 -1.421875 27.875 -1.421875 
Q 17.96875 -1.421875 11.734375 6.484375 
Q 5.515625 14.40625 5.515625 27.296875 
Q 5.515625 40.1875 11.734375 48.09375 
Q 17.96875 56 27.875 56 
Q 33.9375 56 38.25 53.625 
Q 42.578125 51.265625 45.40625 46.390625 
z
M 14.796875 27.296875 
Q 14.796875 17.390625 18.875 11.75 
Q 22.953125 6.109375 30.078125 6.109375 
Q 37.203125 6.109375 41.296875 11.75 
Q 45.40625 17.390625 45.40625 27.296875 
Q 45.40625 37.203125 41.296875 42.84375 
Q 37.203125 48.484375 30.078125 48.484375 
Q 22.953125 48.484375 18.875 42.84375 
Q 14.796875 37.203125 14.796875 27.296875 
z
" id="DejaVuSans-100"/>
       <path d="M 19.671875 64.796875 
L 19.671875 37.40625 
L 32.078125 37.40625 
Q 38.96875 37.40625 42.71875 40.96875 
Q 46.484375 44.53125 46.484375 51.125 
Q 46.484375 57.671875 42.71875 61.234375 
Q 38.96875 64.796875 32.078125 64.796875 
z
M 9.8125 72.90625 
L 32.078125 72.90625 
Q 44.34375 72.90625 50.609375 67.359375 
Q 56.890625 61.8125 56.890625 51.125 
Q 56.890625 40.328125 50.609375 34.8125 
Q 44.34375 29.296875 32.078125 29.296875 
L 19.671875 29.296875 
L 19.671875 0 
L 9.8125 0 
z
" id="DejaVuSans-80"/>
      </defs>
      <g transform="translate(483.775295 534.73175)rotate(-90)scale(0.088 -0.088)">
       <use xlink:href="#DejaVuSans-83"/>
       <use x="63.476562" xlink:href="#DejaVuSans-121"/>
       <use x="122.65625" xlink:href="#DejaVuSans-115"/>
       <use x="174.755859" xlink:href="#DejaVuSans-116"/>
       <use x="213.964844" xlink:href="#DejaVuSans-111"/>
       <use x="275.146484" xlink:href="#DejaVuSans-108"/>
       <use x="302.929688" xlink:href="#DejaVuSans-105"/>
       <use x="330.712891" xlink:href="#DejaVuSans-99"/>
       <use x="385.693359" xlink:href="#DejaVuSans-32"/>
       <use x="417.480469" xlink:href="#DejaVuSans-66"/>
       <use x="486.083984" xlink:href="#DejaVuSans-108"/>
       <use x="513.867188" xlink:href="#DejaVuSans-111"/>
       <use x="575.048828" xlink:href="#DejaVuSans-111"/>
       <use x="636.230469" xlink:href="#DejaVuSans-100"/>
       <use x="699.707031" xlink:href="#DejaVuSans-32"/>
       <use x="731.494141" xlink:href="#DejaVuSans-80"/>
       <use x="790.046875" xlink:href="#DejaVuSans-114"/>
       <use x="828.910156" xlink:href="#DejaVuSans-101"/>
       <use x="890.433594" xlink:href="#DejaVuSans-115"/>
       <use x="942.533203" xlink:href="#DejaVuSans-115"/>
       <use x="994.632812" xlink:href="#DejaVuSans-117"/>
       <use x="1058.011719" xlink:href="#DejaVuSans-114"/>
       <use x="1096.875" xlink:href="#DejaVuSans-101"/>
      </g>
     </g>
    </g>
    <g id="xtick_7">
     <g id="line2d_7">
      <g>
       <use style="stroke:#000000;" x="550.351036" xlink:href="#m0ed6931366" y="424.492"/>
      </g>
     </g>
     <g id="text_7">
      <!-- High Cholesterol -->
      <defs>
       <path d="M 64.40625 67.28125 
L 64.40625 56.890625 
Q 59.421875 61.53125 53.78125 63.8125 
Q 48.140625 66.109375 41.796875 66.109375 
Q 29.296875 66.109375 22.65625 58.46875 
Q 16.015625 50.828125 16.015625 36.375 
Q 16.015625 21.96875 22.65625 14.328125 
Q 29.296875 6.6875 41.796875 6.6875 
Q 48.140625 6.6875 53.78125 8.984375 
Q 59.421875 11.28125 64.40625 15.921875 
L 64.40625 5.609375 
Q 59.234375 2.09375 53.4375 0.328125 
Q 47.65625 -1.421875 41.21875 -1.421875 
Q 24.65625 -1.421875 15.125 8.703125 
Q 5.609375 18.84375 5.609375 36.375 
Q 5.609375 53.953125 15.125 64.078125 
Q 24.65625 74.21875 41.21875 74.21875 
Q 47.75 74.21875 53.53125 72.484375 
Q 59.328125 70.75 64.40625 67.28125 
z
" id="DejaVuSans-67"/>
      </defs>
      <g transform="translate(552.779286 505.478625)rotate(-90)scale(0.088 -0.088)">
       <use xlink:href="#DejaVuSans-72"/>
       <use x="75.195312" xlink:href="#DejaVuSans-105"/>
       <use x="102.978516" xlink:href="#DejaVuSans-103"/>
       <use x="166.455078" xlink:href="#DejaVuSans-104"/>
       <use x="229.833984" xlink:href="#DejaVuSans-32"/>
       <use x="261.621094" xlink:href="#DejaVuSans-67"/>
       <use x="331.445312" xlink:href="#DejaVuSans-104"/>
       <use x="394.824219" xlink:href="#DejaVuSans-111"/>
       <use x="456.005859" xlink:href="#DejaVuSans-108"/>
       <use x="483.789062" xlink:href="#DejaVuSans-101"/>
       <use x="545.3125" xlink:href="#DejaVuSans-115"/>
       <use x="597.412109" xlink:href="#DejaVuSans-116"/>
       <use x="636.621094" xlink:href="#DejaVuSans-101"/>
       <use x="698.144531" xlink:href="#DejaVuSans-114"/>
       <use x="737.007812" xlink:href="#DejaVuSans-111"/>
       <use x="798.189453" xlink:href="#DejaVuSans-108"/>
      </g>
     </g>
    </g>
    <g id="xtick_8">
     <g id="line2d_8">
      <g>
       <use style="stroke:#000000;" x="619.355027" xlink:href="#m0ed6931366" y="424.492"/>
      </g>
     </g>
     <g id="text_8">
      <!-- Type 2 diabetes -->
      <defs>
       <path d="M -0.296875 72.90625 
L 61.375 72.90625 
L 61.375 64.59375 
L 35.5 64.59375 
L 35.5 0 
L 25.59375 0 
L 25.59375 64.59375 
L -0.296875 64.59375 
z
" id="DejaVuSans-84"/>
       <path d="M 19.1875 8.296875 
L 53.609375 8.296875 
L 53.609375 0 
L 7.328125 0 
L 7.328125 8.296875 
Q 12.9375 14.109375 22.625 23.890625 
Q 32.328125 33.6875 34.8125 36.53125 
Q 39.546875 41.84375 41.421875 45.53125 
Q 43.3125 49.21875 43.3125 52.78125 
Q 43.3125 58.59375 39.234375 62.25 
Q 35.15625 65.921875 28.609375 65.921875 
Q 23.96875 65.921875 18.8125 64.3125 
Q 13.671875 62.703125 7.8125 59.421875 
L 7.8125 69.390625 
Q 13.765625 71.78125 18.9375 73 
Q 24.125 74.21875 28.421875 74.21875 
Q 39.75 74.21875 46.484375 68.546875 
Q 53.21875 62.890625 53.21875 53.421875 
Q 53.21875 48.921875 51.53125 44.890625 
Q 49.859375 40.875 45.40625 35.40625 
Q 44.1875 33.984375 37.640625 27.21875 
Q 31.109375 20.453125 19.1875 8.296875 
z
" id="DejaVuSans-50"/>
       <path d="M 48.6875 27.296875 
Q 48.6875 37.203125 44.609375 42.84375 
Q 40.53125 48.484375 33.40625 48.484375 
Q 26.265625 48.484375 22.1875 42.84375 
Q 18.109375 37.203125 18.109375 27.296875 
Q 18.109375 17.390625 22.1875 11.75 
Q 26.265625 6.109375 33.40625 6.109375 
Q 40.53125 6.109375 44.609375 11.75 
Q 48.6875 17.390625 48.6875 27.296875 
z
M 18.109375 46.390625 
Q 20.953125 51.265625 25.265625 53.625 
Q 29.59375 56 35.59375 56 
Q 45.5625 56 51.78125 48.09375 
Q 58.015625 40.1875 58.015625 27.296875 
Q 58.015625 14.40625 51.78125 6.484375 
Q 45.5625 -1.421875 35.59375 -1.421875 
Q 29.59375 -1.421875 25.265625 0.953125 
Q 20.953125 3.328125 18.109375 8.203125 
L 18.109375 0 
L 9.078125 0 
L 9.078125 75.984375 
L 18.109375 75.984375 
z
" id="DejaVuSans-98"/>
      </defs>
      <g transform="translate(621.783277 502.068625)rotate(-90)scale(0.088 -0.088)">
       <use xlink:href="#DejaVuSans-84"/>
       <use x="45.458984" xlink:href="#DejaVuSans-121"/>
       <use x="104.638672" xlink:href="#DejaVuSans-112"/>
       <use x="168.115234" xlink:href="#DejaVuSans-101"/>
       <use x="229.638672" xlink:href="#DejaVuSans-32"/>
       <use x="261.425781" xlink:href="#DejaVuSans-50"/>
       <use x="325.048828" xlink:href="#DejaVuSans-32"/>
       <use x="356.835938" xlink:href="#DejaVuSans-100"/>
       <use x="420.3125" xlink:href="#DejaVuSans-105"/>
       <use x="448.095703" xlink:href="#DejaVuSans-97"/>
       <use x="509.375" xlink:href="#DejaVuSans-98"/>
       <use x="572.851562" xlink:href="#DejaVuSans-101"/>
       <use x="634.375" xlink:href="#DejaVuSans-116"/>
       <use x="673.583984" xlink:href="#DejaVuSans-101"/>
       <use x="735.107422" xlink:href="#DejaVuSans-115"/>
      </g>
     </g>
    </g>
    <g id="xtick_9">
     <g id="line2d_9">
      <g>
       <use style="stroke:#000000;" x="688.359018" xlink:href="#m0ed6931366" y="424.492"/>
      </g>
     </g>
     <g id="text_9">
      <!-- Respiratory and ENT Diseases -->
      <defs>
       <path d="M 9.8125 72.90625 
L 55.90625 72.90625 
L 55.90625 64.59375 
L 19.671875 64.59375 
L 19.671875 43.015625 
L 54.390625 43.015625 
L 54.390625 34.71875 
L 19.671875 34.71875 
L 19.671875 8.296875 
L 56.78125 8.296875 
L 56.78125 0 
L 9.8125 0 
z
" id="DejaVuSans-69"/>
       <path d="M 9.8125 72.90625 
L 23.09375 72.90625 
L 55.421875 11.921875 
L 55.421875 72.90625 
L 64.984375 72.90625 
L 64.984375 0 
L 51.703125 0 
L 19.390625 60.984375 
L 19.390625 0 
L 9.8125 0 
z
" id="DejaVuSans-78"/>
       <path d="M 19.671875 64.796875 
L 19.671875 8.109375 
L 31.59375 8.109375 
Q 46.6875 8.109375 53.6875 14.9375 
Q 60.6875 21.78125 60.6875 36.53125 
Q 60.6875 51.171875 53.6875 57.984375 
Q 46.6875 64.796875 31.59375 64.796875 
z
M 9.8125 72.90625 
L 30.078125 72.90625 
Q 51.265625 72.90625 61.171875 64.09375 
Q 71.09375 55.28125 71.09375 36.53125 
Q 71.09375 17.671875 61.125 8.828125 
Q 51.171875 0 30.078125 0 
L 9.8125 0 
z
" id="DejaVuSans-68"/>
      </defs>
      <g transform="translate(690.787268 564.873125)rotate(-90)scale(0.088 -0.088)">
       <use xlink:href="#DejaVuSans-82"/>
       <use x="64.982422" xlink:href="#DejaVuSans-101"/>
       <use x="126.505859" xlink:href="#DejaVuSans-115"/>
       <use x="178.605469" xlink:href="#DejaVuSans-112"/>
       <use x="242.082031" xlink:href="#DejaVuSans-105"/>
       <use x="269.865234" xlink:href="#DejaVuSans-114"/>
       <use x="310.978516" xlink:href="#DejaVuSans-97"/>
       <use x="372.257812" xlink:href="#DejaVuSans-116"/>
       <use x="411.466797" xlink:href="#DejaVuSans-111"/>
       <use x="472.648438" xlink:href="#DejaVuSans-114"/>
       <use x="513.761719" xlink:href="#DejaVuSans-121"/>
       <use x="572.941406" xlink:href="#DejaVuSans-32"/>
       <use x="604.728516" xlink:href="#DejaVuSans-97"/>
       <use x="666.007812" xlink:href="#DejaVuSans-110"/>
       <use x="729.386719" xlink:href="#DejaVuSans-100"/>
       <use x="792.863281" xlink:href="#DejaVuSans-32"/>
       <use x="824.650391" xlink:href="#DejaVuSans-69"/>
       <use x="887.833984" xlink:href="#DejaVuSans-78"/>
       <use x="962.638672" xlink:href="#DejaVuSans-84"/>
       <use x="1023.722656" xlink:href="#DejaVuSans-32"/>
       <use x="1055.509766" xlink:href="#DejaVuSans-68"/>
       <use x="1132.511719" xlink:href="#DejaVuSans-105"/>
       <use x="1160.294922" xlink:href="#DejaVuSans-115"/>
       <use x="1212.394531" xlink:href="#DejaVuSans-101"/>
       <use x="1273.917969" xlink:href="#DejaVuSans-97"/>
       <use x="1335.197266" xlink:href="#DejaVuSans-115"/>
       <use x="1387.296875" xlink:href="#DejaVuSans-101"/>
       <use x="1448.820312" xlink:href="#DejaVuSans-115"/>
      </g>
     </g>
    </g>
    <g id="xtick_10">
     <g id="line2d_10">
      <g>
       <use style="stroke:#000000;" x="757.363009" xlink:href="#m0ed6931366" y="424.492"/>
      </g>
     </g>
     <g id="text_10">
      <!-- Auto Immune Traits -->
      <defs>
       <path d="M 52 44.1875 
Q 55.375 50.25 60.0625 53.125 
Q 64.75 56 71.09375 56 
Q 79.640625 56 84.28125 50.015625 
Q 88.921875 44.046875 88.921875 33.015625 
L 88.921875 0 
L 79.890625 0 
L 79.890625 32.71875 
Q 79.890625 40.578125 77.09375 44.375 
Q 74.3125 48.1875 68.609375 48.1875 
Q 61.625 48.1875 57.5625 43.546875 
Q 53.515625 38.921875 53.515625 30.90625 
L 53.515625 0 
L 44.484375 0 
L 44.484375 32.71875 
Q 44.484375 40.625 41.703125 44.40625 
Q 38.921875 48.1875 33.109375 48.1875 
Q 26.21875 48.1875 22.15625 43.53125 
Q 18.109375 38.875 18.109375 30.90625 
L 18.109375 0 
L 9.078125 0 
L 9.078125 54.6875 
L 18.109375 54.6875 
L 18.109375 46.1875 
Q 21.1875 51.21875 25.484375 53.609375 
Q 29.78125 56 35.6875 56 
Q 41.65625 56 45.828125 52.96875 
Q 50 49.953125 52 44.1875 
z
" id="DejaVuSans-109"/>
      </defs>
      <g transform="translate(759.791259 518.691)rotate(-90)scale(0.088 -0.088)">
       <use xlink:href="#DejaVuSans-65"/>
       <use x="68.408203" xlink:href="#DejaVuSans-117"/>
       <use x="131.787109" xlink:href="#DejaVuSans-116"/>
       <use x="170.996094" xlink:href="#DejaVuSans-111"/>
       <use x="232.177734" xlink:href="#DejaVuSans-32"/>
       <use x="263.964844" xlink:href="#DejaVuSans-73"/>
       <use x="293.457031" xlink:href="#DejaVuSans-109"/>
       <use x="390.869141" xlink:href="#DejaVuSans-109"/>
       <use x="488.28125" xlink:href="#DejaVuSans-117"/>
       <use x="551.660156" xlink:href="#DejaVuSans-110"/>
       <use x="615.039062" xlink:href="#DejaVuSans-101"/>
       <use x="676.5625" xlink:href="#DejaVuSans-32"/>
       <use x="708.349609" xlink:href="#DejaVuSans-84"/>
       <use x="754.683594" xlink:href="#DejaVuSans-114"/>
       <use x="795.796875" xlink:href="#DejaVuSans-97"/>
       <use x="857.076172" xlink:href="#DejaVuSans-105"/>
       <use x="884.859375" xlink:href="#DejaVuSans-116"/>
       <use x="924.068359" xlink:href="#DejaVuSans-115"/>
      </g>
     </g>
    </g>
    <g id="xtick_11">
     <g id="line2d_11">
      <g>
       <use style="stroke:#000000;" x="826.367" xlink:href="#m0ed6931366" y="424.492"/>
      </g>
     </g>
     <g id="text_11">
      <!-- Eczema -->
      <defs>
       <path d="M 5.515625 54.6875 
L 48.1875 54.6875 
L 48.1875 46.484375 
L 14.40625 7.171875 
L 48.1875 7.171875 
L 48.1875 0 
L 4.296875 0 
L 4.296875 8.203125 
L 38.09375 47.515625 
L 5.515625 47.515625 
z
" id="DejaVuSans-122"/>
      </defs>
      <g transform="translate(828.79525 467.189)rotate(-90)scale(0.088 -0.088)">
       <use xlink:href="#DejaVuSans-69"/>
       <use x="63.183594" xlink:href="#DejaVuSans-99"/>
       <use x="118.164062" xlink:href="#DejaVuSans-122"/>
       <use x="170.654297" xlink:href="#DejaVuSans-101"/>
       <use x="232.177734" xlink:href="#DejaVuSans-109"/>
       <use x="329.589844" xlink:href="#DejaVuSans-97"/>
      </g>
     </g>
    </g>
    <g id="xtick_12">
     <g id="line2d_12">
      <g>
       <use style="stroke:#000000;" x="895.37099" xlink:href="#m0ed6931366" y="424.492"/>
      </g>
     </g>
     <g id="text_12">
      <!-- Hypothyroidism -->
      <g transform="translate(897.79924 502.261125)rotate(-90)scale(0.088 -0.088)">
       <use xlink:href="#DejaVuSans-72"/>
       <use x="75.195312" xlink:href="#DejaVuSans-121"/>
       <use x="134.375" xlink:href="#DejaVuSans-112"/>
       <use x="197.851562" xlink:href="#DejaVuSans-111"/>
       <use x="259.033203" xlink:href="#DejaVuSans-116"/>
       <use x="298.242188" xlink:href="#DejaVuSans-104"/>
       <use x="361.621094" xlink:href="#DejaVuSans-121"/>
       <use x="420.800781" xlink:href="#DejaVuSans-114"/>
       <use x="459.664062" xlink:href="#DejaVuSans-111"/>
       <use x="520.845703" xlink:href="#DejaVuSans-105"/>
       <use x="548.628906" xlink:href="#DejaVuSans-100"/>
       <use x="612.105469" xlink:href="#DejaVuSans-105"/>
       <use x="639.888672" xlink:href="#DejaVuSans-115"/>
       <use x="691.988281" xlink:href="#DejaVuSans-109"/>
      </g>
     </g>
    </g>
   </g>
   <g id="matplotlib.axis_2">
    <g id="ytick_1">
     <g id="line2d_13">
      <defs>
       <path d="M 0 0 
L -4.8 0 
" id="mde047f9143" style="stroke:#000000;"/>
      </defs>
      <g>
       <use style="stroke:#000000;" x="65.598" xlink:href="#mde047f9143" y="406.188085"/>
      </g>
     </g>
     <g id="text_13">
      <!-- 0 -->
      <defs>
       <path d="M 31.78125 66.40625 
Q 24.171875 66.40625 20.328125 58.90625 
Q 16.5 51.421875 16.5 36.375 
Q 16.5 21.390625 20.328125 13.890625 
Q 24.171875 6.390625 31.78125 6.390625 
Q 39.453125 6.390625 43.28125 13.890625 
Q 47.125 21.390625 47.125 36.375 
Q 47.125 51.421875 43.28125 58.90625 
Q 39.453125 66.40625 31.78125 66.40625 
z
M 31.78125 74.21875 
Q 44.046875 74.21875 50.515625 64.515625 
Q 56.984375 54.828125 56.984375 36.375 
Q 56.984375 17.96875 50.515625 8.265625 
Q 44.046875 -1.421875 31.78125 -1.421875 
Q 19.53125 -1.421875 13.0625 8.265625 
Q 6.59375 17.96875 6.59375 36.375 
Q 6.59375 54.828125 13.0625 64.515625 
Q 19.53125 74.21875 31.78125 74.21875 
z
" id="DejaVuSans-48"/>
      </defs>
      <g transform="translate(51.699 409.531397)scale(0.088 -0.088)">
       <use xlink:href="#DejaVuSans-48"/>
      </g>
     </g>
    </g>
    <g id="ytick_2">
     <g id="line2d_14">
      <g>
       <use style="stroke:#000000;" x="65.598" xlink:href="#mde047f9143" y="356.859541"/>
      </g>
     </g>
     <g id="text_14">
      <!-- 50000 -->
      <defs>
       <path d="M 10.796875 72.90625 
L 49.515625 72.90625 
L 49.515625 64.59375 
L 19.828125 64.59375 
L 19.828125 46.734375 
Q 21.96875 47.46875 24.109375 47.828125 
Q 26.265625 48.1875 28.421875 48.1875 
Q 40.625 48.1875 47.75 41.5 
Q 54.890625 34.8125 54.890625 23.390625 
Q 54.890625 11.625 47.5625 5.09375 
Q 40.234375 -1.421875 26.90625 -1.421875 
Q 22.3125 -1.421875 17.546875 -0.640625 
Q 12.796875 0.140625 7.71875 1.703125 
L 7.71875 11.625 
Q 12.109375 9.234375 16.796875 8.0625 
Q 21.484375 6.890625 26.703125 6.890625 
Q 35.15625 6.890625 40.078125 11.328125 
Q 45.015625 15.765625 45.015625 23.390625 
Q 45.015625 31 40.078125 35.4375 
Q 35.15625 39.890625 26.703125 39.890625 
Q 22.75 39.890625 18.8125 39.015625 
Q 14.890625 38.140625 10.796875 36.28125 
z
" id="DejaVuSans-53"/>
      </defs>
      <g transform="translate(29.303 360.202854)scale(0.088 -0.088)">
       <use xlink:href="#DejaVuSans-53"/>
       <use x="63.623047" xlink:href="#DejaVuSans-48"/>
       <use x="127.246094" xlink:href="#DejaVuSans-48"/>
       <use x="190.869141" xlink:href="#DejaVuSans-48"/>
       <use x="254.492188" xlink:href="#DejaVuSans-48"/>
      </g>
     </g>
    </g>
    <g id="ytick_3">
     <g id="line2d_15">
      <g>
       <use style="stroke:#000000;" x="65.598" xlink:href="#mde047f9143" y="307.530997"/>
      </g>
     </g>
     <g id="text_15">
      <!-- 100000 -->
      <defs>
       <path d="M 12.40625 8.296875 
L 28.515625 8.296875 
L 28.515625 63.921875 
L 10.984375 60.40625 
L 10.984375 69.390625 
L 28.421875 72.90625 
L 38.28125 72.90625 
L 38.28125 8.296875 
L 54.390625 8.296875 
L 54.390625 0 
L 12.40625 0 
z
" id="DejaVuSans-49"/>
      </defs>
      <g transform="translate(23.704 310.87431)scale(0.088 -0.088)">
       <use xlink:href="#DejaVuSans-49"/>
       <use x="63.623047" xlink:href="#DejaVuSans-48"/>
       <use x="127.246094" xlink:href="#DejaVuSans-48"/>
       <use x="190.869141" xlink:href="#DejaVuSans-48"/>
       <use x="254.492188" xlink:href="#DejaVuSans-48"/>
       <use x="318.115234" xlink:href="#DejaVuSans-48"/>
      </g>
     </g>
    </g>
    <g id="ytick_4">
     <g id="line2d_16">
      <g>
       <use style="stroke:#000000;" x="65.598" xlink:href="#mde047f9143" y="258.202453"/>
      </g>
     </g>
     <g id="text_16">
      <!-- 150000 -->
      <g transform="translate(23.704 261.545766)scale(0.088 -0.088)">
       <use xlink:href="#DejaVuSans-49"/>
       <use x="63.623047" xlink:href="#DejaVuSans-53"/>
       <use x="127.246094" xlink:href="#DejaVuSans-48"/>
       <use x="190.869141" xlink:href="#DejaVuSans-48"/>
       <use x="254.492188" xlink:href="#DejaVuSans-48"/>
       <use x="318.115234" xlink:href="#DejaVuSans-48"/>
      </g>
     </g>
    </g>
    <g id="ytick_5">
     <g id="line2d_17">
      <g>
       <use style="stroke:#000000;" x="65.598" xlink:href="#mde047f9143" y="208.873909"/>
      </g>
     </g>
     <g id="text_17">
      <!-- 200000 -->
      <g transform="translate(23.704 212.217222)scale(0.088 -0.088)">
       <use xlink:href="#DejaVuSans-50"/>
       <use x="63.623047" xlink:href="#DejaVuSans-48"/>
       <use x="127.246094" xlink:href="#DejaVuSans-48"/>
       <use x="190.869141" xlink:href="#DejaVuSans-48"/>
       <use x="254.492188" xlink:href="#DejaVuSans-48"/>
       <use x="318.115234" xlink:href="#DejaVuSans-48"/>
      </g>
     </g>
    </g>
    <g id="ytick_6">
     <g id="line2d_18">
      <g>
       <use style="stroke:#000000;" x="65.598" xlink:href="#mde047f9143" y="159.545366"/>
      </g>
     </g>
     <g id="text_18">
      <!-- 250000 -->
      <g transform="translate(23.704 162.888678)scale(0.088 -0.088)">
       <use xlink:href="#DejaVuSans-50"/>
       <use x="63.623047" xlink:href="#DejaVuSans-53"/>
       <use x="127.246094" xlink:href="#DejaVuSans-48"/>
       <use x="190.869141" xlink:href="#DejaVuSans-48"/>
       <use x="254.492188" xlink:href="#DejaVuSans-48"/>
       <use x="318.115234" xlink:href="#DejaVuSans-48"/>
      </g>
     </g>
    </g>
    <g id="ytick_7">
     <g id="line2d_19">
      <g>
       <use style="stroke:#000000;" x="65.598" xlink:href="#mde047f9143" y="110.216822"/>
      </g>
     </g>
     <g id="text_19">
      <!-- 300000 -->
      <defs>
       <path d="M 40.578125 39.3125 
Q 47.65625 37.796875 51.625 33 
Q 55.609375 28.21875 55.609375 21.1875 
Q 55.609375 10.40625 48.1875 4.484375 
Q 40.765625 -1.421875 27.09375 -1.421875 
Q 22.515625 -1.421875 17.65625 -0.515625 
Q 12.796875 0.390625 7.625 2.203125 
L 7.625 11.71875 
Q 11.71875 9.328125 16.59375 8.109375 
Q 21.484375 6.890625 26.8125 6.890625 
Q 36.078125 6.890625 40.9375 10.546875 
Q 45.796875 14.203125 45.796875 21.1875 
Q 45.796875 27.640625 41.28125 31.265625 
Q 36.765625 34.90625 28.71875 34.90625 
L 20.21875 34.90625 
L 20.21875 43.015625 
L 29.109375 43.015625 
Q 36.375 43.015625 40.234375 45.921875 
Q 44.09375 48.828125 44.09375 54.296875 
Q 44.09375 59.90625 40.109375 62.90625 
Q 36.140625 65.921875 28.71875 65.921875 
Q 24.65625 65.921875 20.015625 65.03125 
Q 15.375 64.15625 9.8125 62.3125 
L 9.8125 71.09375 
Q 15.4375 72.65625 20.34375 73.4375 
Q 25.25 74.21875 29.59375 74.21875 
Q 40.828125 74.21875 47.359375 69.109375 
Q 53.90625 64.015625 53.90625 55.328125 
Q 53.90625 49.265625 50.4375 45.09375 
Q 46.96875 40.921875 40.578125 39.3125 
z
" id="DejaVuSans-51"/>
      </defs>
      <g transform="translate(23.704 113.560134)scale(0.088 -0.088)">
       <use xlink:href="#DejaVuSans-51"/>
       <use x="63.623047" xlink:href="#DejaVuSans-48"/>
       <use x="127.246094" xlink:href="#DejaVuSans-48"/>
       <use x="190.869141" xlink:href="#DejaVuSans-48"/>
       <use x="254.492188" xlink:href="#DejaVuSans-48"/>
       <use x="318.115234" xlink:href="#DejaVuSans-48"/>
      </g>
     </g>
    </g>
    <g id="ytick_8">
     <g id="line2d_20">
      <g>
       <use style="stroke:#000000;" x="65.598" xlink:href="#mde047f9143" y="60.888278"/>
      </g>
     </g>
     <g id="text_20">
      <!-- 350000 -->
      <g transform="translate(23.704 64.23159)scale(0.088 -0.088)">
       <use xlink:href="#DejaVuSans-51"/>
       <use x="63.623047" xlink:href="#DejaVuSans-53"/>
       <use x="127.246094" xlink:href="#DejaVuSans-48"/>
       <use x="190.869141" xlink:href="#DejaVuSans-48"/>
       <use x="254.492188" xlink:href="#DejaVuSans-48"/>
       <use x="318.115234" xlink:href="#DejaVuSans-48"/>
      </g>
     </g>
    </g>
    <g id="text_21">
     <!-- Estimated LRT -->
     <defs>
      <path d="M 9.8125 72.90625 
L 19.671875 72.90625 
L 19.671875 8.296875 
L 55.171875 8.296875 
L 55.171875 0 
L 9.8125 0 
z
" id="DejaVuSans-76"/>
     </defs>
     <g transform="translate(17.7075 258.39725)rotate(-90)scale(0.096 -0.096)">
      <use xlink:href="#DejaVuSans-69"/>
      <use x="63.183594" xlink:href="#DejaVuSans-115"/>
      <use x="115.283203" xlink:href="#DejaVuSans-116"/>
      <use x="154.492188" xlink:href="#DejaVuSans-105"/>
      <use x="182.275391" xlink:href="#DejaVuSans-109"/>
      <use x="279.6875" xlink:href="#DejaVuSans-97"/>
      <use x="340.966797" xlink:href="#DejaVuSans-116"/>
      <use x="380.175781" xlink:href="#DejaVuSans-101"/>
      <use x="441.699219" xlink:href="#DejaVuSans-100"/>
      <use x="505.175781" xlink:href="#DejaVuSans-32"/>
      <use x="536.962891" xlink:href="#DejaVuSans-76"/>
      <use x="592.675781" xlink:href="#DejaVuSans-82"/>
      <use x="654.908203" xlink:href="#DejaVuSans-84"/>
     </g>
    </g>
   </g>
   <g id="LineCollection_1">
    <path clip-path="url(#pa082f7ecee)" d="M 110.450594 404.686779 
L 110.450594 404.686779 
" style="fill:none;stroke:#000000;"/>
    <path clip-path="url(#pa082f7ecee)" d="M 179.454585 405.736185 
L 179.454585 405.736185 
" style="fill:none;stroke:#000000;"/>
    <path clip-path="url(#pa082f7ecee)" d="M 248.458576 289.152237 
L 248.458576 289.152237 
" style="fill:none;stroke:#000000;"/>
    <path clip-path="url(#pa082f7ecee)" d="M 317.462567 388.847203 
L 317.462567 388.847203 
" style="fill:none;stroke:#000000;"/>
    <path clip-path="url(#pa082f7ecee)" d="M 386.466558 396.141837 
L 386.466558 396.141837 
" style="fill:none;stroke:#000000;"/>
    <path clip-path="url(#pa082f7ecee)" d="M 455.470549 392.859023 
L 455.470549 392.859023 
" style="fill:none;stroke:#000000;"/>
    <path clip-path="url(#pa082f7ecee)" d="M 524.474539 404.800539 
L 524.474539 404.800539 
" style="fill:none;stroke:#000000;"/>
    <path clip-path="url(#pa082f7ecee)" d="M 593.47853 405.171525 
L 593.47853 405.171525 
" style="fill:none;stroke:#000000;"/>
    <path clip-path="url(#pa082f7ecee)" d="M 662.482521 404.931245 
L 662.482521 404.931245 
" style="fill:none;stroke:#000000;"/>
    <path clip-path="url(#pa082f7ecee)" d="M 731.486512 406.160784 
L 731.486512 406.160784 
" style="fill:none;stroke:#000000;"/>
    <path clip-path="url(#pa082f7ecee)" d="M 800.490503 403.719029 
L 800.490503 403.719029 
" style="fill:none;stroke:#000000;"/>
    <path clip-path="url(#pa082f7ecee)" d="M 869.494494 405.120143 
L 869.494494 405.120143 
" style="fill:none;stroke:#000000;"/>
   </g>
   <g id="LineCollection_2">
    <path clip-path="url(#pa082f7ecee)" d="M 119.076093 404.578618 
L 119.076093 404.578618 
" style="fill:none;stroke:#000000;"/>
    <path clip-path="url(#pa082f7ecee)" d="M 188.080084 405.742421 
L 188.080084 405.742421 
" style="fill:none;stroke:#000000;"/>
    <path clip-path="url(#pa082f7ecee)" d="M 257.084075 292.275354 
L 257.084075 292.275354 
" style="fill:none;stroke:#000000;"/>
    <path clip-path="url(#pa082f7ecee)" d="M 326.088066 389.16507 
L 326.088066 389.16507 
" style="fill:none;stroke:#000000;"/>
    <path clip-path="url(#pa082f7ecee)" d="M 395.092056 396.416063 
L 395.092056 396.416063 
" style="fill:none;stroke:#000000;"/>
    <path clip-path="url(#pa082f7ecee)" d="M 464.096047 393.320087 
L 464.096047 393.320087 
" style="fill:none;stroke:#000000;"/>
    <path clip-path="url(#pa082f7ecee)" d="M 533.100038 404.810681 
L 533.100038 404.810681 
" style="fill:none;stroke:#000000;"/>
    <path clip-path="url(#pa082f7ecee)" d="M 602.104029 405.181239 
L 602.104029 405.181239 
" style="fill:none;stroke:#000000;"/>
    <path clip-path="url(#pa082f7ecee)" d="M 671.10802 404.994152 
L 671.10802 404.994152 
" style="fill:none;stroke:#000000;"/>
    <path clip-path="url(#pa082f7ecee)" d="M 740.112011 406.159434 
L 740.112011 406.159434 
" style="fill:none;stroke:#000000;"/>
    <path clip-path="url(#pa082f7ecee)" d="M 809.116002 403.762741 
L 809.116002 403.762741 
" style="fill:none;stroke:#000000;"/>
    <path clip-path="url(#pa082f7ecee)" d="M 878.119993 405.210883 
L 878.119993 405.210883 
" style="fill:none;stroke:#000000;"/>
   </g>
   <g id="LineCollection_3">
    <path clip-path="url(#pa082f7ecee)" d="M 127.701592 397.409141 
L 127.701592 397.409141 
" style="fill:none;stroke:#000000;"/>
    <path clip-path="url(#pa082f7ecee)" d="M 196.705583 404.959478 
L 196.705583 404.959478 
" style="fill:none;stroke:#000000;"/>
    <path clip-path="url(#pa082f7ecee)" d="M 265.709574 41.791818 
L 265.709574 41.791818 
" style="fill:none;stroke:#000000;"/>
    <path clip-path="url(#pa082f7ecee)" d="M 334.713564 342.485403 
L 334.713564 342.485403 
" style="fill:none;stroke:#000000;"/>
    <path clip-path="url(#pa082f7ecee)" d="M 403.717555 375.583644 
L 403.717555 375.583644 
" style="fill:none;stroke:#000000;"/>
    <path clip-path="url(#pa082f7ecee)" d="M 472.721546 365.971345 
L 472.721546 365.971345 
" style="fill:none;stroke:#000000;"/>
    <path clip-path="url(#pa082f7ecee)" d="M 541.725537 402.562386 
L 541.725537 402.562386 
" style="fill:none;stroke:#000000;"/>
    <path clip-path="url(#pa082f7ecee)" d="M 610.729528 403.64474 
L 610.729528 403.64474 
" style="fill:none;stroke:#000000;"/>
    <path clip-path="url(#pa082f7ecee)" d="M 679.733519 403.000066 
L 679.733519 403.000066 
" style="fill:none;stroke:#000000;"/>
    <path clip-path="url(#pa082f7ecee)" d="M 748.73751 406.209054 
L 748.73751 406.209054 
" style="fill:none;stroke:#000000;"/>
    <path clip-path="url(#pa082f7ecee)" d="M 817.741501 398.712464 
L 817.741501 398.712464 
" style="fill:none;stroke:#000000;"/>
    <path clip-path="url(#pa082f7ecee)" d="M 886.745492 403.734295 
L 886.745492 403.734295 
" style="fill:none;stroke:#000000;"/>
   </g>
   <g id="LineCollection_4">
    <path clip-path="url(#pa082f7ecee)" d="M 136.327091 404.435404 
L 136.327091 404.435404 
" style="fill:none;stroke:#000000;"/>
    <path clip-path="url(#pa082f7ecee)" d="M 205.331082 405.744849 
L 205.331082 405.744849 
" style="fill:none;stroke:#000000;"/>
    <path clip-path="url(#pa082f7ecee)" d="M 274.335072 308.759737 
L 274.335072 308.759737 
" style="fill:none;stroke:#000000;"/>
    <path clip-path="url(#pa082f7ecee)" d="M 343.339063 392.25772 
L 343.339063 392.25772 
" style="fill:none;stroke:#000000;"/>
    <path clip-path="url(#pa082f7ecee)" d="M 412.343054 400.61557 
L 412.343054 400.61557 
" style="fill:none;stroke:#000000;"/>
    <path clip-path="url(#pa082f7ecee)" d="M 481.347045 397.641877 
L 481.347045 397.641877 
" style="fill:none;stroke:#000000;"/>
    <path clip-path="url(#pa082f7ecee)" d="M 550.351036 405.204658 
L 550.351036 405.204658 
" style="fill:none;stroke:#000000;"/>
    <path clip-path="url(#pa082f7ecee)" d="M 619.355027 405.556008 
L 619.355027 405.556008 
" style="fill:none;stroke:#000000;"/>
    <path clip-path="url(#pa082f7ecee)" d="M 688.359018 405.477456 
L 688.359018 405.477456 
" style="fill:none;stroke:#000000;"/>
    <path clip-path="url(#pa082f7ecee)" d="M 757.363009 406.181598 
L 757.363009 406.181598 
" style="fill:none;stroke:#000000;"/>
    <path clip-path="url(#pa082f7ecee)" d="M 826.367 404.829717 
L 826.367 404.829717 
" style="fill:none;stroke:#000000;"/>
    <path clip-path="url(#pa082f7ecee)" d="M 895.37099 405.575298 
L 895.37099 405.575298 
" style="fill:none;stroke:#000000;"/>
   </g>
   <g id="LineCollection_5">
    <path clip-path="url(#pa082f7ecee)" d="M 144.95259 404.099756 
L 144.95259 404.099756 
" style="fill:none;stroke:#000000;"/>
    <path clip-path="url(#pa082f7ecee)" d="M 213.95658 405.724841 
L 213.95658 405.724841 
" style="fill:none;stroke:#000000;"/>
    <path clip-path="url(#pa082f7ecee)" d="M 282.960571 308.529283 
L 282.960571 308.529283 
" style="fill:none;stroke:#000000;"/>
    <path clip-path="url(#pa082f7ecee)" d="M 351.964562 390.736156 
L 351.964562 390.736156 
" style="fill:none;stroke:#000000;"/>
    <path clip-path="url(#pa082f7ecee)" d="M 420.968553 400.124626 
L 420.968553 400.124626 
" style="fill:none;stroke:#000000;"/>
    <path clip-path="url(#pa082f7ecee)" d="M 489.972544 397.135565 
L 489.972544 397.135565 
" style="fill:none;stroke:#000000;"/>
    <path clip-path="url(#pa082f7ecee)" d="M 558.976535 405.140037 
L 558.976535 405.140037 
" style="fill:none;stroke:#000000;"/>
    <path clip-path="url(#pa082f7ecee)" d="M 627.980526 405.473319 
L 627.980526 405.473319 
" style="fill:none;stroke:#000000;"/>
    <path clip-path="url(#pa082f7ecee)" d="M 696.984517 405.438064 
L 696.984517 405.438064 
" style="fill:none;stroke:#000000;"/>
    <path clip-path="url(#pa082f7ecee)" d="M 765.988508 406.176559 
L 765.988508 406.176559 
" style="fill:none;stroke:#000000;"/>
    <path clip-path="url(#pa082f7ecee)" d="M 834.992498 404.679838 
L 834.992498 404.679838 
" style="fill:none;stroke:#000000;"/>
    <path clip-path="url(#pa082f7ecee)" d="M 903.996489 405.583209 
L 903.996489 405.583209 
" style="fill:none;stroke:#000000;"/>
   </g>
   <g id="LineCollection_6">
    <path clip-path="url(#pa082f7ecee)" d="M 153.578088 398.631144 
L 153.578088 398.631144 
" style="fill:none;stroke:#000000;"/>
    <path clip-path="url(#pa082f7ecee)" d="M 222.582079 405.049734 
L 222.582079 405.049734 
" style="fill:none;stroke:#000000;"/>
    <path clip-path="url(#pa082f7ecee)" d="M 291.58607 110.838032 
L 291.58607 110.838032 
" style="fill:none;stroke:#000000;"/>
    <path clip-path="url(#pa082f7ecee)" d="M 360.590061 355.154245 
L 360.590061 355.154245 
" style="fill:none;stroke:#000000;"/>
    <path clip-path="url(#pa082f7ecee)" d="M 429.594052 386.969673 
L 429.594052 386.969673 
" style="fill:none;stroke:#000000;"/>
    <path clip-path="url(#pa082f7ecee)" d="M 498.598043 376.918331 
L 498.598043 376.918331 
" style="fill:none;stroke:#000000;"/>
    <path clip-path="url(#pa082f7ecee)" d="M 567.602034 402.800314 
L 567.602034 402.800314 
" style="fill:none;stroke:#000000;"/>
    <path clip-path="url(#pa082f7ecee)" d="M 636.606025 404.402433 
L 636.606025 404.402433 
" style="fill:none;stroke:#000000;"/>
    <path clip-path="url(#pa082f7ecee)" d="M 705.610015 403.920055 
L 705.610015 403.920055 
" style="fill:none;stroke:#000000;"/>
    <path clip-path="url(#pa082f7ecee)" d="M 774.614006 406.268182 
L 774.614006 406.268182 
" style="fill:none;stroke:#000000;"/>
    <path clip-path="url(#pa082f7ecee)" d="M 843.617997 400.992109 
L 843.617997 400.992109 
" style="fill:none;stroke:#000000;"/>
    <path clip-path="url(#pa082f7ecee)" d="M 912.621988 404.608604 
L 912.621988 404.608604 
" style="fill:none;stroke:#000000;"/>
   </g>
   <g id="line2d_21">
    <defs>
     <path d="M 2 0 
L -2 -0 
" id="md80a338d5d" style="stroke:#000000;"/>
    </defs>
    <g clip-path="url(#pa082f7ecee)">
     <use style="stroke:#000000;" x="110.450594" xlink:href="#md80a338d5d" y="404.686779"/>
     <use style="stroke:#000000;" x="179.454585" xlink:href="#md80a338d5d" y="405.736185"/>
     <use style="stroke:#000000;" x="248.458576" xlink:href="#md80a338d5d" y="289.152237"/>
     <use style="stroke:#000000;" x="317.462567" xlink:href="#md80a338d5d" y="388.847203"/>
     <use style="stroke:#000000;" x="386.466558" xlink:href="#md80a338d5d" y="396.141837"/>
     <use style="stroke:#000000;" x="455.470549" xlink:href="#md80a338d5d" y="392.859023"/>
     <use style="stroke:#000000;" x="524.474539" xlink:href="#md80a338d5d" y="404.800539"/>
     <use style="stroke:#000000;" x="593.47853" xlink:href="#md80a338d5d" y="405.171525"/>
     <use style="stroke:#000000;" x="662.482521" xlink:href="#md80a338d5d" y="404.931245"/>
     <use style="stroke:#000000;" x="731.486512" xlink:href="#md80a338d5d" y="406.160784"/>
     <use style="stroke:#000000;" x="800.490503" xlink:href="#md80a338d5d" y="403.719029"/>
     <use style="stroke:#000000;" x="869.494494" xlink:href="#md80a338d5d" y="405.120143"/>
    </g>
   </g>
   <g id="line2d_22">
    <g clip-path="url(#pa082f7ecee)">
     <use style="stroke:#000000;" x="110.450594" xlink:href="#md80a338d5d" y="404.686779"/>
     <use style="stroke:#000000;" x="179.454585" xlink:href="#md80a338d5d" y="405.736185"/>
     <use style="stroke:#000000;" x="248.458576" xlink:href="#md80a338d5d" y="289.152237"/>
     <use style="stroke:#000000;" x="317.462567" xlink:href="#md80a338d5d" y="388.847203"/>
     <use style="stroke:#000000;" x="386.466558" xlink:href="#md80a338d5d" y="396.141837"/>
     <use style="stroke:#000000;" x="455.470549" xlink:href="#md80a338d5d" y="392.859023"/>
     <use style="stroke:#000000;" x="524.474539" xlink:href="#md80a338d5d" y="404.800539"/>
     <use style="stroke:#000000;" x="593.47853" xlink:href="#md80a338d5d" y="405.171525"/>
     <use style="stroke:#000000;" x="662.482521" xlink:href="#md80a338d5d" y="404.931245"/>
     <use style="stroke:#000000;" x="731.486512" xlink:href="#md80a338d5d" y="406.160784"/>
     <use style="stroke:#000000;" x="800.490503" xlink:href="#md80a338d5d" y="403.719029"/>
     <use style="stroke:#000000;" x="869.494494" xlink:href="#md80a338d5d" y="405.120143"/>
    </g>
   </g>
   <g id="line2d_23">
    <g clip-path="url(#pa082f7ecee)">
     <use style="stroke:#000000;" x="119.076093" xlink:href="#md80a338d5d" y="404.578618"/>
     <use style="stroke:#000000;" x="188.080084" xlink:href="#md80a338d5d" y="405.742421"/>
     <use style="stroke:#000000;" x="257.084075" xlink:href="#md80a338d5d" y="292.275354"/>
     <use style="stroke:#000000;" x="326.088066" xlink:href="#md80a338d5d" y="389.16507"/>
     <use style="stroke:#000000;" x="395.092056" xlink:href="#md80a338d5d" y="396.416063"/>
     <use style="stroke:#000000;" x="464.096047" xlink:href="#md80a338d5d" y="393.320087"/>
     <use style="stroke:#000000;" x="533.100038" xlink:href="#md80a338d5d" y="404.810681"/>
     <use style="stroke:#000000;" x="602.104029" xlink:href="#md80a338d5d" y="405.181239"/>
     <use style="stroke:#000000;" x="671.10802" xlink:href="#md80a338d5d" y="404.994152"/>
     <use style="stroke:#000000;" x="740.112011" xlink:href="#md80a338d5d" y="406.159434"/>
     <use style="stroke:#000000;" x="809.116002" xlink:href="#md80a338d5d" y="403.762741"/>
     <use style="stroke:#000000;" x="878.119993" xlink:href="#md80a338d5d" y="405.210883"/>
    </g>
   </g>
   <g id="line2d_24">
    <g clip-path="url(#pa082f7ecee)">
     <use style="stroke:#000000;" x="119.076093" xlink:href="#md80a338d5d" y="404.578618"/>
     <use style="stroke:#000000;" x="188.080084" xlink:href="#md80a338d5d" y="405.742421"/>
     <use style="stroke:#000000;" x="257.084075" xlink:href="#md80a338d5d" y="292.275354"/>
     <use style="stroke:#000000;" x="326.088066" xlink:href="#md80a338d5d" y="389.16507"/>
     <use style="stroke:#000000;" x="395.092056" xlink:href="#md80a338d5d" y="396.416063"/>
     <use style="stroke:#000000;" x="464.096047" xlink:href="#md80a338d5d" y="393.320087"/>
     <use style="stroke:#000000;" x="533.100038" xlink:href="#md80a338d5d" y="404.810681"/>
     <use style="stroke:#000000;" x="602.104029" xlink:href="#md80a338d5d" y="405.181239"/>
     <use style="stroke:#000000;" x="671.10802" xlink:href="#md80a338d5d" y="404.994152"/>
     <use style="stroke:#000000;" x="740.112011" xlink:href="#md80a338d5d" y="406.159434"/>
     <use style="stroke:#000000;" x="809.116002" xlink:href="#md80a338d5d" y="403.762741"/>
     <use style="stroke:#000000;" x="878.119993" xlink:href="#md80a338d5d" y="405.210883"/>
    </g>
   </g>
   <g id="line2d_25">
    <g clip-path="url(#pa082f7ecee)">
     <use style="stroke:#000000;" x="127.701592" xlink:href="#md80a338d5d" y="397.409141"/>
     <use style="stroke:#000000;" x="196.705583" xlink:href="#md80a338d5d" y="404.959478"/>
     <use style="stroke:#000000;" x="265.709574" xlink:href="#md80a338d5d" y="41.791818"/>
     <use style="stroke:#000000;" x="334.713564" xlink:href="#md80a338d5d" y="342.485403"/>
     <use style="stroke:#000000;" x="403.717555" xlink:href="#md80a338d5d" y="375.583644"/>
     <use style="stroke:#000000;" x="472.721546" xlink:href="#md80a338d5d" y="365.971345"/>
     <use style="stroke:#000000;" x="541.725537" xlink:href="#md80a338d5d" y="402.562386"/>
     <use style="stroke:#000000;" x="610.729528" xlink:href="#md80a338d5d" y="403.64474"/>
     <use style="stroke:#000000;" x="679.733519" xlink:href="#md80a338d5d" y="403.000066"/>
     <use style="stroke:#000000;" x="748.73751" xlink:href="#md80a338d5d" y="406.209054"/>
     <use style="stroke:#000000;" x="817.741501" xlink:href="#md80a338d5d" y="398.712464"/>
     <use style="stroke:#000000;" x="886.745492" xlink:href="#md80a338d5d" y="403.734295"/>
    </g>
   </g>
   <g id="line2d_26">
    <g clip-path="url(#pa082f7ecee)">
     <use style="stroke:#000000;" x="127.701592" xlink:href="#md80a338d5d" y="397.409141"/>
     <use style="stroke:#000000;" x="196.705583" xlink:href="#md80a338d5d" y="404.959478"/>
     <use style="stroke:#000000;" x="265.709574" xlink:href="#md80a338d5d" y="41.791818"/>
     <use style="stroke:#000000;" x="334.713564" xlink:href="#md80a338d5d" y="342.485403"/>
     <use style="stroke:#000000;" x="403.717555" xlink:href="#md80a338d5d" y="375.583644"/>
     <use style="stroke:#000000;" x="472.721546" xlink:href="#md80a338d5d" y="365.971345"/>
     <use style="stroke:#000000;" x="541.725537" xlink:href="#md80a338d5d" y="402.562386"/>
     <use style="stroke:#000000;" x="610.729528" xlink:href="#md80a338d5d" y="403.64474"/>
     <use style="stroke:#000000;" x="679.733519" xlink:href="#md80a338d5d" y="403.000066"/>
     <use style="stroke:#000000;" x="748.73751" xlink:href="#md80a338d5d" y="406.209054"/>
     <use style="stroke:#000000;" x="817.741501" xlink:href="#md80a338d5d" y="398.712464"/>
     <use style="stroke:#000000;" x="886.745492" xlink:href="#md80a338d5d" y="403.734295"/>
    </g>
   </g>
   <g id="line2d_27">
    <g clip-path="url(#pa082f7ecee)">
     <use style="stroke:#000000;" x="136.327091" xlink:href="#md80a338d5d" y="404.435404"/>
     <use style="stroke:#000000;" x="205.331082" xlink:href="#md80a338d5d" y="405.744849"/>
     <use style="stroke:#000000;" x="274.335072" xlink:href="#md80a338d5d" y="308.759737"/>
     <use style="stroke:#000000;" x="343.339063" xlink:href="#md80a338d5d" y="392.25772"/>
     <use style="stroke:#000000;" x="412.343054" xlink:href="#md80a338d5d" y="400.61557"/>
     <use style="stroke:#000000;" x="481.347045" xlink:href="#md80a338d5d" y="397.641877"/>
     <use style="stroke:#000000;" x="550.351036" xlink:href="#md80a338d5d" y="405.204658"/>
     <use style="stroke:#000000;" x="619.355027" xlink:href="#md80a338d5d" y="405.556008"/>
     <use style="stroke:#000000;" x="688.359018" xlink:href="#md80a338d5d" y="405.477456"/>
     <use style="stroke:#000000;" x="757.363009" xlink:href="#md80a338d5d" y="406.181598"/>
     <use style="stroke:#000000;" x="826.367" xlink:href="#md80a338d5d" y="404.829717"/>
     <use style="stroke:#000000;" x="895.37099" xlink:href="#md80a338d5d" y="405.575298"/>
    </g>
   </g>
   <g id="line2d_28">
    <g clip-path="url(#pa082f7ecee)">
     <use style="stroke:#000000;" x="136.327091" xlink:href="#md80a338d5d" y="404.435404"/>
     <use style="stroke:#000000;" x="205.331082" xlink:href="#md80a338d5d" y="405.744849"/>
     <use style="stroke:#000000;" x="274.335072" xlink:href="#md80a338d5d" y="308.759737"/>
     <use style="stroke:#000000;" x="343.339063" xlink:href="#md80a338d5d" y="392.25772"/>
     <use style="stroke:#000000;" x="412.343054" xlink:href="#md80a338d5d" y="400.61557"/>
     <use style="stroke:#000000;" x="481.347045" xlink:href="#md80a338d5d" y="397.641877"/>
     <use style="stroke:#000000;" x="550.351036" xlink:href="#md80a338d5d" y="405.204658"/>
     <use style="stroke:#000000;" x="619.355027" xlink:href="#md80a338d5d" y="405.556008"/>
     <use style="stroke:#000000;" x="688.359018" xlink:href="#md80a338d5d" y="405.477456"/>
     <use style="stroke:#000000;" x="757.363009" xlink:href="#md80a338d5d" y="406.181598"/>
     <use style="stroke:#000000;" x="826.367" xlink:href="#md80a338d5d" y="404.829717"/>
     <use style="stroke:#000000;" x="895.37099" xlink:href="#md80a338d5d" y="405.575298"/>
    </g>
   </g>
   <g id="line2d_29">
    <g clip-path="url(#pa082f7ecee)">
     <use style="stroke:#000000;" x="144.95259" xlink:href="#md80a338d5d" y="404.099756"/>
     <use style="stroke:#000000;" x="213.95658" xlink:href="#md80a338d5d" y="405.724841"/>
     <use style="stroke:#000000;" x="282.960571" xlink:href="#md80a338d5d" y="308.529283"/>
     <use style="stroke:#000000;" x="351.964562" xlink:href="#md80a338d5d" y="390.736156"/>
     <use style="stroke:#000000;" x="420.968553" xlink:href="#md80a338d5d" y="400.124626"/>
     <use style="stroke:#000000;" x="489.972544" xlink:href="#md80a338d5d" y="397.135565"/>
     <use style="stroke:#000000;" x="558.976535" xlink:href="#md80a338d5d" y="405.140037"/>
     <use style="stroke:#000000;" x="627.980526" xlink:href="#md80a338d5d" y="405.473319"/>
     <use style="stroke:#000000;" x="696.984517" xlink:href="#md80a338d5d" y="405.438064"/>
     <use style="stroke:#000000;" x="765.988508" xlink:href="#md80a338d5d" y="406.176559"/>
     <use style="stroke:#000000;" x="834.992498" xlink:href="#md80a338d5d" y="404.679838"/>
     <use style="stroke:#000000;" x="903.996489" xlink:href="#md80a338d5d" y="405.583209"/>
    </g>
   </g>
   <g id="line2d_30">
    <g clip-path="url(#pa082f7ecee)">
     <use style="stroke:#000000;" x="144.95259" xlink:href="#md80a338d5d" y="404.099756"/>
     <use style="stroke:#000000;" x="213.95658" xlink:href="#md80a338d5d" y="405.724841"/>
     <use style="stroke:#000000;" x="282.960571" xlink:href="#md80a338d5d" y="308.529283"/>
     <use style="stroke:#000000;" x="351.964562" xlink:href="#md80a338d5d" y="390.736156"/>
     <use style="stroke:#000000;" x="420.968553" xlink:href="#md80a338d5d" y="400.124626"/>
     <use style="stroke:#000000;" x="489.972544" xlink:href="#md80a338d5d" y="397.135565"/>
     <use style="stroke:#000000;" x="558.976535" xlink:href="#md80a338d5d" y="405.140037"/>
     <use style="stroke:#000000;" x="627.980526" xlink:href="#md80a338d5d" y="405.473319"/>
     <use style="stroke:#000000;" x="696.984517" xlink:href="#md80a338d5d" y="405.438064"/>
     <use style="stroke:#000000;" x="765.988508" xlink:href="#md80a338d5d" y="406.176559"/>
     <use style="stroke:#000000;" x="834.992498" xlink:href="#md80a338d5d" y="404.679838"/>
     <use style="stroke:#000000;" x="903.996489" xlink:href="#md80a338d5d" y="405.583209"/>
    </g>
   </g>
   <g id="line2d_31">
    <g clip-path="url(#pa082f7ecee)">
     <use style="stroke:#000000;" x="153.578088" xlink:href="#md80a338d5d" y="398.631144"/>
     <use style="stroke:#000000;" x="222.582079" xlink:href="#md80a338d5d" y="405.049734"/>
     <use style="stroke:#000000;" x="291.58607" xlink:href="#md80a338d5d" y="110.838032"/>
     <use style="stroke:#000000;" x="360.590061" xlink:href="#md80a338d5d" y="355.154245"/>
     <use style="stroke:#000000;" x="429.594052" xlink:href="#md80a338d5d" y="386.969673"/>
     <use style="stroke:#000000;" x="498.598043" xlink:href="#md80a338d5d" y="376.918331"/>
     <use style="stroke:#000000;" x="567.602034" xlink:href="#md80a338d5d" y="402.800314"/>
     <use style="stroke:#000000;" x="636.606025" xlink:href="#md80a338d5d" y="404.402433"/>
     <use style="stroke:#000000;" x="705.610015" xlink:href="#md80a338d5d" y="403.920055"/>
     <use style="stroke:#000000;" x="774.614006" xlink:href="#md80a338d5d" y="406.268182"/>
     <use style="stroke:#000000;" x="843.617997" xlink:href="#md80a338d5d" y="400.992109"/>
     <use style="stroke:#000000;" x="912.621988" xlink:href="#md80a338d5d" y="404.608604"/>
    </g>
   </g>
   <g id="line2d_32">
    <g clip-path="url(#pa082f7ecee)">
     <use style="stroke:#000000;" x="153.578088" xlink:href="#md80a338d5d" y="398.631144"/>
     <use style="stroke:#000000;" x="222.582079" xlink:href="#md80a338d5d" y="405.049734"/>
     <use style="stroke:#000000;" x="291.58607" xlink:href="#md80a338d5d" y="110.838032"/>
     <use style="stroke:#000000;" x="360.590061" xlink:href="#md80a338d5d" y="355.154245"/>
     <use style="stroke:#000000;" x="429.594052" xlink:href="#md80a338d5d" y="386.969673"/>
     <use style="stroke:#000000;" x="498.598043" xlink:href="#md80a338d5d" y="376.918331"/>
     <use style="stroke:#000000;" x="567.602034" xlink:href="#md80a338d5d" y="402.800314"/>
     <use style="stroke:#000000;" x="636.606025" xlink:href="#md80a338d5d" y="404.402433"/>
     <use style="stroke:#000000;" x="705.610015" xlink:href="#md80a338d5d" y="403.920055"/>
     <use style="stroke:#000000;" x="774.614006" xlink:href="#md80a338d5d" y="406.268182"/>
     <use style="stroke:#000000;" x="843.617997" xlink:href="#md80a338d5d" y="400.992109"/>
     <use style="stroke:#000000;" x="912.621988" xlink:href="#md80a338d5d" y="404.608604"/>
    </g>
   </g>
   <g id="patch_75">
    <path d="M 65.598 424.492 
L 65.598 23.568 
" style="fill:none;stroke:#000000;stroke-linecap:square;stroke-linejoin:miter;"/>
   </g>
   <g id="patch_76">
    <path d="M 957.474582 424.492 
L 957.474582 23.568 
" style="fill:none;stroke:#000000;stroke-linecap:square;stroke-linejoin:miter;"/>
   </g>
   <g id="patch_77">
    <path d="M 65.598 424.492 
L 957.474582 424.492 
" style="fill:none;stroke:#000000;stroke-linecap:square;stroke-linejoin:miter;"/>
   </g>
   <g id="patch_78">
    <path d="M 65.598 23.568 
L 957.474582 23.568 
" style="fill:none;stroke:#000000;stroke-linecap:square;stroke-linejoin:miter;"/>
   </g>
   <g id="text_22">
    <!-- LRT -->
    <g transform="translate(502.942791 17.568)scale(0.096 -0.096)">
     <use xlink:href="#DejaVuSans-76"/>
     <use x="55.712891" xlink:href="#DejaVuSans-82"/>
     <use x="117.945312" xlink:href="#DejaVuSans-84"/>
    </g>
   </g>
   <g id="legend_1">
    <g id="patch_79">
     <path d="M 974.313348 192.719875 
L 991.913348 192.719875 
L 991.913348 186.559875 
L 974.313348 186.559875 
z
" style="fill:#f28e2b;"/>
    </g>
    <g id="text_23">
     <!-- $r^2 (\alpha=1, \theta=0)$ -->
     <defs>
      <path d="M 44.578125 46.390625 
Q 43.21875 47.125 41.453125 47.515625 
Q 39.703125 47.90625 37.703125 47.90625 
Q 30.515625 47.90625 25.140625 42.453125 
Q 19.78125 37.015625 18.015625 27.875 
L 12.5 0 
L 3.515625 0 
L 14.203125 54.6875 
L 23.1875 54.6875 
L 21.484375 46.1875 
Q 25.046875 50.921875 30 53.453125 
Q 34.96875 56 40.578125 56 
Q 42.046875 56 43.453125 55.828125 
Q 44.875 55.671875 46.296875 55.28125 
z
" id="DejaVuSans-Oblique-114"/>
      <path d="M 31 75.875 
Q 24.46875 64.65625 21.28125 53.65625 
Q 18.109375 42.671875 18.109375 31.390625 
Q 18.109375 20.125 21.3125 9.0625 
Q 24.515625 -2 31 -13.1875 
L 23.1875 -13.1875 
Q 15.875 -1.703125 12.234375 9.375 
Q 8.59375 20.453125 8.59375 31.390625 
Q 8.59375 42.28125 12.203125 53.3125 
Q 15.828125 64.359375 23.1875 75.875 
z
" id="DejaVuSans-40"/>
      <path d="M 40.921875 25.4375 
L 40.96875 36.71875 
Q 41.015625 48.25 32.328125 48.296875 
Q 25.828125 48.34375 21.78125 42.921875 
Q 16.703125 36.234375 14.984375 27.296875 
Q 12.890625 16.546875 15.53125 11.421875 
Q 18.265625 6.203125 24.171875 6.203125 
Q 30.71875 6.203125 36.234375 16.609375 
z
M 33.84375 55.90625 
Q 49.078125 56.15625 48.875 40.375 
Q 48.875 40.375 56.5 54.6875 
L 64.5 54.6875 
L 48.734375 25.046875 
L 48.578125 14.359375 
Q 48.578125 11.96875 49.90625 9.96875 
Q 51.421875 7.625 52.984375 7.625 
L 57.328125 7.625 
L 55.859375 0 
L 50.4375 0 
Q 45.84375 0 42.53125 4.109375 
Q 40.96875 6.15625 40.921875 10.453125 
Q 37.75 5.21875 32.28125 0.78125 
Q 29.6875 -1.265625 22.703125 -1.21875 
Q 11.28125 -1.125 7.125 6.203125 
Q 2.875 13.8125 5.515625 27.296875 
Q 8.34375 41.796875 15.765625 48.390625 
Q 24.125 55.765625 33.84375 55.90625 
z
" id="DejaVuSans-Oblique-945"/>
      <path d="M 10.59375 45.40625 
L 73.1875 45.40625 
L 73.1875 37.203125 
L 10.59375 37.203125 
z
M 10.59375 25.484375 
L 73.1875 25.484375 
L 73.1875 17.1875 
L 10.59375 17.1875 
z
" id="DejaVuSans-61"/>
      <path d="M 11.71875 12.40625 
L 22.015625 12.40625 
L 22.015625 4 
L 14.015625 -11.625 
L 7.71875 -11.625 
L 11.71875 4 
z
" id="DejaVuSans-44"/>
      <path d="M 45.515625 34.671875 
L 14.453125 34.671875 
Q 12.359375 20.0625 14.5 13.875 
Q 17.1875 6.25 24.46875 6.25 
Q 31.78125 6.25 37.359375 13.921875 
Q 42.234375 20.65625 45.515625 34.671875 
z
M 47.015625 42.96875 
Q 48.34375 56.84375 46.625 61.71875 
Q 43.953125 69.4375 36.765625 69.4375 
Q 29.296875 69.4375 23.828125 61.8125 
Q 19.53125 55.671875 16.15625 42.96875 
z
M 38.1875 76.765625 
Q 49.90625 76.765625 54.59375 66.40625 
Q 59.28125 56.109375 55.71875 37.84375 
Q 52.203125 19.625 43.453125 9.28125 
Q 34.765625 -1.125 23.046875 -1.125 
Q 11.28125 -1.125 6.640625 9.28125 
Q 2 19.625 5.515625 37.84375 
Q 9.078125 56.109375 17.71875 66.40625 
Q 26.421875 76.765625 38.1875 76.765625 
z
" id="DejaVuSans-Oblique-952"/>
      <path d="M 8.015625 75.875 
L 15.828125 75.875 
Q 23.140625 64.359375 26.78125 53.3125 
Q 30.421875 42.28125 30.421875 31.390625 
Q 30.421875 20.453125 26.78125 9.375 
Q 23.140625 -1.703125 15.828125 -13.1875 
L 8.015625 -13.1875 
Q 14.5 -2 17.703125 9.0625 
Q 20.90625 20.125 20.90625 31.390625 
Q 20.90625 42.671875 17.703125 53.65625 
Q 14.5 64.65625 8.015625 75.875 
z
" id="DejaVuSans-41"/>
     </defs>
     <g transform="translate(998.953348 192.719875)scale(0.088 -0.088)">
      <use transform="translate(0 0.765625)" xlink:href="#DejaVuSans-Oblique-114"/>
      <use transform="translate(45.763177 39.046875)scale(0.7)" xlink:href="#DejaVuSans-50"/>
      <use transform="translate(93.033685 0.765625)" xlink:href="#DejaVuSans-40"/>
      <use transform="translate(132.047357 0.765625)" xlink:href="#DejaVuSans-Oblique-945"/>
      <use transform="translate(217.447747 0.765625)" xlink:href="#DejaVuSans-61"/>
      <use transform="translate(320.719232 0.765625)" xlink:href="#DejaVuSans-49"/>
      <use transform="translate(384.342279 0.765625)" xlink:href="#DejaVuSans-44"/>
      <use transform="translate(435.61181 0.765625)" xlink:href="#DejaVuSans-Oblique-952"/>
      <use transform="translate(516.275872 0.765625)" xlink:href="#DejaVuSans-61"/>
      <use transform="translate(619.547357 0.765625)" xlink:href="#DejaVuSans-48"/>
      <use transform="translate(683.170404 0.765625)" xlink:href="#DejaVuSans-41"/>
     </g>
    </g>
    <g id="patch_80">
     <path d="M 974.313348 206.359875 
L 991.913348 206.359875 
L 991.913348 200.199875 
L 974.313348 200.199875 
z
" style="fill:#76b7b2;"/>
    </g>
    <g id="text_24">
     <!-- $D^2 (\alpha=1, \theta=0)$ -->
     <defs>
      <path d="M 16.890625 72.90625 
L 38.09375 72.90625 
Q 54.984375 72.90625 63.59375 65.75 
Q 72.21875 58.59375 72.21875 44.484375 
Q 72.21875 35.15625 68.9375 26.53125 
Q 65.671875 17.921875 59.90625 12.015625 
Q 54.109375 5.953125 45.171875 2.96875 
Q 36.234375 0 24.03125 0 
L 2.6875 0 
z
M 25.203125 64.796875 
L 14.203125 8.109375 
L 27.09375 8.109375 
Q 43.65625 8.109375 52.734375 17.625 
Q 61.8125 27.15625 61.8125 44.484375 
Q 61.8125 54.984375 55.953125 59.890625 
Q 50.09375 64.796875 37.59375 64.796875 
z
" id="DejaVuSans-Oblique-68"/>
     </defs>
     <g transform="translate(998.953348 206.359875)scale(0.088 -0.088)">
      <use transform="translate(0 0.765625)" xlink:href="#DejaVuSans-Oblique-68"/>
      <use transform="translate(84.018724 39.046875)scale(0.7)" xlink:href="#DejaVuSans-50"/>
      <use transform="translate(131.289232 0.765625)" xlink:href="#DejaVuSans-40"/>
      <use transform="translate(170.302904 0.765625)" xlink:href="#DejaVuSans-Oblique-945"/>
      <use transform="translate(255.703294 0.765625)" xlink:href="#DejaVuSans-61"/>
      <use transform="translate(358.974779 0.765625)" xlink:href="#DejaVuSans-49"/>
      <use transform="translate(422.597826 0.765625)" xlink:href="#DejaVuSans-44"/>
      <use transform="translate(473.867357 0.765625)" xlink:href="#DejaVuSans-Oblique-952"/>
      <use transform="translate(554.531419 0.765625)" xlink:href="#DejaVuSans-61"/>
      <use transform="translate(657.802904 0.765625)" xlink:href="#DejaVuSans-48"/>
      <use transform="translate(721.425951 0.765625)" xlink:href="#DejaVuSans-41"/>
     </g>
    </g>
    <g id="patch_81">
     <path d="M 974.313348 219.999875 
L 991.913348 219.999875 
L 991.913348 213.839875 
L 974.313348 213.839875 
z
" style="fill:#e15759;"/>
    </g>
    <g id="text_25">
     <!-- $D^2 (\alpha=0, \theta=0)$ -->
     <g transform="translate(998.953348 219.999875)scale(0.088 -0.088)">
      <use transform="translate(0 0.765625)" xlink:href="#DejaVuSans-Oblique-68"/>
      <use transform="translate(84.018724 39.046875)scale(0.7)" xlink:href="#DejaVuSans-50"/>
      <use transform="translate(131.289232 0.765625)" xlink:href="#DejaVuSans-40"/>
      <use transform="translate(170.302904 0.765625)" xlink:href="#DejaVuSans-Oblique-945"/>
      <use transform="translate(255.703294 0.765625)" xlink:href="#DejaVuSans-61"/>
      <use transform="translate(358.974779 0.765625)" xlink:href="#DejaVuSans-48"/>
      <use transform="translate(422.597826 0.765625)" xlink:href="#DejaVuSans-44"/>
      <use transform="translate(473.867357 0.765625)" xlink:href="#DejaVuSans-Oblique-952"/>
      <use transform="translate(554.531419 0.765625)" xlink:href="#DejaVuSans-61"/>
      <use transform="translate(657.802904 0.765625)" xlink:href="#DejaVuSans-48"/>
      <use transform="translate(721.425951 0.765625)" xlink:href="#DejaVuSans-41"/>
     </g>
    </g>
    <g id="patch_82">
     <path d="M 974.313348 233.639875 
L 991.913348 233.639875 
L 991.913348 227.479875 
L 974.313348 227.479875 
z
" style="fill:url(#h5a8711ad10);stroke:#ffffff;stroke-linejoin:miter;stroke-width:0.8;"/>
    </g>
    <g id="text_26">
     <!-- $r^2 (\alpha=1, \theta=1)$ -->
     <g transform="translate(998.953348 233.639875)scale(0.088 -0.088)">
      <use transform="translate(0 0.765625)" xlink:href="#DejaVuSans-Oblique-114"/>
      <use transform="translate(45.763177 39.046875)scale(0.7)" xlink:href="#DejaVuSans-50"/>
      <use transform="translate(93.033685 0.765625)" xlink:href="#DejaVuSans-40"/>
      <use transform="translate(132.047357 0.765625)" xlink:href="#DejaVuSans-Oblique-945"/>
      <use transform="translate(217.447747 0.765625)" xlink:href="#DejaVuSans-61"/>
      <use transform="translate(320.719232 0.765625)" xlink:href="#DejaVuSans-49"/>
      <use transform="translate(384.342279 0.765625)" xlink:href="#DejaVuSans-44"/>
      <use transform="translate(435.61181 0.765625)" xlink:href="#DejaVuSans-Oblique-952"/>
      <use transform="translate(516.275872 0.765625)" xlink:href="#DejaVuSans-61"/>
      <use transform="translate(619.547357 0.765625)" xlink:href="#DejaVuSans-49"/>
      <use transform="translate(683.170404 0.765625)" xlink:href="#DejaVuSans-41"/>
     </g>
    </g>
    <g id="patch_83">
     <path d="M 974.313348 247.279875 
L 991.913348 247.279875 
L 991.913348 241.119875 
L 974.313348 241.119875 
z
" style="fill:url(#h35af11491d);stroke:#ffffff;stroke-linejoin:miter;stroke-width:0.8;"/>
    </g>
    <g id="text_27">
     <!-- $D^2 (\alpha=1, \theta=1)$ -->
     <g transform="translate(998.953348 247.279875)scale(0.088 -0.088)">
      <use transform="translate(0 0.765625)" xlink:href="#DejaVuSans-Oblique-68"/>
      <use transform="translate(84.018724 39.046875)scale(0.7)" xlink:href="#DejaVuSans-50"/>
      <use transform="translate(131.289232 0.765625)" xlink:href="#DejaVuSans-40"/>
      <use transform="translate(170.302904 0.765625)" xlink:href="#DejaVuSans-Oblique-945"/>
      <use transform="translate(255.703294 0.765625)" xlink:href="#DejaVuSans-61"/>
      <use transform="translate(358.974779 0.765625)" xlink:href="#DejaVuSans-49"/>
      <use transform="translate(422.597826 0.765625)" xlink:href="#DejaVuSans-44"/>
      <use transform="translate(473.867357 0.765625)" xlink:href="#DejaVuSans-Oblique-952"/>
      <use transform="translate(554.531419 0.765625)" xlink:href="#DejaVuSans-61"/>
      <use transform="translate(657.802904 0.765625)" xlink:href="#DejaVuSans-49"/>
      <use transform="translate(721.425951 0.765625)" xlink:href="#DejaVuSans-41"/>
     </g>
    </g>
    <g id="patch_84">
     <path d="M 974.313348 260.919875 
L 991.913348 260.919875 
L 991.913348 254.759875 
L 974.313348 254.759875 
z
" style="fill:url(#he602a12a4c);stroke:#ffffff;stroke-linejoin:miter;stroke-width:0.8;"/>
    </g>
    <g id="text_28">
     <!-- $D^2 (\alpha=0, \theta=1)$ -->
     <g transform="translate(998.953348 260.919875)scale(0.088 -0.088)">
      <use transform="translate(0 0.765625)" xlink:href="#DejaVuSans-Oblique-68"/>
      <use transform="translate(84.018724 39.046875)scale(0.7)" xlink:href="#DejaVuSans-50"/>
      <use transform="translate(131.289232 0.765625)" xlink:href="#DejaVuSans-40"/>
      <use transform="translate(170.302904 0.765625)" xlink:href="#DejaVuSans-Oblique-945"/>
      <use transform="translate(255.703294 0.765625)" xlink:href="#DejaVuSans-61"/>
      <use transform="translate(358.974779 0.765625)" xlink:href="#DejaVuSans-48"/>
      <use transform="translate(422.597826 0.765625)" xlink:href="#DejaVuSans-44"/>
      <use transform="translate(473.867357 0.765625)" xlink:href="#DejaVuSans-Oblique-952"/>
      <use transform="translate(554.531419 0.765625)" xlink:href="#DejaVuSans-61"/>
      <use transform="translate(657.802904 0.765625)" xlink:href="#DejaVuSans-49"/>
      <use transform="translate(721.425951 0.765625)" xlink:href="#DejaVuSans-41"/>
     </g>
    </g>
   </g>
  </g>
 </g>
 <defs>
  <clipPath id="pa082f7ecee">
   <rect height="400.924" width="891.876582" x="65.598" y="23.568"/>
  </clipPath>
 </defs>
 <defs>
  <pattern height="72" id="h5a8711ad10" patternUnits="userSpaceOnUse" width="72" x="0" y="0">
   <rect fill="#f28e2b" height="73" width="73" x="0" y="0"/>
   <path d="M -36 36 
L 36 -36 
M -33 39 
L 39 -33 
M -30 42 
L 42 -30 
M -27 45 
L 45 -27 
M -24 48 
L 48 -24 
M -21 51 
L 51 -21 
M -18 54 
L 54 -18 
M -15 57 
L 57 -15 
M -12 60 
L 60 -12 
M -9 63 
L 63 -9 
M -6 66 
L 66 -6 
M -3 69 
L 69 -3 
M 0 72 
L 72 0 
M 3 75 
L 75 3 
M 6 78 
L 78 6 
M 9 81 
L 81 9 
M 12 84 
L 84 12 
M 15 87 
L 87 15 
M 18 90 
L 90 18 
M 21 93 
L 93 21 
M 24 96 
L 96 24 
M 27 99 
L 99 27 
M 30 102 
L 102 30 
M 33 105 
L 105 33 
M 36 108 
L 108 36 
" style="fill:#ffffff;stroke:#ffffff;stroke-linecap:butt;stroke-linejoin:miter;stroke-width:2.0;"/>
  </pattern>
  <pattern height="72" id="h35af11491d" patternUnits="userSpaceOnUse" width="72" x="0" y="0">
   <rect fill="#76b7b2" height="73" width="73" x="0" y="0"/>
   <path d="M -36 36 
L 36 -36 
M -33 39 
L 39 -33 
M -30 42 
L 42 -30 
M -27 45 
L 45 -27 
M -24 48 
L 48 -24 
M -21 51 
L 51 -21 
M -18 54 
L 54 -18 
M -15 57 
L 57 -15 
M -12 60 
L 60 -12 
M -9 63 
L 63 -9 
M -6 66 
L 66 -6 
M -3 69 
L 69 -3 
M 0 72 
L 72 0 
M 3 75 
L 75 3 
M 6 78 
L 78 6 
M 9 81 
L 81 9 
M 12 84 
L 84 12 
M 15 87 
L 87 15 
M 18 90 
L 90 18 
M 21 93 
L 93 21 
M 24 96 
L 96 24 
M 27 99 
L 99 27 
M 30 102 
L 102 30 
M 33 105 
L 105 33 
M 36 108 
L 108 36 
" style="fill:#ffffff;stroke:#ffffff;stroke-linecap:butt;stroke-linejoin:miter;stroke-width:2.0;"/>
  </pattern>
  <pattern height="72" id="he602a12a4c" patternUnits="userSpaceOnUse" width="72" x="0" y="0">
   <rect fill="#e15759" height="73" width="73" x="0" y="0"/>
   <path d="M -36 36 
L 36 -36 
M -33 39 
L 39 -33 
M -30 42 
L 42 -30 
M -27 45 
L 45 -27 
M -24 48 
L 48 -24 
M -21 51 
L 51 -21 
M -18 54 
L 54 -18 
M -15 57 
L 57 -15 
M -12 60 
L 60 -12 
M -9 63 
L 63 -9 
M -6 66 
L 66 -6 
M -3 69 
L 69 -3 
M 0 72 
L 72 0 
M 3 75 
L 75 3 
M 6 78 
L 78 6 
M 9 81 
L 81 9 
M 12 84 
L 84 12 
M 15 87 
L 87 15 
M 18 90 
L 90 18 
M 21 93 
L 93 21 
M 24 96 
L 96 24 
M 27 99 
L 99 27 
M 30 102 
L 102 30 
M 33 105 
L 105 33 
M 36 108 
L 108 36 
" style="fill:#ffffff;stroke:#ffffff;stroke-linecap:butt;stroke-linejoin:miter;stroke-width:2.0;"/>
  </pattern>
 </defs>
</svg>
