<?xml version="1.0" encoding="utf-8" standalone="no"?>
<!DOCTYPE svg PUBLIC "-//W3C//DTD SVG 1.1//EN"
  "http://www.w3.org/Graphics/SVG/1.1/DTD/svg11.dtd">
<!-- Created with matplotlib (https://matplotlib.org/) -->
<svg height="576pt" version="1.1" viewBox="0 0 1080 576" width="1080pt" xmlns="http://www.w3.org/2000/svg" xmlns:xlink="http://www.w3.org/1999/xlink">
 <defs>
  <style type="text/css">
*{stroke-linecap:butt;stroke-linejoin:round;}
  </style>
 </defs>
 <g id="figure_1">
  <g id="patch_1">
   <path d="M 0 576 
L 1080 576 
L 1080 0 
L 0 0 
z
" style="fill:#ffffff;"/>
  </g>
  <g id="axes_1">
   <g id="patch_2">
    <path d="M 53.358 424.492 
L 957.474582 424.492 
L 957.474582 23.568 
L 53.358 23.568 
z
" style="fill:#ffffff;"/>
   </g>
   <g id="patch_3">
    <path clip-path="url(#p7b860aca99)" d="M 94.454208 244.384483 
L 103.198082 244.384483 
L 103.198082 221.054998 
L 94.454208 221.054998 
z
" style="fill:#f28e2b;"/>
   </g>
   <g id="patch_4">
    <path clip-path="url(#p7b860aca99)" d="M 164.405201 244.384483 
L 173.149075 244.384483 
L 173.149075 130.854972 
L 164.405201 130.854972 
z
" style="fill:#f28e2b;"/>
   </g>
   <g id="patch_5">
    <path clip-path="url(#p7b860aca99)" d="M 234.356194 244.384483 
L 243.100068 244.384483 
L 243.100068 185.661866 
L 234.356194 185.661866 
z
" style="fill:#f28e2b;"/>
   </g>
   <g id="patch_6">
    <path clip-path="url(#p7b860aca99)" d="M 304.307187 244.384483 
L 313.051061 244.384483 
L 313.051061 201.96143 
L 304.307187 201.96143 
z
" style="fill:#f28e2b;"/>
   </g>
   <g id="patch_7">
    <path clip-path="url(#p7b860aca99)" d="M 374.25818 244.384483 
L 383.002054 244.384483 
L 383.002054 173.179033 
L 374.25818 173.179033 
z
" style="fill:#f28e2b;"/>
   </g>
   <g id="patch_8">
    <path clip-path="url(#p7b860aca99)" d="M 444.209172 244.384483 
L 452.953046 244.384483 
L 452.953046 175.320502 
L 444.209172 175.320502 
z
" style="fill:#f28e2b;"/>
   </g>
   <g id="patch_9">
    <path clip-path="url(#p7b860aca99)" d="M 514.160165 244.384483 
L 522.904039 244.384483 
L 522.904039 90.570933 
L 514.160165 90.570933 
z
" style="fill:#f28e2b;"/>
   </g>
   <g id="patch_10">
    <path clip-path="url(#p7b860aca99)" d="M 584.111158 244.384483 
L 592.855032 244.384483 
L 592.855032 142.008297 
L 584.111158 142.008297 
z
" style="fill:#f28e2b;"/>
   </g>
   <g id="patch_11">
    <path clip-path="url(#p7b860aca99)" d="M 654.062151 244.384483 
L 662.806025 244.384483 
L 662.806025 145.30497 
L 654.062151 145.30497 
z
" style="fill:#f28e2b;"/>
   </g>
   <g id="patch_12">
    <path clip-path="url(#p7b860aca99)" d="M 724.013144 244.384483 
L 732.757018 244.384483 
L 732.757018 145.822629 
L 724.013144 145.822629 
z
" style="fill:#f28e2b;"/>
   </g>
   <g id="patch_13">
    <path clip-path="url(#p7b860aca99)" d="M 793.964137 244.384483 
L 802.708011 244.384483 
L 802.708011 155.468608 
L 793.964137 155.468608 
z
" style="fill:#f28e2b;"/>
   </g>
   <g id="patch_14">
    <path clip-path="url(#p7b860aca99)" d="M 863.915129 244.384483 
L 872.659003 244.384483 
L 872.659003 142.955345 
L 863.915129 142.955345 
z
" style="fill:#f28e2b;"/>
   </g>
   <g id="patch_15">
    <path clip-path="url(#p7b860aca99)" d="M 103.198082 244.384483 
L 111.941956 244.384483 
L 111.941956 218.890828 
L 103.198082 218.890828 
z
" style="fill:#76b7b2;"/>
   </g>
   <g id="patch_16">
    <path clip-path="url(#p7b860aca99)" d="M 173.149075 244.384483 
L 181.892949 244.384483 
L 181.892949 133.86115 
L 173.149075 133.86115 
z
" style="fill:#76b7b2;"/>
   </g>
   <g id="patch_17">
    <path clip-path="url(#p7b860aca99)" d="M 243.100068 244.384483 
L 251.843942 244.384483 
L 251.843942 188.567933 
L 243.100068 188.567933 
z
" style="fill:#76b7b2;"/>
   </g>
   <g id="patch_18">
    <path clip-path="url(#p7b860aca99)" d="M 313.051061 244.384483 
L 321.794935 244.384483 
L 321.794935 203.195768 
L 313.051061 203.195768 
z
" style="fill:#76b7b2;"/>
   </g>
   <g id="patch_19">
    <path clip-path="url(#p7b860aca99)" d="M 383.002054 244.384483 
L 391.745928 244.384483 
L 391.745928 176.075565 
L 383.002054 176.075565 
z
" style="fill:#76b7b2;"/>
   </g>
   <g id="patch_20">
    <path clip-path="url(#p7b860aca99)" d="M 452.953046 244.384483 
L 461.696921 244.384483 
L 461.696921 178.735095 
L 452.953046 178.735095 
z
" style="fill:#76b7b2;"/>
   </g>
   <g id="patch_21">
    <path clip-path="url(#p7b860aca99)" d="M 522.904039 244.384483 
L 531.647913 244.384483 
L 531.647913 92.914332 
L 522.904039 92.914332 
z
" style="fill:#76b7b2;"/>
   </g>
   <g id="patch_22">
    <path clip-path="url(#p7b860aca99)" d="M 592.855032 244.384483 
L 601.598906 244.384483 
L 601.598906 143.251765 
L 592.855032 143.251765 
z
" style="fill:#76b7b2;"/>
   </g>
   <g id="patch_23">
    <path clip-path="url(#p7b860aca99)" d="M 662.806025 244.384483 
L 671.549899 244.384483 
L 671.549899 152.037247 
L 662.806025 152.037247 
z
" style="fill:#76b7b2;"/>
   </g>
   <g id="patch_24">
    <path clip-path="url(#p7b860aca99)" d="M 732.757018 244.384483 
L 741.500892 244.384483 
L 741.500892 139.451006 
L 732.757018 139.451006 
z
" style="fill:#76b7b2;"/>
   </g>
   <g id="patch_25">
    <path clip-path="url(#p7b860aca99)" d="M 802.708011 244.384483 
L 811.451885 244.384483 
L 811.451885 156.838368 
L 802.708011 156.838368 
z
" style="fill:#76b7b2;"/>
   </g>
   <g id="patch_26">
    <path clip-path="url(#p7b860aca99)" d="M 872.659003 244.384483 
L 881.402878 244.384483 
L 881.402878 152.100005 
L 872.659003 152.100005 
z
" style="fill:#76b7b2;"/>
   </g>
   <g id="patch_27">
    <path clip-path="url(#p7b860aca99)" d="M 111.941956 244.384483 
L 120.685831 244.384483 
L 120.685831 185.880123 
L 111.941956 185.880123 
z
" style="fill:#e15759;"/>
   </g>
   <g id="patch_28">
    <path clip-path="url(#p7b860aca99)" d="M 181.892949 244.384483 
L 190.636823 244.384483 
L 190.636823 126.804239 
L 181.892949 126.804239 
z
" style="fill:#e15759;"/>
   </g>
   <g id="patch_29">
    <path clip-path="url(#p7b860aca99)" d="M 251.843942 244.384483 
L 260.587816 244.384483 
L 260.587816 181.050438 
L 251.843942 181.050438 
z
" style="fill:#e15759;"/>
   </g>
   <g id="patch_30">
    <path clip-path="url(#p7b860aca99)" d="M 321.794935 244.384483 
L 330.538809 244.384483 
L 330.538809 186.120133 
L 321.794935 186.120133 
z
" style="fill:#e15759;"/>
   </g>
   <g id="patch_31">
    <path clip-path="url(#p7b860aca99)" d="M 391.745928 244.384483 
L 400.489802 244.384483 
L 400.489802 165.335942 
L 391.745928 165.335942 
z
" style="fill:#e15759;"/>
   </g>
   <g id="patch_32">
    <path clip-path="url(#p7b860aca99)" d="M 461.696921 244.384483 
L 470.440795 244.384483 
L 470.440795 169.419595 
L 461.696921 169.419595 
z
" style="fill:#e15759;"/>
   </g>
   <g id="patch_33">
    <path clip-path="url(#p7b860aca99)" d="M 531.647913 244.384483 
L 540.391788 244.384483 
L 540.391788 107.247411 
L 531.647913 107.247411 
z
" style="fill:#e15759;"/>
   </g>
   <g id="patch_34">
    <path clip-path="url(#p7b860aca99)" d="M 601.598906 244.384483 
L 610.34278 244.384483 
L 610.34278 154.014115 
L 601.598906 154.014115 
z
" style="fill:#e15759;"/>
   </g>
   <g id="patch_35">
    <path clip-path="url(#p7b860aca99)" d="M 671.549899 244.384483 
L 680.293773 244.384483 
L 680.293773 149.66698 
L 671.549899 149.66698 
z
" style="fill:#e15759;"/>
   </g>
   <g id="patch_36">
    <path clip-path="url(#p7b860aca99)" d="M 741.500892 244.384483 
L 750.244766 244.384483 
L 750.244766 267.766001 
L 741.500892 267.766001 
z
" style="fill:#e15759;"/>
   </g>
   <g id="patch_37">
    <path clip-path="url(#p7b860aca99)" d="M 811.451885 244.384483 
L 820.195759 244.384483 
L 820.195759 141.43174 
L 811.451885 141.43174 
z
" style="fill:#e15759;"/>
   </g>
   <g id="patch_38">
    <path clip-path="url(#p7b860aca99)" d="M 881.402878 244.384483 
L 890.146752 244.384483 
L 890.146752 159.862591 
L 881.402878 159.862591 
z
" style="fill:#e15759;"/>
   </g>
   <g id="patch_39">
    <path clip-path="url(#p7b860aca99)" d="M 120.685831 244.384483 
L 129.429705 244.384483 
L 129.429705 216.804812 
L 120.685831 216.804812 
z
" style="fill:url(#hd66e4ce114);stroke:#ffffff;stroke-linejoin:miter;stroke-width:0.8;"/>
   </g>
   <g id="patch_40">
    <path clip-path="url(#p7b860aca99)" d="M 190.636823 244.384483 
L 199.380698 244.384483 
L 199.380698 133.624883 
L 190.636823 133.624883 
z
" style="fill:url(#hd66e4ce114);stroke:#ffffff;stroke-linejoin:miter;stroke-width:0.8;"/>
   </g>
   <g id="patch_41">
    <path clip-path="url(#p7b860aca99)" d="M 260.587816 244.384483 
L 269.33169 244.384483 
L 269.33169 201.399171 
L 260.587816 201.399171 
z
" style="fill:url(#hd66e4ce114);stroke:#ffffff;stroke-linejoin:miter;stroke-width:0.8;"/>
   </g>
   <g id="patch_42">
    <path clip-path="url(#p7b860aca99)" d="M 330.538809 244.384483 
L 339.282683 244.384483 
L 339.282683 211.989005 
L 330.538809 211.989005 
z
" style="fill:url(#hd66e4ce114);stroke:#ffffff;stroke-linejoin:miter;stroke-width:0.8;"/>
   </g>
   <g id="patch_43">
    <path clip-path="url(#p7b860aca99)" d="M 400.489802 244.384483 
L 409.233676 244.384483 
L 409.233676 209.860161 
L 400.489802 209.860161 
z
" style="fill:url(#hd66e4ce114);stroke:#ffffff;stroke-linejoin:miter;stroke-width:0.8;"/>
   </g>
   <g id="patch_44">
    <path clip-path="url(#p7b860aca99)" d="M 470.440795 244.384483 
L 479.184669 244.384483 
L 479.184669 204.964262 
L 470.440795 204.964262 
z
" style="fill:url(#hd66e4ce114);stroke:#ffffff;stroke-linejoin:miter;stroke-width:0.8;"/>
   </g>
   <g id="patch_45">
    <path clip-path="url(#p7b860aca99)" d="M 540.391788 244.384483 
L 549.135662 244.384483 
L 549.135662 147.50114 
L 540.391788 147.50114 
z
" style="fill:url(#hd66e4ce114);stroke:#ffffff;stroke-linejoin:miter;stroke-width:0.8;"/>
   </g>
   <g id="patch_46">
    <path clip-path="url(#p7b860aca99)" d="M 610.34278 244.384483 
L 619.086654 244.384483 
L 619.086654 186.603881 
L 610.34278 186.603881 
z
" style="fill:url(#hd66e4ce114);stroke:#ffffff;stroke-linejoin:miter;stroke-width:0.8;"/>
   </g>
   <g id="patch_47">
    <path clip-path="url(#p7b860aca99)" d="M 680.293773 244.384483 
L 689.037647 244.384483 
L 689.037647 194.189114 
L 680.293773 194.189114 
z
" style="fill:url(#hd66e4ce114);stroke:#ffffff;stroke-linejoin:miter;stroke-width:0.8;"/>
   </g>
   <g id="patch_48">
    <path clip-path="url(#p7b860aca99)" d="M 750.244766 244.384483 
L 758.98864 244.384483 
L 758.98864 223.964581 
L 750.244766 223.964581 
z
" style="fill:url(#hd66e4ce114);stroke:#ffffff;stroke-linejoin:miter;stroke-width:0.8;"/>
   </g>
   <g id="patch_49">
    <path clip-path="url(#p7b860aca99)" d="M 820.195759 244.384483 
L 828.939633 244.384483 
L 828.939633 200.743734 
L 820.195759 200.743734 
z
" style="fill:url(#hd66e4ce114);stroke:#ffffff;stroke-linejoin:miter;stroke-width:0.8;"/>
   </g>
   <g id="patch_50">
    <path clip-path="url(#p7b860aca99)" d="M 890.146752 244.384483 
L 898.890626 244.384483 
L 898.890626 191.937557 
L 890.146752 191.937557 
z
" style="fill:url(#hd66e4ce114);stroke:#ffffff;stroke-linejoin:miter;stroke-width:0.8;"/>
   </g>
   <g id="patch_51">
    <path clip-path="url(#p7b860aca99)" d="M 129.429705 244.384483 
L 138.173579 244.384483 
L 138.173579 210.475076 
L 129.429705 210.475076 
z
" style="fill:url(#h88fac308d0);stroke:#ffffff;stroke-linejoin:miter;stroke-width:0.8;"/>
   </g>
   <g id="patch_52">
    <path clip-path="url(#p7b860aca99)" d="M 199.380698 244.384483 
L 208.124572 244.384483 
L 208.124572 128.253611 
L 199.380698 128.253611 
z
" style="fill:url(#h88fac308d0);stroke:#ffffff;stroke-linejoin:miter;stroke-width:0.8;"/>
   </g>
   <g id="patch_53">
    <path clip-path="url(#p7b860aca99)" d="M 269.33169 244.384483 
L 278.075564 244.384483 
L 278.075564 201.314572 
L 269.33169 201.314572 
z
" style="fill:url(#h88fac308d0);stroke:#ffffff;stroke-linejoin:miter;stroke-width:0.8;"/>
   </g>
   <g id="patch_54">
    <path clip-path="url(#p7b860aca99)" d="M 339.282683 244.384483 
L 348.026557 244.384483 
L 348.026557 207.869942 
L 339.282683 207.869942 
z
" style="fill:url(#h88fac308d0);stroke:#ffffff;stroke-linejoin:miter;stroke-width:0.8;"/>
   </g>
   <g id="patch_55">
    <path clip-path="url(#p7b860aca99)" d="M 409.233676 244.384483 
L 417.97755 244.384483 
L 417.97755 206.500166 
L 409.233676 206.500166 
z
" style="fill:url(#h88fac308d0);stroke:#ffffff;stroke-linejoin:miter;stroke-width:0.8;"/>
   </g>
   <g id="patch_56">
    <path clip-path="url(#p7b860aca99)" d="M 479.184669 244.384483 
L 487.928543 244.384483 
L 487.928543 202.303116 
L 479.184669 202.303116 
z
" style="fill:url(#h88fac308d0);stroke:#ffffff;stroke-linejoin:miter;stroke-width:0.8;"/>
   </g>
   <g id="patch_57">
    <path clip-path="url(#p7b860aca99)" d="M 549.135662 244.384483 
L 557.879536 244.384483 
L 557.879536 139.88108 
L 549.135662 139.88108 
z
" style="fill:url(#h88fac308d0);stroke:#ffffff;stroke-linejoin:miter;stroke-width:0.8;"/>
   </g>
   <g id="patch_58">
    <path clip-path="url(#p7b860aca99)" d="M 619.086654 244.384483 
L 627.830529 244.384483 
L 627.830529 177.8353 
L 619.086654 177.8353 
z
" style="fill:url(#h88fac308d0);stroke:#ffffff;stroke-linejoin:miter;stroke-width:0.8;"/>
   </g>
   <g id="patch_59">
    <path clip-path="url(#p7b860aca99)" d="M 689.037647 244.384483 
L 697.781521 244.384483 
L 697.781521 191.340375 
L 689.037647 191.340375 
z
" style="fill:url(#h88fac308d0);stroke:#ffffff;stroke-linejoin:miter;stroke-width:0.8;"/>
   </g>
   <g id="patch_60">
    <path clip-path="url(#p7b860aca99)" d="M 758.98864 244.384483 
L 767.732514 244.384483 
L 767.732514 206.983472 
L 758.98864 206.983472 
z
" style="fill:url(#h88fac308d0);stroke:#ffffff;stroke-linejoin:miter;stroke-width:0.8;"/>
   </g>
   <g id="patch_61">
    <path clip-path="url(#p7b860aca99)" d="M 828.939633 244.384483 
L 837.683507 244.384483 
L 837.683507 194.953773 
L 828.939633 194.953773 
z
" style="fill:url(#h88fac308d0);stroke:#ffffff;stroke-linejoin:miter;stroke-width:0.8;"/>
   </g>
   <g id="patch_62">
    <path clip-path="url(#p7b860aca99)" d="M 898.890626 244.384483 
L 907.6345 244.384483 
L 907.6345 191.917756 
L 898.890626 191.917756 
z
" style="fill:url(#h88fac308d0);stroke:#ffffff;stroke-linejoin:miter;stroke-width:0.8;"/>
   </g>
   <g id="patch_63">
    <path clip-path="url(#p7b860aca99)" d="M 138.173579 244.384483 
L 146.917453 244.384483 
L 146.917453 195.323367 
L 138.173579 195.323367 
z
" style="fill:url(#h459796b7f4);stroke:#ffffff;stroke-linejoin:miter;stroke-width:0.8;"/>
   </g>
   <g id="patch_64">
    <path clip-path="url(#p7b860aca99)" d="M 208.124572 244.384483 
L 216.868446 244.384483 
L 216.868446 137.686859 
L 208.124572 137.686859 
z
" style="fill:url(#h459796b7f4);stroke:#ffffff;stroke-linejoin:miter;stroke-width:0.8;"/>
   </g>
   <g id="patch_65">
    <path clip-path="url(#p7b860aca99)" d="M 278.075564 244.384483 
L 286.819439 244.384483 
L 286.819439 200.474762 
L 278.075564 200.474762 
z
" style="fill:url(#h459796b7f4);stroke:#ffffff;stroke-linejoin:miter;stroke-width:0.8;"/>
   </g>
   <g id="patch_66">
    <path clip-path="url(#p7b860aca99)" d="M 348.026557 244.384483 
L 356.770431 244.384483 
L 356.770431 200.94318 
L 348.026557 200.94318 
z
" style="fill:url(#h459796b7f4);stroke:#ffffff;stroke-linejoin:miter;stroke-width:0.8;"/>
   </g>
   <g id="patch_67">
    <path clip-path="url(#p7b860aca99)" d="M 417.97755 244.384483 
L 426.721424 244.384483 
L 426.721424 200.665342 
L 417.97755 200.665342 
z
" style="fill:url(#h459796b7f4);stroke:#ffffff;stroke-linejoin:miter;stroke-width:0.8;"/>
   </g>
   <g id="patch_68">
    <path clip-path="url(#p7b860aca99)" d="M 487.928543 244.384483 
L 496.672417 244.384483 
L 496.672417 194.92922 
L 487.928543 194.92922 
z
" style="fill:url(#h459796b7f4);stroke:#ffffff;stroke-linejoin:miter;stroke-width:0.8;"/>
   </g>
   <g id="patch_69">
    <path clip-path="url(#p7b860aca99)" d="M 557.879536 244.384483 
L 566.62341 244.384483 
L 566.62341 119.551207 
L 557.879536 119.551207 
z
" style="fill:url(#h459796b7f4);stroke:#ffffff;stroke-linejoin:miter;stroke-width:0.8;"/>
   </g>
   <g id="patch_70">
    <path clip-path="url(#p7b860aca99)" d="M 627.830529 244.384483 
L 636.574403 244.384483 
L 636.574403 185.169473 
L 627.830529 185.169473 
z
" style="fill:url(#h459796b7f4);stroke:#ffffff;stroke-linejoin:miter;stroke-width:0.8;"/>
   </g>
   <g id="patch_71">
    <path clip-path="url(#p7b860aca99)" d="M 697.781521 244.384483 
L 706.525395 244.384483 
L 706.525395 181.751352 
L 697.781521 181.751352 
z
" style="fill:url(#h459796b7f4);stroke:#ffffff;stroke-linejoin:miter;stroke-width:0.8;"/>
   </g>
   <g id="patch_72">
    <path clip-path="url(#p7b860aca99)" d="M 767.732514 244.384483 
L 776.476388 244.384483 
L 776.476388 325.348474 
L 767.732514 325.348474 
z
" style="fill:url(#h459796b7f4);stroke:#ffffff;stroke-linejoin:miter;stroke-width:0.8;"/>
   </g>
   <g id="patch_73">
    <path clip-path="url(#p7b860aca99)" d="M 837.683507 244.384483 
L 846.427381 244.384483 
L 846.427381 179.337803 
L 837.683507 179.337803 
z
" style="fill:url(#h459796b7f4);stroke:#ffffff;stroke-linejoin:miter;stroke-width:0.8;"/>
   </g>
   <g id="patch_74">
    <path clip-path="url(#p7b860aca99)" d="M 907.6345 244.384483 
L 916.378374 244.384483 
L 916.378374 193.769094 
L 907.6345 193.769094 
z
" style="fill:url(#h459796b7f4);stroke:#ffffff;stroke-linejoin:miter;stroke-width:0.8;"/>
   </g>
   <g id="matplotlib.axis_1">
    <g id="xtick_1">
     <g id="line2d_1">
      <defs>
       <path d="M 0 0 
L 0 4.8 
" id="m18f22fe73e" style="stroke:#000000;"/>
      </defs>
      <g>
       <use style="stroke:#000000;" x="125.057768" xlink:href="#m18f22fe73e" y="424.492"/>
      </g>
     </g>
     <g id="text_1">
      <!-- Age at Menarche -->
      <defs>
       <path d="M 34.1875 63.1875 
L 20.796875 26.90625 
L 47.609375 26.90625 
z
M 28.609375 72.90625 
L 39.796875 72.90625 
L 67.578125 0 
L 57.328125 0 
L 50.6875 18.703125 
L 17.828125 18.703125 
L 11.1875 0 
L 0.78125 0 
z
" id="DejaVuSans-65"/>
       <path d="M 45.40625 27.984375 
Q 45.40625 37.75 41.375 43.109375 
Q 37.359375 48.484375 30.078125 48.484375 
Q 22.859375 48.484375 18.828125 43.109375 
Q 14.796875 37.75 14.796875 27.984375 
Q 14.796875 18.265625 18.828125 12.890625 
Q 22.859375 7.515625 30.078125 7.515625 
Q 37.359375 7.515625 41.375 12.890625 
Q 45.40625 18.265625 45.40625 27.984375 
z
M 54.390625 6.78125 
Q 54.390625 -7.171875 48.1875 -13.984375 
Q 42 -20.796875 29.203125 -20.796875 
Q 24.46875 -20.796875 20.265625 -20.09375 
Q 16.0625 -19.390625 12.109375 -17.921875 
L 12.109375 -9.1875 
Q 16.0625 -11.328125 19.921875 -12.34375 
Q 23.78125 -13.375 27.78125 -13.375 
Q 36.625 -13.375 41.015625 -8.765625 
Q 45.40625 -4.15625 45.40625 5.171875 
L 45.40625 9.625 
Q 42.625 4.78125 38.28125 2.390625 
Q 33.9375 0 27.875 0 
Q 17.828125 0 11.671875 7.65625 
Q 5.515625 15.328125 5.515625 27.984375 
Q 5.515625 40.671875 11.671875 48.328125 
Q 17.828125 56 27.875 56 
Q 33.9375 56 38.28125 53.609375 
Q 42.625 51.21875 45.40625 46.390625 
L 45.40625 54.6875 
L 54.390625 54.6875 
z
" id="DejaVuSans-103"/>
       <path d="M 56.203125 29.59375 
L 56.203125 25.203125 
L 14.890625 25.203125 
Q 15.484375 15.921875 20.484375 11.0625 
Q 25.484375 6.203125 34.421875 6.203125 
Q 39.59375 6.203125 44.453125 7.46875 
Q 49.3125 8.734375 54.109375 11.28125 
L 54.109375 2.78125 
Q 49.265625 0.734375 44.1875 -0.34375 
Q 39.109375 -1.421875 33.890625 -1.421875 
Q 20.796875 -1.421875 13.15625 6.1875 
Q 5.515625 13.8125 5.515625 26.8125 
Q 5.515625 40.234375 12.765625 48.109375 
Q 20.015625 56 32.328125 56 
Q 43.359375 56 49.78125 48.890625 
Q 56.203125 41.796875 56.203125 29.59375 
z
M 47.21875 32.234375 
Q 47.125 39.59375 43.09375 43.984375 
Q 39.0625 48.390625 32.421875 48.390625 
Q 24.90625 48.390625 20.390625 44.140625 
Q 15.875 39.890625 15.1875 32.171875 
z
" id="DejaVuSans-101"/>
       <path id="DejaVuSans-32"/>
       <path d="M 34.28125 27.484375 
Q 23.390625 27.484375 19.1875 25 
Q 14.984375 22.515625 14.984375 16.5 
Q 14.984375 11.71875 18.140625 8.90625 
Q 21.296875 6.109375 26.703125 6.109375 
Q 34.1875 6.109375 38.703125 11.40625 
Q 43.21875 16.703125 43.21875 25.484375 
L 43.21875 27.484375 
z
M 52.203125 31.203125 
L 52.203125 0 
L 43.21875 0 
L 43.21875 8.296875 
Q 40.140625 3.328125 35.546875 0.953125 
Q 30.953125 -1.421875 24.3125 -1.421875 
Q 15.921875 -1.421875 10.953125 3.296875 
Q 6 8.015625 6 15.921875 
Q 6 25.140625 12.171875 29.828125 
Q 18.359375 34.515625 30.609375 34.515625 
L 43.21875 34.515625 
L 43.21875 35.40625 
Q 43.21875 41.609375 39.140625 45 
Q 35.0625 48.390625 27.6875 48.390625 
Q 23 48.390625 18.546875 47.265625 
Q 14.109375 46.140625 10.015625 43.890625 
L 10.015625 52.203125 
Q 14.9375 54.109375 19.578125 55.046875 
Q 24.21875 56 28.609375 56 
Q 40.484375 56 46.34375 49.84375 
Q 52.203125 43.703125 52.203125 31.203125 
z
" id="DejaVuSans-97"/>
       <path d="M 18.3125 70.21875 
L 18.3125 54.6875 
L 36.8125 54.6875 
L 36.8125 47.703125 
L 18.3125 47.703125 
L 18.3125 18.015625 
Q 18.3125 11.328125 20.140625 9.421875 
Q 21.96875 7.515625 27.59375 7.515625 
L 36.8125 7.515625 
L 36.8125 0 
L 27.59375 0 
Q 17.1875 0 13.234375 3.875 
Q 9.28125 7.765625 9.28125 18.015625 
L 9.28125 47.703125 
L 2.6875 47.703125 
L 2.6875 54.6875 
L 9.28125 54.6875 
L 9.28125 70.21875 
z
" id="DejaVuSans-116"/>
       <path d="M 9.8125 72.90625 
L 24.515625 72.90625 
L 43.109375 23.296875 
L 61.8125 72.90625 
L 76.515625 72.90625 
L 76.515625 0 
L 66.890625 0 
L 66.890625 64.015625 
L 48.09375 14.015625 
L 38.1875 14.015625 
L 19.390625 64.015625 
L 19.390625 0 
L 9.8125 0 
z
" id="DejaVuSans-77"/>
       <path d="M 54.890625 33.015625 
L 54.890625 0 
L 45.90625 0 
L 45.90625 32.71875 
Q 45.90625 40.484375 42.875 44.328125 
Q 39.84375 48.1875 33.796875 48.1875 
Q 26.515625 48.1875 22.3125 43.546875 
Q 18.109375 38.921875 18.109375 30.90625 
L 18.109375 0 
L 9.078125 0 
L 9.078125 54.6875 
L 18.109375 54.6875 
L 18.109375 46.1875 
Q 21.34375 51.125 25.703125 53.5625 
Q 30.078125 56 35.796875 56 
Q 45.21875 56 50.046875 50.171875 
Q 54.890625 44.34375 54.890625 33.015625 
z
" id="DejaVuSans-110"/>
       <path d="M 41.109375 46.296875 
Q 39.59375 47.171875 37.8125 47.578125 
Q 36.03125 48 33.890625 48 
Q 26.265625 48 22.1875 43.046875 
Q 18.109375 38.09375 18.109375 28.8125 
L 18.109375 0 
L 9.078125 0 
L 9.078125 54.6875 
L 18.109375 54.6875 
L 18.109375 46.1875 
Q 20.953125 51.171875 25.484375 53.578125 
Q 30.03125 56 36.53125 56 
Q 37.453125 56 38.578125 55.875 
Q 39.703125 55.765625 41.0625 55.515625 
z
" id="DejaVuSans-114"/>
       <path d="M 48.78125 52.59375 
L 48.78125 44.1875 
Q 44.96875 46.296875 41.140625 47.34375 
Q 37.3125 48.390625 33.40625 48.390625 
Q 24.65625 48.390625 19.8125 42.84375 
Q 14.984375 37.3125 14.984375 27.296875 
Q 14.984375 17.28125 19.8125 11.734375 
Q 24.65625 6.203125 33.40625 6.203125 
Q 37.3125 6.203125 41.140625 7.25 
Q 44.96875 8.296875 48.78125 10.40625 
L 48.78125 2.09375 
Q 45.015625 0.34375 40.984375 -0.53125 
Q 36.96875 -1.421875 32.421875 -1.421875 
Q 20.0625 -1.421875 12.78125 6.34375 
Q 5.515625 14.109375 5.515625 27.296875 
Q 5.515625 40.671875 12.859375 48.328125 
Q 20.21875 56 33.015625 56 
Q 37.15625 56 41.109375 55.140625 
Q 45.0625 54.296875 48.78125 52.59375 
z
" id="DejaVuSans-99"/>
       <path d="M 54.890625 33.015625 
L 54.890625 0 
L 45.90625 0 
L 45.90625 32.71875 
Q 45.90625 40.484375 42.875 44.328125 
Q 39.84375 48.1875 33.796875 48.1875 
Q 26.515625 48.1875 22.3125 43.546875 
Q 18.109375 38.921875 18.109375 30.90625 
L 18.109375 0 
L 9.078125 0 
L 9.078125 75.984375 
L 18.109375 75.984375 
L 18.109375 46.1875 
Q 21.34375 51.125 25.703125 53.5625 
Q 30.078125 56 35.796875 56 
Q 45.21875 56 50.046875 50.171875 
Q 54.890625 44.34375 54.890625 33.015625 
z
" id="DejaVuSans-104"/>
      </defs>
      <g transform="translate(127.486018 507.4765)rotate(-90)scale(0.088 -0.088)">
       <use xlink:href="#DejaVuSans-65"/>
       <use x="68.408203" xlink:href="#DejaVuSans-103"/>
       <use x="131.884766" xlink:href="#DejaVuSans-101"/>
       <use x="193.408203" xlink:href="#DejaVuSans-32"/>
       <use x="225.195312" xlink:href="#DejaVuSans-97"/>
       <use x="286.474609" xlink:href="#DejaVuSans-116"/>
       <use x="325.683594" xlink:href="#DejaVuSans-32"/>
       <use x="357.470703" xlink:href="#DejaVuSans-77"/>
       <use x="443.75" xlink:href="#DejaVuSans-101"/>
       <use x="505.273438" xlink:href="#DejaVuSans-110"/>
       <use x="568.652344" xlink:href="#DejaVuSans-97"/>
       <use x="629.931641" xlink:href="#DejaVuSans-114"/>
       <use x="668.794922" xlink:href="#DejaVuSans-99"/>
       <use x="723.775391" xlink:href="#DejaVuSans-104"/>
       <use x="787.154297" xlink:href="#DejaVuSans-101"/>
      </g>
     </g>
    </g>
    <g id="xtick_2">
     <g id="line2d_2">
      <g>
       <use style="stroke:#000000;" x="195.00876" xlink:href="#m18f22fe73e" y="424.492"/>
      </g>
     </g>
     <g id="text_2">
      <!-- Age at Menopause -->
      <defs>
       <path d="M 30.609375 48.390625 
Q 23.390625 48.390625 19.1875 42.75 
Q 14.984375 37.109375 14.984375 27.296875 
Q 14.984375 17.484375 19.15625 11.84375 
Q 23.34375 6.203125 30.609375 6.203125 
Q 37.796875 6.203125 41.984375 11.859375 
Q 46.1875 17.53125 46.1875 27.296875 
Q 46.1875 37.015625 41.984375 42.703125 
Q 37.796875 48.390625 30.609375 48.390625 
z
M 30.609375 56 
Q 42.328125 56 49.015625 48.375 
Q 55.71875 40.765625 55.71875 27.296875 
Q 55.71875 13.875 49.015625 6.21875 
Q 42.328125 -1.421875 30.609375 -1.421875 
Q 18.84375 -1.421875 12.171875 6.21875 
Q 5.515625 13.875 5.515625 27.296875 
Q 5.515625 40.765625 12.171875 48.375 
Q 18.84375 56 30.609375 56 
z
" id="DejaVuSans-111"/>
       <path d="M 18.109375 8.203125 
L 18.109375 -20.796875 
L 9.078125 -20.796875 
L 9.078125 54.6875 
L 18.109375 54.6875 
L 18.109375 46.390625 
Q 20.953125 51.265625 25.265625 53.625 
Q 29.59375 56 35.59375 56 
Q 45.5625 56 51.78125 48.09375 
Q 58.015625 40.1875 58.015625 27.296875 
Q 58.015625 14.40625 51.78125 6.484375 
Q 45.5625 -1.421875 35.59375 -1.421875 
Q 29.59375 -1.421875 25.265625 0.953125 
Q 20.953125 3.328125 18.109375 8.203125 
z
M 48.6875 27.296875 
Q 48.6875 37.203125 44.609375 42.84375 
Q 40.53125 48.484375 33.40625 48.484375 
Q 26.265625 48.484375 22.1875 42.84375 
Q 18.109375 37.203125 18.109375 27.296875 
Q 18.109375 17.390625 22.1875 11.75 
Q 26.265625 6.109375 33.40625 6.109375 
Q 40.53125 6.109375 44.609375 11.75 
Q 48.6875 17.390625 48.6875 27.296875 
z
" id="DejaVuSans-112"/>
       <path d="M 8.5 21.578125 
L 8.5 54.6875 
L 17.484375 54.6875 
L 17.484375 21.921875 
Q 17.484375 14.15625 20.5 10.265625 
Q 23.53125 6.390625 29.59375 6.390625 
Q 36.859375 6.390625 41.078125 11.03125 
Q 45.3125 15.671875 45.3125 23.6875 
L 45.3125 54.6875 
L 54.296875 54.6875 
L 54.296875 0 
L 45.3125 0 
L 45.3125 8.40625 
Q 42.046875 3.421875 37.71875 1 
Q 33.40625 -1.421875 27.6875 -1.421875 
Q 18.265625 -1.421875 13.375 4.4375 
Q 8.5 10.296875 8.5 21.578125 
z
M 31.109375 56 
z
" id="DejaVuSans-117"/>
       <path d="M 44.28125 53.078125 
L 44.28125 44.578125 
Q 40.484375 46.53125 36.375 47.5 
Q 32.28125 48.484375 27.875 48.484375 
Q 21.1875 48.484375 17.84375 46.4375 
Q 14.5 44.390625 14.5 40.28125 
Q 14.5 37.15625 16.890625 35.375 
Q 19.28125 33.59375 26.515625 31.984375 
L 29.59375 31.296875 
Q 39.15625 29.25 43.1875 25.515625 
Q 47.21875 21.78125 47.21875 15.09375 
Q 47.21875 7.46875 41.1875 3.015625 
Q 35.15625 -1.421875 24.609375 -1.421875 
Q 20.21875 -1.421875 15.453125 -0.5625 
Q 10.6875 0.296875 5.421875 2 
L 5.421875 11.28125 
Q 10.40625 8.6875 15.234375 7.390625 
Q 20.0625 6.109375 24.8125 6.109375 
Q 31.15625 6.109375 34.5625 8.28125 
Q 37.984375 10.453125 37.984375 14.40625 
Q 37.984375 18.0625 35.515625 20.015625 
Q 33.0625 21.96875 24.703125 23.78125 
L 21.578125 24.515625 
Q 13.234375 26.265625 9.515625 29.90625 
Q 5.8125 33.546875 5.8125 39.890625 
Q 5.8125 47.609375 11.28125 51.796875 
Q 16.75 56 26.8125 56 
Q 31.78125 56 36.171875 55.265625 
Q 40.578125 54.546875 44.28125 53.078125 
z
" id="DejaVuSans-115"/>
      </defs>
      <g transform="translate(197.43701 514.773625)rotate(-90)scale(0.088 -0.088)">
       <use xlink:href="#DejaVuSans-65"/>
       <use x="68.408203" xlink:href="#DejaVuSans-103"/>
       <use x="131.884766" xlink:href="#DejaVuSans-101"/>
       <use x="193.408203" xlink:href="#DejaVuSans-32"/>
       <use x="225.195312" xlink:href="#DejaVuSans-97"/>
       <use x="286.474609" xlink:href="#DejaVuSans-116"/>
       <use x="325.683594" xlink:href="#DejaVuSans-32"/>
       <use x="357.470703" xlink:href="#DejaVuSans-77"/>
       <use x="443.75" xlink:href="#DejaVuSans-101"/>
       <use x="505.273438" xlink:href="#DejaVuSans-110"/>
       <use x="568.652344" xlink:href="#DejaVuSans-111"/>
       <use x="629.833984" xlink:href="#DejaVuSans-112"/>
       <use x="693.310547" xlink:href="#DejaVuSans-97"/>
       <use x="754.589844" xlink:href="#DejaVuSans-117"/>
       <use x="817.96875" xlink:href="#DejaVuSans-115"/>
       <use x="870.068359" xlink:href="#DejaVuSans-101"/>
      </g>
     </g>
    </g>
    <g id="xtick_3">
     <g id="line2d_3">
      <g>
       <use style="stroke:#000000;" x="264.959753" xlink:href="#m18f22fe73e" y="424.492"/>
      </g>
     </g>
     <g id="text_3">
      <!-- Height -->
      <defs>
       <path d="M 9.8125 72.90625 
L 19.671875 72.90625 
L 19.671875 43.015625 
L 55.515625 43.015625 
L 55.515625 72.90625 
L 65.375 72.90625 
L 65.375 0 
L 55.515625 0 
L 55.515625 34.71875 
L 19.671875 34.71875 
L 19.671875 0 
L 9.8125 0 
z
" id="DejaVuSans-72"/>
       <path d="M 9.421875 54.6875 
L 18.40625 54.6875 
L 18.40625 0 
L 9.421875 0 
z
M 9.421875 75.984375 
L 18.40625 75.984375 
L 18.40625 64.59375 
L 9.421875 64.59375 
z
" id="DejaVuSans-105"/>
      </defs>
      <g transform="translate(267.388003 461.882875)rotate(-90)scale(0.088 -0.088)">
       <use xlink:href="#DejaVuSans-72"/>
       <use x="75.195312" xlink:href="#DejaVuSans-101"/>
       <use x="136.71875" xlink:href="#DejaVuSans-105"/>
       <use x="164.501953" xlink:href="#DejaVuSans-103"/>
       <use x="227.978516" xlink:href="#DejaVuSans-104"/>
       <use x="291.357422" xlink:href="#DejaVuSans-116"/>
      </g>
     </g>
    </g>
    <g id="xtick_4">
     <g id="line2d_4">
      <g>
       <use style="stroke:#000000;" x="334.910746" xlink:href="#m18f22fe73e" y="424.492"/>
      </g>
     </g>
     <g id="text_4">
      <!-- BMI -->
      <defs>
       <path d="M 19.671875 34.8125 
L 19.671875 8.109375 
L 35.5 8.109375 
Q 43.453125 8.109375 47.28125 11.40625 
Q 51.125 14.703125 51.125 21.484375 
Q 51.125 28.328125 47.28125 31.5625 
Q 43.453125 34.8125 35.5 34.8125 
z
M 19.671875 64.796875 
L 19.671875 42.828125 
L 34.28125 42.828125 
Q 41.5 42.828125 45.03125 45.53125 
Q 48.578125 48.25 48.578125 53.8125 
Q 48.578125 59.328125 45.03125 62.0625 
Q 41.5 64.796875 34.28125 64.796875 
z
M 9.8125 72.90625 
L 35.015625 72.90625 
Q 46.296875 72.90625 52.390625 68.21875 
Q 58.5 63.53125 58.5 54.890625 
Q 58.5 48.1875 55.375 44.234375 
Q 52.25 40.28125 46.1875 39.3125 
Q 53.46875 37.75 57.5 32.78125 
Q 61.53125 27.828125 61.53125 20.40625 
Q 61.53125 10.640625 54.890625 5.3125 
Q 48.25 0 35.984375 0 
L 9.8125 0 
z
" id="DejaVuSans-66"/>
       <path d="M 9.8125 72.90625 
L 19.671875 72.90625 
L 19.671875 0 
L 9.8125 0 
z
" id="DejaVuSans-73"/>
      </defs>
      <g transform="translate(337.338996 449.018375)rotate(-90)scale(0.088 -0.088)">
       <use xlink:href="#DejaVuSans-66"/>
       <use x="68.603516" xlink:href="#DejaVuSans-77"/>
       <use x="154.882812" xlink:href="#DejaVuSans-73"/>
      </g>
     </g>
    </g>
    <g id="xtick_5">
     <g id="line2d_5">
      <g>
       <use style="stroke:#000000;" x="404.861739" xlink:href="#m18f22fe73e" y="424.492"/>
      </g>
     </g>
     <g id="text_5">
      <!-- Waist-hip Ratio -->
      <defs>
       <path d="M 3.328125 72.90625 
L 13.28125 72.90625 
L 28.609375 11.28125 
L 43.890625 72.90625 
L 54.984375 72.90625 
L 70.3125 11.28125 
L 85.59375 72.90625 
L 95.609375 72.90625 
L 77.296875 0 
L 64.890625 0 
L 49.515625 63.28125 
L 33.984375 0 
L 21.578125 0 
z
" id="DejaVuSans-87"/>
       <path d="M 4.890625 31.390625 
L 31.203125 31.390625 
L 31.203125 23.390625 
L 4.890625 23.390625 
z
" id="DejaVuSans-45"/>
       <path d="M 44.390625 34.1875 
Q 47.5625 33.109375 50.5625 29.59375 
Q 53.5625 26.078125 56.59375 19.921875 
L 66.609375 0 
L 56 0 
L 46.6875 18.703125 
Q 43.0625 26.03125 39.671875 28.421875 
Q 36.28125 30.8125 30.421875 30.8125 
L 19.671875 30.8125 
L 19.671875 0 
L 9.8125 0 
L 9.8125 72.90625 
L 32.078125 72.90625 
Q 44.578125 72.90625 50.734375 67.671875 
Q 56.890625 62.453125 56.890625 51.90625 
Q 56.890625 45.015625 53.6875 40.46875 
Q 50.484375 35.9375 44.390625 34.1875 
z
M 19.671875 64.796875 
L 19.671875 38.921875 
L 32.078125 38.921875 
Q 39.203125 38.921875 42.84375 42.21875 
Q 46.484375 45.515625 46.484375 51.90625 
Q 46.484375 58.296875 42.84375 61.546875 
Q 39.203125 64.796875 32.078125 64.796875 
z
" id="DejaVuSans-82"/>
      </defs>
      <g transform="translate(407.289989 498.972125)rotate(-90)scale(0.088 -0.088)">
       <use xlink:href="#DejaVuSans-87"/>
       <use x="92.501953" xlink:href="#DejaVuSans-97"/>
       <use x="153.78125" xlink:href="#DejaVuSans-105"/>
       <use x="181.564453" xlink:href="#DejaVuSans-115"/>
       <use x="233.664062" xlink:href="#DejaVuSans-116"/>
       <use x="272.873047" xlink:href="#DejaVuSans-45"/>
       <use x="308.957031" xlink:href="#DejaVuSans-104"/>
       <use x="372.335938" xlink:href="#DejaVuSans-105"/>
       <use x="400.119141" xlink:href="#DejaVuSans-112"/>
       <use x="463.595703" xlink:href="#DejaVuSans-32"/>
       <use x="495.382812" xlink:href="#DejaVuSans-82"/>
       <use x="562.615234" xlink:href="#DejaVuSans-97"/>
       <use x="623.894531" xlink:href="#DejaVuSans-116"/>
       <use x="663.103516" xlink:href="#DejaVuSans-105"/>
       <use x="690.886719" xlink:href="#DejaVuSans-111"/>
      </g>
     </g>
    </g>
    <g id="xtick_6">
     <g id="line2d_6">
      <g>
       <use style="stroke:#000000;" x="474.812732" xlink:href="#m18f22fe73e" y="424.492"/>
      </g>
     </g>
     <g id="text_6">
      <!-- Systolic Blood Pressure -->
      <defs>
       <path d="M 53.515625 70.515625 
L 53.515625 60.890625 
Q 47.90625 63.578125 42.921875 64.890625 
Q 37.9375 66.21875 33.296875 66.21875 
Q 25.25 66.21875 20.875 63.09375 
Q 16.5 59.96875 16.5 54.203125 
Q 16.5 49.359375 19.40625 46.890625 
Q 22.3125 44.4375 30.421875 42.921875 
L 36.375 41.703125 
Q 47.40625 39.59375 52.65625 34.296875 
Q 57.90625 29 57.90625 20.125 
Q 57.90625 9.515625 50.796875 4.046875 
Q 43.703125 -1.421875 29.984375 -1.421875 
Q 24.8125 -1.421875 18.96875 -0.25 
Q 13.140625 0.921875 6.890625 3.21875 
L 6.890625 13.375 
Q 12.890625 10.015625 18.65625 8.296875 
Q 24.421875 6.59375 29.984375 6.59375 
Q 38.421875 6.59375 43.015625 9.90625 
Q 47.609375 13.234375 47.609375 19.390625 
Q 47.609375 24.75 44.3125 27.78125 
Q 41.015625 30.8125 33.5 32.328125 
L 27.484375 33.5 
Q 16.453125 35.6875 11.515625 40.375 
Q 6.59375 45.0625 6.59375 53.421875 
Q 6.59375 63.09375 13.40625 68.65625 
Q 20.21875 74.21875 32.171875 74.21875 
Q 37.3125 74.21875 42.625 73.28125 
Q 47.953125 72.359375 53.515625 70.515625 
z
" id="DejaVuSans-83"/>
       <path d="M 32.171875 -5.078125 
Q 28.375 -14.84375 24.75 -17.8125 
Q 21.140625 -20.796875 15.09375 -20.796875 
L 7.90625 -20.796875 
L 7.90625 -13.28125 
L 13.1875 -13.28125 
Q 16.890625 -13.28125 18.9375 -11.515625 
Q 21 -9.765625 23.484375 -3.21875 
L 25.09375 0.875 
L 2.984375 54.6875 
L 12.5 54.6875 
L 29.59375 11.921875 
L 46.6875 54.6875 
L 56.203125 54.6875 
z
" id="DejaVuSans-121"/>
       <path d="M 9.421875 75.984375 
L 18.40625 75.984375 
L 18.40625 0 
L 9.421875 0 
z
" id="DejaVuSans-108"/>
       <path d="M 45.40625 46.390625 
L 45.40625 75.984375 
L 54.390625 75.984375 
L 54.390625 0 
L 45.40625 0 
L 45.40625 8.203125 
Q 42.578125 3.328125 38.25 0.953125 
Q 33.9375 -1.421875 27.875 -1.421875 
Q 17.96875 -1.421875 11.734375 6.484375 
Q 5.515625 14.40625 5.515625 27.296875 
Q 5.515625 40.1875 11.734375 48.09375 
Q 17.96875 56 27.875 56 
Q 33.9375 56 38.25 53.625 
Q 42.578125 51.265625 45.40625 46.390625 
z
M 14.796875 27.296875 
Q 14.796875 17.390625 18.875 11.75 
Q 22.953125 6.109375 30.078125 6.109375 
Q 37.203125 6.109375 41.296875 11.75 
Q 45.40625 17.390625 45.40625 27.296875 
Q 45.40625 37.203125 41.296875 42.84375 
Q 37.203125 48.484375 30.078125 48.484375 
Q 22.953125 48.484375 18.875 42.84375 
Q 14.796875 37.203125 14.796875 27.296875 
z
" id="DejaVuSans-100"/>
       <path d="M 19.671875 64.796875 
L 19.671875 37.40625 
L 32.078125 37.40625 
Q 38.96875 37.40625 42.71875 40.96875 
Q 46.484375 44.53125 46.484375 51.125 
Q 46.484375 57.671875 42.71875 61.234375 
Q 38.96875 64.796875 32.078125 64.796875 
z
M 9.8125 72.90625 
L 32.078125 72.90625 
Q 44.34375 72.90625 50.609375 67.359375 
Q 56.890625 61.8125 56.890625 51.125 
Q 56.890625 40.328125 50.609375 34.8125 
Q 44.34375 29.296875 32.078125 29.296875 
L 19.671875 29.296875 
L 19.671875 0 
L 9.8125 0 
z
" id="DejaVuSans-80"/>
      </defs>
      <g transform="translate(477.240982 534.73175)rotate(-90)scale(0.088 -0.088)">
       <use xlink:href="#DejaVuSans-83"/>
       <use x="63.476562" xlink:href="#DejaVuSans-121"/>
       <use x="122.65625" xlink:href="#DejaVuSans-115"/>
       <use x="174.755859" xlink:href="#DejaVuSans-116"/>
       <use x="213.964844" xlink:href="#DejaVuSans-111"/>
       <use x="275.146484" xlink:href="#DejaVuSans-108"/>
       <use x="302.929688" xlink:href="#DejaVuSans-105"/>
       <use x="330.712891" xlink:href="#DejaVuSans-99"/>
       <use x="385.693359" xlink:href="#DejaVuSans-32"/>
       <use x="417.480469" xlink:href="#DejaVuSans-66"/>
       <use x="486.083984" xlink:href="#DejaVuSans-108"/>
       <use x="513.867188" xlink:href="#DejaVuSans-111"/>
       <use x="575.048828" xlink:href="#DejaVuSans-111"/>
       <use x="636.230469" xlink:href="#DejaVuSans-100"/>
       <use x="699.707031" xlink:href="#DejaVuSans-32"/>
       <use x="731.494141" xlink:href="#DejaVuSans-80"/>
       <use x="790.046875" xlink:href="#DejaVuSans-114"/>
       <use x="828.910156" xlink:href="#DejaVuSans-101"/>
       <use x="890.433594" xlink:href="#DejaVuSans-115"/>
       <use x="942.533203" xlink:href="#DejaVuSans-115"/>
       <use x="994.632812" xlink:href="#DejaVuSans-117"/>
       <use x="1058.011719" xlink:href="#DejaVuSans-114"/>
       <use x="1096.875" xlink:href="#DejaVuSans-101"/>
      </g>
     </g>
    </g>
    <g id="xtick_7">
     <g id="line2d_7">
      <g>
       <use style="stroke:#000000;" x="544.763725" xlink:href="#m18f22fe73e" y="424.492"/>
      </g>
     </g>
     <g id="text_7">
      <!-- High Cholesterol -->
      <defs>
       <path d="M 64.40625 67.28125 
L 64.40625 56.890625 
Q 59.421875 61.53125 53.78125 63.8125 
Q 48.140625 66.109375 41.796875 66.109375 
Q 29.296875 66.109375 22.65625 58.46875 
Q 16.015625 50.828125 16.015625 36.375 
Q 16.015625 21.96875 22.65625 14.328125 
Q 29.296875 6.6875 41.796875 6.6875 
Q 48.140625 6.6875 53.78125 8.984375 
Q 59.421875 11.28125 64.40625 15.921875 
L 64.40625 5.609375 
Q 59.234375 2.09375 53.4375 0.328125 
Q 47.65625 -1.421875 41.21875 -1.421875 
Q 24.65625 -1.421875 15.125 8.703125 
Q 5.609375 18.84375 5.609375 36.375 
Q 5.609375 53.953125 15.125 64.078125 
Q 24.65625 74.21875 41.21875 74.21875 
Q 47.75 74.21875 53.53125 72.484375 
Q 59.328125 70.75 64.40625 67.28125 
z
" id="DejaVuSans-67"/>
      </defs>
      <g transform="translate(547.191975 505.478625)rotate(-90)scale(0.088 -0.088)">
       <use xlink:href="#DejaVuSans-72"/>
       <use x="75.195312" xlink:href="#DejaVuSans-105"/>
       <use x="102.978516" xlink:href="#DejaVuSans-103"/>
       <use x="166.455078" xlink:href="#DejaVuSans-104"/>
       <use x="229.833984" xlink:href="#DejaVuSans-32"/>
       <use x="261.621094" xlink:href="#DejaVuSans-67"/>
       <use x="331.445312" xlink:href="#DejaVuSans-104"/>
       <use x="394.824219" xlink:href="#DejaVuSans-111"/>
       <use x="456.005859" xlink:href="#DejaVuSans-108"/>
       <use x="483.789062" xlink:href="#DejaVuSans-101"/>
       <use x="545.3125" xlink:href="#DejaVuSans-115"/>
       <use x="597.412109" xlink:href="#DejaVuSans-116"/>
       <use x="636.621094" xlink:href="#DejaVuSans-101"/>
       <use x="698.144531" xlink:href="#DejaVuSans-114"/>
       <use x="737.007812" xlink:href="#DejaVuSans-111"/>
       <use x="798.189453" xlink:href="#DejaVuSans-108"/>
      </g>
     </g>
    </g>
    <g id="xtick_8">
     <g id="line2d_8">
      <g>
       <use style="stroke:#000000;" x="614.714717" xlink:href="#m18f22fe73e" y="424.492"/>
      </g>
     </g>
     <g id="text_8">
      <!-- Type 2 diabetes -->
      <defs>
       <path d="M -0.296875 72.90625 
L 61.375 72.90625 
L 61.375 64.59375 
L 35.5 64.59375 
L 35.5 0 
L 25.59375 0 
L 25.59375 64.59375 
L -0.296875 64.59375 
z
" id="DejaVuSans-84"/>
       <path d="M 19.1875 8.296875 
L 53.609375 8.296875 
L 53.609375 0 
L 7.328125 0 
L 7.328125 8.296875 
Q 12.9375 14.109375 22.625 23.890625 
Q 32.328125 33.6875 34.8125 36.53125 
Q 39.546875 41.84375 41.421875 45.53125 
Q 43.3125 49.21875 43.3125 52.78125 
Q 43.3125 58.59375 39.234375 62.25 
Q 35.15625 65.921875 28.609375 65.921875 
Q 23.96875 65.921875 18.8125 64.3125 
Q 13.671875 62.703125 7.8125 59.421875 
L 7.8125 69.390625 
Q 13.765625 71.78125 18.9375 73 
Q 24.125 74.21875 28.421875 74.21875 
Q 39.75 74.21875 46.484375 68.546875 
Q 53.21875 62.890625 53.21875 53.421875 
Q 53.21875 48.921875 51.53125 44.890625 
Q 49.859375 40.875 45.40625 35.40625 
Q 44.1875 33.984375 37.640625 27.21875 
Q 31.109375 20.453125 19.1875 8.296875 
z
" id="DejaVuSans-50"/>
       <path d="M 48.6875 27.296875 
Q 48.6875 37.203125 44.609375 42.84375 
Q 40.53125 48.484375 33.40625 48.484375 
Q 26.265625 48.484375 22.1875 42.84375 
Q 18.109375 37.203125 18.109375 27.296875 
Q 18.109375 17.390625 22.1875 11.75 
Q 26.265625 6.109375 33.40625 6.109375 
Q 40.53125 6.109375 44.609375 11.75 
Q 48.6875 17.390625 48.6875 27.296875 
z
M 18.109375 46.390625 
Q 20.953125 51.265625 25.265625 53.625 
Q 29.59375 56 35.59375 56 
Q 45.5625 56 51.78125 48.09375 
Q 58.015625 40.1875 58.015625 27.296875 
Q 58.015625 14.40625 51.78125 6.484375 
Q 45.5625 -1.421875 35.59375 -1.421875 
Q 29.59375 -1.421875 25.265625 0.953125 
Q 20.953125 3.328125 18.109375 8.203125 
L 18.109375 0 
L 9.078125 0 
L 9.078125 75.984375 
L 18.109375 75.984375 
z
" id="DejaVuSans-98"/>
      </defs>
      <g transform="translate(617.142967 502.068625)rotate(-90)scale(0.088 -0.088)">
       <use xlink:href="#DejaVuSans-84"/>
       <use x="45.458984" xlink:href="#DejaVuSans-121"/>
       <use x="104.638672" xlink:href="#DejaVuSans-112"/>
       <use x="168.115234" xlink:href="#DejaVuSans-101"/>
       <use x="229.638672" xlink:href="#DejaVuSans-32"/>
       <use x="261.425781" xlink:href="#DejaVuSans-50"/>
       <use x="325.048828" xlink:href="#DejaVuSans-32"/>
       <use x="356.835938" xlink:href="#DejaVuSans-100"/>
       <use x="420.3125" xlink:href="#DejaVuSans-105"/>
       <use x="448.095703" xlink:href="#DejaVuSans-97"/>
       <use x="509.375" xlink:href="#DejaVuSans-98"/>
       <use x="572.851562" xlink:href="#DejaVuSans-101"/>
       <use x="634.375" xlink:href="#DejaVuSans-116"/>
       <use x="673.583984" xlink:href="#DejaVuSans-101"/>
       <use x="735.107422" xlink:href="#DejaVuSans-115"/>
      </g>
     </g>
    </g>
    <g id="xtick_9">
     <g id="line2d_9">
      <g>
       <use style="stroke:#000000;" x="684.66571" xlink:href="#m18f22fe73e" y="424.492"/>
      </g>
     </g>
     <g id="text_9">
      <!-- Respiratory and ENT Diseases -->
      <defs>
       <path d="M 9.8125 72.90625 
L 55.90625 72.90625 
L 55.90625 64.59375 
L 19.671875 64.59375 
L 19.671875 43.015625 
L 54.390625 43.015625 
L 54.390625 34.71875 
L 19.671875 34.71875 
L 19.671875 8.296875 
L 56.78125 8.296875 
L 56.78125 0 
L 9.8125 0 
z
" id="DejaVuSans-69"/>
       <path d="M 9.8125 72.90625 
L 23.09375 72.90625 
L 55.421875 11.921875 
L 55.421875 72.90625 
L 64.984375 72.90625 
L 64.984375 0 
L 51.703125 0 
L 19.390625 60.984375 
L 19.390625 0 
L 9.8125 0 
z
" id="DejaVuSans-78"/>
       <path d="M 19.671875 64.796875 
L 19.671875 8.109375 
L 31.59375 8.109375 
Q 46.6875 8.109375 53.6875 14.9375 
Q 60.6875 21.78125 60.6875 36.53125 
Q 60.6875 51.171875 53.6875 57.984375 
Q 46.6875 64.796875 31.59375 64.796875 
z
M 9.8125 72.90625 
L 30.078125 72.90625 
Q 51.265625 72.90625 61.171875 64.09375 
Q 71.09375 55.28125 71.09375 36.53125 
Q 71.09375 17.671875 61.125 8.828125 
Q 51.171875 0 30.078125 0 
L 9.8125 0 
z
" id="DejaVuSans-68"/>
      </defs>
      <g transform="translate(687.09396 564.873125)rotate(-90)scale(0.088 -0.088)">
       <use xlink:href="#DejaVuSans-82"/>
       <use x="64.982422" xlink:href="#DejaVuSans-101"/>
       <use x="126.505859" xlink:href="#DejaVuSans-115"/>
       <use x="178.605469" xlink:href="#DejaVuSans-112"/>
       <use x="242.082031" xlink:href="#DejaVuSans-105"/>
       <use x="269.865234" xlink:href="#DejaVuSans-114"/>
       <use x="310.978516" xlink:href="#DejaVuSans-97"/>
       <use x="372.257812" xlink:href="#DejaVuSans-116"/>
       <use x="411.466797" xlink:href="#DejaVuSans-111"/>
       <use x="472.648438" xlink:href="#DejaVuSans-114"/>
       <use x="513.761719" xlink:href="#DejaVuSans-121"/>
       <use x="572.941406" xlink:href="#DejaVuSans-32"/>
       <use x="604.728516" xlink:href="#DejaVuSans-97"/>
       <use x="666.007812" xlink:href="#DejaVuSans-110"/>
       <use x="729.386719" xlink:href="#DejaVuSans-100"/>
       <use x="792.863281" xlink:href="#DejaVuSans-32"/>
       <use x="824.650391" xlink:href="#DejaVuSans-69"/>
       <use x="887.833984" xlink:href="#DejaVuSans-78"/>
       <use x="962.638672" xlink:href="#DejaVuSans-84"/>
       <use x="1023.722656" xlink:href="#DejaVuSans-32"/>
       <use x="1055.509766" xlink:href="#DejaVuSans-68"/>
       <use x="1132.511719" xlink:href="#DejaVuSans-105"/>
       <use x="1160.294922" xlink:href="#DejaVuSans-115"/>
       <use x="1212.394531" xlink:href="#DejaVuSans-101"/>
       <use x="1273.917969" xlink:href="#DejaVuSans-97"/>
       <use x="1335.197266" xlink:href="#DejaVuSans-115"/>
       <use x="1387.296875" xlink:href="#DejaVuSans-101"/>
       <use x="1448.820312" xlink:href="#DejaVuSans-115"/>
      </g>
     </g>
    </g>
    <g id="xtick_10">
     <g id="line2d_10">
      <g>
       <use style="stroke:#000000;" x="754.616703" xlink:href="#m18f22fe73e" y="424.492"/>
      </g>
     </g>
     <g id="text_10">
      <!-- Auto Immune Traits -->
      <defs>
       <path d="M 52 44.1875 
Q 55.375 50.25 60.0625 53.125 
Q 64.75 56 71.09375 56 
Q 79.640625 56 84.28125 50.015625 
Q 88.921875 44.046875 88.921875 33.015625 
L 88.921875 0 
L 79.890625 0 
L 79.890625 32.71875 
Q 79.890625 40.578125 77.09375 44.375 
Q 74.3125 48.1875 68.609375 48.1875 
Q 61.625 48.1875 57.5625 43.546875 
Q 53.515625 38.921875 53.515625 30.90625 
L 53.515625 0 
L 44.484375 0 
L 44.484375 32.71875 
Q 44.484375 40.625 41.703125 44.40625 
Q 38.921875 48.1875 33.109375 48.1875 
Q 26.21875 48.1875 22.15625 43.53125 
Q 18.109375 38.875 18.109375 30.90625 
L 18.109375 0 
L 9.078125 0 
L 9.078125 54.6875 
L 18.109375 54.6875 
L 18.109375 46.1875 
Q 21.1875 51.21875 25.484375 53.609375 
Q 29.78125 56 35.6875 56 
Q 41.65625 56 45.828125 52.96875 
Q 50 49.953125 52 44.1875 
z
" id="DejaVuSans-109"/>
      </defs>
      <g transform="translate(757.044953 518.691)rotate(-90)scale(0.088 -0.088)">
       <use xlink:href="#DejaVuSans-65"/>
       <use x="68.408203" xlink:href="#DejaVuSans-117"/>
       <use x="131.787109" xlink:href="#DejaVuSans-116"/>
       <use x="170.996094" xlink:href="#DejaVuSans-111"/>
       <use x="232.177734" xlink:href="#DejaVuSans-32"/>
       <use x="263.964844" xlink:href="#DejaVuSans-73"/>
       <use x="293.457031" xlink:href="#DejaVuSans-109"/>
       <use x="390.869141" xlink:href="#DejaVuSans-109"/>
       <use x="488.28125" xlink:href="#DejaVuSans-117"/>
       <use x="551.660156" xlink:href="#DejaVuSans-110"/>
       <use x="615.039062" xlink:href="#DejaVuSans-101"/>
       <use x="676.5625" xlink:href="#DejaVuSans-32"/>
       <use x="708.349609" xlink:href="#DejaVuSans-84"/>
       <use x="754.683594" xlink:href="#DejaVuSans-114"/>
       <use x="795.796875" xlink:href="#DejaVuSans-97"/>
       <use x="857.076172" xlink:href="#DejaVuSans-105"/>
       <use x="884.859375" xlink:href="#DejaVuSans-116"/>
       <use x="924.068359" xlink:href="#DejaVuSans-115"/>
      </g>
     </g>
    </g>
    <g id="xtick_11">
     <g id="line2d_11">
      <g>
       <use style="stroke:#000000;" x="824.567696" xlink:href="#m18f22fe73e" y="424.492"/>
      </g>
     </g>
     <g id="text_11">
      <!-- Eczema -->
      <defs>
       <path d="M 5.515625 54.6875 
L 48.1875 54.6875 
L 48.1875 46.484375 
L 14.40625 7.171875 
L 48.1875 7.171875 
L 48.1875 0 
L 4.296875 0 
L 4.296875 8.203125 
L 38.09375 47.515625 
L 5.515625 47.515625 
z
" id="DejaVuSans-122"/>
      </defs>
      <g transform="translate(826.995946 467.189)rotate(-90)scale(0.088 -0.088)">
       <use xlink:href="#DejaVuSans-69"/>
       <use x="63.183594" xlink:href="#DejaVuSans-99"/>
       <use x="118.164062" xlink:href="#DejaVuSans-122"/>
       <use x="170.654297" xlink:href="#DejaVuSans-101"/>
       <use x="232.177734" xlink:href="#DejaVuSans-109"/>
       <use x="329.589844" xlink:href="#DejaVuSans-97"/>
      </g>
     </g>
    </g>
    <g id="xtick_12">
     <g id="line2d_12">
      <g>
       <use style="stroke:#000000;" x="894.518689" xlink:href="#m18f22fe73e" y="424.492"/>
      </g>
     </g>
     <g id="text_12">
      <!-- Hypothyroidism -->
      <g transform="translate(896.946939 502.261125)rotate(-90)scale(0.088 -0.088)">
       <use xlink:href="#DejaVuSans-72"/>
       <use x="75.195312" xlink:href="#DejaVuSans-121"/>
       <use x="134.375" xlink:href="#DejaVuSans-112"/>
       <use x="197.851562" xlink:href="#DejaVuSans-111"/>
       <use x="259.033203" xlink:href="#DejaVuSans-116"/>
       <use x="298.242188" xlink:href="#DejaVuSans-104"/>
       <use x="361.621094" xlink:href="#DejaVuSans-121"/>
       <use x="420.800781" xlink:href="#DejaVuSans-114"/>
       <use x="459.664062" xlink:href="#DejaVuSans-111"/>
       <use x="520.845703" xlink:href="#DejaVuSans-105"/>
       <use x="548.628906" xlink:href="#DejaVuSans-100"/>
       <use x="612.105469" xlink:href="#DejaVuSans-105"/>
       <use x="639.888672" xlink:href="#DejaVuSans-115"/>
       <use x="691.988281" xlink:href="#DejaVuSans-109"/>
      </g>
     </g>
    </g>
   </g>
   <g id="matplotlib.axis_2">
    <g id="ytick_1">
     <g id="line2d_13">
      <defs>
       <path d="M 0 0 
L -4.8 0 
" id="mdd8406ae81" style="stroke:#000000;"/>
      </defs>
      <g>
       <use style="stroke:#000000;" x="53.358" xlink:href="#mdd8406ae81" y="391.153278"/>
      </g>
     </g>
     <g id="text_13">
      <!-- 0.3 -->
      <defs>
       <path d="M 10.59375 35.5 
L 73.1875 35.5 
L 73.1875 27.203125 
L 10.59375 27.203125 
z
" id="DejaVuSans-8722"/>
       <path d="M 31.78125 66.40625 
Q 24.171875 66.40625 20.328125 58.90625 
Q 16.5 51.421875 16.5 36.375 
Q 16.5 21.390625 20.328125 13.890625 
Q 24.171875 6.390625 31.78125 6.390625 
Q 39.453125 6.390625 43.28125 13.890625 
Q 47.125 21.390625 47.125 36.375 
Q 47.125 51.421875 43.28125 58.90625 
Q 39.453125 66.40625 31.78125 66.40625 
z
M 31.78125 74.21875 
Q 44.046875 74.21875 50.515625 64.515625 
Q 56.984375 54.828125 56.984375 36.375 
Q 56.984375 17.96875 50.515625 8.265625 
Q 44.046875 -1.421875 31.78125 -1.421875 
Q 19.53125 -1.421875 13.0625 8.265625 
Q 6.59375 17.96875 6.59375 36.375 
Q 6.59375 54.828125 13.0625 64.515625 
Q 19.53125 74.21875 31.78125 74.21875 
z
" id="DejaVuSans-48"/>
       <path d="M 10.6875 12.40625 
L 21 12.40625 
L 21 0 
L 10.6875 0 
z
" id="DejaVuSans-46"/>
       <path d="M 40.578125 39.3125 
Q 47.65625 37.796875 51.625 33 
Q 55.609375 28.21875 55.609375 21.1875 
Q 55.609375 10.40625 48.1875 4.484375 
Q 40.765625 -1.421875 27.09375 -1.421875 
Q 22.515625 -1.421875 17.65625 -0.515625 
Q 12.796875 0.390625 7.625 2.203125 
L 7.625 11.71875 
Q 11.71875 9.328125 16.59375 8.109375 
Q 21.484375 6.890625 26.8125 6.890625 
Q 36.078125 6.890625 40.9375 10.546875 
Q 45.796875 14.203125 45.796875 21.1875 
Q 45.796875 27.640625 41.28125 31.265625 
Q 36.765625 34.90625 28.71875 34.90625 
L 20.21875 34.90625 
L 20.21875 43.015625 
L 29.109375 43.015625 
Q 36.375 43.015625 40.234375 45.921875 
Q 44.09375 48.828125 44.09375 54.296875 
Q 44.09375 59.90625 40.109375 62.90625 
Q 36.140625 65.921875 28.71875 65.921875 
Q 24.65625 65.921875 20.015625 65.03125 
Q 15.375 64.15625 9.8125 62.3125 
L 9.8125 71.09375 
Q 15.4375 72.65625 20.34375 73.4375 
Q 25.25 74.21875 29.59375 74.21875 
Q 40.828125 74.21875 47.359375 69.109375 
Q 53.90625 64.015625 53.90625 55.328125 
Q 53.90625 49.265625 50.4375 45.09375 
Q 46.96875 40.921875 40.578125 39.3125 
z
" id="DejaVuSans-51"/>
      </defs>
      <g transform="translate(23.689125 394.49659)scale(0.088 -0.088)">
       <use xlink:href="#DejaVuSans-8722"/>
       <use x="83.789062" xlink:href="#DejaVuSans-48"/>
       <use x="147.412109" xlink:href="#DejaVuSans-46"/>
       <use x="179.199219" xlink:href="#DejaVuSans-51"/>
      </g>
     </g>
    </g>
    <g id="ytick_2">
     <g id="line2d_14">
      <g>
       <use style="stroke:#000000;" x="53.358" xlink:href="#mdd8406ae81" y="342.230346"/>
      </g>
     </g>
     <g id="text_14">
      <!-- 0.2 -->
      <g transform="translate(23.689125 345.573658)scale(0.088 -0.088)">
       <use xlink:href="#DejaVuSans-8722"/>
       <use x="83.789062" xlink:href="#DejaVuSans-48"/>
       <use x="147.412109" xlink:href="#DejaVuSans-46"/>
       <use x="179.199219" xlink:href="#DejaVuSans-50"/>
      </g>
     </g>
    </g>
    <g id="ytick_3">
     <g id="line2d_15">
      <g>
       <use style="stroke:#000000;" x="53.358" xlink:href="#mdd8406ae81" y="293.307414"/>
      </g>
     </g>
     <g id="text_15">
      <!-- 0.1 -->
      <defs>
       <path d="M 12.40625 8.296875 
L 28.515625 8.296875 
L 28.515625 63.921875 
L 10.984375 60.40625 
L 10.984375 69.390625 
L 28.421875 72.90625 
L 38.28125 72.90625 
L 38.28125 8.296875 
L 54.390625 8.296875 
L 54.390625 0 
L 12.40625 0 
z
" id="DejaVuSans-49"/>
      </defs>
      <g transform="translate(23.689125 296.650727)scale(0.088 -0.088)">
       <use xlink:href="#DejaVuSans-8722"/>
       <use x="83.789062" xlink:href="#DejaVuSans-48"/>
       <use x="147.412109" xlink:href="#DejaVuSans-46"/>
       <use x="179.199219" xlink:href="#DejaVuSans-49"/>
      </g>
     </g>
    </g>
    <g id="ytick_4">
     <g id="line2d_16">
      <g>
       <use style="stroke:#000000;" x="53.358" xlink:href="#mdd8406ae81" y="244.384483"/>
      </g>
     </g>
     <g id="text_16">
      <!-- 0.0 -->
      <g transform="translate(31.06325 247.727795)scale(0.088 -0.088)">
       <use xlink:href="#DejaVuSans-48"/>
       <use x="63.623047" xlink:href="#DejaVuSans-46"/>
       <use x="95.410156" xlink:href="#DejaVuSans-48"/>
      </g>
     </g>
    </g>
    <g id="ytick_5">
     <g id="line2d_17">
      <g>
       <use style="stroke:#000000;" x="53.358" xlink:href="#mdd8406ae81" y="195.461551"/>
      </g>
     </g>
     <g id="text_17">
      <!-- 0.1 -->
      <g transform="translate(31.06325 198.804864)scale(0.088 -0.088)">
       <use xlink:href="#DejaVuSans-48"/>
       <use x="63.623047" xlink:href="#DejaVuSans-46"/>
       <use x="95.410156" xlink:href="#DejaVuSans-49"/>
      </g>
     </g>
    </g>
    <g id="ytick_6">
     <g id="line2d_18">
      <g>
       <use style="stroke:#000000;" x="53.358" xlink:href="#mdd8406ae81" y="146.53862"/>
      </g>
     </g>
     <g id="text_18">
      <!-- 0.2 -->
      <g transform="translate(31.06325 149.881932)scale(0.088 -0.088)">
       <use xlink:href="#DejaVuSans-48"/>
       <use x="63.623047" xlink:href="#DejaVuSans-46"/>
       <use x="95.410156" xlink:href="#DejaVuSans-50"/>
      </g>
     </g>
    </g>
    <g id="ytick_7">
     <g id="line2d_19">
      <g>
       <use style="stroke:#000000;" x="53.358" xlink:href="#mdd8406ae81" y="97.615688"/>
      </g>
     </g>
     <g id="text_19">
      <!-- 0.3 -->
      <g transform="translate(31.06325 100.959001)scale(0.088 -0.088)">
       <use xlink:href="#DejaVuSans-48"/>
       <use x="63.623047" xlink:href="#DejaVuSans-46"/>
       <use x="95.410156" xlink:href="#DejaVuSans-51"/>
      </g>
     </g>
    </g>
    <g id="ytick_8">
     <g id="line2d_20">
      <g>
       <use style="stroke:#000000;" x="53.358" xlink:href="#mdd8406ae81" y="48.692757"/>
      </g>
     </g>
     <g id="text_20">
      <!-- 0.4 -->
      <defs>
       <path d="M 37.796875 64.3125 
L 12.890625 25.390625 
L 37.796875 25.390625 
z
M 35.203125 72.90625 
L 47.609375 72.90625 
L 47.609375 25.390625 
L 58.015625 25.390625 
L 58.015625 17.1875 
L 47.609375 17.1875 
L 47.609375 0 
L 37.796875 0 
L 37.796875 17.1875 
L 4.890625 17.1875 
L 4.890625 26.703125 
z
" id="DejaVuSans-52"/>
      </defs>
      <g transform="translate(31.06325 52.036069)scale(0.088 -0.088)">
       <use xlink:href="#DejaVuSans-48"/>
       <use x="63.623047" xlink:href="#DejaVuSans-46"/>
       <use x="95.410156" xlink:href="#DejaVuSans-52"/>
      </g>
     </g>
    </g>
    <g id="text_21">
     <!-- Estimated Ratio -->
     <g transform="translate(17.692625 262.12475)rotate(-90)scale(0.096 -0.096)">
      <use xlink:href="#DejaVuSans-69"/>
      <use x="63.183594" xlink:href="#DejaVuSans-115"/>
      <use x="115.283203" xlink:href="#DejaVuSans-116"/>
      <use x="154.492188" xlink:href="#DejaVuSans-105"/>
      <use x="182.275391" xlink:href="#DejaVuSans-109"/>
      <use x="279.6875" xlink:href="#DejaVuSans-97"/>
      <use x="340.966797" xlink:href="#DejaVuSans-116"/>
      <use x="380.175781" xlink:href="#DejaVuSans-101"/>
      <use x="441.699219" xlink:href="#DejaVuSans-100"/>
      <use x="505.175781" xlink:href="#DejaVuSans-32"/>
      <use x="536.962891" xlink:href="#DejaVuSans-82"/>
      <use x="604.195312" xlink:href="#DejaVuSans-97"/>
      <use x="665.474609" xlink:href="#DejaVuSans-116"/>
      <use x="704.683594" xlink:href="#DejaVuSans-105"/>
      <use x="732.466797" xlink:href="#DejaVuSans-111"/>
     </g>
    </g>
   </g>
   <g id="LineCollection_1">
    <path clip-path="url(#p7b860aca99)" d="M 98.826145 231.539597 
L 98.826145 210.570398 
" style="fill:none;stroke:#000000;"/>
    <path clip-path="url(#p7b860aca99)" d="M 168.777138 167.881253 
L 168.777138 93.828691 
" style="fill:none;stroke:#000000;"/>
    <path clip-path="url(#p7b860aca99)" d="M 238.728131 194.137004 
L 238.728131 177.186727 
" style="fill:none;stroke:#000000;"/>
    <path clip-path="url(#p7b860aca99)" d="M 308.679124 206.597287 
L 308.679124 197.325573 
" style="fill:none;stroke:#000000;"/>
    <path clip-path="url(#p7b860aca99)" d="M 378.630117 184.50387 
L 378.630117 161.854196 
" style="fill:none;stroke:#000000;"/>
    <path clip-path="url(#p7b860aca99)" d="M 448.581109 182.789813 
L 448.581109 167.851191 
" style="fill:none;stroke:#000000;"/>
    <path clip-path="url(#p7b860aca99)" d="M 518.532102 139.350047 
L 518.532102 41.791818 
" style="fill:none;stroke:#000000;"/>
    <path clip-path="url(#p7b860aca99)" d="M 588.483095 167.541945 
L 588.483095 116.47465 
" style="fill:none;stroke:#000000;"/>
    <path clip-path="url(#p7b860aca99)" d="M 658.434088 163.177831 
L 658.434088 127.432109 
" style="fill:none;stroke:#000000;"/>
    <path clip-path="url(#p7b860aca99)" d="M 728.385081 221.945961 
L 728.385081 69.699298 
" style="fill:none;stroke:#000000;"/>
    <path clip-path="url(#p7b860aca99)" d="M 798.336074 169.769812 
L 798.336074 141.167404 
" style="fill:none;stroke:#000000;"/>
    <path clip-path="url(#p7b860aca99)" d="M 868.287066 165.016053 
L 868.287066 120.894636 
" style="fill:none;stroke:#000000;"/>
   </g>
   <g id="LineCollection_2">
    <path clip-path="url(#p7b860aca99)" d="M 107.570019 228.455525 
L 107.570019 209.326131 
" style="fill:none;stroke:#000000;"/>
    <path clip-path="url(#p7b860aca99)" d="M 177.521012 170.745768 
L 177.521012 96.976533 
" style="fill:none;stroke:#000000;"/>
    <path clip-path="url(#p7b860aca99)" d="M 247.472005 196.613663 
L 247.472005 180.522204 
" style="fill:none;stroke:#000000;"/>
    <path clip-path="url(#p7b860aca99)" d="M 317.422998 207.711912 
L 317.422998 198.679624 
" style="fill:none;stroke:#000000;"/>
    <path clip-path="url(#p7b860aca99)" d="M 387.373991 186.722061 
L 387.373991 165.42907 
" style="fill:none;stroke:#000000;"/>
    <path clip-path="url(#p7b860aca99)" d="M 457.324984 185.913612 
L 457.324984 171.556577 
" style="fill:none;stroke:#000000;"/>
    <path clip-path="url(#p7b860aca99)" d="M 527.275976 141.991216 
L 527.275976 43.837447 
" style="fill:none;stroke:#000000;"/>
    <path clip-path="url(#p7b860aca99)" d="M 597.226969 167.342493 
L 597.226969 119.161037 
" style="fill:none;stroke:#000000;"/>
    <path clip-path="url(#p7b860aca99)" d="M 667.177962 168.382887 
L 667.177962 135.691607 
" style="fill:none;stroke:#000000;"/>
    <path clip-path="url(#p7b860aca99)" d="M 737.128955 214.601458 
L 737.128955 64.300555 
" style="fill:none;stroke:#000000;"/>
    <path clip-path="url(#p7b860aca99)" d="M 807.079948 170.81213 
L 807.079948 142.864606 
" style="fill:none;stroke:#000000;"/>
    <path clip-path="url(#p7b860aca99)" d="M 877.03094 173.466066 
L 877.03094 130.733944 
" style="fill:none;stroke:#000000;"/>
   </g>
   <g id="LineCollection_3">
    <path clip-path="url(#p7b860aca99)" d="M 116.313894 194.345847 
L 116.313894 177.414398 
" style="fill:none;stroke:#000000;"/>
    <path clip-path="url(#p7b860aca99)" d="M 186.264886 159.073131 
L 186.264886 94.535346 
" style="fill:none;stroke:#000000;"/>
    <path clip-path="url(#p7b860aca99)" d="M 256.215879 186.601634 
L 256.215879 175.499242 
" style="fill:none;stroke:#000000;"/>
    <path clip-path="url(#p7b860aca99)" d="M 326.166872 190.21458 
L 326.166872 182.025686 
" style="fill:none;stroke:#000000;"/>
    <path clip-path="url(#p7b860aca99)" d="M 396.117865 174.400851 
L 396.117865 156.271034 
" style="fill:none;stroke:#000000;"/>
    <path clip-path="url(#p7b860aca99)" d="M 466.068858 175.9912 
L 466.068858 162.84799 
" style="fill:none;stroke:#000000;"/>
    <path clip-path="url(#p7b860aca99)" d="M 536.01985 146.597558 
L 536.01985 67.897265 
" style="fill:none;stroke:#000000;"/>
    <path clip-path="url(#p7b860aca99)" d="M 605.970843 173.234244 
L 605.970843 134.793987 
" style="fill:none;stroke:#000000;"/>
    <path clip-path="url(#p7b860aca99)" d="M 675.921836 166.733504 
L 675.921836 132.600456 
" style="fill:none;stroke:#000000;"/>
    <path clip-path="url(#p7b860aca99)" d="M 745.872829 333.824727 
L 745.872829 201.707275 
" style="fill:none;stroke:#000000;"/>
    <path clip-path="url(#p7b860aca99)" d="M 815.823822 153.521097 
L 815.823822 129.342383 
" style="fill:none;stroke:#000000;"/>
    <path clip-path="url(#p7b860aca99)" d="M 885.774815 176.913949 
L 885.774815 142.811234 
" style="fill:none;stroke:#000000;"/>
   </g>
   <g id="LineCollection_4">
    <path clip-path="url(#p7b860aca99)" d="M 125.057768 227.789963 
L 125.057768 205.819661 
" style="fill:none;stroke:#000000;"/>
    <path clip-path="url(#p7b860aca99)" d="M 195.00876 169.130286 
L 195.00876 98.11948 
" style="fill:none;stroke:#000000;"/>
    <path clip-path="url(#p7b860aca99)" d="M 264.959753 207.075728 
L 264.959753 195.722615 
" style="fill:none;stroke:#000000;"/>
    <path clip-path="url(#p7b860aca99)" d="M 334.910746 216.381441 
L 334.910746 207.596569 
" style="fill:none;stroke:#000000;"/>
    <path clip-path="url(#p7b860aca99)" d="M 404.861739 217.668101 
L 404.861739 202.052221 
" style="fill:none;stroke:#000000;"/>
    <path clip-path="url(#p7b860aca99)" d="M 474.812732 211.681768 
L 474.812732 198.246755 
" style="fill:none;stroke:#000000;"/>
    <path clip-path="url(#p7b860aca99)" d="M 544.763725 181.68354 
L 544.763725 113.318741 
" style="fill:none;stroke:#000000;"/>
    <path clip-path="url(#p7b860aca99)" d="M 614.714717 209.815411 
L 614.714717 163.392352 
" style="fill:none;stroke:#000000;"/>
    <path clip-path="url(#p7b860aca99)" d="M 684.66571 212.722679 
L 684.66571 175.655549 
" style="fill:none;stroke:#000000;"/>
    <path clip-path="url(#p7b860aca99)" d="M 754.616703 316.966239 
L 754.616703 130.962923 
" style="fill:none;stroke:#000000;"/>
    <path clip-path="url(#p7b860aca99)" d="M 824.567696 213.760296 
L 824.567696 187.727171 
" style="fill:none;stroke:#000000;"/>
    <path clip-path="url(#p7b860aca99)" d="M 894.518689 213.995831 
L 894.518689 169.879283 
" style="fill:none;stroke:#000000;"/>
   </g>
   <g id="LineCollection_5">
    <path clip-path="url(#p7b860aca99)" d="M 133.801642 221.247098 
L 133.801642 199.703054 
" style="fill:none;stroke:#000000;"/>
    <path clip-path="url(#p7b860aca99)" d="M 203.752635 163.840831 
L 203.752635 92.66639 
" style="fill:none;stroke:#000000;"/>
    <path clip-path="url(#p7b860aca99)" d="M 273.703627 206.894073 
L 273.703627 195.73507 
" style="fill:none;stroke:#000000;"/>
    <path clip-path="url(#p7b860aca99)" d="M 343.65462 212.101926 
L 343.65462 203.637958 
" style="fill:none;stroke:#000000;"/>
    <path clip-path="url(#p7b860aca99)" d="M 413.605613 214.145022 
L 413.605613 198.85531 
" style="fill:none;stroke:#000000;"/>
    <path clip-path="url(#p7b860aca99)" d="M 483.556606 208.763961 
L 483.556606 195.842271 
" style="fill:none;stroke:#000000;"/>
    <path clip-path="url(#p7b860aca99)" d="M 553.507599 175.389323 
L 553.507599 104.372836 
" style="fill:none;stroke:#000000;"/>
    <path clip-path="url(#p7b860aca99)" d="M 623.458592 199.155319 
L 623.458592 156.515281 
" style="fill:none;stroke:#000000;"/>
    <path clip-path="url(#p7b860aca99)" d="M 693.409584 209.004826 
L 693.409584 173.675924 
" style="fill:none;stroke:#000000;"/>
    <path clip-path="url(#p7b860aca99)" d="M 763.360577 297.843873 
L 763.360577 116.123071 
" style="fill:none;stroke:#000000;"/>
    <path clip-path="url(#p7b860aca99)" d="M 833.31157 207.110626 
L 833.31157 182.79692 
" style="fill:none;stroke:#000000;"/>
    <path clip-path="url(#p7b860aca99)" d="M 903.262563 213.174925 
L 903.262563 170.660588 
" style="fill:none;stroke:#000000;"/>
   </g>
   <g id="LineCollection_6">
    <path clip-path="url(#p7b860aca99)" d="M 142.545516 203.96515 
L 142.545516 186.681583 
" style="fill:none;stroke:#000000;"/>
    <path clip-path="url(#p7b860aca99)" d="M 212.496509 168.872119 
L 212.496509 106.501599 
" style="fill:none;stroke:#000000;"/>
    <path clip-path="url(#p7b860aca99)" d="M 282.447501 204.315413 
L 282.447501 196.634111 
" style="fill:none;stroke:#000000;"/>
    <path clip-path="url(#p7b860aca99)" d="M 352.398494 205.225834 
L 352.398494 196.660527 
" style="fill:none;stroke:#000000;"/>
    <path clip-path="url(#p7b860aca99)" d="M 422.349487 208.385867 
L 422.349487 192.944818 
" style="fill:none;stroke:#000000;"/>
    <path clip-path="url(#p7b860aca99)" d="M 492.30048 201.793186 
L 492.30048 188.065253 
" style="fill:none;stroke:#000000;"/>
    <path clip-path="url(#p7b860aca99)" d="M 562.251473 155.690206 
L 562.251473 83.412209 
" style="fill:none;stroke:#000000;"/>
    <path clip-path="url(#p7b860aca99)" d="M 632.202466 203.811274 
L 632.202466 166.527671 
" style="fill:none;stroke:#000000;"/>
    <path clip-path="url(#p7b860aca99)" d="M 702.153458 199.780895 
L 702.153458 163.721809 
" style="fill:none;stroke:#000000;"/>
    <path clip-path="url(#p7b860aca99)" d="M 772.104451 406.268182 
L 772.104451 244.428765 
" style="fill:none;stroke:#000000;"/>
    <path clip-path="url(#p7b860aca99)" d="M 842.055444 192.348394 
L 842.055444 166.327212 
" style="fill:none;stroke:#000000;"/>
    <path clip-path="url(#p7b860aca99)" d="M 912.006437 213.373892 
L 912.006437 174.164295 
" style="fill:none;stroke:#000000;"/>
   </g>
   <g id="line2d_21">
    <defs>
     <path d="M 2 0 
L -2 -0 
" id="m620aa19e28" style="stroke:#000000;"/>
    </defs>
    <g clip-path="url(#p7b860aca99)">
     <use style="stroke:#000000;" x="98.826145" xlink:href="#m620aa19e28" y="231.539597"/>
     <use style="stroke:#000000;" x="168.777138" xlink:href="#m620aa19e28" y="167.881253"/>
     <use style="stroke:#000000;" x="238.728131" xlink:href="#m620aa19e28" y="194.137004"/>
     <use style="stroke:#000000;" x="308.679124" xlink:href="#m620aa19e28" y="206.597287"/>
     <use style="stroke:#000000;" x="378.630117" xlink:href="#m620aa19e28" y="184.50387"/>
     <use style="stroke:#000000;" x="448.581109" xlink:href="#m620aa19e28" y="182.789813"/>
     <use style="stroke:#000000;" x="518.532102" xlink:href="#m620aa19e28" y="139.350047"/>
     <use style="stroke:#000000;" x="588.483095" xlink:href="#m620aa19e28" y="167.541945"/>
     <use style="stroke:#000000;" x="658.434088" xlink:href="#m620aa19e28" y="163.177831"/>
     <use style="stroke:#000000;" x="728.385081" xlink:href="#m620aa19e28" y="221.945961"/>
     <use style="stroke:#000000;" x="798.336074" xlink:href="#m620aa19e28" y="169.769812"/>
     <use style="stroke:#000000;" x="868.287066" xlink:href="#m620aa19e28" y="165.016053"/>
    </g>
   </g>
   <g id="line2d_22">
    <g clip-path="url(#p7b860aca99)">
     <use style="stroke:#000000;" x="98.826145" xlink:href="#m620aa19e28" y="210.570398"/>
     <use style="stroke:#000000;" x="168.777138" xlink:href="#m620aa19e28" y="93.828691"/>
     <use style="stroke:#000000;" x="238.728131" xlink:href="#m620aa19e28" y="177.186727"/>
     <use style="stroke:#000000;" x="308.679124" xlink:href="#m620aa19e28" y="197.325573"/>
     <use style="stroke:#000000;" x="378.630117" xlink:href="#m620aa19e28" y="161.854196"/>
     <use style="stroke:#000000;" x="448.581109" xlink:href="#m620aa19e28" y="167.851191"/>
     <use style="stroke:#000000;" x="518.532102" xlink:href="#m620aa19e28" y="41.791818"/>
     <use style="stroke:#000000;" x="588.483095" xlink:href="#m620aa19e28" y="116.47465"/>
     <use style="stroke:#000000;" x="658.434088" xlink:href="#m620aa19e28" y="127.432109"/>
     <use style="stroke:#000000;" x="728.385081" xlink:href="#m620aa19e28" y="69.699298"/>
     <use style="stroke:#000000;" x="798.336074" xlink:href="#m620aa19e28" y="141.167404"/>
     <use style="stroke:#000000;" x="868.287066" xlink:href="#m620aa19e28" y="120.894636"/>
    </g>
   </g>
   <g id="line2d_23">
    <g clip-path="url(#p7b860aca99)">
     <use style="stroke:#000000;" x="107.570019" xlink:href="#m620aa19e28" y="228.455525"/>
     <use style="stroke:#000000;" x="177.521012" xlink:href="#m620aa19e28" y="170.745768"/>
     <use style="stroke:#000000;" x="247.472005" xlink:href="#m620aa19e28" y="196.613663"/>
     <use style="stroke:#000000;" x="317.422998" xlink:href="#m620aa19e28" y="207.711912"/>
     <use style="stroke:#000000;" x="387.373991" xlink:href="#m620aa19e28" y="186.722061"/>
     <use style="stroke:#000000;" x="457.324984" xlink:href="#m620aa19e28" y="185.913612"/>
     <use style="stroke:#000000;" x="527.275976" xlink:href="#m620aa19e28" y="141.991216"/>
     <use style="stroke:#000000;" x="597.226969" xlink:href="#m620aa19e28" y="167.342493"/>
     <use style="stroke:#000000;" x="667.177962" xlink:href="#m620aa19e28" y="168.382887"/>
     <use style="stroke:#000000;" x="737.128955" xlink:href="#m620aa19e28" y="214.601458"/>
     <use style="stroke:#000000;" x="807.079948" xlink:href="#m620aa19e28" y="170.81213"/>
     <use style="stroke:#000000;" x="877.03094" xlink:href="#m620aa19e28" y="173.466066"/>
    </g>
   </g>
   <g id="line2d_24">
    <g clip-path="url(#p7b860aca99)">
     <use style="stroke:#000000;" x="107.570019" xlink:href="#m620aa19e28" y="209.326131"/>
     <use style="stroke:#000000;" x="177.521012" xlink:href="#m620aa19e28" y="96.976533"/>
     <use style="stroke:#000000;" x="247.472005" xlink:href="#m620aa19e28" y="180.522204"/>
     <use style="stroke:#000000;" x="317.422998" xlink:href="#m620aa19e28" y="198.679624"/>
     <use style="stroke:#000000;" x="387.373991" xlink:href="#m620aa19e28" y="165.42907"/>
     <use style="stroke:#000000;" x="457.324984" xlink:href="#m620aa19e28" y="171.556577"/>
     <use style="stroke:#000000;" x="527.275976" xlink:href="#m620aa19e28" y="43.837447"/>
     <use style="stroke:#000000;" x="597.226969" xlink:href="#m620aa19e28" y="119.161037"/>
     <use style="stroke:#000000;" x="667.177962" xlink:href="#m620aa19e28" y="135.691607"/>
     <use style="stroke:#000000;" x="737.128955" xlink:href="#m620aa19e28" y="64.300555"/>
     <use style="stroke:#000000;" x="807.079948" xlink:href="#m620aa19e28" y="142.864606"/>
     <use style="stroke:#000000;" x="877.03094" xlink:href="#m620aa19e28" y="130.733944"/>
    </g>
   </g>
   <g id="line2d_25">
    <g clip-path="url(#p7b860aca99)">
     <use style="stroke:#000000;" x="116.313894" xlink:href="#m620aa19e28" y="194.345847"/>
     <use style="stroke:#000000;" x="186.264886" xlink:href="#m620aa19e28" y="159.073131"/>
     <use style="stroke:#000000;" x="256.215879" xlink:href="#m620aa19e28" y="186.601634"/>
     <use style="stroke:#000000;" x="326.166872" xlink:href="#m620aa19e28" y="190.21458"/>
     <use style="stroke:#000000;" x="396.117865" xlink:href="#m620aa19e28" y="174.400851"/>
     <use style="stroke:#000000;" x="466.068858" xlink:href="#m620aa19e28" y="175.9912"/>
     <use style="stroke:#000000;" x="536.01985" xlink:href="#m620aa19e28" y="146.597558"/>
     <use style="stroke:#000000;" x="605.970843" xlink:href="#m620aa19e28" y="173.234244"/>
     <use style="stroke:#000000;" x="675.921836" xlink:href="#m620aa19e28" y="166.733504"/>
     <use style="stroke:#000000;" x="745.872829" xlink:href="#m620aa19e28" y="333.824727"/>
     <use style="stroke:#000000;" x="815.823822" xlink:href="#m620aa19e28" y="153.521097"/>
     <use style="stroke:#000000;" x="885.774815" xlink:href="#m620aa19e28" y="176.913949"/>
    </g>
   </g>
   <g id="line2d_26">
    <g clip-path="url(#p7b860aca99)">
     <use style="stroke:#000000;" x="116.313894" xlink:href="#m620aa19e28" y="177.414398"/>
     <use style="stroke:#000000;" x="186.264886" xlink:href="#m620aa19e28" y="94.535346"/>
     <use style="stroke:#000000;" x="256.215879" xlink:href="#m620aa19e28" y="175.499242"/>
     <use style="stroke:#000000;" x="326.166872" xlink:href="#m620aa19e28" y="182.025686"/>
     <use style="stroke:#000000;" x="396.117865" xlink:href="#m620aa19e28" y="156.271034"/>
     <use style="stroke:#000000;" x="466.068858" xlink:href="#m620aa19e28" y="162.84799"/>
     <use style="stroke:#000000;" x="536.01985" xlink:href="#m620aa19e28" y="67.897265"/>
     <use style="stroke:#000000;" x="605.970843" xlink:href="#m620aa19e28" y="134.793987"/>
     <use style="stroke:#000000;" x="675.921836" xlink:href="#m620aa19e28" y="132.600456"/>
     <use style="stroke:#000000;" x="745.872829" xlink:href="#m620aa19e28" y="201.707275"/>
     <use style="stroke:#000000;" x="815.823822" xlink:href="#m620aa19e28" y="129.342383"/>
     <use style="stroke:#000000;" x="885.774815" xlink:href="#m620aa19e28" y="142.811234"/>
    </g>
   </g>
   <g id="line2d_27">
    <g clip-path="url(#p7b860aca99)">
     <use style="stroke:#000000;" x="125.057768" xlink:href="#m620aa19e28" y="227.789963"/>
     <use style="stroke:#000000;" x="195.00876" xlink:href="#m620aa19e28" y="169.130286"/>
     <use style="stroke:#000000;" x="264.959753" xlink:href="#m620aa19e28" y="207.075728"/>
     <use style="stroke:#000000;" x="334.910746" xlink:href="#m620aa19e28" y="216.381441"/>
     <use style="stroke:#000000;" x="404.861739" xlink:href="#m620aa19e28" y="217.668101"/>
     <use style="stroke:#000000;" x="474.812732" xlink:href="#m620aa19e28" y="211.681768"/>
     <use style="stroke:#000000;" x="544.763725" xlink:href="#m620aa19e28" y="181.68354"/>
     <use style="stroke:#000000;" x="614.714717" xlink:href="#m620aa19e28" y="209.815411"/>
     <use style="stroke:#000000;" x="684.66571" xlink:href="#m620aa19e28" y="212.722679"/>
     <use style="stroke:#000000;" x="754.616703" xlink:href="#m620aa19e28" y="316.966239"/>
     <use style="stroke:#000000;" x="824.567696" xlink:href="#m620aa19e28" y="213.760296"/>
     <use style="stroke:#000000;" x="894.518689" xlink:href="#m620aa19e28" y="213.995831"/>
    </g>
   </g>
   <g id="line2d_28">
    <g clip-path="url(#p7b860aca99)">
     <use style="stroke:#000000;" x="125.057768" xlink:href="#m620aa19e28" y="205.819661"/>
     <use style="stroke:#000000;" x="195.00876" xlink:href="#m620aa19e28" y="98.11948"/>
     <use style="stroke:#000000;" x="264.959753" xlink:href="#m620aa19e28" y="195.722615"/>
     <use style="stroke:#000000;" x="334.910746" xlink:href="#m620aa19e28" y="207.596569"/>
     <use style="stroke:#000000;" x="404.861739" xlink:href="#m620aa19e28" y="202.052221"/>
     <use style="stroke:#000000;" x="474.812732" xlink:href="#m620aa19e28" y="198.246755"/>
     <use style="stroke:#000000;" x="544.763725" xlink:href="#m620aa19e28" y="113.318741"/>
     <use style="stroke:#000000;" x="614.714717" xlink:href="#m620aa19e28" y="163.392352"/>
     <use style="stroke:#000000;" x="684.66571" xlink:href="#m620aa19e28" y="175.655549"/>
     <use style="stroke:#000000;" x="754.616703" xlink:href="#m620aa19e28" y="130.962923"/>
     <use style="stroke:#000000;" x="824.567696" xlink:href="#m620aa19e28" y="187.727171"/>
     <use style="stroke:#000000;" x="894.518689" xlink:href="#m620aa19e28" y="169.879283"/>
    </g>
   </g>
   <g id="line2d_29">
    <g clip-path="url(#p7b860aca99)">
     <use style="stroke:#000000;" x="133.801642" xlink:href="#m620aa19e28" y="221.247098"/>
     <use style="stroke:#000000;" x="203.752635" xlink:href="#m620aa19e28" y="163.840831"/>
     <use style="stroke:#000000;" x="273.703627" xlink:href="#m620aa19e28" y="206.894073"/>
     <use style="stroke:#000000;" x="343.65462" xlink:href="#m620aa19e28" y="212.101926"/>
     <use style="stroke:#000000;" x="413.605613" xlink:href="#m620aa19e28" y="214.145022"/>
     <use style="stroke:#000000;" x="483.556606" xlink:href="#m620aa19e28" y="208.763961"/>
     <use style="stroke:#000000;" x="553.507599" xlink:href="#m620aa19e28" y="175.389323"/>
     <use style="stroke:#000000;" x="623.458592" xlink:href="#m620aa19e28" y="199.155319"/>
     <use style="stroke:#000000;" x="693.409584" xlink:href="#m620aa19e28" y="209.004826"/>
     <use style="stroke:#000000;" x="763.360577" xlink:href="#m620aa19e28" y="297.843873"/>
     <use style="stroke:#000000;" x="833.31157" xlink:href="#m620aa19e28" y="207.110626"/>
     <use style="stroke:#000000;" x="903.262563" xlink:href="#m620aa19e28" y="213.174925"/>
    </g>
   </g>
   <g id="line2d_30">
    <g clip-path="url(#p7b860aca99)">
     <use style="stroke:#000000;" x="133.801642" xlink:href="#m620aa19e28" y="199.703054"/>
     <use style="stroke:#000000;" x="203.752635" xlink:href="#m620aa19e28" y="92.66639"/>
     <use style="stroke:#000000;" x="273.703627" xlink:href="#m620aa19e28" y="195.73507"/>
     <use style="stroke:#000000;" x="343.65462" xlink:href="#m620aa19e28" y="203.637958"/>
     <use style="stroke:#000000;" x="413.605613" xlink:href="#m620aa19e28" y="198.85531"/>
     <use style="stroke:#000000;" x="483.556606" xlink:href="#m620aa19e28" y="195.842271"/>
     <use style="stroke:#000000;" x="553.507599" xlink:href="#m620aa19e28" y="104.372836"/>
     <use style="stroke:#000000;" x="623.458592" xlink:href="#m620aa19e28" y="156.515281"/>
     <use style="stroke:#000000;" x="693.409584" xlink:href="#m620aa19e28" y="173.675924"/>
     <use style="stroke:#000000;" x="763.360577" xlink:href="#m620aa19e28" y="116.123071"/>
     <use style="stroke:#000000;" x="833.31157" xlink:href="#m620aa19e28" y="182.79692"/>
     <use style="stroke:#000000;" x="903.262563" xlink:href="#m620aa19e28" y="170.660588"/>
    </g>
   </g>
   <g id="line2d_31">
    <g clip-path="url(#p7b860aca99)">
     <use style="stroke:#000000;" x="142.545516" xlink:href="#m620aa19e28" y="203.96515"/>
     <use style="stroke:#000000;" x="212.496509" xlink:href="#m620aa19e28" y="168.872119"/>
     <use style="stroke:#000000;" x="282.447501" xlink:href="#m620aa19e28" y="204.315413"/>
     <use style="stroke:#000000;" x="352.398494" xlink:href="#m620aa19e28" y="205.225834"/>
     <use style="stroke:#000000;" x="422.349487" xlink:href="#m620aa19e28" y="208.385867"/>
     <use style="stroke:#000000;" x="492.30048" xlink:href="#m620aa19e28" y="201.793186"/>
     <use style="stroke:#000000;" x="562.251473" xlink:href="#m620aa19e28" y="155.690206"/>
     <use style="stroke:#000000;" x="632.202466" xlink:href="#m620aa19e28" y="203.811274"/>
     <use style="stroke:#000000;" x="702.153458" xlink:href="#m620aa19e28" y="199.780895"/>
     <use style="stroke:#000000;" x="772.104451" xlink:href="#m620aa19e28" y="406.268182"/>
     <use style="stroke:#000000;" x="842.055444" xlink:href="#m620aa19e28" y="192.348394"/>
     <use style="stroke:#000000;" x="912.006437" xlink:href="#m620aa19e28" y="213.373892"/>
    </g>
   </g>
   <g id="line2d_32">
    <g clip-path="url(#p7b860aca99)">
     <use style="stroke:#000000;" x="142.545516" xlink:href="#m620aa19e28" y="186.681583"/>
     <use style="stroke:#000000;" x="212.496509" xlink:href="#m620aa19e28" y="106.501599"/>
     <use style="stroke:#000000;" x="282.447501" xlink:href="#m620aa19e28" y="196.634111"/>
     <use style="stroke:#000000;" x="352.398494" xlink:href="#m620aa19e28" y="196.660527"/>
     <use style="stroke:#000000;" x="422.349487" xlink:href="#m620aa19e28" y="192.944818"/>
     <use style="stroke:#000000;" x="492.30048" xlink:href="#m620aa19e28" y="188.065253"/>
     <use style="stroke:#000000;" x="562.251473" xlink:href="#m620aa19e28" y="83.412209"/>
     <use style="stroke:#000000;" x="632.202466" xlink:href="#m620aa19e28" y="166.527671"/>
     <use style="stroke:#000000;" x="702.153458" xlink:href="#m620aa19e28" y="163.721809"/>
     <use style="stroke:#000000;" x="772.104451" xlink:href="#m620aa19e28" y="244.428765"/>
     <use style="stroke:#000000;" x="842.055444" xlink:href="#m620aa19e28" y="166.327212"/>
     <use style="stroke:#000000;" x="912.006437" xlink:href="#m620aa19e28" y="174.164295"/>
    </g>
   </g>
   <g id="patch_75">
    <path d="M 53.358 424.492 
L 53.358 23.568 
" style="fill:none;stroke:#000000;stroke-linecap:square;stroke-linejoin:miter;"/>
   </g>
   <g id="patch_76">
    <path d="M 957.474582 424.492 
L 957.474582 23.568 
" style="fill:none;stroke:#000000;stroke-linecap:square;stroke-linejoin:miter;"/>
   </g>
   <g id="patch_77">
    <path d="M 53.358 424.492 
L 957.474582 424.492 
" style="fill:none;stroke:#000000;stroke-linecap:square;stroke-linejoin:miter;"/>
   </g>
   <g id="patch_78">
    <path d="M 53.358 23.568 
L 957.474582 23.568 
" style="fill:none;stroke:#000000;stroke-linecap:square;stroke-linejoin:miter;"/>
   </g>
   <g id="text_22">
    <!-- Ratio -->
    <g transform="translate(493.095291 17.568)scale(0.096 -0.096)">
     <use xlink:href="#DejaVuSans-82"/>
     <use x="67.232422" xlink:href="#DejaVuSans-97"/>
     <use x="128.511719" xlink:href="#DejaVuSans-116"/>
     <use x="167.720703" xlink:href="#DejaVuSans-105"/>
     <use x="195.503906" xlink:href="#DejaVuSans-111"/>
    </g>
   </g>
   <g id="legend_1">
    <g id="patch_79">
     <path d="M 974.435748 192.719875 
L 992.035748 192.719875 
L 992.035748 186.559875 
L 974.435748 186.559875 
z
" style="fill:#f28e2b;"/>
    </g>
    <g id="text_23">
     <!-- $r^2 (\alpha=1, \theta=0)$ -->
     <defs>
      <path d="M 44.578125 46.390625 
Q 43.21875 47.125 41.453125 47.515625 
Q 39.703125 47.90625 37.703125 47.90625 
Q 30.515625 47.90625 25.140625 42.453125 
Q 19.78125 37.015625 18.015625 27.875 
L 12.5 0 
L 3.515625 0 
L 14.203125 54.6875 
L 23.1875 54.6875 
L 21.484375 46.1875 
Q 25.046875 50.921875 30 53.453125 
Q 34.96875 56 40.578125 56 
Q 42.046875 56 43.453125 55.828125 
Q 44.875 55.671875 46.296875 55.28125 
z
" id="DejaVuSans-Oblique-114"/>
      <path d="M 31 75.875 
Q 24.46875 64.65625 21.28125 53.65625 
Q 18.109375 42.671875 18.109375 31.390625 
Q 18.109375 20.125 21.3125 9.0625 
Q 24.515625 -2 31 -13.1875 
L 23.1875 -13.1875 
Q 15.875 -1.703125 12.234375 9.375 
Q 8.59375 20.453125 8.59375 31.390625 
Q 8.59375 42.28125 12.203125 53.3125 
Q 15.828125 64.359375 23.1875 75.875 
z
" id="DejaVuSans-40"/>
      <path d="M 40.921875 25.4375 
L 40.96875 36.71875 
Q 41.015625 48.25 32.328125 48.296875 
Q 25.828125 48.34375 21.78125 42.921875 
Q 16.703125 36.234375 14.984375 27.296875 
Q 12.890625 16.546875 15.53125 11.421875 
Q 18.265625 6.203125 24.171875 6.203125 
Q 30.71875 6.203125 36.234375 16.609375 
z
M 33.84375 55.90625 
Q 49.078125 56.15625 48.875 40.375 
Q 48.875 40.375 56.5 54.6875 
L 64.5 54.6875 
L 48.734375 25.046875 
L 48.578125 14.359375 
Q 48.578125 11.96875 49.90625 9.96875 
Q 51.421875 7.625 52.984375 7.625 
L 57.328125 7.625 
L 55.859375 0 
L 50.4375 0 
Q 45.84375 0 42.53125 4.109375 
Q 40.96875 6.15625 40.921875 10.453125 
Q 37.75 5.21875 32.28125 0.78125 
Q 29.6875 -1.265625 22.703125 -1.21875 
Q 11.28125 -1.125 7.125 6.203125 
Q 2.875 13.8125 5.515625 27.296875 
Q 8.34375 41.796875 15.765625 48.390625 
Q 24.125 55.765625 33.84375 55.90625 
z
" id="DejaVuSans-Oblique-945"/>
      <path d="M 10.59375 45.40625 
L 73.1875 45.40625 
L 73.1875 37.203125 
L 10.59375 37.203125 
z
M 10.59375 25.484375 
L 73.1875 25.484375 
L 73.1875 17.1875 
L 10.59375 17.1875 
z
" id="DejaVuSans-61"/>
      <path d="M 11.71875 12.40625 
L 22.015625 12.40625 
L 22.015625 4 
L 14.015625 -11.625 
L 7.71875 -11.625 
L 11.71875 4 
z
" id="DejaVuSans-44"/>
      <path d="M 45.515625 34.671875 
L 14.453125 34.671875 
Q 12.359375 20.0625 14.5 13.875 
Q 17.1875 6.25 24.46875 6.25 
Q 31.78125 6.25 37.359375 13.921875 
Q 42.234375 20.65625 45.515625 34.671875 
z
M 47.015625 42.96875 
Q 48.34375 56.84375 46.625 61.71875 
Q 43.953125 69.4375 36.765625 69.4375 
Q 29.296875 69.4375 23.828125 61.8125 
Q 19.53125 55.671875 16.15625 42.96875 
z
M 38.1875 76.765625 
Q 49.90625 76.765625 54.59375 66.40625 
Q 59.28125 56.109375 55.71875 37.84375 
Q 52.203125 19.625 43.453125 9.28125 
Q 34.765625 -1.125 23.046875 -1.125 
Q 11.28125 -1.125 6.640625 9.28125 
Q 2 19.625 5.515625 37.84375 
Q 9.078125 56.109375 17.71875 66.40625 
Q 26.421875 76.765625 38.1875 76.765625 
z
" id="DejaVuSans-Oblique-952"/>
      <path d="M 8.015625 75.875 
L 15.828125 75.875 
Q 23.140625 64.359375 26.78125 53.3125 
Q 30.421875 42.28125 30.421875 31.390625 
Q 30.421875 20.453125 26.78125 9.375 
Q 23.140625 -1.703125 15.828125 -13.1875 
L 8.015625 -13.1875 
Q 14.5 -2 17.703125 9.0625 
Q 20.90625 20.125 20.90625 31.390625 
Q 20.90625 42.671875 17.703125 53.65625 
Q 14.5 64.65625 8.015625 75.875 
z
" id="DejaVuSans-41"/>
     </defs>
     <g transform="translate(999.075748 192.719875)scale(0.088 -0.088)">
      <use transform="translate(0 0.765625)" xlink:href="#DejaVuSans-Oblique-114"/>
      <use transform="translate(45.763177 39.046875)scale(0.7)" xlink:href="#DejaVuSans-50"/>
      <use transform="translate(93.033685 0.765625)" xlink:href="#DejaVuSans-40"/>
      <use transform="translate(132.047357 0.765625)" xlink:href="#DejaVuSans-Oblique-945"/>
      <use transform="translate(217.447747 0.765625)" xlink:href="#DejaVuSans-61"/>
      <use transform="translate(320.719232 0.765625)" xlink:href="#DejaVuSans-49"/>
      <use transform="translate(384.342279 0.765625)" xlink:href="#DejaVuSans-44"/>
      <use transform="translate(435.61181 0.765625)" xlink:href="#DejaVuSans-Oblique-952"/>
      <use transform="translate(516.275872 0.765625)" xlink:href="#DejaVuSans-61"/>
      <use transform="translate(619.547357 0.765625)" xlink:href="#DejaVuSans-48"/>
      <use transform="translate(683.170404 0.765625)" xlink:href="#DejaVuSans-41"/>
     </g>
    </g>
    <g id="patch_80">
     <path d="M 974.435748 206.359875 
L 992.035748 206.359875 
L 992.035748 200.199875 
L 974.435748 200.199875 
z
" style="fill:#76b7b2;"/>
    </g>
    <g id="text_24">
     <!-- $D^2 (\alpha=1, \theta=0)$ -->
     <defs>
      <path d="M 16.890625 72.90625 
L 38.09375 72.90625 
Q 54.984375 72.90625 63.59375 65.75 
Q 72.21875 58.59375 72.21875 44.484375 
Q 72.21875 35.15625 68.9375 26.53125 
Q 65.671875 17.921875 59.90625 12.015625 
Q 54.109375 5.953125 45.171875 2.96875 
Q 36.234375 0 24.03125 0 
L 2.6875 0 
z
M 25.203125 64.796875 
L 14.203125 8.109375 
L 27.09375 8.109375 
Q 43.65625 8.109375 52.734375 17.625 
Q 61.8125 27.15625 61.8125 44.484375 
Q 61.8125 54.984375 55.953125 59.890625 
Q 50.09375 64.796875 37.59375 64.796875 
z
" id="DejaVuSans-Oblique-68"/>
     </defs>
     <g transform="translate(999.075748 206.359875)scale(0.088 -0.088)">
      <use transform="translate(0 0.765625)" xlink:href="#DejaVuSans-Oblique-68"/>
      <use transform="translate(84.018724 39.046875)scale(0.7)" xlink:href="#DejaVuSans-50"/>
      <use transform="translate(131.289232 0.765625)" xlink:href="#DejaVuSans-40"/>
      <use transform="translate(170.302904 0.765625)" xlink:href="#DejaVuSans-Oblique-945"/>
      <use transform="translate(255.703294 0.765625)" xlink:href="#DejaVuSans-61"/>
      <use transform="translate(358.974779 0.765625)" xlink:href="#DejaVuSans-49"/>
      <use transform="translate(422.597826 0.765625)" xlink:href="#DejaVuSans-44"/>
      <use transform="translate(473.867357 0.765625)" xlink:href="#DejaVuSans-Oblique-952"/>
      <use transform="translate(554.531419 0.765625)" xlink:href="#DejaVuSans-61"/>
      <use transform="translate(657.802904 0.765625)" xlink:href="#DejaVuSans-48"/>
      <use transform="translate(721.425951 0.765625)" xlink:href="#DejaVuSans-41"/>
     </g>
    </g>
    <g id="patch_81">
     <path d="M 974.435748 219.999875 
L 992.035748 219.999875 
L 992.035748 213.839875 
L 974.435748 213.839875 
z
" style="fill:#e15759;"/>
    </g>
    <g id="text_25">
     <!-- $D^2 (\alpha=0, \theta=0)$ -->
     <g transform="translate(999.075748 219.999875)scale(0.088 -0.088)">
      <use transform="translate(0 0.765625)" xlink:href="#DejaVuSans-Oblique-68"/>
      <use transform="translate(84.018724 39.046875)scale(0.7)" xlink:href="#DejaVuSans-50"/>
      <use transform="translate(131.289232 0.765625)" xlink:href="#DejaVuSans-40"/>
      <use transform="translate(170.302904 0.765625)" xlink:href="#DejaVuSans-Oblique-945"/>
      <use transform="translate(255.703294 0.765625)" xlink:href="#DejaVuSans-61"/>
      <use transform="translate(358.974779 0.765625)" xlink:href="#DejaVuSans-48"/>
      <use transform="translate(422.597826 0.765625)" xlink:href="#DejaVuSans-44"/>
      <use transform="translate(473.867357 0.765625)" xlink:href="#DejaVuSans-Oblique-952"/>
      <use transform="translate(554.531419 0.765625)" xlink:href="#DejaVuSans-61"/>
      <use transform="translate(657.802904 0.765625)" xlink:href="#DejaVuSans-48"/>
      <use transform="translate(721.425951 0.765625)" xlink:href="#DejaVuSans-41"/>
     </g>
    </g>
    <g id="patch_82">
     <path d="M 974.435748 233.639875 
L 992.035748 233.639875 
L 992.035748 227.479875 
L 974.435748 227.479875 
z
" style="fill:url(#hd66e4ce114);stroke:#ffffff;stroke-linejoin:miter;stroke-width:0.8;"/>
    </g>
    <g id="text_26">
     <!-- $r^2 (\alpha=1, \theta=1)$ -->
     <g transform="translate(999.075748 233.639875)scale(0.088 -0.088)">
      <use transform="translate(0 0.765625)" xlink:href="#DejaVuSans-Oblique-114"/>
      <use transform="translate(45.763177 39.046875)scale(0.7)" xlink:href="#DejaVuSans-50"/>
      <use transform="translate(93.033685 0.765625)" xlink:href="#DejaVuSans-40"/>
      <use transform="translate(132.047357 0.765625)" xlink:href="#DejaVuSans-Oblique-945"/>
      <use transform="translate(217.447747 0.765625)" xlink:href="#DejaVuSans-61"/>
      <use transform="translate(320.719232 0.765625)" xlink:href="#DejaVuSans-49"/>
      <use transform="translate(384.342279 0.765625)" xlink:href="#DejaVuSans-44"/>
      <use transform="translate(435.61181 0.765625)" xlink:href="#DejaVuSans-Oblique-952"/>
      <use transform="translate(516.275872 0.765625)" xlink:href="#DejaVuSans-61"/>
      <use transform="translate(619.547357 0.765625)" xlink:href="#DejaVuSans-49"/>
      <use transform="translate(683.170404 0.765625)" xlink:href="#DejaVuSans-41"/>
     </g>
    </g>
    <g id="patch_83">
     <path d="M 974.435748 247.279875 
L 992.035748 247.279875 
L 992.035748 241.119875 
L 974.435748 241.119875 
z
" style="fill:url(#h88fac308d0);stroke:#ffffff;stroke-linejoin:miter;stroke-width:0.8;"/>
    </g>
    <g id="text_27">
     <!-- $D^2 (\alpha=1, \theta=1)$ -->
     <g transform="translate(999.075748 247.279875)scale(0.088 -0.088)">
      <use transform="translate(0 0.765625)" xlink:href="#DejaVuSans-Oblique-68"/>
      <use transform="translate(84.018724 39.046875)scale(0.7)" xlink:href="#DejaVuSans-50"/>
      <use transform="translate(131.289232 0.765625)" xlink:href="#DejaVuSans-40"/>
      <use transform="translate(170.302904 0.765625)" xlink:href="#DejaVuSans-Oblique-945"/>
      <use transform="translate(255.703294 0.765625)" xlink:href="#DejaVuSans-61"/>
      <use transform="translate(358.974779 0.765625)" xlink:href="#DejaVuSans-49"/>
      <use transform="translate(422.597826 0.765625)" xlink:href="#DejaVuSans-44"/>
      <use transform="translate(473.867357 0.765625)" xlink:href="#DejaVuSans-Oblique-952"/>
      <use transform="translate(554.531419 0.765625)" xlink:href="#DejaVuSans-61"/>
      <use transform="translate(657.802904 0.765625)" xlink:href="#DejaVuSans-49"/>
      <use transform="translate(721.425951 0.765625)" xlink:href="#DejaVuSans-41"/>
     </g>
    </g>
    <g id="patch_84">
     <path d="M 974.435748 260.919875 
L 992.035748 260.919875 
L 992.035748 254.759875 
L 974.435748 254.759875 
z
" style="fill:url(#h459796b7f4);stroke:#ffffff;stroke-linejoin:miter;stroke-width:0.8;"/>
    </g>
    <g id="text_28">
     <!-- $D^2 (\alpha=0, \theta=1)$ -->
     <g transform="translate(999.075748 260.919875)scale(0.088 -0.088)">
      <use transform="translate(0 0.765625)" xlink:href="#DejaVuSans-Oblique-68"/>
      <use transform="translate(84.018724 39.046875)scale(0.7)" xlink:href="#DejaVuSans-50"/>
      <use transform="translate(131.289232 0.765625)" xlink:href="#DejaVuSans-40"/>
      <use transform="translate(170.302904 0.765625)" xlink:href="#DejaVuSans-Oblique-945"/>
      <use transform="translate(255.703294 0.765625)" xlink:href="#DejaVuSans-61"/>
      <use transform="translate(358.974779 0.765625)" xlink:href="#DejaVuSans-48"/>
      <use transform="translate(422.597826 0.765625)" xlink:href="#DejaVuSans-44"/>
      <use transform="translate(473.867357 0.765625)" xlink:href="#DejaVuSans-Oblique-952"/>
      <use transform="translate(554.531419 0.765625)" xlink:href="#DejaVuSans-61"/>
      <use transform="translate(657.802904 0.765625)" xlink:href="#DejaVuSans-49"/>
      <use transform="translate(721.425951 0.765625)" xlink:href="#DejaVuSans-41"/>
     </g>
    </g>
   </g>
  </g>
 </g>
 <defs>
  <clipPath id="p7b860aca99">
   <rect height="400.924" width="904.116582" x="53.358" y="23.568"/>
  </clipPath>
 </defs>
 <defs>
  <pattern height="72" id="hd66e4ce114" patternUnits="userSpaceOnUse" width="72" x="0" y="0">
   <rect fill="#f28e2b" height="73" width="73" x="0" y="0"/>
   <path d="M -36 36 
L 36 -36 
M -33 39 
L 39 -33 
M -30 42 
L 42 -30 
M -27 45 
L 45 -27 
M -24 48 
L 48 -24 
M -21 51 
L 51 -21 
M -18 54 
L 54 -18 
M -15 57 
L 57 -15 
M -12 60 
L 60 -12 
M -9 63 
L 63 -9 
M -6 66 
L 66 -6 
M -3 69 
L 69 -3 
M 0 72 
L 72 0 
M 3 75 
L 75 3 
M 6 78 
L 78 6 
M 9 81 
L 81 9 
M 12 84 
L 84 12 
M 15 87 
L 87 15 
M 18 90 
L 90 18 
M 21 93 
L 93 21 
M 24 96 
L 96 24 
M 27 99 
L 99 27 
M 30 102 
L 102 30 
M 33 105 
L 105 33 
M 36 108 
L 108 36 
" style="fill:#ffffff;stroke:#ffffff;stroke-linecap:butt;stroke-linejoin:miter;stroke-width:2.0;"/>
  </pattern>
  <pattern height="72" id="h88fac308d0" patternUnits="userSpaceOnUse" width="72" x="0" y="0">
   <rect fill="#76b7b2" height="73" width="73" x="0" y="0"/>
   <path d="M -36 36 
L 36 -36 
M -33 39 
L 39 -33 
M -30 42 
L 42 -30 
M -27 45 
L 45 -27 
M -24 48 
L 48 -24 
M -21 51 
L 51 -21 
M -18 54 
L 54 -18 
M -15 57 
L 57 -15 
M -12 60 
L 60 -12 
M -9 63 
L 63 -9 
M -6 66 
L 66 -6 
M -3 69 
L 69 -3 
M 0 72 
L 72 0 
M 3 75 
L 75 3 
M 6 78 
L 78 6 
M 9 81 
L 81 9 
M 12 84 
L 84 12 
M 15 87 
L 87 15 
M 18 90 
L 90 18 
M 21 93 
L 93 21 
M 24 96 
L 96 24 
M 27 99 
L 99 27 
M 30 102 
L 102 30 
M 33 105 
L 105 33 
M 36 108 
L 108 36 
" style="fill:#ffffff;stroke:#ffffff;stroke-linecap:butt;stroke-linejoin:miter;stroke-width:2.0;"/>
  </pattern>
  <pattern height="72" id="h459796b7f4" patternUnits="userSpaceOnUse" width="72" x="0" y="0">
   <rect fill="#e15759" height="73" width="73" x="0" y="0"/>
   <path d="M -36 36 
L 36 -36 
M -33 39 
L 39 -33 
M -30 42 
L 42 -30 
M -27 45 
L 45 -27 
M -24 48 
L 48 -24 
M -21 51 
L 51 -21 
M -18 54 
L 54 -18 
M -15 57 
L 57 -15 
M -12 60 
L 60 -12 
M -9 63 
L 63 -9 
M -6 66 
L 66 -6 
M -3 69 
L 69 -3 
M 0 72 
L 72 0 
M 3 75 
L 75 3 
M 6 78 
L 78 6 
M 9 81 
L 81 9 
M 12 84 
L 84 12 
M 15 87 
L 87 15 
M 18 90 
L 90 18 
M 21 93 
L 93 21 
M 24 96 
L 96 24 
M 27 99 
L 99 27 
M 30 102 
L 102 30 
M 33 105 
L 105 33 
M 36 108 
L 108 36 
" style="fill:#ffffff;stroke:#ffffff;stroke-linecap:butt;stroke-linejoin:miter;stroke-width:2.0;"/>
  </pattern>
 </defs>
</svg>
