<?xml version="1.0" encoding="utf-8" standalone="no"?>
<!DOCTYPE svg PUBLIC "-//W3C//DTD SVG 1.1//EN"
  "http://www.w3.org/Graphics/SVG/1.1/DTD/svg11.dtd">
<!-- Created with matplotlib (https://matplotlib.org/) -->
<svg height="576pt" version="1.1" viewBox="0 0 1080 576" width="1080pt" xmlns="http://www.w3.org/2000/svg" xmlns:xlink="http://www.w3.org/1999/xlink">
 <defs>
  <style type="text/css">
*{stroke-linecap:butt;stroke-linejoin:round;}
  </style>
 </defs>
 <g id="figure_1">
  <g id="patch_1">
   <path d="M 0 576 
L 1080 576 
L 1080 0 
L 0 0 
z
" style="fill:#ffffff;"/>
  </g>
  <g id="axes_1">
   <g id="patch_2">
    <path d="M 56.148 424.492 
L 957.474582 424.492 
L 957.474582 23.568 
L 56.148 23.568 
z
" style="fill:#ffffff;"/>
   </g>
   <g id="patch_3">
    <path clip-path="url(#p5845cab2b3)" d="M 97.11739 193.866303 
L 108.658063 193.866303 
L 108.658063 206.303713 
L 97.11739 206.303713 
z
" style="fill:#f28e2b;"/>
   </g>
   <g id="patch_4">
    <path clip-path="url(#p5845cab2b3)" d="M 166.36143 193.866303 
L 177.902103 193.866303 
L 177.902103 194.75924 
L 166.36143 194.75924 
z
" style="fill:#f28e2b;"/>
   </g>
   <g id="patch_5">
    <path clip-path="url(#p5845cab2b3)" d="M 235.605469 193.866303 
L 247.146143 193.866303 
L 247.146143 179.379146 
L 235.605469 179.379146 
z
" style="fill:#f28e2b;"/>
   </g>
   <g id="patch_6">
    <path clip-path="url(#p5845cab2b3)" d="M 304.849509 193.866303 
L 316.390182 193.866303 
L 316.390182 187.416002 
L 304.849509 187.416002 
z
" style="fill:#f28e2b;"/>
   </g>
   <g id="patch_7">
    <path clip-path="url(#p5845cab2b3)" d="M 374.093549 193.866303 
L 385.634222 193.866303 
L 385.634222 158.805004 
L 374.093549 158.805004 
z
" style="fill:#f28e2b;"/>
   </g>
   <g id="patch_8">
    <path clip-path="url(#p5845cab2b3)" d="M 443.337588 193.866303 
L 454.878261 193.866303 
L 454.878261 168.306242 
L 443.337588 168.306242 
z
" style="fill:#f28e2b;"/>
   </g>
   <g id="patch_9">
    <path clip-path="url(#p5845cab2b3)" d="M 512.581628 193.866303 
L 524.122301 193.866303 
L 524.122301 175.056962 
L 512.581628 175.056962 
z
" style="fill:#f28e2b;"/>
   </g>
   <g id="patch_10">
    <path clip-path="url(#p5845cab2b3)" d="M 581.825667 193.866303 
L 593.366341 193.866303 
L 593.366341 172.406019 
L 581.825667 172.406019 
z
" style="fill:#f28e2b;"/>
   </g>
   <g id="patch_11">
    <path clip-path="url(#p5845cab2b3)" d="M 651.069707 193.866303 
L 662.61038 193.866303 
L 662.61038 159.27057 
L 651.069707 159.27057 
z
" style="fill:#f28e2b;"/>
   </g>
   <g id="patch_12">
    <path clip-path="url(#p5845cab2b3)" d="M 720.313747 193.866303 
L 731.85442 193.866303 
L 731.85442 128.679777 
L 720.313747 128.679777 
z
" style="fill:#f28e2b;"/>
   </g>
   <g id="patch_13">
    <path clip-path="url(#p5845cab2b3)" d="M 789.557786 193.866303 
L 801.098459 193.866303 
L 801.098459 162.023974 
L 789.557786 162.023974 
z
" style="fill:#f28e2b;"/>
   </g>
   <g id="patch_14">
    <path clip-path="url(#p5845cab2b3)" d="M 858.801826 193.866303 
L 870.342499 193.866303 
L 870.342499 156.665994 
L 858.801826 156.665994 
z
" style="fill:#f28e2b;"/>
   </g>
   <g id="patch_15">
    <path clip-path="url(#p5845cab2b3)" d="M 108.658063 193.866303 
L 120.198737 193.866303 
L 120.198737 203.759587 
L 108.658063 203.759587 
z
" style="fill:#76b7b2;"/>
   </g>
   <g id="patch_16">
    <path clip-path="url(#p5845cab2b3)" d="M 177.902103 193.866303 
L 189.442776 193.866303 
L 189.442776 195.791133 
L 177.902103 195.791133 
z
" style="fill:#76b7b2;"/>
   </g>
   <g id="patch_17">
    <path clip-path="url(#p5845cab2b3)" d="M 247.146143 193.866303 
L 258.686816 193.866303 
L 258.686816 182.068819 
L 247.146143 182.068819 
z
" style="fill:#76b7b2;"/>
   </g>
   <g id="patch_18">
    <path clip-path="url(#p5845cab2b3)" d="M 316.390182 193.866303 
L 327.930855 193.866303 
L 327.930855 188.763525 
L 316.390182 188.763525 
z
" style="fill:#76b7b2;"/>
   </g>
   <g id="patch_19">
    <path clip-path="url(#p5845cab2b3)" d="M 385.634222 193.866303 
L 397.174895 193.866303 
L 397.174895 161.852805 
L 385.634222 161.852805 
z
" style="fill:#76b7b2;"/>
   </g>
   <g id="patch_20">
    <path clip-path="url(#p5845cab2b3)" d="M 454.878261 193.866303 
L 466.418935 193.866303 
L 466.418935 171.540813 
L 454.878261 171.540813 
z
" style="fill:#76b7b2;"/>
   </g>
   <g id="patch_21">
    <path clip-path="url(#p5845cab2b3)" d="M 524.122301 193.866303 
L 535.662974 193.866303 
L 535.662974 175.950851 
L 524.122301 175.950851 
z
" style="fill:#76b7b2;"/>
   </g>
   <g id="patch_22">
    <path clip-path="url(#p5845cab2b3)" d="M 593.366341 193.866303 
L 604.907014 193.866303 
L 604.907014 173.150853 
L 593.366341 173.150853 
z
" style="fill:#76b7b2;"/>
   </g>
   <g id="patch_23">
    <path clip-path="url(#p5845cab2b3)" d="M 662.61038 193.866303 
L 674.151053 193.866303 
L 674.151053 164.329894 
L 662.61038 164.329894 
z
" style="fill:#76b7b2;"/>
   </g>
   <g id="patch_24">
    <path clip-path="url(#p5845cab2b3)" d="M 731.85442 193.866303 
L 743.395093 193.866303 
L 743.395093 121.888766 
L 731.85442 121.888766 
z
" style="fill:#76b7b2;"/>
   </g>
   <g id="patch_25">
    <path clip-path="url(#p5845cab2b3)" d="M 801.098459 193.866303 
L 812.639133 193.866303 
L 812.639133 163.128601 
L 801.098459 163.128601 
z
" style="fill:#76b7b2;"/>
   </g>
   <g id="patch_26">
    <path clip-path="url(#p5845cab2b3)" d="M 870.342499 193.866303 
L 881.883172 193.866303 
L 881.883172 163.613859 
L 870.342499 163.613859 
z
" style="fill:#76b7b2;"/>
   </g>
   <g id="patch_27">
    <path clip-path="url(#p5845cab2b3)" d="M 120.198737 193.866303 
L 131.73941 193.866303 
L 131.73941 164.953278 
L 120.198737 164.953278 
z
" style="fill:#e15759;"/>
   </g>
   <g id="patch_28">
    <path clip-path="url(#p5845cab2b3)" d="M 189.442776 193.866303 
L 200.98345 193.866303 
L 200.98345 193.368795 
L 189.442776 193.368795 
z
" style="fill:#e15759;"/>
   </g>
   <g id="patch_29">
    <path clip-path="url(#p5845cab2b3)" d="M 258.686816 193.866303 
L 270.227489 193.866303 
L 270.227489 175.1111 
L 258.686816 175.1111 
z
" style="fill:#e15759;"/>
   </g>
   <g id="patch_30">
    <path clip-path="url(#p5845cab2b3)" d="M 327.930855 193.866303 
L 339.471529 193.866303 
L 339.471529 170.122116 
L 327.930855 170.122116 
z
" style="fill:#e15759;"/>
   </g>
   <g id="patch_31">
    <path clip-path="url(#p5845cab2b3)" d="M 397.174895 193.866303 
L 408.715568 193.866303 
L 408.715568 150.552314 
L 397.174895 150.552314 
z
" style="fill:#e15759;"/>
   </g>
   <g id="patch_32">
    <path clip-path="url(#p5845cab2b3)" d="M 466.418935 193.866303 
L 477.959608 193.866303 
L 477.959608 162.716436 
L 466.418935 162.716436 
z
" style="fill:#e15759;"/>
   </g>
   <g id="patch_33">
    <path clip-path="url(#p5845cab2b3)" d="M 535.662974 193.866303 
L 547.203648 193.866303 
L 547.203648 181.4182 
L 535.662974 181.4182 
z
" style="fill:#e15759;"/>
   </g>
   <g id="patch_34">
    <path clip-path="url(#p5845cab2b3)" d="M 604.907014 193.866303 
L 616.447687 193.866303 
L 616.447687 179.597474 
L 604.907014 179.597474 
z
" style="fill:#e15759;"/>
   </g>
   <g id="patch_35">
    <path clip-path="url(#p5845cab2b3)" d="M 674.151053 193.866303 
L 685.691727 193.866303 
L 685.691727 162.548632 
L 674.151053 162.548632 
z
" style="fill:#e15759;"/>
   </g>
   <g id="patch_36">
    <path clip-path="url(#p5845cab2b3)" d="M 743.395093 193.866303 
L 754.935766 193.866303 
L 754.935766 258.649614 
L 743.395093 258.649614 
z
" style="fill:#e15759;"/>
   </g>
   <g id="patch_37">
    <path clip-path="url(#p5845cab2b3)" d="M 812.639133 193.866303 
L 824.179806 193.866303 
L 824.179806 150.704114 
L 812.639133 150.704114 
z
" style="fill:#e15759;"/>
   </g>
   <g id="patch_38">
    <path clip-path="url(#p5845cab2b3)" d="M 881.883172 193.866303 
L 893.423846 193.866303 
L 893.423846 169.51166 
L 881.883172 169.51166 
z
" style="fill:#e15759;"/>
   </g>
   <g id="patch_39">
    <path clip-path="url(#p5845cab2b3)" d="M 131.73941 193.866303 
L 143.280083 193.866303 
L 143.280083 201.307334 
L 131.73941 201.307334 
z
" style="fill:url(#h7ea8a51115);stroke:#ffffff;stroke-linejoin:miter;stroke-width:0.8;"/>
   </g>
   <g id="patch_40">
    <path clip-path="url(#p5845cab2b3)" d="M 200.98345 193.866303 
L 212.524123 193.866303 
L 212.524123 195.710033 
L 200.98345 195.710033 
z
" style="fill:url(#h7ea8a51115);stroke:#ffffff;stroke-linejoin:miter;stroke-width:0.8;"/>
   </g>
   <g id="patch_41">
    <path clip-path="url(#p5845cab2b3)" d="M 270.227489 193.866303 
L 281.768162 193.866303 
L 281.768162 193.944603 
L 270.227489 193.944603 
z
" style="fill:url(#h7ea8a51115);stroke:#ffffff;stroke-linejoin:miter;stroke-width:0.8;"/>
   </g>
   <g id="patch_42">
    <path clip-path="url(#p5845cab2b3)" d="M 339.471529 193.866303 
L 351.012202 193.866303 
L 351.012202 198.36307 
L 339.471529 198.36307 
z
" style="fill:url(#h7ea8a51115);stroke:#ffffff;stroke-linejoin:miter;stroke-width:0.8;"/>
   </g>
   <g id="patch_43">
    <path clip-path="url(#p5845cab2b3)" d="M 408.715568 193.866303 
L 420.256242 193.866303 
L 420.256242 197.401772 
L 408.715568 197.401772 
z
" style="fill:url(#h7ea8a51115);stroke:#ffffff;stroke-linejoin:miter;stroke-width:0.8;"/>
   </g>
   <g id="patch_44">
    <path clip-path="url(#p5845cab2b3)" d="M 477.959608 193.866303 
L 489.500281 193.866303 
L 489.500281 196.38715 
L 477.959608 196.38715 
z
" style="fill:url(#h7ea8a51115);stroke:#ffffff;stroke-linejoin:miter;stroke-width:0.8;"/>
   </g>
   <g id="patch_45">
    <path clip-path="url(#p5845cab2b3)" d="M 547.203648 193.866303 
L 558.744321 193.866303 
L 558.744321 196.772973 
L 547.203648 196.772973 
z
" style="fill:url(#h7ea8a51115);stroke:#ffffff;stroke-linejoin:miter;stroke-width:0.8;"/>
   </g>
   <g id="patch_46">
    <path clip-path="url(#p5845cab2b3)" d="M 616.447687 193.866303 
L 627.98836 193.866303 
L 627.98836 199.118661 
L 616.447687 199.118661 
z
" style="fill:url(#h7ea8a51115);stroke:#ffffff;stroke-linejoin:miter;stroke-width:0.8;"/>
   </g>
   <g id="patch_47">
    <path clip-path="url(#p5845cab2b3)" d="M 685.691727 193.866303 
L 697.2324 193.866303 
L 697.2324 196.007138 
L 685.691727 196.007138 
z
" style="fill:url(#h7ea8a51115);stroke:#ffffff;stroke-linejoin:miter;stroke-width:0.8;"/>
   </g>
   <g id="patch_48">
    <path clip-path="url(#p5845cab2b3)" d="M 754.935766 193.866303 
L 766.47644 193.866303 
L 766.47644 211.96513 
L 754.935766 211.96513 
z
" style="fill:url(#h7ea8a51115);stroke:#ffffff;stroke-linejoin:miter;stroke-width:0.8;"/>
   </g>
   <g id="patch_49">
    <path clip-path="url(#p5845cab2b3)" d="M 824.179806 193.866303 
L 835.720479 193.866303 
L 835.720479 198.535546 
L 824.179806 198.535546 
z
" style="fill:url(#h7ea8a51115);stroke:#ffffff;stroke-linejoin:miter;stroke-width:0.8;"/>
   </g>
   <g id="patch_50">
    <path clip-path="url(#p5845cab2b3)" d="M 893.423846 193.866303 
L 904.964519 193.866303 
L 904.964519 193.881347 
L 893.423846 193.881347 
z
" style="fill:url(#h7ea8a51115);stroke:#ffffff;stroke-linejoin:miter;stroke-width:0.8;"/>
   </g>
   <g id="patch_51">
    <path clip-path="url(#p5845cab2b3)" d="M 143.280083 193.866303 
L 154.820756 193.866303 
L 154.820756 176.054448 
L 143.280083 176.054448 
z
" style="fill:url(#h29bbd8fc52);stroke:#ffffff;stroke-linejoin:miter;stroke-width:0.8;"/>
   </g>
   <g id="patch_52">
    <path clip-path="url(#p5845cab2b3)" d="M 212.524123 193.866303 
L 224.064796 193.866303 
L 224.064796 197.104336 
L 212.524123 197.104336 
z
" style="fill:url(#h29bbd8fc52);stroke:#ffffff;stroke-linejoin:miter;stroke-width:0.8;"/>
   </g>
   <g id="patch_53">
    <path clip-path="url(#p5845cab2b3)" d="M 281.768162 193.866303 
L 293.308836 193.866303 
L 293.308836 193.089029 
L 281.768162 193.089029 
z
" style="fill:url(#h29bbd8fc52);stroke:#ffffff;stroke-linejoin:miter;stroke-width:0.8;"/>
   </g>
   <g id="patch_54">
    <path clip-path="url(#p5845cab2b3)" d="M 351.012202 193.866303 
L 362.552875 193.866303 
L 362.552875 186.304383 
L 351.012202 186.304383 
z
" style="fill:url(#h29bbd8fc52);stroke:#ffffff;stroke-linejoin:miter;stroke-width:0.8;"/>
   </g>
   <g id="patch_55">
    <path clip-path="url(#p5845cab2b3)" d="M 420.256242 193.866303 
L 431.796915 193.866303 
L 431.796915 187.726761 
L 420.256242 187.726761 
z
" style="fill:url(#h29bbd8fc52);stroke:#ffffff;stroke-linejoin:miter;stroke-width:0.8;"/>
   </g>
   <g id="patch_56">
    <path clip-path="url(#p5845cab2b3)" d="M 489.500281 193.866303 
L 501.040954 193.866303 
L 501.040954 186.881166 
L 489.500281 186.881166 
z
" style="fill:url(#h29bbd8fc52);stroke:#ffffff;stroke-linejoin:miter;stroke-width:0.8;"/>
   </g>
   <g id="patch_57">
    <path clip-path="url(#p5845cab2b3)" d="M 558.744321 193.866303 
L 570.284994 193.866303 
L 570.284994 186.111479 
L 558.744321 186.111479 
z
" style="fill:url(#h29bbd8fc52);stroke:#ffffff;stroke-linejoin:miter;stroke-width:0.8;"/>
   </g>
   <g id="patch_58">
    <path clip-path="url(#p5845cab2b3)" d="M 627.98836 193.866303 
L 639.529034 193.866303 
L 639.529034 198.259454 
L 627.98836 198.259454 
z
" style="fill:url(#h29bbd8fc52);stroke:#ffffff;stroke-linejoin:miter;stroke-width:0.8;"/>
   </g>
   <g id="patch_59">
    <path clip-path="url(#p5845cab2b3)" d="M 697.2324 193.866303 
L 708.773073 193.866303 
L 708.773073 186.660126 
L 697.2324 186.660126 
z
" style="fill:url(#h29bbd8fc52);stroke:#ffffff;stroke-linejoin:miter;stroke-width:0.8;"/>
   </g>
   <g id="patch_60">
    <path clip-path="url(#p5845cab2b3)" d="M 766.47644 193.866303 
L 778.017113 193.866303 
L 778.017113 320.022237 
L 766.47644 320.022237 
z
" style="fill:url(#h29bbd8fc52);stroke:#ffffff;stroke-linejoin:miter;stroke-width:0.8;"/>
   </g>
   <g id="patch_61">
    <path clip-path="url(#p5845cab2b3)" d="M 835.720479 193.866303 
L 847.261153 193.866303 
L 847.261153 181.272995 
L 835.720479 181.272995 
z
" style="fill:url(#h29bbd8fc52);stroke:#ffffff;stroke-linejoin:miter;stroke-width:0.8;"/>
   </g>
   <g id="patch_62">
    <path clip-path="url(#p5845cab2b3)" d="M 904.964519 193.866303 
L 916.505192 193.866303 
L 916.505192 195.272899 
L 904.964519 195.272899 
z
" style="fill:url(#h29bbd8fc52);stroke:#ffffff;stroke-linejoin:miter;stroke-width:0.8;"/>
   </g>
   <g id="matplotlib.axis_1">
    <g id="xtick_1">
     <g id="line2d_1">
      <defs>
       <path d="M 0 0 
L 0 4.8 
" id="ma17c2117bb" style="stroke:#000000;"/>
      </defs>
      <g>
       <use style="stroke:#000000;" x="125.969073" xlink:href="#ma17c2117bb" y="424.492"/>
      </g>
     </g>
     <g id="text_1">
      <!-- Age at Menarche -->
      <defs>
       <path d="M 34.1875 63.1875 
L 20.796875 26.90625 
L 47.609375 26.90625 
z
M 28.609375 72.90625 
L 39.796875 72.90625 
L 67.578125 0 
L 57.328125 0 
L 50.6875 18.703125 
L 17.828125 18.703125 
L 11.1875 0 
L 0.78125 0 
z
" id="DejaVuSans-65"/>
       <path d="M 45.40625 27.984375 
Q 45.40625 37.75 41.375 43.109375 
Q 37.359375 48.484375 30.078125 48.484375 
Q 22.859375 48.484375 18.828125 43.109375 
Q 14.796875 37.75 14.796875 27.984375 
Q 14.796875 18.265625 18.828125 12.890625 
Q 22.859375 7.515625 30.078125 7.515625 
Q 37.359375 7.515625 41.375 12.890625 
Q 45.40625 18.265625 45.40625 27.984375 
z
M 54.390625 6.78125 
Q 54.390625 -7.171875 48.1875 -13.984375 
Q 42 -20.796875 29.203125 -20.796875 
Q 24.46875 -20.796875 20.265625 -20.09375 
Q 16.0625 -19.390625 12.109375 -17.921875 
L 12.109375 -9.1875 
Q 16.0625 -11.328125 19.921875 -12.34375 
Q 23.78125 -13.375 27.78125 -13.375 
Q 36.625 -13.375 41.015625 -8.765625 
Q 45.40625 -4.15625 45.40625 5.171875 
L 45.40625 9.625 
Q 42.625 4.78125 38.28125 2.390625 
Q 33.9375 0 27.875 0 
Q 17.828125 0 11.671875 7.65625 
Q 5.515625 15.328125 5.515625 27.984375 
Q 5.515625 40.671875 11.671875 48.328125 
Q 17.828125 56 27.875 56 
Q 33.9375 56 38.28125 53.609375 
Q 42.625 51.21875 45.40625 46.390625 
L 45.40625 54.6875 
L 54.390625 54.6875 
z
" id="DejaVuSans-103"/>
       <path d="M 56.203125 29.59375 
L 56.203125 25.203125 
L 14.890625 25.203125 
Q 15.484375 15.921875 20.484375 11.0625 
Q 25.484375 6.203125 34.421875 6.203125 
Q 39.59375 6.203125 44.453125 7.46875 
Q 49.3125 8.734375 54.109375 11.28125 
L 54.109375 2.78125 
Q 49.265625 0.734375 44.1875 -0.34375 
Q 39.109375 -1.421875 33.890625 -1.421875 
Q 20.796875 -1.421875 13.15625 6.1875 
Q 5.515625 13.8125 5.515625 26.8125 
Q 5.515625 40.234375 12.765625 48.109375 
Q 20.015625 56 32.328125 56 
Q 43.359375 56 49.78125 48.890625 
Q 56.203125 41.796875 56.203125 29.59375 
z
M 47.21875 32.234375 
Q 47.125 39.59375 43.09375 43.984375 
Q 39.0625 48.390625 32.421875 48.390625 
Q 24.90625 48.390625 20.390625 44.140625 
Q 15.875 39.890625 15.1875 32.171875 
z
" id="DejaVuSans-101"/>
       <path id="DejaVuSans-32"/>
       <path d="M 34.28125 27.484375 
Q 23.390625 27.484375 19.1875 25 
Q 14.984375 22.515625 14.984375 16.5 
Q 14.984375 11.71875 18.140625 8.90625 
Q 21.296875 6.109375 26.703125 6.109375 
Q 34.1875 6.109375 38.703125 11.40625 
Q 43.21875 16.703125 43.21875 25.484375 
L 43.21875 27.484375 
z
M 52.203125 31.203125 
L 52.203125 0 
L 43.21875 0 
L 43.21875 8.296875 
Q 40.140625 3.328125 35.546875 0.953125 
Q 30.953125 -1.421875 24.3125 -1.421875 
Q 15.921875 -1.421875 10.953125 3.296875 
Q 6 8.015625 6 15.921875 
Q 6 25.140625 12.171875 29.828125 
Q 18.359375 34.515625 30.609375 34.515625 
L 43.21875 34.515625 
L 43.21875 35.40625 
Q 43.21875 41.609375 39.140625 45 
Q 35.0625 48.390625 27.6875 48.390625 
Q 23 48.390625 18.546875 47.265625 
Q 14.109375 46.140625 10.015625 43.890625 
L 10.015625 52.203125 
Q 14.9375 54.109375 19.578125 55.046875 
Q 24.21875 56 28.609375 56 
Q 40.484375 56 46.34375 49.84375 
Q 52.203125 43.703125 52.203125 31.203125 
z
" id="DejaVuSans-97"/>
       <path d="M 18.3125 70.21875 
L 18.3125 54.6875 
L 36.8125 54.6875 
L 36.8125 47.703125 
L 18.3125 47.703125 
L 18.3125 18.015625 
Q 18.3125 11.328125 20.140625 9.421875 
Q 21.96875 7.515625 27.59375 7.515625 
L 36.8125 7.515625 
L 36.8125 0 
L 27.59375 0 
Q 17.1875 0 13.234375 3.875 
Q 9.28125 7.765625 9.28125 18.015625 
L 9.28125 47.703125 
L 2.6875 47.703125 
L 2.6875 54.6875 
L 9.28125 54.6875 
L 9.28125 70.21875 
z
" id="DejaVuSans-116"/>
       <path d="M 9.8125 72.90625 
L 24.515625 72.90625 
L 43.109375 23.296875 
L 61.8125 72.90625 
L 76.515625 72.90625 
L 76.515625 0 
L 66.890625 0 
L 66.890625 64.015625 
L 48.09375 14.015625 
L 38.1875 14.015625 
L 19.390625 64.015625 
L 19.390625 0 
L 9.8125 0 
z
" id="DejaVuSans-77"/>
       <path d="M 54.890625 33.015625 
L 54.890625 0 
L 45.90625 0 
L 45.90625 32.71875 
Q 45.90625 40.484375 42.875 44.328125 
Q 39.84375 48.1875 33.796875 48.1875 
Q 26.515625 48.1875 22.3125 43.546875 
Q 18.109375 38.921875 18.109375 30.90625 
L 18.109375 0 
L 9.078125 0 
L 9.078125 54.6875 
L 18.109375 54.6875 
L 18.109375 46.1875 
Q 21.34375 51.125 25.703125 53.5625 
Q 30.078125 56 35.796875 56 
Q 45.21875 56 50.046875 50.171875 
Q 54.890625 44.34375 54.890625 33.015625 
z
" id="DejaVuSans-110"/>
       <path d="M 41.109375 46.296875 
Q 39.59375 47.171875 37.8125 47.578125 
Q 36.03125 48 33.890625 48 
Q 26.265625 48 22.1875 43.046875 
Q 18.109375 38.09375 18.109375 28.8125 
L 18.109375 0 
L 9.078125 0 
L 9.078125 54.6875 
L 18.109375 54.6875 
L 18.109375 46.1875 
Q 20.953125 51.171875 25.484375 53.578125 
Q 30.03125 56 36.53125 56 
Q 37.453125 56 38.578125 55.875 
Q 39.703125 55.765625 41.0625 55.515625 
z
" id="DejaVuSans-114"/>
       <path d="M 48.78125 52.59375 
L 48.78125 44.1875 
Q 44.96875 46.296875 41.140625 47.34375 
Q 37.3125 48.390625 33.40625 48.390625 
Q 24.65625 48.390625 19.8125 42.84375 
Q 14.984375 37.3125 14.984375 27.296875 
Q 14.984375 17.28125 19.8125 11.734375 
Q 24.65625 6.203125 33.40625 6.203125 
Q 37.3125 6.203125 41.140625 7.25 
Q 44.96875 8.296875 48.78125 10.40625 
L 48.78125 2.09375 
Q 45.015625 0.34375 40.984375 -0.53125 
Q 36.96875 -1.421875 32.421875 -1.421875 
Q 20.0625 -1.421875 12.78125 6.34375 
Q 5.515625 14.109375 5.515625 27.296875 
Q 5.515625 40.671875 12.859375 48.328125 
Q 20.21875 56 33.015625 56 
Q 37.15625 56 41.109375 55.140625 
Q 45.0625 54.296875 48.78125 52.59375 
z
" id="DejaVuSans-99"/>
       <path d="M 54.890625 33.015625 
L 54.890625 0 
L 45.90625 0 
L 45.90625 32.71875 
Q 45.90625 40.484375 42.875 44.328125 
Q 39.84375 48.1875 33.796875 48.1875 
Q 26.515625 48.1875 22.3125 43.546875 
Q 18.109375 38.921875 18.109375 30.90625 
L 18.109375 0 
L 9.078125 0 
L 9.078125 75.984375 
L 18.109375 75.984375 
L 18.109375 46.1875 
Q 21.34375 51.125 25.703125 53.5625 
Q 30.078125 56 35.796875 56 
Q 45.21875 56 50.046875 50.171875 
Q 54.890625 44.34375 54.890625 33.015625 
z
" id="DejaVuSans-104"/>
      </defs>
      <g transform="translate(128.397323 507.4765)rotate(-90)scale(0.088 -0.088)">
       <use xlink:href="#DejaVuSans-65"/>
       <use x="68.408203" xlink:href="#DejaVuSans-103"/>
       <use x="131.884766" xlink:href="#DejaVuSans-101"/>
       <use x="193.408203" xlink:href="#DejaVuSans-32"/>
       <use x="225.195312" xlink:href="#DejaVuSans-97"/>
       <use x="286.474609" xlink:href="#DejaVuSans-116"/>
       <use x="325.683594" xlink:href="#DejaVuSans-32"/>
       <use x="357.470703" xlink:href="#DejaVuSans-77"/>
       <use x="443.75" xlink:href="#DejaVuSans-101"/>
       <use x="505.273438" xlink:href="#DejaVuSans-110"/>
       <use x="568.652344" xlink:href="#DejaVuSans-97"/>
       <use x="629.931641" xlink:href="#DejaVuSans-114"/>
       <use x="668.794922" xlink:href="#DejaVuSans-99"/>
       <use x="723.775391" xlink:href="#DejaVuSans-104"/>
       <use x="787.154297" xlink:href="#DejaVuSans-101"/>
      </g>
     </g>
    </g>
    <g id="xtick_2">
     <g id="line2d_2">
      <g>
       <use style="stroke:#000000;" x="195.213113" xlink:href="#ma17c2117bb" y="424.492"/>
      </g>
     </g>
     <g id="text_2">
      <!-- Age at Menopause -->
      <defs>
       <path d="M 30.609375 48.390625 
Q 23.390625 48.390625 19.1875 42.75 
Q 14.984375 37.109375 14.984375 27.296875 
Q 14.984375 17.484375 19.15625 11.84375 
Q 23.34375 6.203125 30.609375 6.203125 
Q 37.796875 6.203125 41.984375 11.859375 
Q 46.1875 17.53125 46.1875 27.296875 
Q 46.1875 37.015625 41.984375 42.703125 
Q 37.796875 48.390625 30.609375 48.390625 
z
M 30.609375 56 
Q 42.328125 56 49.015625 48.375 
Q 55.71875 40.765625 55.71875 27.296875 
Q 55.71875 13.875 49.015625 6.21875 
Q 42.328125 -1.421875 30.609375 -1.421875 
Q 18.84375 -1.421875 12.171875 6.21875 
Q 5.515625 13.875 5.515625 27.296875 
Q 5.515625 40.765625 12.171875 48.375 
Q 18.84375 56 30.609375 56 
z
" id="DejaVuSans-111"/>
       <path d="M 18.109375 8.203125 
L 18.109375 -20.796875 
L 9.078125 -20.796875 
L 9.078125 54.6875 
L 18.109375 54.6875 
L 18.109375 46.390625 
Q 20.953125 51.265625 25.265625 53.625 
Q 29.59375 56 35.59375 56 
Q 45.5625 56 51.78125 48.09375 
Q 58.015625 40.1875 58.015625 27.296875 
Q 58.015625 14.40625 51.78125 6.484375 
Q 45.5625 -1.421875 35.59375 -1.421875 
Q 29.59375 -1.421875 25.265625 0.953125 
Q 20.953125 3.328125 18.109375 8.203125 
z
M 48.6875 27.296875 
Q 48.6875 37.203125 44.609375 42.84375 
Q 40.53125 48.484375 33.40625 48.484375 
Q 26.265625 48.484375 22.1875 42.84375 
Q 18.109375 37.203125 18.109375 27.296875 
Q 18.109375 17.390625 22.1875 11.75 
Q 26.265625 6.109375 33.40625 6.109375 
Q 40.53125 6.109375 44.609375 11.75 
Q 48.6875 17.390625 48.6875 27.296875 
z
" id="DejaVuSans-112"/>
       <path d="M 8.5 21.578125 
L 8.5 54.6875 
L 17.484375 54.6875 
L 17.484375 21.921875 
Q 17.484375 14.15625 20.5 10.265625 
Q 23.53125 6.390625 29.59375 6.390625 
Q 36.859375 6.390625 41.078125 11.03125 
Q 45.3125 15.671875 45.3125 23.6875 
L 45.3125 54.6875 
L 54.296875 54.6875 
L 54.296875 0 
L 45.3125 0 
L 45.3125 8.40625 
Q 42.046875 3.421875 37.71875 1 
Q 33.40625 -1.421875 27.6875 -1.421875 
Q 18.265625 -1.421875 13.375 4.4375 
Q 8.5 10.296875 8.5 21.578125 
z
M 31.109375 56 
z
" id="DejaVuSans-117"/>
       <path d="M 44.28125 53.078125 
L 44.28125 44.578125 
Q 40.484375 46.53125 36.375 47.5 
Q 32.28125 48.484375 27.875 48.484375 
Q 21.1875 48.484375 17.84375 46.4375 
Q 14.5 44.390625 14.5 40.28125 
Q 14.5 37.15625 16.890625 35.375 
Q 19.28125 33.59375 26.515625 31.984375 
L 29.59375 31.296875 
Q 39.15625 29.25 43.1875 25.515625 
Q 47.21875 21.78125 47.21875 15.09375 
Q 47.21875 7.46875 41.1875 3.015625 
Q 35.15625 -1.421875 24.609375 -1.421875 
Q 20.21875 -1.421875 15.453125 -0.5625 
Q 10.6875 0.296875 5.421875 2 
L 5.421875 11.28125 
Q 10.40625 8.6875 15.234375 7.390625 
Q 20.0625 6.109375 24.8125 6.109375 
Q 31.15625 6.109375 34.5625 8.28125 
Q 37.984375 10.453125 37.984375 14.40625 
Q 37.984375 18.0625 35.515625 20.015625 
Q 33.0625 21.96875 24.703125 23.78125 
L 21.578125 24.515625 
Q 13.234375 26.265625 9.515625 29.90625 
Q 5.8125 33.546875 5.8125 39.890625 
Q 5.8125 47.609375 11.28125 51.796875 
Q 16.75 56 26.8125 56 
Q 31.78125 56 36.171875 55.265625 
Q 40.578125 54.546875 44.28125 53.078125 
z
" id="DejaVuSans-115"/>
      </defs>
      <g transform="translate(197.641363 514.773625)rotate(-90)scale(0.088 -0.088)">
       <use xlink:href="#DejaVuSans-65"/>
       <use x="68.408203" xlink:href="#DejaVuSans-103"/>
       <use x="131.884766" xlink:href="#DejaVuSans-101"/>
       <use x="193.408203" xlink:href="#DejaVuSans-32"/>
       <use x="225.195312" xlink:href="#DejaVuSans-97"/>
       <use x="286.474609" xlink:href="#DejaVuSans-116"/>
       <use x="325.683594" xlink:href="#DejaVuSans-32"/>
       <use x="357.470703" xlink:href="#DejaVuSans-77"/>
       <use x="443.75" xlink:href="#DejaVuSans-101"/>
       <use x="505.273438" xlink:href="#DejaVuSans-110"/>
       <use x="568.652344" xlink:href="#DejaVuSans-111"/>
       <use x="629.833984" xlink:href="#DejaVuSans-112"/>
       <use x="693.310547" xlink:href="#DejaVuSans-97"/>
       <use x="754.589844" xlink:href="#DejaVuSans-117"/>
       <use x="817.96875" xlink:href="#DejaVuSans-115"/>
       <use x="870.068359" xlink:href="#DejaVuSans-101"/>
      </g>
     </g>
    </g>
    <g id="xtick_3">
     <g id="line2d_3">
      <g>
       <use style="stroke:#000000;" x="264.457152" xlink:href="#ma17c2117bb" y="424.492"/>
      </g>
     </g>
     <g id="text_3">
      <!-- Height -->
      <defs>
       <path d="M 9.8125 72.90625 
L 19.671875 72.90625 
L 19.671875 43.015625 
L 55.515625 43.015625 
L 55.515625 72.90625 
L 65.375 72.90625 
L 65.375 0 
L 55.515625 0 
L 55.515625 34.71875 
L 19.671875 34.71875 
L 19.671875 0 
L 9.8125 0 
z
" id="DejaVuSans-72"/>
       <path d="M 9.421875 54.6875 
L 18.40625 54.6875 
L 18.40625 0 
L 9.421875 0 
z
M 9.421875 75.984375 
L 18.40625 75.984375 
L 18.40625 64.59375 
L 9.421875 64.59375 
z
" id="DejaVuSans-105"/>
      </defs>
      <g transform="translate(266.885402 461.882875)rotate(-90)scale(0.088 -0.088)">
       <use xlink:href="#DejaVuSans-72"/>
       <use x="75.195312" xlink:href="#DejaVuSans-101"/>
       <use x="136.71875" xlink:href="#DejaVuSans-105"/>
       <use x="164.501953" xlink:href="#DejaVuSans-103"/>
       <use x="227.978516" xlink:href="#DejaVuSans-104"/>
       <use x="291.357422" xlink:href="#DejaVuSans-116"/>
      </g>
     </g>
    </g>
    <g id="xtick_4">
     <g id="line2d_4">
      <g>
       <use style="stroke:#000000;" x="333.701192" xlink:href="#ma17c2117bb" y="424.492"/>
      </g>
     </g>
     <g id="text_4">
      <!-- BMI -->
      <defs>
       <path d="M 19.671875 34.8125 
L 19.671875 8.109375 
L 35.5 8.109375 
Q 43.453125 8.109375 47.28125 11.40625 
Q 51.125 14.703125 51.125 21.484375 
Q 51.125 28.328125 47.28125 31.5625 
Q 43.453125 34.8125 35.5 34.8125 
z
M 19.671875 64.796875 
L 19.671875 42.828125 
L 34.28125 42.828125 
Q 41.5 42.828125 45.03125 45.53125 
Q 48.578125 48.25 48.578125 53.8125 
Q 48.578125 59.328125 45.03125 62.0625 
Q 41.5 64.796875 34.28125 64.796875 
z
M 9.8125 72.90625 
L 35.015625 72.90625 
Q 46.296875 72.90625 52.390625 68.21875 
Q 58.5 63.53125 58.5 54.890625 
Q 58.5 48.1875 55.375 44.234375 
Q 52.25 40.28125 46.1875 39.3125 
Q 53.46875 37.75 57.5 32.78125 
Q 61.53125 27.828125 61.53125 20.40625 
Q 61.53125 10.640625 54.890625 5.3125 
Q 48.25 0 35.984375 0 
L 9.8125 0 
z
" id="DejaVuSans-66"/>
       <path d="M 9.8125 72.90625 
L 19.671875 72.90625 
L 19.671875 0 
L 9.8125 0 
z
" id="DejaVuSans-73"/>
      </defs>
      <g transform="translate(336.129442 449.018375)rotate(-90)scale(0.088 -0.088)">
       <use xlink:href="#DejaVuSans-66"/>
       <use x="68.603516" xlink:href="#DejaVuSans-77"/>
       <use x="154.882812" xlink:href="#DejaVuSans-73"/>
      </g>
     </g>
    </g>
    <g id="xtick_5">
     <g id="line2d_5">
      <g>
       <use style="stroke:#000000;" x="402.945232" xlink:href="#ma17c2117bb" y="424.492"/>
      </g>
     </g>
     <g id="text_5">
      <!-- Waist-hip Ratio -->
      <defs>
       <path d="M 3.328125 72.90625 
L 13.28125 72.90625 
L 28.609375 11.28125 
L 43.890625 72.90625 
L 54.984375 72.90625 
L 70.3125 11.28125 
L 85.59375 72.90625 
L 95.609375 72.90625 
L 77.296875 0 
L 64.890625 0 
L 49.515625 63.28125 
L 33.984375 0 
L 21.578125 0 
z
" id="DejaVuSans-87"/>
       <path d="M 4.890625 31.390625 
L 31.203125 31.390625 
L 31.203125 23.390625 
L 4.890625 23.390625 
z
" id="DejaVuSans-45"/>
       <path d="M 44.390625 34.1875 
Q 47.5625 33.109375 50.5625 29.59375 
Q 53.5625 26.078125 56.59375 19.921875 
L 66.609375 0 
L 56 0 
L 46.6875 18.703125 
Q 43.0625 26.03125 39.671875 28.421875 
Q 36.28125 30.8125 30.421875 30.8125 
L 19.671875 30.8125 
L 19.671875 0 
L 9.8125 0 
L 9.8125 72.90625 
L 32.078125 72.90625 
Q 44.578125 72.90625 50.734375 67.671875 
Q 56.890625 62.453125 56.890625 51.90625 
Q 56.890625 45.015625 53.6875 40.46875 
Q 50.484375 35.9375 44.390625 34.1875 
z
M 19.671875 64.796875 
L 19.671875 38.921875 
L 32.078125 38.921875 
Q 39.203125 38.921875 42.84375 42.21875 
Q 46.484375 45.515625 46.484375 51.90625 
Q 46.484375 58.296875 42.84375 61.546875 
Q 39.203125 64.796875 32.078125 64.796875 
z
" id="DejaVuSans-82"/>
      </defs>
      <g transform="translate(405.373482 498.972125)rotate(-90)scale(0.088 -0.088)">
       <use xlink:href="#DejaVuSans-87"/>
       <use x="92.501953" xlink:href="#DejaVuSans-97"/>
       <use x="153.78125" xlink:href="#DejaVuSans-105"/>
       <use x="181.564453" xlink:href="#DejaVuSans-115"/>
       <use x="233.664062" xlink:href="#DejaVuSans-116"/>
       <use x="272.873047" xlink:href="#DejaVuSans-45"/>
       <use x="308.957031" xlink:href="#DejaVuSans-104"/>
       <use x="372.335938" xlink:href="#DejaVuSans-105"/>
       <use x="400.119141" xlink:href="#DejaVuSans-112"/>
       <use x="463.595703" xlink:href="#DejaVuSans-32"/>
       <use x="495.382812" xlink:href="#DejaVuSans-82"/>
       <use x="562.615234" xlink:href="#DejaVuSans-97"/>
       <use x="623.894531" xlink:href="#DejaVuSans-116"/>
       <use x="663.103516" xlink:href="#DejaVuSans-105"/>
       <use x="690.886719" xlink:href="#DejaVuSans-111"/>
      </g>
     </g>
    </g>
    <g id="xtick_6">
     <g id="line2d_6">
      <g>
       <use style="stroke:#000000;" x="472.189271" xlink:href="#ma17c2117bb" y="424.492"/>
      </g>
     </g>
     <g id="text_6">
      <!-- Systolic Blood Pressure -->
      <defs>
       <path d="M 53.515625 70.515625 
L 53.515625 60.890625 
Q 47.90625 63.578125 42.921875 64.890625 
Q 37.9375 66.21875 33.296875 66.21875 
Q 25.25 66.21875 20.875 63.09375 
Q 16.5 59.96875 16.5 54.203125 
Q 16.5 49.359375 19.40625 46.890625 
Q 22.3125 44.4375 30.421875 42.921875 
L 36.375 41.703125 
Q 47.40625 39.59375 52.65625 34.296875 
Q 57.90625 29 57.90625 20.125 
Q 57.90625 9.515625 50.796875 4.046875 
Q 43.703125 -1.421875 29.984375 -1.421875 
Q 24.8125 -1.421875 18.96875 -0.25 
Q 13.140625 0.921875 6.890625 3.21875 
L 6.890625 13.375 
Q 12.890625 10.015625 18.65625 8.296875 
Q 24.421875 6.59375 29.984375 6.59375 
Q 38.421875 6.59375 43.015625 9.90625 
Q 47.609375 13.234375 47.609375 19.390625 
Q 47.609375 24.75 44.3125 27.78125 
Q 41.015625 30.8125 33.5 32.328125 
L 27.484375 33.5 
Q 16.453125 35.6875 11.515625 40.375 
Q 6.59375 45.0625 6.59375 53.421875 
Q 6.59375 63.09375 13.40625 68.65625 
Q 20.21875 74.21875 32.171875 74.21875 
Q 37.3125 74.21875 42.625 73.28125 
Q 47.953125 72.359375 53.515625 70.515625 
z
" id="DejaVuSans-83"/>
       <path d="M 32.171875 -5.078125 
Q 28.375 -14.84375 24.75 -17.8125 
Q 21.140625 -20.796875 15.09375 -20.796875 
L 7.90625 -20.796875 
L 7.90625 -13.28125 
L 13.1875 -13.28125 
Q 16.890625 -13.28125 18.9375 -11.515625 
Q 21 -9.765625 23.484375 -3.21875 
L 25.09375 0.875 
L 2.984375 54.6875 
L 12.5 54.6875 
L 29.59375 11.921875 
L 46.6875 54.6875 
L 56.203125 54.6875 
z
" id="DejaVuSans-121"/>
       <path d="M 9.421875 75.984375 
L 18.40625 75.984375 
L 18.40625 0 
L 9.421875 0 
z
" id="DejaVuSans-108"/>
       <path d="M 45.40625 46.390625 
L 45.40625 75.984375 
L 54.390625 75.984375 
L 54.390625 0 
L 45.40625 0 
L 45.40625 8.203125 
Q 42.578125 3.328125 38.25 0.953125 
Q 33.9375 -1.421875 27.875 -1.421875 
Q 17.96875 -1.421875 11.734375 6.484375 
Q 5.515625 14.40625 5.515625 27.296875 
Q 5.515625 40.1875 11.734375 48.09375 
Q 17.96875 56 27.875 56 
Q 33.9375 56 38.25 53.625 
Q 42.578125 51.265625 45.40625 46.390625 
z
M 14.796875 27.296875 
Q 14.796875 17.390625 18.875 11.75 
Q 22.953125 6.109375 30.078125 6.109375 
Q 37.203125 6.109375 41.296875 11.75 
Q 45.40625 17.390625 45.40625 27.296875 
Q 45.40625 37.203125 41.296875 42.84375 
Q 37.203125 48.484375 30.078125 48.484375 
Q 22.953125 48.484375 18.875 42.84375 
Q 14.796875 37.203125 14.796875 27.296875 
z
" id="DejaVuSans-100"/>
       <path d="M 19.671875 64.796875 
L 19.671875 37.40625 
L 32.078125 37.40625 
Q 38.96875 37.40625 42.71875 40.96875 
Q 46.484375 44.53125 46.484375 51.125 
Q 46.484375 57.671875 42.71875 61.234375 
Q 38.96875 64.796875 32.078125 64.796875 
z
M 9.8125 72.90625 
L 32.078125 72.90625 
Q 44.34375 72.90625 50.609375 67.359375 
Q 56.890625 61.8125 56.890625 51.125 
Q 56.890625 40.328125 50.609375 34.8125 
Q 44.34375 29.296875 32.078125 29.296875 
L 19.671875 29.296875 
L 19.671875 0 
L 9.8125 0 
z
" id="DejaVuSans-80"/>
      </defs>
      <g transform="translate(474.617521 534.73175)rotate(-90)scale(0.088 -0.088)">
       <use xlink:href="#DejaVuSans-83"/>
       <use x="63.476562" xlink:href="#DejaVuSans-121"/>
       <use x="122.65625" xlink:href="#DejaVuSans-115"/>
       <use x="174.755859" xlink:href="#DejaVuSans-116"/>
       <use x="213.964844" xlink:href="#DejaVuSans-111"/>
       <use x="275.146484" xlink:href="#DejaVuSans-108"/>
       <use x="302.929688" xlink:href="#DejaVuSans-105"/>
       <use x="330.712891" xlink:href="#DejaVuSans-99"/>
       <use x="385.693359" xlink:href="#DejaVuSans-32"/>
       <use x="417.480469" xlink:href="#DejaVuSans-66"/>
       <use x="486.083984" xlink:href="#DejaVuSans-108"/>
       <use x="513.867188" xlink:href="#DejaVuSans-111"/>
       <use x="575.048828" xlink:href="#DejaVuSans-111"/>
       <use x="636.230469" xlink:href="#DejaVuSans-100"/>
       <use x="699.707031" xlink:href="#DejaVuSans-32"/>
       <use x="731.494141" xlink:href="#DejaVuSans-80"/>
       <use x="790.046875" xlink:href="#DejaVuSans-114"/>
       <use x="828.910156" xlink:href="#DejaVuSans-101"/>
       <use x="890.433594" xlink:href="#DejaVuSans-115"/>
       <use x="942.533203" xlink:href="#DejaVuSans-115"/>
       <use x="994.632812" xlink:href="#DejaVuSans-117"/>
       <use x="1058.011719" xlink:href="#DejaVuSans-114"/>
       <use x="1096.875" xlink:href="#DejaVuSans-101"/>
      </g>
     </g>
    </g>
    <g id="xtick_7">
     <g id="line2d_7">
      <g>
       <use style="stroke:#000000;" x="541.433311" xlink:href="#ma17c2117bb" y="424.492"/>
      </g>
     </g>
     <g id="text_7">
      <!-- High Cholesterol -->
      <defs>
       <path d="M 64.40625 67.28125 
L 64.40625 56.890625 
Q 59.421875 61.53125 53.78125 63.8125 
Q 48.140625 66.109375 41.796875 66.109375 
Q 29.296875 66.109375 22.65625 58.46875 
Q 16.015625 50.828125 16.015625 36.375 
Q 16.015625 21.96875 22.65625 14.328125 
Q 29.296875 6.6875 41.796875 6.6875 
Q 48.140625 6.6875 53.78125 8.984375 
Q 59.421875 11.28125 64.40625 15.921875 
L 64.40625 5.609375 
Q 59.234375 2.09375 53.4375 0.328125 
Q 47.65625 -1.421875 41.21875 -1.421875 
Q 24.65625 -1.421875 15.125 8.703125 
Q 5.609375 18.84375 5.609375 36.375 
Q 5.609375 53.953125 15.125 64.078125 
Q 24.65625 74.21875 41.21875 74.21875 
Q 47.75 74.21875 53.53125 72.484375 
Q 59.328125 70.75 64.40625 67.28125 
z
" id="DejaVuSans-67"/>
      </defs>
      <g transform="translate(543.861561 505.478625)rotate(-90)scale(0.088 -0.088)">
       <use xlink:href="#DejaVuSans-72"/>
       <use x="75.195312" xlink:href="#DejaVuSans-105"/>
       <use x="102.978516" xlink:href="#DejaVuSans-103"/>
       <use x="166.455078" xlink:href="#DejaVuSans-104"/>
       <use x="229.833984" xlink:href="#DejaVuSans-32"/>
       <use x="261.621094" xlink:href="#DejaVuSans-67"/>
       <use x="331.445312" xlink:href="#DejaVuSans-104"/>
       <use x="394.824219" xlink:href="#DejaVuSans-111"/>
       <use x="456.005859" xlink:href="#DejaVuSans-108"/>
       <use x="483.789062" xlink:href="#DejaVuSans-101"/>
       <use x="545.3125" xlink:href="#DejaVuSans-115"/>
       <use x="597.412109" xlink:href="#DejaVuSans-116"/>
       <use x="636.621094" xlink:href="#DejaVuSans-101"/>
       <use x="698.144531" xlink:href="#DejaVuSans-114"/>
       <use x="737.007812" xlink:href="#DejaVuSans-111"/>
       <use x="798.189453" xlink:href="#DejaVuSans-108"/>
      </g>
     </g>
    </g>
    <g id="xtick_8">
     <g id="line2d_8">
      <g>
       <use style="stroke:#000000;" x="610.677351" xlink:href="#ma17c2117bb" y="424.492"/>
      </g>
     </g>
     <g id="text_8">
      <!-- Type 2 diabetes -->
      <defs>
       <path d="M -0.296875 72.90625 
L 61.375 72.90625 
L 61.375 64.59375 
L 35.5 64.59375 
L 35.5 0 
L 25.59375 0 
L 25.59375 64.59375 
L -0.296875 64.59375 
z
" id="DejaVuSans-84"/>
       <path d="M 19.1875 8.296875 
L 53.609375 8.296875 
L 53.609375 0 
L 7.328125 0 
L 7.328125 8.296875 
Q 12.9375 14.109375 22.625 23.890625 
Q 32.328125 33.6875 34.8125 36.53125 
Q 39.546875 41.84375 41.421875 45.53125 
Q 43.3125 49.21875 43.3125 52.78125 
Q 43.3125 58.59375 39.234375 62.25 
Q 35.15625 65.921875 28.609375 65.921875 
Q 23.96875 65.921875 18.8125 64.3125 
Q 13.671875 62.703125 7.8125 59.421875 
L 7.8125 69.390625 
Q 13.765625 71.78125 18.9375 73 
Q 24.125 74.21875 28.421875 74.21875 
Q 39.75 74.21875 46.484375 68.546875 
Q 53.21875 62.890625 53.21875 53.421875 
Q 53.21875 48.921875 51.53125 44.890625 
Q 49.859375 40.875 45.40625 35.40625 
Q 44.1875 33.984375 37.640625 27.21875 
Q 31.109375 20.453125 19.1875 8.296875 
z
" id="DejaVuSans-50"/>
       <path d="M 48.6875 27.296875 
Q 48.6875 37.203125 44.609375 42.84375 
Q 40.53125 48.484375 33.40625 48.484375 
Q 26.265625 48.484375 22.1875 42.84375 
Q 18.109375 37.203125 18.109375 27.296875 
Q 18.109375 17.390625 22.1875 11.75 
Q 26.265625 6.109375 33.40625 6.109375 
Q 40.53125 6.109375 44.609375 11.75 
Q 48.6875 17.390625 48.6875 27.296875 
z
M 18.109375 46.390625 
Q 20.953125 51.265625 25.265625 53.625 
Q 29.59375 56 35.59375 56 
Q 45.5625 56 51.78125 48.09375 
Q 58.015625 40.1875 58.015625 27.296875 
Q 58.015625 14.40625 51.78125 6.484375 
Q 45.5625 -1.421875 35.59375 -1.421875 
Q 29.59375 -1.421875 25.265625 0.953125 
Q 20.953125 3.328125 18.109375 8.203125 
L 18.109375 0 
L 9.078125 0 
L 9.078125 75.984375 
L 18.109375 75.984375 
z
" id="DejaVuSans-98"/>
      </defs>
      <g transform="translate(613.105601 502.068625)rotate(-90)scale(0.088 -0.088)">
       <use xlink:href="#DejaVuSans-84"/>
       <use x="45.458984" xlink:href="#DejaVuSans-121"/>
       <use x="104.638672" xlink:href="#DejaVuSans-112"/>
       <use x="168.115234" xlink:href="#DejaVuSans-101"/>
       <use x="229.638672" xlink:href="#DejaVuSans-32"/>
       <use x="261.425781" xlink:href="#DejaVuSans-50"/>
       <use x="325.048828" xlink:href="#DejaVuSans-32"/>
       <use x="356.835938" xlink:href="#DejaVuSans-100"/>
       <use x="420.3125" xlink:href="#DejaVuSans-105"/>
       <use x="448.095703" xlink:href="#DejaVuSans-97"/>
       <use x="509.375" xlink:href="#DejaVuSans-98"/>
       <use x="572.851562" xlink:href="#DejaVuSans-101"/>
       <use x="634.375" xlink:href="#DejaVuSans-116"/>
       <use x="673.583984" xlink:href="#DejaVuSans-101"/>
       <use x="735.107422" xlink:href="#DejaVuSans-115"/>
      </g>
     </g>
    </g>
    <g id="xtick_9">
     <g id="line2d_9">
      <g>
       <use style="stroke:#000000;" x="679.92139" xlink:href="#ma17c2117bb" y="424.492"/>
      </g>
     </g>
     <g id="text_9">
      <!-- Respiratory and ENT Diseases -->
      <defs>
       <path d="M 9.8125 72.90625 
L 55.90625 72.90625 
L 55.90625 64.59375 
L 19.671875 64.59375 
L 19.671875 43.015625 
L 54.390625 43.015625 
L 54.390625 34.71875 
L 19.671875 34.71875 
L 19.671875 8.296875 
L 56.78125 8.296875 
L 56.78125 0 
L 9.8125 0 
z
" id="DejaVuSans-69"/>
       <path d="M 9.8125 72.90625 
L 23.09375 72.90625 
L 55.421875 11.921875 
L 55.421875 72.90625 
L 64.984375 72.90625 
L 64.984375 0 
L 51.703125 0 
L 19.390625 60.984375 
L 19.390625 0 
L 9.8125 0 
z
" id="DejaVuSans-78"/>
       <path d="M 19.671875 64.796875 
L 19.671875 8.109375 
L 31.59375 8.109375 
Q 46.6875 8.109375 53.6875 14.9375 
Q 60.6875 21.78125 60.6875 36.53125 
Q 60.6875 51.171875 53.6875 57.984375 
Q 46.6875 64.796875 31.59375 64.796875 
z
M 9.8125 72.90625 
L 30.078125 72.90625 
Q 51.265625 72.90625 61.171875 64.09375 
Q 71.09375 55.28125 71.09375 36.53125 
Q 71.09375 17.671875 61.125 8.828125 
Q 51.171875 0 30.078125 0 
L 9.8125 0 
z
" id="DejaVuSans-68"/>
      </defs>
      <g transform="translate(682.34964 564.873125)rotate(-90)scale(0.088 -0.088)">
       <use xlink:href="#DejaVuSans-82"/>
       <use x="64.982422" xlink:href="#DejaVuSans-101"/>
       <use x="126.505859" xlink:href="#DejaVuSans-115"/>
       <use x="178.605469" xlink:href="#DejaVuSans-112"/>
       <use x="242.082031" xlink:href="#DejaVuSans-105"/>
       <use x="269.865234" xlink:href="#DejaVuSans-114"/>
       <use x="310.978516" xlink:href="#DejaVuSans-97"/>
       <use x="372.257812" xlink:href="#DejaVuSans-116"/>
       <use x="411.466797" xlink:href="#DejaVuSans-111"/>
       <use x="472.648438" xlink:href="#DejaVuSans-114"/>
       <use x="513.761719" xlink:href="#DejaVuSans-121"/>
       <use x="572.941406" xlink:href="#DejaVuSans-32"/>
       <use x="604.728516" xlink:href="#DejaVuSans-97"/>
       <use x="666.007812" xlink:href="#DejaVuSans-110"/>
       <use x="729.386719" xlink:href="#DejaVuSans-100"/>
       <use x="792.863281" xlink:href="#DejaVuSans-32"/>
       <use x="824.650391" xlink:href="#DejaVuSans-69"/>
       <use x="887.833984" xlink:href="#DejaVuSans-78"/>
       <use x="962.638672" xlink:href="#DejaVuSans-84"/>
       <use x="1023.722656" xlink:href="#DejaVuSans-32"/>
       <use x="1055.509766" xlink:href="#DejaVuSans-68"/>
       <use x="1132.511719" xlink:href="#DejaVuSans-105"/>
       <use x="1160.294922" xlink:href="#DejaVuSans-115"/>
       <use x="1212.394531" xlink:href="#DejaVuSans-101"/>
       <use x="1273.917969" xlink:href="#DejaVuSans-97"/>
       <use x="1335.197266" xlink:href="#DejaVuSans-115"/>
       <use x="1387.296875" xlink:href="#DejaVuSans-101"/>
       <use x="1448.820312" xlink:href="#DejaVuSans-115"/>
      </g>
     </g>
    </g>
    <g id="xtick_10">
     <g id="line2d_10">
      <g>
       <use style="stroke:#000000;" x="749.16543" xlink:href="#ma17c2117bb" y="424.492"/>
      </g>
     </g>
     <g id="text_10">
      <!-- Auto Immune Traits -->
      <defs>
       <path d="M 52 44.1875 
Q 55.375 50.25 60.0625 53.125 
Q 64.75 56 71.09375 56 
Q 79.640625 56 84.28125 50.015625 
Q 88.921875 44.046875 88.921875 33.015625 
L 88.921875 0 
L 79.890625 0 
L 79.890625 32.71875 
Q 79.890625 40.578125 77.09375 44.375 
Q 74.3125 48.1875 68.609375 48.1875 
Q 61.625 48.1875 57.5625 43.546875 
Q 53.515625 38.921875 53.515625 30.90625 
L 53.515625 0 
L 44.484375 0 
L 44.484375 32.71875 
Q 44.484375 40.625 41.703125 44.40625 
Q 38.921875 48.1875 33.109375 48.1875 
Q 26.21875 48.1875 22.15625 43.53125 
Q 18.109375 38.875 18.109375 30.90625 
L 18.109375 0 
L 9.078125 0 
L 9.078125 54.6875 
L 18.109375 54.6875 
L 18.109375 46.1875 
Q 21.1875 51.21875 25.484375 53.609375 
Q 29.78125 56 35.6875 56 
Q 41.65625 56 45.828125 52.96875 
Q 50 49.953125 52 44.1875 
z
" id="DejaVuSans-109"/>
      </defs>
      <g transform="translate(751.59368 518.691)rotate(-90)scale(0.088 -0.088)">
       <use xlink:href="#DejaVuSans-65"/>
       <use x="68.408203" xlink:href="#DejaVuSans-117"/>
       <use x="131.787109" xlink:href="#DejaVuSans-116"/>
       <use x="170.996094" xlink:href="#DejaVuSans-111"/>
       <use x="232.177734" xlink:href="#DejaVuSans-32"/>
       <use x="263.964844" xlink:href="#DejaVuSans-73"/>
       <use x="293.457031" xlink:href="#DejaVuSans-109"/>
       <use x="390.869141" xlink:href="#DejaVuSans-109"/>
       <use x="488.28125" xlink:href="#DejaVuSans-117"/>
       <use x="551.660156" xlink:href="#DejaVuSans-110"/>
       <use x="615.039062" xlink:href="#DejaVuSans-101"/>
       <use x="676.5625" xlink:href="#DejaVuSans-32"/>
       <use x="708.349609" xlink:href="#DejaVuSans-84"/>
       <use x="754.683594" xlink:href="#DejaVuSans-114"/>
       <use x="795.796875" xlink:href="#DejaVuSans-97"/>
       <use x="857.076172" xlink:href="#DejaVuSans-105"/>
       <use x="884.859375" xlink:href="#DejaVuSans-116"/>
       <use x="924.068359" xlink:href="#DejaVuSans-115"/>
      </g>
     </g>
    </g>
    <g id="xtick_11">
     <g id="line2d_11">
      <g>
       <use style="stroke:#000000;" x="818.409469" xlink:href="#ma17c2117bb" y="424.492"/>
      </g>
     </g>
     <g id="text_11">
      <!-- Eczema -->
      <defs>
       <path d="M 5.515625 54.6875 
L 48.1875 54.6875 
L 48.1875 46.484375 
L 14.40625 7.171875 
L 48.1875 7.171875 
L 48.1875 0 
L 4.296875 0 
L 4.296875 8.203125 
L 38.09375 47.515625 
L 5.515625 47.515625 
z
" id="DejaVuSans-122"/>
      </defs>
      <g transform="translate(820.837719 467.189)rotate(-90)scale(0.088 -0.088)">
       <use xlink:href="#DejaVuSans-69"/>
       <use x="63.183594" xlink:href="#DejaVuSans-99"/>
       <use x="118.164062" xlink:href="#DejaVuSans-122"/>
       <use x="170.654297" xlink:href="#DejaVuSans-101"/>
       <use x="232.177734" xlink:href="#DejaVuSans-109"/>
       <use x="329.589844" xlink:href="#DejaVuSans-97"/>
      </g>
     </g>
    </g>
    <g id="xtick_12">
     <g id="line2d_12">
      <g>
       <use style="stroke:#000000;" x="887.653509" xlink:href="#ma17c2117bb" y="424.492"/>
      </g>
     </g>
     <g id="text_12">
      <!-- Hypothyroidism -->
      <g transform="translate(890.081759 502.261125)rotate(-90)scale(0.088 -0.088)">
       <use xlink:href="#DejaVuSans-72"/>
       <use x="75.195312" xlink:href="#DejaVuSans-121"/>
       <use x="134.375" xlink:href="#DejaVuSans-112"/>
       <use x="197.851562" xlink:href="#DejaVuSans-111"/>
       <use x="259.033203" xlink:href="#DejaVuSans-116"/>
       <use x="298.242188" xlink:href="#DejaVuSans-104"/>
       <use x="361.621094" xlink:href="#DejaVuSans-121"/>
       <use x="420.800781" xlink:href="#DejaVuSans-114"/>
       <use x="459.664062" xlink:href="#DejaVuSans-111"/>
       <use x="520.845703" xlink:href="#DejaVuSans-105"/>
       <use x="548.628906" xlink:href="#DejaVuSans-100"/>
       <use x="612.105469" xlink:href="#DejaVuSans-105"/>
       <use x="639.888672" xlink:href="#DejaVuSans-115"/>
       <use x="691.988281" xlink:href="#DejaVuSans-109"/>
      </g>
     </g>
    </g>
   </g>
   <g id="matplotlib.axis_2">
    <g id="ytick_1">
     <g id="line2d_13">
      <defs>
       <path d="M 0 0 
L -4.8 0 
" id="mcedcd57ba2" style="stroke:#000000;"/>
      </defs>
      <g>
       <use style="stroke:#000000;" x="56.148" xlink:href="#mcedcd57ba2" y="353.317472"/>
      </g>
     </g>
     <g id="text_13">
      <!-- −400 -->
      <defs>
       <path d="M 10.59375 35.5 
L 73.1875 35.5 
L 73.1875 27.203125 
L 10.59375 27.203125 
z
" id="DejaVuSans-8722"/>
       <path d="M 37.796875 64.3125 
L 12.890625 25.390625 
L 37.796875 25.390625 
z
M 35.203125 72.90625 
L 47.609375 72.90625 
L 47.609375 25.390625 
L 58.015625 25.390625 
L 58.015625 17.1875 
L 47.609375 17.1875 
L 47.609375 0 
L 37.796875 0 
L 37.796875 17.1875 
L 4.890625 17.1875 
L 4.890625 26.703125 
z
" id="DejaVuSans-52"/>
       <path d="M 31.78125 66.40625 
Q 24.171875 66.40625 20.328125 58.90625 
Q 16.5 51.421875 16.5 36.375 
Q 16.5 21.390625 20.328125 13.890625 
Q 24.171875 6.390625 31.78125 6.390625 
Q 39.453125 6.390625 43.28125 13.890625 
Q 47.125 21.390625 47.125 36.375 
Q 47.125 51.421875 43.28125 58.90625 
Q 39.453125 66.40625 31.78125 66.40625 
z
M 31.78125 74.21875 
Q 44.046875 74.21875 50.515625 64.515625 
Q 56.984375 54.828125 56.984375 36.375 
Q 56.984375 17.96875 50.515625 8.265625 
Q 44.046875 -1.421875 31.78125 -1.421875 
Q 19.53125 -1.421875 13.0625 8.265625 
Q 6.59375 17.96875 6.59375 36.375 
Q 6.59375 54.828125 13.0625 64.515625 
Q 19.53125 74.21875 31.78125 74.21875 
z
" id="DejaVuSans-48"/>
      </defs>
      <g transform="translate(23.676875 356.660784)scale(0.088 -0.088)">
       <use xlink:href="#DejaVuSans-8722"/>
       <use x="83.789062" xlink:href="#DejaVuSans-52"/>
       <use x="147.412109" xlink:href="#DejaVuSans-48"/>
       <use x="211.035156" xlink:href="#DejaVuSans-48"/>
      </g>
     </g>
    </g>
    <g id="ytick_2">
     <g id="line2d_14">
      <g>
       <use style="stroke:#000000;" x="56.148" xlink:href="#mcedcd57ba2" y="273.591888"/>
      </g>
     </g>
     <g id="text_14">
      <!-- −200 -->
      <g transform="translate(23.676875 276.9352)scale(0.088 -0.088)">
       <use xlink:href="#DejaVuSans-8722"/>
       <use x="83.789062" xlink:href="#DejaVuSans-50"/>
       <use x="147.412109" xlink:href="#DejaVuSans-48"/>
       <use x="211.035156" xlink:href="#DejaVuSans-48"/>
      </g>
     </g>
    </g>
    <g id="ytick_3">
     <g id="line2d_15">
      <g>
       <use style="stroke:#000000;" x="56.148" xlink:href="#mcedcd57ba2" y="193.866303"/>
      </g>
     </g>
     <g id="text_15">
      <!-- 0 -->
      <g transform="translate(42.249 197.209616)scale(0.088 -0.088)">
       <use xlink:href="#DejaVuSans-48"/>
      </g>
     </g>
    </g>
    <g id="ytick_4">
     <g id="line2d_16">
      <g>
       <use style="stroke:#000000;" x="56.148" xlink:href="#mcedcd57ba2" y="114.140719"/>
      </g>
     </g>
     <g id="text_16">
      <!-- 200 -->
      <g transform="translate(31.051 117.484031)scale(0.088 -0.088)">
       <use xlink:href="#DejaVuSans-50"/>
       <use x="63.623047" xlink:href="#DejaVuSans-48"/>
       <use x="127.246094" xlink:href="#DejaVuSans-48"/>
      </g>
     </g>
    </g>
    <g id="ytick_5">
     <g id="line2d_17">
      <g>
       <use style="stroke:#000000;" x="56.148" xlink:href="#mcedcd57ba2" y="34.415134"/>
      </g>
     </g>
     <g id="text_17">
      <!-- 400 -->
      <g transform="translate(31.051 37.758447)scale(0.088 -0.088)">
       <use xlink:href="#DejaVuSans-52"/>
       <use x="63.623047" xlink:href="#DejaVuSans-48"/>
       <use x="127.246094" xlink:href="#DejaVuSans-48"/>
      </g>
     </g>
    </g>
    <g id="text_18">
     <!-- Ratio (% difference w.r.t. S-LD2MAF) -->
     <defs>
      <path d="M 31 75.875 
Q 24.46875 64.65625 21.28125 53.65625 
Q 18.109375 42.671875 18.109375 31.390625 
Q 18.109375 20.125 21.3125 9.0625 
Q 24.515625 -2 31 -13.1875 
L 23.1875 -13.1875 
Q 15.875 -1.703125 12.234375 9.375 
Q 8.59375 20.453125 8.59375 31.390625 
Q 8.59375 42.28125 12.203125 53.3125 
Q 15.828125 64.359375 23.1875 75.875 
z
" id="DejaVuSans-40"/>
      <path d="M 72.703125 32.078125 
Q 68.453125 32.078125 66.03125 28.46875 
Q 63.625 24.859375 63.625 18.40625 
Q 63.625 12.0625 66.03125 8.421875 
Q 68.453125 4.78125 72.703125 4.78125 
Q 76.859375 4.78125 79.265625 8.421875 
Q 81.6875 12.0625 81.6875 18.40625 
Q 81.6875 24.8125 79.265625 28.4375 
Q 76.859375 32.078125 72.703125 32.078125 
z
M 72.703125 38.28125 
Q 80.421875 38.28125 84.953125 32.90625 
Q 89.5 27.546875 89.5 18.40625 
Q 89.5 9.28125 84.9375 3.921875 
Q 80.375 -1.421875 72.703125 -1.421875 
Q 64.890625 -1.421875 60.34375 3.921875 
Q 55.8125 9.28125 55.8125 18.40625 
Q 55.8125 27.59375 60.375 32.9375 
Q 64.9375 38.28125 72.703125 38.28125 
z
M 22.3125 68.015625 
Q 18.109375 68.015625 15.6875 64.375 
Q 13.28125 60.75 13.28125 54.390625 
Q 13.28125 47.953125 15.671875 44.328125 
Q 18.0625 40.71875 22.3125 40.71875 
Q 26.5625 40.71875 28.96875 44.328125 
Q 31.390625 47.953125 31.390625 54.390625 
Q 31.390625 60.6875 28.953125 64.34375 
Q 26.515625 68.015625 22.3125 68.015625 
z
M 66.40625 74.21875 
L 74.21875 74.21875 
L 28.609375 -1.421875 
L 20.796875 -1.421875 
z
M 22.3125 74.21875 
Q 30.03125 74.21875 34.609375 68.875 
Q 39.203125 63.53125 39.203125 54.390625 
Q 39.203125 45.171875 34.640625 39.84375 
Q 30.078125 34.515625 22.3125 34.515625 
Q 14.546875 34.515625 10.03125 39.859375 
Q 5.515625 45.21875 5.515625 54.390625 
Q 5.515625 63.484375 10.046875 68.84375 
Q 14.59375 74.21875 22.3125 74.21875 
z
" id="DejaVuSans-37"/>
      <path d="M 37.109375 75.984375 
L 37.109375 68.5 
L 28.515625 68.5 
Q 23.6875 68.5 21.796875 66.546875 
Q 19.921875 64.59375 19.921875 59.515625 
L 19.921875 54.6875 
L 34.71875 54.6875 
L 34.71875 47.703125 
L 19.921875 47.703125 
L 19.921875 0 
L 10.890625 0 
L 10.890625 47.703125 
L 2.296875 47.703125 
L 2.296875 54.6875 
L 10.890625 54.6875 
L 10.890625 58.5 
Q 10.890625 67.625 15.140625 71.796875 
Q 19.390625 75.984375 28.609375 75.984375 
z
" id="DejaVuSans-102"/>
      <path d="M 4.203125 54.6875 
L 13.1875 54.6875 
L 24.421875 12.015625 
L 35.59375 54.6875 
L 46.1875 54.6875 
L 57.421875 12.015625 
L 68.609375 54.6875 
L 77.59375 54.6875 
L 63.28125 0 
L 52.6875 0 
L 40.921875 44.828125 
L 29.109375 0 
L 18.5 0 
z
" id="DejaVuSans-119"/>
      <path d="M 10.6875 12.40625 
L 21 12.40625 
L 21 0 
L 10.6875 0 
z
" id="DejaVuSans-46"/>
      <path d="M 9.8125 72.90625 
L 19.671875 72.90625 
L 19.671875 8.296875 
L 55.171875 8.296875 
L 55.171875 0 
L 9.8125 0 
z
" id="DejaVuSans-76"/>
      <path d="M 9.8125 72.90625 
L 51.703125 72.90625 
L 51.703125 64.59375 
L 19.671875 64.59375 
L 19.671875 43.109375 
L 48.578125 43.109375 
L 48.578125 34.8125 
L 19.671875 34.8125 
L 19.671875 0 
L 9.8125 0 
z
" id="DejaVuSans-70"/>
      <path d="M 8.015625 75.875 
L 15.828125 75.875 
Q 23.140625 64.359375 26.78125 53.3125 
Q 30.421875 42.28125 30.421875 31.390625 
Q 30.421875 20.453125 26.78125 9.375 
Q 23.140625 -1.703125 15.828125 -13.1875 
L 8.015625 -13.1875 
Q 14.5 -2 17.703125 9.0625 
Q 20.90625 20.125 20.90625 31.390625 
Q 20.90625 42.671875 17.703125 53.65625 
Q 14.5 64.65625 8.015625 75.875 
z
" id="DejaVuSans-41"/>
     </defs>
     <g transform="translate(17.680375 310.79675)rotate(-90)scale(0.096 -0.096)">
      <use xlink:href="#DejaVuSans-82"/>
      <use x="67.232422" xlink:href="#DejaVuSans-97"/>
      <use x="128.511719" xlink:href="#DejaVuSans-116"/>
      <use x="167.720703" xlink:href="#DejaVuSans-105"/>
      <use x="195.503906" xlink:href="#DejaVuSans-111"/>
      <use x="256.685547" xlink:href="#DejaVuSans-32"/>
      <use x="288.472656" xlink:href="#DejaVuSans-40"/>
      <use x="327.486328" xlink:href="#DejaVuSans-37"/>
      <use x="422.505859" xlink:href="#DejaVuSans-32"/>
      <use x="454.292969" xlink:href="#DejaVuSans-100"/>
      <use x="517.769531" xlink:href="#DejaVuSans-105"/>
      <use x="545.552734" xlink:href="#DejaVuSans-102"/>
      <use x="580.757812" xlink:href="#DejaVuSans-102"/>
      <use x="615.962891" xlink:href="#DejaVuSans-101"/>
      <use x="677.486328" xlink:href="#DejaVuSans-114"/>
      <use x="716.349609" xlink:href="#DejaVuSans-101"/>
      <use x="777.873047" xlink:href="#DejaVuSans-110"/>
      <use x="841.251953" xlink:href="#DejaVuSans-99"/>
      <use x="896.232422" xlink:href="#DejaVuSans-101"/>
      <use x="957.755859" xlink:href="#DejaVuSans-32"/>
      <use x="989.542969" xlink:href="#DejaVuSans-119"/>
      <use x="1062.205078" xlink:href="#DejaVuSans-46"/>
      <use x="1093.992188" xlink:href="#DejaVuSans-114"/>
      <use x="1125.980469" xlink:href="#DejaVuSans-46"/>
      <use x="1157.767578" xlink:href="#DejaVuSans-116"/>
      <use x="1196.976562" xlink:href="#DejaVuSans-46"/>
      <use x="1228.763672" xlink:href="#DejaVuSans-32"/>
      <use x="1260.550781" xlink:href="#DejaVuSans-83"/>
      <use x="1324.027344" xlink:href="#DejaVuSans-45"/>
      <use x="1360.111328" xlink:href="#DejaVuSans-76"/>
      <use x="1415.824219" xlink:href="#DejaVuSans-68"/>
      <use x="1492.826172" xlink:href="#DejaVuSans-50"/>
      <use x="1556.449219" xlink:href="#DejaVuSans-77"/>
      <use x="1642.728516" xlink:href="#DejaVuSans-65"/>
      <use x="1711.136719" xlink:href="#DejaVuSans-70"/>
      <use x="1768.65625" xlink:href="#DejaVuSans-41"/>
     </g>
    </g>
   </g>
   <g id="LineCollection_1">
    <path clip-path="url(#p5845cab2b3)" d="M 102.887727 218.629067 
L 102.887727 193.97836 
" style="fill:none;stroke:#000000;"/>
    <path clip-path="url(#p5845cab2b3)" d="M 172.131766 207.468788 
L 172.131766 182.049692 
" style="fill:none;stroke:#000000;"/>
    <path clip-path="url(#p5845cab2b3)" d="M 241.375806 187.223199 
L 241.375806 171.535093 
" style="fill:none;stroke:#000000;"/>
    <path clip-path="url(#p5845cab2b3)" d="M 310.619846 192.47695 
L 310.619846 182.355054 
" style="fill:none;stroke:#000000;"/>
    <path clip-path="url(#p5845cab2b3)" d="M 379.863885 170.72127 
L 379.863885 146.888737 
" style="fill:none;stroke:#000000;"/>
    <path clip-path="url(#p5845cab2b3)" d="M 449.107925 175.381762 
L 449.107925 161.230721 
" style="fill:none;stroke:#000000;"/>
    <path clip-path="url(#p5845cab2b3)" d="M 518.351964 193.663741 
L 518.351964 156.450183 
" style="fill:none;stroke:#000000;"/>
    <path clip-path="url(#p5845cab2b3)" d="M 587.596004 187.70061 
L 587.596004 157.111429 
" style="fill:none;stroke:#000000;"/>
    <path clip-path="url(#p5845cab2b3)" d="M 656.840044 172.702074 
L 656.840044 145.839066 
" style="fill:none;stroke:#000000;"/>
    <path clip-path="url(#p5845cab2b3)" d="M 726.084083 209.813642 
L 726.084083 47.545913 
" style="fill:none;stroke:#000000;"/>
    <path clip-path="url(#p5845cab2b3)" d="M 795.328123 173.557006 
L 795.328123 150.490943 
" style="fill:none;stroke:#000000;"/>
    <path clip-path="url(#p5845cab2b3)" d="M 864.572162 173.427121 
L 864.572162 139.904867 
" style="fill:none;stroke:#000000;"/>
   </g>
   <g id="LineCollection_2">
    <path clip-path="url(#p5845cab2b3)" d="M 114.4284 215.003532 
L 114.4284 192.515641 
" style="fill:none;stroke:#000000;"/>
    <path clip-path="url(#p5845cab2b3)" d="M 183.67244 208.452055 
L 183.67244 183.130212 
" style="fill:none;stroke:#000000;"/>
    <path clip-path="url(#p5845cab2b3)" d="M 252.916479 189.515438 
L 252.916479 174.6222 
" style="fill:none;stroke:#000000;"/>
    <path clip-path="url(#p5845cab2b3)" d="M 322.160519 193.693783 
L 322.160519 183.833267 
" style="fill:none;stroke:#000000;"/>
    <path clip-path="url(#p5845cab2b3)" d="M 391.404558 173.055304 
L 391.404558 150.650305 
" style="fill:none;stroke:#000000;"/>
    <path clip-path="url(#p5845cab2b3)" d="M 460.648598 178.340872 
L 460.648598 164.740755 
" style="fill:none;stroke:#000000;"/>
    <path clip-path="url(#p5845cab2b3)" d="M 529.892638 194.671214 
L 529.892638 157.230488 
" style="fill:none;stroke:#000000;"/>
    <path clip-path="url(#p5845cab2b3)" d="M 599.136677 187.581138 
L 599.136677 158.720568 
" style="fill:none;stroke:#000000;"/>
    <path clip-path="url(#p5845cab2b3)" d="M 668.380717 176.613687 
L 668.380717 152.046101 
" style="fill:none;stroke:#000000;"/>
    <path clip-path="url(#p5845cab2b3)" d="M 737.624756 201.985714 
L 737.624756 41.791818 
" style="fill:none;stroke:#000000;"/>
    <path clip-path="url(#p5845cab2b3)" d="M 806.868796 174.397571 
L 806.868796 151.859631 
" style="fill:none;stroke:#000000;"/>
    <path clip-path="url(#p5845cab2b3)" d="M 876.112836 179.847211 
L 876.112836 147.380506 
" style="fill:none;stroke:#000000;"/>
   </g>
   <g id="LineCollection_3">
    <path clip-path="url(#p5845cab2b3)" d="M 125.969073 174.905308 
L 125.969073 155.001248 
" style="fill:none;stroke:#000000;"/>
    <path clip-path="url(#p5845cab2b3)" d="M 195.213113 204.445335 
L 195.213113 182.292256 
" style="fill:none;stroke:#000000;"/>
    <path clip-path="url(#p5845cab2b3)" d="M 264.457152 180.248937 
L 264.457152 169.973262 
" style="fill:none;stroke:#000000;"/>
    <path clip-path="url(#p5845cab2b3)" d="M 333.701192 174.592009 
L 333.701192 165.652223 
" style="fill:none;stroke:#000000;"/>
    <path clip-path="url(#p5845cab2b3)" d="M 402.945232 160.09063 
L 402.945232 141.013999 
" style="fill:none;stroke:#000000;"/>
    <path clip-path="url(#p5845cab2b3)" d="M 472.189271 168.941579 
L 472.189271 156.491293 
" style="fill:none;stroke:#000000;"/>
    <path clip-path="url(#p5845cab2b3)" d="M 541.433311 196.428302 
L 541.433311 166.408098 
" style="fill:none;stroke:#000000;"/>
    <path clip-path="url(#p5845cab2b3)" d="M 610.677351 191.110282 
L 610.677351 168.084665 
" style="fill:none;stroke:#000000;"/>
    <path clip-path="url(#p5845cab2b3)" d="M 679.92139 175.374172 
L 679.92139 149.723093 
" style="fill:none;stroke:#000000;"/>
    <path clip-path="url(#p5845cab2b3)" d="M 749.16543 329.056408 
L 749.16543 188.24282 
" style="fill:none;stroke:#000000;"/>
    <path clip-path="url(#p5845cab2b3)" d="M 818.409469 160.453428 
L 818.409469 140.9548 
" style="fill:none;stroke:#000000;"/>
    <path clip-path="url(#p5845cab2b3)" d="M 887.653509 182.466818 
L 887.653509 156.556502 
" style="fill:none;stroke:#000000;"/>
   </g>
   <g id="LineCollection_4">
    <path clip-path="url(#p5845cab2b3)" d="M 137.509747 214.221119 
L 137.509747 188.393549 
" style="fill:none;stroke:#000000;"/>
    <path clip-path="url(#p5845cab2b3)" d="M 206.753786 207.897528 
L 206.753786 183.522537 
" style="fill:none;stroke:#000000;"/>
    <path clip-path="url(#p5845cab2b3)" d="M 275.997826 199.198465 
L 275.997826 188.690741 
" style="fill:none;stroke:#000000;"/>
    <path clip-path="url(#p5845cab2b3)" d="M 345.241865 203.158276 
L 345.241865 193.567863 
" style="fill:none;stroke:#000000;"/>
    <path clip-path="url(#p5845cab2b3)" d="M 414.485905 205.617474 
L 414.485905 189.186069 
" style="fill:none;stroke:#000000;"/>
    <path clip-path="url(#p5845cab2b3)" d="M 483.729945 202.750503 
L 483.729945 190.023798 
" style="fill:none;stroke:#000000;"/>
    <path clip-path="url(#p5845cab2b3)" d="M 552.973984 209.811839 
L 552.973984 183.734107 
" style="fill:none;stroke:#000000;"/>
    <path clip-path="url(#p5845cab2b3)" d="M 622.218024 213.022309 
L 622.218024 185.215014 
" style="fill:none;stroke:#000000;"/>
    <path clip-path="url(#p5845cab2b3)" d="M 691.462063 209.935163 
L 691.462063 182.079113 
" style="fill:none;stroke:#000000;"/>
    <path clip-path="url(#p5845cab2b3)" d="M 760.706103 311.088274 
L 760.706103 112.841986 
" style="fill:none;stroke:#000000;"/>
    <path clip-path="url(#p5845cab2b3)" d="M 829.950143 209.032594 
L 829.950143 188.038499 
" style="fill:none;stroke:#000000;"/>
    <path clip-path="url(#p5845cab2b3)" d="M 899.194182 210.640624 
L 899.194182 177.12207 
" style="fill:none;stroke:#000000;"/>
   </g>
   <g id="LineCollection_5">
    <path clip-path="url(#p5845cab2b3)" d="M 149.05042 186.213447 
L 149.05042 165.895449 
" style="fill:none;stroke:#000000;"/>
    <path clip-path="url(#p5845cab2b3)" d="M 218.294459 207.80891 
L 218.294459 186.399762 
" style="fill:none;stroke:#000000;"/>
    <path clip-path="url(#p5845cab2b3)" d="M 287.538499 196.643693 
L 287.538499 189.534364 
" style="fill:none;stroke:#000000;"/>
    <path clip-path="url(#p5845cab2b3)" d="M 356.782539 190.97974 
L 356.782539 181.629025 
" style="fill:none;stroke:#000000;"/>
    <path clip-path="url(#p5845cab2b3)" d="M 426.026578 195.850483 
L 426.026578 179.603039 
" style="fill:none;stroke:#000000;"/>
    <path clip-path="url(#p5845cab2b3)" d="M 495.270618 193.383257 
L 495.270618 180.379076 
" style="fill:none;stroke:#000000;"/>
    <path clip-path="url(#p5845cab2b3)" d="M 564.514657 199.89669 
L 564.514657 172.326269 
" style="fill:none;stroke:#000000;"/>
    <path clip-path="url(#p5845cab2b3)" d="M 633.758697 209.425846 
L 633.758697 187.093062 
" style="fill:none;stroke:#000000;"/>
    <path clip-path="url(#p5845cab2b3)" d="M 703.002737 200.209377 
L 703.002737 173.110875 
" style="fill:none;stroke:#000000;"/>
    <path clip-path="url(#p5845cab2b3)" d="M 772.246776 406.268182 
L 772.246776 233.776293 
" style="fill:none;stroke:#000000;"/>
    <path clip-path="url(#p5845cab2b3)" d="M 841.490816 191.765227 
L 841.490816 170.780763 
" style="fill:none;stroke:#000000;"/>
    <path clip-path="url(#p5845cab2b3)" d="M 910.734855 210.168091 
L 910.734855 180.377706 
" style="fill:none;stroke:#000000;"/>
   </g>
   <g id="line2d_18">
    <defs>
     <path d="M 2 0 
L -2 -0 
" id="m3b14454ed3" style="stroke:#000000;"/>
    </defs>
    <g clip-path="url(#p5845cab2b3)">
     <use style="stroke:#000000;" x="102.887727" xlink:href="#m3b14454ed3" y="218.629067"/>
     <use style="stroke:#000000;" x="172.131766" xlink:href="#m3b14454ed3" y="207.468788"/>
     <use style="stroke:#000000;" x="241.375806" xlink:href="#m3b14454ed3" y="187.223199"/>
     <use style="stroke:#000000;" x="310.619846" xlink:href="#m3b14454ed3" y="192.47695"/>
     <use style="stroke:#000000;" x="379.863885" xlink:href="#m3b14454ed3" y="170.72127"/>
     <use style="stroke:#000000;" x="449.107925" xlink:href="#m3b14454ed3" y="175.381762"/>
     <use style="stroke:#000000;" x="518.351964" xlink:href="#m3b14454ed3" y="193.663741"/>
     <use style="stroke:#000000;" x="587.596004" xlink:href="#m3b14454ed3" y="187.70061"/>
     <use style="stroke:#000000;" x="656.840044" xlink:href="#m3b14454ed3" y="172.702074"/>
     <use style="stroke:#000000;" x="726.084083" xlink:href="#m3b14454ed3" y="209.813642"/>
     <use style="stroke:#000000;" x="795.328123" xlink:href="#m3b14454ed3" y="173.557006"/>
     <use style="stroke:#000000;" x="864.572162" xlink:href="#m3b14454ed3" y="173.427121"/>
    </g>
   </g>
   <g id="line2d_19">
    <g clip-path="url(#p5845cab2b3)">
     <use style="stroke:#000000;" x="102.887727" xlink:href="#m3b14454ed3" y="193.97836"/>
     <use style="stroke:#000000;" x="172.131766" xlink:href="#m3b14454ed3" y="182.049692"/>
     <use style="stroke:#000000;" x="241.375806" xlink:href="#m3b14454ed3" y="171.535093"/>
     <use style="stroke:#000000;" x="310.619846" xlink:href="#m3b14454ed3" y="182.355054"/>
     <use style="stroke:#000000;" x="379.863885" xlink:href="#m3b14454ed3" y="146.888737"/>
     <use style="stroke:#000000;" x="449.107925" xlink:href="#m3b14454ed3" y="161.230721"/>
     <use style="stroke:#000000;" x="518.351964" xlink:href="#m3b14454ed3" y="156.450183"/>
     <use style="stroke:#000000;" x="587.596004" xlink:href="#m3b14454ed3" y="157.111429"/>
     <use style="stroke:#000000;" x="656.840044" xlink:href="#m3b14454ed3" y="145.839066"/>
     <use style="stroke:#000000;" x="726.084083" xlink:href="#m3b14454ed3" y="47.545913"/>
     <use style="stroke:#000000;" x="795.328123" xlink:href="#m3b14454ed3" y="150.490943"/>
     <use style="stroke:#000000;" x="864.572162" xlink:href="#m3b14454ed3" y="139.904867"/>
    </g>
   </g>
   <g id="line2d_20">
    <g clip-path="url(#p5845cab2b3)">
     <use style="stroke:#000000;" x="114.4284" xlink:href="#m3b14454ed3" y="215.003532"/>
     <use style="stroke:#000000;" x="183.67244" xlink:href="#m3b14454ed3" y="208.452055"/>
     <use style="stroke:#000000;" x="252.916479" xlink:href="#m3b14454ed3" y="189.515438"/>
     <use style="stroke:#000000;" x="322.160519" xlink:href="#m3b14454ed3" y="193.693783"/>
     <use style="stroke:#000000;" x="391.404558" xlink:href="#m3b14454ed3" y="173.055304"/>
     <use style="stroke:#000000;" x="460.648598" xlink:href="#m3b14454ed3" y="178.340872"/>
     <use style="stroke:#000000;" x="529.892638" xlink:href="#m3b14454ed3" y="194.671214"/>
     <use style="stroke:#000000;" x="599.136677" xlink:href="#m3b14454ed3" y="187.581138"/>
     <use style="stroke:#000000;" x="668.380717" xlink:href="#m3b14454ed3" y="176.613687"/>
     <use style="stroke:#000000;" x="737.624756" xlink:href="#m3b14454ed3" y="201.985714"/>
     <use style="stroke:#000000;" x="806.868796" xlink:href="#m3b14454ed3" y="174.397571"/>
     <use style="stroke:#000000;" x="876.112836" xlink:href="#m3b14454ed3" y="179.847211"/>
    </g>
   </g>
   <g id="line2d_21">
    <g clip-path="url(#p5845cab2b3)">
     <use style="stroke:#000000;" x="114.4284" xlink:href="#m3b14454ed3" y="192.515641"/>
     <use style="stroke:#000000;" x="183.67244" xlink:href="#m3b14454ed3" y="183.130212"/>
     <use style="stroke:#000000;" x="252.916479" xlink:href="#m3b14454ed3" y="174.6222"/>
     <use style="stroke:#000000;" x="322.160519" xlink:href="#m3b14454ed3" y="183.833267"/>
     <use style="stroke:#000000;" x="391.404558" xlink:href="#m3b14454ed3" y="150.650305"/>
     <use style="stroke:#000000;" x="460.648598" xlink:href="#m3b14454ed3" y="164.740755"/>
     <use style="stroke:#000000;" x="529.892638" xlink:href="#m3b14454ed3" y="157.230488"/>
     <use style="stroke:#000000;" x="599.136677" xlink:href="#m3b14454ed3" y="158.720568"/>
     <use style="stroke:#000000;" x="668.380717" xlink:href="#m3b14454ed3" y="152.046101"/>
     <use style="stroke:#000000;" x="737.624756" xlink:href="#m3b14454ed3" y="41.791818"/>
     <use style="stroke:#000000;" x="806.868796" xlink:href="#m3b14454ed3" y="151.859631"/>
     <use style="stroke:#000000;" x="876.112836" xlink:href="#m3b14454ed3" y="147.380506"/>
    </g>
   </g>
   <g id="line2d_22">
    <g clip-path="url(#p5845cab2b3)">
     <use style="stroke:#000000;" x="125.969073" xlink:href="#m3b14454ed3" y="174.905308"/>
     <use style="stroke:#000000;" x="195.213113" xlink:href="#m3b14454ed3" y="204.445335"/>
     <use style="stroke:#000000;" x="264.457152" xlink:href="#m3b14454ed3" y="180.248937"/>
     <use style="stroke:#000000;" x="333.701192" xlink:href="#m3b14454ed3" y="174.592009"/>
     <use style="stroke:#000000;" x="402.945232" xlink:href="#m3b14454ed3" y="160.09063"/>
     <use style="stroke:#000000;" x="472.189271" xlink:href="#m3b14454ed3" y="168.941579"/>
     <use style="stroke:#000000;" x="541.433311" xlink:href="#m3b14454ed3" y="196.428302"/>
     <use style="stroke:#000000;" x="610.677351" xlink:href="#m3b14454ed3" y="191.110282"/>
     <use style="stroke:#000000;" x="679.92139" xlink:href="#m3b14454ed3" y="175.374172"/>
     <use style="stroke:#000000;" x="749.16543" xlink:href="#m3b14454ed3" y="329.056408"/>
     <use style="stroke:#000000;" x="818.409469" xlink:href="#m3b14454ed3" y="160.453428"/>
     <use style="stroke:#000000;" x="887.653509" xlink:href="#m3b14454ed3" y="182.466818"/>
    </g>
   </g>
   <g id="line2d_23">
    <g clip-path="url(#p5845cab2b3)">
     <use style="stroke:#000000;" x="125.969073" xlink:href="#m3b14454ed3" y="155.001248"/>
     <use style="stroke:#000000;" x="195.213113" xlink:href="#m3b14454ed3" y="182.292256"/>
     <use style="stroke:#000000;" x="264.457152" xlink:href="#m3b14454ed3" y="169.973262"/>
     <use style="stroke:#000000;" x="333.701192" xlink:href="#m3b14454ed3" y="165.652223"/>
     <use style="stroke:#000000;" x="402.945232" xlink:href="#m3b14454ed3" y="141.013999"/>
     <use style="stroke:#000000;" x="472.189271" xlink:href="#m3b14454ed3" y="156.491293"/>
     <use style="stroke:#000000;" x="541.433311" xlink:href="#m3b14454ed3" y="166.408098"/>
     <use style="stroke:#000000;" x="610.677351" xlink:href="#m3b14454ed3" y="168.084665"/>
     <use style="stroke:#000000;" x="679.92139" xlink:href="#m3b14454ed3" y="149.723093"/>
     <use style="stroke:#000000;" x="749.16543" xlink:href="#m3b14454ed3" y="188.24282"/>
     <use style="stroke:#000000;" x="818.409469" xlink:href="#m3b14454ed3" y="140.9548"/>
     <use style="stroke:#000000;" x="887.653509" xlink:href="#m3b14454ed3" y="156.556502"/>
    </g>
   </g>
   <g id="line2d_24">
    <g clip-path="url(#p5845cab2b3)">
     <use style="stroke:#000000;" x="137.509747" xlink:href="#m3b14454ed3" y="214.221119"/>
     <use style="stroke:#000000;" x="206.753786" xlink:href="#m3b14454ed3" y="207.897528"/>
     <use style="stroke:#000000;" x="275.997826" xlink:href="#m3b14454ed3" y="199.198465"/>
     <use style="stroke:#000000;" x="345.241865" xlink:href="#m3b14454ed3" y="203.158276"/>
     <use style="stroke:#000000;" x="414.485905" xlink:href="#m3b14454ed3" y="205.617474"/>
     <use style="stroke:#000000;" x="483.729945" xlink:href="#m3b14454ed3" y="202.750503"/>
     <use style="stroke:#000000;" x="552.973984" xlink:href="#m3b14454ed3" y="209.811839"/>
     <use style="stroke:#000000;" x="622.218024" xlink:href="#m3b14454ed3" y="213.022309"/>
     <use style="stroke:#000000;" x="691.462063" xlink:href="#m3b14454ed3" y="209.935163"/>
     <use style="stroke:#000000;" x="760.706103" xlink:href="#m3b14454ed3" y="311.088274"/>
     <use style="stroke:#000000;" x="829.950143" xlink:href="#m3b14454ed3" y="209.032594"/>
     <use style="stroke:#000000;" x="899.194182" xlink:href="#m3b14454ed3" y="210.640624"/>
    </g>
   </g>
   <g id="line2d_25">
    <g clip-path="url(#p5845cab2b3)">
     <use style="stroke:#000000;" x="137.509747" xlink:href="#m3b14454ed3" y="188.393549"/>
     <use style="stroke:#000000;" x="206.753786" xlink:href="#m3b14454ed3" y="183.522537"/>
     <use style="stroke:#000000;" x="275.997826" xlink:href="#m3b14454ed3" y="188.690741"/>
     <use style="stroke:#000000;" x="345.241865" xlink:href="#m3b14454ed3" y="193.567863"/>
     <use style="stroke:#000000;" x="414.485905" xlink:href="#m3b14454ed3" y="189.186069"/>
     <use style="stroke:#000000;" x="483.729945" xlink:href="#m3b14454ed3" y="190.023798"/>
     <use style="stroke:#000000;" x="552.973984" xlink:href="#m3b14454ed3" y="183.734107"/>
     <use style="stroke:#000000;" x="622.218024" xlink:href="#m3b14454ed3" y="185.215014"/>
     <use style="stroke:#000000;" x="691.462063" xlink:href="#m3b14454ed3" y="182.079113"/>
     <use style="stroke:#000000;" x="760.706103" xlink:href="#m3b14454ed3" y="112.841986"/>
     <use style="stroke:#000000;" x="829.950143" xlink:href="#m3b14454ed3" y="188.038499"/>
     <use style="stroke:#000000;" x="899.194182" xlink:href="#m3b14454ed3" y="177.12207"/>
    </g>
   </g>
   <g id="line2d_26">
    <g clip-path="url(#p5845cab2b3)">
     <use style="stroke:#000000;" x="149.05042" xlink:href="#m3b14454ed3" y="186.213447"/>
     <use style="stroke:#000000;" x="218.294459" xlink:href="#m3b14454ed3" y="207.80891"/>
     <use style="stroke:#000000;" x="287.538499" xlink:href="#m3b14454ed3" y="196.643693"/>
     <use style="stroke:#000000;" x="356.782539" xlink:href="#m3b14454ed3" y="190.97974"/>
     <use style="stroke:#000000;" x="426.026578" xlink:href="#m3b14454ed3" y="195.850483"/>
     <use style="stroke:#000000;" x="495.270618" xlink:href="#m3b14454ed3" y="193.383257"/>
     <use style="stroke:#000000;" x="564.514657" xlink:href="#m3b14454ed3" y="199.89669"/>
     <use style="stroke:#000000;" x="633.758697" xlink:href="#m3b14454ed3" y="209.425846"/>
     <use style="stroke:#000000;" x="703.002737" xlink:href="#m3b14454ed3" y="200.209377"/>
     <use style="stroke:#000000;" x="772.246776" xlink:href="#m3b14454ed3" y="406.268182"/>
     <use style="stroke:#000000;" x="841.490816" xlink:href="#m3b14454ed3" y="191.765227"/>
     <use style="stroke:#000000;" x="910.734855" xlink:href="#m3b14454ed3" y="210.168091"/>
    </g>
   </g>
   <g id="line2d_27">
    <g clip-path="url(#p5845cab2b3)">
     <use style="stroke:#000000;" x="149.05042" xlink:href="#m3b14454ed3" y="165.895449"/>
     <use style="stroke:#000000;" x="218.294459" xlink:href="#m3b14454ed3" y="186.399762"/>
     <use style="stroke:#000000;" x="287.538499" xlink:href="#m3b14454ed3" y="189.534364"/>
     <use style="stroke:#000000;" x="356.782539" xlink:href="#m3b14454ed3" y="181.629025"/>
     <use style="stroke:#000000;" x="426.026578" xlink:href="#m3b14454ed3" y="179.603039"/>
     <use style="stroke:#000000;" x="495.270618" xlink:href="#m3b14454ed3" y="180.379076"/>
     <use style="stroke:#000000;" x="564.514657" xlink:href="#m3b14454ed3" y="172.326269"/>
     <use style="stroke:#000000;" x="633.758697" xlink:href="#m3b14454ed3" y="187.093062"/>
     <use style="stroke:#000000;" x="703.002737" xlink:href="#m3b14454ed3" y="173.110875"/>
     <use style="stroke:#000000;" x="772.246776" xlink:href="#m3b14454ed3" y="233.776293"/>
     <use style="stroke:#000000;" x="841.490816" xlink:href="#m3b14454ed3" y="170.780763"/>
     <use style="stroke:#000000;" x="910.734855" xlink:href="#m3b14454ed3" y="180.377706"/>
    </g>
   </g>
   <g id="patch_63">
    <path d="M 56.148 424.492 
L 56.148 23.568 
" style="fill:none;stroke:#000000;stroke-linecap:square;stroke-linejoin:miter;"/>
   </g>
   <g id="patch_64">
    <path d="M 957.474582 424.492 
L 957.474582 23.568 
" style="fill:none;stroke:#000000;stroke-linecap:square;stroke-linejoin:miter;"/>
   </g>
   <g id="patch_65">
    <path d="M 56.148 424.492 
L 957.474582 424.492 
" style="fill:none;stroke:#000000;stroke-linecap:square;stroke-linejoin:miter;"/>
   </g>
   <g id="patch_66">
    <path d="M 56.148 23.568 
L 957.474582 23.568 
" style="fill:none;stroke:#000000;stroke-linecap:square;stroke-linejoin:miter;"/>
   </g>
   <g id="text_19">
    <!-- Ratio -->
    <g transform="translate(494.490291 17.568)scale(0.096 -0.096)">
     <use xlink:href="#DejaVuSans-82"/>
     <use x="67.232422" xlink:href="#DejaVuSans-97"/>
     <use x="128.511719" xlink:href="#DejaVuSans-116"/>
     <use x="167.720703" xlink:href="#DejaVuSans-105"/>
     <use x="195.503906" xlink:href="#DejaVuSans-111"/>
    </g>
   </g>
   <g id="legend_1">
    <g id="patch_67">
     <path d="M 974.407848 199.539875 
L 992.007848 199.539875 
L 992.007848 193.379875 
L 974.407848 193.379875 
z
" style="fill:#f28e2b;"/>
    </g>
    <g id="text_20">
     <!-- $r^2 (\alpha=1, \theta=0)$ -->
     <defs>
      <path d="M 44.578125 46.390625 
Q 43.21875 47.125 41.453125 47.515625 
Q 39.703125 47.90625 37.703125 47.90625 
Q 30.515625 47.90625 25.140625 42.453125 
Q 19.78125 37.015625 18.015625 27.875 
L 12.5 0 
L 3.515625 0 
L 14.203125 54.6875 
L 23.1875 54.6875 
L 21.484375 46.1875 
Q 25.046875 50.921875 30 53.453125 
Q 34.96875 56 40.578125 56 
Q 42.046875 56 43.453125 55.828125 
Q 44.875 55.671875 46.296875 55.28125 
z
" id="DejaVuSans-Oblique-114"/>
      <path d="M 40.921875 25.4375 
L 40.96875 36.71875 
Q 41.015625 48.25 32.328125 48.296875 
Q 25.828125 48.34375 21.78125 42.921875 
Q 16.703125 36.234375 14.984375 27.296875 
Q 12.890625 16.546875 15.53125 11.421875 
Q 18.265625 6.203125 24.171875 6.203125 
Q 30.71875 6.203125 36.234375 16.609375 
z
M 33.84375 55.90625 
Q 49.078125 56.15625 48.875 40.375 
Q 48.875 40.375 56.5 54.6875 
L 64.5 54.6875 
L 48.734375 25.046875 
L 48.578125 14.359375 
Q 48.578125 11.96875 49.90625 9.96875 
Q 51.421875 7.625 52.984375 7.625 
L 57.328125 7.625 
L 55.859375 0 
L 50.4375 0 
Q 45.84375 0 42.53125 4.109375 
Q 40.96875 6.15625 40.921875 10.453125 
Q 37.75 5.21875 32.28125 0.78125 
Q 29.6875 -1.265625 22.703125 -1.21875 
Q 11.28125 -1.125 7.125 6.203125 
Q 2.875 13.8125 5.515625 27.296875 
Q 8.34375 41.796875 15.765625 48.390625 
Q 24.125 55.765625 33.84375 55.90625 
z
" id="DejaVuSans-Oblique-945"/>
      <path d="M 10.59375 45.40625 
L 73.1875 45.40625 
L 73.1875 37.203125 
L 10.59375 37.203125 
z
M 10.59375 25.484375 
L 73.1875 25.484375 
L 73.1875 17.1875 
L 10.59375 17.1875 
z
" id="DejaVuSans-61"/>
      <path d="M 12.40625 8.296875 
L 28.515625 8.296875 
L 28.515625 63.921875 
L 10.984375 60.40625 
L 10.984375 69.390625 
L 28.421875 72.90625 
L 38.28125 72.90625 
L 38.28125 8.296875 
L 54.390625 8.296875 
L 54.390625 0 
L 12.40625 0 
z
" id="DejaVuSans-49"/>
      <path d="M 11.71875 12.40625 
L 22.015625 12.40625 
L 22.015625 4 
L 14.015625 -11.625 
L 7.71875 -11.625 
L 11.71875 4 
z
" id="DejaVuSans-44"/>
      <path d="M 45.515625 34.671875 
L 14.453125 34.671875 
Q 12.359375 20.0625 14.5 13.875 
Q 17.1875 6.25 24.46875 6.25 
Q 31.78125 6.25 37.359375 13.921875 
Q 42.234375 20.65625 45.515625 34.671875 
z
M 47.015625 42.96875 
Q 48.34375 56.84375 46.625 61.71875 
Q 43.953125 69.4375 36.765625 69.4375 
Q 29.296875 69.4375 23.828125 61.8125 
Q 19.53125 55.671875 16.15625 42.96875 
z
M 38.1875 76.765625 
Q 49.90625 76.765625 54.59375 66.40625 
Q 59.28125 56.109375 55.71875 37.84375 
Q 52.203125 19.625 43.453125 9.28125 
Q 34.765625 -1.125 23.046875 -1.125 
Q 11.28125 -1.125 6.640625 9.28125 
Q 2 19.625 5.515625 37.84375 
Q 9.078125 56.109375 17.71875 66.40625 
Q 26.421875 76.765625 38.1875 76.765625 
z
" id="DejaVuSans-Oblique-952"/>
     </defs>
     <g transform="translate(999.047848 199.539875)scale(0.088 -0.088)">
      <use transform="translate(0 0.765625)" xlink:href="#DejaVuSans-Oblique-114"/>
      <use transform="translate(45.763177 39.046875)scale(0.7)" xlink:href="#DejaVuSans-50"/>
      <use transform="translate(93.033685 0.765625)" xlink:href="#DejaVuSans-40"/>
      <use transform="translate(132.047357 0.765625)" xlink:href="#DejaVuSans-Oblique-945"/>
      <use transform="translate(217.447747 0.765625)" xlink:href="#DejaVuSans-61"/>
      <use transform="translate(320.719232 0.765625)" xlink:href="#DejaVuSans-49"/>
      <use transform="translate(384.342279 0.765625)" xlink:href="#DejaVuSans-44"/>
      <use transform="translate(435.61181 0.765625)" xlink:href="#DejaVuSans-Oblique-952"/>
      <use transform="translate(516.275872 0.765625)" xlink:href="#DejaVuSans-61"/>
      <use transform="translate(619.547357 0.765625)" xlink:href="#DejaVuSans-48"/>
      <use transform="translate(683.170404 0.765625)" xlink:href="#DejaVuSans-41"/>
     </g>
    </g>
    <g id="patch_68">
     <path d="M 974.407848 213.179875 
L 992.007848 213.179875 
L 992.007848 207.019875 
L 974.407848 207.019875 
z
" style="fill:#76b7b2;"/>
    </g>
    <g id="text_21">
     <!-- $D^2 (\alpha=1, \theta=0)$ -->
     <defs>
      <path d="M 16.890625 72.90625 
L 38.09375 72.90625 
Q 54.984375 72.90625 63.59375 65.75 
Q 72.21875 58.59375 72.21875 44.484375 
Q 72.21875 35.15625 68.9375 26.53125 
Q 65.671875 17.921875 59.90625 12.015625 
Q 54.109375 5.953125 45.171875 2.96875 
Q 36.234375 0 24.03125 0 
L 2.6875 0 
z
M 25.203125 64.796875 
L 14.203125 8.109375 
L 27.09375 8.109375 
Q 43.65625 8.109375 52.734375 17.625 
Q 61.8125 27.15625 61.8125 44.484375 
Q 61.8125 54.984375 55.953125 59.890625 
Q 50.09375 64.796875 37.59375 64.796875 
z
" id="DejaVuSans-Oblique-68"/>
     </defs>
     <g transform="translate(999.047848 213.179875)scale(0.088 -0.088)">
      <use transform="translate(0 0.765625)" xlink:href="#DejaVuSans-Oblique-68"/>
      <use transform="translate(84.018724 39.046875)scale(0.7)" xlink:href="#DejaVuSans-50"/>
      <use transform="translate(131.289232 0.765625)" xlink:href="#DejaVuSans-40"/>
      <use transform="translate(170.302904 0.765625)" xlink:href="#DejaVuSans-Oblique-945"/>
      <use transform="translate(255.703294 0.765625)" xlink:href="#DejaVuSans-61"/>
      <use transform="translate(358.974779 0.765625)" xlink:href="#DejaVuSans-49"/>
      <use transform="translate(422.597826 0.765625)" xlink:href="#DejaVuSans-44"/>
      <use transform="translate(473.867357 0.765625)" xlink:href="#DejaVuSans-Oblique-952"/>
      <use transform="translate(554.531419 0.765625)" xlink:href="#DejaVuSans-61"/>
      <use transform="translate(657.802904 0.765625)" xlink:href="#DejaVuSans-48"/>
      <use transform="translate(721.425951 0.765625)" xlink:href="#DejaVuSans-41"/>
     </g>
    </g>
    <g id="patch_69">
     <path d="M 974.407848 226.819875 
L 992.007848 226.819875 
L 992.007848 220.659875 
L 974.407848 220.659875 
z
" style="fill:#e15759;"/>
    </g>
    <g id="text_22">
     <!-- $D^2 (\alpha=0, \theta=0)$ -->
     <g transform="translate(999.047848 226.819875)scale(0.088 -0.088)">
      <use transform="translate(0 0.765625)" xlink:href="#DejaVuSans-Oblique-68"/>
      <use transform="translate(84.018724 39.046875)scale(0.7)" xlink:href="#DejaVuSans-50"/>
      <use transform="translate(131.289232 0.765625)" xlink:href="#DejaVuSans-40"/>
      <use transform="translate(170.302904 0.765625)" xlink:href="#DejaVuSans-Oblique-945"/>
      <use transform="translate(255.703294 0.765625)" xlink:href="#DejaVuSans-61"/>
      <use transform="translate(358.974779 0.765625)" xlink:href="#DejaVuSans-48"/>
      <use transform="translate(422.597826 0.765625)" xlink:href="#DejaVuSans-44"/>
      <use transform="translate(473.867357 0.765625)" xlink:href="#DejaVuSans-Oblique-952"/>
      <use transform="translate(554.531419 0.765625)" xlink:href="#DejaVuSans-61"/>
      <use transform="translate(657.802904 0.765625)" xlink:href="#DejaVuSans-48"/>
      <use transform="translate(721.425951 0.765625)" xlink:href="#DejaVuSans-41"/>
     </g>
    </g>
    <g id="patch_70">
     <path d="M 974.407848 240.459875 
L 992.007848 240.459875 
L 992.007848 234.299875 
L 974.407848 234.299875 
z
" style="fill:url(#h7ea8a51115);stroke:#ffffff;stroke-linejoin:miter;stroke-width:0.8;"/>
    </g>
    <g id="text_23">
     <!-- $r^2 (\alpha=1, \theta=1)$ -->
     <g transform="translate(999.047848 240.459875)scale(0.088 -0.088)">
      <use transform="translate(0 0.765625)" xlink:href="#DejaVuSans-Oblique-114"/>
      <use transform="translate(45.763177 39.046875)scale(0.7)" xlink:href="#DejaVuSans-50"/>
      <use transform="translate(93.033685 0.765625)" xlink:href="#DejaVuSans-40"/>
      <use transform="translate(132.047357 0.765625)" xlink:href="#DejaVuSans-Oblique-945"/>
      <use transform="translate(217.447747 0.765625)" xlink:href="#DejaVuSans-61"/>
      <use transform="translate(320.719232 0.765625)" xlink:href="#DejaVuSans-49"/>
      <use transform="translate(384.342279 0.765625)" xlink:href="#DejaVuSans-44"/>
      <use transform="translate(435.61181 0.765625)" xlink:href="#DejaVuSans-Oblique-952"/>
      <use transform="translate(516.275872 0.765625)" xlink:href="#DejaVuSans-61"/>
      <use transform="translate(619.547357 0.765625)" xlink:href="#DejaVuSans-49"/>
      <use transform="translate(683.170404 0.765625)" xlink:href="#DejaVuSans-41"/>
     </g>
    </g>
    <g id="patch_71">
     <path d="M 974.407848 254.099875 
L 992.007848 254.099875 
L 992.007848 247.939875 
L 974.407848 247.939875 
z
" style="fill:url(#h29bbd8fc52);stroke:#ffffff;stroke-linejoin:miter;stroke-width:0.8;"/>
    </g>
    <g id="text_24">
     <!-- $D^2 (\alpha=0, \theta=1)$ -->
     <g transform="translate(999.047848 254.099875)scale(0.088 -0.088)">
      <use transform="translate(0 0.765625)" xlink:href="#DejaVuSans-Oblique-68"/>
      <use transform="translate(84.018724 39.046875)scale(0.7)" xlink:href="#DejaVuSans-50"/>
      <use transform="translate(131.289232 0.765625)" xlink:href="#DejaVuSans-40"/>
      <use transform="translate(170.302904 0.765625)" xlink:href="#DejaVuSans-Oblique-945"/>
      <use transform="translate(255.703294 0.765625)" xlink:href="#DejaVuSans-61"/>
      <use transform="translate(358.974779 0.765625)" xlink:href="#DejaVuSans-48"/>
      <use transform="translate(422.597826 0.765625)" xlink:href="#DejaVuSans-44"/>
      <use transform="translate(473.867357 0.765625)" xlink:href="#DejaVuSans-Oblique-952"/>
      <use transform="translate(554.531419 0.765625)" xlink:href="#DejaVuSans-61"/>
      <use transform="translate(657.802904 0.765625)" xlink:href="#DejaVuSans-49"/>
      <use transform="translate(721.425951 0.765625)" xlink:href="#DejaVuSans-41"/>
     </g>
    </g>
   </g>
  </g>
 </g>
 <defs>
  <clipPath id="p5845cab2b3">
   <rect height="400.924" width="901.326582" x="56.148" y="23.568"/>
  </clipPath>
 </defs>
 <defs>
  <pattern height="72" id="h7ea8a51115" patternUnits="userSpaceOnUse" width="72" x="0" y="0">
   <rect fill="#f28e2b" height="73" width="73" x="0" y="0"/>
   <path d="M -36 36 
L 36 -36 
M -33 39 
L 39 -33 
M -30 42 
L 42 -30 
M -27 45 
L 45 -27 
M -24 48 
L 48 -24 
M -21 51 
L 51 -21 
M -18 54 
L 54 -18 
M -15 57 
L 57 -15 
M -12 60 
L 60 -12 
M -9 63 
L 63 -9 
M -6 66 
L 66 -6 
M -3 69 
L 69 -3 
M 0 72 
L 72 0 
M 3 75 
L 75 3 
M 6 78 
L 78 6 
M 9 81 
L 81 9 
M 12 84 
L 84 12 
M 15 87 
L 87 15 
M 18 90 
L 90 18 
M 21 93 
L 93 21 
M 24 96 
L 96 24 
M 27 99 
L 99 27 
M 30 102 
L 102 30 
M 33 105 
L 105 33 
M 36 108 
L 108 36 
" style="fill:#ffffff;stroke:#ffffff;stroke-linecap:butt;stroke-linejoin:miter;stroke-width:2.0;"/>
  </pattern>
  <pattern height="72" id="h29bbd8fc52" patternUnits="userSpaceOnUse" width="72" x="0" y="0">
   <rect fill="#e15759" height="73" width="73" x="0" y="0"/>
   <path d="M -36 36 
L 36 -36 
M -33 39 
L 39 -33 
M -30 42 
L 42 -30 
M -27 45 
L 45 -27 
M -24 48 
L 48 -24 
M -21 51 
L 51 -21 
M -18 54 
L 54 -18 
M -15 57 
L 57 -15 
M -12 60 
L 60 -12 
M -9 63 
L 63 -9 
M -6 66 
L 66 -6 
M -3 69 
L 69 -3 
M 0 72 
L 72 0 
M 3 75 
L 75 3 
M 6 78 
L 78 6 
M 9 81 
L 81 9 
M 12 84 
L 84 12 
M 15 87 
L 87 15 
M 18 90 
L 90 18 
M 21 93 
L 93 21 
M 24 96 
L 96 24 
M 27 99 
L 99 27 
M 30 102 
L 102 30 
M 33 105 
L 105 33 
M 36 108 
L 108 36 
" style="fill:#ffffff;stroke:#ffffff;stroke-linecap:butt;stroke-linejoin:miter;stroke-width:2.0;"/>
  </pattern>
 </defs>
</svg>
