<?xml version="1.0" encoding="utf-8" standalone="no"?>
<!DOCTYPE svg PUBLIC "-//W3C//DTD SVG 1.1//EN"
  "http://www.w3.org/Graphics/SVG/1.1/DTD/svg11.dtd">
<!-- Created with matplotlib (https://matplotlib.org/) -->
<svg height="720pt" version="1.1" viewBox="0 0 1080 720" width="1080pt" xmlns="http://www.w3.org/2000/svg" xmlns:xlink="http://www.w3.org/1999/xlink">
 <defs>
  <style type="text/css">
*{stroke-linecap:butt;stroke-linejoin:round;}
  </style>
 </defs>
 <g id="figure_1">
  <g id="patch_1">
   <path d="M 0 720 
L 1080 720 
L 1080 0 
L 0 0 
z
" style="fill:#ffffff;"/>
  </g>
  <g id="axes_1">
   <g id="patch_2">
    <path d="M 90.084 464.32 
L 880.920732 464.32 
L 880.920732 19.44 
L 90.084 19.44 
z
" style="fill:#ffffff;"/>
   </g>
   <g id="patch_3">
    <path clip-path="url(#pf9df6ba42e)" d="M 126.031124 464.32 
L 134.200925 464.32 
L 134.200925 125.083528 
L 126.031124 125.083528 
z
" style="fill:url(#h844fd319ef);stroke:#ffffff;stroke-linejoin:miter;stroke-width:1.5;"/>
   </g>
   <g id="patch_4">
    <path clip-path="url(#pf9df6ba42e)" d="M 175.04993 464.32 
L 183.219731 464.32 
L 183.219731 340.419567 
L 175.04993 340.419567 
z
" style="fill:url(#h844fd319ef);stroke:#ffffff;stroke-linejoin:miter;stroke-width:1.5;"/>
   </g>
   <g id="patch_5">
    <path clip-path="url(#pf9df6ba42e)" d="M 224.068736 464.32 
L 232.238537 464.32 
L 232.238537 349.447548 
L 224.068736 349.447548 
z
" style="fill:url(#h844fd319ef);stroke:#ffffff;stroke-linejoin:miter;stroke-width:1.5;"/>
   </g>
   <g id="patch_6">
    <path clip-path="url(#pf9df6ba42e)" d="M 273.087541 464.32 
L 281.257342 464.32 
L 281.257342 358.795927 
L 273.087541 358.795927 
z
" style="fill:url(#h844fd319ef);stroke:#ffffff;stroke-linejoin:miter;stroke-width:1.5;"/>
   </g>
   <g id="patch_7">
    <path clip-path="url(#pf9df6ba42e)" d="M 322.106347 464.32 
L 330.276148 464.32 
L 330.276148 323.304581 
L 322.106347 323.304581 
z
" style="fill:url(#h844fd319ef);stroke:#ffffff;stroke-linejoin:miter;stroke-width:1.5;"/>
   </g>
   <g id="patch_8">
    <path clip-path="url(#pf9df6ba42e)" d="M 371.125153 464.32 
L 379.294954 464.32 
L 379.294954 299.065929 
L 371.125153 299.065929 
z
" style="fill:url(#h844fd319ef);stroke:#ffffff;stroke-linejoin:miter;stroke-width:1.5;"/>
   </g>
   <g id="patch_9">
    <path clip-path="url(#pf9df6ba42e)" d="M 420.143959 464.32 
L 428.31376 464.32 
L 428.31376 293.215494 
L 420.143959 293.215494 
z
" style="fill:url(#h844fd319ef);stroke:#ffffff;stroke-linejoin:miter;stroke-width:1.5;"/>
   </g>
   <g id="patch_10">
    <path clip-path="url(#pf9df6ba42e)" d="M 469.162764 464.32 
L 477.332565 464.32 
L 477.332565 352.324272 
L 469.162764 352.324272 
z
" style="fill:url(#h844fd319ef);stroke:#ffffff;stroke-linejoin:miter;stroke-width:1.5;"/>
   </g>
   <g id="patch_11">
    <path clip-path="url(#pf9df6ba42e)" d="M 518.18157 464.32 
L 526.351371 464.32 
L 526.351371 389.404281 
L 518.18157 389.404281 
z
" style="fill:url(#h844fd319ef);stroke:#ffffff;stroke-linejoin:miter;stroke-width:1.5;"/>
   </g>
   <g id="patch_12">
    <path clip-path="url(#pf9df6ba42e)" d="M 567.200376 464.32 
L 575.370177 464.32 
L 575.370177 365.357401 
L 567.200376 365.357401 
z
" style="fill:url(#h844fd319ef);stroke:#ffffff;stroke-linejoin:miter;stroke-width:1.5;"/>
   </g>
   <g id="patch_13">
    <path clip-path="url(#pf9df6ba42e)" d="M 616.219181 464.32 
L 624.388982 464.32 
L 624.388982 421.024661 
L 616.219181 421.024661 
z
" style="fill:url(#h844fd319ef);stroke:#ffffff;stroke-linejoin:miter;stroke-width:1.5;"/>
   </g>
   <g id="patch_14">
    <path clip-path="url(#pf9df6ba42e)" d="M 665.237987 464.32 
L 673.407788 464.32 
L 673.407788 409.0832 
L 665.237987 409.0832 
z
" style="fill:url(#h844fd319ef);stroke:#ffffff;stroke-linejoin:miter;stroke-width:1.5;"/>
   </g>
   <g id="patch_15">
    <path clip-path="url(#pf9df6ba42e)" d="M 714.256793 464.32 
L 722.426594 464.32 
L 722.426594 416.132308 
L 714.256793 416.132308 
z
" style="fill:url(#h844fd319ef);stroke:#ffffff;stroke-linejoin:miter;stroke-width:1.5;"/>
   </g>
   <g id="patch_16">
    <path clip-path="url(#pf9df6ba42e)" d="M 763.275599 464.32 
L 771.4454 464.32 
L 771.4454 396.661383 
L 763.275599 396.661383 
z
" style="fill:url(#h844fd319ef);stroke:#ffffff;stroke-linejoin:miter;stroke-width:1.5;"/>
   </g>
   <g id="patch_17">
    <path clip-path="url(#pf9df6ba42e)" d="M 812.294404 464.32 
L 820.464205 464.32 
L 820.464205 410.919163 
L 812.294404 410.919163 
z
" style="fill:url(#h844fd319ef);stroke:#ffffff;stroke-linejoin:miter;stroke-width:1.5;"/>
   </g>
   <g id="patch_18">
    <path clip-path="url(#pf9df6ba42e)" d="M 134.200925 464.32 
L 142.370726 464.32 
L 142.370726 70.616945 
L 134.200925 70.616945 
z
" style="fill:url(#ha170bdbdfe);stroke:#ffffff;stroke-linejoin:miter;stroke-width:1.5;"/>
   </g>
   <g id="patch_19">
    <path clip-path="url(#pf9df6ba42e)" d="M 183.219731 464.32 
L 191.389532 464.32 
L 191.389532 322.272188 
L 183.219731 322.272188 
z
" style="fill:url(#ha170bdbdfe);stroke:#ffffff;stroke-linejoin:miter;stroke-width:1.5;"/>
   </g>
   <g id="patch_20">
    <path clip-path="url(#pf9df6ba42e)" d="M 232.238537 464.32 
L 240.408338 464.32 
L 240.408338 332.437035 
L 232.238537 332.437035 
z
" style="fill:url(#ha170bdbdfe);stroke:#ffffff;stroke-linejoin:miter;stroke-width:1.5;"/>
   </g>
   <g id="patch_21">
    <path clip-path="url(#pf9df6ba42e)" d="M 281.257342 464.32 
L 289.427143 464.32 
L 289.427143 345.681147 
L 281.257342 345.681147 
z
" style="fill:url(#ha170bdbdfe);stroke:#ffffff;stroke-linejoin:miter;stroke-width:1.5;"/>
   </g>
   <g id="patch_22">
    <path clip-path="url(#pf9df6ba42e)" d="M 330.276148 464.32 
L 338.445949 464.32 
L 338.445949 310.331953 
L 330.276148 310.331953 
z
" style="fill:url(#ha170bdbdfe);stroke:#ffffff;stroke-linejoin:miter;stroke-width:1.5;"/>
   </g>
   <g id="patch_23">
    <path clip-path="url(#pf9df6ba42e)" d="M 379.294954 464.32 
L 387.464755 464.32 
L 387.464755 278.55638 
L 379.294954 278.55638 
z
" style="fill:url(#ha170bdbdfe);stroke:#ffffff;stroke-linejoin:miter;stroke-width:1.5;"/>
   </g>
   <g id="patch_24">
    <path clip-path="url(#pf9df6ba42e)" d="M 428.31376 464.32 
L 436.48356 464.32 
L 436.48356 271.219443 
L 428.31376 271.219443 
z
" style="fill:url(#ha170bdbdfe);stroke:#ffffff;stroke-linejoin:miter;stroke-width:1.5;"/>
   </g>
   <g id="patch_25">
    <path clip-path="url(#pf9df6ba42e)" d="M 477.332565 464.32 
L 485.502366 464.32 
L 485.502366 340.533644 
L 477.332565 340.533644 
z
" style="fill:url(#ha170bdbdfe);stroke:#ffffff;stroke-linejoin:miter;stroke-width:1.5;"/>
   </g>
   <g id="patch_26">
    <path clip-path="url(#pf9df6ba42e)" d="M 526.351371 464.32 
L 534.521172 464.32 
L 534.521172 379.663693 
L 526.351371 379.663693 
z
" style="fill:url(#ha170bdbdfe);stroke:#ffffff;stroke-linejoin:miter;stroke-width:1.5;"/>
   </g>
   <g id="patch_27">
    <path clip-path="url(#pf9df6ba42e)" d="M 575.370177 464.32 
L 583.539978 464.32 
L 583.539978 355.262855 
L 575.370177 355.262855 
z
" style="fill:url(#ha170bdbdfe);stroke:#ffffff;stroke-linejoin:miter;stroke-width:1.5;"/>
   </g>
   <g id="patch_28">
    <path clip-path="url(#pf9df6ba42e)" d="M 624.388982 464.32 
L 632.558783 464.32 
L 632.558783 416.321011 
L 624.388982 416.321011 
z
" style="fill:url(#ha170bdbdfe);stroke:#ffffff;stroke-linejoin:miter;stroke-width:1.5;"/>
   </g>
   <g id="patch_29">
    <path clip-path="url(#pf9df6ba42e)" d="M 673.407788 464.32 
L 681.577589 464.32 
L 681.577589 403.375445 
L 673.407788 403.375445 
z
" style="fill:url(#ha170bdbdfe);stroke:#ffffff;stroke-linejoin:miter;stroke-width:1.5;"/>
   </g>
   <g id="patch_30">
    <path clip-path="url(#pf9df6ba42e)" d="M 722.426594 464.32 
L 730.596395 464.32 
L 730.596395 411.776327 
L 722.426594 411.776327 
z
" style="fill:url(#ha170bdbdfe);stroke:#ffffff;stroke-linejoin:miter;stroke-width:1.5;"/>
   </g>
   <g id="patch_31">
    <path clip-path="url(#pf9df6ba42e)" d="M 771.4454 464.32 
L 779.615201 464.32 
L 779.615201 391.940925 
L 771.4454 391.940925 
z
" style="fill:url(#ha170bdbdfe);stroke:#ffffff;stroke-linejoin:miter;stroke-width:1.5;"/>
   </g>
   <g id="patch_32">
    <path clip-path="url(#pf9df6ba42e)" d="M 820.464205 464.32 
L 828.634006 464.32 
L 828.634006 408.92956 
L 820.464205 408.92956 
z
" style="fill:url(#ha170bdbdfe);stroke:#ffffff;stroke-linejoin:miter;stroke-width:1.5;"/>
   </g>
   <g id="patch_33">
    <path clip-path="url(#pf9df6ba42e)" d="M 142.370726 464.32 
L 150.540527 464.32 
L 150.540527 62.08033 
L 142.370726 62.08033 
z
" style="fill:#b07aa1;"/>
   </g>
   <g id="patch_34">
    <path clip-path="url(#pf9df6ba42e)" d="M 191.389532 464.32 
L 199.559333 464.32 
L 199.559333 299.744265 
L 191.389532 299.744265 
z
" style="fill:#b07aa1;"/>
   </g>
   <g id="patch_35">
    <path clip-path="url(#pf9df6ba42e)" d="M 240.408338 464.32 
L 248.578139 464.32 
L 248.578139 308.794584 
L 240.408338 308.794584 
z
" style="fill:#b07aa1;"/>
   </g>
   <g id="patch_36">
    <path clip-path="url(#pf9df6ba42e)" d="M 289.427143 464.32 
L 297.596944 464.32 
L 297.596944 326.093243 
L 289.427143 326.093243 
z
" style="fill:#b07aa1;"/>
   </g>
   <g id="patch_37">
    <path clip-path="url(#pf9df6ba42e)" d="M 338.445949 464.32 
L 346.61575 464.32 
L 346.61575 298.608573 
L 338.445949 298.608573 
z
" style="fill:#b07aa1;"/>
   </g>
   <g id="patch_38">
    <path clip-path="url(#pf9df6ba42e)" d="M 387.464755 464.32 
L 395.634556 464.32 
L 395.634556 255.210483 
L 387.464755 255.210483 
z
" style="fill:#b07aa1;"/>
   </g>
   <g id="patch_39">
    <path clip-path="url(#pf9df6ba42e)" d="M 436.48356 464.32 
L 444.653361 464.32 
L 444.653361 252.899109 
L 436.48356 252.899109 
z
" style="fill:#b07aa1;"/>
   </g>
   <g id="patch_40">
    <path clip-path="url(#pf9df6ba42e)" d="M 485.502366 464.32 
L 493.672167 464.32 
L 493.672167 324.982773 
L 485.502366 324.982773 
z
" style="fill:#b07aa1;"/>
   </g>
   <g id="patch_41">
    <path clip-path="url(#pf9df6ba42e)" d="M 534.521172 464.32 
L 542.690973 464.32 
L 542.690973 362.646529 
L 534.521172 362.646529 
z
" style="fill:#b07aa1;"/>
   </g>
   <g id="patch_42">
    <path clip-path="url(#pf9df6ba42e)" d="M 583.539978 464.32 
L 591.709779 464.32 
L 591.709779 328.836145 
L 583.539978 328.836145 
z
" style="fill:#b07aa1;"/>
   </g>
   <g id="patch_43">
    <path clip-path="url(#pf9df6ba42e)" d="M 632.558783 464.32 
L 640.728584 464.32 
L 640.728584 392.147937 
L 632.558783 392.147937 
z
" style="fill:#b07aa1;"/>
   </g>
   <g id="patch_44">
    <path clip-path="url(#pf9df6ba42e)" d="M 681.577589 464.32 
L 689.74739 464.32 
L 689.74739 396.388607 
L 681.577589 396.388607 
z
" style="fill:#b07aa1;"/>
   </g>
   <g id="patch_45">
    <path clip-path="url(#pf9df6ba42e)" d="M 730.596395 464.32 
L 738.766196 464.32 
L 738.766196 404.755421 
L 730.596395 404.755421 
z
" style="fill:#b07aa1;"/>
   </g>
   <g id="patch_46">
    <path clip-path="url(#pf9df6ba42e)" d="M 779.615201 464.32 
L 787.785002 464.32 
L 787.785002 383.109599 
L 779.615201 383.109599 
z
" style="fill:#b07aa1;"/>
   </g>
   <g id="patch_47">
    <path clip-path="url(#pf9df6ba42e)" d="M 828.634006 464.32 
L 836.803807 464.32 
L 836.803807 398.908928 
L 828.634006 398.908928 
z
" style="fill:#b07aa1;"/>
   </g>
   <g id="patch_48">
    <path clip-path="url(#pf9df6ba42e)" d="M 150.540527 464.32 
L 158.710328 464.32 
L 158.710328 55.89396 
L 150.540527 55.89396 
z
" style="fill:#e15759;"/>
   </g>
   <g id="patch_49">
    <path clip-path="url(#pf9df6ba42e)" d="M 199.559333 464.32 
L 207.729134 464.32 
L 207.729134 302.32785 
L 199.559333 302.32785 
z
" style="fill:#e15759;"/>
   </g>
   <g id="patch_50">
    <path clip-path="url(#pf9df6ba42e)" d="M 248.578139 464.32 
L 256.747939 464.32 
L 256.747939 309.529932 
L 248.578139 309.529932 
z
" style="fill:#e15759;"/>
   </g>
   <g id="patch_51">
    <path clip-path="url(#pf9df6ba42e)" d="M 297.596944 464.32 
L 305.766745 464.32 
L 305.766745 330.184607 
L 297.596944 330.184607 
z
" style="fill:#e15759;"/>
   </g>
   <g id="patch_52">
    <path clip-path="url(#pf9df6ba42e)" d="M 346.61575 464.32 
L 354.785551 464.32 
L 354.785551 304.887428 
L 346.61575 304.887428 
z
" style="fill:#e15759;"/>
   </g>
   <g id="patch_53">
    <path clip-path="url(#pf9df6ba42e)" d="M 395.634556 464.32 
L 403.804357 464.32 
L 403.804357 257.158505 
L 395.634556 257.158505 
z
" style="fill:#e15759;"/>
   </g>
   <g id="patch_54">
    <path clip-path="url(#pf9df6ba42e)" d="M 444.653361 464.32 
L 452.823162 464.32 
L 452.823162 257.37123 
L 444.653361 257.37123 
z
" style="fill:#e15759;"/>
   </g>
   <g id="patch_55">
    <path clip-path="url(#pf9df6ba42e)" d="M 493.672167 464.32 
L 501.841968 464.32 
L 501.841968 329.612833 
L 493.672167 329.612833 
z
" style="fill:#e15759;"/>
   </g>
   <g id="patch_56">
    <path clip-path="url(#pf9df6ba42e)" d="M 542.690973 464.32 
L 550.860774 464.32 
L 550.860774 366.161132 
L 542.690973 366.161132 
z
" style="fill:#e15759;"/>
   </g>
   <g id="patch_57">
    <path clip-path="url(#pf9df6ba42e)" d="M 591.709779 464.32 
L 599.87958 464.32 
L 599.87958 338.202691 
L 591.709779 338.202691 
z
" style="fill:#e15759;"/>
   </g>
   <g id="patch_58">
    <path clip-path="url(#pf9df6ba42e)" d="M 640.728584 464.32 
L 648.898385 464.32 
L 648.898385 395.418299 
L 640.728584 395.418299 
z
" style="fill:#e15759;"/>
   </g>
   <g id="patch_59">
    <path clip-path="url(#pf9df6ba42e)" d="M 689.74739 464.32 
L 697.917191 464.32 
L 697.917191 398.20541 
L 689.74739 398.20541 
z
" style="fill:#e15759;"/>
   </g>
   <g id="patch_60">
    <path clip-path="url(#pf9df6ba42e)" d="M 738.766196 464.32 
L 746.935997 464.32 
L 746.935997 407.537915 
L 738.766196 407.537915 
z
" style="fill:#e15759;"/>
   </g>
   <g id="patch_61">
    <path clip-path="url(#pf9df6ba42e)" d="M 787.785002 464.32 
L 795.954802 464.32 
L 795.954802 388.700079 
L 787.785002 388.700079 
z
" style="fill:#e15759;"/>
   </g>
   <g id="patch_62">
    <path clip-path="url(#pf9df6ba42e)" d="M 836.803807 464.32 
L 844.973608 464.32 
L 844.973608 404.616238 
L 836.803807 404.616238 
z
" style="fill:#e15759;"/>
   </g>
   <g id="matplotlib.axis_1">
    <g id="xtick_1">
     <g id="line2d_1">
      <defs>
       <path d="M 0 0 
L 0 9 
" id="m4529e5ba37" style="stroke:#000000;stroke-width:1.875;"/>
      </defs>
      <g>
       <use style="stroke:#000000;stroke-width:1.875;" x="146.455627" xlink:href="#m4529e5ba37" y="464.32"/>
      </g>
     </g>
     <g id="text_1">
      <!-- Height (UKBB) -->
      <defs>
       <path d="M 9.8125 72.90625 
L 19.671875 72.90625 
L 19.671875 43.015625 
L 55.515625 43.015625 
L 55.515625 72.90625 
L 65.375 72.90625 
L 65.375 0 
L 55.515625 0 
L 55.515625 34.71875 
L 19.671875 34.71875 
L 19.671875 0 
L 9.8125 0 
z
" id="DejaVuSans-72"/>
       <path d="M 56.203125 29.59375 
L 56.203125 25.203125 
L 14.890625 25.203125 
Q 15.484375 15.921875 20.484375 11.0625 
Q 25.484375 6.203125 34.421875 6.203125 
Q 39.59375 6.203125 44.453125 7.46875 
Q 49.3125 8.734375 54.109375 11.28125 
L 54.109375 2.78125 
Q 49.265625 0.734375 44.1875 -0.34375 
Q 39.109375 -1.421875 33.890625 -1.421875 
Q 20.796875 -1.421875 13.15625 6.1875 
Q 5.515625 13.8125 5.515625 26.8125 
Q 5.515625 40.234375 12.765625 48.109375 
Q 20.015625 56 32.328125 56 
Q 43.359375 56 49.78125 48.890625 
Q 56.203125 41.796875 56.203125 29.59375 
z
M 47.21875 32.234375 
Q 47.125 39.59375 43.09375 43.984375 
Q 39.0625 48.390625 32.421875 48.390625 
Q 24.90625 48.390625 20.390625 44.140625 
Q 15.875 39.890625 15.1875 32.171875 
z
" id="DejaVuSans-101"/>
       <path d="M 9.421875 54.6875 
L 18.40625 54.6875 
L 18.40625 0 
L 9.421875 0 
z
M 9.421875 75.984375 
L 18.40625 75.984375 
L 18.40625 64.59375 
L 9.421875 64.59375 
z
" id="DejaVuSans-105"/>
       <path d="M 45.40625 27.984375 
Q 45.40625 37.75 41.375 43.109375 
Q 37.359375 48.484375 30.078125 48.484375 
Q 22.859375 48.484375 18.828125 43.109375 
Q 14.796875 37.75 14.796875 27.984375 
Q 14.796875 18.265625 18.828125 12.890625 
Q 22.859375 7.515625 30.078125 7.515625 
Q 37.359375 7.515625 41.375 12.890625 
Q 45.40625 18.265625 45.40625 27.984375 
z
M 54.390625 6.78125 
Q 54.390625 -7.171875 48.1875 -13.984375 
Q 42 -20.796875 29.203125 -20.796875 
Q 24.46875 -20.796875 20.265625 -20.09375 
Q 16.0625 -19.390625 12.109375 -17.921875 
L 12.109375 -9.1875 
Q 16.0625 -11.328125 19.921875 -12.34375 
Q 23.78125 -13.375 27.78125 -13.375 
Q 36.625 -13.375 41.015625 -8.765625 
Q 45.40625 -4.15625 45.40625 5.171875 
L 45.40625 9.625 
Q 42.625 4.78125 38.28125 2.390625 
Q 33.9375 0 27.875 0 
Q 17.828125 0 11.671875 7.65625 
Q 5.515625 15.328125 5.515625 27.984375 
Q 5.515625 40.671875 11.671875 48.328125 
Q 17.828125 56 27.875 56 
Q 33.9375 56 38.28125 53.609375 
Q 42.625 51.21875 45.40625 46.390625 
L 45.40625 54.6875 
L 54.390625 54.6875 
z
" id="DejaVuSans-103"/>
       <path d="M 54.890625 33.015625 
L 54.890625 0 
L 45.90625 0 
L 45.90625 32.71875 
Q 45.90625 40.484375 42.875 44.328125 
Q 39.84375 48.1875 33.796875 48.1875 
Q 26.515625 48.1875 22.3125 43.546875 
Q 18.109375 38.921875 18.109375 30.90625 
L 18.109375 0 
L 9.078125 0 
L 9.078125 75.984375 
L 18.109375 75.984375 
L 18.109375 46.1875 
Q 21.34375 51.125 25.703125 53.5625 
Q 30.078125 56 35.796875 56 
Q 45.21875 56 50.046875 50.171875 
Q 54.890625 44.34375 54.890625 33.015625 
z
" id="DejaVuSans-104"/>
       <path d="M 18.3125 70.21875 
L 18.3125 54.6875 
L 36.8125 54.6875 
L 36.8125 47.703125 
L 18.3125 47.703125 
L 18.3125 18.015625 
Q 18.3125 11.328125 20.140625 9.421875 
Q 21.96875 7.515625 27.59375 7.515625 
L 36.8125 7.515625 
L 36.8125 0 
L 27.59375 0 
Q 17.1875 0 13.234375 3.875 
Q 9.28125 7.765625 9.28125 18.015625 
L 9.28125 47.703125 
L 2.6875 47.703125 
L 2.6875 54.6875 
L 9.28125 54.6875 
L 9.28125 70.21875 
z
" id="DejaVuSans-116"/>
       <path id="DejaVuSans-32"/>
       <path d="M 31 75.875 
Q 24.46875 64.65625 21.28125 53.65625 
Q 18.109375 42.671875 18.109375 31.390625 
Q 18.109375 20.125 21.3125 9.0625 
Q 24.515625 -2 31 -13.1875 
L 23.1875 -13.1875 
Q 15.875 -1.703125 12.234375 9.375 
Q 8.59375 20.453125 8.59375 31.390625 
Q 8.59375 42.28125 12.203125 53.3125 
Q 15.828125 64.359375 23.1875 75.875 
z
" id="DejaVuSans-40"/>
       <path d="M 8.6875 72.90625 
L 18.609375 72.90625 
L 18.609375 28.609375 
Q 18.609375 16.890625 22.84375 11.734375 
Q 27.09375 6.59375 36.625 6.59375 
Q 46.09375 6.59375 50.34375 11.734375 
Q 54.59375 16.890625 54.59375 28.609375 
L 54.59375 72.90625 
L 64.5 72.90625 
L 64.5 27.390625 
Q 64.5 13.140625 57.4375 5.859375 
Q 50.390625 -1.421875 36.625 -1.421875 
Q 22.796875 -1.421875 15.734375 5.859375 
Q 8.6875 13.140625 8.6875 27.390625 
z
" id="DejaVuSans-85"/>
       <path d="M 9.8125 72.90625 
L 19.671875 72.90625 
L 19.671875 42.09375 
L 52.390625 72.90625 
L 65.09375 72.90625 
L 28.90625 38.921875 
L 67.671875 0 
L 54.6875 0 
L 19.671875 35.109375 
L 19.671875 0 
L 9.8125 0 
z
" id="DejaVuSans-75"/>
       <path d="M 19.671875 34.8125 
L 19.671875 8.109375 
L 35.5 8.109375 
Q 43.453125 8.109375 47.28125 11.40625 
Q 51.125 14.703125 51.125 21.484375 
Q 51.125 28.328125 47.28125 31.5625 
Q 43.453125 34.8125 35.5 34.8125 
z
M 19.671875 64.796875 
L 19.671875 42.828125 
L 34.28125 42.828125 
Q 41.5 42.828125 45.03125 45.53125 
Q 48.578125 48.25 48.578125 53.8125 
Q 48.578125 59.328125 45.03125 62.0625 
Q 41.5 64.796875 34.28125 64.796875 
z
M 9.8125 72.90625 
L 35.015625 72.90625 
Q 46.296875 72.90625 52.390625 68.21875 
Q 58.5 63.53125 58.5 54.890625 
Q 58.5 48.1875 55.375 44.234375 
Q 52.25 40.28125 46.1875 39.3125 
Q 53.46875 37.75 57.5 32.78125 
Q 61.53125 27.828125 61.53125 20.40625 
Q 61.53125 10.640625 54.890625 5.3125 
Q 48.25 0 35.984375 0 
L 9.8125 0 
z
" id="DejaVuSans-66"/>
       <path d="M 8.015625 75.875 
L 15.828125 75.875 
Q 23.140625 64.359375 26.78125 53.3125 
Q 30.421875 42.28125 30.421875 31.390625 
Q 30.421875 20.453125 26.78125 9.375 
Q 23.140625 -1.703125 15.828125 -13.1875 
L 8.015625 -13.1875 
Q 14.5 -2 17.703125 9.0625 
Q 20.90625 20.125 20.90625 31.390625 
Q 20.90625 42.671875 17.703125 53.65625 
Q 14.5 64.65625 8.015625 75.875 
z
" id="DejaVuSans-41"/>
      </defs>
      <g transform="translate(151.008595 595.021875)rotate(-90)scale(0.165 -0.165)">
       <use xlink:href="#DejaVuSans-72"/>
       <use x="75.195312" xlink:href="#DejaVuSans-101"/>
       <use x="136.71875" xlink:href="#DejaVuSans-105"/>
       <use x="164.501953" xlink:href="#DejaVuSans-103"/>
       <use x="227.978516" xlink:href="#DejaVuSans-104"/>
       <use x="291.357422" xlink:href="#DejaVuSans-116"/>
       <use x="330.566406" xlink:href="#DejaVuSans-32"/>
       <use x="362.353516" xlink:href="#DejaVuSans-40"/>
       <use x="401.367188" xlink:href="#DejaVuSans-85"/>
       <use x="474.560547" xlink:href="#DejaVuSans-75"/>
       <use x="540.136719" xlink:href="#DejaVuSans-66"/>
       <use x="608.740234" xlink:href="#DejaVuSans-66"/>
       <use x="677.34375" xlink:href="#DejaVuSans-41"/>
      </g>
     </g>
    </g>
    <g id="xtick_2">
     <g id="line2d_2">
      <g>
       <use style="stroke:#000000;stroke-width:1.875;" x="195.474432" xlink:href="#m4529e5ba37" y="464.32"/>
      </g>
     </g>
     <g id="text_2">
      <!-- FEV1-FVC Ratio -->
      <defs>
       <path d="M 9.8125 72.90625 
L 51.703125 72.90625 
L 51.703125 64.59375 
L 19.671875 64.59375 
L 19.671875 43.109375 
L 48.578125 43.109375 
L 48.578125 34.8125 
L 19.671875 34.8125 
L 19.671875 0 
L 9.8125 0 
z
" id="DejaVuSans-70"/>
       <path d="M 9.8125 72.90625 
L 55.90625 72.90625 
L 55.90625 64.59375 
L 19.671875 64.59375 
L 19.671875 43.015625 
L 54.390625 43.015625 
L 54.390625 34.71875 
L 19.671875 34.71875 
L 19.671875 8.296875 
L 56.78125 8.296875 
L 56.78125 0 
L 9.8125 0 
z
" id="DejaVuSans-69"/>
       <path d="M 28.609375 0 
L 0.78125 72.90625 
L 11.078125 72.90625 
L 34.1875 11.53125 
L 57.328125 72.90625 
L 67.578125 72.90625 
L 39.796875 0 
z
" id="DejaVuSans-86"/>
       <path d="M 12.40625 8.296875 
L 28.515625 8.296875 
L 28.515625 63.921875 
L 10.984375 60.40625 
L 10.984375 69.390625 
L 28.421875 72.90625 
L 38.28125 72.90625 
L 38.28125 8.296875 
L 54.390625 8.296875 
L 54.390625 0 
L 12.40625 0 
z
" id="DejaVuSans-49"/>
       <path d="M 4.890625 31.390625 
L 31.203125 31.390625 
L 31.203125 23.390625 
L 4.890625 23.390625 
z
" id="DejaVuSans-45"/>
       <path d="M 64.40625 67.28125 
L 64.40625 56.890625 
Q 59.421875 61.53125 53.78125 63.8125 
Q 48.140625 66.109375 41.796875 66.109375 
Q 29.296875 66.109375 22.65625 58.46875 
Q 16.015625 50.828125 16.015625 36.375 
Q 16.015625 21.96875 22.65625 14.328125 
Q 29.296875 6.6875 41.796875 6.6875 
Q 48.140625 6.6875 53.78125 8.984375 
Q 59.421875 11.28125 64.40625 15.921875 
L 64.40625 5.609375 
Q 59.234375 2.09375 53.4375 0.328125 
Q 47.65625 -1.421875 41.21875 -1.421875 
Q 24.65625 -1.421875 15.125 8.703125 
Q 5.609375 18.84375 5.609375 36.375 
Q 5.609375 53.953125 15.125 64.078125 
Q 24.65625 74.21875 41.21875 74.21875 
Q 47.75 74.21875 53.53125 72.484375 
Q 59.328125 70.75 64.40625 67.28125 
z
" id="DejaVuSans-67"/>
       <path d="M 44.390625 34.1875 
Q 47.5625 33.109375 50.5625 29.59375 
Q 53.5625 26.078125 56.59375 19.921875 
L 66.609375 0 
L 56 0 
L 46.6875 18.703125 
Q 43.0625 26.03125 39.671875 28.421875 
Q 36.28125 30.8125 30.421875 30.8125 
L 19.671875 30.8125 
L 19.671875 0 
L 9.8125 0 
L 9.8125 72.90625 
L 32.078125 72.90625 
Q 44.578125 72.90625 50.734375 67.671875 
Q 56.890625 62.453125 56.890625 51.90625 
Q 56.890625 45.015625 53.6875 40.46875 
Q 50.484375 35.9375 44.390625 34.1875 
z
M 19.671875 64.796875 
L 19.671875 38.921875 
L 32.078125 38.921875 
Q 39.203125 38.921875 42.84375 42.21875 
Q 46.484375 45.515625 46.484375 51.90625 
Q 46.484375 58.296875 42.84375 61.546875 
Q 39.203125 64.796875 32.078125 64.796875 
z
" id="DejaVuSans-82"/>
       <path d="M 34.28125 27.484375 
Q 23.390625 27.484375 19.1875 25 
Q 14.984375 22.515625 14.984375 16.5 
Q 14.984375 11.71875 18.140625 8.90625 
Q 21.296875 6.109375 26.703125 6.109375 
Q 34.1875 6.109375 38.703125 11.40625 
Q 43.21875 16.703125 43.21875 25.484375 
L 43.21875 27.484375 
z
M 52.203125 31.203125 
L 52.203125 0 
L 43.21875 0 
L 43.21875 8.296875 
Q 40.140625 3.328125 35.546875 0.953125 
Q 30.953125 -1.421875 24.3125 -1.421875 
Q 15.921875 -1.421875 10.953125 3.296875 
Q 6 8.015625 6 15.921875 
Q 6 25.140625 12.171875 29.828125 
Q 18.359375 34.515625 30.609375 34.515625 
L 43.21875 34.515625 
L 43.21875 35.40625 
Q 43.21875 41.609375 39.140625 45 
Q 35.0625 48.390625 27.6875 48.390625 
Q 23 48.390625 18.546875 47.265625 
Q 14.109375 46.140625 10.015625 43.890625 
L 10.015625 52.203125 
Q 14.9375 54.109375 19.578125 55.046875 
Q 24.21875 56 28.609375 56 
Q 40.484375 56 46.34375 49.84375 
Q 52.203125 43.703125 52.203125 31.203125 
z
" id="DejaVuSans-97"/>
       <path d="M 30.609375 48.390625 
Q 23.390625 48.390625 19.1875 42.75 
Q 14.984375 37.109375 14.984375 27.296875 
Q 14.984375 17.484375 19.15625 11.84375 
Q 23.34375 6.203125 30.609375 6.203125 
Q 37.796875 6.203125 41.984375 11.859375 
Q 46.1875 17.53125 46.1875 27.296875 
Q 46.1875 37.015625 41.984375 42.703125 
Q 37.796875 48.390625 30.609375 48.390625 
z
M 30.609375 56 
Q 42.328125 56 49.015625 48.375 
Q 55.71875 40.765625 55.71875 27.296875 
Q 55.71875 13.875 49.015625 6.21875 
Q 42.328125 -1.421875 30.609375 -1.421875 
Q 18.84375 -1.421875 12.171875 6.21875 
Q 5.515625 13.875 5.515625 27.296875 
Q 5.515625 40.765625 12.171875 48.375 
Q 18.84375 56 30.609375 56 
z
" id="DejaVuSans-111"/>
      </defs>
      <g transform="translate(200.027401 604.370156)rotate(-90)scale(0.165 -0.165)">
       <use xlink:href="#DejaVuSans-70"/>
       <use x="57.519531" xlink:href="#DejaVuSans-69"/>
       <use x="120.703125" xlink:href="#DejaVuSans-86"/>
       <use x="189.111328" xlink:href="#DejaVuSans-49"/>
       <use x="252.734375" xlink:href="#DejaVuSans-45"/>
       <use x="288.818359" xlink:href="#DejaVuSans-70"/>
       <use x="346.337891" xlink:href="#DejaVuSans-86"/>
       <use x="414.746094" xlink:href="#DejaVuSans-67"/>
       <use x="484.570312" xlink:href="#DejaVuSans-32"/>
       <use x="516.357422" xlink:href="#DejaVuSans-82"/>
       <use x="583.589844" xlink:href="#DejaVuSans-97"/>
       <use x="644.869141" xlink:href="#DejaVuSans-116"/>
       <use x="684.078125" xlink:href="#DejaVuSans-105"/>
       <use x="711.861328" xlink:href="#DejaVuSans-111"/>
      </g>
     </g>
    </g>
    <g id="xtick_3">
     <g id="line2d_3">
      <g>
       <use style="stroke:#000000;stroke-width:1.875;" x="244.493238" xlink:href="#m4529e5ba37" y="464.32"/>
      </g>
     </g>
     <g id="text_3">
      <!-- Red Blood Cell Count -->
      <defs>
       <path d="M 45.40625 46.390625 
L 45.40625 75.984375 
L 54.390625 75.984375 
L 54.390625 0 
L 45.40625 0 
L 45.40625 8.203125 
Q 42.578125 3.328125 38.25 0.953125 
Q 33.9375 -1.421875 27.875 -1.421875 
Q 17.96875 -1.421875 11.734375 6.484375 
Q 5.515625 14.40625 5.515625 27.296875 
Q 5.515625 40.1875 11.734375 48.09375 
Q 17.96875 56 27.875 56 
Q 33.9375 56 38.25 53.625 
Q 42.578125 51.265625 45.40625 46.390625 
z
M 14.796875 27.296875 
Q 14.796875 17.390625 18.875 11.75 
Q 22.953125 6.109375 30.078125 6.109375 
Q 37.203125 6.109375 41.296875 11.75 
Q 45.40625 17.390625 45.40625 27.296875 
Q 45.40625 37.203125 41.296875 42.84375 
Q 37.203125 48.484375 30.078125 48.484375 
Q 22.953125 48.484375 18.875 42.84375 
Q 14.796875 37.203125 14.796875 27.296875 
z
" id="DejaVuSans-100"/>
       <path d="M 9.421875 75.984375 
L 18.40625 75.984375 
L 18.40625 0 
L 9.421875 0 
z
" id="DejaVuSans-108"/>
       <path d="M 8.5 21.578125 
L 8.5 54.6875 
L 17.484375 54.6875 
L 17.484375 21.921875 
Q 17.484375 14.15625 20.5 10.265625 
Q 23.53125 6.390625 29.59375 6.390625 
Q 36.859375 6.390625 41.078125 11.03125 
Q 45.3125 15.671875 45.3125 23.6875 
L 45.3125 54.6875 
L 54.296875 54.6875 
L 54.296875 0 
L 45.3125 0 
L 45.3125 8.40625 
Q 42.046875 3.421875 37.71875 1 
Q 33.40625 -1.421875 27.6875 -1.421875 
Q 18.265625 -1.421875 13.375 4.4375 
Q 8.5 10.296875 8.5 21.578125 
z
M 31.109375 56 
z
" id="DejaVuSans-117"/>
       <path d="M 54.890625 33.015625 
L 54.890625 0 
L 45.90625 0 
L 45.90625 32.71875 
Q 45.90625 40.484375 42.875 44.328125 
Q 39.84375 48.1875 33.796875 48.1875 
Q 26.515625 48.1875 22.3125 43.546875 
Q 18.109375 38.921875 18.109375 30.90625 
L 18.109375 0 
L 9.078125 0 
L 9.078125 54.6875 
L 18.109375 54.6875 
L 18.109375 46.1875 
Q 21.34375 51.125 25.703125 53.5625 
Q 30.078125 56 35.796875 56 
Q 45.21875 56 50.046875 50.171875 
Q 54.890625 44.34375 54.890625 33.015625 
z
" id="DejaVuSans-110"/>
      </defs>
      <g transform="translate(249.046207 650.314922)rotate(-90)scale(0.165 -0.165)">
       <use xlink:href="#DejaVuSans-82"/>
       <use x="64.982422" xlink:href="#DejaVuSans-101"/>
       <use x="126.505859" xlink:href="#DejaVuSans-100"/>
       <use x="189.982422" xlink:href="#DejaVuSans-32"/>
       <use x="221.769531" xlink:href="#DejaVuSans-66"/>
       <use x="290.373047" xlink:href="#DejaVuSans-108"/>
       <use x="318.15625" xlink:href="#DejaVuSans-111"/>
       <use x="379.337891" xlink:href="#DejaVuSans-111"/>
       <use x="440.519531" xlink:href="#DejaVuSans-100"/>
       <use x="503.996094" xlink:href="#DejaVuSans-32"/>
       <use x="535.783203" xlink:href="#DejaVuSans-67"/>
       <use x="605.607422" xlink:href="#DejaVuSans-101"/>
       <use x="667.130859" xlink:href="#DejaVuSans-108"/>
       <use x="694.914062" xlink:href="#DejaVuSans-108"/>
       <use x="722.697266" xlink:href="#DejaVuSans-32"/>
       <use x="754.484375" xlink:href="#DejaVuSans-67"/>
       <use x="824.308594" xlink:href="#DejaVuSans-111"/>
       <use x="885.490234" xlink:href="#DejaVuSans-117"/>
       <use x="948.869141" xlink:href="#DejaVuSans-110"/>
       <use x="1012.248047" xlink:href="#DejaVuSans-116"/>
      </g>
     </g>
    </g>
    <g id="xtick_4">
     <g id="line2d_4">
      <g>
       <use style="stroke:#000000;stroke-width:1.875;" x="293.512044" xlink:href="#m4529e5ba37" y="464.32"/>
      </g>
     </g>
     <g id="text_4">
      <!-- Systolic Blood Pressure -->
      <defs>
       <path d="M 53.515625 70.515625 
L 53.515625 60.890625 
Q 47.90625 63.578125 42.921875 64.890625 
Q 37.9375 66.21875 33.296875 66.21875 
Q 25.25 66.21875 20.875 63.09375 
Q 16.5 59.96875 16.5 54.203125 
Q 16.5 49.359375 19.40625 46.890625 
Q 22.3125 44.4375 30.421875 42.921875 
L 36.375 41.703125 
Q 47.40625 39.59375 52.65625 34.296875 
Q 57.90625 29 57.90625 20.125 
Q 57.90625 9.515625 50.796875 4.046875 
Q 43.703125 -1.421875 29.984375 -1.421875 
Q 24.8125 -1.421875 18.96875 -0.25 
Q 13.140625 0.921875 6.890625 3.21875 
L 6.890625 13.375 
Q 12.890625 10.015625 18.65625 8.296875 
Q 24.421875 6.59375 29.984375 6.59375 
Q 38.421875 6.59375 43.015625 9.90625 
Q 47.609375 13.234375 47.609375 19.390625 
Q 47.609375 24.75 44.3125 27.78125 
Q 41.015625 30.8125 33.5 32.328125 
L 27.484375 33.5 
Q 16.453125 35.6875 11.515625 40.375 
Q 6.59375 45.0625 6.59375 53.421875 
Q 6.59375 63.09375 13.40625 68.65625 
Q 20.21875 74.21875 32.171875 74.21875 
Q 37.3125 74.21875 42.625 73.28125 
Q 47.953125 72.359375 53.515625 70.515625 
z
" id="DejaVuSans-83"/>
       <path d="M 32.171875 -5.078125 
Q 28.375 -14.84375 24.75 -17.8125 
Q 21.140625 -20.796875 15.09375 -20.796875 
L 7.90625 -20.796875 
L 7.90625 -13.28125 
L 13.1875 -13.28125 
Q 16.890625 -13.28125 18.9375 -11.515625 
Q 21 -9.765625 23.484375 -3.21875 
L 25.09375 0.875 
L 2.984375 54.6875 
L 12.5 54.6875 
L 29.59375 11.921875 
L 46.6875 54.6875 
L 56.203125 54.6875 
z
" id="DejaVuSans-121"/>
       <path d="M 44.28125 53.078125 
L 44.28125 44.578125 
Q 40.484375 46.53125 36.375 47.5 
Q 32.28125 48.484375 27.875 48.484375 
Q 21.1875 48.484375 17.84375 46.4375 
Q 14.5 44.390625 14.5 40.28125 
Q 14.5 37.15625 16.890625 35.375 
Q 19.28125 33.59375 26.515625 31.984375 
L 29.59375 31.296875 
Q 39.15625 29.25 43.1875 25.515625 
Q 47.21875 21.78125 47.21875 15.09375 
Q 47.21875 7.46875 41.1875 3.015625 
Q 35.15625 -1.421875 24.609375 -1.421875 
Q 20.21875 -1.421875 15.453125 -0.5625 
Q 10.6875 0.296875 5.421875 2 
L 5.421875 11.28125 
Q 10.40625 8.6875 15.234375 7.390625 
Q 20.0625 6.109375 24.8125 6.109375 
Q 31.15625 6.109375 34.5625 8.28125 
Q 37.984375 10.453125 37.984375 14.40625 
Q 37.984375 18.0625 35.515625 20.015625 
Q 33.0625 21.96875 24.703125 23.78125 
L 21.578125 24.515625 
Q 13.234375 26.265625 9.515625 29.90625 
Q 5.8125 33.546875 5.8125 39.890625 
Q 5.8125 47.609375 11.28125 51.796875 
Q 16.75 56 26.8125 56 
Q 31.78125 56 36.171875 55.265625 
Q 40.578125 54.546875 44.28125 53.078125 
z
" id="DejaVuSans-115"/>
       <path d="M 48.78125 52.59375 
L 48.78125 44.1875 
Q 44.96875 46.296875 41.140625 47.34375 
Q 37.3125 48.390625 33.40625 48.390625 
Q 24.65625 48.390625 19.8125 42.84375 
Q 14.984375 37.3125 14.984375 27.296875 
Q 14.984375 17.28125 19.8125 11.734375 
Q 24.65625 6.203125 33.40625 6.203125 
Q 37.3125 6.203125 41.140625 7.25 
Q 44.96875 8.296875 48.78125 10.40625 
L 48.78125 2.09375 
Q 45.015625 0.34375 40.984375 -0.53125 
Q 36.96875 -1.421875 32.421875 -1.421875 
Q 20.0625 -1.421875 12.78125 6.34375 
Q 5.515625 14.109375 5.515625 27.296875 
Q 5.515625 40.671875 12.859375 48.328125 
Q 20.21875 56 33.015625 56 
Q 37.15625 56 41.109375 55.140625 
Q 45.0625 54.296875 48.78125 52.59375 
z
" id="DejaVuSans-99"/>
       <path d="M 19.671875 64.796875 
L 19.671875 37.40625 
L 32.078125 37.40625 
Q 38.96875 37.40625 42.71875 40.96875 
Q 46.484375 44.53125 46.484375 51.125 
Q 46.484375 57.671875 42.71875 61.234375 
Q 38.96875 64.796875 32.078125 64.796875 
z
M 9.8125 72.90625 
L 32.078125 72.90625 
Q 44.34375 72.90625 50.609375 67.359375 
Q 56.890625 61.8125 56.890625 51.125 
Q 56.890625 40.328125 50.609375 34.8125 
Q 44.34375 29.296875 32.078125 29.296875 
L 19.671875 29.296875 
L 19.671875 0 
L 9.8125 0 
z
" id="DejaVuSans-80"/>
       <path d="M 41.109375 46.296875 
Q 39.59375 47.171875 37.8125 47.578125 
Q 36.03125 48 33.890625 48 
Q 26.265625 48 22.1875 43.046875 
Q 18.109375 38.09375 18.109375 28.8125 
L 18.109375 0 
L 9.078125 0 
L 9.078125 54.6875 
L 18.109375 54.6875 
L 18.109375 46.1875 
Q 20.953125 51.171875 25.484375 53.578125 
Q 30.03125 56 36.53125 56 
Q 37.453125 56 38.578125 55.875 
Q 39.703125 55.765625 41.0625 55.515625 
z
" id="DejaVuSans-114"/>
      </defs>
      <g transform="translate(298.065013 667.957031)rotate(-90)scale(0.165 -0.165)">
       <use xlink:href="#DejaVuSans-83"/>
       <use x="63.476562" xlink:href="#DejaVuSans-121"/>
       <use x="122.65625" xlink:href="#DejaVuSans-115"/>
       <use x="174.755859" xlink:href="#DejaVuSans-116"/>
       <use x="213.964844" xlink:href="#DejaVuSans-111"/>
       <use x="275.146484" xlink:href="#DejaVuSans-108"/>
       <use x="302.929688" xlink:href="#DejaVuSans-105"/>
       <use x="330.712891" xlink:href="#DejaVuSans-99"/>
       <use x="385.693359" xlink:href="#DejaVuSans-32"/>
       <use x="417.480469" xlink:href="#DejaVuSans-66"/>
       <use x="486.083984" xlink:href="#DejaVuSans-108"/>
       <use x="513.867188" xlink:href="#DejaVuSans-111"/>
       <use x="575.048828" xlink:href="#DejaVuSans-111"/>
       <use x="636.230469" xlink:href="#DejaVuSans-100"/>
       <use x="699.707031" xlink:href="#DejaVuSans-32"/>
       <use x="731.494141" xlink:href="#DejaVuSans-80"/>
       <use x="790.046875" xlink:href="#DejaVuSans-114"/>
       <use x="828.910156" xlink:href="#DejaVuSans-101"/>
       <use x="890.433594" xlink:href="#DejaVuSans-115"/>
       <use x="942.533203" xlink:href="#DejaVuSans-115"/>
       <use x="994.632812" xlink:href="#DejaVuSans-117"/>
       <use x="1058.011719" xlink:href="#DejaVuSans-114"/>
       <use x="1096.875" xlink:href="#DejaVuSans-101"/>
      </g>
     </g>
    </g>
    <g id="xtick_5">
     <g id="line2d_5">
      <g>
       <use style="stroke:#000000;stroke-width:1.875;" x="342.53085" xlink:href="#m4529e5ba37" y="464.32"/>
      </g>
     </g>
     <g id="text_5">
      <!-- BMI (UKBB) -->
      <defs>
       <path d="M 9.8125 72.90625 
L 24.515625 72.90625 
L 43.109375 23.296875 
L 61.8125 72.90625 
L 76.515625 72.90625 
L 76.515625 0 
L 66.890625 0 
L 66.890625 64.015625 
L 48.09375 14.015625 
L 38.1875 14.015625 
L 19.390625 64.015625 
L 19.390625 0 
L 9.8125 0 
z
" id="DejaVuSans-77"/>
       <path d="M 9.8125 72.90625 
L 19.671875 72.90625 
L 19.671875 0 
L 9.8125 0 
z
" id="DejaVuSans-73"/>
      </defs>
      <g transform="translate(347.083818 570.900937)rotate(-90)scale(0.165 -0.165)">
       <use xlink:href="#DejaVuSans-66"/>
       <use x="68.603516" xlink:href="#DejaVuSans-77"/>
       <use x="154.882812" xlink:href="#DejaVuSans-73"/>
       <use x="184.375" xlink:href="#DejaVuSans-32"/>
       <use x="216.162109" xlink:href="#DejaVuSans-40"/>
       <use x="255.175781" xlink:href="#DejaVuSans-85"/>
       <use x="328.369141" xlink:href="#DejaVuSans-75"/>
       <use x="393.945312" xlink:href="#DejaVuSans-66"/>
       <use x="462.548828" xlink:href="#DejaVuSans-66"/>
       <use x="531.152344" xlink:href="#DejaVuSans-41"/>
      </g>
     </g>
    </g>
    <g id="xtick_6">
     <g id="line2d_6">
      <g>
       <use style="stroke:#000000;stroke-width:1.875;" x="391.549655" xlink:href="#m4529e5ba37" y="464.32"/>
      </g>
     </g>
     <g id="text_6">
      <!-- Platelet Count -->
      <g transform="translate(396.102624 593.534297)rotate(-90)scale(0.165 -0.165)">
       <use xlink:href="#DejaVuSans-80"/>
       <use x="60.302734" xlink:href="#DejaVuSans-108"/>
       <use x="88.085938" xlink:href="#DejaVuSans-97"/>
       <use x="149.365234" xlink:href="#DejaVuSans-116"/>
       <use x="188.574219" xlink:href="#DejaVuSans-101"/>
       <use x="250.097656" xlink:href="#DejaVuSans-108"/>
       <use x="277.880859" xlink:href="#DejaVuSans-101"/>
       <use x="339.404297" xlink:href="#DejaVuSans-116"/>
       <use x="378.613281" xlink:href="#DejaVuSans-32"/>
       <use x="410.400391" xlink:href="#DejaVuSans-67"/>
       <use x="480.224609" xlink:href="#DejaVuSans-111"/>
       <use x="541.40625" xlink:href="#DejaVuSans-117"/>
       <use x="604.785156" xlink:href="#DejaVuSans-110"/>
       <use x="668.164062" xlink:href="#DejaVuSans-116"/>
      </g>
     </g>
    </g>
    <g id="xtick_7">
     <g id="line2d_7">
      <g>
       <use style="stroke:#000000;stroke-width:1.875;" x="440.568461" xlink:href="#m4529e5ba37" y="464.32"/>
      </g>
     </g>
     <g id="text_7">
      <!-- Heel T Score -->
      <defs>
       <path d="M -0.296875 72.90625 
L 61.375 72.90625 
L 61.375 64.59375 
L 35.5 64.59375 
L 35.5 0 
L 25.59375 0 
L 25.59375 64.59375 
L -0.296875 64.59375 
z
" id="DejaVuSans-84"/>
      </defs>
      <g transform="translate(445.12143 580.891172)rotate(-90)scale(0.165 -0.165)">
       <use xlink:href="#DejaVuSans-72"/>
       <use x="75.195312" xlink:href="#DejaVuSans-101"/>
       <use x="136.71875" xlink:href="#DejaVuSans-101"/>
       <use x="198.242188" xlink:href="#DejaVuSans-108"/>
       <use x="226.025391" xlink:href="#DejaVuSans-32"/>
       <use x="257.8125" xlink:href="#DejaVuSans-84"/>
       <use x="318.896484" xlink:href="#DejaVuSans-32"/>
       <use x="350.683594" xlink:href="#DejaVuSans-83"/>
       <use x="414.160156" xlink:href="#DejaVuSans-99"/>
       <use x="469.140625" xlink:href="#DejaVuSans-111"/>
       <use x="530.322266" xlink:href="#DejaVuSans-114"/>
       <use x="569.185547" xlink:href="#DejaVuSans-101"/>
      </g>
     </g>
    </g>
    <g id="xtick_8">
     <g id="line2d_8">
      <g>
       <use style="stroke:#000000;stroke-width:1.875;" x="489.587267" xlink:href="#m4529e5ba37" y="464.32"/>
      </g>
     </g>
     <g id="text_8">
      <!-- Forced Vital Capacity (FVC) -->
      <defs>
       <path d="M 18.109375 8.203125 
L 18.109375 -20.796875 
L 9.078125 -20.796875 
L 9.078125 54.6875 
L 18.109375 54.6875 
L 18.109375 46.390625 
Q 20.953125 51.265625 25.265625 53.625 
Q 29.59375 56 35.59375 56 
Q 45.5625 56 51.78125 48.09375 
Q 58.015625 40.1875 58.015625 27.296875 
Q 58.015625 14.40625 51.78125 6.484375 
Q 45.5625 -1.421875 35.59375 -1.421875 
Q 29.59375 -1.421875 25.265625 0.953125 
Q 20.953125 3.328125 18.109375 8.203125 
z
M 48.6875 27.296875 
Q 48.6875 37.203125 44.609375 42.84375 
Q 40.53125 48.484375 33.40625 48.484375 
Q 26.265625 48.484375 22.1875 42.84375 
Q 18.109375 37.203125 18.109375 27.296875 
Q 18.109375 17.390625 22.1875 11.75 
Q 26.265625 6.109375 33.40625 6.109375 
Q 40.53125 6.109375 44.609375 11.75 
Q 48.6875 17.390625 48.6875 27.296875 
z
" id="DejaVuSans-112"/>
      </defs>
      <g transform="translate(494.140235 701.598984)rotate(-90)scale(0.165 -0.165)">
       <use xlink:href="#DejaVuSans-70"/>
       <use x="53.894531" xlink:href="#DejaVuSans-111"/>
       <use x="115.076172" xlink:href="#DejaVuSans-114"/>
       <use x="153.939453" xlink:href="#DejaVuSans-99"/>
       <use x="208.919922" xlink:href="#DejaVuSans-101"/>
       <use x="270.443359" xlink:href="#DejaVuSans-100"/>
       <use x="333.919922" xlink:href="#DejaVuSans-32"/>
       <use x="365.707031" xlink:href="#DejaVuSans-86"/>
       <use x="431.865234" xlink:href="#DejaVuSans-105"/>
       <use x="459.648438" xlink:href="#DejaVuSans-116"/>
       <use x="498.857422" xlink:href="#DejaVuSans-97"/>
       <use x="560.136719" xlink:href="#DejaVuSans-108"/>
       <use x="587.919922" xlink:href="#DejaVuSans-32"/>
       <use x="619.707031" xlink:href="#DejaVuSans-67"/>
       <use x="689.53125" xlink:href="#DejaVuSans-97"/>
       <use x="750.810547" xlink:href="#DejaVuSans-112"/>
       <use x="814.287109" xlink:href="#DejaVuSans-97"/>
       <use x="875.566406" xlink:href="#DejaVuSans-99"/>
       <use x="930.546875" xlink:href="#DejaVuSans-105"/>
       <use x="958.330078" xlink:href="#DejaVuSans-116"/>
       <use x="997.539062" xlink:href="#DejaVuSans-121"/>
       <use x="1056.71875" xlink:href="#DejaVuSans-32"/>
       <use x="1088.505859" xlink:href="#DejaVuSans-40"/>
       <use x="1127.519531" xlink:href="#DejaVuSans-70"/>
       <use x="1185.039062" xlink:href="#DejaVuSans-86"/>
       <use x="1253.447266" xlink:href="#DejaVuSans-67"/>
       <use x="1323.271484" xlink:href="#DejaVuSans-41"/>
      </g>
     </g>
    </g>
    <g id="xtick_9">
     <g id="line2d_9">
      <g>
       <use style="stroke:#000000;stroke-width:1.875;" x="538.606072" xlink:href="#m4529e5ba37" y="464.32"/>
      </g>
     </g>
     <g id="text_9">
      <!-- Waist-hip Ratio -->
      <defs>
       <path d="M 3.328125 72.90625 
L 13.28125 72.90625 
L 28.609375 11.28125 
L 43.890625 72.90625 
L 54.984375 72.90625 
L 70.3125 11.28125 
L 85.59375 72.90625 
L 95.609375 72.90625 
L 77.296875 0 
L 64.890625 0 
L 49.515625 63.28125 
L 33.984375 0 
L 21.578125 0 
z
" id="DejaVuSans-87"/>
      </defs>
      <g transform="translate(543.159041 600.907734)rotate(-90)scale(0.165 -0.165)">
       <use xlink:href="#DejaVuSans-87"/>
       <use x="92.501953" xlink:href="#DejaVuSans-97"/>
       <use x="153.78125" xlink:href="#DejaVuSans-105"/>
       <use x="181.564453" xlink:href="#DejaVuSans-115"/>
       <use x="233.664062" xlink:href="#DejaVuSans-116"/>
       <use x="272.873047" xlink:href="#DejaVuSans-45"/>
       <use x="308.957031" xlink:href="#DejaVuSans-104"/>
       <use x="372.335938" xlink:href="#DejaVuSans-105"/>
       <use x="400.119141" xlink:href="#DejaVuSans-112"/>
       <use x="463.595703" xlink:href="#DejaVuSans-32"/>
       <use x="495.382812" xlink:href="#DejaVuSans-82"/>
       <use x="562.615234" xlink:href="#DejaVuSans-97"/>
       <use x="623.894531" xlink:href="#DejaVuSans-116"/>
       <use x="663.103516" xlink:href="#DejaVuSans-105"/>
       <use x="690.886719" xlink:href="#DejaVuSans-111"/>
      </g>
     </g>
    </g>
    <g id="xtick_10">
     <g id="line2d_10">
      <g>
       <use style="stroke:#000000;stroke-width:1.875;" x="587.624878" xlink:href="#m4529e5ba37" y="464.32"/>
      </g>
     </g>
     <g id="text_10">
      <!-- White Blood Cell Count -->
      <g transform="translate(592.177847 666.94125)rotate(-90)scale(0.165 -0.165)">
       <use xlink:href="#DejaVuSans-87"/>
       <use x="98.876953" xlink:href="#DejaVuSans-104"/>
       <use x="162.255859" xlink:href="#DejaVuSans-105"/>
       <use x="190.039062" xlink:href="#DejaVuSans-116"/>
       <use x="229.248047" xlink:href="#DejaVuSans-101"/>
       <use x="290.771484" xlink:href="#DejaVuSans-32"/>
       <use x="322.558594" xlink:href="#DejaVuSans-66"/>
       <use x="391.162109" xlink:href="#DejaVuSans-108"/>
       <use x="418.945312" xlink:href="#DejaVuSans-111"/>
       <use x="480.126953" xlink:href="#DejaVuSans-111"/>
       <use x="541.308594" xlink:href="#DejaVuSans-100"/>
       <use x="604.785156" xlink:href="#DejaVuSans-32"/>
       <use x="636.572266" xlink:href="#DejaVuSans-67"/>
       <use x="706.396484" xlink:href="#DejaVuSans-101"/>
       <use x="767.919922" xlink:href="#DejaVuSans-108"/>
       <use x="795.703125" xlink:href="#DejaVuSans-108"/>
       <use x="823.486328" xlink:href="#DejaVuSans-32"/>
       <use x="855.273438" xlink:href="#DejaVuSans-67"/>
       <use x="925.097656" xlink:href="#DejaVuSans-111"/>
       <use x="986.279297" xlink:href="#DejaVuSans-117"/>
       <use x="1049.658203" xlink:href="#DejaVuSans-110"/>
       <use x="1113.037109" xlink:href="#DejaVuSans-116"/>
      </g>
     </g>
    </g>
    <g id="xtick_11">
     <g id="line2d_11">
      <g>
       <use style="stroke:#000000;stroke-width:1.875;" x="636.643684" xlink:href="#m4529e5ba37" y="464.32"/>
      </g>
     </g>
     <g id="text_11">
      <!-- HDL -->
      <defs>
       <path d="M 19.671875 64.796875 
L 19.671875 8.109375 
L 31.59375 8.109375 
Q 46.6875 8.109375 53.6875 14.9375 
Q 60.6875 21.78125 60.6875 36.53125 
Q 60.6875 51.171875 53.6875 57.984375 
Q 46.6875 64.796875 31.59375 64.796875 
z
M 9.8125 72.90625 
L 30.078125 72.90625 
Q 51.265625 72.90625 61.171875 64.09375 
Q 71.09375 55.28125 71.09375 36.53125 
Q 71.09375 17.671875 61.125 8.828125 
Q 51.171875 0 30.078125 0 
L 9.8125 0 
z
" id="DejaVuSans-68"/>
       <path d="M 9.8125 72.90625 
L 19.671875 72.90625 
L 19.671875 8.296875 
L 55.171875 8.296875 
L 55.171875 0 
L 9.8125 0 
z
" id="DejaVuSans-76"/>
      </defs>
      <g transform="translate(641.196653 511.127109)rotate(-90)scale(0.165 -0.165)">
       <use xlink:href="#DejaVuSans-72"/>
       <use x="75.195312" xlink:href="#DejaVuSans-68"/>
       <use x="152.197266" xlink:href="#DejaVuSans-76"/>
      </g>
     </g>
    </g>
    <g id="xtick_12">
     <g id="line2d_12">
      <g>
       <use style="stroke:#000000;stroke-width:1.875;" x="685.66249" xlink:href="#m4529e5ba37" y="464.32"/>
      </g>
     </g>
     <g id="text_12">
      <!-- Neuroticism -->
      <defs>
       <path d="M 9.8125 72.90625 
L 23.09375 72.90625 
L 55.421875 11.921875 
L 55.421875 72.90625 
L 64.984375 72.90625 
L 64.984375 0 
L 51.703125 0 
L 19.390625 60.984375 
L 19.390625 0 
L 9.8125 0 
z
" id="DejaVuSans-78"/>
       <path d="M 52 44.1875 
Q 55.375 50.25 60.0625 53.125 
Q 64.75 56 71.09375 56 
Q 79.640625 56 84.28125 50.015625 
Q 88.921875 44.046875 88.921875 33.015625 
L 88.921875 0 
L 79.890625 0 
L 79.890625 32.71875 
Q 79.890625 40.578125 77.09375 44.375 
Q 74.3125 48.1875 68.609375 48.1875 
Q 61.625 48.1875 57.5625 43.546875 
Q 53.515625 38.921875 53.515625 30.90625 
L 53.515625 0 
L 44.484375 0 
L 44.484375 32.71875 
Q 44.484375 40.625 41.703125 44.40625 
Q 38.921875 48.1875 33.109375 48.1875 
Q 26.21875 48.1875 22.15625 43.53125 
Q 18.109375 38.875 18.109375 30.90625 
L 18.109375 0 
L 9.078125 0 
L 9.078125 54.6875 
L 18.109375 54.6875 
L 18.109375 46.1875 
Q 21.1875 51.21875 25.484375 53.609375 
Q 29.78125 56 35.6875 56 
Q 41.65625 56 45.828125 52.96875 
Q 50 49.953125 52 44.1875 
z
" id="DejaVuSans-109"/>
      </defs>
      <g transform="translate(690.215458 575.657578)rotate(-90)scale(0.165 -0.165)">
       <use xlink:href="#DejaVuSans-78"/>
       <use x="74.804688" xlink:href="#DejaVuSans-101"/>
       <use x="136.328125" xlink:href="#DejaVuSans-117"/>
       <use x="199.707031" xlink:href="#DejaVuSans-114"/>
       <use x="238.570312" xlink:href="#DejaVuSans-111"/>
       <use x="299.751953" xlink:href="#DejaVuSans-116"/>
       <use x="338.960938" xlink:href="#DejaVuSans-105"/>
       <use x="366.744141" xlink:href="#DejaVuSans-99"/>
       <use x="421.724609" xlink:href="#DejaVuSans-105"/>
       <use x="449.507812" xlink:href="#DejaVuSans-115"/>
       <use x="501.607422" xlink:href="#DejaVuSans-109"/>
      </g>
     </g>
    </g>
    <g id="xtick_13">
     <g id="line2d_13">
      <g>
       <use style="stroke:#000000;stroke-width:1.875;" x="734.681295" xlink:href="#m4529e5ba37" y="464.32"/>
      </g>
     </g>
     <g id="text_13">
      <!-- Smoking Status -->
      <defs>
       <path d="M 9.078125 75.984375 
L 18.109375 75.984375 
L 18.109375 31.109375 
L 44.921875 54.6875 
L 56.390625 54.6875 
L 27.390625 29.109375 
L 57.625 0 
L 45.90625 0 
L 18.109375 26.703125 
L 18.109375 0 
L 9.078125 0 
z
" id="DejaVuSans-107"/>
      </defs>
      <g transform="translate(739.234264 606.352734)rotate(-90)scale(0.165 -0.165)">
       <use xlink:href="#DejaVuSans-83"/>
       <use x="63.476562" xlink:href="#DejaVuSans-109"/>
       <use x="160.888672" xlink:href="#DejaVuSans-111"/>
       <use x="222.070312" xlink:href="#DejaVuSans-107"/>
       <use x="279.980469" xlink:href="#DejaVuSans-105"/>
       <use x="307.763672" xlink:href="#DejaVuSans-110"/>
       <use x="371.142578" xlink:href="#DejaVuSans-103"/>
       <use x="434.619141" xlink:href="#DejaVuSans-32"/>
       <use x="466.40625" xlink:href="#DejaVuSans-83"/>
       <use x="529.882812" xlink:href="#DejaVuSans-116"/>
       <use x="569.091797" xlink:href="#DejaVuSans-97"/>
       <use x="630.371094" xlink:href="#DejaVuSans-116"/>
       <use x="669.580078" xlink:href="#DejaVuSans-117"/>
       <use x="732.958984" xlink:href="#DejaVuSans-115"/>
      </g>
     </g>
    </g>
    <g id="xtick_14">
     <g id="line2d_14">
      <g>
       <use style="stroke:#000000;stroke-width:1.875;" x="783.700101" xlink:href="#m4529e5ba37" y="464.32"/>
      </g>
     </g>
     <g id="text_14">
      <!-- College Education -->
      <g transform="translate(788.25307 625.776328)rotate(-90)scale(0.165 -0.165)">
       <use xlink:href="#DejaVuSans-67"/>
       <use x="69.824219" xlink:href="#DejaVuSans-111"/>
       <use x="131.005859" xlink:href="#DejaVuSans-108"/>
       <use x="158.789062" xlink:href="#DejaVuSans-108"/>
       <use x="186.572266" xlink:href="#DejaVuSans-101"/>
       <use x="248.095703" xlink:href="#DejaVuSans-103"/>
       <use x="311.572266" xlink:href="#DejaVuSans-101"/>
       <use x="373.095703" xlink:href="#DejaVuSans-32"/>
       <use x="404.882812" xlink:href="#DejaVuSans-69"/>
       <use x="468.066406" xlink:href="#DejaVuSans-100"/>
       <use x="531.542969" xlink:href="#DejaVuSans-117"/>
       <use x="594.921875" xlink:href="#DejaVuSans-99"/>
       <use x="649.902344" xlink:href="#DejaVuSans-97"/>
       <use x="711.181641" xlink:href="#DejaVuSans-116"/>
       <use x="750.390625" xlink:href="#DejaVuSans-105"/>
       <use x="778.173828" xlink:href="#DejaVuSans-111"/>
       <use x="839.355469" xlink:href="#DejaVuSans-110"/>
      </g>
     </g>
    </g>
    <g id="xtick_15">
     <g id="line2d_15">
      <g>
       <use style="stroke:#000000;stroke-width:1.875;" x="832.718907" xlink:href="#m4529e5ba37" y="464.32"/>
      </g>
     </g>
     <g id="text_15">
      <!-- Years of Education -->
      <defs>
       <path d="M -0.203125 72.90625 
L 10.40625 72.90625 
L 30.609375 42.921875 
L 50.6875 72.90625 
L 61.28125 72.90625 
L 35.5 34.71875 
L 35.5 0 
L 25.59375 0 
L 25.59375 34.71875 
z
" id="DejaVuSans-89"/>
       <path d="M 37.109375 75.984375 
L 37.109375 68.5 
L 28.515625 68.5 
Q 23.6875 68.5 21.796875 66.546875 
Q 19.921875 64.59375 19.921875 59.515625 
L 19.921875 54.6875 
L 34.71875 54.6875 
L 34.71875 47.703125 
L 19.921875 47.703125 
L 19.921875 0 
L 10.890625 0 
L 10.890625 47.703125 
L 2.296875 47.703125 
L 2.296875 54.6875 
L 10.890625 54.6875 
L 10.890625 58.5 
Q 10.890625 67.625 15.140625 71.796875 
Q 19.390625 75.984375 28.609375 75.984375 
z
" id="DejaVuSans-102"/>
      </defs>
      <g transform="translate(837.271876 628.893281)rotate(-90)scale(0.165 -0.165)">
       <use xlink:href="#DejaVuSans-89"/>
       <use x="47.833984" xlink:href="#DejaVuSans-101"/>
       <use x="109.357422" xlink:href="#DejaVuSans-97"/>
       <use x="170.636719" xlink:href="#DejaVuSans-114"/>
       <use x="211.75" xlink:href="#DejaVuSans-115"/>
       <use x="263.849609" xlink:href="#DejaVuSans-32"/>
       <use x="295.636719" xlink:href="#DejaVuSans-111"/>
       <use x="356.818359" xlink:href="#DejaVuSans-102"/>
       <use x="392.023438" xlink:href="#DejaVuSans-32"/>
       <use x="423.810547" xlink:href="#DejaVuSans-69"/>
       <use x="486.994141" xlink:href="#DejaVuSans-100"/>
       <use x="550.470703" xlink:href="#DejaVuSans-117"/>
       <use x="613.849609" xlink:href="#DejaVuSans-99"/>
       <use x="668.830078" xlink:href="#DejaVuSans-97"/>
       <use x="730.109375" xlink:href="#DejaVuSans-116"/>
       <use x="769.318359" xlink:href="#DejaVuSans-105"/>
       <use x="797.101562" xlink:href="#DejaVuSans-111"/>
       <use x="858.283203" xlink:href="#DejaVuSans-110"/>
      </g>
     </g>
    </g>
   </g>
   <g id="matplotlib.axis_2">
    <g id="ytick_1">
     <g id="line2d_16">
      <defs>
       <path d="M 0 0 
L -9 0 
" id="m299fc513bc" style="stroke:#000000;stroke-width:1.875;"/>
      </defs>
      <g>
       <use style="stroke:#000000;stroke-width:1.875;" x="90.084" xlink:href="#m299fc513bc" y="464.32"/>
      </g>
     </g>
     <g id="text_16">
      <!-- 0.0 -->
      <defs>
       <path d="M 31.78125 66.40625 
Q 24.171875 66.40625 20.328125 58.90625 
Q 16.5 51.421875 16.5 36.375 
Q 16.5 21.390625 20.328125 13.890625 
Q 24.171875 6.390625 31.78125 6.390625 
Q 39.453125 6.390625 43.28125 13.890625 
Q 47.125 21.390625 47.125 36.375 
Q 47.125 51.421875 43.28125 58.90625 
Q 39.453125 66.40625 31.78125 66.40625 
z
M 31.78125 74.21875 
Q 44.046875 74.21875 50.515625 64.515625 
Q 56.984375 54.828125 56.984375 36.375 
Q 56.984375 17.96875 50.515625 8.265625 
Q 44.046875 -1.421875 31.78125 -1.421875 
Q 19.53125 -1.421875 13.0625 8.265625 
Q 6.59375 17.96875 6.59375 36.375 
Q 6.59375 54.828125 13.0625 64.515625 
Q 19.53125 74.21875 31.78125 74.21875 
z
" id="DejaVuSans-48"/>
       <path d="M 10.6875 12.40625 
L 21 12.40625 
L 21 0 
L 10.6875 0 
z
" id="DejaVuSans-46"/>
      </defs>
      <g transform="translate(51.343844 470.588711)scale(0.165 -0.165)">
       <use xlink:href="#DejaVuSans-48"/>
       <use x="63.623047" xlink:href="#DejaVuSans-46"/>
       <use x="95.410156" xlink:href="#DejaVuSans-48"/>
      </g>
     </g>
    </g>
    <g id="ytick_2">
     <g id="line2d_17">
      <g>
       <use style="stroke:#000000;stroke-width:1.875;" x="90.084" xlink:href="#m299fc513bc" y="404.728867"/>
      </g>
     </g>
     <g id="text_17">
      <!-- 0.1 -->
      <g transform="translate(51.343844 410.997578)scale(0.165 -0.165)">
       <use xlink:href="#DejaVuSans-48"/>
       <use x="63.623047" xlink:href="#DejaVuSans-46"/>
       <use x="95.410156" xlink:href="#DejaVuSans-49"/>
      </g>
     </g>
    </g>
    <g id="ytick_3">
     <g id="line2d_18">
      <g>
       <use style="stroke:#000000;stroke-width:1.875;" x="90.084" xlink:href="#m299fc513bc" y="345.137735"/>
      </g>
     </g>
     <g id="text_18">
      <!-- 0.2 -->
      <defs>
       <path d="M 19.1875 8.296875 
L 53.609375 8.296875 
L 53.609375 0 
L 7.328125 0 
L 7.328125 8.296875 
Q 12.9375 14.109375 22.625 23.890625 
Q 32.328125 33.6875 34.8125 36.53125 
Q 39.546875 41.84375 41.421875 45.53125 
Q 43.3125 49.21875 43.3125 52.78125 
Q 43.3125 58.59375 39.234375 62.25 
Q 35.15625 65.921875 28.609375 65.921875 
Q 23.96875 65.921875 18.8125 64.3125 
Q 13.671875 62.703125 7.8125 59.421875 
L 7.8125 69.390625 
Q 13.765625 71.78125 18.9375 73 
Q 24.125 74.21875 28.421875 74.21875 
Q 39.75 74.21875 46.484375 68.546875 
Q 53.21875 62.890625 53.21875 53.421875 
Q 53.21875 48.921875 51.53125 44.890625 
Q 49.859375 40.875 45.40625 35.40625 
Q 44.1875 33.984375 37.640625 27.21875 
Q 31.109375 20.453125 19.1875 8.296875 
z
" id="DejaVuSans-50"/>
      </defs>
      <g transform="translate(51.343844 351.406446)scale(0.165 -0.165)">
       <use xlink:href="#DejaVuSans-48"/>
       <use x="63.623047" xlink:href="#DejaVuSans-46"/>
       <use x="95.410156" xlink:href="#DejaVuSans-50"/>
      </g>
     </g>
    </g>
    <g id="ytick_4">
     <g id="line2d_19">
      <g>
       <use style="stroke:#000000;stroke-width:1.875;" x="90.084" xlink:href="#m299fc513bc" y="285.546602"/>
      </g>
     </g>
     <g id="text_19">
      <!-- 0.3 -->
      <defs>
       <path d="M 40.578125 39.3125 
Q 47.65625 37.796875 51.625 33 
Q 55.609375 28.21875 55.609375 21.1875 
Q 55.609375 10.40625 48.1875 4.484375 
Q 40.765625 -1.421875 27.09375 -1.421875 
Q 22.515625 -1.421875 17.65625 -0.515625 
Q 12.796875 0.390625 7.625 2.203125 
L 7.625 11.71875 
Q 11.71875 9.328125 16.59375 8.109375 
Q 21.484375 6.890625 26.8125 6.890625 
Q 36.078125 6.890625 40.9375 10.546875 
Q 45.796875 14.203125 45.796875 21.1875 
Q 45.796875 27.640625 41.28125 31.265625 
Q 36.765625 34.90625 28.71875 34.90625 
L 20.21875 34.90625 
L 20.21875 43.015625 
L 29.109375 43.015625 
Q 36.375 43.015625 40.234375 45.921875 
Q 44.09375 48.828125 44.09375 54.296875 
Q 44.09375 59.90625 40.109375 62.90625 
Q 36.140625 65.921875 28.71875 65.921875 
Q 24.65625 65.921875 20.015625 65.03125 
Q 15.375 64.15625 9.8125 62.3125 
L 9.8125 71.09375 
Q 15.4375 72.65625 20.34375 73.4375 
Q 25.25 74.21875 29.59375 74.21875 
Q 40.828125 74.21875 47.359375 69.109375 
Q 53.90625 64.015625 53.90625 55.328125 
Q 53.90625 49.265625 50.4375 45.09375 
Q 46.96875 40.921875 40.578125 39.3125 
z
" id="DejaVuSans-51"/>
      </defs>
      <g transform="translate(51.343844 291.815313)scale(0.165 -0.165)">
       <use xlink:href="#DejaVuSans-48"/>
       <use x="63.623047" xlink:href="#DejaVuSans-46"/>
       <use x="95.410156" xlink:href="#DejaVuSans-51"/>
      </g>
     </g>
    </g>
    <g id="ytick_5">
     <g id="line2d_20">
      <g>
       <use style="stroke:#000000;stroke-width:1.875;" x="90.084" xlink:href="#m299fc513bc" y="225.95547"/>
      </g>
     </g>
     <g id="text_20">
      <!-- 0.4 -->
      <defs>
       <path d="M 37.796875 64.3125 
L 12.890625 25.390625 
L 37.796875 25.390625 
z
M 35.203125 72.90625 
L 47.609375 72.90625 
L 47.609375 25.390625 
L 58.015625 25.390625 
L 58.015625 17.1875 
L 47.609375 17.1875 
L 47.609375 0 
L 37.796875 0 
L 37.796875 17.1875 
L 4.890625 17.1875 
L 4.890625 26.703125 
z
" id="DejaVuSans-52"/>
      </defs>
      <g transform="translate(51.343844 232.224181)scale(0.165 -0.165)">
       <use xlink:href="#DejaVuSans-48"/>
       <use x="63.623047" xlink:href="#DejaVuSans-46"/>
       <use x="95.410156" xlink:href="#DejaVuSans-52"/>
      </g>
     </g>
    </g>
    <g id="ytick_6">
     <g id="line2d_21">
      <g>
       <use style="stroke:#000000;stroke-width:1.875;" x="90.084" xlink:href="#m299fc513bc" y="166.364337"/>
      </g>
     </g>
     <g id="text_21">
      <!-- 0.5 -->
      <defs>
       <path d="M 10.796875 72.90625 
L 49.515625 72.90625 
L 49.515625 64.59375 
L 19.828125 64.59375 
L 19.828125 46.734375 
Q 21.96875 47.46875 24.109375 47.828125 
Q 26.265625 48.1875 28.421875 48.1875 
Q 40.625 48.1875 47.75 41.5 
Q 54.890625 34.8125 54.890625 23.390625 
Q 54.890625 11.625 47.5625 5.09375 
Q 40.234375 -1.421875 26.90625 -1.421875 
Q 22.3125 -1.421875 17.546875 -0.640625 
Q 12.796875 0.140625 7.71875 1.703125 
L 7.71875 11.625 
Q 12.109375 9.234375 16.796875 8.0625 
Q 21.484375 6.890625 26.703125 6.890625 
Q 35.15625 6.890625 40.078125 11.328125 
Q 45.015625 15.765625 45.015625 23.390625 
Q 45.015625 31 40.078125 35.4375 
Q 35.15625 39.890625 26.703125 39.890625 
Q 22.75 39.890625 18.8125 39.015625 
Q 14.890625 38.140625 10.796875 36.28125 
z
" id="DejaVuSans-53"/>
      </defs>
      <g transform="translate(51.343844 172.633048)scale(0.165 -0.165)">
       <use xlink:href="#DejaVuSans-48"/>
       <use x="63.623047" xlink:href="#DejaVuSans-46"/>
       <use x="95.410156" xlink:href="#DejaVuSans-53"/>
      </g>
     </g>
    </g>
    <g id="ytick_7">
     <g id="line2d_22">
      <g>
       <use style="stroke:#000000;stroke-width:1.875;" x="90.084" xlink:href="#m299fc513bc" y="106.773205"/>
      </g>
     </g>
     <g id="text_22">
      <!-- 0.6 -->
      <defs>
       <path d="M 33.015625 40.375 
Q 26.375 40.375 22.484375 35.828125 
Q 18.609375 31.296875 18.609375 23.390625 
Q 18.609375 15.53125 22.484375 10.953125 
Q 26.375 6.390625 33.015625 6.390625 
Q 39.65625 6.390625 43.53125 10.953125 
Q 47.40625 15.53125 47.40625 23.390625 
Q 47.40625 31.296875 43.53125 35.828125 
Q 39.65625 40.375 33.015625 40.375 
z
M 52.59375 71.296875 
L 52.59375 62.3125 
Q 48.875 64.0625 45.09375 64.984375 
Q 41.3125 65.921875 37.59375 65.921875 
Q 27.828125 65.921875 22.671875 59.328125 
Q 17.53125 52.734375 16.796875 39.40625 
Q 19.671875 43.65625 24.015625 45.921875 
Q 28.375 48.1875 33.59375 48.1875 
Q 44.578125 48.1875 50.953125 41.515625 
Q 57.328125 34.859375 57.328125 23.390625 
Q 57.328125 12.15625 50.6875 5.359375 
Q 44.046875 -1.421875 33.015625 -1.421875 
Q 20.359375 -1.421875 13.671875 8.265625 
Q 6.984375 17.96875 6.984375 36.375 
Q 6.984375 53.65625 15.1875 63.9375 
Q 23.390625 74.21875 37.203125 74.21875 
Q 40.921875 74.21875 44.703125 73.484375 
Q 48.484375 72.75 52.59375 71.296875 
z
" id="DejaVuSans-54"/>
      </defs>
      <g transform="translate(51.343844 113.041916)scale(0.165 -0.165)">
       <use xlink:href="#DejaVuSans-48"/>
       <use x="63.623047" xlink:href="#DejaVuSans-46"/>
       <use x="95.410156" xlink:href="#DejaVuSans-54"/>
      </g>
     </g>
    </g>
    <g id="ytick_8">
     <g id="line2d_23">
      <g>
       <use style="stroke:#000000;stroke-width:1.875;" x="90.084" xlink:href="#m299fc513bc" y="47.182072"/>
      </g>
     </g>
     <g id="text_23">
      <!-- 0.7 -->
      <defs>
       <path d="M 8.203125 72.90625 
L 55.078125 72.90625 
L 55.078125 68.703125 
L 28.609375 0 
L 18.3125 0 
L 43.21875 64.59375 
L 8.203125 64.59375 
z
" id="DejaVuSans-55"/>
      </defs>
      <g transform="translate(51.343844 53.450783)scale(0.165 -0.165)">
       <use xlink:href="#DejaVuSans-48"/>
       <use x="63.623047" xlink:href="#DejaVuSans-46"/>
       <use x="95.410156" xlink:href="#DejaVuSans-55"/>
      </g>
     </g>
    </g>
    <g id="text_24">
     <!-- Estimated $h_g^2$ -->
     <defs>
      <path d="M 55.71875 33.015625 
L 49.3125 0 
L 40.28125 0 
L 46.6875 32.671875 
Q 47.125 34.96875 47.359375 36.71875 
Q 47.609375 38.484375 47.609375 39.5 
Q 47.609375 43.609375 45.015625 45.890625 
Q 42.4375 48.1875 37.796875 48.1875 
Q 30.5625 48.1875 25.265625 43.296875 
Q 19.96875 38.421875 18.40625 30.328125 
L 12.5 0 
L 3.515625 0 
L 18.3125 75.984375 
L 27.296875 75.984375 
L 21.484375 46.09375 
Q 24.90625 50.6875 30.21875 53.34375 
Q 35.546875 56 41.40625 56 
Q 48.640625 56 52.609375 52.09375 
Q 56.59375 48.1875 56.59375 41.109375 
Q 56.59375 39.359375 56.375 37.359375 
Q 56.15625 35.359375 55.71875 33.015625 
z
" id="DejaVuSans-Oblique-104"/>
      <path d="M 59.625 54.6875 
L 50.296875 6.78125 
Q 47.609375 -7.125 40.015625 -13.953125 
Q 32.421875 -20.796875 19.578125 -20.796875 
Q 14.84375 -20.796875 10.78125 -20.09375 
Q 6.734375 -19.390625 3.21875 -17.921875 
L 4.890625 -9.1875 
Q 8.203125 -11.328125 11.90625 -12.34375 
Q 15.625 -13.375 19.828125 -13.375 
Q 28.375 -13.375 33.859375 -8.703125 
Q 39.359375 -4.046875 41.109375 4.6875 
L 41.890625 8.796875 
Q 38.140625 4.5 33.15625 2.25 
Q 28.171875 0 22.40625 0 
Q 14.109375 0 9.34375 5.484375 
Q 4.59375 10.984375 4.59375 20.609375 
Q 4.59375 28.171875 7.46875 35.421875 
Q 10.359375 42.671875 15.578125 48.296875 
Q 19.046875 52 23.65625 54 
Q 28.265625 56 33.296875 56 
Q 38.8125 56 42.90625 53.4375 
Q 47.015625 50.875 49.03125 46.1875 
L 50.59375 54.6875 
z
M 46.09375 34.625 
Q 46.09375 41.265625 42.96875 44.875 
Q 39.84375 48.484375 34.078125 48.484375 
Q 30.515625 48.484375 27.296875 47.0625 
Q 24.078125 45.65625 21.78125 43.109375 
Q 18.0625 38.921875 15.984375 33.234375 
Q 13.921875 27.546875 13.921875 21.484375 
Q 13.921875 14.75 17.0625 11.125 
Q 20.21875 7.515625 26.125 7.515625 
Q 34.671875 7.515625 40.375 15.25 
Q 46.09375 23 46.09375 34.625 
z
" id="DejaVuSans-Oblique-103"/>
     </defs>
     <g transform="translate(39.783844 300.92)rotate(-90)scale(0.18 -0.18)">
      <use transform="translate(0 0.765625)" xlink:href="#DejaVuSans-69"/>
      <use transform="translate(63.183594 0.765625)" xlink:href="#DejaVuSans-115"/>
      <use transform="translate(115.283203 0.765625)" xlink:href="#DejaVuSans-116"/>
      <use transform="translate(154.492188 0.765625)" xlink:href="#DejaVuSans-105"/>
      <use transform="translate(182.275391 0.765625)" xlink:href="#DejaVuSans-109"/>
      <use transform="translate(279.6875 0.765625)" xlink:href="#DejaVuSans-97"/>
      <use transform="translate(340.966797 0.765625)" xlink:href="#DejaVuSans-116"/>
      <use transform="translate(380.175781 0.765625)" xlink:href="#DejaVuSans-101"/>
      <use transform="translate(441.699219 0.765625)" xlink:href="#DejaVuSans-100"/>
      <use transform="translate(505.175781 0.765625)" xlink:href="#DejaVuSans-32"/>
      <use transform="translate(536.962891 0.765625)" xlink:href="#DejaVuSans-Oblique-104"/>
      <use transform="translate(607.789505 39.046875)scale(0.7)" xlink:href="#DejaVuSans-50"/>
      <use transform="translate(600.341797 -26.578125)scale(0.7)" xlink:href="#DejaVuSans-Oblique-103"/>
     </g>
    </g>
   </g>
   <g id="LineCollection_1">
    <path clip-path="url(#pf9df6ba42e)" d="M 130.116025 142.198971 
L 130.116025 107.968085 
" style="fill:none;stroke:#000000;"/>
    <path clip-path="url(#pf9df6ba42e)" d="M 179.13483 346.866055 
L 179.13483 333.97308 
" style="fill:none;stroke:#000000;"/>
    <path clip-path="url(#pf9df6ba42e)" d="M 228.153636 356.993408 
L 228.153636 341.901687 
" style="fill:none;stroke:#000000;"/>
    <path clip-path="url(#pf9df6ba42e)" d="M 277.172442 363.510575 
L 277.172442 354.081278 
" style="fill:none;stroke:#000000;"/>
    <path clip-path="url(#pf9df6ba42e)" d="M 326.191248 327.545993 
L 326.191248 319.063168 
" style="fill:none;stroke:#000000;"/>
    <path clip-path="url(#pf9df6ba42e)" d="M 375.210053 309.62106 
L 375.210053 288.510797 
" style="fill:none;stroke:#000000;"/>
    <path clip-path="url(#pf9df6ba42e)" d="M 424.228859 304.040807 
L 424.228859 282.390182 
" style="fill:none;stroke:#000000;"/>
    <path clip-path="url(#pf9df6ba42e)" d="M 473.247665 356.701204 
L 473.247665 347.94734 
" style="fill:none;stroke:#000000;"/>
    <path clip-path="url(#pf9df6ba42e)" d="M 522.266471 394.109621 
L 522.266471 384.698942 
" style="fill:none;stroke:#000000;"/>
    <path clip-path="url(#pf9df6ba42e)" d="M 571.285276 370.560139 
L 571.285276 360.154663 
" style="fill:none;stroke:#000000;"/>
    <path clip-path="url(#pf9df6ba42e)" d="M 620.304082 426.028309 
L 620.304082 416.021014 
" style="fill:none;stroke:#000000;"/>
    <path clip-path="url(#pf9df6ba42e)" d="M 669.322888 411.112151 
L 669.322888 407.054249 
" style="fill:none;stroke:#000000;"/>
    <path clip-path="url(#pf9df6ba42e)" d="M 718.341693 417.939559 
L 718.341693 414.325058 
" style="fill:none;stroke:#000000;"/>
    <path clip-path="url(#pf9df6ba42e)" d="M 767.360499 398.900016 
L 767.360499 394.42275 
" style="fill:none;stroke:#000000;"/>
    <path clip-path="url(#pf9df6ba42e)" d="M 816.379305 413.237956 
L 816.379305 408.600369 
" style="fill:none;stroke:#000000;"/>
   </g>
   <g id="LineCollection_2">
    <path clip-path="url(#pf9df6ba42e)" d="M 138.285826 89.059016 
L 138.285826 52.174874 
" style="fill:none;stroke:#000000;"/>
    <path clip-path="url(#pf9df6ba42e)" d="M 187.304631 329.210403 
L 187.304631 315.333973 
" style="fill:none;stroke:#000000;"/>
    <path clip-path="url(#pf9df6ba42e)" d="M 236.323437 339.705084 
L 236.323437 325.168986 
" style="fill:none;stroke:#000000;"/>
    <path clip-path="url(#pf9df6ba42e)" d="M 285.342243 350.576977 
L 285.342243 340.785316 
" style="fill:none;stroke:#000000;"/>
    <path clip-path="url(#pf9df6ba42e)" d="M 334.361049 314.561266 
L 334.361049 306.102641 
" style="fill:none;stroke:#000000;"/>
    <path clip-path="url(#pf9df6ba42e)" d="M 383.379854 289.491477 
L 383.379854 267.621283 
" style="fill:none;stroke:#000000;"/>
    <path clip-path="url(#pf9df6ba42e)" d="M 432.39866 281.941082 
L 432.39866 260.497805 
" style="fill:none;stroke:#000000;"/>
    <path clip-path="url(#pf9df6ba42e)" d="M 481.417466 345.012973 
L 481.417466 336.054316 
" style="fill:none;stroke:#000000;"/>
    <path clip-path="url(#pf9df6ba42e)" d="M 530.436271 384.313233 
L 530.436271 375.014152 
" style="fill:none;stroke:#000000;"/>
    <path clip-path="url(#pf9df6ba42e)" d="M 579.455077 360.629911 
L 579.455077 349.8958 
" style="fill:none;stroke:#000000;"/>
    <path clip-path="url(#pf9df6ba42e)" d="M 628.473883 421.024702 
L 628.473883 411.61732 
" style="fill:none;stroke:#000000;"/>
    <path clip-path="url(#pf9df6ba42e)" d="M 677.492689 405.453461 
L 677.492689 401.29743 
" style="fill:none;stroke:#000000;"/>
    <path clip-path="url(#pf9df6ba42e)" d="M 726.511494 413.587787 
L 726.511494 409.964868 
" style="fill:none;stroke:#000000;"/>
    <path clip-path="url(#pf9df6ba42e)" d="M 775.5303 394.212486 
L 775.5303 389.669364 
" style="fill:none;stroke:#000000;"/>
    <path clip-path="url(#pf9df6ba42e)" d="M 824.549106 411.220032 
L 824.549106 406.639088 
" style="fill:none;stroke:#000000;"/>
   </g>
   <g id="LineCollection_3">
    <path clip-path="url(#pf9df6ba42e)" d="M 146.455627 77.673906 
L 146.455627 46.486755 
" style="fill:none;stroke:#000000;"/>
    <path clip-path="url(#pf9df6ba42e)" d="M 195.474432 306.716814 
L 195.474432 292.771716 
" style="fill:none;stroke:#000000;"/>
    <path clip-path="url(#pf9df6ba42e)" d="M 244.493238 315.942799 
L 244.493238 301.646369 
" style="fill:none;stroke:#000000;"/>
    <path clip-path="url(#pf9df6ba42e)" d="M 293.512044 331.064069 
L 293.512044 321.122417 
" style="fill:none;stroke:#000000;"/>
    <path clip-path="url(#pf9df6ba42e)" d="M 342.53085 302.60299 
L 342.53085 294.614156 
" style="fill:none;stroke:#000000;"/>
    <path clip-path="url(#pf9df6ba42e)" d="M 391.549655 265.027207 
L 391.549655 245.393759 
" style="fill:none;stroke:#000000;"/>
    <path clip-path="url(#pf9df6ba42e)" d="M 440.568461 263.30426 
L 440.568461 242.493957 
" style="fill:none;stroke:#000000;"/>
    <path clip-path="url(#pf9df6ba42e)" d="M 489.587267 329.247362 
L 489.587267 320.718184 
" style="fill:none;stroke:#000000;"/>
    <path clip-path="url(#pf9df6ba42e)" d="M 538.606072 366.938052 
L 538.606072 358.355007 
" style="fill:none;stroke:#000000;"/>
    <path clip-path="url(#pf9df6ba42e)" d="M 587.624878 333.752789 
L 587.624878 323.9195 
" style="fill:none;stroke:#000000;"/>
    <path clip-path="url(#pf9df6ba42e)" d="M 636.643684 399.734981 
L 636.643684 384.560893 
" style="fill:none;stroke:#000000;"/>
    <path clip-path="url(#pf9df6ba42e)" d="M 685.66249 398.739139 
L 685.66249 394.038075 
" style="fill:none;stroke:#000000;"/>
    <path clip-path="url(#pf9df6ba42e)" d="M 734.681295 406.782341 
L 734.681295 402.7285 
" style="fill:none;stroke:#000000;"/>
    <path clip-path="url(#pf9df6ba42e)" d="M 783.700101 385.358542 
L 783.700101 380.860656 
" style="fill:none;stroke:#000000;"/>
    <path clip-path="url(#pf9df6ba42e)" d="M 832.718907 401.350598 
L 832.718907 396.467258 
" style="fill:none;stroke:#000000;"/>
   </g>
   <g id="LineCollection_4">
    <path clip-path="url(#pf9df6ba42e)" d="M 154.625428 71.163158 
L 154.625428 40.624762 
" style="fill:none;stroke:#000000;"/>
    <path clip-path="url(#pf9df6ba42e)" d="M 203.644233 309.036121 
L 203.644233 295.619578 
" style="fill:none;stroke:#000000;"/>
    <path clip-path="url(#pf9df6ba42e)" d="M 252.663039 316.731604 
L 252.663039 302.32826 
" style="fill:none;stroke:#000000;"/>
    <path clip-path="url(#pf9df6ba42e)" d="M 301.681845 335.255772 
L 301.681845 325.113443 
" style="fill:none;stroke:#000000;"/>
    <path clip-path="url(#pf9df6ba42e)" d="M 350.70065 308.654177 
L 350.70065 301.120678 
" style="fill:none;stroke:#000000;"/>
    <path clip-path="url(#pf9df6ba42e)" d="M 399.719456 267.119541 
L 399.719456 247.197469 
" style="fill:none;stroke:#000000;"/>
    <path clip-path="url(#pf9df6ba42e)" d="M 448.738262 266.990215 
L 448.738262 247.752244 
" style="fill:none;stroke:#000000;"/>
    <path clip-path="url(#pf9df6ba42e)" d="M 497.757068 333.951965 
L 497.757068 325.273702 
" style="fill:none;stroke:#000000;"/>
    <path clip-path="url(#pf9df6ba42e)" d="M 546.775873 370.116794 
L 546.775873 362.20547 
" style="fill:none;stroke:#000000;"/>
    <path clip-path="url(#pf9df6ba42e)" d="M 595.794679 343.288732 
L 595.794679 333.116651 
" style="fill:none;stroke:#000000;"/>
    <path clip-path="url(#pf9df6ba42e)" d="M 644.813485 401.6248 
L 644.813485 389.211797 
" style="fill:none;stroke:#000000;"/>
    <path clip-path="url(#pf9df6ba42e)" d="M 693.832291 400.392192 
L 693.832291 396.018627 
" style="fill:none;stroke:#000000;"/>
    <path clip-path="url(#pf9df6ba42e)" d="M 742.851096 409.458103 
L 742.851096 405.617728 
" style="fill:none;stroke:#000000;"/>
    <path clip-path="url(#pf9df6ba42e)" d="M 791.869902 390.832822 
L 791.869902 386.567337 
" style="fill:none;stroke:#000000;"/>
    <path clip-path="url(#pf9df6ba42e)" d="M 840.888708 406.877959 
L 840.888708 402.354516 
" style="fill:none;stroke:#000000;"/>
   </g>
   <g id="line2d_24">
    <defs>
     <path d="M 2 0 
L -2 -0 
" id="mc2c9bef59c" style="stroke:#000000;"/>
    </defs>
    <g clip-path="url(#pf9df6ba42e)">
     <use style="stroke:#000000;" x="130.116025" xlink:href="#mc2c9bef59c" y="142.198971"/>
     <use style="stroke:#000000;" x="179.13483" xlink:href="#mc2c9bef59c" y="346.866055"/>
     <use style="stroke:#000000;" x="228.153636" xlink:href="#mc2c9bef59c" y="356.993408"/>
     <use style="stroke:#000000;" x="277.172442" xlink:href="#mc2c9bef59c" y="363.510575"/>
     <use style="stroke:#000000;" x="326.191248" xlink:href="#mc2c9bef59c" y="327.545993"/>
     <use style="stroke:#000000;" x="375.210053" xlink:href="#mc2c9bef59c" y="309.62106"/>
     <use style="stroke:#000000;" x="424.228859" xlink:href="#mc2c9bef59c" y="304.040807"/>
     <use style="stroke:#000000;" x="473.247665" xlink:href="#mc2c9bef59c" y="356.701204"/>
     <use style="stroke:#000000;" x="522.266471" xlink:href="#mc2c9bef59c" y="394.109621"/>
     <use style="stroke:#000000;" x="571.285276" xlink:href="#mc2c9bef59c" y="370.560139"/>
     <use style="stroke:#000000;" x="620.304082" xlink:href="#mc2c9bef59c" y="426.028309"/>
     <use style="stroke:#000000;" x="669.322888" xlink:href="#mc2c9bef59c" y="411.112151"/>
     <use style="stroke:#000000;" x="718.341693" xlink:href="#mc2c9bef59c" y="417.939559"/>
     <use style="stroke:#000000;" x="767.360499" xlink:href="#mc2c9bef59c" y="398.900016"/>
     <use style="stroke:#000000;" x="816.379305" xlink:href="#mc2c9bef59c" y="413.237956"/>
    </g>
   </g>
   <g id="line2d_25">
    <g clip-path="url(#pf9df6ba42e)">
     <use style="stroke:#000000;" x="130.116025" xlink:href="#mc2c9bef59c" y="107.968085"/>
     <use style="stroke:#000000;" x="179.13483" xlink:href="#mc2c9bef59c" y="333.97308"/>
     <use style="stroke:#000000;" x="228.153636" xlink:href="#mc2c9bef59c" y="341.901687"/>
     <use style="stroke:#000000;" x="277.172442" xlink:href="#mc2c9bef59c" y="354.081278"/>
     <use style="stroke:#000000;" x="326.191248" xlink:href="#mc2c9bef59c" y="319.063168"/>
     <use style="stroke:#000000;" x="375.210053" xlink:href="#mc2c9bef59c" y="288.510797"/>
     <use style="stroke:#000000;" x="424.228859" xlink:href="#mc2c9bef59c" y="282.390182"/>
     <use style="stroke:#000000;" x="473.247665" xlink:href="#mc2c9bef59c" y="347.94734"/>
     <use style="stroke:#000000;" x="522.266471" xlink:href="#mc2c9bef59c" y="384.698942"/>
     <use style="stroke:#000000;" x="571.285276" xlink:href="#mc2c9bef59c" y="360.154663"/>
     <use style="stroke:#000000;" x="620.304082" xlink:href="#mc2c9bef59c" y="416.021014"/>
     <use style="stroke:#000000;" x="669.322888" xlink:href="#mc2c9bef59c" y="407.054249"/>
     <use style="stroke:#000000;" x="718.341693" xlink:href="#mc2c9bef59c" y="414.325058"/>
     <use style="stroke:#000000;" x="767.360499" xlink:href="#mc2c9bef59c" y="394.42275"/>
     <use style="stroke:#000000;" x="816.379305" xlink:href="#mc2c9bef59c" y="408.600369"/>
    </g>
   </g>
   <g id="line2d_26">
    <g clip-path="url(#pf9df6ba42e)">
     <use style="stroke:#000000;" x="138.285826" xlink:href="#mc2c9bef59c" y="89.059016"/>
     <use style="stroke:#000000;" x="187.304631" xlink:href="#mc2c9bef59c" y="329.210403"/>
     <use style="stroke:#000000;" x="236.323437" xlink:href="#mc2c9bef59c" y="339.705084"/>
     <use style="stroke:#000000;" x="285.342243" xlink:href="#mc2c9bef59c" y="350.576977"/>
     <use style="stroke:#000000;" x="334.361049" xlink:href="#mc2c9bef59c" y="314.561266"/>
     <use style="stroke:#000000;" x="383.379854" xlink:href="#mc2c9bef59c" y="289.491477"/>
     <use style="stroke:#000000;" x="432.39866" xlink:href="#mc2c9bef59c" y="281.941082"/>
     <use style="stroke:#000000;" x="481.417466" xlink:href="#mc2c9bef59c" y="345.012973"/>
     <use style="stroke:#000000;" x="530.436271" xlink:href="#mc2c9bef59c" y="384.313233"/>
     <use style="stroke:#000000;" x="579.455077" xlink:href="#mc2c9bef59c" y="360.629911"/>
     <use style="stroke:#000000;" x="628.473883" xlink:href="#mc2c9bef59c" y="421.024702"/>
     <use style="stroke:#000000;" x="677.492689" xlink:href="#mc2c9bef59c" y="405.453461"/>
     <use style="stroke:#000000;" x="726.511494" xlink:href="#mc2c9bef59c" y="413.587787"/>
     <use style="stroke:#000000;" x="775.5303" xlink:href="#mc2c9bef59c" y="394.212486"/>
     <use style="stroke:#000000;" x="824.549106" xlink:href="#mc2c9bef59c" y="411.220032"/>
    </g>
   </g>
   <g id="line2d_27">
    <g clip-path="url(#pf9df6ba42e)">
     <use style="stroke:#000000;" x="138.285826" xlink:href="#mc2c9bef59c" y="52.174874"/>
     <use style="stroke:#000000;" x="187.304631" xlink:href="#mc2c9bef59c" y="315.333973"/>
     <use style="stroke:#000000;" x="236.323437" xlink:href="#mc2c9bef59c" y="325.168986"/>
     <use style="stroke:#000000;" x="285.342243" xlink:href="#mc2c9bef59c" y="340.785316"/>
     <use style="stroke:#000000;" x="334.361049" xlink:href="#mc2c9bef59c" y="306.102641"/>
     <use style="stroke:#000000;" x="383.379854" xlink:href="#mc2c9bef59c" y="267.621283"/>
     <use style="stroke:#000000;" x="432.39866" xlink:href="#mc2c9bef59c" y="260.497805"/>
     <use style="stroke:#000000;" x="481.417466" xlink:href="#mc2c9bef59c" y="336.054316"/>
     <use style="stroke:#000000;" x="530.436271" xlink:href="#mc2c9bef59c" y="375.014152"/>
     <use style="stroke:#000000;" x="579.455077" xlink:href="#mc2c9bef59c" y="349.8958"/>
     <use style="stroke:#000000;" x="628.473883" xlink:href="#mc2c9bef59c" y="411.61732"/>
     <use style="stroke:#000000;" x="677.492689" xlink:href="#mc2c9bef59c" y="401.29743"/>
     <use style="stroke:#000000;" x="726.511494" xlink:href="#mc2c9bef59c" y="409.964868"/>
     <use style="stroke:#000000;" x="775.5303" xlink:href="#mc2c9bef59c" y="389.669364"/>
     <use style="stroke:#000000;" x="824.549106" xlink:href="#mc2c9bef59c" y="406.639088"/>
    </g>
   </g>
   <g id="line2d_28">
    <g clip-path="url(#pf9df6ba42e)">
     <use style="stroke:#000000;" x="146.455627" xlink:href="#mc2c9bef59c" y="77.673906"/>
     <use style="stroke:#000000;" x="195.474432" xlink:href="#mc2c9bef59c" y="306.716814"/>
     <use style="stroke:#000000;" x="244.493238" xlink:href="#mc2c9bef59c" y="315.942799"/>
     <use style="stroke:#000000;" x="293.512044" xlink:href="#mc2c9bef59c" y="331.064069"/>
     <use style="stroke:#000000;" x="342.53085" xlink:href="#mc2c9bef59c" y="302.60299"/>
     <use style="stroke:#000000;" x="391.549655" xlink:href="#mc2c9bef59c" y="265.027207"/>
     <use style="stroke:#000000;" x="440.568461" xlink:href="#mc2c9bef59c" y="263.30426"/>
     <use style="stroke:#000000;" x="489.587267" xlink:href="#mc2c9bef59c" y="329.247362"/>
     <use style="stroke:#000000;" x="538.606072" xlink:href="#mc2c9bef59c" y="366.938052"/>
     <use style="stroke:#000000;" x="587.624878" xlink:href="#mc2c9bef59c" y="333.752789"/>
     <use style="stroke:#000000;" x="636.643684" xlink:href="#mc2c9bef59c" y="399.734981"/>
     <use style="stroke:#000000;" x="685.66249" xlink:href="#mc2c9bef59c" y="398.739139"/>
     <use style="stroke:#000000;" x="734.681295" xlink:href="#mc2c9bef59c" y="406.782341"/>
     <use style="stroke:#000000;" x="783.700101" xlink:href="#mc2c9bef59c" y="385.358542"/>
     <use style="stroke:#000000;" x="832.718907" xlink:href="#mc2c9bef59c" y="401.350598"/>
    </g>
   </g>
   <g id="line2d_29">
    <g clip-path="url(#pf9df6ba42e)">
     <use style="stroke:#000000;" x="146.455627" xlink:href="#mc2c9bef59c" y="46.486755"/>
     <use style="stroke:#000000;" x="195.474432" xlink:href="#mc2c9bef59c" y="292.771716"/>
     <use style="stroke:#000000;" x="244.493238" xlink:href="#mc2c9bef59c" y="301.646369"/>
     <use style="stroke:#000000;" x="293.512044" xlink:href="#mc2c9bef59c" y="321.122417"/>
     <use style="stroke:#000000;" x="342.53085" xlink:href="#mc2c9bef59c" y="294.614156"/>
     <use style="stroke:#000000;" x="391.549655" xlink:href="#mc2c9bef59c" y="245.393759"/>
     <use style="stroke:#000000;" x="440.568461" xlink:href="#mc2c9bef59c" y="242.493957"/>
     <use style="stroke:#000000;" x="489.587267" xlink:href="#mc2c9bef59c" y="320.718184"/>
     <use style="stroke:#000000;" x="538.606072" xlink:href="#mc2c9bef59c" y="358.355007"/>
     <use style="stroke:#000000;" x="587.624878" xlink:href="#mc2c9bef59c" y="323.9195"/>
     <use style="stroke:#000000;" x="636.643684" xlink:href="#mc2c9bef59c" y="384.560893"/>
     <use style="stroke:#000000;" x="685.66249" xlink:href="#mc2c9bef59c" y="394.038075"/>
     <use style="stroke:#000000;" x="734.681295" xlink:href="#mc2c9bef59c" y="402.7285"/>
     <use style="stroke:#000000;" x="783.700101" xlink:href="#mc2c9bef59c" y="380.860656"/>
     <use style="stroke:#000000;" x="832.718907" xlink:href="#mc2c9bef59c" y="396.467258"/>
    </g>
   </g>
   <g id="line2d_30">
    <g clip-path="url(#pf9df6ba42e)">
     <use style="stroke:#000000;" x="154.625428" xlink:href="#mc2c9bef59c" y="71.163158"/>
     <use style="stroke:#000000;" x="203.644233" xlink:href="#mc2c9bef59c" y="309.036121"/>
     <use style="stroke:#000000;" x="252.663039" xlink:href="#mc2c9bef59c" y="316.731604"/>
     <use style="stroke:#000000;" x="301.681845" xlink:href="#mc2c9bef59c" y="335.255772"/>
     <use style="stroke:#000000;" x="350.70065" xlink:href="#mc2c9bef59c" y="308.654177"/>
     <use style="stroke:#000000;" x="399.719456" xlink:href="#mc2c9bef59c" y="267.119541"/>
     <use style="stroke:#000000;" x="448.738262" xlink:href="#mc2c9bef59c" y="266.990215"/>
     <use style="stroke:#000000;" x="497.757068" xlink:href="#mc2c9bef59c" y="333.951965"/>
     <use style="stroke:#000000;" x="546.775873" xlink:href="#mc2c9bef59c" y="370.116794"/>
     <use style="stroke:#000000;" x="595.794679" xlink:href="#mc2c9bef59c" y="343.288732"/>
     <use style="stroke:#000000;" x="644.813485" xlink:href="#mc2c9bef59c" y="401.6248"/>
     <use style="stroke:#000000;" x="693.832291" xlink:href="#mc2c9bef59c" y="400.392192"/>
     <use style="stroke:#000000;" x="742.851096" xlink:href="#mc2c9bef59c" y="409.458103"/>
     <use style="stroke:#000000;" x="791.869902" xlink:href="#mc2c9bef59c" y="390.832822"/>
     <use style="stroke:#000000;" x="840.888708" xlink:href="#mc2c9bef59c" y="406.877959"/>
    </g>
   </g>
   <g id="line2d_31">
    <g clip-path="url(#pf9df6ba42e)">
     <use style="stroke:#000000;" x="154.625428" xlink:href="#mc2c9bef59c" y="40.624762"/>
     <use style="stroke:#000000;" x="203.644233" xlink:href="#mc2c9bef59c" y="295.619578"/>
     <use style="stroke:#000000;" x="252.663039" xlink:href="#mc2c9bef59c" y="302.32826"/>
     <use style="stroke:#000000;" x="301.681845" xlink:href="#mc2c9bef59c" y="325.113443"/>
     <use style="stroke:#000000;" x="350.70065" xlink:href="#mc2c9bef59c" y="301.120678"/>
     <use style="stroke:#000000;" x="399.719456" xlink:href="#mc2c9bef59c" y="247.197469"/>
     <use style="stroke:#000000;" x="448.738262" xlink:href="#mc2c9bef59c" y="247.752244"/>
     <use style="stroke:#000000;" x="497.757068" xlink:href="#mc2c9bef59c" y="325.273702"/>
     <use style="stroke:#000000;" x="546.775873" xlink:href="#mc2c9bef59c" y="362.20547"/>
     <use style="stroke:#000000;" x="595.794679" xlink:href="#mc2c9bef59c" y="333.116651"/>
     <use style="stroke:#000000;" x="644.813485" xlink:href="#mc2c9bef59c" y="389.211797"/>
     <use style="stroke:#000000;" x="693.832291" xlink:href="#mc2c9bef59c" y="396.018627"/>
     <use style="stroke:#000000;" x="742.851096" xlink:href="#mc2c9bef59c" y="405.617728"/>
     <use style="stroke:#000000;" x="791.869902" xlink:href="#mc2c9bef59c" y="386.567337"/>
     <use style="stroke:#000000;" x="840.888708" xlink:href="#mc2c9bef59c" y="402.354516"/>
    </g>
   </g>
   <g id="patch_63">
    <path d="M 90.084 464.32 
L 90.084 19.44 
" style="fill:none;stroke:#000000;stroke-linecap:square;stroke-linejoin:miter;stroke-width:1.875;"/>
   </g>
   <g id="patch_64">
    <path d="M 880.920732 464.32 
L 880.920732 19.44 
" style="fill:none;stroke:#000000;stroke-linecap:square;stroke-linejoin:miter;stroke-width:1.875;"/>
   </g>
   <g id="patch_65">
    <path d="M 90.084 464.32 
L 880.920732 464.32 
" style="fill:none;stroke:#000000;stroke-linecap:square;stroke-linejoin:miter;stroke-width:1.875;"/>
   </g>
   <g id="patch_66">
    <path d="M 90.084 19.44 
L 880.920732 19.44 
" style="fill:none;stroke:#000000;stroke-linecap:square;stroke-linejoin:miter;stroke-width:1.875;"/>
   </g>
   <g id="legend_1">
    <g id="patch_67">
     <path d="M 903.6791 210.104609 
L 936.6791 210.104609 
L 936.6791 198.554609 
L 903.6791 198.554609 
z
" style="fill:url(#h844fd319ef);stroke:#ffffff;stroke-linejoin:miter;stroke-width:1.5;"/>
    </g>
    <g id="text_25">
     <!-- $(\alpha=1, \theta=0)$ -->
     <defs>
      <path d="M 40.921875 25.4375 
L 40.96875 36.71875 
Q 41.015625 48.25 32.328125 48.296875 
Q 25.828125 48.34375 21.78125 42.921875 
Q 16.703125 36.234375 14.984375 27.296875 
Q 12.890625 16.546875 15.53125 11.421875 
Q 18.265625 6.203125 24.171875 6.203125 
Q 30.71875 6.203125 36.234375 16.609375 
z
M 33.84375 55.90625 
Q 49.078125 56.15625 48.875 40.375 
Q 48.875 40.375 56.5 54.6875 
L 64.5 54.6875 
L 48.734375 25.046875 
L 48.578125 14.359375 
Q 48.578125 11.96875 49.90625 9.96875 
Q 51.421875 7.625 52.984375 7.625 
L 57.328125 7.625 
L 55.859375 0 
L 50.4375 0 
Q 45.84375 0 42.53125 4.109375 
Q 40.96875 6.15625 40.921875 10.453125 
Q 37.75 5.21875 32.28125 0.78125 
Q 29.6875 -1.265625 22.703125 -1.21875 
Q 11.28125 -1.125 7.125 6.203125 
Q 2.875 13.8125 5.515625 27.296875 
Q 8.34375 41.796875 15.765625 48.390625 
Q 24.125 55.765625 33.84375 55.90625 
z
" id="DejaVuSans-Oblique-945"/>
      <path d="M 10.59375 45.40625 
L 73.1875 45.40625 
L 73.1875 37.203125 
L 10.59375 37.203125 
z
M 10.59375 25.484375 
L 73.1875 25.484375 
L 73.1875 17.1875 
L 10.59375 17.1875 
z
" id="DejaVuSans-61"/>
      <path d="M 11.71875 12.40625 
L 22.015625 12.40625 
L 22.015625 4 
L 14.015625 -11.625 
L 7.71875 -11.625 
L 11.71875 4 
z
" id="DejaVuSans-44"/>
      <path d="M 45.515625 34.671875 
L 14.453125 34.671875 
Q 12.359375 20.0625 14.5 13.875 
Q 17.1875 6.25 24.46875 6.25 
Q 31.78125 6.25 37.359375 13.921875 
Q 42.234375 20.65625 45.515625 34.671875 
z
M 47.015625 42.96875 
Q 48.34375 56.84375 46.625 61.71875 
Q 43.953125 69.4375 36.765625 69.4375 
Q 29.296875 69.4375 23.828125 61.8125 
Q 19.53125 55.671875 16.15625 42.96875 
z
M 38.1875 76.765625 
Q 49.90625 76.765625 54.59375 66.40625 
Q 59.28125 56.109375 55.71875 37.84375 
Q 52.203125 19.625 43.453125 9.28125 
Q 34.765625 -1.125 23.046875 -1.125 
Q 11.28125 -1.125 6.640625 9.28125 
Q 2 19.625 5.515625 37.84375 
Q 9.078125 56.109375 17.71875 66.40625 
Q 26.421875 76.765625 38.1875 76.765625 
z
" id="DejaVuSans-Oblique-952"/>
     </defs>
     <g transform="translate(949.8791 210.104609)scale(0.165 -0.165)">
      <use transform="translate(0 0.234375)" xlink:href="#DejaVuSans-40"/>
      <use transform="translate(39.013672 0.234375)" xlink:href="#DejaVuSans-Oblique-945"/>
      <use transform="translate(124.414062 0.234375)" xlink:href="#DejaVuSans-61"/>
      <use transform="translate(227.685547 0.234375)" xlink:href="#DejaVuSans-49"/>
      <use transform="translate(291.308594 0.234375)" xlink:href="#DejaVuSans-44"/>
      <use transform="translate(342.578125 0.234375)" xlink:href="#DejaVuSans-Oblique-952"/>
      <use transform="translate(423.242188 0.234375)" xlink:href="#DejaVuSans-61"/>
      <use transform="translate(526.513672 0.234375)" xlink:href="#DejaVuSans-48"/>
      <use transform="translate(590.136719 0.234375)" xlink:href="#DejaVuSans-41"/>
     </g>
    </g>
    <g id="patch_68">
     <path d="M 903.6791 234.323516 
L 936.6791 234.323516 
L 936.6791 222.773516 
L 903.6791 222.773516 
z
" style="fill:url(#ha170bdbdfe);stroke:#ffffff;stroke-linejoin:miter;stroke-width:1.5;"/>
    </g>
    <g id="text_26">
     <!-- $(\alpha=0, \theta=0)$ -->
     <g transform="translate(949.8791 234.323516)scale(0.165 -0.165)">
      <use transform="translate(0 0.234375)" xlink:href="#DejaVuSans-40"/>
      <use transform="translate(39.013672 0.234375)" xlink:href="#DejaVuSans-Oblique-945"/>
      <use transform="translate(124.414062 0.234375)" xlink:href="#DejaVuSans-61"/>
      <use transform="translate(227.685547 0.234375)" xlink:href="#DejaVuSans-48"/>
      <use transform="translate(291.308594 0.234375)" xlink:href="#DejaVuSans-44"/>
      <use transform="translate(342.578125 0.234375)" xlink:href="#DejaVuSans-Oblique-952"/>
      <use transform="translate(423.242188 0.234375)" xlink:href="#DejaVuSans-61"/>
      <use transform="translate(526.513672 0.234375)" xlink:href="#DejaVuSans-48"/>
      <use transform="translate(590.136719 0.234375)" xlink:href="#DejaVuSans-41"/>
     </g>
    </g>
    <g id="patch_69">
     <path d="M 903.6791 258.542422 
L 936.6791 258.542422 
L 936.6791 246.992422 
L 903.6791 246.992422 
z
" style="fill:#b07aa1;"/>
    </g>
    <g id="text_27">
     <!-- $(\alpha=1, \theta=1)$ -->
     <g transform="translate(949.8791 258.542422)scale(0.165 -0.165)">
      <use transform="translate(0 0.234375)" xlink:href="#DejaVuSans-40"/>
      <use transform="translate(39.013672 0.234375)" xlink:href="#DejaVuSans-Oblique-945"/>
      <use transform="translate(124.414062 0.234375)" xlink:href="#DejaVuSans-61"/>
      <use transform="translate(227.685547 0.234375)" xlink:href="#DejaVuSans-49"/>
      <use transform="translate(291.308594 0.234375)" xlink:href="#DejaVuSans-44"/>
      <use transform="translate(342.578125 0.234375)" xlink:href="#DejaVuSans-Oblique-952"/>
      <use transform="translate(423.242188 0.234375)" xlink:href="#DejaVuSans-61"/>
      <use transform="translate(526.513672 0.234375)" xlink:href="#DejaVuSans-49"/>
      <use transform="translate(590.136719 0.234375)" xlink:href="#DejaVuSans-41"/>
     </g>
    </g>
    <g id="patch_70">
     <path d="M 903.6791 282.761328 
L 936.6791 282.761328 
L 936.6791 271.211328 
L 903.6791 271.211328 
z
" style="fill:#e15759;"/>
    </g>
    <g id="text_28">
     <!-- $(\alpha=0, \theta=1)$ -->
     <g transform="translate(949.8791 282.761328)scale(0.165 -0.165)">
      <use transform="translate(0 0.234375)" xlink:href="#DejaVuSans-40"/>
      <use transform="translate(39.013672 0.234375)" xlink:href="#DejaVuSans-Oblique-945"/>
      <use transform="translate(124.414062 0.234375)" xlink:href="#DejaVuSans-61"/>
      <use transform="translate(227.685547 0.234375)" xlink:href="#DejaVuSans-48"/>
      <use transform="translate(291.308594 0.234375)" xlink:href="#DejaVuSans-44"/>
      <use transform="translate(342.578125 0.234375)" xlink:href="#DejaVuSans-Oblique-952"/>
      <use transform="translate(423.242188 0.234375)" xlink:href="#DejaVuSans-61"/>
      <use transform="translate(526.513672 0.234375)" xlink:href="#DejaVuSans-49"/>
      <use transform="translate(590.136719 0.234375)" xlink:href="#DejaVuSans-41"/>
     </g>
    </g>
   </g>
  </g>
 </g>
 <defs>
  <clipPath id="pf9df6ba42e">
   <rect height="444.88" width="790.836732" x="90.084" y="19.44"/>
  </clipPath>
 </defs>
 <defs>
  <pattern height="72" id="h844fd319ef" patternUnits="userSpaceOnUse" width="72" x="0" y="0">
   <rect fill="#f28e2b" height="73" width="73" x="0" y="0"/>
   <path d="M -36 36 
L 36 -36 
M -33 39 
L 39 -33 
M -30 42 
L 42 -30 
M -27 45 
L 45 -27 
M -24 48 
L 48 -24 
M -21 51 
L 51 -21 
M -18 54 
L 54 -18 
M -15 57 
L 57 -15 
M -12 60 
L 60 -12 
M -9 63 
L 63 -9 
M -6 66 
L 66 -6 
M -3 69 
L 69 -3 
M 0 72 
L 72 0 
M 3 75 
L 75 3 
M 6 78 
L 78 6 
M 9 81 
L 81 9 
M 12 84 
L 84 12 
M 15 87 
L 87 15 
M 18 90 
L 90 18 
M 21 93 
L 93 21 
M 24 96 
L 96 24 
M 27 99 
L 99 27 
M 30 102 
L 102 30 
M 33 105 
L 105 33 
M 36 108 
L 108 36 
" style="fill:#ffffff;stroke:#ffffff;stroke-linecap:butt;stroke-linejoin:miter;stroke-width:2.0;"/>
  </pattern>
  <pattern height="72" id="ha170bdbdfe" patternUnits="userSpaceOnUse" width="72" x="0" y="0">
   <rect fill="#76b7b2" height="73" width="73" x="0" y="0"/>
   <path d="M -36 36 
L 36 -36 
M -33 39 
L 39 -33 
M -30 42 
L 42 -30 
M -27 45 
L 45 -27 
M -24 48 
L 48 -24 
M -21 51 
L 51 -21 
M -18 54 
L 54 -18 
M -15 57 
L 57 -15 
M -12 60 
L 60 -12 
M -9 63 
L 63 -9 
M -6 66 
L 66 -6 
M -3 69 
L 69 -3 
M 0 72 
L 72 0 
M 3 75 
L 75 3 
M 6 78 
L 78 6 
M 9 81 
L 81 9 
M 12 84 
L 84 12 
M 15 87 
L 87 15 
M 18 90 
L 90 18 
M 21 93 
L 93 21 
M 24 96 
L 96 24 
M 27 99 
L 99 27 
M 30 102 
L 102 30 
M 33 105 
L 105 33 
M 36 108 
L 108 36 
" style="fill:#ffffff;stroke:#ffffff;stroke-linecap:butt;stroke-linejoin:miter;stroke-width:2.0;"/>
  </pattern>
 </defs>
</svg>
