<?xml version="1.0" encoding="utf-8" standalone="no"?>
<!DOCTYPE svg PUBLIC "-//W3C//DTD SVG 1.1//EN"
  "http://www.w3.org/Graphics/SVG/1.1/DTD/svg11.dtd">
<!-- Created with matplotlib (https://matplotlib.org/) -->
<svg height="720pt" version="1.1" viewBox="0 0 1080 720" width="1080pt" xmlns="http://www.w3.org/2000/svg" xmlns:xlink="http://www.w3.org/1999/xlink">
 <defs>
  <style type="text/css">
*{stroke-linecap:butt;stroke-linejoin:round;}
  </style>
 </defs>
 <g id="figure_1">
  <g id="patch_1">
   <path d="M 0 720 
L 1080 720 
L 1080 0 
L 0 0 
z
" style="fill:#ffffff;"/>
  </g>
  <g id="axes_1">
   <g id="patch_2">
    <path d="M 79.5 464.32 
L 880.920732 464.32 
L 880.920732 19.44 
L 79.5 19.44 
z
" style="fill:#ffffff;"/>
   </g>
   <g id="patch_3">
    <path clip-path="url(#p5af015847d)" d="M 115.928215 391.669676 
L 124.207355 391.669676 
L 124.207355 89.506653 
L 115.928215 89.506653 
z
" style="fill:url(#hac128b9a3f);stroke:#ffffff;stroke-linejoin:miter;stroke-width:1.5;"/>
   </g>
   <g id="patch_4">
    <path clip-path="url(#p5af015847d)" d="M 165.603054 391.669676 
L 173.882194 391.669676 
L 173.882194 273.747287 
L 165.603054 273.747287 
z
" style="fill:url(#hac128b9a3f);stroke:#ffffff;stroke-linejoin:miter;stroke-width:1.5;"/>
   </g>
   <g id="patch_5">
    <path clip-path="url(#p5af015847d)" d="M 215.277893 391.669676 
L 223.557032 391.669676 
L 223.557032 213.204362 
L 215.277893 213.204362 
z
" style="fill:url(#hac128b9a3f);stroke:#ffffff;stroke-linejoin:miter;stroke-width:1.5;"/>
   </g>
   <g id="patch_6">
    <path clip-path="url(#p5af015847d)" d="M 264.952731 391.669676 
L 273.231871 391.669676 
L 273.231871 278.549986 
L 264.952731 278.549986 
z
" style="fill:url(#hac128b9a3f);stroke:#ffffff;stroke-linejoin:miter;stroke-width:1.5;"/>
   </g>
   <g id="patch_7">
    <path clip-path="url(#p5af015847d)" d="M 314.62757 391.669676 
L 322.90671 391.669676 
L 322.90671 297.781695 
L 314.62757 297.781695 
z
" style="fill:url(#hac128b9a3f);stroke:#ffffff;stroke-linejoin:miter;stroke-width:1.5;"/>
   </g>
   <g id="patch_8">
    <path clip-path="url(#p5af015847d)" d="M 364.302409 391.669676 
L 372.581549 391.669676 
L 372.581549 202.564111 
L 364.302409 202.564111 
z
" style="fill:url(#hac128b9a3f);stroke:#ffffff;stroke-linejoin:miter;stroke-width:1.5;"/>
   </g>
   <g id="patch_9">
    <path clip-path="url(#p5af015847d)" d="M 413.977248 391.669676 
L 422.256388 391.669676 
L 422.256388 193.151394 
L 413.977248 193.151394 
z
" style="fill:url(#hac128b9a3f);stroke:#ffffff;stroke-linejoin:miter;stroke-width:1.5;"/>
   </g>
   <g id="patch_10">
    <path clip-path="url(#p5af015847d)" d="M 463.652087 391.669676 
L 471.931226 391.669676 
L 471.931226 302.759937 
L 463.652087 302.759937 
z
" style="fill:url(#hac128b9a3f);stroke:#ffffff;stroke-linejoin:miter;stroke-width:1.5;"/>
   </g>
   <g id="patch_11">
    <path clip-path="url(#p5af015847d)" d="M 513.326925 391.669676 
L 521.606065 391.669676 
L 521.606065 288.75276 
L 513.326925 288.75276 
z
" style="fill:url(#hac128b9a3f);stroke:#ffffff;stroke-linejoin:miter;stroke-width:1.5;"/>
   </g>
   <g id="patch_12">
    <path clip-path="url(#p5af015847d)" d="M 563.001764 391.669676 
L 571.280904 391.669676 
L 571.280904 260.346672 
L 563.001764 260.346672 
z
" style="fill:url(#hac128b9a3f);stroke:#ffffff;stroke-linejoin:miter;stroke-width:1.5;"/>
   </g>
   <g id="patch_13">
    <path clip-path="url(#p5af015847d)" d="M 612.676603 391.669676 
L 620.955743 391.669676 
L 620.955743 423.816306 
L 612.676603 423.816306 
z
" style="fill:url(#hac128b9a3f);stroke:#ffffff;stroke-linejoin:miter;stroke-width:1.5;"/>
   </g>
   <g id="patch_14">
    <path clip-path="url(#p5af015847d)" d="M 662.351442 391.669676 
L 670.630582 391.669676 
L 670.630582 346.412468 
L 662.351442 346.412468 
z
" style="fill:url(#hac128b9a3f);stroke:#ffffff;stroke-linejoin:miter;stroke-width:1.5;"/>
   </g>
   <g id="patch_15">
    <path clip-path="url(#p5af015847d)" d="M 712.026281 391.669676 
L 720.30542 391.669676 
L 720.30542 344.024965 
L 712.026281 344.024965 
z
" style="fill:url(#hac128b9a3f);stroke:#ffffff;stroke-linejoin:miter;stroke-width:1.5;"/>
   </g>
   <g id="patch_16">
    <path clip-path="url(#p5af015847d)" d="M 761.701119 391.669676 
L 769.980259 391.669676 
L 769.980259 322.671648 
L 761.701119 322.671648 
z
" style="fill:url(#hac128b9a3f);stroke:#ffffff;stroke-linejoin:miter;stroke-width:1.5;"/>
   </g>
   <g id="patch_17">
    <path clip-path="url(#p5af015847d)" d="M 811.375958 391.669676 
L 819.655098 391.669676 
L 819.655098 391.366423 
L 811.375958 391.366423 
z
" style="fill:url(#hac128b9a3f);stroke:#ffffff;stroke-linejoin:miter;stroke-width:1.5;"/>
   </g>
   <g id="patch_18">
    <path clip-path="url(#p5af015847d)" d="M 124.207355 391.669676 
L 132.486495 391.669676 
L 132.486495 67.937768 
L 124.207355 67.937768 
z
" style="fill:url(#h18c7570d42);stroke:#ffffff;stroke-linejoin:miter;stroke-width:1.5;"/>
   </g>
   <g id="patch_19">
    <path clip-path="url(#p5af015847d)" d="M 173.882194 391.669676 
L 182.161333 391.669676 
L 182.161333 274.732806 
L 173.882194 274.732806 
z
" style="fill:url(#h18c7570d42);stroke:#ffffff;stroke-linejoin:miter;stroke-width:1.5;"/>
   </g>
   <g id="patch_20">
    <path clip-path="url(#p5af015847d)" d="M 223.557032 391.669676 
L 231.836172 391.669676 
L 231.836172 216.399998 
L 223.557032 216.399998 
z
" style="fill:url(#h18c7570d42);stroke:#ffffff;stroke-linejoin:miter;stroke-width:1.5;"/>
   </g>
   <g id="patch_21">
    <path clip-path="url(#p5af015847d)" d="M 273.231871 391.669676 
L 281.511011 391.669676 
L 281.511011 277.224693 
L 273.231871 277.224693 
z
" style="fill:url(#h18c7570d42);stroke:#ffffff;stroke-linejoin:miter;stroke-width:1.5;"/>
   </g>
   <g id="patch_22">
    <path clip-path="url(#p5af015847d)" d="M 322.90671 391.669676 
L 331.18585 391.669676 
L 331.18585 273.131559 
L 322.90671 273.131559 
z
" style="fill:url(#h18c7570d42);stroke:#ffffff;stroke-linejoin:miter;stroke-width:1.5;"/>
   </g>
   <g id="patch_23">
    <path clip-path="url(#p5af015847d)" d="M 372.581549 391.669676 
L 380.860689 391.669676 
L 380.860689 191.810965 
L 372.581549 191.810965 
z
" style="fill:url(#h18c7570d42);stroke:#ffffff;stroke-linejoin:miter;stroke-width:1.5;"/>
   </g>
   <g id="patch_24">
    <path clip-path="url(#p5af015847d)" d="M 422.256388 391.669676 
L 430.535527 391.669676 
L 430.535527 173.378588 
L 422.256388 173.378588 
z
" style="fill:url(#h18c7570d42);stroke:#ffffff;stroke-linejoin:miter;stroke-width:1.5;"/>
   </g>
   <g id="patch_25">
    <path clip-path="url(#p5af015847d)" d="M 471.931226 391.669676 
L 480.210366 391.669676 
L 480.210366 297.11658 
L 471.931226 297.11658 
z
" style="fill:url(#h18c7570d42);stroke:#ffffff;stroke-linejoin:miter;stroke-width:1.5;"/>
   </g>
   <g id="patch_26">
    <path clip-path="url(#p5af015847d)" d="M 521.606065 391.669676 
L 529.885205 391.669676 
L 529.885205 288.597223 
L 521.606065 288.597223 
z
" style="fill:url(#h18c7570d42);stroke:#ffffff;stroke-linejoin:miter;stroke-width:1.5;"/>
   </g>
   <g id="patch_27">
    <path clip-path="url(#p5af015847d)" d="M 571.280904 391.669676 
L 579.560044 391.669676 
L 579.560044 246.0277 
L 571.280904 246.0277 
z
" style="fill:url(#h18c7570d42);stroke:#ffffff;stroke-linejoin:miter;stroke-width:1.5;"/>
   </g>
   <g id="patch_28">
    <path clip-path="url(#p5af015847d)" d="M 620.955743 391.669676 
L 629.234883 391.669676 
L 629.234883 426.751221 
L 620.955743 426.751221 
z
" style="fill:url(#h18c7570d42);stroke:#ffffff;stroke-linejoin:miter;stroke-width:1.5;"/>
   </g>
   <g id="patch_29">
    <path clip-path="url(#p5af015847d)" d="M 670.630582 391.669676 
L 678.909721 391.669676 
L 678.909721 344.332352 
L 670.630582 344.332352 
z
" style="fill:url(#h18c7570d42);stroke:#ffffff;stroke-linejoin:miter;stroke-width:1.5;"/>
   </g>
   <g id="patch_30">
    <path clip-path="url(#p5af015847d)" d="M 720.30542 391.669676 
L 728.58456 391.669676 
L 728.58456 339.078142 
L 720.30542 339.078142 
z
" style="fill:url(#h18c7570d42);stroke:#ffffff;stroke-linejoin:miter;stroke-width:1.5;"/>
   </g>
   <g id="patch_31">
    <path clip-path="url(#p5af015847d)" d="M 769.980259 391.669676 
L 778.259399 391.669676 
L 778.259399 307.571952 
L 769.980259 307.571952 
z
" style="fill:url(#h18c7570d42);stroke:#ffffff;stroke-linejoin:miter;stroke-width:1.5;"/>
   </g>
   <g id="patch_32">
    <path clip-path="url(#p5af015847d)" d="M 819.655098 391.669676 
L 827.934238 391.669676 
L 827.934238 381.359163 
L 819.655098 381.359163 
z
" style="fill:url(#h18c7570d42);stroke:#ffffff;stroke-linejoin:miter;stroke-width:1.5;"/>
   </g>
   <g id="patch_33">
    <path clip-path="url(#p5af015847d)" d="M 132.486495 391.669676 
L 140.765635 391.669676 
L 140.765635 180.441881 
L 132.486495 180.441881 
z
" style="fill:#b07aa1;"/>
   </g>
   <g id="patch_34">
    <path clip-path="url(#p5af015847d)" d="M 182.161333 391.669676 
L 190.440473 391.669676 
L 190.440473 339.345868 
L 182.161333 339.345868 
z
" style="fill:#b07aa1;"/>
   </g>
   <g id="patch_35">
    <path clip-path="url(#p5af015847d)" d="M 231.836172 391.669676 
L 240.115312 391.669676 
L 240.115312 307.529057 
L 231.836172 307.529057 
z
" style="fill:#b07aa1;"/>
   </g>
   <g id="patch_36">
    <path clip-path="url(#p5af015847d)" d="M 281.511011 391.669676 
L 289.790151 391.669676 
L 289.790151 336.813838 
L 281.511011 336.813838 
z
" style="fill:#b07aa1;"/>
   </g>
   <g id="patch_37">
    <path clip-path="url(#p5af015847d)" d="M 331.18585 391.669676 
L 339.46499 391.669676 
L 339.46499 331.19035 
L 331.18585 331.19035 
z
" style="fill:#b07aa1;"/>
   </g>
   <g id="patch_38">
    <path clip-path="url(#p5af015847d)" d="M 380.860689 391.669676 
L 389.139828 391.669676 
L 389.139828 270.78385 
L 380.860689 270.78385 
z
" style="fill:#b07aa1;"/>
   </g>
   <g id="patch_39">
    <path clip-path="url(#p5af015847d)" d="M 430.535527 391.669676 
L 438.814667 391.669676 
L 438.814667 283.568453 
L 430.535527 283.568453 
z
" style="fill:#b07aa1;"/>
   </g>
   <g id="patch_40">
    <path clip-path="url(#p5af015847d)" d="M 480.210366 391.669676 
L 488.489506 391.669676 
L 488.489506 343.906763 
L 480.210366 343.906763 
z
" style="fill:#b07aa1;"/>
   </g>
   <g id="patch_41">
    <path clip-path="url(#p5af015847d)" d="M 529.885205 391.669676 
L 538.164345 391.669676 
L 538.164345 352.999128 
L 529.885205 352.999128 
z
" style="fill:#b07aa1;"/>
   </g>
   <g id="patch_42">
    <path clip-path="url(#p5af015847d)" d="M 579.560044 391.669676 
L 587.839184 391.669676 
L 587.839184 338.748932 
L 579.560044 338.748932 
z
" style="fill:#b07aa1;"/>
   </g>
   <g id="patch_43">
    <path clip-path="url(#p5af015847d)" d="M 629.234883 391.669676 
L 637.514022 391.669676 
L 637.514022 438.759226 
L 629.234883 438.759226 
z
" style="fill:#b07aa1;"/>
   </g>
   <g id="patch_44">
    <path clip-path="url(#p5af015847d)" d="M 678.909721 391.669676 
L 687.188861 391.669676 
L 687.188861 359.935076 
L 678.909721 359.935076 
z
" style="fill:#b07aa1;"/>
   </g>
   <g id="patch_45">
    <path clip-path="url(#p5af015847d)" d="M 728.58456 391.669676 
L 736.8637 391.669676 
L 736.8637 364.394315 
L 728.58456 364.394315 
z
" style="fill:#b07aa1;"/>
   </g>
   <g id="patch_46">
    <path clip-path="url(#p5af015847d)" d="M 778.259399 391.669676 
L 786.538539 391.669676 
L 786.538539 340.020723 
L 778.259399 340.020723 
z
" style="fill:#b07aa1;"/>
   </g>
   <g id="patch_47">
    <path clip-path="url(#p5af015847d)" d="M 827.934238 391.669676 
L 836.213378 391.669676 
L 836.213378 408.214438 
L 827.934238 408.214438 
z
" style="fill:#b07aa1;"/>
   </g>
   <g id="patch_48">
    <path clip-path="url(#p5af015847d)" d="M 140.765635 391.669676 
L 149.044774 391.669676 
L 149.044774 175.31985 
L 140.765635 175.31985 
z
" style="fill:#e15759;"/>
   </g>
   <g id="patch_49">
    <path clip-path="url(#p5af015847d)" d="M 190.440473 391.669676 
L 198.719613 391.669676 
L 198.719613 332.802857 
L 190.440473 332.802857 
z
" style="fill:#e15759;"/>
   </g>
   <g id="patch_50">
    <path clip-path="url(#p5af015847d)" d="M 240.115312 391.669676 
L 248.394452 391.669676 
L 248.394452 302.966606 
L 240.115312 302.966606 
z
" style="fill:#e15759;"/>
   </g>
   <g id="patch_51">
    <path clip-path="url(#p5af015847d)" d="M 289.790151 391.669676 
L 298.069291 391.669676 
L 298.069291 323.924296 
L 289.790151 323.924296 
z
" style="fill:#e15759;"/>
   </g>
   <g id="patch_52">
    <path clip-path="url(#p5af015847d)" d="M 339.46499 391.669676 
L 347.744129 391.669676 
L 347.744129 310.452683 
L 339.46499 310.452683 
z
" style="fill:#e15759;"/>
   </g>
   <g id="patch_53">
    <path clip-path="url(#p5af015847d)" d="M 389.139828 391.669676 
L 397.418968 391.669676 
L 397.418968 246.632641 
L 389.139828 246.632641 
z
" style="fill:#e15759;"/>
   </g>
   <g id="patch_54">
    <path clip-path="url(#p5af015847d)" d="M 438.814667 391.669676 
L 447.093807 391.669676 
L 447.093807 255.043547 
L 438.814667 255.043547 
z
" style="fill:#e15759;"/>
   </g>
   <g id="patch_55">
    <path clip-path="url(#p5af015847d)" d="M 488.489506 391.669676 
L 496.768646 391.669676 
L 496.768646 328.6069 
L 488.489506 328.6069 
z
" style="fill:#e15759;"/>
   </g>
   <g id="patch_56">
    <path clip-path="url(#p5af015847d)" d="M 538.164345 391.669676 
L 546.443485 391.669676 
L 546.443485 342.092179 
L 538.164345 342.092179 
z
" style="fill:#e15759;"/>
   </g>
   <g id="patch_57">
    <path clip-path="url(#p5af015847d)" d="M 587.839184 391.669676 
L 596.118323 391.669676 
L 596.118323 303.800071 
L 587.839184 303.800071 
z
" style="fill:#e15759;"/>
   </g>
   <g id="patch_58">
    <path clip-path="url(#p5af015847d)" d="M 637.514022 391.669676 
L 645.793162 391.669676 
L 645.793162 438.083858 
L 637.514022 438.083858 
z
" style="fill:#e15759;"/>
   </g>
   <g id="patch_59">
    <path clip-path="url(#p5af015847d)" d="M 687.188861 391.669676 
L 695.468001 391.669676 
L 695.468001 359.063423 
L 687.188861 359.063423 
z
" style="fill:#e15759;"/>
   </g>
   <g id="patch_60">
    <path clip-path="url(#p5af015847d)" d="M 736.8637 391.669676 
L 745.14284 391.669676 
L 745.14284 358.116779 
L 736.8637 358.116779 
z
" style="fill:#e15759;"/>
   </g>
   <g id="patch_61">
    <path clip-path="url(#p5af015847d)" d="M 786.538539 391.669676 
L 794.817679 391.669676 
L 794.817679 325.37036 
L 786.538539 325.37036 
z
" style="fill:#e15759;"/>
   </g>
   <g id="patch_62">
    <path clip-path="url(#p5af015847d)" d="M 836.213378 391.669676 
L 844.492517 391.669676 
L 844.492517 395.543209 
L 836.213378 395.543209 
z
" style="fill:#e15759;"/>
   </g>
   <g id="matplotlib.axis_1">
    <g id="xtick_1">
     <g id="line2d_1">
      <defs>
       <path d="M 0 0 
L 0 9 
" id="m78b21e9b07" style="stroke:#000000;stroke-width:1.875;"/>
      </defs>
      <g>
       <use style="stroke:#000000;stroke-width:1.875;" x="136.626065" xlink:href="#m78b21e9b07" y="464.32"/>
      </g>
     </g>
     <g id="text_1">
      <!-- Height (UKBB) -->
      <defs>
       <path d="M 9.8125 72.90625 
L 19.671875 72.90625 
L 19.671875 43.015625 
L 55.515625 43.015625 
L 55.515625 72.90625 
L 65.375 72.90625 
L 65.375 0 
L 55.515625 0 
L 55.515625 34.71875 
L 19.671875 34.71875 
L 19.671875 0 
L 9.8125 0 
z
" id="DejaVuSans-72"/>
       <path d="M 56.203125 29.59375 
L 56.203125 25.203125 
L 14.890625 25.203125 
Q 15.484375 15.921875 20.484375 11.0625 
Q 25.484375 6.203125 34.421875 6.203125 
Q 39.59375 6.203125 44.453125 7.46875 
Q 49.3125 8.734375 54.109375 11.28125 
L 54.109375 2.78125 
Q 49.265625 0.734375 44.1875 -0.34375 
Q 39.109375 -1.421875 33.890625 -1.421875 
Q 20.796875 -1.421875 13.15625 6.1875 
Q 5.515625 13.8125 5.515625 26.8125 
Q 5.515625 40.234375 12.765625 48.109375 
Q 20.015625 56 32.328125 56 
Q 43.359375 56 49.78125 48.890625 
Q 56.203125 41.796875 56.203125 29.59375 
z
M 47.21875 32.234375 
Q 47.125 39.59375 43.09375 43.984375 
Q 39.0625 48.390625 32.421875 48.390625 
Q 24.90625 48.390625 20.390625 44.140625 
Q 15.875 39.890625 15.1875 32.171875 
z
" id="DejaVuSans-101"/>
       <path d="M 9.421875 54.6875 
L 18.40625 54.6875 
L 18.40625 0 
L 9.421875 0 
z
M 9.421875 75.984375 
L 18.40625 75.984375 
L 18.40625 64.59375 
L 9.421875 64.59375 
z
" id="DejaVuSans-105"/>
       <path d="M 45.40625 27.984375 
Q 45.40625 37.75 41.375 43.109375 
Q 37.359375 48.484375 30.078125 48.484375 
Q 22.859375 48.484375 18.828125 43.109375 
Q 14.796875 37.75 14.796875 27.984375 
Q 14.796875 18.265625 18.828125 12.890625 
Q 22.859375 7.515625 30.078125 7.515625 
Q 37.359375 7.515625 41.375 12.890625 
Q 45.40625 18.265625 45.40625 27.984375 
z
M 54.390625 6.78125 
Q 54.390625 -7.171875 48.1875 -13.984375 
Q 42 -20.796875 29.203125 -20.796875 
Q 24.46875 -20.796875 20.265625 -20.09375 
Q 16.0625 -19.390625 12.109375 -17.921875 
L 12.109375 -9.1875 
Q 16.0625 -11.328125 19.921875 -12.34375 
Q 23.78125 -13.375 27.78125 -13.375 
Q 36.625 -13.375 41.015625 -8.765625 
Q 45.40625 -4.15625 45.40625 5.171875 
L 45.40625 9.625 
Q 42.625 4.78125 38.28125 2.390625 
Q 33.9375 0 27.875 0 
Q 17.828125 0 11.671875 7.65625 
Q 5.515625 15.328125 5.515625 27.984375 
Q 5.515625 40.671875 11.671875 48.328125 
Q 17.828125 56 27.875 56 
Q 33.9375 56 38.28125 53.609375 
Q 42.625 51.21875 45.40625 46.390625 
L 45.40625 54.6875 
L 54.390625 54.6875 
z
" id="DejaVuSans-103"/>
       <path d="M 54.890625 33.015625 
L 54.890625 0 
L 45.90625 0 
L 45.90625 32.71875 
Q 45.90625 40.484375 42.875 44.328125 
Q 39.84375 48.1875 33.796875 48.1875 
Q 26.515625 48.1875 22.3125 43.546875 
Q 18.109375 38.921875 18.109375 30.90625 
L 18.109375 0 
L 9.078125 0 
L 9.078125 75.984375 
L 18.109375 75.984375 
L 18.109375 46.1875 
Q 21.34375 51.125 25.703125 53.5625 
Q 30.078125 56 35.796875 56 
Q 45.21875 56 50.046875 50.171875 
Q 54.890625 44.34375 54.890625 33.015625 
z
" id="DejaVuSans-104"/>
       <path d="M 18.3125 70.21875 
L 18.3125 54.6875 
L 36.8125 54.6875 
L 36.8125 47.703125 
L 18.3125 47.703125 
L 18.3125 18.015625 
Q 18.3125 11.328125 20.140625 9.421875 
Q 21.96875 7.515625 27.59375 7.515625 
L 36.8125 7.515625 
L 36.8125 0 
L 27.59375 0 
Q 17.1875 0 13.234375 3.875 
Q 9.28125 7.765625 9.28125 18.015625 
L 9.28125 47.703125 
L 2.6875 47.703125 
L 2.6875 54.6875 
L 9.28125 54.6875 
L 9.28125 70.21875 
z
" id="DejaVuSans-116"/>
       <path id="DejaVuSans-32"/>
       <path d="M 31 75.875 
Q 24.46875 64.65625 21.28125 53.65625 
Q 18.109375 42.671875 18.109375 31.390625 
Q 18.109375 20.125 21.3125 9.0625 
Q 24.515625 -2 31 -13.1875 
L 23.1875 -13.1875 
Q 15.875 -1.703125 12.234375 9.375 
Q 8.59375 20.453125 8.59375 31.390625 
Q 8.59375 42.28125 12.203125 53.3125 
Q 15.828125 64.359375 23.1875 75.875 
z
" id="DejaVuSans-40"/>
       <path d="M 8.6875 72.90625 
L 18.609375 72.90625 
L 18.609375 28.609375 
Q 18.609375 16.890625 22.84375 11.734375 
Q 27.09375 6.59375 36.625 6.59375 
Q 46.09375 6.59375 50.34375 11.734375 
Q 54.59375 16.890625 54.59375 28.609375 
L 54.59375 72.90625 
L 64.5 72.90625 
L 64.5 27.390625 
Q 64.5 13.140625 57.4375 5.859375 
Q 50.390625 -1.421875 36.625 -1.421875 
Q 22.796875 -1.421875 15.734375 5.859375 
Q 8.6875 13.140625 8.6875 27.390625 
z
" id="DejaVuSans-85"/>
       <path d="M 9.8125 72.90625 
L 19.671875 72.90625 
L 19.671875 42.09375 
L 52.390625 72.90625 
L 65.09375 72.90625 
L 28.90625 38.921875 
L 67.671875 0 
L 54.6875 0 
L 19.671875 35.109375 
L 19.671875 0 
L 9.8125 0 
z
" id="DejaVuSans-75"/>
       <path d="M 19.671875 34.8125 
L 19.671875 8.109375 
L 35.5 8.109375 
Q 43.453125 8.109375 47.28125 11.40625 
Q 51.125 14.703125 51.125 21.484375 
Q 51.125 28.328125 47.28125 31.5625 
Q 43.453125 34.8125 35.5 34.8125 
z
M 19.671875 64.796875 
L 19.671875 42.828125 
L 34.28125 42.828125 
Q 41.5 42.828125 45.03125 45.53125 
Q 48.578125 48.25 48.578125 53.8125 
Q 48.578125 59.328125 45.03125 62.0625 
Q 41.5 64.796875 34.28125 64.796875 
z
M 9.8125 72.90625 
L 35.015625 72.90625 
Q 46.296875 72.90625 52.390625 68.21875 
Q 58.5 63.53125 58.5 54.890625 
Q 58.5 48.1875 55.375 44.234375 
Q 52.25 40.28125 46.1875 39.3125 
Q 53.46875 37.75 57.5 32.78125 
Q 61.53125 27.828125 61.53125 20.40625 
Q 61.53125 10.640625 54.890625 5.3125 
Q 48.25 0 35.984375 0 
L 9.8125 0 
z
" id="DejaVuSans-66"/>
       <path d="M 8.015625 75.875 
L 15.828125 75.875 
Q 23.140625 64.359375 26.78125 53.3125 
Q 30.421875 42.28125 30.421875 31.390625 
Q 30.421875 20.453125 26.78125 9.375 
Q 23.140625 -1.703125 15.828125 -13.1875 
L 8.015625 -13.1875 
Q 14.5 -2 17.703125 9.0625 
Q 20.90625 20.125 20.90625 31.390625 
Q 20.90625 42.671875 17.703125 53.65625 
Q 14.5 64.65625 8.015625 75.875 
z
" id="DejaVuSans-41"/>
      </defs>
      <g transform="translate(141.179033 595.021875)rotate(-90)scale(0.165 -0.165)">
       <use xlink:href="#DejaVuSans-72"/>
       <use x="75.195312" xlink:href="#DejaVuSans-101"/>
       <use x="136.71875" xlink:href="#DejaVuSans-105"/>
       <use x="164.501953" xlink:href="#DejaVuSans-103"/>
       <use x="227.978516" xlink:href="#DejaVuSans-104"/>
       <use x="291.357422" xlink:href="#DejaVuSans-116"/>
       <use x="330.566406" xlink:href="#DejaVuSans-32"/>
       <use x="362.353516" xlink:href="#DejaVuSans-40"/>
       <use x="401.367188" xlink:href="#DejaVuSans-85"/>
       <use x="474.560547" xlink:href="#DejaVuSans-75"/>
       <use x="540.136719" xlink:href="#DejaVuSans-66"/>
       <use x="608.740234" xlink:href="#DejaVuSans-66"/>
       <use x="677.34375" xlink:href="#DejaVuSans-41"/>
      </g>
     </g>
    </g>
    <g id="xtick_2">
     <g id="line2d_2">
      <g>
       <use style="stroke:#000000;stroke-width:1.875;" x="186.300903" xlink:href="#m78b21e9b07" y="464.32"/>
      </g>
     </g>
     <g id="text_2">
      <!-- FEV1-FVC Ratio -->
      <defs>
       <path d="M 9.8125 72.90625 
L 51.703125 72.90625 
L 51.703125 64.59375 
L 19.671875 64.59375 
L 19.671875 43.109375 
L 48.578125 43.109375 
L 48.578125 34.8125 
L 19.671875 34.8125 
L 19.671875 0 
L 9.8125 0 
z
" id="DejaVuSans-70"/>
       <path d="M 9.8125 72.90625 
L 55.90625 72.90625 
L 55.90625 64.59375 
L 19.671875 64.59375 
L 19.671875 43.015625 
L 54.390625 43.015625 
L 54.390625 34.71875 
L 19.671875 34.71875 
L 19.671875 8.296875 
L 56.78125 8.296875 
L 56.78125 0 
L 9.8125 0 
z
" id="DejaVuSans-69"/>
       <path d="M 28.609375 0 
L 0.78125 72.90625 
L 11.078125 72.90625 
L 34.1875 11.53125 
L 57.328125 72.90625 
L 67.578125 72.90625 
L 39.796875 0 
z
" id="DejaVuSans-86"/>
       <path d="M 12.40625 8.296875 
L 28.515625 8.296875 
L 28.515625 63.921875 
L 10.984375 60.40625 
L 10.984375 69.390625 
L 28.421875 72.90625 
L 38.28125 72.90625 
L 38.28125 8.296875 
L 54.390625 8.296875 
L 54.390625 0 
L 12.40625 0 
z
" id="DejaVuSans-49"/>
       <path d="M 4.890625 31.390625 
L 31.203125 31.390625 
L 31.203125 23.390625 
L 4.890625 23.390625 
z
" id="DejaVuSans-45"/>
       <path d="M 64.40625 67.28125 
L 64.40625 56.890625 
Q 59.421875 61.53125 53.78125 63.8125 
Q 48.140625 66.109375 41.796875 66.109375 
Q 29.296875 66.109375 22.65625 58.46875 
Q 16.015625 50.828125 16.015625 36.375 
Q 16.015625 21.96875 22.65625 14.328125 
Q 29.296875 6.6875 41.796875 6.6875 
Q 48.140625 6.6875 53.78125 8.984375 
Q 59.421875 11.28125 64.40625 15.921875 
L 64.40625 5.609375 
Q 59.234375 2.09375 53.4375 0.328125 
Q 47.65625 -1.421875 41.21875 -1.421875 
Q 24.65625 -1.421875 15.125 8.703125 
Q 5.609375 18.84375 5.609375 36.375 
Q 5.609375 53.953125 15.125 64.078125 
Q 24.65625 74.21875 41.21875 74.21875 
Q 47.75 74.21875 53.53125 72.484375 
Q 59.328125 70.75 64.40625 67.28125 
z
" id="DejaVuSans-67"/>
       <path d="M 44.390625 34.1875 
Q 47.5625 33.109375 50.5625 29.59375 
Q 53.5625 26.078125 56.59375 19.921875 
L 66.609375 0 
L 56 0 
L 46.6875 18.703125 
Q 43.0625 26.03125 39.671875 28.421875 
Q 36.28125 30.8125 30.421875 30.8125 
L 19.671875 30.8125 
L 19.671875 0 
L 9.8125 0 
L 9.8125 72.90625 
L 32.078125 72.90625 
Q 44.578125 72.90625 50.734375 67.671875 
Q 56.890625 62.453125 56.890625 51.90625 
Q 56.890625 45.015625 53.6875 40.46875 
Q 50.484375 35.9375 44.390625 34.1875 
z
M 19.671875 64.796875 
L 19.671875 38.921875 
L 32.078125 38.921875 
Q 39.203125 38.921875 42.84375 42.21875 
Q 46.484375 45.515625 46.484375 51.90625 
Q 46.484375 58.296875 42.84375 61.546875 
Q 39.203125 64.796875 32.078125 64.796875 
z
" id="DejaVuSans-82"/>
       <path d="M 34.28125 27.484375 
Q 23.390625 27.484375 19.1875 25 
Q 14.984375 22.515625 14.984375 16.5 
Q 14.984375 11.71875 18.140625 8.90625 
Q 21.296875 6.109375 26.703125 6.109375 
Q 34.1875 6.109375 38.703125 11.40625 
Q 43.21875 16.703125 43.21875 25.484375 
L 43.21875 27.484375 
z
M 52.203125 31.203125 
L 52.203125 0 
L 43.21875 0 
L 43.21875 8.296875 
Q 40.140625 3.328125 35.546875 0.953125 
Q 30.953125 -1.421875 24.3125 -1.421875 
Q 15.921875 -1.421875 10.953125 3.296875 
Q 6 8.015625 6 15.921875 
Q 6 25.140625 12.171875 29.828125 
Q 18.359375 34.515625 30.609375 34.515625 
L 43.21875 34.515625 
L 43.21875 35.40625 
Q 43.21875 41.609375 39.140625 45 
Q 35.0625 48.390625 27.6875 48.390625 
Q 23 48.390625 18.546875 47.265625 
Q 14.109375 46.140625 10.015625 43.890625 
L 10.015625 52.203125 
Q 14.9375 54.109375 19.578125 55.046875 
Q 24.21875 56 28.609375 56 
Q 40.484375 56 46.34375 49.84375 
Q 52.203125 43.703125 52.203125 31.203125 
z
" id="DejaVuSans-97"/>
       <path d="M 30.609375 48.390625 
Q 23.390625 48.390625 19.1875 42.75 
Q 14.984375 37.109375 14.984375 27.296875 
Q 14.984375 17.484375 19.15625 11.84375 
Q 23.34375 6.203125 30.609375 6.203125 
Q 37.796875 6.203125 41.984375 11.859375 
Q 46.1875 17.53125 46.1875 27.296875 
Q 46.1875 37.015625 41.984375 42.703125 
Q 37.796875 48.390625 30.609375 48.390625 
z
M 30.609375 56 
Q 42.328125 56 49.015625 48.375 
Q 55.71875 40.765625 55.71875 27.296875 
Q 55.71875 13.875 49.015625 6.21875 
Q 42.328125 -1.421875 30.609375 -1.421875 
Q 18.84375 -1.421875 12.171875 6.21875 
Q 5.515625 13.875 5.515625 27.296875 
Q 5.515625 40.765625 12.171875 48.375 
Q 18.84375 56 30.609375 56 
z
" id="DejaVuSans-111"/>
      </defs>
      <g transform="translate(190.853872 604.370156)rotate(-90)scale(0.165 -0.165)">
       <use xlink:href="#DejaVuSans-70"/>
       <use x="57.519531" xlink:href="#DejaVuSans-69"/>
       <use x="120.703125" xlink:href="#DejaVuSans-86"/>
       <use x="189.111328" xlink:href="#DejaVuSans-49"/>
       <use x="252.734375" xlink:href="#DejaVuSans-45"/>
       <use x="288.818359" xlink:href="#DejaVuSans-70"/>
       <use x="346.337891" xlink:href="#DejaVuSans-86"/>
       <use x="414.746094" xlink:href="#DejaVuSans-67"/>
       <use x="484.570312" xlink:href="#DejaVuSans-32"/>
       <use x="516.357422" xlink:href="#DejaVuSans-82"/>
       <use x="583.589844" xlink:href="#DejaVuSans-97"/>
       <use x="644.869141" xlink:href="#DejaVuSans-116"/>
       <use x="684.078125" xlink:href="#DejaVuSans-105"/>
       <use x="711.861328" xlink:href="#DejaVuSans-111"/>
      </g>
     </g>
    </g>
    <g id="xtick_3">
     <g id="line2d_3">
      <g>
       <use style="stroke:#000000;stroke-width:1.875;" x="235.975742" xlink:href="#m78b21e9b07" y="464.32"/>
      </g>
     </g>
     <g id="text_3">
      <!-- Red Blood Cell Count -->
      <defs>
       <path d="M 45.40625 46.390625 
L 45.40625 75.984375 
L 54.390625 75.984375 
L 54.390625 0 
L 45.40625 0 
L 45.40625 8.203125 
Q 42.578125 3.328125 38.25 0.953125 
Q 33.9375 -1.421875 27.875 -1.421875 
Q 17.96875 -1.421875 11.734375 6.484375 
Q 5.515625 14.40625 5.515625 27.296875 
Q 5.515625 40.1875 11.734375 48.09375 
Q 17.96875 56 27.875 56 
Q 33.9375 56 38.25 53.625 
Q 42.578125 51.265625 45.40625 46.390625 
z
M 14.796875 27.296875 
Q 14.796875 17.390625 18.875 11.75 
Q 22.953125 6.109375 30.078125 6.109375 
Q 37.203125 6.109375 41.296875 11.75 
Q 45.40625 17.390625 45.40625 27.296875 
Q 45.40625 37.203125 41.296875 42.84375 
Q 37.203125 48.484375 30.078125 48.484375 
Q 22.953125 48.484375 18.875 42.84375 
Q 14.796875 37.203125 14.796875 27.296875 
z
" id="DejaVuSans-100"/>
       <path d="M 9.421875 75.984375 
L 18.40625 75.984375 
L 18.40625 0 
L 9.421875 0 
z
" id="DejaVuSans-108"/>
       <path d="M 8.5 21.578125 
L 8.5 54.6875 
L 17.484375 54.6875 
L 17.484375 21.921875 
Q 17.484375 14.15625 20.5 10.265625 
Q 23.53125 6.390625 29.59375 6.390625 
Q 36.859375 6.390625 41.078125 11.03125 
Q 45.3125 15.671875 45.3125 23.6875 
L 45.3125 54.6875 
L 54.296875 54.6875 
L 54.296875 0 
L 45.3125 0 
L 45.3125 8.40625 
Q 42.046875 3.421875 37.71875 1 
Q 33.40625 -1.421875 27.6875 -1.421875 
Q 18.265625 -1.421875 13.375 4.4375 
Q 8.5 10.296875 8.5 21.578125 
z
M 31.109375 56 
z
" id="DejaVuSans-117"/>
       <path d="M 54.890625 33.015625 
L 54.890625 0 
L 45.90625 0 
L 45.90625 32.71875 
Q 45.90625 40.484375 42.875 44.328125 
Q 39.84375 48.1875 33.796875 48.1875 
Q 26.515625 48.1875 22.3125 43.546875 
Q 18.109375 38.921875 18.109375 30.90625 
L 18.109375 0 
L 9.078125 0 
L 9.078125 54.6875 
L 18.109375 54.6875 
L 18.109375 46.1875 
Q 21.34375 51.125 25.703125 53.5625 
Q 30.078125 56 35.796875 56 
Q 45.21875 56 50.046875 50.171875 
Q 54.890625 44.34375 54.890625 33.015625 
z
" id="DejaVuSans-110"/>
      </defs>
      <g transform="translate(240.528711 650.314922)rotate(-90)scale(0.165 -0.165)">
       <use xlink:href="#DejaVuSans-82"/>
       <use x="64.982422" xlink:href="#DejaVuSans-101"/>
       <use x="126.505859" xlink:href="#DejaVuSans-100"/>
       <use x="189.982422" xlink:href="#DejaVuSans-32"/>
       <use x="221.769531" xlink:href="#DejaVuSans-66"/>
       <use x="290.373047" xlink:href="#DejaVuSans-108"/>
       <use x="318.15625" xlink:href="#DejaVuSans-111"/>
       <use x="379.337891" xlink:href="#DejaVuSans-111"/>
       <use x="440.519531" xlink:href="#DejaVuSans-100"/>
       <use x="503.996094" xlink:href="#DejaVuSans-32"/>
       <use x="535.783203" xlink:href="#DejaVuSans-67"/>
       <use x="605.607422" xlink:href="#DejaVuSans-101"/>
       <use x="667.130859" xlink:href="#DejaVuSans-108"/>
       <use x="694.914062" xlink:href="#DejaVuSans-108"/>
       <use x="722.697266" xlink:href="#DejaVuSans-32"/>
       <use x="754.484375" xlink:href="#DejaVuSans-67"/>
       <use x="824.308594" xlink:href="#DejaVuSans-111"/>
       <use x="885.490234" xlink:href="#DejaVuSans-117"/>
       <use x="948.869141" xlink:href="#DejaVuSans-110"/>
       <use x="1012.248047" xlink:href="#DejaVuSans-116"/>
      </g>
     </g>
    </g>
    <g id="xtick_4">
     <g id="line2d_4">
      <g>
       <use style="stroke:#000000;stroke-width:1.875;" x="285.650581" xlink:href="#m78b21e9b07" y="464.32"/>
      </g>
     </g>
     <g id="text_4">
      <!-- Systolic Blood Pressure -->
      <defs>
       <path d="M 53.515625 70.515625 
L 53.515625 60.890625 
Q 47.90625 63.578125 42.921875 64.890625 
Q 37.9375 66.21875 33.296875 66.21875 
Q 25.25 66.21875 20.875 63.09375 
Q 16.5 59.96875 16.5 54.203125 
Q 16.5 49.359375 19.40625 46.890625 
Q 22.3125 44.4375 30.421875 42.921875 
L 36.375 41.703125 
Q 47.40625 39.59375 52.65625 34.296875 
Q 57.90625 29 57.90625 20.125 
Q 57.90625 9.515625 50.796875 4.046875 
Q 43.703125 -1.421875 29.984375 -1.421875 
Q 24.8125 -1.421875 18.96875 -0.25 
Q 13.140625 0.921875 6.890625 3.21875 
L 6.890625 13.375 
Q 12.890625 10.015625 18.65625 8.296875 
Q 24.421875 6.59375 29.984375 6.59375 
Q 38.421875 6.59375 43.015625 9.90625 
Q 47.609375 13.234375 47.609375 19.390625 
Q 47.609375 24.75 44.3125 27.78125 
Q 41.015625 30.8125 33.5 32.328125 
L 27.484375 33.5 
Q 16.453125 35.6875 11.515625 40.375 
Q 6.59375 45.0625 6.59375 53.421875 
Q 6.59375 63.09375 13.40625 68.65625 
Q 20.21875 74.21875 32.171875 74.21875 
Q 37.3125 74.21875 42.625 73.28125 
Q 47.953125 72.359375 53.515625 70.515625 
z
" id="DejaVuSans-83"/>
       <path d="M 32.171875 -5.078125 
Q 28.375 -14.84375 24.75 -17.8125 
Q 21.140625 -20.796875 15.09375 -20.796875 
L 7.90625 -20.796875 
L 7.90625 -13.28125 
L 13.1875 -13.28125 
Q 16.890625 -13.28125 18.9375 -11.515625 
Q 21 -9.765625 23.484375 -3.21875 
L 25.09375 0.875 
L 2.984375 54.6875 
L 12.5 54.6875 
L 29.59375 11.921875 
L 46.6875 54.6875 
L 56.203125 54.6875 
z
" id="DejaVuSans-121"/>
       <path d="M 44.28125 53.078125 
L 44.28125 44.578125 
Q 40.484375 46.53125 36.375 47.5 
Q 32.28125 48.484375 27.875 48.484375 
Q 21.1875 48.484375 17.84375 46.4375 
Q 14.5 44.390625 14.5 40.28125 
Q 14.5 37.15625 16.890625 35.375 
Q 19.28125 33.59375 26.515625 31.984375 
L 29.59375 31.296875 
Q 39.15625 29.25 43.1875 25.515625 
Q 47.21875 21.78125 47.21875 15.09375 
Q 47.21875 7.46875 41.1875 3.015625 
Q 35.15625 -1.421875 24.609375 -1.421875 
Q 20.21875 -1.421875 15.453125 -0.5625 
Q 10.6875 0.296875 5.421875 2 
L 5.421875 11.28125 
Q 10.40625 8.6875 15.234375 7.390625 
Q 20.0625 6.109375 24.8125 6.109375 
Q 31.15625 6.109375 34.5625 8.28125 
Q 37.984375 10.453125 37.984375 14.40625 
Q 37.984375 18.0625 35.515625 20.015625 
Q 33.0625 21.96875 24.703125 23.78125 
L 21.578125 24.515625 
Q 13.234375 26.265625 9.515625 29.90625 
Q 5.8125 33.546875 5.8125 39.890625 
Q 5.8125 47.609375 11.28125 51.796875 
Q 16.75 56 26.8125 56 
Q 31.78125 56 36.171875 55.265625 
Q 40.578125 54.546875 44.28125 53.078125 
z
" id="DejaVuSans-115"/>
       <path d="M 48.78125 52.59375 
L 48.78125 44.1875 
Q 44.96875 46.296875 41.140625 47.34375 
Q 37.3125 48.390625 33.40625 48.390625 
Q 24.65625 48.390625 19.8125 42.84375 
Q 14.984375 37.3125 14.984375 27.296875 
Q 14.984375 17.28125 19.8125 11.734375 
Q 24.65625 6.203125 33.40625 6.203125 
Q 37.3125 6.203125 41.140625 7.25 
Q 44.96875 8.296875 48.78125 10.40625 
L 48.78125 2.09375 
Q 45.015625 0.34375 40.984375 -0.53125 
Q 36.96875 -1.421875 32.421875 -1.421875 
Q 20.0625 -1.421875 12.78125 6.34375 
Q 5.515625 14.109375 5.515625 27.296875 
Q 5.515625 40.671875 12.859375 48.328125 
Q 20.21875 56 33.015625 56 
Q 37.15625 56 41.109375 55.140625 
Q 45.0625 54.296875 48.78125 52.59375 
z
" id="DejaVuSans-99"/>
       <path d="M 19.671875 64.796875 
L 19.671875 37.40625 
L 32.078125 37.40625 
Q 38.96875 37.40625 42.71875 40.96875 
Q 46.484375 44.53125 46.484375 51.125 
Q 46.484375 57.671875 42.71875 61.234375 
Q 38.96875 64.796875 32.078125 64.796875 
z
M 9.8125 72.90625 
L 32.078125 72.90625 
Q 44.34375 72.90625 50.609375 67.359375 
Q 56.890625 61.8125 56.890625 51.125 
Q 56.890625 40.328125 50.609375 34.8125 
Q 44.34375 29.296875 32.078125 29.296875 
L 19.671875 29.296875 
L 19.671875 0 
L 9.8125 0 
z
" id="DejaVuSans-80"/>
       <path d="M 41.109375 46.296875 
Q 39.59375 47.171875 37.8125 47.578125 
Q 36.03125 48 33.890625 48 
Q 26.265625 48 22.1875 43.046875 
Q 18.109375 38.09375 18.109375 28.8125 
L 18.109375 0 
L 9.078125 0 
L 9.078125 54.6875 
L 18.109375 54.6875 
L 18.109375 46.1875 
Q 20.953125 51.171875 25.484375 53.578125 
Q 30.03125 56 36.53125 56 
Q 37.453125 56 38.578125 55.875 
Q 39.703125 55.765625 41.0625 55.515625 
z
" id="DejaVuSans-114"/>
      </defs>
      <g transform="translate(290.20355 667.957031)rotate(-90)scale(0.165 -0.165)">
       <use xlink:href="#DejaVuSans-83"/>
       <use x="63.476562" xlink:href="#DejaVuSans-121"/>
       <use x="122.65625" xlink:href="#DejaVuSans-115"/>
       <use x="174.755859" xlink:href="#DejaVuSans-116"/>
       <use x="213.964844" xlink:href="#DejaVuSans-111"/>
       <use x="275.146484" xlink:href="#DejaVuSans-108"/>
       <use x="302.929688" xlink:href="#DejaVuSans-105"/>
       <use x="330.712891" xlink:href="#DejaVuSans-99"/>
       <use x="385.693359" xlink:href="#DejaVuSans-32"/>
       <use x="417.480469" xlink:href="#DejaVuSans-66"/>
       <use x="486.083984" xlink:href="#DejaVuSans-108"/>
       <use x="513.867188" xlink:href="#DejaVuSans-111"/>
       <use x="575.048828" xlink:href="#DejaVuSans-111"/>
       <use x="636.230469" xlink:href="#DejaVuSans-100"/>
       <use x="699.707031" xlink:href="#DejaVuSans-32"/>
       <use x="731.494141" xlink:href="#DejaVuSans-80"/>
       <use x="790.046875" xlink:href="#DejaVuSans-114"/>
       <use x="828.910156" xlink:href="#DejaVuSans-101"/>
       <use x="890.433594" xlink:href="#DejaVuSans-115"/>
       <use x="942.533203" xlink:href="#DejaVuSans-115"/>
       <use x="994.632812" xlink:href="#DejaVuSans-117"/>
       <use x="1058.011719" xlink:href="#DejaVuSans-114"/>
       <use x="1096.875" xlink:href="#DejaVuSans-101"/>
      </g>
     </g>
    </g>
    <g id="xtick_5">
     <g id="line2d_5">
      <g>
       <use style="stroke:#000000;stroke-width:1.875;" x="335.32542" xlink:href="#m78b21e9b07" y="464.32"/>
      </g>
     </g>
     <g id="text_5">
      <!-- BMI (UKBB) -->
      <defs>
       <path d="M 9.8125 72.90625 
L 24.515625 72.90625 
L 43.109375 23.296875 
L 61.8125 72.90625 
L 76.515625 72.90625 
L 76.515625 0 
L 66.890625 0 
L 66.890625 64.015625 
L 48.09375 14.015625 
L 38.1875 14.015625 
L 19.390625 64.015625 
L 19.390625 0 
L 9.8125 0 
z
" id="DejaVuSans-77"/>
       <path d="M 9.8125 72.90625 
L 19.671875 72.90625 
L 19.671875 0 
L 9.8125 0 
z
" id="DejaVuSans-73"/>
      </defs>
      <g transform="translate(339.878389 570.900937)rotate(-90)scale(0.165 -0.165)">
       <use xlink:href="#DejaVuSans-66"/>
       <use x="68.603516" xlink:href="#DejaVuSans-77"/>
       <use x="154.882812" xlink:href="#DejaVuSans-73"/>
       <use x="184.375" xlink:href="#DejaVuSans-32"/>
       <use x="216.162109" xlink:href="#DejaVuSans-40"/>
       <use x="255.175781" xlink:href="#DejaVuSans-85"/>
       <use x="328.369141" xlink:href="#DejaVuSans-75"/>
       <use x="393.945312" xlink:href="#DejaVuSans-66"/>
       <use x="462.548828" xlink:href="#DejaVuSans-66"/>
       <use x="531.152344" xlink:href="#DejaVuSans-41"/>
      </g>
     </g>
    </g>
    <g id="xtick_6">
     <g id="line2d_6">
      <g>
       <use style="stroke:#000000;stroke-width:1.875;" x="385.000259" xlink:href="#m78b21e9b07" y="464.32"/>
      </g>
     </g>
     <g id="text_6">
      <!-- Platelet Count -->
      <g transform="translate(389.553227 593.534297)rotate(-90)scale(0.165 -0.165)">
       <use xlink:href="#DejaVuSans-80"/>
       <use x="60.302734" xlink:href="#DejaVuSans-108"/>
       <use x="88.085938" xlink:href="#DejaVuSans-97"/>
       <use x="149.365234" xlink:href="#DejaVuSans-116"/>
       <use x="188.574219" xlink:href="#DejaVuSans-101"/>
       <use x="250.097656" xlink:href="#DejaVuSans-108"/>
       <use x="277.880859" xlink:href="#DejaVuSans-101"/>
       <use x="339.404297" xlink:href="#DejaVuSans-116"/>
       <use x="378.613281" xlink:href="#DejaVuSans-32"/>
       <use x="410.400391" xlink:href="#DejaVuSans-67"/>
       <use x="480.224609" xlink:href="#DejaVuSans-111"/>
       <use x="541.40625" xlink:href="#DejaVuSans-117"/>
       <use x="604.785156" xlink:href="#DejaVuSans-110"/>
       <use x="668.164062" xlink:href="#DejaVuSans-116"/>
      </g>
     </g>
    </g>
    <g id="xtick_7">
     <g id="line2d_7">
      <g>
       <use style="stroke:#000000;stroke-width:1.875;" x="434.675097" xlink:href="#m78b21e9b07" y="464.32"/>
      </g>
     </g>
     <g id="text_7">
      <!-- Heel T Score -->
      <defs>
       <path d="M -0.296875 72.90625 
L 61.375 72.90625 
L 61.375 64.59375 
L 35.5 64.59375 
L 35.5 0 
L 25.59375 0 
L 25.59375 64.59375 
L -0.296875 64.59375 
z
" id="DejaVuSans-84"/>
      </defs>
      <g transform="translate(439.228066 580.891172)rotate(-90)scale(0.165 -0.165)">
       <use xlink:href="#DejaVuSans-72"/>
       <use x="75.195312" xlink:href="#DejaVuSans-101"/>
       <use x="136.71875" xlink:href="#DejaVuSans-101"/>
       <use x="198.242188" xlink:href="#DejaVuSans-108"/>
       <use x="226.025391" xlink:href="#DejaVuSans-32"/>
       <use x="257.8125" xlink:href="#DejaVuSans-84"/>
       <use x="318.896484" xlink:href="#DejaVuSans-32"/>
       <use x="350.683594" xlink:href="#DejaVuSans-83"/>
       <use x="414.160156" xlink:href="#DejaVuSans-99"/>
       <use x="469.140625" xlink:href="#DejaVuSans-111"/>
       <use x="530.322266" xlink:href="#DejaVuSans-114"/>
       <use x="569.185547" xlink:href="#DejaVuSans-101"/>
      </g>
     </g>
    </g>
    <g id="xtick_8">
     <g id="line2d_8">
      <g>
       <use style="stroke:#000000;stroke-width:1.875;" x="484.349936" xlink:href="#m78b21e9b07" y="464.32"/>
      </g>
     </g>
     <g id="text_8">
      <!-- Forced Vital Capacity (FVC) -->
      <defs>
       <path d="M 18.109375 8.203125 
L 18.109375 -20.796875 
L 9.078125 -20.796875 
L 9.078125 54.6875 
L 18.109375 54.6875 
L 18.109375 46.390625 
Q 20.953125 51.265625 25.265625 53.625 
Q 29.59375 56 35.59375 56 
Q 45.5625 56 51.78125 48.09375 
Q 58.015625 40.1875 58.015625 27.296875 
Q 58.015625 14.40625 51.78125 6.484375 
Q 45.5625 -1.421875 35.59375 -1.421875 
Q 29.59375 -1.421875 25.265625 0.953125 
Q 20.953125 3.328125 18.109375 8.203125 
z
M 48.6875 27.296875 
Q 48.6875 37.203125 44.609375 42.84375 
Q 40.53125 48.484375 33.40625 48.484375 
Q 26.265625 48.484375 22.1875 42.84375 
Q 18.109375 37.203125 18.109375 27.296875 
Q 18.109375 17.390625 22.1875 11.75 
Q 26.265625 6.109375 33.40625 6.109375 
Q 40.53125 6.109375 44.609375 11.75 
Q 48.6875 17.390625 48.6875 27.296875 
z
" id="DejaVuSans-112"/>
      </defs>
      <g transform="translate(488.902905 701.598984)rotate(-90)scale(0.165 -0.165)">
       <use xlink:href="#DejaVuSans-70"/>
       <use x="53.894531" xlink:href="#DejaVuSans-111"/>
       <use x="115.076172" xlink:href="#DejaVuSans-114"/>
       <use x="153.939453" xlink:href="#DejaVuSans-99"/>
       <use x="208.919922" xlink:href="#DejaVuSans-101"/>
       <use x="270.443359" xlink:href="#DejaVuSans-100"/>
       <use x="333.919922" xlink:href="#DejaVuSans-32"/>
       <use x="365.707031" xlink:href="#DejaVuSans-86"/>
       <use x="431.865234" xlink:href="#DejaVuSans-105"/>
       <use x="459.648438" xlink:href="#DejaVuSans-116"/>
       <use x="498.857422" xlink:href="#DejaVuSans-97"/>
       <use x="560.136719" xlink:href="#DejaVuSans-108"/>
       <use x="587.919922" xlink:href="#DejaVuSans-32"/>
       <use x="619.707031" xlink:href="#DejaVuSans-67"/>
       <use x="689.53125" xlink:href="#DejaVuSans-97"/>
       <use x="750.810547" xlink:href="#DejaVuSans-112"/>
       <use x="814.287109" xlink:href="#DejaVuSans-97"/>
       <use x="875.566406" xlink:href="#DejaVuSans-99"/>
       <use x="930.546875" xlink:href="#DejaVuSans-105"/>
       <use x="958.330078" xlink:href="#DejaVuSans-116"/>
       <use x="997.539062" xlink:href="#DejaVuSans-121"/>
       <use x="1056.71875" xlink:href="#DejaVuSans-32"/>
       <use x="1088.505859" xlink:href="#DejaVuSans-40"/>
       <use x="1127.519531" xlink:href="#DejaVuSans-70"/>
       <use x="1185.039062" xlink:href="#DejaVuSans-86"/>
       <use x="1253.447266" xlink:href="#DejaVuSans-67"/>
       <use x="1323.271484" xlink:href="#DejaVuSans-41"/>
      </g>
     </g>
    </g>
    <g id="xtick_9">
     <g id="line2d_9">
      <g>
       <use style="stroke:#000000;stroke-width:1.875;" x="534.024775" xlink:href="#m78b21e9b07" y="464.32"/>
      </g>
     </g>
     <g id="text_9">
      <!-- Waist-hip Ratio -->
      <defs>
       <path d="M 3.328125 72.90625 
L 13.28125 72.90625 
L 28.609375 11.28125 
L 43.890625 72.90625 
L 54.984375 72.90625 
L 70.3125 11.28125 
L 85.59375 72.90625 
L 95.609375 72.90625 
L 77.296875 0 
L 64.890625 0 
L 49.515625 63.28125 
L 33.984375 0 
L 21.578125 0 
z
" id="DejaVuSans-87"/>
      </defs>
      <g transform="translate(538.577744 600.907734)rotate(-90)scale(0.165 -0.165)">
       <use xlink:href="#DejaVuSans-87"/>
       <use x="92.501953" xlink:href="#DejaVuSans-97"/>
       <use x="153.78125" xlink:href="#DejaVuSans-105"/>
       <use x="181.564453" xlink:href="#DejaVuSans-115"/>
       <use x="233.664062" xlink:href="#DejaVuSans-116"/>
       <use x="272.873047" xlink:href="#DejaVuSans-45"/>
       <use x="308.957031" xlink:href="#DejaVuSans-104"/>
       <use x="372.335938" xlink:href="#DejaVuSans-105"/>
       <use x="400.119141" xlink:href="#DejaVuSans-112"/>
       <use x="463.595703" xlink:href="#DejaVuSans-32"/>
       <use x="495.382812" xlink:href="#DejaVuSans-82"/>
       <use x="562.615234" xlink:href="#DejaVuSans-97"/>
       <use x="623.894531" xlink:href="#DejaVuSans-116"/>
       <use x="663.103516" xlink:href="#DejaVuSans-105"/>
       <use x="690.886719" xlink:href="#DejaVuSans-111"/>
      </g>
     </g>
    </g>
    <g id="xtick_10">
     <g id="line2d_10">
      <g>
       <use style="stroke:#000000;stroke-width:1.875;" x="583.699614" xlink:href="#m78b21e9b07" y="464.32"/>
      </g>
     </g>
     <g id="text_10">
      <!-- White Blood Cell Count -->
      <g transform="translate(588.252582 666.94125)rotate(-90)scale(0.165 -0.165)">
       <use xlink:href="#DejaVuSans-87"/>
       <use x="98.876953" xlink:href="#DejaVuSans-104"/>
       <use x="162.255859" xlink:href="#DejaVuSans-105"/>
       <use x="190.039062" xlink:href="#DejaVuSans-116"/>
       <use x="229.248047" xlink:href="#DejaVuSans-101"/>
       <use x="290.771484" xlink:href="#DejaVuSans-32"/>
       <use x="322.558594" xlink:href="#DejaVuSans-66"/>
       <use x="391.162109" xlink:href="#DejaVuSans-108"/>
       <use x="418.945312" xlink:href="#DejaVuSans-111"/>
       <use x="480.126953" xlink:href="#DejaVuSans-111"/>
       <use x="541.308594" xlink:href="#DejaVuSans-100"/>
       <use x="604.785156" xlink:href="#DejaVuSans-32"/>
       <use x="636.572266" xlink:href="#DejaVuSans-67"/>
       <use x="706.396484" xlink:href="#DejaVuSans-101"/>
       <use x="767.919922" xlink:href="#DejaVuSans-108"/>
       <use x="795.703125" xlink:href="#DejaVuSans-108"/>
       <use x="823.486328" xlink:href="#DejaVuSans-32"/>
       <use x="855.273438" xlink:href="#DejaVuSans-67"/>
       <use x="925.097656" xlink:href="#DejaVuSans-111"/>
       <use x="986.279297" xlink:href="#DejaVuSans-117"/>
       <use x="1049.658203" xlink:href="#DejaVuSans-110"/>
       <use x="1113.037109" xlink:href="#DejaVuSans-116"/>
      </g>
     </g>
    </g>
    <g id="xtick_11">
     <g id="line2d_11">
      <g>
       <use style="stroke:#000000;stroke-width:1.875;" x="633.374452" xlink:href="#m78b21e9b07" y="464.32"/>
      </g>
     </g>
     <g id="text_11">
      <!-- HDL -->
      <defs>
       <path d="M 19.671875 64.796875 
L 19.671875 8.109375 
L 31.59375 8.109375 
Q 46.6875 8.109375 53.6875 14.9375 
Q 60.6875 21.78125 60.6875 36.53125 
Q 60.6875 51.171875 53.6875 57.984375 
Q 46.6875 64.796875 31.59375 64.796875 
z
M 9.8125 72.90625 
L 30.078125 72.90625 
Q 51.265625 72.90625 61.171875 64.09375 
Q 71.09375 55.28125 71.09375 36.53125 
Q 71.09375 17.671875 61.125 8.828125 
Q 51.171875 0 30.078125 0 
L 9.8125 0 
z
" id="DejaVuSans-68"/>
       <path d="M 9.8125 72.90625 
L 19.671875 72.90625 
L 19.671875 8.296875 
L 55.171875 8.296875 
L 55.171875 0 
L 9.8125 0 
z
" id="DejaVuSans-76"/>
      </defs>
      <g transform="translate(637.927421 511.127109)rotate(-90)scale(0.165 -0.165)">
       <use xlink:href="#DejaVuSans-72"/>
       <use x="75.195312" xlink:href="#DejaVuSans-68"/>
       <use x="152.197266" xlink:href="#DejaVuSans-76"/>
      </g>
     </g>
    </g>
    <g id="xtick_12">
     <g id="line2d_12">
      <g>
       <use style="stroke:#000000;stroke-width:1.875;" x="683.049291" xlink:href="#m78b21e9b07" y="464.32"/>
      </g>
     </g>
     <g id="text_12">
      <!-- Neuroticism -->
      <defs>
       <path d="M 9.8125 72.90625 
L 23.09375 72.90625 
L 55.421875 11.921875 
L 55.421875 72.90625 
L 64.984375 72.90625 
L 64.984375 0 
L 51.703125 0 
L 19.390625 60.984375 
L 19.390625 0 
L 9.8125 0 
z
" id="DejaVuSans-78"/>
       <path d="M 52 44.1875 
Q 55.375 50.25 60.0625 53.125 
Q 64.75 56 71.09375 56 
Q 79.640625 56 84.28125 50.015625 
Q 88.921875 44.046875 88.921875 33.015625 
L 88.921875 0 
L 79.890625 0 
L 79.890625 32.71875 
Q 79.890625 40.578125 77.09375 44.375 
Q 74.3125 48.1875 68.609375 48.1875 
Q 61.625 48.1875 57.5625 43.546875 
Q 53.515625 38.921875 53.515625 30.90625 
L 53.515625 0 
L 44.484375 0 
L 44.484375 32.71875 
Q 44.484375 40.625 41.703125 44.40625 
Q 38.921875 48.1875 33.109375 48.1875 
Q 26.21875 48.1875 22.15625 43.53125 
Q 18.109375 38.875 18.109375 30.90625 
L 18.109375 0 
L 9.078125 0 
L 9.078125 54.6875 
L 18.109375 54.6875 
L 18.109375 46.1875 
Q 21.1875 51.21875 25.484375 53.609375 
Q 29.78125 56 35.6875 56 
Q 41.65625 56 45.828125 52.96875 
Q 50 49.953125 52 44.1875 
z
" id="DejaVuSans-109"/>
      </defs>
      <g transform="translate(687.60226 575.657578)rotate(-90)scale(0.165 -0.165)">
       <use xlink:href="#DejaVuSans-78"/>
       <use x="74.804688" xlink:href="#DejaVuSans-101"/>
       <use x="136.328125" xlink:href="#DejaVuSans-117"/>
       <use x="199.707031" xlink:href="#DejaVuSans-114"/>
       <use x="238.570312" xlink:href="#DejaVuSans-111"/>
       <use x="299.751953" xlink:href="#DejaVuSans-116"/>
       <use x="338.960938" xlink:href="#DejaVuSans-105"/>
       <use x="366.744141" xlink:href="#DejaVuSans-99"/>
       <use x="421.724609" xlink:href="#DejaVuSans-105"/>
       <use x="449.507812" xlink:href="#DejaVuSans-115"/>
       <use x="501.607422" xlink:href="#DejaVuSans-109"/>
      </g>
     </g>
    </g>
    <g id="xtick_13">
     <g id="line2d_13">
      <g>
       <use style="stroke:#000000;stroke-width:1.875;" x="732.72413" xlink:href="#m78b21e9b07" y="464.32"/>
      </g>
     </g>
     <g id="text_13">
      <!-- Smoking Status -->
      <defs>
       <path d="M 9.078125 75.984375 
L 18.109375 75.984375 
L 18.109375 31.109375 
L 44.921875 54.6875 
L 56.390625 54.6875 
L 27.390625 29.109375 
L 57.625 0 
L 45.90625 0 
L 18.109375 26.703125 
L 18.109375 0 
L 9.078125 0 
z
" id="DejaVuSans-107"/>
      </defs>
      <g transform="translate(737.277099 606.352734)rotate(-90)scale(0.165 -0.165)">
       <use xlink:href="#DejaVuSans-83"/>
       <use x="63.476562" xlink:href="#DejaVuSans-109"/>
       <use x="160.888672" xlink:href="#DejaVuSans-111"/>
       <use x="222.070312" xlink:href="#DejaVuSans-107"/>
       <use x="279.980469" xlink:href="#DejaVuSans-105"/>
       <use x="307.763672" xlink:href="#DejaVuSans-110"/>
       <use x="371.142578" xlink:href="#DejaVuSans-103"/>
       <use x="434.619141" xlink:href="#DejaVuSans-32"/>
       <use x="466.40625" xlink:href="#DejaVuSans-83"/>
       <use x="529.882812" xlink:href="#DejaVuSans-116"/>
       <use x="569.091797" xlink:href="#DejaVuSans-97"/>
       <use x="630.371094" xlink:href="#DejaVuSans-116"/>
       <use x="669.580078" xlink:href="#DejaVuSans-117"/>
       <use x="732.958984" xlink:href="#DejaVuSans-115"/>
      </g>
     </g>
    </g>
    <g id="xtick_14">
     <g id="line2d_14">
      <g>
       <use style="stroke:#000000;stroke-width:1.875;" x="782.398969" xlink:href="#m78b21e9b07" y="464.32"/>
      </g>
     </g>
     <g id="text_14">
      <!-- College Education -->
      <g transform="translate(786.951938 625.776328)rotate(-90)scale(0.165 -0.165)">
       <use xlink:href="#DejaVuSans-67"/>
       <use x="69.824219" xlink:href="#DejaVuSans-111"/>
       <use x="131.005859" xlink:href="#DejaVuSans-108"/>
       <use x="158.789062" xlink:href="#DejaVuSans-108"/>
       <use x="186.572266" xlink:href="#DejaVuSans-101"/>
       <use x="248.095703" xlink:href="#DejaVuSans-103"/>
       <use x="311.572266" xlink:href="#DejaVuSans-101"/>
       <use x="373.095703" xlink:href="#DejaVuSans-32"/>
       <use x="404.882812" xlink:href="#DejaVuSans-69"/>
       <use x="468.066406" xlink:href="#DejaVuSans-100"/>
       <use x="531.542969" xlink:href="#DejaVuSans-117"/>
       <use x="594.921875" xlink:href="#DejaVuSans-99"/>
       <use x="649.902344" xlink:href="#DejaVuSans-97"/>
       <use x="711.181641" xlink:href="#DejaVuSans-116"/>
       <use x="750.390625" xlink:href="#DejaVuSans-105"/>
       <use x="778.173828" xlink:href="#DejaVuSans-111"/>
       <use x="839.355469" xlink:href="#DejaVuSans-110"/>
      </g>
     </g>
    </g>
    <g id="xtick_15">
     <g id="line2d_15">
      <g>
       <use style="stroke:#000000;stroke-width:1.875;" x="832.073808" xlink:href="#m78b21e9b07" y="464.32"/>
      </g>
     </g>
     <g id="text_15">
      <!-- Years of Education -->
      <defs>
       <path d="M -0.203125 72.90625 
L 10.40625 72.90625 
L 30.609375 42.921875 
L 50.6875 72.90625 
L 61.28125 72.90625 
L 35.5 34.71875 
L 35.5 0 
L 25.59375 0 
L 25.59375 34.71875 
z
" id="DejaVuSans-89"/>
       <path d="M 37.109375 75.984375 
L 37.109375 68.5 
L 28.515625 68.5 
Q 23.6875 68.5 21.796875 66.546875 
Q 19.921875 64.59375 19.921875 59.515625 
L 19.921875 54.6875 
L 34.71875 54.6875 
L 34.71875 47.703125 
L 19.921875 47.703125 
L 19.921875 0 
L 10.890625 0 
L 10.890625 47.703125 
L 2.296875 47.703125 
L 2.296875 54.6875 
L 10.890625 54.6875 
L 10.890625 58.5 
Q 10.890625 67.625 15.140625 71.796875 
Q 19.390625 75.984375 28.609375 75.984375 
z
" id="DejaVuSans-102"/>
      </defs>
      <g transform="translate(836.626776 628.893281)rotate(-90)scale(0.165 -0.165)">
       <use xlink:href="#DejaVuSans-89"/>
       <use x="47.833984" xlink:href="#DejaVuSans-101"/>
       <use x="109.357422" xlink:href="#DejaVuSans-97"/>
       <use x="170.636719" xlink:href="#DejaVuSans-114"/>
       <use x="211.75" xlink:href="#DejaVuSans-115"/>
       <use x="263.849609" xlink:href="#DejaVuSans-32"/>
       <use x="295.636719" xlink:href="#DejaVuSans-111"/>
       <use x="356.818359" xlink:href="#DejaVuSans-102"/>
       <use x="392.023438" xlink:href="#DejaVuSans-32"/>
       <use x="423.810547" xlink:href="#DejaVuSans-69"/>
       <use x="486.994141" xlink:href="#DejaVuSans-100"/>
       <use x="550.470703" xlink:href="#DejaVuSans-117"/>
       <use x="613.849609" xlink:href="#DejaVuSans-99"/>
       <use x="668.830078" xlink:href="#DejaVuSans-97"/>
       <use x="730.109375" xlink:href="#DejaVuSans-116"/>
       <use x="769.318359" xlink:href="#DejaVuSans-105"/>
       <use x="797.101562" xlink:href="#DejaVuSans-111"/>
       <use x="858.283203" xlink:href="#DejaVuSans-110"/>
      </g>
     </g>
    </g>
   </g>
   <g id="matplotlib.axis_2">
    <g id="ytick_1">
     <g id="line2d_16">
      <defs>
       <path d="M 0 0 
L -9 0 
" id="mca7ea77f80" style="stroke:#000000;stroke-width:1.875;"/>
      </defs>
      <g>
       <use style="stroke:#000000;stroke-width:1.875;" x="79.5" xlink:href="#mca7ea77f80" y="391.669676"/>
      </g>
     </g>
     <g id="text_16">
      <!-- 0.0 -->
      <defs>
       <path d="M 31.78125 66.40625 
Q 24.171875 66.40625 20.328125 58.90625 
Q 16.5 51.421875 16.5 36.375 
Q 16.5 21.390625 20.328125 13.890625 
Q 24.171875 6.390625 31.78125 6.390625 
Q 39.453125 6.390625 43.28125 13.890625 
Q 47.125 21.390625 47.125 36.375 
Q 47.125 51.421875 43.28125 58.90625 
Q 39.453125 66.40625 31.78125 66.40625 
z
M 31.78125 74.21875 
Q 44.046875 74.21875 50.515625 64.515625 
Q 56.984375 54.828125 56.984375 36.375 
Q 56.984375 17.96875 50.515625 8.265625 
Q 44.046875 -1.421875 31.78125 -1.421875 
Q 19.53125 -1.421875 13.0625 8.265625 
Q 6.59375 17.96875 6.59375 36.375 
Q 6.59375 54.828125 13.0625 64.515625 
Q 19.53125 74.21875 31.78125 74.21875 
z
" id="DejaVuSans-48"/>
       <path d="M 10.6875 12.40625 
L 21 12.40625 
L 21 0 
L 10.6875 0 
z
" id="DejaVuSans-46"/>
      </defs>
      <g transform="translate(40.759844 397.938386)scale(0.165 -0.165)">
       <use xlink:href="#DejaVuSans-48"/>
       <use x="63.623047" xlink:href="#DejaVuSans-46"/>
       <use x="95.410156" xlink:href="#DejaVuSans-48"/>
      </g>
     </g>
    </g>
    <g id="ytick_2">
     <g id="line2d_17">
      <g>
       <use style="stroke:#000000;stroke-width:1.875;" x="79.5" xlink:href="#mca7ea77f80" y="300.27705"/>
      </g>
     </g>
     <g id="text_17">
      <!-- 0.2 -->
      <defs>
       <path d="M 19.1875 8.296875 
L 53.609375 8.296875 
L 53.609375 0 
L 7.328125 0 
L 7.328125 8.296875 
Q 12.9375 14.109375 22.625 23.890625 
Q 32.328125 33.6875 34.8125 36.53125 
Q 39.546875 41.84375 41.421875 45.53125 
Q 43.3125 49.21875 43.3125 52.78125 
Q 43.3125 58.59375 39.234375 62.25 
Q 35.15625 65.921875 28.609375 65.921875 
Q 23.96875 65.921875 18.8125 64.3125 
Q 13.671875 62.703125 7.8125 59.421875 
L 7.8125 69.390625 
Q 13.765625 71.78125 18.9375 73 
Q 24.125 74.21875 28.421875 74.21875 
Q 39.75 74.21875 46.484375 68.546875 
Q 53.21875 62.890625 53.21875 53.421875 
Q 53.21875 48.921875 51.53125 44.890625 
Q 49.859375 40.875 45.40625 35.40625 
Q 44.1875 33.984375 37.640625 27.21875 
Q 31.109375 20.453125 19.1875 8.296875 
z
" id="DejaVuSans-50"/>
      </defs>
      <g transform="translate(40.759844 306.545761)scale(0.165 -0.165)">
       <use xlink:href="#DejaVuSans-48"/>
       <use x="63.623047" xlink:href="#DejaVuSans-46"/>
       <use x="95.410156" xlink:href="#DejaVuSans-50"/>
      </g>
     </g>
    </g>
    <g id="ytick_3">
     <g id="line2d_18">
      <g>
       <use style="stroke:#000000;stroke-width:1.875;" x="79.5" xlink:href="#mca7ea77f80" y="208.884425"/>
      </g>
     </g>
     <g id="text_18">
      <!-- 0.4 -->
      <defs>
       <path d="M 37.796875 64.3125 
L 12.890625 25.390625 
L 37.796875 25.390625 
z
M 35.203125 72.90625 
L 47.609375 72.90625 
L 47.609375 25.390625 
L 58.015625 25.390625 
L 58.015625 17.1875 
L 47.609375 17.1875 
L 47.609375 0 
L 37.796875 0 
L 37.796875 17.1875 
L 4.890625 17.1875 
L 4.890625 26.703125 
z
" id="DejaVuSans-52"/>
      </defs>
      <g transform="translate(40.759844 215.153136)scale(0.165 -0.165)">
       <use xlink:href="#DejaVuSans-48"/>
       <use x="63.623047" xlink:href="#DejaVuSans-46"/>
       <use x="95.410156" xlink:href="#DejaVuSans-52"/>
      </g>
     </g>
    </g>
    <g id="ytick_4">
     <g id="line2d_19">
      <g>
       <use style="stroke:#000000;stroke-width:1.875;" x="79.5" xlink:href="#mca7ea77f80" y="117.4918"/>
      </g>
     </g>
     <g id="text_19">
      <!-- 0.6 -->
      <defs>
       <path d="M 33.015625 40.375 
Q 26.375 40.375 22.484375 35.828125 
Q 18.609375 31.296875 18.609375 23.390625 
Q 18.609375 15.53125 22.484375 10.953125 
Q 26.375 6.390625 33.015625 6.390625 
Q 39.65625 6.390625 43.53125 10.953125 
Q 47.40625 15.53125 47.40625 23.390625 
Q 47.40625 31.296875 43.53125 35.828125 
Q 39.65625 40.375 33.015625 40.375 
z
M 52.59375 71.296875 
L 52.59375 62.3125 
Q 48.875 64.0625 45.09375 64.984375 
Q 41.3125 65.921875 37.59375 65.921875 
Q 27.828125 65.921875 22.671875 59.328125 
Q 17.53125 52.734375 16.796875 39.40625 
Q 19.671875 43.65625 24.015625 45.921875 
Q 28.375 48.1875 33.59375 48.1875 
Q 44.578125 48.1875 50.953125 41.515625 
Q 57.328125 34.859375 57.328125 23.390625 
Q 57.328125 12.15625 50.6875 5.359375 
Q 44.046875 -1.421875 33.015625 -1.421875 
Q 20.359375 -1.421875 13.671875 8.265625 
Q 6.984375 17.96875 6.984375 36.375 
Q 6.984375 53.65625 15.1875 63.9375 
Q 23.390625 74.21875 37.203125 74.21875 
Q 40.921875 74.21875 44.703125 73.484375 
Q 48.484375 72.75 52.59375 71.296875 
z
" id="DejaVuSans-54"/>
      </defs>
      <g transform="translate(40.759844 123.760511)scale(0.165 -0.165)">
       <use xlink:href="#DejaVuSans-48"/>
       <use x="63.623047" xlink:href="#DejaVuSans-46"/>
       <use x="95.410156" xlink:href="#DejaVuSans-54"/>
      </g>
     </g>
    </g>
    <g id="ytick_5">
     <g id="line2d_20">
      <g>
       <use style="stroke:#000000;stroke-width:1.875;" x="79.5" xlink:href="#mca7ea77f80" y="26.099175"/>
      </g>
     </g>
     <g id="text_20">
      <!-- 0.8 -->
      <defs>
       <path d="M 31.78125 34.625 
Q 24.75 34.625 20.71875 30.859375 
Q 16.703125 27.09375 16.703125 20.515625 
Q 16.703125 13.921875 20.71875 10.15625 
Q 24.75 6.390625 31.78125 6.390625 
Q 38.8125 6.390625 42.859375 10.171875 
Q 46.921875 13.96875 46.921875 20.515625 
Q 46.921875 27.09375 42.890625 30.859375 
Q 38.875 34.625 31.78125 34.625 
z
M 21.921875 38.8125 
Q 15.578125 40.375 12.03125 44.71875 
Q 8.5 49.078125 8.5 55.328125 
Q 8.5 64.0625 14.71875 69.140625 
Q 20.953125 74.21875 31.78125 74.21875 
Q 42.671875 74.21875 48.875 69.140625 
Q 55.078125 64.0625 55.078125 55.328125 
Q 55.078125 49.078125 51.53125 44.71875 
Q 48 40.375 41.703125 38.8125 
Q 48.828125 37.15625 52.796875 32.3125 
Q 56.78125 27.484375 56.78125 20.515625 
Q 56.78125 9.90625 50.3125 4.234375 
Q 43.84375 -1.421875 31.78125 -1.421875 
Q 19.734375 -1.421875 13.25 4.234375 
Q 6.78125 9.90625 6.78125 20.515625 
Q 6.78125 27.484375 10.78125 32.3125 
Q 14.796875 37.15625 21.921875 38.8125 
z
M 18.3125 54.390625 
Q 18.3125 48.734375 21.84375 45.5625 
Q 25.390625 42.390625 31.78125 42.390625 
Q 38.140625 42.390625 41.71875 45.5625 
Q 45.3125 48.734375 45.3125 54.390625 
Q 45.3125 60.0625 41.71875 63.234375 
Q 38.140625 66.40625 31.78125 66.40625 
Q 25.390625 66.40625 21.84375 63.234375 
Q 18.3125 60.0625 18.3125 54.390625 
z
" id="DejaVuSans-56"/>
      </defs>
      <g transform="translate(40.759844 32.367885)scale(0.165 -0.165)">
       <use xlink:href="#DejaVuSans-48"/>
       <use x="63.623047" xlink:href="#DejaVuSans-46"/>
       <use x="95.410156" xlink:href="#DejaVuSans-56"/>
      </g>
     </g>
    </g>
    <g id="text_21">
     <!-- Estimated Confounding (Intercept - 1.0) -->
     <g transform="translate(33.016406 421.228906)rotate(-90)scale(0.18 -0.18)">
      <use xlink:href="#DejaVuSans-69"/>
      <use x="63.183594" xlink:href="#DejaVuSans-115"/>
      <use x="115.283203" xlink:href="#DejaVuSans-116"/>
      <use x="154.492188" xlink:href="#DejaVuSans-105"/>
      <use x="182.275391" xlink:href="#DejaVuSans-109"/>
      <use x="279.6875" xlink:href="#DejaVuSans-97"/>
      <use x="340.966797" xlink:href="#DejaVuSans-116"/>
      <use x="380.175781" xlink:href="#DejaVuSans-101"/>
      <use x="441.699219" xlink:href="#DejaVuSans-100"/>
      <use x="505.175781" xlink:href="#DejaVuSans-32"/>
      <use x="536.962891" xlink:href="#DejaVuSans-67"/>
      <use x="606.787109" xlink:href="#DejaVuSans-111"/>
      <use x="667.96875" xlink:href="#DejaVuSans-110"/>
      <use x="731.347656" xlink:href="#DejaVuSans-102"/>
      <use x="766.552734" xlink:href="#DejaVuSans-111"/>
      <use x="827.734375" xlink:href="#DejaVuSans-117"/>
      <use x="891.113281" xlink:href="#DejaVuSans-110"/>
      <use x="954.492188" xlink:href="#DejaVuSans-100"/>
      <use x="1017.96875" xlink:href="#DejaVuSans-105"/>
      <use x="1045.751953" xlink:href="#DejaVuSans-110"/>
      <use x="1109.130859" xlink:href="#DejaVuSans-103"/>
      <use x="1172.607422" xlink:href="#DejaVuSans-32"/>
      <use x="1204.394531" xlink:href="#DejaVuSans-40"/>
      <use x="1243.408203" xlink:href="#DejaVuSans-73"/>
      <use x="1272.900391" xlink:href="#DejaVuSans-110"/>
      <use x="1336.279297" xlink:href="#DejaVuSans-116"/>
      <use x="1375.488281" xlink:href="#DejaVuSans-101"/>
      <use x="1437.011719" xlink:href="#DejaVuSans-114"/>
      <use x="1475.875" xlink:href="#DejaVuSans-99"/>
      <use x="1530.855469" xlink:href="#DejaVuSans-101"/>
      <use x="1592.378906" xlink:href="#DejaVuSans-112"/>
      <use x="1655.855469" xlink:href="#DejaVuSans-116"/>
      <use x="1695.064453" xlink:href="#DejaVuSans-32"/>
      <use x="1726.851562" xlink:href="#DejaVuSans-45"/>
      <use x="1762.935547" xlink:href="#DejaVuSans-32"/>
      <use x="1794.722656" xlink:href="#DejaVuSans-49"/>
      <use x="1858.345703" xlink:href="#DejaVuSans-46"/>
      <use x="1890.132812" xlink:href="#DejaVuSans-48"/>
      <use x="1953.755859" xlink:href="#DejaVuSans-41"/>
     </g>
    </g>
   </g>
   <g id="LineCollection_1">
    <path clip-path="url(#p5af015847d)" d="M 120.067785 131.303964 
L 120.067785 47.709341 
" style="fill:none;stroke:#000000;"/>
    <path clip-path="url(#p5af015847d)" d="M 169.742624 284.423559 
L 169.742624 263.071015 
" style="fill:none;stroke:#000000;"/>
    <path clip-path="url(#p5af015847d)" d="M 219.417463 240.764848 
L 219.417463 185.643877 
" style="fill:none;stroke:#000000;"/>
    <path clip-path="url(#p5af015847d)" d="M 269.092301 289.089769 
L 269.092301 268.010202 
" style="fill:none;stroke:#000000;"/>
    <path clip-path="url(#p5af015847d)" d="M 318.76714 307.19923 
L 318.76714 288.364161 
" style="fill:none;stroke:#000000;"/>
    <path clip-path="url(#p5af015847d)" d="M 368.441979 226.038249 
L 368.441979 179.089973 
" style="fill:none;stroke:#000000;"/>
    <path clip-path="url(#p5af015847d)" d="M 418.116818 217.780943 
L 418.116818 168.521845 
" style="fill:none;stroke:#000000;"/>
    <path clip-path="url(#p5af015847d)" d="M 467.791657 310.865866 
L 467.791657 294.654009 
" style="fill:none;stroke:#000000;"/>
    <path clip-path="url(#p5af015847d)" d="M 517.466495 301.777785 
L 517.466495 275.727735 
" style="fill:none;stroke:#000000;"/>
    <path clip-path="url(#p5af015847d)" d="M 567.141334 274.344131 
L 567.141334 246.349214 
" style="fill:none;stroke:#000000;"/>
    <path clip-path="url(#p5af015847d)" d="M 616.816173 430.578306 
L 616.816173 417.054306 
" style="fill:none;stroke:#000000;"/>
    <path clip-path="url(#p5af015847d)" d="M 666.491012 351.194639 
L 666.491012 341.630298 
" style="fill:none;stroke:#000000;"/>
    <path clip-path="url(#p5af015847d)" d="M 716.16585 348.990249 
L 716.16585 339.059681 
" style="fill:none;stroke:#000000;"/>
    <path clip-path="url(#p5af015847d)" d="M 765.840689 328.721057 
L 765.840689 316.622238 
" style="fill:none;stroke:#000000;"/>
    <path clip-path="url(#p5af015847d)" d="M 815.515528 396.291201 
L 815.515528 386.441646 
" style="fill:none;stroke:#000000;"/>
   </g>
   <g id="LineCollection_2">
    <path clip-path="url(#p5af015847d)" d="M 128.346925 96.213719 
L 128.346925 39.661818 
" style="fill:none;stroke:#000000;"/>
    <path clip-path="url(#p5af015847d)" d="M 178.021764 282.423922 
L 178.021764 267.04169 
" style="fill:none;stroke:#000000;"/>
    <path clip-path="url(#p5af015847d)" d="M 227.696602 236.258947 
L 227.696602 196.54105 
" style="fill:none;stroke:#000000;"/>
    <path clip-path="url(#p5af015847d)" d="M 277.371441 285.686742 
L 277.371441 268.762643 
" style="fill:none;stroke:#000000;"/>
    <path clip-path="url(#p5af015847d)" d="M 327.04628 281.118809 
L 327.04628 265.144308 
" style="fill:none;stroke:#000000;"/>
    <path clip-path="url(#p5af015847d)" d="M 376.721119 210.809783 
L 376.721119 172.812146 
" style="fill:none;stroke:#000000;"/>
    <path clip-path="url(#p5af015847d)" d="M 426.395958 193.043198 
L 426.395958 153.713978 
" style="fill:none;stroke:#000000;"/>
    <path clip-path="url(#p5af015847d)" d="M 476.070796 303.751029 
L 476.070796 290.48213 
" style="fill:none;stroke:#000000;"/>
    <path clip-path="url(#p5af015847d)" d="M 525.745635 298.475761 
L 525.745635 278.718685 
" style="fill:none;stroke:#000000;"/>
    <path clip-path="url(#p5af015847d)" d="M 575.420474 258.375043 
L 575.420474 233.680358 
" style="fill:none;stroke:#000000;"/>
    <path clip-path="url(#p5af015847d)" d="M 625.095313 432.617376 
L 625.095313 420.885067 
" style="fill:none;stroke:#000000;"/>
    <path clip-path="url(#p5af015847d)" d="M 674.770151 348.850679 
L 674.770151 339.814024 
" style="fill:none;stroke:#000000;"/>
    <path clip-path="url(#p5af015847d)" d="M 724.44499 343.170943 
L 724.44499 334.985342 
" style="fill:none;stroke:#000000;"/>
    <path clip-path="url(#p5af015847d)" d="M 774.119829 312.918986 
L 774.119829 302.224918 
" style="fill:none;stroke:#000000;"/>
    <path clip-path="url(#p5af015847d)" d="M 823.794668 385.675236 
L 823.794668 377.043089 
" style="fill:none;stroke:#000000;"/>
   </g>
   <g id="LineCollection_3">
    <path clip-path="url(#p5af015847d)" d="M 136.626065 206.803818 
L 136.626065 154.079943 
" style="fill:none;stroke:#000000;"/>
    <path clip-path="url(#p5af015847d)" d="M 186.300903 348.967612 
L 186.300903 329.724124 
" style="fill:none;stroke:#000000;"/>
    <path clip-path="url(#p5af015847d)" d="M 235.975742 323.792134 
L 235.975742 291.26598 
" style="fill:none;stroke:#000000;"/>
    <path clip-path="url(#p5af015847d)" d="M 285.650581 345.350863 
L 285.650581 328.276813 
" style="fill:none;stroke:#000000;"/>
    <path clip-path="url(#p5af015847d)" d="M 335.32542 339.279604 
L 335.32542 323.101096 
" style="fill:none;stroke:#000000;"/>
    <path clip-path="url(#p5af015847d)" d="M 385.000259 290.747053 
L 385.000259 250.820646 
" style="fill:none;stroke:#000000;"/>
    <path clip-path="url(#p5af015847d)" d="M 434.675097 304.957409 
L 434.675097 262.179497 
" style="fill:none;stroke:#000000;"/>
    <path clip-path="url(#p5af015847d)" d="M 484.349936 350.872452 
L 484.349936 336.941074 
" style="fill:none;stroke:#000000;"/>
    <path clip-path="url(#p5af015847d)" d="M 534.024775 361.746366 
L 534.024775 344.251889 
" style="fill:none;stroke:#000000;"/>
    <path clip-path="url(#p5af015847d)" d="M 583.699614 348.636176 
L 583.699614 328.861689 
" style="fill:none;stroke:#000000;"/>
    <path clip-path="url(#p5af015847d)" d="M 633.374452 444.098182 
L 633.374452 433.420271 
" style="fill:none;stroke:#000000;"/>
    <path clip-path="url(#p5af015847d)" d="M 683.049291 365.142538 
L 683.049291 354.727613 
" style="fill:none;stroke:#000000;"/>
    <path clip-path="url(#p5af015847d)" d="M 732.72413 369.523911 
L 732.72413 359.264719 
" style="fill:none;stroke:#000000;"/>
    <path clip-path="url(#p5af015847d)" d="M 782.398969 345.70255 
L 782.398969 334.338895 
" style="fill:none;stroke:#000000;"/>
    <path clip-path="url(#p5af015847d)" d="M 832.073808 413.130129 
L 832.073808 403.298747 
" style="fill:none;stroke:#000000;"/>
   </g>
   <g id="LineCollection_4">
    <path clip-path="url(#p5af015847d)" d="M 144.905204 193.500119 
L 144.905204 157.13958 
" style="fill:none;stroke:#000000;"/>
    <path clip-path="url(#p5af015847d)" d="M 194.580043 340.866384 
L 194.580043 324.73933 
" style="fill:none;stroke:#000000;"/>
    <path clip-path="url(#p5af015847d)" d="M 244.254882 315.999635 
L 244.254882 289.933578 
" style="fill:none;stroke:#000000;"/>
    <path clip-path="url(#p5af015847d)" d="M 293.929721 332.431415 
L 293.929721 315.417176 
" style="fill:none;stroke:#000000;"/>
    <path clip-path="url(#p5af015847d)" d="M 343.60456 318.464016 
L 343.60456 302.441349 
" style="fill:none;stroke:#000000;"/>
    <path clip-path="url(#p5af015847d)" d="M 393.279398 266.08511 
L 393.279398 227.180172 
" style="fill:none;stroke:#000000;"/>
    <path clip-path="url(#p5af015847d)" d="M 442.954237 271.377983 
L 442.954237 238.709112 
" style="fill:none;stroke:#000000;"/>
    <path clip-path="url(#p5af015847d)" d="M 492.629076 335.069802 
L 492.629076 322.143997 
" style="fill:none;stroke:#000000;"/>
    <path clip-path="url(#p5af015847d)" d="M 542.303915 350.057376 
L 542.303915 334.126983 
" style="fill:none;stroke:#000000;"/>
    <path clip-path="url(#p5af015847d)" d="M 591.978753 315.965483 
L 591.978753 291.63466 
" style="fill:none;stroke:#000000;"/>
    <path clip-path="url(#p5af015847d)" d="M 641.653592 443.092621 
L 641.653592 433.075095 
" style="fill:none;stroke:#000000;"/>
    <path clip-path="url(#p5af015847d)" d="M 691.328431 364.243197 
L 691.328431 353.88365 
" style="fill:none;stroke:#000000;"/>
    <path clip-path="url(#p5af015847d)" d="M 741.00327 363.128619 
L 741.00327 353.10494 
" style="fill:none;stroke:#000000;"/>
    <path clip-path="url(#p5af015847d)" d="M 790.678109 330.933096 
L 790.678109 319.807623 
" style="fill:none;stroke:#000000;"/>
    <path clip-path="url(#p5af015847d)" d="M 840.352947 400.411468 
L 840.352947 390.67495 
" style="fill:none;stroke:#000000;"/>
   </g>
   <g id="line2d_21">
    <defs>
     <path d="M 2 0 
L -2 -0 
" id="m75af5bfc67" style="stroke:#000000;"/>
    </defs>
    <g clip-path="url(#p5af015847d)">
     <use style="stroke:#000000;" x="120.067785" xlink:href="#m75af5bfc67" y="131.303964"/>
     <use style="stroke:#000000;" x="169.742624" xlink:href="#m75af5bfc67" y="284.423559"/>
     <use style="stroke:#000000;" x="219.417463" xlink:href="#m75af5bfc67" y="240.764848"/>
     <use style="stroke:#000000;" x="269.092301" xlink:href="#m75af5bfc67" y="289.089769"/>
     <use style="stroke:#000000;" x="318.76714" xlink:href="#m75af5bfc67" y="307.19923"/>
     <use style="stroke:#000000;" x="368.441979" xlink:href="#m75af5bfc67" y="226.038249"/>
     <use style="stroke:#000000;" x="418.116818" xlink:href="#m75af5bfc67" y="217.780943"/>
     <use style="stroke:#000000;" x="467.791657" xlink:href="#m75af5bfc67" y="310.865866"/>
     <use style="stroke:#000000;" x="517.466495" xlink:href="#m75af5bfc67" y="301.777785"/>
     <use style="stroke:#000000;" x="567.141334" xlink:href="#m75af5bfc67" y="274.344131"/>
     <use style="stroke:#000000;" x="616.816173" xlink:href="#m75af5bfc67" y="430.578306"/>
     <use style="stroke:#000000;" x="666.491012" xlink:href="#m75af5bfc67" y="351.194639"/>
     <use style="stroke:#000000;" x="716.16585" xlink:href="#m75af5bfc67" y="348.990249"/>
     <use style="stroke:#000000;" x="765.840689" xlink:href="#m75af5bfc67" y="328.721057"/>
     <use style="stroke:#000000;" x="815.515528" xlink:href="#m75af5bfc67" y="396.291201"/>
    </g>
   </g>
   <g id="line2d_22">
    <g clip-path="url(#p5af015847d)">
     <use style="stroke:#000000;" x="120.067785" xlink:href="#m75af5bfc67" y="47.709341"/>
     <use style="stroke:#000000;" x="169.742624" xlink:href="#m75af5bfc67" y="263.071015"/>
     <use style="stroke:#000000;" x="219.417463" xlink:href="#m75af5bfc67" y="185.643877"/>
     <use style="stroke:#000000;" x="269.092301" xlink:href="#m75af5bfc67" y="268.010202"/>
     <use style="stroke:#000000;" x="318.76714" xlink:href="#m75af5bfc67" y="288.364161"/>
     <use style="stroke:#000000;" x="368.441979" xlink:href="#m75af5bfc67" y="179.089973"/>
     <use style="stroke:#000000;" x="418.116818" xlink:href="#m75af5bfc67" y="168.521845"/>
     <use style="stroke:#000000;" x="467.791657" xlink:href="#m75af5bfc67" y="294.654009"/>
     <use style="stroke:#000000;" x="517.466495" xlink:href="#m75af5bfc67" y="275.727735"/>
     <use style="stroke:#000000;" x="567.141334" xlink:href="#m75af5bfc67" y="246.349214"/>
     <use style="stroke:#000000;" x="616.816173" xlink:href="#m75af5bfc67" y="417.054306"/>
     <use style="stroke:#000000;" x="666.491012" xlink:href="#m75af5bfc67" y="341.630298"/>
     <use style="stroke:#000000;" x="716.16585" xlink:href="#m75af5bfc67" y="339.059681"/>
     <use style="stroke:#000000;" x="765.840689" xlink:href="#m75af5bfc67" y="316.622238"/>
     <use style="stroke:#000000;" x="815.515528" xlink:href="#m75af5bfc67" y="386.441646"/>
    </g>
   </g>
   <g id="line2d_23">
    <g clip-path="url(#p5af015847d)">
     <use style="stroke:#000000;" x="128.346925" xlink:href="#m75af5bfc67" y="96.213719"/>
     <use style="stroke:#000000;" x="178.021764" xlink:href="#m75af5bfc67" y="282.423922"/>
     <use style="stroke:#000000;" x="227.696602" xlink:href="#m75af5bfc67" y="236.258947"/>
     <use style="stroke:#000000;" x="277.371441" xlink:href="#m75af5bfc67" y="285.686742"/>
     <use style="stroke:#000000;" x="327.04628" xlink:href="#m75af5bfc67" y="281.118809"/>
     <use style="stroke:#000000;" x="376.721119" xlink:href="#m75af5bfc67" y="210.809783"/>
     <use style="stroke:#000000;" x="426.395958" xlink:href="#m75af5bfc67" y="193.043198"/>
     <use style="stroke:#000000;" x="476.070796" xlink:href="#m75af5bfc67" y="303.751029"/>
     <use style="stroke:#000000;" x="525.745635" xlink:href="#m75af5bfc67" y="298.475761"/>
     <use style="stroke:#000000;" x="575.420474" xlink:href="#m75af5bfc67" y="258.375043"/>
     <use style="stroke:#000000;" x="625.095313" xlink:href="#m75af5bfc67" y="432.617376"/>
     <use style="stroke:#000000;" x="674.770151" xlink:href="#m75af5bfc67" y="348.850679"/>
     <use style="stroke:#000000;" x="724.44499" xlink:href="#m75af5bfc67" y="343.170943"/>
     <use style="stroke:#000000;" x="774.119829" xlink:href="#m75af5bfc67" y="312.918986"/>
     <use style="stroke:#000000;" x="823.794668" xlink:href="#m75af5bfc67" y="385.675236"/>
    </g>
   </g>
   <g id="line2d_24">
    <g clip-path="url(#p5af015847d)">
     <use style="stroke:#000000;" x="128.346925" xlink:href="#m75af5bfc67" y="39.661818"/>
     <use style="stroke:#000000;" x="178.021764" xlink:href="#m75af5bfc67" y="267.04169"/>
     <use style="stroke:#000000;" x="227.696602" xlink:href="#m75af5bfc67" y="196.54105"/>
     <use style="stroke:#000000;" x="277.371441" xlink:href="#m75af5bfc67" y="268.762643"/>
     <use style="stroke:#000000;" x="327.04628" xlink:href="#m75af5bfc67" y="265.144308"/>
     <use style="stroke:#000000;" x="376.721119" xlink:href="#m75af5bfc67" y="172.812146"/>
     <use style="stroke:#000000;" x="426.395958" xlink:href="#m75af5bfc67" y="153.713978"/>
     <use style="stroke:#000000;" x="476.070796" xlink:href="#m75af5bfc67" y="290.48213"/>
     <use style="stroke:#000000;" x="525.745635" xlink:href="#m75af5bfc67" y="278.718685"/>
     <use style="stroke:#000000;" x="575.420474" xlink:href="#m75af5bfc67" y="233.680358"/>
     <use style="stroke:#000000;" x="625.095313" xlink:href="#m75af5bfc67" y="420.885067"/>
     <use style="stroke:#000000;" x="674.770151" xlink:href="#m75af5bfc67" y="339.814024"/>
     <use style="stroke:#000000;" x="724.44499" xlink:href="#m75af5bfc67" y="334.985342"/>
     <use style="stroke:#000000;" x="774.119829" xlink:href="#m75af5bfc67" y="302.224918"/>
     <use style="stroke:#000000;" x="823.794668" xlink:href="#m75af5bfc67" y="377.043089"/>
    </g>
   </g>
   <g id="line2d_25">
    <g clip-path="url(#p5af015847d)">
     <use style="stroke:#000000;" x="136.626065" xlink:href="#m75af5bfc67" y="206.803818"/>
     <use style="stroke:#000000;" x="186.300903" xlink:href="#m75af5bfc67" y="348.967612"/>
     <use style="stroke:#000000;" x="235.975742" xlink:href="#m75af5bfc67" y="323.792134"/>
     <use style="stroke:#000000;" x="285.650581" xlink:href="#m75af5bfc67" y="345.350863"/>
     <use style="stroke:#000000;" x="335.32542" xlink:href="#m75af5bfc67" y="339.279604"/>
     <use style="stroke:#000000;" x="385.000259" xlink:href="#m75af5bfc67" y="290.747053"/>
     <use style="stroke:#000000;" x="434.675097" xlink:href="#m75af5bfc67" y="304.957409"/>
     <use style="stroke:#000000;" x="484.349936" xlink:href="#m75af5bfc67" y="350.872452"/>
     <use style="stroke:#000000;" x="534.024775" xlink:href="#m75af5bfc67" y="361.746366"/>
     <use style="stroke:#000000;" x="583.699614" xlink:href="#m75af5bfc67" y="348.636176"/>
     <use style="stroke:#000000;" x="633.374452" xlink:href="#m75af5bfc67" y="444.098182"/>
     <use style="stroke:#000000;" x="683.049291" xlink:href="#m75af5bfc67" y="365.142538"/>
     <use style="stroke:#000000;" x="732.72413" xlink:href="#m75af5bfc67" y="369.523911"/>
     <use style="stroke:#000000;" x="782.398969" xlink:href="#m75af5bfc67" y="345.70255"/>
     <use style="stroke:#000000;" x="832.073808" xlink:href="#m75af5bfc67" y="413.130129"/>
    </g>
   </g>
   <g id="line2d_26">
    <g clip-path="url(#p5af015847d)">
     <use style="stroke:#000000;" x="136.626065" xlink:href="#m75af5bfc67" y="154.079943"/>
     <use style="stroke:#000000;" x="186.300903" xlink:href="#m75af5bfc67" y="329.724124"/>
     <use style="stroke:#000000;" x="235.975742" xlink:href="#m75af5bfc67" y="291.26598"/>
     <use style="stroke:#000000;" x="285.650581" xlink:href="#m75af5bfc67" y="328.276813"/>
     <use style="stroke:#000000;" x="335.32542" xlink:href="#m75af5bfc67" y="323.101096"/>
     <use style="stroke:#000000;" x="385.000259" xlink:href="#m75af5bfc67" y="250.820646"/>
     <use style="stroke:#000000;" x="434.675097" xlink:href="#m75af5bfc67" y="262.179497"/>
     <use style="stroke:#000000;" x="484.349936" xlink:href="#m75af5bfc67" y="336.941074"/>
     <use style="stroke:#000000;" x="534.024775" xlink:href="#m75af5bfc67" y="344.251889"/>
     <use style="stroke:#000000;" x="583.699614" xlink:href="#m75af5bfc67" y="328.861689"/>
     <use style="stroke:#000000;" x="633.374452" xlink:href="#m75af5bfc67" y="433.420271"/>
     <use style="stroke:#000000;" x="683.049291" xlink:href="#m75af5bfc67" y="354.727613"/>
     <use style="stroke:#000000;" x="732.72413" xlink:href="#m75af5bfc67" y="359.264719"/>
     <use style="stroke:#000000;" x="782.398969" xlink:href="#m75af5bfc67" y="334.338895"/>
     <use style="stroke:#000000;" x="832.073808" xlink:href="#m75af5bfc67" y="403.298747"/>
    </g>
   </g>
   <g id="line2d_27">
    <g clip-path="url(#p5af015847d)">
     <use style="stroke:#000000;" x="144.905204" xlink:href="#m75af5bfc67" y="193.500119"/>
     <use style="stroke:#000000;" x="194.580043" xlink:href="#m75af5bfc67" y="340.866384"/>
     <use style="stroke:#000000;" x="244.254882" xlink:href="#m75af5bfc67" y="315.999635"/>
     <use style="stroke:#000000;" x="293.929721" xlink:href="#m75af5bfc67" y="332.431415"/>
     <use style="stroke:#000000;" x="343.60456" xlink:href="#m75af5bfc67" y="318.464016"/>
     <use style="stroke:#000000;" x="393.279398" xlink:href="#m75af5bfc67" y="266.08511"/>
     <use style="stroke:#000000;" x="442.954237" xlink:href="#m75af5bfc67" y="271.377983"/>
     <use style="stroke:#000000;" x="492.629076" xlink:href="#m75af5bfc67" y="335.069802"/>
     <use style="stroke:#000000;" x="542.303915" xlink:href="#m75af5bfc67" y="350.057376"/>
     <use style="stroke:#000000;" x="591.978753" xlink:href="#m75af5bfc67" y="315.965483"/>
     <use style="stroke:#000000;" x="641.653592" xlink:href="#m75af5bfc67" y="443.092621"/>
     <use style="stroke:#000000;" x="691.328431" xlink:href="#m75af5bfc67" y="364.243197"/>
     <use style="stroke:#000000;" x="741.00327" xlink:href="#m75af5bfc67" y="363.128619"/>
     <use style="stroke:#000000;" x="790.678109" xlink:href="#m75af5bfc67" y="330.933096"/>
     <use style="stroke:#000000;" x="840.352947" xlink:href="#m75af5bfc67" y="400.411468"/>
    </g>
   </g>
   <g id="line2d_28">
    <g clip-path="url(#p5af015847d)">
     <use style="stroke:#000000;" x="144.905204" xlink:href="#m75af5bfc67" y="157.13958"/>
     <use style="stroke:#000000;" x="194.580043" xlink:href="#m75af5bfc67" y="324.73933"/>
     <use style="stroke:#000000;" x="244.254882" xlink:href="#m75af5bfc67" y="289.933578"/>
     <use style="stroke:#000000;" x="293.929721" xlink:href="#m75af5bfc67" y="315.417176"/>
     <use style="stroke:#000000;" x="343.60456" xlink:href="#m75af5bfc67" y="302.441349"/>
     <use style="stroke:#000000;" x="393.279398" xlink:href="#m75af5bfc67" y="227.180172"/>
     <use style="stroke:#000000;" x="442.954237" xlink:href="#m75af5bfc67" y="238.709112"/>
     <use style="stroke:#000000;" x="492.629076" xlink:href="#m75af5bfc67" y="322.143997"/>
     <use style="stroke:#000000;" x="542.303915" xlink:href="#m75af5bfc67" y="334.126983"/>
     <use style="stroke:#000000;" x="591.978753" xlink:href="#m75af5bfc67" y="291.63466"/>
     <use style="stroke:#000000;" x="641.653592" xlink:href="#m75af5bfc67" y="433.075095"/>
     <use style="stroke:#000000;" x="691.328431" xlink:href="#m75af5bfc67" y="353.88365"/>
     <use style="stroke:#000000;" x="741.00327" xlink:href="#m75af5bfc67" y="353.10494"/>
     <use style="stroke:#000000;" x="790.678109" xlink:href="#m75af5bfc67" y="319.807623"/>
     <use style="stroke:#000000;" x="840.352947" xlink:href="#m75af5bfc67" y="390.67495"/>
    </g>
   </g>
   <g id="patch_63">
    <path d="M 79.5 464.32 
L 79.5 19.44 
" style="fill:none;stroke:#000000;stroke-linecap:square;stroke-linejoin:miter;stroke-width:1.875;"/>
   </g>
   <g id="patch_64">
    <path d="M 880.920732 464.32 
L 880.920732 19.44 
" style="fill:none;stroke:#000000;stroke-linecap:square;stroke-linejoin:miter;stroke-width:1.875;"/>
   </g>
   <g id="patch_65">
    <path d="M 79.5 464.32 
L 880.920732 464.32 
" style="fill:none;stroke:#000000;stroke-linecap:square;stroke-linejoin:miter;stroke-width:1.875;"/>
   </g>
   <g id="patch_66">
    <path d="M 79.5 19.44 
L 880.920732 19.44 
" style="fill:none;stroke:#000000;stroke-linecap:square;stroke-linejoin:miter;stroke-width:1.875;"/>
   </g>
   <g id="legend_1">
    <g id="patch_67">
     <path d="M 903.78494 210.104609 
L 936.78494 210.104609 
L 936.78494 198.554609 
L 903.78494 198.554609 
z
" style="fill:url(#hac128b9a3f);stroke:#ffffff;stroke-linejoin:miter;stroke-width:1.5;"/>
    </g>
    <g id="text_22">
     <!-- $(\alpha=1, \theta=0)$ -->
     <defs>
      <path d="M 40.921875 25.4375 
L 40.96875 36.71875 
Q 41.015625 48.25 32.328125 48.296875 
Q 25.828125 48.34375 21.78125 42.921875 
Q 16.703125 36.234375 14.984375 27.296875 
Q 12.890625 16.546875 15.53125 11.421875 
Q 18.265625 6.203125 24.171875 6.203125 
Q 30.71875 6.203125 36.234375 16.609375 
z
M 33.84375 55.90625 
Q 49.078125 56.15625 48.875 40.375 
Q 48.875 40.375 56.5 54.6875 
L 64.5 54.6875 
L 48.734375 25.046875 
L 48.578125 14.359375 
Q 48.578125 11.96875 49.90625 9.96875 
Q 51.421875 7.625 52.984375 7.625 
L 57.328125 7.625 
L 55.859375 0 
L 50.4375 0 
Q 45.84375 0 42.53125 4.109375 
Q 40.96875 6.15625 40.921875 10.453125 
Q 37.75 5.21875 32.28125 0.78125 
Q 29.6875 -1.265625 22.703125 -1.21875 
Q 11.28125 -1.125 7.125 6.203125 
Q 2.875 13.8125 5.515625 27.296875 
Q 8.34375 41.796875 15.765625 48.390625 
Q 24.125 55.765625 33.84375 55.90625 
z
" id="DejaVuSans-Oblique-945"/>
      <path d="M 10.59375 45.40625 
L 73.1875 45.40625 
L 73.1875 37.203125 
L 10.59375 37.203125 
z
M 10.59375 25.484375 
L 73.1875 25.484375 
L 73.1875 17.1875 
L 10.59375 17.1875 
z
" id="DejaVuSans-61"/>
      <path d="M 11.71875 12.40625 
L 22.015625 12.40625 
L 22.015625 4 
L 14.015625 -11.625 
L 7.71875 -11.625 
L 11.71875 4 
z
" id="DejaVuSans-44"/>
      <path d="M 45.515625 34.671875 
L 14.453125 34.671875 
Q 12.359375 20.0625 14.5 13.875 
Q 17.1875 6.25 24.46875 6.25 
Q 31.78125 6.25 37.359375 13.921875 
Q 42.234375 20.65625 45.515625 34.671875 
z
M 47.015625 42.96875 
Q 48.34375 56.84375 46.625 61.71875 
Q 43.953125 69.4375 36.765625 69.4375 
Q 29.296875 69.4375 23.828125 61.8125 
Q 19.53125 55.671875 16.15625 42.96875 
z
M 38.1875 76.765625 
Q 49.90625 76.765625 54.59375 66.40625 
Q 59.28125 56.109375 55.71875 37.84375 
Q 52.203125 19.625 43.453125 9.28125 
Q 34.765625 -1.125 23.046875 -1.125 
Q 11.28125 -1.125 6.640625 9.28125 
Q 2 19.625 5.515625 37.84375 
Q 9.078125 56.109375 17.71875 66.40625 
Q 26.421875 76.765625 38.1875 76.765625 
z
" id="DejaVuSans-Oblique-952"/>
     </defs>
     <g transform="translate(949.98494 210.104609)scale(0.165 -0.165)">
      <use transform="translate(0 0.234375)" xlink:href="#DejaVuSans-40"/>
      <use transform="translate(39.013672 0.234375)" xlink:href="#DejaVuSans-Oblique-945"/>
      <use transform="translate(124.414062 0.234375)" xlink:href="#DejaVuSans-61"/>
      <use transform="translate(227.685547 0.234375)" xlink:href="#DejaVuSans-49"/>
      <use transform="translate(291.308594 0.234375)" xlink:href="#DejaVuSans-44"/>
      <use transform="translate(342.578125 0.234375)" xlink:href="#DejaVuSans-Oblique-952"/>
      <use transform="translate(423.242188 0.234375)" xlink:href="#DejaVuSans-61"/>
      <use transform="translate(526.513672 0.234375)" xlink:href="#DejaVuSans-48"/>
      <use transform="translate(590.136719 0.234375)" xlink:href="#DejaVuSans-41"/>
     </g>
    </g>
    <g id="patch_68">
     <path d="M 903.78494 234.323516 
L 936.78494 234.323516 
L 936.78494 222.773516 
L 903.78494 222.773516 
z
" style="fill:url(#h18c7570d42);stroke:#ffffff;stroke-linejoin:miter;stroke-width:1.5;"/>
    </g>
    <g id="text_23">
     <!-- $(\alpha=0, \theta=0)$ -->
     <g transform="translate(949.98494 234.323516)scale(0.165 -0.165)">
      <use transform="translate(0 0.234375)" xlink:href="#DejaVuSans-40"/>
      <use transform="translate(39.013672 0.234375)" xlink:href="#DejaVuSans-Oblique-945"/>
      <use transform="translate(124.414062 0.234375)" xlink:href="#DejaVuSans-61"/>
      <use transform="translate(227.685547 0.234375)" xlink:href="#DejaVuSans-48"/>
      <use transform="translate(291.308594 0.234375)" xlink:href="#DejaVuSans-44"/>
      <use transform="translate(342.578125 0.234375)" xlink:href="#DejaVuSans-Oblique-952"/>
      <use transform="translate(423.242188 0.234375)" xlink:href="#DejaVuSans-61"/>
      <use transform="translate(526.513672 0.234375)" xlink:href="#DejaVuSans-48"/>
      <use transform="translate(590.136719 0.234375)" xlink:href="#DejaVuSans-41"/>
     </g>
    </g>
    <g id="patch_69">
     <path d="M 903.78494 258.542422 
L 936.78494 258.542422 
L 936.78494 246.992422 
L 903.78494 246.992422 
z
" style="fill:#b07aa1;"/>
    </g>
    <g id="text_24">
     <!-- $(\alpha=1, \theta=1)$ -->
     <g transform="translate(949.98494 258.542422)scale(0.165 -0.165)">
      <use transform="translate(0 0.234375)" xlink:href="#DejaVuSans-40"/>
      <use transform="translate(39.013672 0.234375)" xlink:href="#DejaVuSans-Oblique-945"/>
      <use transform="translate(124.414062 0.234375)" xlink:href="#DejaVuSans-61"/>
      <use transform="translate(227.685547 0.234375)" xlink:href="#DejaVuSans-49"/>
      <use transform="translate(291.308594 0.234375)" xlink:href="#DejaVuSans-44"/>
      <use transform="translate(342.578125 0.234375)" xlink:href="#DejaVuSans-Oblique-952"/>
      <use transform="translate(423.242188 0.234375)" xlink:href="#DejaVuSans-61"/>
      <use transform="translate(526.513672 0.234375)" xlink:href="#DejaVuSans-49"/>
      <use transform="translate(590.136719 0.234375)" xlink:href="#DejaVuSans-41"/>
     </g>
    </g>
    <g id="patch_70">
     <path d="M 903.78494 282.761328 
L 936.78494 282.761328 
L 936.78494 271.211328 
L 903.78494 271.211328 
z
" style="fill:#e15759;"/>
    </g>
    <g id="text_25">
     <!-- $(\alpha=0, \theta=1)$ -->
     <g transform="translate(949.98494 282.761328)scale(0.165 -0.165)">
      <use transform="translate(0 0.234375)" xlink:href="#DejaVuSans-40"/>
      <use transform="translate(39.013672 0.234375)" xlink:href="#DejaVuSans-Oblique-945"/>
      <use transform="translate(124.414062 0.234375)" xlink:href="#DejaVuSans-61"/>
      <use transform="translate(227.685547 0.234375)" xlink:href="#DejaVuSans-48"/>
      <use transform="translate(291.308594 0.234375)" xlink:href="#DejaVuSans-44"/>
      <use transform="translate(342.578125 0.234375)" xlink:href="#DejaVuSans-Oblique-952"/>
      <use transform="translate(423.242188 0.234375)" xlink:href="#DejaVuSans-61"/>
      <use transform="translate(526.513672 0.234375)" xlink:href="#DejaVuSans-49"/>
      <use transform="translate(590.136719 0.234375)" xlink:href="#DejaVuSans-41"/>
     </g>
    </g>
   </g>
  </g>
 </g>
 <defs>
  <clipPath id="p5af015847d">
   <rect height="444.88" width="801.420732" x="79.5" y="19.44"/>
  </clipPath>
 </defs>
 <defs>
  <pattern height="72" id="hac128b9a3f" patternUnits="userSpaceOnUse" width="72" x="0" y="0">
   <rect fill="#f28e2b" height="73" width="73" x="0" y="0"/>
   <path d="M -36 36 
L 36 -36 
M -33 39 
L 39 -33 
M -30 42 
L 42 -30 
M -27 45 
L 45 -27 
M -24 48 
L 48 -24 
M -21 51 
L 51 -21 
M -18 54 
L 54 -18 
M -15 57 
L 57 -15 
M -12 60 
L 60 -12 
M -9 63 
L 63 -9 
M -6 66 
L 66 -6 
M -3 69 
L 69 -3 
M 0 72 
L 72 0 
M 3 75 
L 75 3 
M 6 78 
L 78 6 
M 9 81 
L 81 9 
M 12 84 
L 84 12 
M 15 87 
L 87 15 
M 18 90 
L 90 18 
M 21 93 
L 93 21 
M 24 96 
L 96 24 
M 27 99 
L 99 27 
M 30 102 
L 102 30 
M 33 105 
L 105 33 
M 36 108 
L 108 36 
" style="fill:#ffffff;stroke:#ffffff;stroke-linecap:butt;stroke-linejoin:miter;stroke-width:2.0;"/>
  </pattern>
  <pattern height="72" id="h18c7570d42" patternUnits="userSpaceOnUse" width="72" x="0" y="0">
   <rect fill="#76b7b2" height="73" width="73" x="0" y="0"/>
   <path d="M -36 36 
L 36 -36 
M -33 39 
L 39 -33 
M -30 42 
L 42 -30 
M -27 45 
L 45 -27 
M -24 48 
L 48 -24 
M -21 51 
L 51 -21 
M -18 54 
L 54 -18 
M -15 57 
L 57 -15 
M -12 60 
L 60 -12 
M -9 63 
L 63 -9 
M -6 66 
L 66 -6 
M -3 69 
L 69 -3 
M 0 72 
L 72 0 
M 3 75 
L 75 3 
M 6 78 
L 78 6 
M 9 81 
L 81 9 
M 12 84 
L 84 12 
M 15 87 
L 87 15 
M 18 90 
L 90 18 
M 21 93 
L 93 21 
M 24 96 
L 96 24 
M 27 99 
L 99 27 
M 30 102 
L 102 30 
M 33 105 
L 105 33 
M 36 108 
L 108 36 
" style="fill:#ffffff;stroke:#ffffff;stroke-linecap:butt;stroke-linejoin:miter;stroke-width:2.0;"/>
  </pattern>
 </defs>
</svg>
