<?xml version="1.0" encoding="utf-8" standalone="no"?>
<!DOCTYPE svg PUBLIC "-//W3C//DTD SVG 1.1//EN"
  "http://www.w3.org/Graphics/SVG/1.1/DTD/svg11.dtd">
<!-- Created with matplotlib (https://matplotlib.org/) -->
<svg height="576pt" version="1.1" viewBox="0 0 720 576" width="720pt" xmlns="http://www.w3.org/2000/svg" xmlns:xlink="http://www.w3.org/1999/xlink">
 <defs>
  <style type="text/css">
*{stroke-linecap:butt;stroke-linejoin:round;}
  </style>
 </defs>
 <g id="figure_1">
  <g id="patch_1">
   <path d="M 0 576 
L 720 576 
L 720 0 
L 0 0 
z
" style="fill:#ffffff;"/>
  </g>
  <g id="axes_1">
   <g id="patch_2">
    <path d="M 97.644 501.756 
L 696.567108 501.756 
L 696.567108 19.44 
L 97.644 19.44 
z
" style="fill:#ffffff;"/>
   </g>
   <g id="LineCollection_1">
    <path clip-path="url(#p1c5d849029)" d="M 358.548049 265.83995 
L 413.201512 265.83995 
" style="fill:none;stroke:#cfcfcf;stroke-opacity:0.439216;stroke-width:2.25;"/>
    <path clip-path="url(#p1c5d849029)" d="M 249.811747 366.41223 
L 269.694649 366.41223 
" style="fill:none;stroke:#cfcfcf;stroke-opacity:0.439216;stroke-width:2.25;"/>
    <path clip-path="url(#p1c5d849029)" d="M 219.590666 382.51614 
L 244.144591 382.51614 
" style="fill:none;stroke:#cfcfcf;stroke-opacity:0.439216;stroke-width:2.25;"/>
    <path clip-path="url(#p1c5d849029)" d="M 236.920428 382.874846 
L 252.121823 382.874846 
" style="fill:none;stroke:#cfcfcf;stroke-opacity:0.439216;stroke-width:2.25;"/>
    <path clip-path="url(#p1c5d849029)" d="M 279.713164 336.996133 
L 307.922524 336.996133 
" style="fill:none;stroke:#cfcfcf;stroke-opacity:0.439216;stroke-width:2.25;"/>
    <path clip-path="url(#p1c5d849029)" d="M 280.311747 346.286802 
L 311.743922 346.286802 
" style="fill:none;stroke:#cfcfcf;stroke-opacity:0.439216;stroke-width:2.25;"/>
    <path clip-path="url(#p1c5d849029)" d="M 126.051418 457.19214 
L 167.516201 457.19214 
" style="fill:none;stroke:#cfcfcf;stroke-opacity:0.439216;stroke-width:2.25;"/>
    <path clip-path="url(#p1c5d849029)" d="M 312.996456 316.677522 
L 331.86714 316.677522 
" style="fill:none;stroke:#cfcfcf;stroke-opacity:0.439216;stroke-width:2.25;"/>
    <path clip-path="url(#p1c5d849029)" d="M 329.827607 290.680848 
L 354.763727 290.680848 
" style="fill:none;stroke:#cfcfcf;stroke-opacity:0.439216;stroke-width:2.25;"/>
    <path clip-path="url(#p1c5d849029)" d="M 285.792282 330.846392 
L 332.403624 330.846392 
" style="fill:none;stroke:#cfcfcf;stroke-opacity:0.439216;stroke-width:2.25;"/>
    <path clip-path="url(#p1c5d849029)" d="M 244.991437 368.322662 
L 280.071026 368.322662 
" style="fill:none;stroke:#cfcfcf;stroke-opacity:0.439216;stroke-width:2.25;"/>
    <path clip-path="url(#p1c5d849029)" d="M 346.513245 280.765821 
L 371.217769 280.765821 
" style="fill:none;stroke:#cfcfcf;stroke-opacity:0.439216;stroke-width:2.25;"/>
    <path clip-path="url(#p1c5d849029)" d="M 189.669585 419.760858 
L 228.707062 419.760858 
" style="fill:none;stroke:#cfcfcf;stroke-opacity:0.439216;stroke-width:2.25;"/>
    <path clip-path="url(#p1c5d849029)" d="M 347.108659 270.652377 
L 398.638405 270.652377 
" style="fill:none;stroke:#cfcfcf;stroke-opacity:0.439216;stroke-width:2.25;"/>
    <path clip-path="url(#p1c5d849029)" d="M 292.084789 336.472187 
L 305.090813 336.472187 
" style="fill:none;stroke:#cfcfcf;stroke-opacity:0.439216;stroke-width:2.25;"/>
    <path clip-path="url(#p1c5d849029)" d="M 336.470902 282.339908 
L 386.458826 282.339908 
" style="fill:none;stroke:#cfcfcf;stroke-opacity:0.439216;stroke-width:2.25;"/>
    <path clip-path="url(#p1c5d849029)" d="M 284.977273 337.565589 
L 313.330656 337.565589 
" style="fill:none;stroke:#cfcfcf;stroke-opacity:0.439216;stroke-width:2.25;"/>
    <path clip-path="url(#p1c5d849029)" d="M 382.045366 219.899926 
L 465.403831 219.899926 
" style="fill:none;stroke:#cfcfcf;stroke-opacity:0.439216;stroke-width:2.25;"/>
    <path clip-path="url(#p1c5d849029)" d="M 165.940871 446.251171 
L 200.114359 446.251171 
" style="fill:none;stroke:#cfcfcf;stroke-opacity:0.439216;stroke-width:2.25;"/>
    <path clip-path="url(#p1c5d849029)" d="M 267.645471 361.952991 
L 278.067518 361.952991 
" style="fill:none;stroke:#cfcfcf;stroke-opacity:0.439216;stroke-width:2.25;"/>
    <path clip-path="url(#p1c5d849029)" d="M 314.431411 316.162431 
L 354.368213 316.162431 
" style="fill:none;stroke:#cfcfcf;stroke-opacity:0.439216;stroke-width:2.25;"/>
    <path clip-path="url(#p1c5d849029)" d="M 295.434719 330.83166 
L 325.807988 330.83166 
" style="fill:none;stroke:#cfcfcf;stroke-opacity:0.439216;stroke-width:2.25;"/>
    <path clip-path="url(#p1c5d849029)" d="M 334.834149 292.317897 
L 370.839465 292.317897 
" style="fill:none;stroke:#cfcfcf;stroke-opacity:0.439216;stroke-width:2.25;"/>
    <path clip-path="url(#p1c5d849029)" d="M 212.251656 381.32375 
L 258.337663 381.32375 
" style="fill:none;stroke:#cfcfcf;stroke-opacity:0.439216;stroke-width:2.25;"/>
    <path clip-path="url(#p1c5d849029)" d="M 124.867778 448.202131 
L 185.667879 448.202131 
" style="fill:none;stroke:#cfcfcf;stroke-opacity:0.439216;stroke-width:2.25;"/>
    <path clip-path="url(#p1c5d849029)" d="M 380.342518 215.159761 
L 445.109578 215.159761 
" style="fill:none;stroke:#cfcfcf;stroke-opacity:0.439216;stroke-width:2.25;"/>
    <path clip-path="url(#p1c5d849029)" d="M 209.169601 406.343527 
L 217.686054 406.343527 
" style="fill:none;stroke:#cfcfcf;stroke-opacity:0.439216;stroke-width:2.25;"/>
    <path clip-path="url(#p1c5d849029)" d="M 319.737701 299.440951 
L 377.769092 299.440951 
" style="fill:none;stroke:#cfcfcf;stroke-opacity:0.439216;stroke-width:2.25;"/>
    <path clip-path="url(#p1c5d849029)" d="M 309.842901 292.096124 
L 359.385723 292.096124 
" style="fill:none;stroke:#cfcfcf;stroke-opacity:0.439216;stroke-width:2.25;"/>
    <path clip-path="url(#p1c5d849029)" d="M 384.494857 290.572407 
L 435.518313 290.572407 
" style="fill:none;stroke:#cfcfcf;stroke-opacity:0.439216;stroke-width:2.25;"/>
    <path clip-path="url(#p1c5d849029)" d="M 245.822905 358.152994 
L 315.200856 358.152994 
" style="fill:none;stroke:#cfcfcf;stroke-opacity:0.439216;stroke-width:2.25;"/>
    <path clip-path="url(#p1c5d849029)" d="M 260.487662 319.129087 
L 333.494894 319.129087 
" style="fill:none;stroke:#cfcfcf;stroke-opacity:0.439216;stroke-width:2.25;"/>
    <path clip-path="url(#p1c5d849029)" d="M 411.954202 220.326487 
L 455.555163 220.326487 
" style="fill:none;stroke:#cfcfcf;stroke-opacity:0.439216;stroke-width:2.25;"/>
    <path clip-path="url(#p1c5d849029)" d="M 363.437413 269.672235 
L 389.946437 269.672235 
" style="fill:none;stroke:#cfcfcf;stroke-opacity:0.439216;stroke-width:2.25;"/>
    <path clip-path="url(#p1c5d849029)" d="M 448.895168 164.462029 
L 502.731283 164.462029 
" style="fill:none;stroke:#cfcfcf;stroke-opacity:0.439216;stroke-width:2.25;"/>
    <path clip-path="url(#p1c5d849029)" d="M 190.397284 423.377962 
L 225.675681 423.377962 
" style="fill:none;stroke:#cfcfcf;stroke-opacity:0.439216;stroke-width:2.25;"/>
    <path clip-path="url(#p1c5d849029)" d="M 257.657791 371.212865 
L 295.472942 371.212865 
" style="fill:none;stroke:#cfcfcf;stroke-opacity:0.439216;stroke-width:2.25;"/>
    <path clip-path="url(#p1c5d849029)" d="M 355.039535 268.779199 
L 411.155506 268.779199 
" style="fill:none;stroke:#cfcfcf;stroke-opacity:0.439216;stroke-width:2.25;"/>
    <path clip-path="url(#p1c5d849029)" d="M 293.499904 318.989704 
L 350.287834 318.989704 
" style="fill:none;stroke:#cfcfcf;stroke-opacity:0.439216;stroke-width:2.25;"/>
    <path clip-path="url(#p1c5d849029)" d="M 282.41992 339.615903 
L 303.292394 339.615903 
" style="fill:none;stroke:#cfcfcf;stroke-opacity:0.439216;stroke-width:2.25;"/>
    <path clip-path="url(#p1c5d849029)" d="M 206.887259 394.9011 
L 234.263023 394.9011 
" style="fill:none;stroke:#cfcfcf;stroke-opacity:0.439216;stroke-width:2.25;"/>
    <path clip-path="url(#p1c5d849029)" d="M 297.377301 313.25817 
L 352.527891 313.25817 
" style="fill:none;stroke:#cfcfcf;stroke-opacity:0.439216;stroke-width:2.25;"/>
    <path clip-path="url(#p1c5d849029)" d="M 172.015159 440.417429 
L 203.996608 440.417429 
" style="fill:none;stroke:#cfcfcf;stroke-opacity:0.439216;stroke-width:2.25;"/>
    <path clip-path="url(#p1c5d849029)" d="M 198.194382 402.949215 
L 277.379437 402.949215 
" style="fill:none;stroke:#cfcfcf;stroke-opacity:0.439216;stroke-width:2.25;"/>
   </g>
   <g id="LineCollection_2">
    <path clip-path="url(#p1c5d849029)" d="M 385.87478 290.026466 
L 385.87478 241.653433 
" style="fill:none;stroke:#cfcfcf;stroke-opacity:0.439216;stroke-width:2.25;"/>
    <path clip-path="url(#p1c5d849029)" d="M 259.753198 375.263697 
L 259.753198 357.560764 
" style="fill:none;stroke:#cfcfcf;stroke-opacity:0.439216;stroke-width:2.25;"/>
    <path clip-path="url(#p1c5d849029)" d="M 231.867629 392.152062 
L 231.867629 372.880217 
" style="fill:none;stroke:#cfcfcf;stroke-opacity:0.439216;stroke-width:2.25;"/>
    <path clip-path="url(#p1c5d849029)" d="M 244.521125 388.541658 
L 244.521125 377.208034 
" style="fill:none;stroke:#cfcfcf;stroke-opacity:0.439216;stroke-width:2.25;"/>
    <path clip-path="url(#p1c5d849029)" d="M 293.817844 350.245282 
L 293.817844 323.746984 
" style="fill:none;stroke:#cfcfcf;stroke-opacity:0.439216;stroke-width:2.25;"/>
    <path clip-path="url(#p1c5d849029)" d="M 296.027835 359.641709 
L 296.027835 332.931896 
" style="fill:none;stroke:#cfcfcf;stroke-opacity:0.439216;stroke-width:2.25;"/>
    <path clip-path="url(#p1c5d849029)" d="M 146.783809 477.785504 
L 146.783809 436.598777 
" style="fill:none;stroke:#cfcfcf;stroke-opacity:0.439216;stroke-width:2.25;"/>
    <path clip-path="url(#p1c5d849029)" d="M 322.431798 325.177852 
L 322.431798 308.177192 
" style="fill:none;stroke:#cfcfcf;stroke-opacity:0.439216;stroke-width:2.25;"/>
    <path clip-path="url(#p1c5d849029)" d="M 342.295667 301.929189 
L 342.295667 279.432506 
" style="fill:none;stroke:#cfcfcf;stroke-opacity:0.439216;stroke-width:2.25;"/>
    <path clip-path="url(#p1c5d849029)" d="M 309.097953 350.0381 
L 309.097953 311.654684 
" style="fill:none;stroke:#cfcfcf;stroke-opacity:0.439216;stroke-width:2.25;"/>
    <path clip-path="url(#p1c5d849029)" d="M 262.531231 383.953381 
L 262.531231 352.691943 
" style="fill:none;stroke:#cfcfcf;stroke-opacity:0.439216;stroke-width:2.25;"/>
    <path clip-path="url(#p1c5d849029)" d="M 358.865507 291.917707 
L 358.865507 269.613936 
" style="fill:none;stroke:#cfcfcf;stroke-opacity:0.439216;stroke-width:2.25;"/>
    <path clip-path="url(#p1c5d849029)" d="M 209.188324 437.980398 
L 209.188324 401.541318 
" style="fill:none;stroke:#cfcfcf;stroke-opacity:0.439216;stroke-width:2.25;"/>
    <path clip-path="url(#p1c5d849029)" d="M 372.873532 295.022039 
L 372.873532 246.282714 
" style="fill:none;stroke:#cfcfcf;stroke-opacity:0.439216;stroke-width:2.25;"/>
    <path clip-path="url(#p1c5d849029)" d="M 298.587801 342.022239 
L 298.587801 330.922136 
" style="fill:none;stroke:#cfcfcf;stroke-opacity:0.439216;stroke-width:2.25;"/>
    <path clip-path="url(#p1c5d849029)" d="M 361.464864 303.904999 
L 361.464864 260.774818 
" style="fill:none;stroke:#cfcfcf;stroke-opacity:0.439216;stroke-width:2.25;"/>
    <path clip-path="url(#p1c5d849029)" d="M 299.153965 350.44394 
L 299.153965 324.687238 
" style="fill:none;stroke:#cfcfcf;stroke-opacity:0.439216;stroke-width:2.25;"/>
    <path clip-path="url(#p1c5d849029)" d="M 423.724598 256.81158 
L 423.724598 182.988272 
" style="fill:none;stroke:#cfcfcf;stroke-opacity:0.439216;stroke-width:2.25;"/>
    <path clip-path="url(#p1c5d849029)" d="M 183.027615 461.916348 
L 183.027615 430.585993 
" style="fill:none;stroke:#cfcfcf;stroke-opacity:0.439216;stroke-width:2.25;"/>
    <path clip-path="url(#p1c5d849029)" d="M 272.856494 366.766107 
L 272.856494 357.139874 
" style="fill:none;stroke:#cfcfcf;stroke-opacity:0.439216;stroke-width:2.25;"/>
    <path clip-path="url(#p1c5d849029)" d="M 334.399812 333.967891 
L 334.399812 298.356971 
" style="fill:none;stroke:#cfcfcf;stroke-opacity:0.439216;stroke-width:2.25;"/>
    <path clip-path="url(#p1c5d849029)" d="M 310.621354 344.704581 
L 310.621354 316.958739 
" style="fill:none;stroke:#cfcfcf;stroke-opacity:0.439216;stroke-width:2.25;"/>
    <path clip-path="url(#p1c5d849029)" d="M 352.836807 308.823294 
L 352.836807 275.812499 
" style="fill:none;stroke:#cfcfcf;stroke-opacity:0.439216;stroke-width:2.25;"/>
    <path clip-path="url(#p1c5d849029)" d="M 235.294659 400.772431 
L 235.294659 361.875069 
" style="fill:none;stroke:#cfcfcf;stroke-opacity:0.439216;stroke-width:2.25;"/>
    <path clip-path="url(#p1c5d849029)" d="M 155.267828 479.832545 
L 155.267828 416.571717 
" style="fill:none;stroke:#cfcfcf;stroke-opacity:0.439216;stroke-width:2.25;"/>
    <path clip-path="url(#p1c5d849029)" d="M 412.726048 245.891809 
L 412.726048 184.427713 
" style="fill:none;stroke:#cfcfcf;stroke-opacity:0.439216;stroke-width:2.25;"/>
    <path clip-path="url(#p1c5d849029)" d="M 213.427827 410.577216 
L 213.427827 402.109837 
" style="fill:none;stroke:#cfcfcf;stroke-opacity:0.439216;stroke-width:2.25;"/>
    <path clip-path="url(#p1c5d849029)" d="M 348.753396 327.062068 
L 348.753396 271.819834 
" style="fill:none;stroke:#cfcfcf;stroke-opacity:0.439216;stroke-width:2.25;"/>
    <path clip-path="url(#p1c5d849029)" d="M 334.614312 314.549892 
L 334.614312 269.642356 
" style="fill:none;stroke:#cfcfcf;stroke-opacity:0.439216;stroke-width:2.25;"/>
    <path clip-path="url(#p1c5d849029)" d="M 410.006585 307.934055 
L 410.006585 273.210758 
" style="fill:none;stroke:#cfcfcf;stroke-opacity:0.439216;stroke-width:2.25;"/>
    <path clip-path="url(#p1c5d849029)" d="M 280.511881 386.947663 
L 280.511881 329.358324 
" style="fill:none;stroke:#cfcfcf;stroke-opacity:0.439216;stroke-width:2.25;"/>
    <path clip-path="url(#p1c5d849029)" d="M 296.991278 351.240214 
L 296.991278 287.017961 
" style="fill:none;stroke:#cfcfcf;stroke-opacity:0.439216;stroke-width:2.25;"/>
    <path clip-path="url(#p1c5d849029)" d="M 433.754683 238.595567 
L 433.754683 202.057406 
" style="fill:none;stroke:#cfcfcf;stroke-opacity:0.439216;stroke-width:2.25;"/>
    <path clip-path="url(#p1c5d849029)" d="M 376.691925 280.936548 
L 376.691925 258.407922 
" style="fill:none;stroke:#cfcfcf;stroke-opacity:0.439216;stroke-width:2.25;"/>
    <path clip-path="url(#p1c5d849029)" d="M 475.813225 189.971246 
L 475.813225 138.952811 
" style="fill:none;stroke:#cfcfcf;stroke-opacity:0.439216;stroke-width:2.25;"/>
    <path clip-path="url(#p1c5d849029)" d="M 208.036483 439.585467 
L 208.036483 407.170457 
" style="fill:none;stroke:#cfcfcf;stroke-opacity:0.439216;stroke-width:2.25;"/>
    <path clip-path="url(#p1c5d849029)" d="M 276.565367 387.216849 
L 276.565367 355.20888 
" style="fill:none;stroke:#cfcfcf;stroke-opacity:0.439216;stroke-width:2.25;"/>
    <path clip-path="url(#p1c5d849029)" d="M 383.09752 295.724526 
L 383.09752 241.833872 
" style="fill:none;stroke:#cfcfcf;stroke-opacity:0.439216;stroke-width:2.25;"/>
    <path clip-path="url(#p1c5d849029)" d="M 321.893869 344.637639 
L 321.893869 293.34177 
" style="fill:none;stroke:#cfcfcf;stroke-opacity:0.439216;stroke-width:2.25;"/>
    <path clip-path="url(#p1c5d849029)" d="M 292.856157 349.210584 
L 292.856157 330.021223 
" style="fill:none;stroke:#cfcfcf;stroke-opacity:0.439216;stroke-width:2.25;"/>
    <path clip-path="url(#p1c5d849029)" d="M 220.575141 407.839971 
L 220.575141 381.962229 
" style="fill:none;stroke:#cfcfcf;stroke-opacity:0.439216;stroke-width:2.25;"/>
    <path clip-path="url(#p1c5d849029)" d="M 324.952596 338.645894 
L 324.952596 287.870446 
" style="fill:none;stroke:#cfcfcf;stroke-opacity:0.439216;stroke-width:2.25;"/>
    <path clip-path="url(#p1c5d849029)" d="M 188.005884 455.261597 
L 188.005884 425.573261 
" style="fill:none;stroke:#cfcfcf;stroke-opacity:0.439216;stroke-width:2.25;"/>
    <path clip-path="url(#p1c5d849029)" d="M 237.78691 436.812442 
L 237.78691 369.085987 
" style="fill:none;stroke:#cfcfcf;stroke-opacity:0.439216;stroke-width:2.25;"/>
   </g>
   <g id="line2d_1"/>
   <g id="matplotlib.axis_1">
    <g id="xtick_1">
     <g id="line2d_2">
      <defs>
       <path d="M 0 0 
L 0 9 
" id="m97cd4476e9" style="stroke:#000000;stroke-width:1.875;"/>
      </defs>
      <g>
       <use style="stroke:#000000;stroke-width:1.875;" x="128.492387" xlink:href="#m97cd4476e9" y="501.756"/>
      </g>
     </g>
     <g id="text_1">
      <!-- −0.4 -->
      <defs>
       <path d="M 10.59375 35.5 
L 73.1875 35.5 
L 73.1875 27.203125 
L 10.59375 27.203125 
z
" id="DejaVuSans-8722"/>
       <path d="M 31.78125 66.40625 
Q 24.171875 66.40625 20.328125 58.90625 
Q 16.5 51.421875 16.5 36.375 
Q 16.5 21.390625 20.328125 13.890625 
Q 24.171875 6.390625 31.78125 6.390625 
Q 39.453125 6.390625 43.28125 13.890625 
Q 47.125 21.390625 47.125 36.375 
Q 47.125 51.421875 43.28125 58.90625 
Q 39.453125 66.40625 31.78125 66.40625 
z
M 31.78125 74.21875 
Q 44.046875 74.21875 50.515625 64.515625 
Q 56.984375 54.828125 56.984375 36.375 
Q 56.984375 17.96875 50.515625 8.265625 
Q 44.046875 -1.421875 31.78125 -1.421875 
Q 19.53125 -1.421875 13.0625 8.265625 
Q 6.59375 17.96875 6.59375 36.375 
Q 6.59375 54.828125 13.0625 64.515625 
Q 19.53125 74.21875 31.78125 74.21875 
z
" id="DejaVuSans-48"/>
       <path d="M 10.6875 12.40625 
L 21 12.40625 
L 21 0 
L 10.6875 0 
z
" id="DejaVuSans-46"/>
       <path d="M 37.796875 64.3125 
L 12.890625 25.390625 
L 37.796875 25.390625 
z
M 35.203125 72.90625 
L 47.609375 72.90625 
L 47.609375 25.390625 
L 58.015625 25.390625 
L 58.015625 17.1875 
L 47.609375 17.1875 
L 47.609375 0 
L 37.796875 0 
L 37.796875 17.1875 
L 4.890625 17.1875 
L 4.890625 26.703125 
z
" id="DejaVuSans-52"/>
      </defs>
      <g transform="translate(108.459066 526.793422)scale(0.165 -0.165)">
       <use xlink:href="#DejaVuSans-8722"/>
       <use x="83.789062" xlink:href="#DejaVuSans-48"/>
       <use x="147.412109" xlink:href="#DejaVuSans-46"/>
       <use x="179.199219" xlink:href="#DejaVuSans-52"/>
      </g>
     </g>
    </g>
    <g id="xtick_2">
     <g id="line2d_3">
      <g>
       <use style="stroke:#000000;stroke-width:1.875;" x="208.243355" xlink:href="#m97cd4476e9" y="501.756"/>
      </g>
     </g>
     <g id="text_2">
      <!-- −0.2 -->
      <defs>
       <path d="M 19.1875 8.296875 
L 53.609375 8.296875 
L 53.609375 0 
L 7.328125 0 
L 7.328125 8.296875 
Q 12.9375 14.109375 22.625 23.890625 
Q 32.328125 33.6875 34.8125 36.53125 
Q 39.546875 41.84375 41.421875 45.53125 
Q 43.3125 49.21875 43.3125 52.78125 
Q 43.3125 58.59375 39.234375 62.25 
Q 35.15625 65.921875 28.609375 65.921875 
Q 23.96875 65.921875 18.8125 64.3125 
Q 13.671875 62.703125 7.8125 59.421875 
L 7.8125 69.390625 
Q 13.765625 71.78125 18.9375 73 
Q 24.125 74.21875 28.421875 74.21875 
Q 39.75 74.21875 46.484375 68.546875 
Q 53.21875 62.890625 53.21875 53.421875 
Q 53.21875 48.921875 51.53125 44.890625 
Q 49.859375 40.875 45.40625 35.40625 
Q 44.1875 33.984375 37.640625 27.21875 
Q 31.109375 20.453125 19.1875 8.296875 
z
" id="DejaVuSans-50"/>
      </defs>
      <g transform="translate(188.210034 526.793422)scale(0.165 -0.165)">
       <use xlink:href="#DejaVuSans-8722"/>
       <use x="83.789062" xlink:href="#DejaVuSans-48"/>
       <use x="147.412109" xlink:href="#DejaVuSans-46"/>
       <use x="179.199219" xlink:href="#DejaVuSans-50"/>
      </g>
     </g>
    </g>
    <g id="xtick_3">
     <g id="line2d_4">
      <g>
       <use style="stroke:#000000;stroke-width:1.875;" x="287.994322" xlink:href="#m97cd4476e9" y="501.756"/>
      </g>
     </g>
     <g id="text_3">
      <!-- 0.0 -->
      <g transform="translate(274.874244 526.793422)scale(0.165 -0.165)">
       <use xlink:href="#DejaVuSans-48"/>
       <use x="63.623047" xlink:href="#DejaVuSans-46"/>
       <use x="95.410156" xlink:href="#DejaVuSans-48"/>
      </g>
     </g>
    </g>
    <g id="xtick_4">
     <g id="line2d_5">
      <g>
       <use style="stroke:#000000;stroke-width:1.875;" x="367.74529" xlink:href="#m97cd4476e9" y="501.756"/>
      </g>
     </g>
     <g id="text_4">
      <!-- 0.2 -->
      <g transform="translate(354.625212 526.793422)scale(0.165 -0.165)">
       <use xlink:href="#DejaVuSans-48"/>
       <use x="63.623047" xlink:href="#DejaVuSans-46"/>
       <use x="95.410156" xlink:href="#DejaVuSans-50"/>
      </g>
     </g>
    </g>
    <g id="xtick_5">
     <g id="line2d_6">
      <g>
       <use style="stroke:#000000;stroke-width:1.875;" x="447.496258" xlink:href="#m97cd4476e9" y="501.756"/>
      </g>
     </g>
     <g id="text_5">
      <!-- 0.4 -->
      <g transform="translate(434.37618 526.793422)scale(0.165 -0.165)">
       <use xlink:href="#DejaVuSans-48"/>
       <use x="63.623047" xlink:href="#DejaVuSans-46"/>
       <use x="95.410156" xlink:href="#DejaVuSans-52"/>
      </g>
     </g>
    </g>
    <g id="xtick_6">
     <g id="line2d_7">
      <g>
       <use style="stroke:#000000;stroke-width:1.875;" x="527.247226" xlink:href="#m97cd4476e9" y="501.756"/>
      </g>
     </g>
     <g id="text_6">
      <!-- 0.6 -->
      <defs>
       <path d="M 33.015625 40.375 
Q 26.375 40.375 22.484375 35.828125 
Q 18.609375 31.296875 18.609375 23.390625 
Q 18.609375 15.53125 22.484375 10.953125 
Q 26.375 6.390625 33.015625 6.390625 
Q 39.65625 6.390625 43.53125 10.953125 
Q 47.40625 15.53125 47.40625 23.390625 
Q 47.40625 31.296875 43.53125 35.828125 
Q 39.65625 40.375 33.015625 40.375 
z
M 52.59375 71.296875 
L 52.59375 62.3125 
Q 48.875 64.0625 45.09375 64.984375 
Q 41.3125 65.921875 37.59375 65.921875 
Q 27.828125 65.921875 22.671875 59.328125 
Q 17.53125 52.734375 16.796875 39.40625 
Q 19.671875 43.65625 24.015625 45.921875 
Q 28.375 48.1875 33.59375 48.1875 
Q 44.578125 48.1875 50.953125 41.515625 
Q 57.328125 34.859375 57.328125 23.390625 
Q 57.328125 12.15625 50.6875 5.359375 
Q 44.046875 -1.421875 33.015625 -1.421875 
Q 20.359375 -1.421875 13.671875 8.265625 
Q 6.984375 17.96875 6.984375 36.375 
Q 6.984375 53.65625 15.1875 63.9375 
Q 23.390625 74.21875 37.203125 74.21875 
Q 40.921875 74.21875 44.703125 73.484375 
Q 48.484375 72.75 52.59375 71.296875 
z
" id="DejaVuSans-54"/>
      </defs>
      <g transform="translate(514.127147 526.793422)scale(0.165 -0.165)">
       <use xlink:href="#DejaVuSans-48"/>
       <use x="63.623047" xlink:href="#DejaVuSans-46"/>
       <use x="95.410156" xlink:href="#DejaVuSans-54"/>
      </g>
     </g>
    </g>
    <g id="xtick_7">
     <g id="line2d_8">
      <g>
       <use style="stroke:#000000;stroke-width:1.875;" x="606.998193" xlink:href="#m97cd4476e9" y="501.756"/>
      </g>
     </g>
     <g id="text_7">
      <!-- 0.8 -->
      <defs>
       <path d="M 31.78125 34.625 
Q 24.75 34.625 20.71875 30.859375 
Q 16.703125 27.09375 16.703125 20.515625 
Q 16.703125 13.921875 20.71875 10.15625 
Q 24.75 6.390625 31.78125 6.390625 
Q 38.8125 6.390625 42.859375 10.171875 
Q 46.921875 13.96875 46.921875 20.515625 
Q 46.921875 27.09375 42.890625 30.859375 
Q 38.875 34.625 31.78125 34.625 
z
M 21.921875 38.8125 
Q 15.578125 40.375 12.03125 44.71875 
Q 8.5 49.078125 8.5 55.328125 
Q 8.5 64.0625 14.71875 69.140625 
Q 20.953125 74.21875 31.78125 74.21875 
Q 42.671875 74.21875 48.875 69.140625 
Q 55.078125 64.0625 55.078125 55.328125 
Q 55.078125 49.078125 51.53125 44.71875 
Q 48 40.375 41.703125 38.8125 
Q 48.828125 37.15625 52.796875 32.3125 
Q 56.78125 27.484375 56.78125 20.515625 
Q 56.78125 9.90625 50.3125 4.234375 
Q 43.84375 -1.421875 31.78125 -1.421875 
Q 19.734375 -1.421875 13.25 4.234375 
Q 6.78125 9.90625 6.78125 20.515625 
Q 6.78125 27.484375 10.78125 32.3125 
Q 14.796875 37.15625 21.921875 38.8125 
z
M 18.3125 54.390625 
Q 18.3125 48.734375 21.84375 45.5625 
Q 25.390625 42.390625 31.78125 42.390625 
Q 38.140625 42.390625 41.71875 45.5625 
Q 45.3125 48.734375 45.3125 54.390625 
Q 45.3125 60.0625 41.71875 63.234375 
Q 38.140625 66.40625 31.78125 66.40625 
Q 25.390625 66.40625 21.84375 63.234375 
Q 18.3125 60.0625 18.3125 54.390625 
z
" id="DejaVuSans-56"/>
      </defs>
      <g transform="translate(593.878115 526.793422)scale(0.165 -0.165)">
       <use xlink:href="#DejaVuSans-48"/>
       <use x="63.623047" xlink:href="#DejaVuSans-46"/>
       <use x="95.410156" xlink:href="#DejaVuSans-56"/>
      </g>
     </g>
    </g>
    <g id="xtick_8">
     <g id="line2d_9">
      <g>
       <use style="stroke:#000000;stroke-width:1.875;" x="686.749161" xlink:href="#m97cd4476e9" y="501.756"/>
      </g>
     </g>
     <g id="text_8">
      <!-- 1.0 -->
      <defs>
       <path d="M 12.40625 8.296875 
L 28.515625 8.296875 
L 28.515625 63.921875 
L 10.984375 60.40625 
L 10.984375 69.390625 
L 28.421875 72.90625 
L 38.28125 72.90625 
L 38.28125 8.296875 
L 54.390625 8.296875 
L 54.390625 0 
L 12.40625 0 
z
" id="DejaVuSans-49"/>
      </defs>
      <g transform="translate(673.629083 526.793422)scale(0.165 -0.165)">
       <use xlink:href="#DejaVuSans-49"/>
       <use x="63.623047" xlink:href="#DejaVuSans-46"/>
       <use x="95.410156" xlink:href="#DejaVuSans-48"/>
      </g>
     </g>
    </g>
    <g id="text_9">
     <!-- $\tau^*(w)$ - $D^2 (\alpha=1, \theta=1)$ -->
     <defs>
      <path d="M 32.859375 9.96875 
Q 34.1875 7.625 39.453125 7.625 
L 43.75 7.625 
L 42.28125 0 
L 36.921875 0 
Q 28.125 0 25 4.6875 
Q 21.921875 9.46875 23.96875 19.828125 
L 29 45.703125 
L 8.453125 45.703125 
L 10.203125 54.6875 
L 60.640625 54.6875 
L 58.890625 45.703125 
L 38.1875 45.703125 
L 33.015625 19.28125 
Q 31.640625 12.203125 32.859375 9.96875 
z
" id="DejaVuSans-Oblique-964"/>
      <path d="M 47.015625 60.890625 
L 29.5 51.421875 
L 47.015625 41.890625 
L 44.1875 37.109375 
L 27.78125 47.015625 
L 27.78125 28.609375 
L 22.21875 28.609375 
L 22.21875 47.015625 
L 5.8125 37.109375 
L 2.984375 41.890625 
L 20.515625 51.421875 
L 2.984375 60.890625 
L 5.8125 65.71875 
L 22.21875 55.8125 
L 22.21875 74.21875 
L 27.78125 74.21875 
L 27.78125 55.8125 
L 44.1875 65.71875 
z
" id="DejaVuSans-42"/>
      <path d="M 31 75.875 
Q 24.46875 64.65625 21.28125 53.65625 
Q 18.109375 42.671875 18.109375 31.390625 
Q 18.109375 20.125 21.3125 9.0625 
Q 24.515625 -2 31 -13.1875 
L 23.1875 -13.1875 
Q 15.875 -1.703125 12.234375 9.375 
Q 8.59375 20.453125 8.59375 31.390625 
Q 8.59375 42.28125 12.203125 53.3125 
Q 15.828125 64.359375 23.1875 75.875 
z
" id="DejaVuSans-40"/>
      <path d="M 8.5 54.6875 
L 17.390625 54.6875 
L 19.671875 10.6875 
L 40.09375 54.6875 
L 50.484375 54.6875 
L 53.515625 10.6875 
L 72.90625 54.6875 
L 81.890625 54.6875 
L 56.890625 0 
L 46.390625 0 
L 43.703125 45.3125 
L 22.796875 0 
L 12.203125 0 
z
" id="DejaVuSans-Oblique-119"/>
      <path d="M 8.015625 75.875 
L 15.828125 75.875 
Q 23.140625 64.359375 26.78125 53.3125 
Q 30.421875 42.28125 30.421875 31.390625 
Q 30.421875 20.453125 26.78125 9.375 
Q 23.140625 -1.703125 15.828125 -13.1875 
L 8.015625 -13.1875 
Q 14.5 -2 17.703125 9.0625 
Q 20.90625 20.125 20.90625 31.390625 
Q 20.90625 42.671875 17.703125 53.65625 
Q 14.5 64.65625 8.015625 75.875 
z
" id="DejaVuSans-41"/>
      <path id="DejaVuSans-32"/>
      <path d="M 4.890625 31.390625 
L 31.203125 31.390625 
L 31.203125 23.390625 
L 4.890625 23.390625 
z
" id="DejaVuSans-45"/>
      <path d="M 16.890625 72.90625 
L 38.09375 72.90625 
Q 54.984375 72.90625 63.59375 65.75 
Q 72.21875 58.59375 72.21875 44.484375 
Q 72.21875 35.15625 68.9375 26.53125 
Q 65.671875 17.921875 59.90625 12.015625 
Q 54.109375 5.953125 45.171875 2.96875 
Q 36.234375 0 24.03125 0 
L 2.6875 0 
z
M 25.203125 64.796875 
L 14.203125 8.109375 
L 27.09375 8.109375 
Q 43.65625 8.109375 52.734375 17.625 
Q 61.8125 27.15625 61.8125 44.484375 
Q 61.8125 54.984375 55.953125 59.890625 
Q 50.09375 64.796875 37.59375 64.796875 
z
" id="DejaVuSans-Oblique-68"/>
      <path d="M 40.921875 25.4375 
L 40.96875 36.71875 
Q 41.015625 48.25 32.328125 48.296875 
Q 25.828125 48.34375 21.78125 42.921875 
Q 16.703125 36.234375 14.984375 27.296875 
Q 12.890625 16.546875 15.53125 11.421875 
Q 18.265625 6.203125 24.171875 6.203125 
Q 30.71875 6.203125 36.234375 16.609375 
z
M 33.84375 55.90625 
Q 49.078125 56.15625 48.875 40.375 
Q 48.875 40.375 56.5 54.6875 
L 64.5 54.6875 
L 48.734375 25.046875 
L 48.578125 14.359375 
Q 48.578125 11.96875 49.90625 9.96875 
Q 51.421875 7.625 52.984375 7.625 
L 57.328125 7.625 
L 55.859375 0 
L 50.4375 0 
Q 45.84375 0 42.53125 4.109375 
Q 40.96875 6.15625 40.921875 10.453125 
Q 37.75 5.21875 32.28125 0.78125 
Q 29.6875 -1.265625 22.703125 -1.21875 
Q 11.28125 -1.125 7.125 6.203125 
Q 2.875 13.8125 5.515625 27.296875 
Q 8.34375 41.796875 15.765625 48.390625 
Q 24.125 55.765625 33.84375 55.90625 
z
" id="DejaVuSans-Oblique-945"/>
      <path d="M 10.59375 45.40625 
L 73.1875 45.40625 
L 73.1875 37.203125 
L 10.59375 37.203125 
z
M 10.59375 25.484375 
L 73.1875 25.484375 
L 73.1875 17.1875 
L 10.59375 17.1875 
z
" id="DejaVuSans-61"/>
      <path d="M 11.71875 12.40625 
L 22.015625 12.40625 
L 22.015625 4 
L 14.015625 -11.625 
L 7.71875 -11.625 
L 11.71875 4 
z
" id="DejaVuSans-44"/>
      <path d="M 45.515625 34.671875 
L 14.453125 34.671875 
Q 12.359375 20.0625 14.5 13.875 
Q 17.1875 6.25 24.46875 6.25 
Q 31.78125 6.25 37.359375 13.921875 
Q 42.234375 20.65625 45.515625 34.671875 
z
M 47.015625 42.96875 
Q 48.34375 56.84375 46.625 61.71875 
Q 43.953125 69.4375 36.765625 69.4375 
Q 29.296875 69.4375 23.828125 61.8125 
Q 19.53125 55.671875 16.15625 42.96875 
z
M 38.1875 76.765625 
Q 49.90625 76.765625 54.59375 66.40625 
Q 59.28125 56.109375 55.71875 37.84375 
Q 52.203125 19.625 43.453125 9.28125 
Q 34.765625 -1.125 23.046875 -1.125 
Q 11.28125 -1.125 6.640625 9.28125 
Q 2 19.625 5.515625 37.84375 
Q 9.078125 56.109375 17.71875 66.40625 
Q 26.421875 76.765625 38.1875 76.765625 
z
" id="DejaVuSans-Oblique-952"/>
     </defs>
     <g transform="translate(293.605554 549.381469)scale(0.18 -0.18)">
      <use transform="translate(0 0.765625)" xlink:href="#DejaVuSans-Oblique-964"/>
      <use transform="translate(78.308919 39.046875)scale(0.7)" xlink:href="#DejaVuSans-42"/>
      <use transform="translate(129.68099 0.765625)" xlink:href="#DejaVuSans-40"/>
      <use transform="translate(168.694661 0.765625)" xlink:href="#DejaVuSans-Oblique-119"/>
      <use transform="translate(250.481771 0.765625)" xlink:href="#DejaVuSans-41"/>
      <use transform="translate(289.495443 0.765625)" xlink:href="#DejaVuSans-32"/>
      <use transform="translate(321.282552 0.765625)" xlink:href="#DejaVuSans-45"/>
      <use transform="translate(357.366536 0.765625)" xlink:href="#DejaVuSans-32"/>
      <use transform="translate(389.153646 0.765625)" xlink:href="#DejaVuSans-Oblique-68"/>
      <use transform="translate(473.17237 39.046875)scale(0.7)" xlink:href="#DejaVuSans-50"/>
      <use transform="translate(520.442878 0.765625)" xlink:href="#DejaVuSans-40"/>
      <use transform="translate(559.456549 0.765625)" xlink:href="#DejaVuSans-Oblique-945"/>
      <use transform="translate(644.85694 0.765625)" xlink:href="#DejaVuSans-61"/>
      <use transform="translate(748.128424 0.765625)" xlink:href="#DejaVuSans-49"/>
      <use transform="translate(811.751471 0.765625)" xlink:href="#DejaVuSans-44"/>
      <use transform="translate(863.021003 0.765625)" xlink:href="#DejaVuSans-Oblique-952"/>
      <use transform="translate(943.685065 0.765625)" xlink:href="#DejaVuSans-61"/>
      <use transform="translate(1046.956549 0.765625)" xlink:href="#DejaVuSans-49"/>
      <use transform="translate(1110.579596 0.765625)" xlink:href="#DejaVuSans-41"/>
     </g>
    </g>
   </g>
   <g id="matplotlib.axis_2">
    <g id="ytick_1">
     <g id="line2d_10">
      <defs>
       <path d="M 0 0 
L -9 0 
" id="m3737d70857" style="stroke:#000000;stroke-width:1.875;"/>
      </defs>
      <g>
       <use style="stroke:#000000;stroke-width:1.875;" x="97.644" xlink:href="#m3737d70857" y="460.72144"/>
      </g>
     </g>
     <g id="text_10">
      <!-- −0.4 -->
      <g transform="translate(45.077359 466.990151)scale(0.165 -0.165)">
       <use xlink:href="#DejaVuSans-8722"/>
       <use x="83.789062" xlink:href="#DejaVuSans-48"/>
       <use x="147.412109" xlink:href="#DejaVuSans-46"/>
       <use x="179.199219" xlink:href="#DejaVuSans-52"/>
      </g>
     </g>
    </g>
    <g id="ytick_2">
     <g id="line2d_11">
      <g>
       <use style="stroke:#000000;stroke-width:1.875;" x="97.644" xlink:href="#m3737d70857" y="404.127539"/>
      </g>
     </g>
     <g id="text_11">
      <!-- −0.2 -->
      <g transform="translate(45.077359 410.39625)scale(0.165 -0.165)">
       <use xlink:href="#DejaVuSans-8722"/>
       <use x="83.789062" xlink:href="#DejaVuSans-48"/>
       <use x="147.412109" xlink:href="#DejaVuSans-46"/>
       <use x="179.199219" xlink:href="#DejaVuSans-50"/>
      </g>
     </g>
    </g>
    <g id="ytick_3">
     <g id="line2d_12">
      <g>
       <use style="stroke:#000000;stroke-width:1.875;" x="97.644" xlink:href="#m3737d70857" y="347.533638"/>
      </g>
     </g>
     <g id="text_12">
      <!-- 0.0 -->
      <g transform="translate(58.903844 353.802349)scale(0.165 -0.165)">
       <use xlink:href="#DejaVuSans-48"/>
       <use x="63.623047" xlink:href="#DejaVuSans-46"/>
       <use x="95.410156" xlink:href="#DejaVuSans-48"/>
      </g>
     </g>
    </g>
    <g id="ytick_4">
     <g id="line2d_13">
      <g>
       <use style="stroke:#000000;stroke-width:1.875;" x="97.644" xlink:href="#m3737d70857" y="290.939737"/>
      </g>
     </g>
     <g id="text_13">
      <!-- 0.2 -->
      <g transform="translate(58.903844 297.208448)scale(0.165 -0.165)">
       <use xlink:href="#DejaVuSans-48"/>
       <use x="63.623047" xlink:href="#DejaVuSans-46"/>
       <use x="95.410156" xlink:href="#DejaVuSans-50"/>
      </g>
     </g>
    </g>
    <g id="ytick_5">
     <g id="line2d_14">
      <g>
       <use style="stroke:#000000;stroke-width:1.875;" x="97.644" xlink:href="#m3737d70857" y="234.345835"/>
      </g>
     </g>
     <g id="text_14">
      <!-- 0.4 -->
      <g transform="translate(58.903844 240.614546)scale(0.165 -0.165)">
       <use xlink:href="#DejaVuSans-48"/>
       <use x="63.623047" xlink:href="#DejaVuSans-46"/>
       <use x="95.410156" xlink:href="#DejaVuSans-52"/>
      </g>
     </g>
    </g>
    <g id="ytick_6">
     <g id="line2d_15">
      <g>
       <use style="stroke:#000000;stroke-width:1.875;" x="97.644" xlink:href="#m3737d70857" y="177.751934"/>
      </g>
     </g>
     <g id="text_15">
      <!-- 0.6 -->
      <g transform="translate(58.903844 184.020645)scale(0.165 -0.165)">
       <use xlink:href="#DejaVuSans-48"/>
       <use x="63.623047" xlink:href="#DejaVuSans-46"/>
       <use x="95.410156" xlink:href="#DejaVuSans-54"/>
      </g>
     </g>
    </g>
    <g id="ytick_7">
     <g id="line2d_16">
      <g>
       <use style="stroke:#000000;stroke-width:1.875;" x="97.644" xlink:href="#m3737d70857" y="121.158033"/>
      </g>
     </g>
     <g id="text_16">
      <!-- 0.8 -->
      <g transform="translate(58.903844 127.426744)scale(0.165 -0.165)">
       <use xlink:href="#DejaVuSans-48"/>
       <use x="63.623047" xlink:href="#DejaVuSans-46"/>
       <use x="95.410156" xlink:href="#DejaVuSans-56"/>
      </g>
     </g>
    </g>
    <g id="ytick_8">
     <g id="line2d_17">
      <g>
       <use style="stroke:#000000;stroke-width:1.875;" x="97.644" xlink:href="#m3737d70857" y="64.564131"/>
      </g>
     </g>
     <g id="text_17">
      <!-- 1.0 -->
      <g transform="translate(58.903844 70.832842)scale(0.165 -0.165)">
       <use xlink:href="#DejaVuSans-49"/>
       <use x="63.623047" xlink:href="#DejaVuSans-46"/>
       <use x="95.410156" xlink:href="#DejaVuSans-48"/>
      </g>
     </g>
    </g>
    <g id="text_18">
     <!-- $\tau^*(w)$ - $D^2 (\alpha=0, \theta=1)$ -->
     <g transform="translate(37.333922 364.098)rotate(-90)scale(0.18 -0.18)">
      <use transform="translate(0 0.765625)" xlink:href="#DejaVuSans-Oblique-964"/>
      <use transform="translate(78.308919 39.046875)scale(0.7)" xlink:href="#DejaVuSans-42"/>
      <use transform="translate(129.68099 0.765625)" xlink:href="#DejaVuSans-40"/>
      <use transform="translate(168.694661 0.765625)" xlink:href="#DejaVuSans-Oblique-119"/>
      <use transform="translate(250.481771 0.765625)" xlink:href="#DejaVuSans-41"/>
      <use transform="translate(289.495443 0.765625)" xlink:href="#DejaVuSans-32"/>
      <use transform="translate(321.282552 0.765625)" xlink:href="#DejaVuSans-45"/>
      <use transform="translate(357.366536 0.765625)" xlink:href="#DejaVuSans-32"/>
      <use transform="translate(389.153646 0.765625)" xlink:href="#DejaVuSans-Oblique-68"/>
      <use transform="translate(473.17237 39.046875)scale(0.7)" xlink:href="#DejaVuSans-50"/>
      <use transform="translate(520.442878 0.765625)" xlink:href="#DejaVuSans-40"/>
      <use transform="translate(559.456549 0.765625)" xlink:href="#DejaVuSans-Oblique-945"/>
      <use transform="translate(644.85694 0.765625)" xlink:href="#DejaVuSans-61"/>
      <use transform="translate(748.128424 0.765625)" xlink:href="#DejaVuSans-48"/>
      <use transform="translate(811.751471 0.765625)" xlink:href="#DejaVuSans-44"/>
      <use transform="translate(863.021003 0.765625)" xlink:href="#DejaVuSans-Oblique-952"/>
      <use transform="translate(943.685065 0.765625)" xlink:href="#DejaVuSans-61"/>
      <use transform="translate(1046.956549 0.765625)" xlink:href="#DejaVuSans-49"/>
      <use transform="translate(1110.579596 0.765625)" xlink:href="#DejaVuSans-41"/>
     </g>
    </g>
   </g>
   <g id="line2d_18">
    <path clip-path="url(#p1c5d849029)" d="M 133.465805 457.19214 
L 669.34333 76.91588 
L 669.34333 76.91588 
" style="fill:none;stroke:#1f77b4;stroke-dasharray:8.325,3.6;stroke-dashoffset:0;stroke-width:2.25;"/>
   </g>
   <g id="patch_3">
    <path d="M 97.644 501.756 
L 97.644 19.44 
" style="fill:none;stroke:#000000;stroke-linecap:square;stroke-linejoin:miter;stroke-width:1.875;"/>
   </g>
   <g id="patch_4">
    <path d="M 696.567108 501.756 
L 696.567108 19.44 
" style="fill:none;stroke:#000000;stroke-linecap:square;stroke-linejoin:miter;stroke-width:1.875;"/>
   </g>
   <g id="patch_5">
    <path d="M 97.644 501.756 
L 696.567108 501.756 
" style="fill:none;stroke:#000000;stroke-linecap:square;stroke-linejoin:miter;stroke-width:1.875;"/>
   </g>
   <g id="patch_6">
    <path d="M 97.644 19.44 
L 696.567108 19.44 
" style="fill:none;stroke:#000000;stroke-linecap:square;stroke-linejoin:miter;stroke-width:1.875;"/>
   </g>
   <g id="LineCollection_3">
    <path clip-path="url(#p1c5d849029)" d="M 397.420252 333.045701 
L 410.496792 333.045701 
" style="fill:none;stroke:#666666;stroke-width:2.25;"/>
    <path clip-path="url(#p1c5d849029)" d="M 329.683797 335.516164 
L 335.754517 335.516164 
" style="fill:none;stroke:#666666;stroke-width:2.25;"/>
    <path clip-path="url(#p1c5d849029)" d="M 375.337017 327.483606 
L 385.607142 327.483606 
" style="fill:none;stroke:#666666;stroke-width:2.25;"/>
    <path clip-path="url(#p1c5d849029)" d="M 336.950919 338.22232 
L 346.299468 338.22232 
" style="fill:none;stroke:#666666;stroke-width:2.25;"/>
    <path clip-path="url(#p1c5d849029)" d="M 346.107645 338.399028 
L 355.301458 338.399028 
" style="fill:none;stroke:#666666;stroke-width:2.25;"/>
    <path clip-path="url(#p1c5d849029)" d="M 397.28101 338.999115 
L 411.457609 338.999115 
" style="fill:none;stroke:#666666;stroke-width:2.25;"/>
    <path clip-path="url(#p1c5d849029)" d="M 382.899752 333.17759 
L 392.659001 333.17759 
" style="fill:none;stroke:#666666;stroke-width:2.25;"/>
    <path clip-path="url(#p1c5d849029)" d="M 398.83589 325.469469 
L 410.131073 325.469469 
" style="fill:none;stroke:#666666;stroke-width:2.25;"/>
    <path clip-path="url(#p1c5d849029)" d="M 321.203623 342.413087 
L 329.109308 342.413087 
" style="fill:none;stroke:#666666;stroke-width:2.25;"/>
    <path clip-path="url(#p1c5d849029)" d="M 413.935947 328.884842 
L 426.432537 328.884842 
" style="fill:none;stroke:#666666;stroke-width:2.25;"/>
   </g>
   <g id="LineCollection_4">
    <path clip-path="url(#p1c5d849029)" d="M 403.958522 341.101836 
L 403.958522 324.989565 
" style="fill:none;stroke:#666666;stroke-width:2.25;"/>
    <path clip-path="url(#p1c5d849029)" d="M 332.719157 339.219282 
L 332.719157 331.813047 
" style="fill:none;stroke:#666666;stroke-width:2.25;"/>
    <path clip-path="url(#p1c5d849029)" d="M 380.472079 332.692296 
L 380.472079 322.274916 
" style="fill:none;stroke:#666666;stroke-width:2.25;"/>
    <path clip-path="url(#p1c5d849029)" d="M 341.625194 342.453009 
L 341.625194 333.99163 
" style="fill:none;stroke:#666666;stroke-width:2.25;"/>
    <path clip-path="url(#p1c5d849029)" d="M 350.704551 342.95659 
L 350.704551 333.841466 
" style="fill:none;stroke:#666666;stroke-width:2.25;"/>
    <path clip-path="url(#p1c5d849029)" d="M 404.369309 347.870231 
L 404.369309 330.127999 
" style="fill:none;stroke:#666666;stroke-width:2.25;"/>
    <path clip-path="url(#p1c5d849029)" d="M 387.779377 339.560183 
L 387.779377 326.794996 
" style="fill:none;stroke:#666666;stroke-width:2.25;"/>
    <path clip-path="url(#p1c5d849029)" d="M 404.483482 332.908148 
L 404.483482 318.03079 
" style="fill:none;stroke:#666666;stroke-width:2.25;"/>
    <path clip-path="url(#p1c5d849029)" d="M 325.156466 345.230856 
L 325.156466 339.595317 
" style="fill:none;stroke:#666666;stroke-width:2.25;"/>
    <path clip-path="url(#p1c5d849029)" d="M 420.184242 337.190552 
L 420.184242 320.579132 
" style="fill:none;stroke:#666666;stroke-width:2.25;"/>
   </g>
   <g id="LineCollection_5">
    <path clip-path="url(#p1c5d849029)" d="M 310.682523 317.811484 
L 318.187085 317.811484 
" style="fill:none;stroke:#e7298a;stroke-width:2.25;"/>
    <path clip-path="url(#p1c5d849029)" d="M 265.301788 394.240186 
L 274.385941 394.240186 
" style="fill:none;stroke:#e7298a;stroke-width:2.25;"/>
    <path clip-path="url(#p1c5d849029)" d="M 204.000266 378.512596 
L 217.550133 378.512596 
" style="fill:none;stroke:#e7298a;stroke-width:2.25;"/>
    <path clip-path="url(#p1c5d849029)" d="M 341.889238 262.591804 
L 363.084967 262.591804 
" style="fill:none;stroke:#e7298a;stroke-width:2.25;"/>
    <path clip-path="url(#p1c5d849029)" d="M 221.77127 381.367076 
L 230.023293 381.367076 
" style="fill:none;stroke:#e7298a;stroke-width:2.25;"/>
   </g>
   <g id="LineCollection_6">
    <path clip-path="url(#p1c5d849029)" d="M 314.434804 322.289928 
L 314.434804 313.33304 
" style="fill:none;stroke:#e7298a;stroke-width:2.25;"/>
    <path clip-path="url(#p1c5d849029)" d="M 269.843864 399.465471 
L 269.843864 389.014902 
" style="fill:none;stroke:#e7298a;stroke-width:2.25;"/>
    <path clip-path="url(#p1c5d849029)" d="M 210.775199 384.955516 
L 210.775199 372.069676 
" style="fill:none;stroke:#e7298a;stroke-width:2.25;"/>
    <path clip-path="url(#p1c5d849029)" d="M 352.487103 272.751959 
L 352.487103 252.43165 
" style="fill:none;stroke:#e7298a;stroke-width:2.25;"/>
    <path clip-path="url(#p1c5d849029)" d="M 225.897282 385.000411 
L 225.897282 377.733741 
" style="fill:none;stroke:#e7298a;stroke-width:2.25;"/>
   </g>
   <g id="LineCollection_7">
    <path clip-path="url(#p1c5d849029)" d="M 420.645797 269.567124 
L 454.216854 269.567124 
" style="fill:none;stroke:#a6761d;stroke-width:2.25;"/>
    <path clip-path="url(#p1c5d849029)" d="M 326.982448 344.202365 
L 351.432249 344.202365 
" style="fill:none;stroke:#a6761d;stroke-width:2.25;"/>
    <path clip-path="url(#p1c5d849029)" d="M 338.682933 320.863756 
L 367.448411 320.863756 
" style="fill:none;stroke:#a6761d;stroke-width:2.25;"/>
    <path clip-path="url(#p1c5d849029)" d="M 523.755004 76.91588 
L 604.898471 76.91588 
" style="fill:none;stroke:#a6761d;stroke-width:2.25;"/>
   </g>
   <g id="LineCollection_8">
    <path clip-path="url(#p1c5d849029)" d="M 437.431326 282.709463 
L 437.431326 256.424786 
" style="fill:none;stroke:#a6761d;stroke-width:2.25;"/>
    <path clip-path="url(#p1c5d849029)" d="M 339.207348 353.545885 
L 339.207348 334.858845 
" style="fill:none;stroke:#a6761d;stroke-width:2.25;"/>
    <path clip-path="url(#p1c5d849029)" d="M 353.065672 330.545 
L 353.065672 311.182513 
" style="fill:none;stroke:#a6761d;stroke-width:2.25;"/>
    <path clip-path="url(#p1c5d849029)" d="M 564.326738 112.468305 
L 564.326738 41.363455 
" style="fill:none;stroke:#a6761d;stroke-width:2.25;"/>
   </g>
   <g id="line2d_19"/>
   <g id="line2d_20"/>
   <g id="line2d_21"/>
   <g id="legend_1">
    <g id="patch_7">
     <path d="M 109.194 151.123406 
L 352.522594 151.123406 
Q 355.822594 151.123406 355.822594 147.823406 
L 355.822594 30.99 
Q 355.822594 27.69 352.522594 27.69 
L 109.194 27.69 
Q 105.894 27.69 105.894 30.99 
L 105.894 147.823406 
Q 105.894 151.123406 109.194 151.123406 
z
" style="fill:#ffffff;opacity:0.8;stroke:#cccccc;stroke-linejoin:miter;stroke-width:1.5;"/>
    </g>
    <g id="text_19">
     <!-- Category of Significantly -->
     <defs>
      <path d="M 64.40625 67.28125 
L 64.40625 56.890625 
Q 59.421875 61.53125 53.78125 63.8125 
Q 48.140625 66.109375 41.796875 66.109375 
Q 29.296875 66.109375 22.65625 58.46875 
Q 16.015625 50.828125 16.015625 36.375 
Q 16.015625 21.96875 22.65625 14.328125 
Q 29.296875 6.6875 41.796875 6.6875 
Q 48.140625 6.6875 53.78125 8.984375 
Q 59.421875 11.28125 64.40625 15.921875 
L 64.40625 5.609375 
Q 59.234375 2.09375 53.4375 0.328125 
Q 47.65625 -1.421875 41.21875 -1.421875 
Q 24.65625 -1.421875 15.125 8.703125 
Q 5.609375 18.84375 5.609375 36.375 
Q 5.609375 53.953125 15.125 64.078125 
Q 24.65625 74.21875 41.21875 74.21875 
Q 47.75 74.21875 53.53125 72.484375 
Q 59.328125 70.75 64.40625 67.28125 
z
" id="DejaVuSans-67"/>
      <path d="M 34.28125 27.484375 
Q 23.390625 27.484375 19.1875 25 
Q 14.984375 22.515625 14.984375 16.5 
Q 14.984375 11.71875 18.140625 8.90625 
Q 21.296875 6.109375 26.703125 6.109375 
Q 34.1875 6.109375 38.703125 11.40625 
Q 43.21875 16.703125 43.21875 25.484375 
L 43.21875 27.484375 
z
M 52.203125 31.203125 
L 52.203125 0 
L 43.21875 0 
L 43.21875 8.296875 
Q 40.140625 3.328125 35.546875 0.953125 
Q 30.953125 -1.421875 24.3125 -1.421875 
Q 15.921875 -1.421875 10.953125 3.296875 
Q 6 8.015625 6 15.921875 
Q 6 25.140625 12.171875 29.828125 
Q 18.359375 34.515625 30.609375 34.515625 
L 43.21875 34.515625 
L 43.21875 35.40625 
Q 43.21875 41.609375 39.140625 45 
Q 35.0625 48.390625 27.6875 48.390625 
Q 23 48.390625 18.546875 47.265625 
Q 14.109375 46.140625 10.015625 43.890625 
L 10.015625 52.203125 
Q 14.9375 54.109375 19.578125 55.046875 
Q 24.21875 56 28.609375 56 
Q 40.484375 56 46.34375 49.84375 
Q 52.203125 43.703125 52.203125 31.203125 
z
" id="DejaVuSans-97"/>
      <path d="M 18.3125 70.21875 
L 18.3125 54.6875 
L 36.8125 54.6875 
L 36.8125 47.703125 
L 18.3125 47.703125 
L 18.3125 18.015625 
Q 18.3125 11.328125 20.140625 9.421875 
Q 21.96875 7.515625 27.59375 7.515625 
L 36.8125 7.515625 
L 36.8125 0 
L 27.59375 0 
Q 17.1875 0 13.234375 3.875 
Q 9.28125 7.765625 9.28125 18.015625 
L 9.28125 47.703125 
L 2.6875 47.703125 
L 2.6875 54.6875 
L 9.28125 54.6875 
L 9.28125 70.21875 
z
" id="DejaVuSans-116"/>
      <path d="M 56.203125 29.59375 
L 56.203125 25.203125 
L 14.890625 25.203125 
Q 15.484375 15.921875 20.484375 11.0625 
Q 25.484375 6.203125 34.421875 6.203125 
Q 39.59375 6.203125 44.453125 7.46875 
Q 49.3125 8.734375 54.109375 11.28125 
L 54.109375 2.78125 
Q 49.265625 0.734375 44.1875 -0.34375 
Q 39.109375 -1.421875 33.890625 -1.421875 
Q 20.796875 -1.421875 13.15625 6.1875 
Q 5.515625 13.8125 5.515625 26.8125 
Q 5.515625 40.234375 12.765625 48.109375 
Q 20.015625 56 32.328125 56 
Q 43.359375 56 49.78125 48.890625 
Q 56.203125 41.796875 56.203125 29.59375 
z
M 47.21875 32.234375 
Q 47.125 39.59375 43.09375 43.984375 
Q 39.0625 48.390625 32.421875 48.390625 
Q 24.90625 48.390625 20.390625 44.140625 
Q 15.875 39.890625 15.1875 32.171875 
z
" id="DejaVuSans-101"/>
      <path d="M 45.40625 27.984375 
Q 45.40625 37.75 41.375 43.109375 
Q 37.359375 48.484375 30.078125 48.484375 
Q 22.859375 48.484375 18.828125 43.109375 
Q 14.796875 37.75 14.796875 27.984375 
Q 14.796875 18.265625 18.828125 12.890625 
Q 22.859375 7.515625 30.078125 7.515625 
Q 37.359375 7.515625 41.375 12.890625 
Q 45.40625 18.265625 45.40625 27.984375 
z
M 54.390625 6.78125 
Q 54.390625 -7.171875 48.1875 -13.984375 
Q 42 -20.796875 29.203125 -20.796875 
Q 24.46875 -20.796875 20.265625 -20.09375 
Q 16.0625 -19.390625 12.109375 -17.921875 
L 12.109375 -9.1875 
Q 16.0625 -11.328125 19.921875 -12.34375 
Q 23.78125 -13.375 27.78125 -13.375 
Q 36.625 -13.375 41.015625 -8.765625 
Q 45.40625 -4.15625 45.40625 5.171875 
L 45.40625 9.625 
Q 42.625 4.78125 38.28125 2.390625 
Q 33.9375 0 27.875 0 
Q 17.828125 0 11.671875 7.65625 
Q 5.515625 15.328125 5.515625 27.984375 
Q 5.515625 40.671875 11.671875 48.328125 
Q 17.828125 56 27.875 56 
Q 33.9375 56 38.28125 53.609375 
Q 42.625 51.21875 45.40625 46.390625 
L 45.40625 54.6875 
L 54.390625 54.6875 
z
" id="DejaVuSans-103"/>
      <path d="M 30.609375 48.390625 
Q 23.390625 48.390625 19.1875 42.75 
Q 14.984375 37.109375 14.984375 27.296875 
Q 14.984375 17.484375 19.15625 11.84375 
Q 23.34375 6.203125 30.609375 6.203125 
Q 37.796875 6.203125 41.984375 11.859375 
Q 46.1875 17.53125 46.1875 27.296875 
Q 46.1875 37.015625 41.984375 42.703125 
Q 37.796875 48.390625 30.609375 48.390625 
z
M 30.609375 56 
Q 42.328125 56 49.015625 48.375 
Q 55.71875 40.765625 55.71875 27.296875 
Q 55.71875 13.875 49.015625 6.21875 
Q 42.328125 -1.421875 30.609375 -1.421875 
Q 18.84375 -1.421875 12.171875 6.21875 
Q 5.515625 13.875 5.515625 27.296875 
Q 5.515625 40.765625 12.171875 48.375 
Q 18.84375 56 30.609375 56 
z
" id="DejaVuSans-111"/>
      <path d="M 41.109375 46.296875 
Q 39.59375 47.171875 37.8125 47.578125 
Q 36.03125 48 33.890625 48 
Q 26.265625 48 22.1875 43.046875 
Q 18.109375 38.09375 18.109375 28.8125 
L 18.109375 0 
L 9.078125 0 
L 9.078125 54.6875 
L 18.109375 54.6875 
L 18.109375 46.1875 
Q 20.953125 51.171875 25.484375 53.578125 
Q 30.03125 56 36.53125 56 
Q 37.453125 56 38.578125 55.875 
Q 39.703125 55.765625 41.0625 55.515625 
z
" id="DejaVuSans-114"/>
      <path d="M 32.171875 -5.078125 
Q 28.375 -14.84375 24.75 -17.8125 
Q 21.140625 -20.796875 15.09375 -20.796875 
L 7.90625 -20.796875 
L 7.90625 -13.28125 
L 13.1875 -13.28125 
Q 16.890625 -13.28125 18.9375 -11.515625 
Q 21 -9.765625 23.484375 -3.21875 
L 25.09375 0.875 
L 2.984375 54.6875 
L 12.5 54.6875 
L 29.59375 11.921875 
L 46.6875 54.6875 
L 56.203125 54.6875 
z
" id="DejaVuSans-121"/>
      <path d="M 37.109375 75.984375 
L 37.109375 68.5 
L 28.515625 68.5 
Q 23.6875 68.5 21.796875 66.546875 
Q 19.921875 64.59375 19.921875 59.515625 
L 19.921875 54.6875 
L 34.71875 54.6875 
L 34.71875 47.703125 
L 19.921875 47.703125 
L 19.921875 0 
L 10.890625 0 
L 10.890625 47.703125 
L 2.296875 47.703125 
L 2.296875 54.6875 
L 10.890625 54.6875 
L 10.890625 58.5 
Q 10.890625 67.625 15.140625 71.796875 
Q 19.390625 75.984375 28.609375 75.984375 
z
" id="DejaVuSans-102"/>
      <path d="M 53.515625 70.515625 
L 53.515625 60.890625 
Q 47.90625 63.578125 42.921875 64.890625 
Q 37.9375 66.21875 33.296875 66.21875 
Q 25.25 66.21875 20.875 63.09375 
Q 16.5 59.96875 16.5 54.203125 
Q 16.5 49.359375 19.40625 46.890625 
Q 22.3125 44.4375 30.421875 42.921875 
L 36.375 41.703125 
Q 47.40625 39.59375 52.65625 34.296875 
Q 57.90625 29 57.90625 20.125 
Q 57.90625 9.515625 50.796875 4.046875 
Q 43.703125 -1.421875 29.984375 -1.421875 
Q 24.8125 -1.421875 18.96875 -0.25 
Q 13.140625 0.921875 6.890625 3.21875 
L 6.890625 13.375 
Q 12.890625 10.015625 18.65625 8.296875 
Q 24.421875 6.59375 29.984375 6.59375 
Q 38.421875 6.59375 43.015625 9.90625 
Q 47.609375 13.234375 47.609375 19.390625 
Q 47.609375 24.75 44.3125 27.78125 
Q 41.015625 30.8125 33.5 32.328125 
L 27.484375 33.5 
Q 16.453125 35.6875 11.515625 40.375 
Q 6.59375 45.0625 6.59375 53.421875 
Q 6.59375 63.09375 13.40625 68.65625 
Q 20.21875 74.21875 32.171875 74.21875 
Q 37.3125 74.21875 42.625 73.28125 
Q 47.953125 72.359375 53.515625 70.515625 
z
" id="DejaVuSans-83"/>
      <path d="M 9.421875 54.6875 
L 18.40625 54.6875 
L 18.40625 0 
L 9.421875 0 
z
M 9.421875 75.984375 
L 18.40625 75.984375 
L 18.40625 64.59375 
L 9.421875 64.59375 
z
" id="DejaVuSans-105"/>
      <path d="M 54.890625 33.015625 
L 54.890625 0 
L 45.90625 0 
L 45.90625 32.71875 
Q 45.90625 40.484375 42.875 44.328125 
Q 39.84375 48.1875 33.796875 48.1875 
Q 26.515625 48.1875 22.3125 43.546875 
Q 18.109375 38.921875 18.109375 30.90625 
L 18.109375 0 
L 9.078125 0 
L 9.078125 54.6875 
L 18.109375 54.6875 
L 18.109375 46.1875 
Q 21.34375 51.125 25.703125 53.5625 
Q 30.078125 56 35.796875 56 
Q 45.21875 56 50.046875 50.171875 
Q 54.890625 44.34375 54.890625 33.015625 
z
" id="DejaVuSans-110"/>
      <path d="M 48.78125 52.59375 
L 48.78125 44.1875 
Q 44.96875 46.296875 41.140625 47.34375 
Q 37.3125 48.390625 33.40625 48.390625 
Q 24.65625 48.390625 19.8125 42.84375 
Q 14.984375 37.3125 14.984375 27.296875 
Q 14.984375 17.28125 19.8125 11.734375 
Q 24.65625 6.203125 33.40625 6.203125 
Q 37.3125 6.203125 41.140625 7.25 
Q 44.96875 8.296875 48.78125 10.40625 
L 48.78125 2.09375 
Q 45.015625 0.34375 40.984375 -0.53125 
Q 36.96875 -1.421875 32.421875 -1.421875 
Q 20.0625 -1.421875 12.78125 6.34375 
Q 5.515625 14.109375 5.515625 27.296875 
Q 5.515625 40.671875 12.859375 48.328125 
Q 20.21875 56 33.015625 56 
Q 37.15625 56 41.109375 55.140625 
Q 45.0625 54.296875 48.78125 52.59375 
z
" id="DejaVuSans-99"/>
      <path d="M 9.421875 75.984375 
L 18.40625 75.984375 
L 18.40625 0 
L 9.421875 0 
z
" id="DejaVuSans-108"/>
     </defs>
     <g transform="translate(120.026109 47.967188)scale(0.18 -0.18)">
      <use xlink:href="#DejaVuSans-67"/>
      <use x="69.824219" xlink:href="#DejaVuSans-97"/>
      <use x="131.103516" xlink:href="#DejaVuSans-116"/>
      <use x="170.3125" xlink:href="#DejaVuSans-101"/>
      <use x="231.835938" xlink:href="#DejaVuSans-103"/>
      <use x="295.3125" xlink:href="#DejaVuSans-111"/>
      <use x="356.494141" xlink:href="#DejaVuSans-114"/>
      <use x="397.607422" xlink:href="#DejaVuSans-121"/>
      <use x="456.787109" xlink:href="#DejaVuSans-32"/>
      <use x="488.574219" xlink:href="#DejaVuSans-111"/>
      <use x="549.755859" xlink:href="#DejaVuSans-102"/>
      <use x="584.960938" xlink:href="#DejaVuSans-32"/>
      <use x="616.748047" xlink:href="#DejaVuSans-83"/>
      <use x="680.224609" xlink:href="#DejaVuSans-105"/>
      <use x="708.007812" xlink:href="#DejaVuSans-103"/>
      <use x="771.484375" xlink:href="#DejaVuSans-110"/>
      <use x="834.863281" xlink:href="#DejaVuSans-105"/>
      <use x="862.646484" xlink:href="#DejaVuSans-102"/>
      <use x="897.851562" xlink:href="#DejaVuSans-105"/>
      <use x="925.634766" xlink:href="#DejaVuSans-99"/>
      <use x="980.615234" xlink:href="#DejaVuSans-97"/>
      <use x="1041.894531" xlink:href="#DejaVuSans-110"/>
      <use x="1105.273438" xlink:href="#DejaVuSans-116"/>
      <use x="1144.482422" xlink:href="#DejaVuSans-108"/>
      <use x="1172.265625" xlink:href="#DejaVuSans-121"/>
     </g>
     <!-- Divergent Estimates -->
     <defs>
      <path d="M 19.671875 64.796875 
L 19.671875 8.109375 
L 31.59375 8.109375 
Q 46.6875 8.109375 53.6875 14.9375 
Q 60.6875 21.78125 60.6875 36.53125 
Q 60.6875 51.171875 53.6875 57.984375 
Q 46.6875 64.796875 31.59375 64.796875 
z
M 9.8125 72.90625 
L 30.078125 72.90625 
Q 51.265625 72.90625 61.171875 64.09375 
Q 71.09375 55.28125 71.09375 36.53125 
Q 71.09375 17.671875 61.125 8.828125 
Q 51.171875 0 30.078125 0 
L 9.8125 0 
z
" id="DejaVuSans-68"/>
      <path d="M 2.984375 54.6875 
L 12.5 54.6875 
L 29.59375 8.796875 
L 46.6875 54.6875 
L 56.203125 54.6875 
L 35.6875 0 
L 23.484375 0 
z
" id="DejaVuSans-118"/>
      <path d="M 9.8125 72.90625 
L 55.90625 72.90625 
L 55.90625 64.59375 
L 19.671875 64.59375 
L 19.671875 43.015625 
L 54.390625 43.015625 
L 54.390625 34.71875 
L 19.671875 34.71875 
L 19.671875 8.296875 
L 56.78125 8.296875 
L 56.78125 0 
L 9.8125 0 
z
" id="DejaVuSans-69"/>
      <path d="M 44.28125 53.078125 
L 44.28125 44.578125 
Q 40.484375 46.53125 36.375 47.5 
Q 32.28125 48.484375 27.875 48.484375 
Q 21.1875 48.484375 17.84375 46.4375 
Q 14.5 44.390625 14.5 40.28125 
Q 14.5 37.15625 16.890625 35.375 
Q 19.28125 33.59375 26.515625 31.984375 
L 29.59375 31.296875 
Q 39.15625 29.25 43.1875 25.515625 
Q 47.21875 21.78125 47.21875 15.09375 
Q 47.21875 7.46875 41.1875 3.015625 
Q 35.15625 -1.421875 24.609375 -1.421875 
Q 20.21875 -1.421875 15.453125 -0.5625 
Q 10.6875 0.296875 5.421875 2 
L 5.421875 11.28125 
Q 10.40625 8.6875 15.234375 7.390625 
Q 20.0625 6.109375 24.8125 6.109375 
Q 31.15625 6.109375 34.5625 8.28125 
Q 37.984375 10.453125 37.984375 14.40625 
Q 37.984375 18.0625 35.515625 20.015625 
Q 33.0625 21.96875 24.703125 23.78125 
L 21.578125 24.515625 
Q 13.234375 26.265625 9.515625 29.90625 
Q 5.8125 33.546875 5.8125 39.890625 
Q 5.8125 47.609375 11.28125 51.796875 
Q 16.75 56 26.8125 56 
Q 31.78125 56 36.171875 55.265625 
Q 40.578125 54.546875 44.28125 53.078125 
z
" id="DejaVuSans-115"/>
      <path d="M 52 44.1875 
Q 55.375 50.25 60.0625 53.125 
Q 64.75 56 71.09375 56 
Q 79.640625 56 84.28125 50.015625 
Q 88.921875 44.046875 88.921875 33.015625 
L 88.921875 0 
L 79.890625 0 
L 79.890625 32.71875 
Q 79.890625 40.578125 77.09375 44.375 
Q 74.3125 48.1875 68.609375 48.1875 
Q 61.625 48.1875 57.5625 43.546875 
Q 53.515625 38.921875 53.515625 30.90625 
L 53.515625 0 
L 44.484375 0 
L 44.484375 32.71875 
Q 44.484375 40.625 41.703125 44.40625 
Q 38.921875 48.1875 33.109375 48.1875 
Q 26.21875 48.1875 22.15625 43.53125 
Q 18.109375 38.875 18.109375 30.90625 
L 18.109375 0 
L 9.078125 0 
L 9.078125 54.6875 
L 18.109375 54.6875 
L 18.109375 46.1875 
Q 21.1875 51.21875 25.484375 53.609375 
Q 29.78125 56 35.6875 56 
Q 41.65625 56 45.828125 52.96875 
Q 50 49.953125 52 44.1875 
z
" id="DejaVuSans-109"/>
     </defs>
     <g transform="translate(120.026109 68.12325)scale(0.18 -0.18)">
      <use xlink:href="#DejaVuSans-68"/>
      <use x="77.001953" xlink:href="#DejaVuSans-105"/>
      <use x="104.785156" xlink:href="#DejaVuSans-118"/>
      <use x="163.964844" xlink:href="#DejaVuSans-101"/>
      <use x="225.488281" xlink:href="#DejaVuSans-114"/>
      <use x="264.851562" xlink:href="#DejaVuSans-103"/>
      <use x="328.328125" xlink:href="#DejaVuSans-101"/>
      <use x="389.851562" xlink:href="#DejaVuSans-110"/>
      <use x="453.230469" xlink:href="#DejaVuSans-116"/>
      <use x="492.439453" xlink:href="#DejaVuSans-32"/>
      <use x="524.226562" xlink:href="#DejaVuSans-69"/>
      <use x="587.410156" xlink:href="#DejaVuSans-115"/>
      <use x="639.509766" xlink:href="#DejaVuSans-116"/>
      <use x="678.71875" xlink:href="#DejaVuSans-105"/>
      <use x="706.501953" xlink:href="#DejaVuSans-109"/>
      <use x="803.914062" xlink:href="#DejaVuSans-97"/>
      <use x="865.193359" xlink:href="#DejaVuSans-116"/>
      <use x="904.402344" xlink:href="#DejaVuSans-101"/>
      <use x="965.925781" xlink:href="#DejaVuSans-115"/>
     </g>
    </g>
    <g id="LineCollection_9">
     <path d="M 120.744 86.879109 
L 137.244 86.879109 
" style="fill:none;stroke:#666666;stroke-width:2.25;"/>
    </g>
    <g id="LineCollection_10">
     <path d="M 128.994 95.129109 
L 128.994 78.629109 
" style="fill:none;stroke:#666666;stroke-width:2.25;"/>
    </g>
    <g id="line2d_22"/>
    <g id="line2d_23"/>
    <g id="text_20">
     <!-- MAF Bins -->
     <defs>
      <path d="M 9.8125 72.90625 
L 24.515625 72.90625 
L 43.109375 23.296875 
L 61.8125 72.90625 
L 76.515625 72.90625 
L 76.515625 0 
L 66.890625 0 
L 66.890625 64.015625 
L 48.09375 14.015625 
L 38.1875 14.015625 
L 19.390625 64.015625 
L 19.390625 0 
L 9.8125 0 
z
" id="DejaVuSans-77"/>
      <path d="M 34.1875 63.1875 
L 20.796875 26.90625 
L 47.609375 26.90625 
z
M 28.609375 72.90625 
L 39.796875 72.90625 
L 67.578125 0 
L 57.328125 0 
L 50.6875 18.703125 
L 17.828125 18.703125 
L 11.1875 0 
L 0.78125 0 
z
" id="DejaVuSans-65"/>
      <path d="M 9.8125 72.90625 
L 51.703125 72.90625 
L 51.703125 64.59375 
L 19.671875 64.59375 
L 19.671875 43.109375 
L 48.578125 43.109375 
L 48.578125 34.8125 
L 19.671875 34.8125 
L 19.671875 0 
L 9.8125 0 
z
" id="DejaVuSans-70"/>
      <path d="M 19.671875 34.8125 
L 19.671875 8.109375 
L 35.5 8.109375 
Q 43.453125 8.109375 47.28125 11.40625 
Q 51.125 14.703125 51.125 21.484375 
Q 51.125 28.328125 47.28125 31.5625 
Q 43.453125 34.8125 35.5 34.8125 
z
M 19.671875 64.796875 
L 19.671875 42.828125 
L 34.28125 42.828125 
Q 41.5 42.828125 45.03125 45.53125 
Q 48.578125 48.25 48.578125 53.8125 
Q 48.578125 59.328125 45.03125 62.0625 
Q 41.5 64.796875 34.28125 64.796875 
z
M 9.8125 72.90625 
L 35.015625 72.90625 
Q 46.296875 72.90625 52.390625 68.21875 
Q 58.5 63.53125 58.5 54.890625 
Q 58.5 48.1875 55.375 44.234375 
Q 52.25 40.28125 46.1875 39.3125 
Q 53.46875 37.75 57.5 32.78125 
Q 61.53125 27.828125 61.53125 20.40625 
Q 61.53125 10.640625 54.890625 5.3125 
Q 48.25 0 35.984375 0 
L 9.8125 0 
z
" id="DejaVuSans-66"/>
     </defs>
     <g transform="translate(158.694 92.654109)scale(0.165 -0.165)">
      <use xlink:href="#DejaVuSans-77"/>
      <use x="86.279297" xlink:href="#DejaVuSans-65"/>
      <use x="154.6875" xlink:href="#DejaVuSans-70"/>
      <use x="212.207031" xlink:href="#DejaVuSans-32"/>
      <use x="243.994141" xlink:href="#DejaVuSans-66"/>
      <use x="312.597656" xlink:href="#DejaVuSans-105"/>
      <use x="340.380859" xlink:href="#DejaVuSans-110"/>
      <use x="403.759766" xlink:href="#DejaVuSans-115"/>
     </g>
    </g>
    <g id="LineCollection_11">
     <path d="M 120.744 111.098016 
L 137.244 111.098016 
" style="fill:none;stroke:#e7298a;stroke-width:2.25;"/>
    </g>
    <g id="LineCollection_12">
     <path d="M 128.994 119.348016 
L 128.994 102.848016 
" style="fill:none;stroke:#e7298a;stroke-width:2.25;"/>
    </g>
    <g id="line2d_24"/>
    <g id="line2d_25"/>
    <g id="text_21">
     <!-- LD-related Annotations -->
     <defs>
      <path d="M 9.8125 72.90625 
L 19.671875 72.90625 
L 19.671875 8.296875 
L 55.171875 8.296875 
L 55.171875 0 
L 9.8125 0 
z
" id="DejaVuSans-76"/>
      <path d="M 45.40625 46.390625 
L 45.40625 75.984375 
L 54.390625 75.984375 
L 54.390625 0 
L 45.40625 0 
L 45.40625 8.203125 
Q 42.578125 3.328125 38.25 0.953125 
Q 33.9375 -1.421875 27.875 -1.421875 
Q 17.96875 -1.421875 11.734375 6.484375 
Q 5.515625 14.40625 5.515625 27.296875 
Q 5.515625 40.1875 11.734375 48.09375 
Q 17.96875 56 27.875 56 
Q 33.9375 56 38.25 53.625 
Q 42.578125 51.265625 45.40625 46.390625 
z
M 14.796875 27.296875 
Q 14.796875 17.390625 18.875 11.75 
Q 22.953125 6.109375 30.078125 6.109375 
Q 37.203125 6.109375 41.296875 11.75 
Q 45.40625 17.390625 45.40625 27.296875 
Q 45.40625 37.203125 41.296875 42.84375 
Q 37.203125 48.484375 30.078125 48.484375 
Q 22.953125 48.484375 18.875 42.84375 
Q 14.796875 37.203125 14.796875 27.296875 
z
" id="DejaVuSans-100"/>
     </defs>
     <g transform="translate(158.694 116.873016)scale(0.165 -0.165)">
      <use xlink:href="#DejaVuSans-76"/>
      <use x="55.712891" xlink:href="#DejaVuSans-68"/>
      <use x="132.714844" xlink:href="#DejaVuSans-45"/>
      <use x="168.798828" xlink:href="#DejaVuSans-114"/>
      <use x="207.662109" xlink:href="#DejaVuSans-101"/>
      <use x="269.185547" xlink:href="#DejaVuSans-108"/>
      <use x="296.96875" xlink:href="#DejaVuSans-97"/>
      <use x="358.248047" xlink:href="#DejaVuSans-116"/>
      <use x="397.457031" xlink:href="#DejaVuSans-101"/>
      <use x="458.980469" xlink:href="#DejaVuSans-100"/>
      <use x="522.457031" xlink:href="#DejaVuSans-32"/>
      <use x="554.244141" xlink:href="#DejaVuSans-65"/>
      <use x="622.652344" xlink:href="#DejaVuSans-110"/>
      <use x="686.03125" xlink:href="#DejaVuSans-110"/>
      <use x="749.410156" xlink:href="#DejaVuSans-111"/>
      <use x="810.591797" xlink:href="#DejaVuSans-116"/>
      <use x="849.800781" xlink:href="#DejaVuSans-97"/>
      <use x="911.080078" xlink:href="#DejaVuSans-116"/>
      <use x="950.289062" xlink:href="#DejaVuSans-105"/>
      <use x="978.072266" xlink:href="#DejaVuSans-111"/>
      <use x="1039.253906" xlink:href="#DejaVuSans-110"/>
      <use x="1102.632812" xlink:href="#DejaVuSans-115"/>
     </g>
    </g>
    <g id="LineCollection_13">
     <path d="M 120.744 135.316922 
L 137.244 135.316922 
" style="fill:none;stroke:#a6761d;stroke-width:2.25;"/>
    </g>
    <g id="LineCollection_14">
     <path d="M 128.994 143.566922 
L 128.994 127.066922 
" style="fill:none;stroke:#a6761d;stroke-width:2.25;"/>
    </g>
    <g id="line2d_26"/>
    <g id="line2d_27"/>
    <g id="text_22">
     <!-- Functional Annotations -->
     <defs>
      <path d="M 8.5 21.578125 
L 8.5 54.6875 
L 17.484375 54.6875 
L 17.484375 21.921875 
Q 17.484375 14.15625 20.5 10.265625 
Q 23.53125 6.390625 29.59375 6.390625 
Q 36.859375 6.390625 41.078125 11.03125 
Q 45.3125 15.671875 45.3125 23.6875 
L 45.3125 54.6875 
L 54.296875 54.6875 
L 54.296875 0 
L 45.3125 0 
L 45.3125 8.40625 
Q 42.046875 3.421875 37.71875 1 
Q 33.40625 -1.421875 27.6875 -1.421875 
Q 18.265625 -1.421875 13.375 4.4375 
Q 8.5 10.296875 8.5 21.578125 
z
M 31.109375 56 
z
" id="DejaVuSans-117"/>
     </defs>
     <g transform="translate(158.694 141.091922)scale(0.165 -0.165)">
      <use xlink:href="#DejaVuSans-70"/>
      <use x="52.019531" xlink:href="#DejaVuSans-117"/>
      <use x="115.398438" xlink:href="#DejaVuSans-110"/>
      <use x="178.777344" xlink:href="#DejaVuSans-99"/>
      <use x="233.757812" xlink:href="#DejaVuSans-116"/>
      <use x="272.966797" xlink:href="#DejaVuSans-105"/>
      <use x="300.75" xlink:href="#DejaVuSans-111"/>
      <use x="361.931641" xlink:href="#DejaVuSans-110"/>
      <use x="425.310547" xlink:href="#DejaVuSans-97"/>
      <use x="486.589844" xlink:href="#DejaVuSans-108"/>
      <use x="514.373047" xlink:href="#DejaVuSans-32"/>
      <use x="546.160156" xlink:href="#DejaVuSans-65"/>
      <use x="614.568359" xlink:href="#DejaVuSans-110"/>
      <use x="677.947266" xlink:href="#DejaVuSans-110"/>
      <use x="741.326172" xlink:href="#DejaVuSans-111"/>
      <use x="802.507812" xlink:href="#DejaVuSans-116"/>
      <use x="841.716797" xlink:href="#DejaVuSans-97"/>
      <use x="902.996094" xlink:href="#DejaVuSans-116"/>
      <use x="942.205078" xlink:href="#DejaVuSans-105"/>
      <use x="969.988281" xlink:href="#DejaVuSans-111"/>
      <use x="1031.169922" xlink:href="#DejaVuSans-110"/>
      <use x="1094.548828" xlink:href="#DejaVuSans-115"/>
     </g>
    </g>
   </g>
  </g>
 </g>
 <defs>
  <clipPath id="p1c5d849029">
   <rect height="482.316" width="598.923108" x="97.644" y="19.44"/>
  </clipPath>
 </defs>
</svg>
