<?xml version="1.0" encoding="utf-8" standalone="no"?>
<!DOCTYPE svg PUBLIC "-//W3C//DTD SVG 1.1//EN"
  "http://www.w3.org/Graphics/SVG/1.1/DTD/svg11.dtd">
<!-- Created with matplotlib (https://matplotlib.org/) -->
<svg height="576pt" version="1.1" viewBox="0 0 1080 576" width="1080pt" xmlns="http://www.w3.org/2000/svg" xmlns:xlink="http://www.w3.org/1999/xlink">
 <defs>
  <style type="text/css">
*{stroke-linecap:butt;stroke-linejoin:round;}
  </style>
 </defs>
 <g id="figure_1">
  <g id="patch_1">
   <path d="M 0 576 
L 1080 576 
L 1080 0 
L 0 0 
z
" style="fill:#ffffff;"/>
  </g>
  <g id="axes_1">
   <g id="patch_2">
    <path d="M 99.174 296.29 
L 833.975041 296.29 
L 833.975041 19.44 
L 99.174 19.44 
z
" style="fill:#ffffff;"/>
   </g>
   <g id="patch_3">
    <path clip-path="url(#pce8c6c7a84)" d="M 132.574047 183.374785 
L 148.866753 183.374785 
L 148.866753 239.618786 
L 132.574047 239.618786 
z
" style="fill:#e15759;"/>
   </g>
   <g id="patch_4">
    <path clip-path="url(#pce8c6c7a84)" d="M 230.330283 183.374785 
L 246.622989 183.374785 
L 246.622989 237.219236 
L 230.330283 237.219236 
z
" style="fill:#e15759;"/>
   </g>
   <g id="patch_5">
    <path clip-path="url(#pce8c6c7a84)" d="M 328.086519 183.374785 
L 344.379225 183.374785 
L 344.379225 276.968175 
L 328.086519 276.968175 
z
" style="fill:#e15759;"/>
   </g>
   <g id="patch_6">
    <path clip-path="url(#pce8c6c7a84)" d="M 425.842756 183.374785 
L 442.135462 183.374785 
L 442.135462 257.706233 
L 425.842756 257.706233 
z
" style="fill:#e15759;"/>
   </g>
   <g id="patch_7">
    <path clip-path="url(#pce8c6c7a84)" d="M 523.598992 183.374785 
L 539.891698 183.374785 
L 539.891698 136.073264 
L 523.598992 136.073264 
z
" style="fill:#e15759;"/>
   </g>
   <g id="patch_8">
    <path clip-path="url(#pce8c6c7a84)" d="M 621.355228 183.374785 
L 637.647934 183.374785 
L 637.647934 48.193536 
L 621.355228 48.193536 
z
" style="fill:#e15759;"/>
   </g>
   <g id="patch_9">
    <path clip-path="url(#pce8c6c7a84)" d="M 719.111464 183.374785 
L 735.40417 183.374785 
L 735.40417 232.676455 
L 719.111464 232.676455 
z
" style="fill:#e15759;"/>
   </g>
   <g id="patch_10">
    <path clip-path="url(#pce8c6c7a84)" d="M 148.866753 183.374785 
L 165.159459 183.374785 
L 165.159459 240.188108 
L 148.866753 240.188108 
z
" style="fill:#c66f6f;"/>
   </g>
   <g id="patch_11">
    <path clip-path="url(#pce8c6c7a84)" d="M 246.622989 183.374785 
L 262.915695 183.374785 
L 262.915695 238.585106 
L 246.622989 238.585106 
z
" style="fill:#c66f6f;"/>
   </g>
   <g id="patch_12">
    <path clip-path="url(#pce8c6c7a84)" d="M 344.379225 183.374785 
L 360.671931 183.374785 
L 360.671931 269.92906 
L 344.379225 269.92906 
z
" style="fill:#c66f6f;"/>
   </g>
   <g id="patch_13">
    <path clip-path="url(#pce8c6c7a84)" d="M 442.135462 183.374785 
L 458.428168 183.374785 
L 458.428168 243.242224 
L 442.135462 243.242224 
z
" style="fill:#c66f6f;"/>
   </g>
   <g id="patch_14">
    <path clip-path="url(#pce8c6c7a84)" d="M 539.891698 183.374785 
L 556.184404 183.374785 
L 556.184404 142.808201 
L 539.891698 142.808201 
z
" style="fill:#c66f6f;"/>
   </g>
   <g id="patch_15">
    <path clip-path="url(#pce8c6c7a84)" d="M 637.647934 183.374785 
L 653.94064 183.374785 
L 653.94064 68.369498 
L 637.647934 68.369498 
z
" style="fill:#c66f6f;"/>
   </g>
   <g id="patch_16">
    <path clip-path="url(#pce8c6c7a84)" d="M 735.40417 183.374785 
L 751.696876 183.374785 
L 751.696876 235.820811 
L 735.40417 235.820811 
z
" style="fill:#c66f6f;"/>
   </g>
   <g id="patch_17">
    <path clip-path="url(#pce8c6c7a84)" d="M 165.159459 183.374785 
L 181.452165 183.374785 
L 181.452165 238.386629 
L 165.159459 238.386629 
z
" style="fill:#ac8786;"/>
   </g>
   <g id="patch_18">
    <path clip-path="url(#pce8c6c7a84)" d="M 262.915695 183.374785 
L 279.208401 183.374785 
L 279.208401 241.849879 
L 262.915695 241.849879 
z
" style="fill:#ac8786;"/>
   </g>
   <g id="patch_19">
    <path clip-path="url(#pce8c6c7a84)" d="M 360.671931 183.374785 
L 376.964637 183.374785 
L 376.964637 265.707674 
L 360.671931 265.707674 
z
" style="fill:#ac8786;"/>
   </g>
   <g id="patch_20">
    <path clip-path="url(#pce8c6c7a84)" d="M 458.428168 183.374785 
L 474.720874 183.374785 
L 474.720874 227.914757 
L 458.428168 227.914757 
z
" style="fill:#ac8786;"/>
   </g>
   <g id="patch_21">
    <path clip-path="url(#pce8c6c7a84)" d="M 556.184404 183.374785 
L 572.47711 183.374785 
L 572.47711 147.910012 
L 556.184404 147.910012 
z
" style="fill:#ac8786;"/>
   </g>
   <g id="patch_22">
    <path clip-path="url(#pce8c6c7a84)" d="M 653.94064 183.374785 
L 670.233346 183.374785 
L 670.233346 86.459687 
L 653.94064 86.459687 
z
" style="fill:#ac8786;"/>
   </g>
   <g id="patch_23">
    <path clip-path="url(#pce8c6c7a84)" d="M 751.696876 183.374785 
L 767.989582 183.374785 
L 767.989582 243.923129 
L 751.696876 243.923129 
z
" style="fill:#ac8786;"/>
   </g>
   <g id="patch_24">
    <path clip-path="url(#pce8c6c7a84)" d="M 181.452165 183.374785 
L 197.744871 183.374785 
L 197.744871 235.234365 
L 181.452165 235.234365 
z
" style="fill:#919f9c;"/>
   </g>
   <g id="patch_25">
    <path clip-path="url(#pce8c6c7a84)" d="M 279.208401 183.374785 
L 295.501107 183.374785 
L 295.501107 246.92808 
L 279.208401 246.92808 
z
" style="fill:#919f9c;"/>
   </g>
   <g id="patch_26">
    <path clip-path="url(#pce8c6c7a84)" d="M 376.964637 183.374785 
L 393.257344 183.374785 
L 393.257344 264.883243 
L 376.964637 264.883243 
z
" style="fill:#919f9c;"/>
   </g>
   <g id="patch_27">
    <path clip-path="url(#pce8c6c7a84)" d="M 474.720874 183.374785 
L 491.01358 183.374785 
L 491.01358 214.43078 
L 474.720874 214.43078 
z
" style="fill:#919f9c;"/>
   </g>
   <g id="patch_28">
    <path clip-path="url(#pce8c6c7a84)" d="M 572.47711 183.374785 
L 588.769816 183.374785 
L 588.769816 151.477815 
L 572.47711 151.477815 
z
" style="fill:#919f9c;"/>
   </g>
   <g id="patch_29">
    <path clip-path="url(#pce8c6c7a84)" d="M 670.233346 183.374785 
L 686.526052 183.374785 
L 686.526052 101.233014 
L 670.233346 101.233014 
z
" style="fill:#919f9c;"/>
   </g>
   <g id="patch_30">
    <path clip-path="url(#pce8c6c7a84)" d="M 767.989582 183.374785 
L 784.282288 183.374785 
L 784.282288 255.862312 
L 767.989582 255.862312 
z
" style="fill:#919f9c;"/>
   </g>
   <g id="patch_31">
    <path clip-path="url(#pce8c6c7a84)" d="M 197.744871 183.374785 
L 214.037577 183.374785 
L 214.037577 232.471232 
L 197.744871 232.471232 
z
" style="fill:#76b7b2;"/>
   </g>
   <g id="patch_32">
    <path clip-path="url(#pce8c6c7a84)" d="M 295.501107 183.374785 
L 311.793813 183.374785 
L 311.793813 253.504067 
L 295.501107 253.504067 
z
" style="fill:#76b7b2;"/>
   </g>
   <g id="patch_33">
    <path clip-path="url(#pce8c6c7a84)" d="M 393.257344 183.374785 
L 409.55005 183.374785 
L 409.55005 267.586444 
L 393.257344 267.586444 
z
" style="fill:#76b7b2;"/>
   </g>
   <g id="patch_34">
    <path clip-path="url(#pce8c6c7a84)" d="M 491.01358 183.374785 
L 507.306286 183.374785 
L 507.306286 203.873002 
L 491.01358 203.873002 
z
" style="fill:#76b7b2;"/>
   </g>
   <g id="patch_35">
    <path clip-path="url(#pce8c6c7a84)" d="M 588.769816 183.374785 
L 605.062522 183.374785 
L 605.062522 153.514231 
L 588.769816 153.514231 
z
" style="fill:#76b7b2;"/>
   </g>
   <g id="patch_36">
    <path clip-path="url(#pce8c6c7a84)" d="M 686.526052 183.374785 
L 702.818758 183.374785 
L 702.818758 110.539874 
L 686.526052 110.539874 
z
" style="fill:#76b7b2;"/>
   </g>
   <g id="patch_37">
    <path clip-path="url(#pce8c6c7a84)" d="M 784.282288 183.374785 
L 800.574994 183.374785 
L 800.574994 270.582188 
L 784.282288 270.582188 
z
" style="fill:#76b7b2;"/>
   </g>
   <g id="matplotlib.axis_1">
    <g id="xtick_1">
     <g id="line2d_1">
      <defs>
       <path d="M 0 0 
L 0 9 
" id="m083879c7b7" style="stroke:#000000;stroke-width:1.875;"/>
      </defs>
      <g>
       <use style="stroke:#000000;stroke-width:1.875;" x="173.305812" xlink:href="#m083879c7b7" y="296.29"/>
      </g>
     </g>
     <g id="text_1">
      <!-- MAF_Adj_Predicted_Allele_Age -->
      <defs>
       <path d="M 9.8125 72.90625 
L 24.515625 72.90625 
L 43.109375 23.296875 
L 61.8125 72.90625 
L 76.515625 72.90625 
L 76.515625 0 
L 66.890625 0 
L 66.890625 64.015625 
L 48.09375 14.015625 
L 38.1875 14.015625 
L 19.390625 64.015625 
L 19.390625 0 
L 9.8125 0 
z
" id="DejaVuSans-77"/>
       <path d="M 34.1875 63.1875 
L 20.796875 26.90625 
L 47.609375 26.90625 
z
M 28.609375 72.90625 
L 39.796875 72.90625 
L 67.578125 0 
L 57.328125 0 
L 50.6875 18.703125 
L 17.828125 18.703125 
L 11.1875 0 
L 0.78125 0 
z
" id="DejaVuSans-65"/>
       <path d="M 9.8125 72.90625 
L 51.703125 72.90625 
L 51.703125 64.59375 
L 19.671875 64.59375 
L 19.671875 43.109375 
L 48.578125 43.109375 
L 48.578125 34.8125 
L 19.671875 34.8125 
L 19.671875 0 
L 9.8125 0 
z
" id="DejaVuSans-70"/>
       <path d="M 50.984375 -16.609375 
L 50.984375 -23.578125 
L -0.984375 -23.578125 
L -0.984375 -16.609375 
z
" id="DejaVuSans-95"/>
       <path d="M 45.40625 46.390625 
L 45.40625 75.984375 
L 54.390625 75.984375 
L 54.390625 0 
L 45.40625 0 
L 45.40625 8.203125 
Q 42.578125 3.328125 38.25 0.953125 
Q 33.9375 -1.421875 27.875 -1.421875 
Q 17.96875 -1.421875 11.734375 6.484375 
Q 5.515625 14.40625 5.515625 27.296875 
Q 5.515625 40.1875 11.734375 48.09375 
Q 17.96875 56 27.875 56 
Q 33.9375 56 38.25 53.625 
Q 42.578125 51.265625 45.40625 46.390625 
z
M 14.796875 27.296875 
Q 14.796875 17.390625 18.875 11.75 
Q 22.953125 6.109375 30.078125 6.109375 
Q 37.203125 6.109375 41.296875 11.75 
Q 45.40625 17.390625 45.40625 27.296875 
Q 45.40625 37.203125 41.296875 42.84375 
Q 37.203125 48.484375 30.078125 48.484375 
Q 22.953125 48.484375 18.875 42.84375 
Q 14.796875 37.203125 14.796875 27.296875 
z
" id="DejaVuSans-100"/>
       <path d="M 9.421875 54.6875 
L 18.40625 54.6875 
L 18.40625 -0.984375 
Q 18.40625 -11.421875 14.421875 -16.109375 
Q 10.453125 -20.796875 1.609375 -20.796875 
L -1.8125 -20.796875 
L -1.8125 -13.1875 
L 0.59375 -13.1875 
Q 5.71875 -13.1875 7.5625 -10.8125 
Q 9.421875 -8.453125 9.421875 -0.984375 
z
M 9.421875 75.984375 
L 18.40625 75.984375 
L 18.40625 64.59375 
L 9.421875 64.59375 
z
" id="DejaVuSans-106"/>
       <path d="M 19.671875 64.796875 
L 19.671875 37.40625 
L 32.078125 37.40625 
Q 38.96875 37.40625 42.71875 40.96875 
Q 46.484375 44.53125 46.484375 51.125 
Q 46.484375 57.671875 42.71875 61.234375 
Q 38.96875 64.796875 32.078125 64.796875 
z
M 9.8125 72.90625 
L 32.078125 72.90625 
Q 44.34375 72.90625 50.609375 67.359375 
Q 56.890625 61.8125 56.890625 51.125 
Q 56.890625 40.328125 50.609375 34.8125 
Q 44.34375 29.296875 32.078125 29.296875 
L 19.671875 29.296875 
L 19.671875 0 
L 9.8125 0 
z
" id="DejaVuSans-80"/>
       <path d="M 41.109375 46.296875 
Q 39.59375 47.171875 37.8125 47.578125 
Q 36.03125 48 33.890625 48 
Q 26.265625 48 22.1875 43.046875 
Q 18.109375 38.09375 18.109375 28.8125 
L 18.109375 0 
L 9.078125 0 
L 9.078125 54.6875 
L 18.109375 54.6875 
L 18.109375 46.1875 
Q 20.953125 51.171875 25.484375 53.578125 
Q 30.03125 56 36.53125 56 
Q 37.453125 56 38.578125 55.875 
Q 39.703125 55.765625 41.0625 55.515625 
z
" id="DejaVuSans-114"/>
       <path d="M 56.203125 29.59375 
L 56.203125 25.203125 
L 14.890625 25.203125 
Q 15.484375 15.921875 20.484375 11.0625 
Q 25.484375 6.203125 34.421875 6.203125 
Q 39.59375 6.203125 44.453125 7.46875 
Q 49.3125 8.734375 54.109375 11.28125 
L 54.109375 2.78125 
Q 49.265625 0.734375 44.1875 -0.34375 
Q 39.109375 -1.421875 33.890625 -1.421875 
Q 20.796875 -1.421875 13.15625 6.1875 
Q 5.515625 13.8125 5.515625 26.8125 
Q 5.515625 40.234375 12.765625 48.109375 
Q 20.015625 56 32.328125 56 
Q 43.359375 56 49.78125 48.890625 
Q 56.203125 41.796875 56.203125 29.59375 
z
M 47.21875 32.234375 
Q 47.125 39.59375 43.09375 43.984375 
Q 39.0625 48.390625 32.421875 48.390625 
Q 24.90625 48.390625 20.390625 44.140625 
Q 15.875 39.890625 15.1875 32.171875 
z
" id="DejaVuSans-101"/>
       <path d="M 9.421875 54.6875 
L 18.40625 54.6875 
L 18.40625 0 
L 9.421875 0 
z
M 9.421875 75.984375 
L 18.40625 75.984375 
L 18.40625 64.59375 
L 9.421875 64.59375 
z
" id="DejaVuSans-105"/>
       <path d="M 48.78125 52.59375 
L 48.78125 44.1875 
Q 44.96875 46.296875 41.140625 47.34375 
Q 37.3125 48.390625 33.40625 48.390625 
Q 24.65625 48.390625 19.8125 42.84375 
Q 14.984375 37.3125 14.984375 27.296875 
Q 14.984375 17.28125 19.8125 11.734375 
Q 24.65625 6.203125 33.40625 6.203125 
Q 37.3125 6.203125 41.140625 7.25 
Q 44.96875 8.296875 48.78125 10.40625 
L 48.78125 2.09375 
Q 45.015625 0.34375 40.984375 -0.53125 
Q 36.96875 -1.421875 32.421875 -1.421875 
Q 20.0625 -1.421875 12.78125 6.34375 
Q 5.515625 14.109375 5.515625 27.296875 
Q 5.515625 40.671875 12.859375 48.328125 
Q 20.21875 56 33.015625 56 
Q 37.15625 56 41.109375 55.140625 
Q 45.0625 54.296875 48.78125 52.59375 
z
" id="DejaVuSans-99"/>
       <path d="M 18.3125 70.21875 
L 18.3125 54.6875 
L 36.8125 54.6875 
L 36.8125 47.703125 
L 18.3125 47.703125 
L 18.3125 18.015625 
Q 18.3125 11.328125 20.140625 9.421875 
Q 21.96875 7.515625 27.59375 7.515625 
L 36.8125 7.515625 
L 36.8125 0 
L 27.59375 0 
Q 17.1875 0 13.234375 3.875 
Q 9.28125 7.765625 9.28125 18.015625 
L 9.28125 47.703125 
L 2.6875 47.703125 
L 2.6875 54.6875 
L 9.28125 54.6875 
L 9.28125 70.21875 
z
" id="DejaVuSans-116"/>
       <path d="M 9.421875 75.984375 
L 18.40625 75.984375 
L 18.40625 0 
L 9.421875 0 
z
" id="DejaVuSans-108"/>
       <path d="M 45.40625 27.984375 
Q 45.40625 37.75 41.375 43.109375 
Q 37.359375 48.484375 30.078125 48.484375 
Q 22.859375 48.484375 18.828125 43.109375 
Q 14.796875 37.75 14.796875 27.984375 
Q 14.796875 18.265625 18.828125 12.890625 
Q 22.859375 7.515625 30.078125 7.515625 
Q 37.359375 7.515625 41.375 12.890625 
Q 45.40625 18.265625 45.40625 27.984375 
z
M 54.390625 6.78125 
Q 54.390625 -7.171875 48.1875 -13.984375 
Q 42 -20.796875 29.203125 -20.796875 
Q 24.46875 -20.796875 20.265625 -20.09375 
Q 16.0625 -19.390625 12.109375 -17.921875 
L 12.109375 -9.1875 
Q 16.0625 -11.328125 19.921875 -12.34375 
Q 23.78125 -13.375 27.78125 -13.375 
Q 36.625 -13.375 41.015625 -8.765625 
Q 45.40625 -4.15625 45.40625 5.171875 
L 45.40625 9.625 
Q 42.625 4.78125 38.28125 2.390625 
Q 33.9375 0 27.875 0 
Q 17.828125 0 11.671875 7.65625 
Q 5.515625 15.328125 5.515625 27.984375 
Q 5.515625 40.671875 11.671875 48.328125 
Q 17.828125 56 27.875 56 
Q 33.9375 56 38.28125 53.609375 
Q 42.625 51.21875 45.40625 46.390625 
L 45.40625 54.6875 
L 54.390625 54.6875 
z
" id="DejaVuSans-103"/>
      </defs>
      <g transform="translate(177.629328 557.571328)rotate(-90)scale(0.165 -0.165)">
       <use xlink:href="#DejaVuSans-77"/>
       <use x="86.279297" xlink:href="#DejaVuSans-65"/>
       <use x="154.6875" xlink:href="#DejaVuSans-70"/>
       <use x="212.207031" xlink:href="#DejaVuSans-95"/>
       <use x="262.207031" xlink:href="#DejaVuSans-65"/>
       <use x="328.865234" xlink:href="#DejaVuSans-100"/>
       <use x="392.341797" xlink:href="#DejaVuSans-106"/>
       <use x="420.125" xlink:href="#DejaVuSans-95"/>
       <use x="470.125" xlink:href="#DejaVuSans-80"/>
       <use x="528.677734" xlink:href="#DejaVuSans-114"/>
       <use x="567.541016" xlink:href="#DejaVuSans-101"/>
       <use x="629.064453" xlink:href="#DejaVuSans-100"/>
       <use x="692.541016" xlink:href="#DejaVuSans-105"/>
       <use x="720.324219" xlink:href="#DejaVuSans-99"/>
       <use x="775.304688" xlink:href="#DejaVuSans-116"/>
       <use x="814.513672" xlink:href="#DejaVuSans-101"/>
       <use x="876.037109" xlink:href="#DejaVuSans-100"/>
       <use x="939.513672" xlink:href="#DejaVuSans-95"/>
       <use x="989.513672" xlink:href="#DejaVuSans-65"/>
       <use x="1057.921875" xlink:href="#DejaVuSans-108"/>
       <use x="1085.705078" xlink:href="#DejaVuSans-108"/>
       <use x="1113.488281" xlink:href="#DejaVuSans-101"/>
       <use x="1175.011719" xlink:href="#DejaVuSans-108"/>
       <use x="1202.794922" xlink:href="#DejaVuSans-101"/>
       <use x="1264.318359" xlink:href="#DejaVuSans-95"/>
       <use x="1314.318359" xlink:href="#DejaVuSans-65"/>
       <use x="1382.726562" xlink:href="#DejaVuSans-103"/>
       <use x="1446.203125" xlink:href="#DejaVuSans-101"/>
      </g>
     </g>
    </g>
    <g id="xtick_2">
     <g id="line2d_2">
      <g>
       <use style="stroke:#000000;stroke-width:1.875;" x="271.062048" xlink:href="#m083879c7b7" y="296.29"/>
      </g>
     </g>
     <g id="text_2">
      <!-- MAF_Adj_LLD_AFR -->
      <defs>
       <path d="M 9.8125 72.90625 
L 19.671875 72.90625 
L 19.671875 8.296875 
L 55.171875 8.296875 
L 55.171875 0 
L 9.8125 0 
z
" id="DejaVuSans-76"/>
       <path d="M 19.671875 64.796875 
L 19.671875 8.109375 
L 31.59375 8.109375 
Q 46.6875 8.109375 53.6875 14.9375 
Q 60.6875 21.78125 60.6875 36.53125 
Q 60.6875 51.171875 53.6875 57.984375 
Q 46.6875 64.796875 31.59375 64.796875 
z
M 9.8125 72.90625 
L 30.078125 72.90625 
Q 51.265625 72.90625 61.171875 64.09375 
Q 71.09375 55.28125 71.09375 36.53125 
Q 71.09375 17.671875 61.125 8.828125 
Q 51.171875 0 30.078125 0 
L 9.8125 0 
z
" id="DejaVuSans-68"/>
       <path d="M 44.390625 34.1875 
Q 47.5625 33.109375 50.5625 29.59375 
Q 53.5625 26.078125 56.59375 19.921875 
L 66.609375 0 
L 56 0 
L 46.6875 18.703125 
Q 43.0625 26.03125 39.671875 28.421875 
Q 36.28125 30.8125 30.421875 30.8125 
L 19.671875 30.8125 
L 19.671875 0 
L 9.8125 0 
L 9.8125 72.90625 
L 32.078125 72.90625 
Q 44.578125 72.90625 50.734375 67.671875 
Q 56.890625 62.453125 56.890625 51.90625 
Q 56.890625 45.015625 53.6875 40.46875 
Q 50.484375 35.9375 44.390625 34.1875 
z
M 19.671875 64.796875 
L 19.671875 38.921875 
L 32.078125 38.921875 
Q 39.203125 38.921875 42.84375 42.21875 
Q 46.484375 45.515625 46.484375 51.90625 
Q 46.484375 58.296875 42.84375 61.546875 
Q 39.203125 64.796875 32.078125 64.796875 
z
" id="DejaVuSans-82"/>
      </defs>
      <g transform="translate(275.385564 457.944844)rotate(-90)scale(0.165 -0.165)">
       <use xlink:href="#DejaVuSans-77"/>
       <use x="86.279297" xlink:href="#DejaVuSans-65"/>
       <use x="154.6875" xlink:href="#DejaVuSans-70"/>
       <use x="212.207031" xlink:href="#DejaVuSans-95"/>
       <use x="262.207031" xlink:href="#DejaVuSans-65"/>
       <use x="328.865234" xlink:href="#DejaVuSans-100"/>
       <use x="392.341797" xlink:href="#DejaVuSans-106"/>
       <use x="420.125" xlink:href="#DejaVuSans-95"/>
       <use x="470.125" xlink:href="#DejaVuSans-76"/>
       <use x="525.837891" xlink:href="#DejaVuSans-76"/>
       <use x="581.550781" xlink:href="#DejaVuSans-68"/>
       <use x="658.552734" xlink:href="#DejaVuSans-95"/>
       <use x="708.552734" xlink:href="#DejaVuSans-65"/>
       <use x="776.960938" xlink:href="#DejaVuSans-70"/>
       <use x="834.480469" xlink:href="#DejaVuSans-82"/>
      </g>
     </g>
    </g>
    <g id="xtick_3">
     <g id="line2d_3">
      <g>
       <use style="stroke:#000000;stroke-width:1.875;" x="368.818284" xlink:href="#m083879c7b7" y="296.29"/>
      </g>
     </g>
     <g id="text_3">
      <!-- Recomb_Rate_10kb -->
      <defs>
       <path d="M 30.609375 48.390625 
Q 23.390625 48.390625 19.1875 42.75 
Q 14.984375 37.109375 14.984375 27.296875 
Q 14.984375 17.484375 19.15625 11.84375 
Q 23.34375 6.203125 30.609375 6.203125 
Q 37.796875 6.203125 41.984375 11.859375 
Q 46.1875 17.53125 46.1875 27.296875 
Q 46.1875 37.015625 41.984375 42.703125 
Q 37.796875 48.390625 30.609375 48.390625 
z
M 30.609375 56 
Q 42.328125 56 49.015625 48.375 
Q 55.71875 40.765625 55.71875 27.296875 
Q 55.71875 13.875 49.015625 6.21875 
Q 42.328125 -1.421875 30.609375 -1.421875 
Q 18.84375 -1.421875 12.171875 6.21875 
Q 5.515625 13.875 5.515625 27.296875 
Q 5.515625 40.765625 12.171875 48.375 
Q 18.84375 56 30.609375 56 
z
" id="DejaVuSans-111"/>
       <path d="M 52 44.1875 
Q 55.375 50.25 60.0625 53.125 
Q 64.75 56 71.09375 56 
Q 79.640625 56 84.28125 50.015625 
Q 88.921875 44.046875 88.921875 33.015625 
L 88.921875 0 
L 79.890625 0 
L 79.890625 32.71875 
Q 79.890625 40.578125 77.09375 44.375 
Q 74.3125 48.1875 68.609375 48.1875 
Q 61.625 48.1875 57.5625 43.546875 
Q 53.515625 38.921875 53.515625 30.90625 
L 53.515625 0 
L 44.484375 0 
L 44.484375 32.71875 
Q 44.484375 40.625 41.703125 44.40625 
Q 38.921875 48.1875 33.109375 48.1875 
Q 26.21875 48.1875 22.15625 43.53125 
Q 18.109375 38.875 18.109375 30.90625 
L 18.109375 0 
L 9.078125 0 
L 9.078125 54.6875 
L 18.109375 54.6875 
L 18.109375 46.1875 
Q 21.1875 51.21875 25.484375 53.609375 
Q 29.78125 56 35.6875 56 
Q 41.65625 56 45.828125 52.96875 
Q 50 49.953125 52 44.1875 
z
" id="DejaVuSans-109"/>
       <path d="M 48.6875 27.296875 
Q 48.6875 37.203125 44.609375 42.84375 
Q 40.53125 48.484375 33.40625 48.484375 
Q 26.265625 48.484375 22.1875 42.84375 
Q 18.109375 37.203125 18.109375 27.296875 
Q 18.109375 17.390625 22.1875 11.75 
Q 26.265625 6.109375 33.40625 6.109375 
Q 40.53125 6.109375 44.609375 11.75 
Q 48.6875 17.390625 48.6875 27.296875 
z
M 18.109375 46.390625 
Q 20.953125 51.265625 25.265625 53.625 
Q 29.59375 56 35.59375 56 
Q 45.5625 56 51.78125 48.09375 
Q 58.015625 40.1875 58.015625 27.296875 
Q 58.015625 14.40625 51.78125 6.484375 
Q 45.5625 -1.421875 35.59375 -1.421875 
Q 29.59375 -1.421875 25.265625 0.953125 
Q 20.953125 3.328125 18.109375 8.203125 
L 18.109375 0 
L 9.078125 0 
L 9.078125 75.984375 
L 18.109375 75.984375 
z
" id="DejaVuSans-98"/>
       <path d="M 34.28125 27.484375 
Q 23.390625 27.484375 19.1875 25 
Q 14.984375 22.515625 14.984375 16.5 
Q 14.984375 11.71875 18.140625 8.90625 
Q 21.296875 6.109375 26.703125 6.109375 
Q 34.1875 6.109375 38.703125 11.40625 
Q 43.21875 16.703125 43.21875 25.484375 
L 43.21875 27.484375 
z
M 52.203125 31.203125 
L 52.203125 0 
L 43.21875 0 
L 43.21875 8.296875 
Q 40.140625 3.328125 35.546875 0.953125 
Q 30.953125 -1.421875 24.3125 -1.421875 
Q 15.921875 -1.421875 10.953125 3.296875 
Q 6 8.015625 6 15.921875 
Q 6 25.140625 12.171875 29.828125 
Q 18.359375 34.515625 30.609375 34.515625 
L 43.21875 34.515625 
L 43.21875 35.40625 
Q 43.21875 41.609375 39.140625 45 
Q 35.0625 48.390625 27.6875 48.390625 
Q 23 48.390625 18.546875 47.265625 
Q 14.109375 46.140625 10.015625 43.890625 
L 10.015625 52.203125 
Q 14.9375 54.109375 19.578125 55.046875 
Q 24.21875 56 28.609375 56 
Q 40.484375 56 46.34375 49.84375 
Q 52.203125 43.703125 52.203125 31.203125 
z
" id="DejaVuSans-97"/>
       <path d="M 12.40625 8.296875 
L 28.515625 8.296875 
L 28.515625 63.921875 
L 10.984375 60.40625 
L 10.984375 69.390625 
L 28.421875 72.90625 
L 38.28125 72.90625 
L 38.28125 8.296875 
L 54.390625 8.296875 
L 54.390625 0 
L 12.40625 0 
z
" id="DejaVuSans-49"/>
       <path d="M 31.78125 66.40625 
Q 24.171875 66.40625 20.328125 58.90625 
Q 16.5 51.421875 16.5 36.375 
Q 16.5 21.390625 20.328125 13.890625 
Q 24.171875 6.390625 31.78125 6.390625 
Q 39.453125 6.390625 43.28125 13.890625 
Q 47.125 21.390625 47.125 36.375 
Q 47.125 51.421875 43.28125 58.90625 
Q 39.453125 66.40625 31.78125 66.40625 
z
M 31.78125 74.21875 
Q 44.046875 74.21875 50.515625 64.515625 
Q 56.984375 54.828125 56.984375 36.375 
Q 56.984375 17.96875 50.515625 8.265625 
Q 44.046875 -1.421875 31.78125 -1.421875 
Q 19.53125 -1.421875 13.0625 8.265625 
Q 6.59375 17.96875 6.59375 36.375 
Q 6.59375 54.828125 13.0625 64.515625 
Q 19.53125 74.21875 31.78125 74.21875 
z
" id="DejaVuSans-48"/>
       <path d="M 9.078125 75.984375 
L 18.109375 75.984375 
L 18.109375 31.109375 
L 44.921875 54.6875 
L 56.390625 54.6875 
L 27.390625 29.109375 
L 57.625 0 
L 45.90625 0 
L 18.109375 26.703125 
L 18.109375 0 
L 9.078125 0 
z
" id="DejaVuSans-107"/>
      </defs>
      <g transform="translate(373.1418 470.732344)rotate(-90)scale(0.165 -0.165)">
       <use xlink:href="#DejaVuSans-82"/>
       <use x="64.982422" xlink:href="#DejaVuSans-101"/>
       <use x="126.505859" xlink:href="#DejaVuSans-99"/>
       <use x="181.486328" xlink:href="#DejaVuSans-111"/>
       <use x="242.667969" xlink:href="#DejaVuSans-109"/>
       <use x="340.080078" xlink:href="#DejaVuSans-98"/>
       <use x="403.556641" xlink:href="#DejaVuSans-95"/>
       <use x="453.556641" xlink:href="#DejaVuSans-82"/>
       <use x="520.789062" xlink:href="#DejaVuSans-97"/>
       <use x="582.068359" xlink:href="#DejaVuSans-116"/>
       <use x="621.277344" xlink:href="#DejaVuSans-101"/>
       <use x="682.800781" xlink:href="#DejaVuSans-95"/>
       <use x="732.800781" xlink:href="#DejaVuSans-49"/>
       <use x="796.423828" xlink:href="#DejaVuSans-48"/>
       <use x="860.046875" xlink:href="#DejaVuSans-107"/>
       <use x="917.957031" xlink:href="#DejaVuSans-98"/>
      </g>
     </g>
    </g>
    <g id="xtick_4">
     <g id="line2d_4">
      <g>
       <use style="stroke:#000000;stroke-width:1.875;" x="466.574521" xlink:href="#m083879c7b7" y="296.29"/>
      </g>
     </g>
     <g id="text_4">
      <!-- Nucleotide_Diversity_10kb -->
      <defs>
       <path d="M 9.8125 72.90625 
L 23.09375 72.90625 
L 55.421875 11.921875 
L 55.421875 72.90625 
L 64.984375 72.90625 
L 64.984375 0 
L 51.703125 0 
L 19.390625 60.984375 
L 19.390625 0 
L 9.8125 0 
z
" id="DejaVuSans-78"/>
       <path d="M 8.5 21.578125 
L 8.5 54.6875 
L 17.484375 54.6875 
L 17.484375 21.921875 
Q 17.484375 14.15625 20.5 10.265625 
Q 23.53125 6.390625 29.59375 6.390625 
Q 36.859375 6.390625 41.078125 11.03125 
Q 45.3125 15.671875 45.3125 23.6875 
L 45.3125 54.6875 
L 54.296875 54.6875 
L 54.296875 0 
L 45.3125 0 
L 45.3125 8.40625 
Q 42.046875 3.421875 37.71875 1 
Q 33.40625 -1.421875 27.6875 -1.421875 
Q 18.265625 -1.421875 13.375 4.4375 
Q 8.5 10.296875 8.5 21.578125 
z
M 31.109375 56 
z
" id="DejaVuSans-117"/>
       <path d="M 2.984375 54.6875 
L 12.5 54.6875 
L 29.59375 8.796875 
L 46.6875 54.6875 
L 56.203125 54.6875 
L 35.6875 0 
L 23.484375 0 
z
" id="DejaVuSans-118"/>
       <path d="M 44.28125 53.078125 
L 44.28125 44.578125 
Q 40.484375 46.53125 36.375 47.5 
Q 32.28125 48.484375 27.875 48.484375 
Q 21.1875 48.484375 17.84375 46.4375 
Q 14.5 44.390625 14.5 40.28125 
Q 14.5 37.15625 16.890625 35.375 
Q 19.28125 33.59375 26.515625 31.984375 
L 29.59375 31.296875 
Q 39.15625 29.25 43.1875 25.515625 
Q 47.21875 21.78125 47.21875 15.09375 
Q 47.21875 7.46875 41.1875 3.015625 
Q 35.15625 -1.421875 24.609375 -1.421875 
Q 20.21875 -1.421875 15.453125 -0.5625 
Q 10.6875 0.296875 5.421875 2 
L 5.421875 11.28125 
Q 10.40625 8.6875 15.234375 7.390625 
Q 20.0625 6.109375 24.8125 6.109375 
Q 31.15625 6.109375 34.5625 8.28125 
Q 37.984375 10.453125 37.984375 14.40625 
Q 37.984375 18.0625 35.515625 20.015625 
Q 33.0625 21.96875 24.703125 23.78125 
L 21.578125 24.515625 
Q 13.234375 26.265625 9.515625 29.90625 
Q 5.8125 33.546875 5.8125 39.890625 
Q 5.8125 47.609375 11.28125 51.796875 
Q 16.75 56 26.8125 56 
Q 31.78125 56 36.171875 55.265625 
Q 40.578125 54.546875 44.28125 53.078125 
z
" id="DejaVuSans-115"/>
       <path d="M 32.171875 -5.078125 
Q 28.375 -14.84375 24.75 -17.8125 
Q 21.140625 -20.796875 15.09375 -20.796875 
L 7.90625 -20.796875 
L 7.90625 -13.28125 
L 13.1875 -13.28125 
Q 16.890625 -13.28125 18.9375 -11.515625 
Q 21 -9.765625 23.484375 -3.21875 
L 25.09375 0.875 
L 2.984375 54.6875 
L 12.5 54.6875 
L 29.59375 11.921875 
L 46.6875 54.6875 
L 56.203125 54.6875 
z
" id="DejaVuSans-121"/>
      </defs>
      <g transform="translate(470.898036 528.105937)rotate(-90)scale(0.165 -0.165)">
       <use xlink:href="#DejaVuSans-78"/>
       <use x="74.804688" xlink:href="#DejaVuSans-117"/>
       <use x="138.183594" xlink:href="#DejaVuSans-99"/>
       <use x="193.164062" xlink:href="#DejaVuSans-108"/>
       <use x="220.947266" xlink:href="#DejaVuSans-101"/>
       <use x="282.470703" xlink:href="#DejaVuSans-111"/>
       <use x="343.652344" xlink:href="#DejaVuSans-116"/>
       <use x="382.861328" xlink:href="#DejaVuSans-105"/>
       <use x="410.644531" xlink:href="#DejaVuSans-100"/>
       <use x="474.121094" xlink:href="#DejaVuSans-101"/>
       <use x="535.644531" xlink:href="#DejaVuSans-95"/>
       <use x="585.644531" xlink:href="#DejaVuSans-68"/>
       <use x="662.646484" xlink:href="#DejaVuSans-105"/>
       <use x="690.429688" xlink:href="#DejaVuSans-118"/>
       <use x="749.609375" xlink:href="#DejaVuSans-101"/>
       <use x="811.132812" xlink:href="#DejaVuSans-114"/>
       <use x="852.246094" xlink:href="#DejaVuSans-115"/>
       <use x="904.345703" xlink:href="#DejaVuSans-105"/>
       <use x="932.128906" xlink:href="#DejaVuSans-116"/>
       <use x="971.337891" xlink:href="#DejaVuSans-121"/>
       <use x="1030.517578" xlink:href="#DejaVuSans-95"/>
       <use x="1080.517578" xlink:href="#DejaVuSans-49"/>
       <use x="1144.140625" xlink:href="#DejaVuSans-48"/>
       <use x="1207.763672" xlink:href="#DejaVuSans-107"/>
       <use x="1265.673828" xlink:href="#DejaVuSans-98"/>
      </g>
     </g>
    </g>
    <g id="xtick_5">
     <g id="line2d_5">
      <g>
       <use style="stroke:#000000;stroke-width:1.875;" x="564.330757" xlink:href="#m083879c7b7" y="296.29"/>
      </g>
     </g>
     <g id="text_5">
      <!-- Backgrd_Selection_Stat -->
      <defs>
       <path d="M 19.671875 34.8125 
L 19.671875 8.109375 
L 35.5 8.109375 
Q 43.453125 8.109375 47.28125 11.40625 
Q 51.125 14.703125 51.125 21.484375 
Q 51.125 28.328125 47.28125 31.5625 
Q 43.453125 34.8125 35.5 34.8125 
z
M 19.671875 64.796875 
L 19.671875 42.828125 
L 34.28125 42.828125 
Q 41.5 42.828125 45.03125 45.53125 
Q 48.578125 48.25 48.578125 53.8125 
Q 48.578125 59.328125 45.03125 62.0625 
Q 41.5 64.796875 34.28125 64.796875 
z
M 9.8125 72.90625 
L 35.015625 72.90625 
Q 46.296875 72.90625 52.390625 68.21875 
Q 58.5 63.53125 58.5 54.890625 
Q 58.5 48.1875 55.375 44.234375 
Q 52.25 40.28125 46.1875 39.3125 
Q 53.46875 37.75 57.5 32.78125 
Q 61.53125 27.828125 61.53125 20.40625 
Q 61.53125 10.640625 54.890625 5.3125 
Q 48.25 0 35.984375 0 
L 9.8125 0 
z
" id="DejaVuSans-66"/>
       <path d="M 53.515625 70.515625 
L 53.515625 60.890625 
Q 47.90625 63.578125 42.921875 64.890625 
Q 37.9375 66.21875 33.296875 66.21875 
Q 25.25 66.21875 20.875 63.09375 
Q 16.5 59.96875 16.5 54.203125 
Q 16.5 49.359375 19.40625 46.890625 
Q 22.3125 44.4375 30.421875 42.921875 
L 36.375 41.703125 
Q 47.40625 39.59375 52.65625 34.296875 
Q 57.90625 29 57.90625 20.125 
Q 57.90625 9.515625 50.796875 4.046875 
Q 43.703125 -1.421875 29.984375 -1.421875 
Q 24.8125 -1.421875 18.96875 -0.25 
Q 13.140625 0.921875 6.890625 3.21875 
L 6.890625 13.375 
Q 12.890625 10.015625 18.65625 8.296875 
Q 24.421875 6.59375 29.984375 6.59375 
Q 38.421875 6.59375 43.015625 9.90625 
Q 47.609375 13.234375 47.609375 19.390625 
Q 47.609375 24.75 44.3125 27.78125 
Q 41.015625 30.8125 33.5 32.328125 
L 27.484375 33.5 
Q 16.453125 35.6875 11.515625 40.375 
Q 6.59375 45.0625 6.59375 53.421875 
Q 6.59375 63.09375 13.40625 68.65625 
Q 20.21875 74.21875 32.171875 74.21875 
Q 37.3125 74.21875 42.625 73.28125 
Q 47.953125 72.359375 53.515625 70.515625 
z
" id="DejaVuSans-83"/>
       <path d="M 54.890625 33.015625 
L 54.890625 0 
L 45.90625 0 
L 45.90625 32.71875 
Q 45.90625 40.484375 42.875 44.328125 
Q 39.84375 48.1875 33.796875 48.1875 
Q 26.515625 48.1875 22.3125 43.546875 
Q 18.109375 38.921875 18.109375 30.90625 
L 18.109375 0 
L 9.078125 0 
L 9.078125 54.6875 
L 18.109375 54.6875 
L 18.109375 46.1875 
Q 21.34375 51.125 25.703125 53.5625 
Q 30.078125 56 35.796875 56 
Q 45.21875 56 50.046875 50.171875 
Q 54.890625 44.34375 54.890625 33.015625 
z
" id="DejaVuSans-110"/>
      </defs>
      <g transform="translate(568.654272 502.358203)rotate(-90)scale(0.165 -0.165)">
       <use xlink:href="#DejaVuSans-66"/>
       <use x="68.603516" xlink:href="#DejaVuSans-97"/>
       <use x="129.882812" xlink:href="#DejaVuSans-99"/>
       <use x="184.863281" xlink:href="#DejaVuSans-107"/>
       <use x="242.773438" xlink:href="#DejaVuSans-103"/>
       <use x="306.25" xlink:href="#DejaVuSans-114"/>
       <use x="345.613281" xlink:href="#DejaVuSans-100"/>
       <use x="409.089844" xlink:href="#DejaVuSans-95"/>
       <use x="459.089844" xlink:href="#DejaVuSans-83"/>
       <use x="522.566406" xlink:href="#DejaVuSans-101"/>
       <use x="584.089844" xlink:href="#DejaVuSans-108"/>
       <use x="611.873047" xlink:href="#DejaVuSans-101"/>
       <use x="673.396484" xlink:href="#DejaVuSans-99"/>
       <use x="728.376953" xlink:href="#DejaVuSans-116"/>
       <use x="767.585938" xlink:href="#DejaVuSans-105"/>
       <use x="795.369141" xlink:href="#DejaVuSans-111"/>
       <use x="856.550781" xlink:href="#DejaVuSans-110"/>
       <use x="919.929688" xlink:href="#DejaVuSans-95"/>
       <use x="969.929688" xlink:href="#DejaVuSans-83"/>
       <use x="1033.40625" xlink:href="#DejaVuSans-116"/>
       <use x="1072.615234" xlink:href="#DejaVuSans-97"/>
       <use x="1133.894531" xlink:href="#DejaVuSans-116"/>
      </g>
     </g>
    </g>
    <g id="xtick_6">
     <g id="line2d_6">
      <g>
       <use style="stroke:#000000;stroke-width:1.875;" x="662.086993" xlink:href="#m083879c7b7" y="296.29"/>
      </g>
     </g>
     <g id="text_6">
      <!-- CpG_Content_50kb -->
      <defs>
       <path d="M 64.40625 67.28125 
L 64.40625 56.890625 
Q 59.421875 61.53125 53.78125 63.8125 
Q 48.140625 66.109375 41.796875 66.109375 
Q 29.296875 66.109375 22.65625 58.46875 
Q 16.015625 50.828125 16.015625 36.375 
Q 16.015625 21.96875 22.65625 14.328125 
Q 29.296875 6.6875 41.796875 6.6875 
Q 48.140625 6.6875 53.78125 8.984375 
Q 59.421875 11.28125 64.40625 15.921875 
L 64.40625 5.609375 
Q 59.234375 2.09375 53.4375 0.328125 
Q 47.65625 -1.421875 41.21875 -1.421875 
Q 24.65625 -1.421875 15.125 8.703125 
Q 5.609375 18.84375 5.609375 36.375 
Q 5.609375 53.953125 15.125 64.078125 
Q 24.65625 74.21875 41.21875 74.21875 
Q 47.75 74.21875 53.53125 72.484375 
Q 59.328125 70.75 64.40625 67.28125 
z
" id="DejaVuSans-67"/>
       <path d="M 18.109375 8.203125 
L 18.109375 -20.796875 
L 9.078125 -20.796875 
L 9.078125 54.6875 
L 18.109375 54.6875 
L 18.109375 46.390625 
Q 20.953125 51.265625 25.265625 53.625 
Q 29.59375 56 35.59375 56 
Q 45.5625 56 51.78125 48.09375 
Q 58.015625 40.1875 58.015625 27.296875 
Q 58.015625 14.40625 51.78125 6.484375 
Q 45.5625 -1.421875 35.59375 -1.421875 
Q 29.59375 -1.421875 25.265625 0.953125 
Q 20.953125 3.328125 18.109375 8.203125 
z
M 48.6875 27.296875 
Q 48.6875 37.203125 44.609375 42.84375 
Q 40.53125 48.484375 33.40625 48.484375 
Q 26.265625 48.484375 22.1875 42.84375 
Q 18.109375 37.203125 18.109375 27.296875 
Q 18.109375 17.390625 22.1875 11.75 
Q 26.265625 6.109375 33.40625 6.109375 
Q 40.53125 6.109375 44.609375 11.75 
Q 48.6875 17.390625 48.6875 27.296875 
z
" id="DejaVuSans-112"/>
       <path d="M 59.515625 10.40625 
L 59.515625 29.984375 
L 43.40625 29.984375 
L 43.40625 38.09375 
L 69.28125 38.09375 
L 69.28125 6.78125 
Q 63.578125 2.734375 56.6875 0.65625 
Q 49.8125 -1.421875 42 -1.421875 
Q 24.90625 -1.421875 15.25 8.5625 
Q 5.609375 18.5625 5.609375 36.375 
Q 5.609375 54.25 15.25 64.234375 
Q 24.90625 74.21875 42 74.21875 
Q 49.125 74.21875 55.546875 72.453125 
Q 61.96875 70.703125 67.390625 67.28125 
L 67.390625 56.78125 
Q 61.921875 61.421875 55.765625 63.765625 
Q 49.609375 66.109375 42.828125 66.109375 
Q 29.4375 66.109375 22.71875 58.640625 
Q 16.015625 51.171875 16.015625 36.375 
Q 16.015625 21.625 22.71875 14.15625 
Q 29.4375 6.6875 42.828125 6.6875 
Q 48.046875 6.6875 52.140625 7.59375 
Q 56.25 8.5 59.515625 10.40625 
z
" id="DejaVuSans-71"/>
       <path d="M 10.796875 72.90625 
L 49.515625 72.90625 
L 49.515625 64.59375 
L 19.828125 64.59375 
L 19.828125 46.734375 
Q 21.96875 47.46875 24.109375 47.828125 
Q 26.265625 48.1875 28.421875 48.1875 
Q 40.625 48.1875 47.75 41.5 
Q 54.890625 34.8125 54.890625 23.390625 
Q 54.890625 11.625 47.5625 5.09375 
Q 40.234375 -1.421875 26.90625 -1.421875 
Q 22.3125 -1.421875 17.546875 -0.640625 
Q 12.796875 0.140625 7.71875 1.703125 
L 7.71875 11.625 
Q 12.109375 9.234375 16.796875 8.0625 
Q 21.484375 6.890625 26.703125 6.890625 
Q 35.15625 6.890625 40.078125 11.328125 
Q 45.015625 15.765625 45.015625 23.390625 
Q 45.015625 31 40.078125 35.4375 
Q 35.15625 39.890625 26.703125 39.890625 
Q 22.75 39.890625 18.8125 39.015625 
Q 14.890625 38.140625 10.796875 36.28125 
z
" id="DejaVuSans-53"/>
      </defs>
      <g transform="translate(666.410508 466.718203)rotate(-90)scale(0.165 -0.165)">
       <use xlink:href="#DejaVuSans-67"/>
       <use x="69.824219" xlink:href="#DejaVuSans-112"/>
       <use x="133.300781" xlink:href="#DejaVuSans-71"/>
       <use x="210.791016" xlink:href="#DejaVuSans-95"/>
       <use x="260.791016" xlink:href="#DejaVuSans-67"/>
       <use x="330.615234" xlink:href="#DejaVuSans-111"/>
       <use x="391.796875" xlink:href="#DejaVuSans-110"/>
       <use x="455.175781" xlink:href="#DejaVuSans-116"/>
       <use x="494.384766" xlink:href="#DejaVuSans-101"/>
       <use x="555.908203" xlink:href="#DejaVuSans-110"/>
       <use x="619.287109" xlink:href="#DejaVuSans-116"/>
       <use x="658.496094" xlink:href="#DejaVuSans-95"/>
       <use x="708.496094" xlink:href="#DejaVuSans-53"/>
       <use x="772.119141" xlink:href="#DejaVuSans-48"/>
       <use x="835.742188" xlink:href="#DejaVuSans-107"/>
       <use x="893.652344" xlink:href="#DejaVuSans-98"/>
      </g>
     </g>
    </g>
    <g id="xtick_7">
     <g id="line2d_7">
      <g>
       <use style="stroke:#000000;stroke-width:1.875;" x="759.843229" xlink:href="#m083879c7b7" y="296.29"/>
      </g>
     </g>
     <g id="text_7">
      <!-- MAF_Adj_ASMC -->
      <g transform="translate(764.166744 433.880625)rotate(-90)scale(0.165 -0.165)">
       <use xlink:href="#DejaVuSans-77"/>
       <use x="86.279297" xlink:href="#DejaVuSans-65"/>
       <use x="154.6875" xlink:href="#DejaVuSans-70"/>
       <use x="212.207031" xlink:href="#DejaVuSans-95"/>
       <use x="262.207031" xlink:href="#DejaVuSans-65"/>
       <use x="328.865234" xlink:href="#DejaVuSans-100"/>
       <use x="392.341797" xlink:href="#DejaVuSans-106"/>
       <use x="420.125" xlink:href="#DejaVuSans-95"/>
       <use x="470.125" xlink:href="#DejaVuSans-65"/>
       <use x="538.533203" xlink:href="#DejaVuSans-83"/>
       <use x="602.009766" xlink:href="#DejaVuSans-77"/>
       <use x="688.289062" xlink:href="#DejaVuSans-67"/>
      </g>
     </g>
    </g>
   </g>
   <g id="matplotlib.axis_2">
    <g id="ytick_1">
     <g id="line2d_8">
      <defs>
       <path d="M 0 0 
L -9 0 
" id="mbc7e06639b" style="stroke:#000000;stroke-width:1.875;"/>
      </defs>
      <g>
       <use style="stroke:#000000;stroke-width:1.875;" x="99.174" xlink:href="#mbc7e06639b" y="273.441527"/>
      </g>
     </g>
     <g id="text_8">
      <!-- −0.2 -->
      <defs>
       <path d="M 10.59375 35.5 
L 73.1875 35.5 
L 73.1875 27.203125 
L 10.59375 27.203125 
z
" id="DejaVuSans-8722"/>
       <path d="M 10.6875 12.40625 
L 21 12.40625 
L 21 0 
L 10.6875 0 
z
" id="DejaVuSans-46"/>
       <path d="M 19.1875 8.296875 
L 53.609375 8.296875 
L 53.609375 0 
L 7.328125 0 
L 7.328125 8.296875 
Q 12.9375 14.109375 22.625 23.890625 
Q 32.328125 33.6875 34.8125 36.53125 
Q 39.546875 41.84375 41.421875 45.53125 
Q 43.3125 49.21875 43.3125 52.78125 
Q 43.3125 58.59375 39.234375 62.25 
Q 35.15625 65.921875 28.609375 65.921875 
Q 23.96875 65.921875 18.8125 64.3125 
Q 13.671875 62.703125 7.8125 59.421875 
L 7.8125 69.390625 
Q 13.765625 71.78125 18.9375 73 
Q 24.125 74.21875 28.421875 74.21875 
Q 39.75 74.21875 46.484375 68.546875 
Q 53.21875 62.890625 53.21875 53.421875 
Q 53.21875 48.921875 51.53125 44.890625 
Q 49.859375 40.875 45.40625 35.40625 
Q 44.1875 33.984375 37.640625 27.21875 
Q 31.109375 20.453125 19.1875 8.296875 
z
" id="DejaVuSans-50"/>
      </defs>
      <g transform="translate(46.607359 279.710238)scale(0.165 -0.165)">
       <use xlink:href="#DejaVuSans-8722"/>
       <use x="83.789062" xlink:href="#DejaVuSans-48"/>
       <use x="147.412109" xlink:href="#DejaVuSans-46"/>
       <use x="179.199219" xlink:href="#DejaVuSans-50"/>
      </g>
     </g>
    </g>
    <g id="ytick_2">
     <g id="line2d_9">
      <g>
       <use style="stroke:#000000;stroke-width:1.875;" x="99.174" xlink:href="#mbc7e06639b" y="228.408156"/>
      </g>
     </g>
     <g id="text_9">
      <!-- −0.1 -->
      <g transform="translate(46.607359 234.676867)scale(0.165 -0.165)">
       <use xlink:href="#DejaVuSans-8722"/>
       <use x="83.789062" xlink:href="#DejaVuSans-48"/>
       <use x="147.412109" xlink:href="#DejaVuSans-46"/>
       <use x="179.199219" xlink:href="#DejaVuSans-49"/>
      </g>
     </g>
    </g>
    <g id="ytick_3">
     <g id="line2d_10">
      <g>
       <use style="stroke:#000000;stroke-width:1.875;" x="99.174" xlink:href="#mbc7e06639b" y="183.374785"/>
      </g>
     </g>
     <g id="text_10">
      <!-- 0.0 -->
      <g transform="translate(60.433844 189.643496)scale(0.165 -0.165)">
       <use xlink:href="#DejaVuSans-48"/>
       <use x="63.623047" xlink:href="#DejaVuSans-46"/>
       <use x="95.410156" xlink:href="#DejaVuSans-48"/>
      </g>
     </g>
    </g>
    <g id="ytick_4">
     <g id="line2d_11">
      <g>
       <use style="stroke:#000000;stroke-width:1.875;" x="99.174" xlink:href="#mbc7e06639b" y="138.341413"/>
      </g>
     </g>
     <g id="text_11">
      <!-- 0.1 -->
      <g transform="translate(60.433844 144.610124)scale(0.165 -0.165)">
       <use xlink:href="#DejaVuSans-48"/>
       <use x="63.623047" xlink:href="#DejaVuSans-46"/>
       <use x="95.410156" xlink:href="#DejaVuSans-49"/>
      </g>
     </g>
    </g>
    <g id="ytick_5">
     <g id="line2d_12">
      <g>
       <use style="stroke:#000000;stroke-width:1.875;" x="99.174" xlink:href="#mbc7e06639b" y="93.308042"/>
      </g>
     </g>
     <g id="text_12">
      <!-- 0.2 -->
      <g transform="translate(60.433844 99.576753)scale(0.165 -0.165)">
       <use xlink:href="#DejaVuSans-48"/>
       <use x="63.623047" xlink:href="#DejaVuSans-46"/>
       <use x="95.410156" xlink:href="#DejaVuSans-50"/>
      </g>
     </g>
    </g>
    <g id="ytick_6">
     <g id="line2d_13">
      <g>
       <use style="stroke:#000000;stroke-width:1.875;" x="99.174" xlink:href="#mbc7e06639b" y="48.274671"/>
      </g>
     </g>
     <g id="text_13">
      <!-- 0.3 -->
      <defs>
       <path d="M 40.578125 39.3125 
Q 47.65625 37.796875 51.625 33 
Q 55.609375 28.21875 55.609375 21.1875 
Q 55.609375 10.40625 48.1875 4.484375 
Q 40.765625 -1.421875 27.09375 -1.421875 
Q 22.515625 -1.421875 17.65625 -0.515625 
Q 12.796875 0.390625 7.625 2.203125 
L 7.625 11.71875 
Q 11.71875 9.328125 16.59375 8.109375 
Q 21.484375 6.890625 26.8125 6.890625 
Q 36.078125 6.890625 40.9375 10.546875 
Q 45.796875 14.203125 45.796875 21.1875 
Q 45.796875 27.640625 41.28125 31.265625 
Q 36.765625 34.90625 28.71875 34.90625 
L 20.21875 34.90625 
L 20.21875 43.015625 
L 29.109375 43.015625 
Q 36.375 43.015625 40.234375 45.921875 
Q 44.09375 48.828125 44.09375 54.296875 
Q 44.09375 59.90625 40.109375 62.90625 
Q 36.140625 65.921875 28.71875 65.921875 
Q 24.65625 65.921875 20.015625 65.03125 
Q 15.375 64.15625 9.8125 62.3125 
L 9.8125 71.09375 
Q 15.4375 72.65625 20.34375 73.4375 
Q 25.25 74.21875 29.59375 74.21875 
Q 40.828125 74.21875 47.359375 69.109375 
Q 53.90625 64.015625 53.90625 55.328125 
Q 53.90625 49.265625 50.4375 45.09375 
Q 46.96875 40.921875 40.578125 39.3125 
z
" id="DejaVuSans-51"/>
      </defs>
      <g transform="translate(60.433844 54.543382)scale(0.165 -0.165)">
       <use xlink:href="#DejaVuSans-48"/>
       <use x="63.623047" xlink:href="#DejaVuSans-46"/>
       <use x="95.410156" xlink:href="#DejaVuSans-51"/>
      </g>
     </g>
    </g>
    <g id="text_14">
     <!-- Meta-analyzed $\tau^*(w)$ -->
     <defs>
      <path d="M 4.890625 31.390625 
L 31.203125 31.390625 
L 31.203125 23.390625 
L 4.890625 23.390625 
z
" id="DejaVuSans-45"/>
      <path d="M 5.515625 54.6875 
L 48.1875 54.6875 
L 48.1875 46.484375 
L 14.40625 7.171875 
L 48.1875 7.171875 
L 48.1875 0 
L 4.296875 0 
L 4.296875 8.203125 
L 38.09375 47.515625 
L 5.515625 47.515625 
z
" id="DejaVuSans-122"/>
      <path id="DejaVuSans-32"/>
      <path d="M 32.859375 9.96875 
Q 34.1875 7.625 39.453125 7.625 
L 43.75 7.625 
L 42.28125 0 
L 36.921875 0 
Q 28.125 0 25 4.6875 
Q 21.921875 9.46875 23.96875 19.828125 
L 29 45.703125 
L 8.453125 45.703125 
L 10.203125 54.6875 
L 60.640625 54.6875 
L 58.890625 45.703125 
L 38.1875 45.703125 
L 33.015625 19.28125 
Q 31.640625 12.203125 32.859375 9.96875 
z
" id="DejaVuSans-Oblique-964"/>
      <path d="M 47.015625 60.890625 
L 29.5 51.421875 
L 47.015625 41.890625 
L 44.1875 37.109375 
L 27.78125 47.015625 
L 27.78125 28.609375 
L 22.21875 28.609375 
L 22.21875 47.015625 
L 5.8125 37.109375 
L 2.984375 41.890625 
L 20.515625 51.421875 
L 2.984375 60.890625 
L 5.8125 65.71875 
L 22.21875 55.8125 
L 22.21875 74.21875 
L 27.78125 74.21875 
L 27.78125 55.8125 
L 44.1875 65.71875 
z
" id="DejaVuSans-42"/>
      <path d="M 31 75.875 
Q 24.46875 64.65625 21.28125 53.65625 
Q 18.109375 42.671875 18.109375 31.390625 
Q 18.109375 20.125 21.3125 9.0625 
Q 24.515625 -2 31 -13.1875 
L 23.1875 -13.1875 
Q 15.875 -1.703125 12.234375 9.375 
Q 8.59375 20.453125 8.59375 31.390625 
Q 8.59375 42.28125 12.203125 53.3125 
Q 15.828125 64.359375 23.1875 75.875 
z
" id="DejaVuSans-40"/>
      <path d="M 8.5 54.6875 
L 17.390625 54.6875 
L 19.671875 10.6875 
L 40.09375 54.6875 
L 50.484375 54.6875 
L 53.515625 10.6875 
L 72.90625 54.6875 
L 81.890625 54.6875 
L 56.890625 0 
L 46.390625 0 
L 43.703125 45.3125 
L 22.796875 0 
L 12.203125 0 
z
" id="DejaVuSans-Oblique-119"/>
      <path d="M 8.015625 75.875 
L 15.828125 75.875 
Q 23.140625 64.359375 26.78125 53.3125 
Q 30.421875 42.28125 30.421875 31.390625 
Q 30.421875 20.453125 26.78125 9.375 
Q 23.140625 -1.703125 15.828125 -13.1875 
L 8.015625 -13.1875 
Q 14.5 -2 17.703125 9.0625 
Q 20.90625 20.125 20.90625 31.390625 
Q 20.90625 42.671875 17.703125 53.65625 
Q 14.5 64.65625 8.015625 75.875 
z
" id="DejaVuSans-41"/>
     </defs>
     <g transform="translate(38.827359 252.995)rotate(-90)scale(0.18 -0.18)">
      <use transform="translate(0 0.765625)" xlink:href="#DejaVuSans-77"/>
      <use transform="translate(86.279297 0.765625)" xlink:href="#DejaVuSans-101"/>
      <use transform="translate(147.802734 0.765625)" xlink:href="#DejaVuSans-116"/>
      <use transform="translate(187.011719 0.765625)" xlink:href="#DejaVuSans-97"/>
      <use transform="translate(248.291016 0.765625)" xlink:href="#DejaVuSans-45"/>
      <use transform="translate(284.375 0.765625)" xlink:href="#DejaVuSans-97"/>
      <use transform="translate(345.654297 0.765625)" xlink:href="#DejaVuSans-110"/>
      <use transform="translate(409.033203 0.765625)" xlink:href="#DejaVuSans-97"/>
      <use transform="translate(470.3125 0.765625)" xlink:href="#DejaVuSans-108"/>
      <use transform="translate(498.095703 0.765625)" xlink:href="#DejaVuSans-121"/>
      <use transform="translate(557.275391 0.765625)" xlink:href="#DejaVuSans-122"/>
      <use transform="translate(609.765625 0.765625)" xlink:href="#DejaVuSans-101"/>
      <use transform="translate(671.289062 0.765625)" xlink:href="#DejaVuSans-100"/>
      <use transform="translate(734.765625 0.765625)" xlink:href="#DejaVuSans-32"/>
      <use transform="translate(766.552734 0.765625)" xlink:href="#DejaVuSans-Oblique-964"/>
      <use transform="translate(844.861654 39.046875)scale(0.7)" xlink:href="#DejaVuSans-42"/>
      <use transform="translate(896.233724 0.765625)" xlink:href="#DejaVuSans-40"/>
      <use transform="translate(935.247396 0.765625)" xlink:href="#DejaVuSans-Oblique-119"/>
      <use transform="translate(1017.034505 0.765625)" xlink:href="#DejaVuSans-41"/>
     </g>
    </g>
   </g>
   <g id="LineCollection_1">
    <path clip-path="url(#pce8c6c7a84)" d="M 140.7204 248.637272 
L 140.7204 230.600301 
" style="fill:none;stroke:#000000;"/>
    <path clip-path="url(#pce8c6c7a84)" d="M 238.476636 243.00153 
L 238.476636 231.436941 
" style="fill:none;stroke:#000000;"/>
    <path clip-path="url(#pce8c6c7a84)" d="M 336.232872 283.705909 
L 336.232872 270.230441 
" style="fill:none;stroke:#000000;"/>
    <path clip-path="url(#pce8c6c7a84)" d="M 433.989109 266.022047 
L 433.989109 249.390419 
" style="fill:none;stroke:#000000;"/>
    <path clip-path="url(#pce8c6c7a84)" d="M 531.745345 143.200514 
L 531.745345 128.946015 
" style="fill:none;stroke:#000000;"/>
    <path clip-path="url(#pce8c6c7a84)" d="M 629.501581 64.362981 
L 629.501581 32.024091 
" style="fill:none;stroke:#000000;"/>
    <path clip-path="url(#pce8c6c7a84)" d="M 727.257817 242.930083 
L 727.257817 222.422826 
" style="fill:none;stroke:#000000;"/>
   </g>
   <g id="LineCollection_2">
    <path clip-path="url(#pce8c6c7a84)" d="M 157.013106 248.681344 
L 157.013106 231.694871 
" style="fill:none;stroke:#000000;"/>
    <path clip-path="url(#pce8c6c7a84)" d="M 254.769342 243.967423 
L 254.769342 233.20279 
" style="fill:none;stroke:#000000;"/>
    <path clip-path="url(#pce8c6c7a84)" d="M 352.525578 276.041349 
L 352.525578 263.816771 
" style="fill:none;stroke:#000000;"/>
    <path clip-path="url(#pce8c6c7a84)" d="M 450.281815 250.376517 
L 450.281815 236.107931 
" style="fill:none;stroke:#000000;"/>
    <path clip-path="url(#pce8c6c7a84)" d="M 548.038051 148.992441 
L 548.038051 136.623961 
" style="fill:none;stroke:#000000;"/>
    <path clip-path="url(#pce8c6c7a84)" d="M 645.794287 82.905039 
L 645.794287 53.833958 
" style="fill:none;stroke:#000000;"/>
    <path clip-path="url(#pce8c6c7a84)" d="M 743.550523 245.058246 
L 743.550523 226.583377 
" style="fill:none;stroke:#000000;"/>
   </g>
   <g id="LineCollection_3">
    <path clip-path="url(#pce8c6c7a84)" d="M 173.305812 246.627795 
L 173.305812 230.145464 
" style="fill:none;stroke:#000000;"/>
    <path clip-path="url(#pce8c6c7a84)" d="M 271.062048 246.87913 
L 271.062048 236.820629 
" style="fill:none;stroke:#000000;"/>
    <path clip-path="url(#pce8c6c7a84)" d="M 368.818284 271.034113 
L 368.818284 260.381235 
" style="fill:none;stroke:#000000;"/>
    <path clip-path="url(#pce8c6c7a84)" d="M 466.574521 234.034117 
L 466.574521 221.795398 
" style="fill:none;stroke:#000000;"/>
    <path clip-path="url(#pce8c6c7a84)" d="M 564.330757 153.287492 
L 564.330757 142.532533 
" style="fill:none;stroke:#000000;"/>
    <path clip-path="url(#pce8c6c7a84)" d="M 662.086993 99.634991 
L 662.086993 73.284384 
" style="fill:none;stroke:#000000;"/>
    <path clip-path="url(#pce8c6c7a84)" d="M 759.843229 252.267575 
L 759.843229 235.578683 
" style="fill:none;stroke:#000000;"/>
   </g>
   <g id="LineCollection_4">
    <path clip-path="url(#pce8c6c7a84)" d="M 189.598518 243.519861 
L 189.598518 226.948869 
" style="fill:none;stroke:#000000;"/>
    <path clip-path="url(#pce8c6c7a84)" d="M 287.354754 251.7036 
L 287.354754 242.15256 
" style="fill:none;stroke:#000000;"/>
    <path clip-path="url(#pce8c6c7a84)" d="M 385.11099 269.895596 
L 385.11099 259.87089 
" style="fill:none;stroke:#000000;"/>
    <path clip-path="url(#pce8c6c7a84)" d="M 482.867227 219.87204 
L 482.867227 208.989521 
" style="fill:none;stroke:#000000;"/>
    <path clip-path="url(#pce8c6c7a84)" d="M 580.623463 156.21168 
L 580.623463 146.743949 
" style="fill:none;stroke:#000000;"/>
    <path clip-path="url(#pce8c6c7a84)" d="M 678.379699 113.527381 
L 678.379699 88.938647 
" style="fill:none;stroke:#000000;"/>
    <path clip-path="url(#pce8c6c7a84)" d="M 776.135935 263.689156 
L 776.135935 248.035468 
" style="fill:none;stroke:#000000;"/>
   </g>
   <g id="LineCollection_5">
    <path clip-path="url(#pce8c6c7a84)" d="M 205.891224 241.055079 
L 205.891224 223.887386 
" style="fill:none;stroke:#000000;"/>
    <path clip-path="url(#pce8c6c7a84)" d="M 303.64746 258.163778 
L 303.64746 248.844357 
" style="fill:none;stroke:#000000;"/>
    <path clip-path="url(#pce8c6c7a84)" d="M 401.403697 272.395471 
L 401.403697 262.777416 
" style="fill:none;stroke:#000000;"/>
    <path clip-path="url(#pce8c6c7a84)" d="M 499.159933 209.002595 
L 499.159933 198.743408 
" style="fill:none;stroke:#000000;"/>
    <path clip-path="url(#pce8c6c7a84)" d="M 596.916169 157.751869 
L 596.916169 149.276593 
" style="fill:none;stroke:#000000;"/>
    <path clip-path="url(#pce8c6c7a84)" d="M 694.672405 122.50857 
L 694.672405 98.571177 
" style="fill:none;stroke:#000000;"/>
    <path clip-path="url(#pce8c6c7a84)" d="M 792.428641 278.233458 
L 792.428641 262.930918 
" style="fill:none;stroke:#000000;"/>
   </g>
   <g id="line2d_14">
    <defs>
     <path d="M 2 0 
L -2 -0 
" id="m765254cec6" style="stroke:#000000;"/>
    </defs>
    <g clip-path="url(#pce8c6c7a84)">
     <use style="stroke:#000000;" x="140.7204" xlink:href="#m765254cec6" y="248.637272"/>
     <use style="stroke:#000000;" x="238.476636" xlink:href="#m765254cec6" y="243.00153"/>
     <use style="stroke:#000000;" x="336.232872" xlink:href="#m765254cec6" y="283.705909"/>
     <use style="stroke:#000000;" x="433.989109" xlink:href="#m765254cec6" y="266.022047"/>
     <use style="stroke:#000000;" x="531.745345" xlink:href="#m765254cec6" y="143.200514"/>
     <use style="stroke:#000000;" x="629.501581" xlink:href="#m765254cec6" y="64.362981"/>
     <use style="stroke:#000000;" x="727.257817" xlink:href="#m765254cec6" y="242.930083"/>
    </g>
   </g>
   <g id="line2d_15">
    <g clip-path="url(#pce8c6c7a84)">
     <use style="stroke:#000000;" x="140.7204" xlink:href="#m765254cec6" y="230.600301"/>
     <use style="stroke:#000000;" x="238.476636" xlink:href="#m765254cec6" y="231.436941"/>
     <use style="stroke:#000000;" x="336.232872" xlink:href="#m765254cec6" y="270.230441"/>
     <use style="stroke:#000000;" x="433.989109" xlink:href="#m765254cec6" y="249.390419"/>
     <use style="stroke:#000000;" x="531.745345" xlink:href="#m765254cec6" y="128.946015"/>
     <use style="stroke:#000000;" x="629.501581" xlink:href="#m765254cec6" y="32.024091"/>
     <use style="stroke:#000000;" x="727.257817" xlink:href="#m765254cec6" y="222.422826"/>
    </g>
   </g>
   <g id="line2d_16">
    <g clip-path="url(#pce8c6c7a84)">
     <use style="stroke:#000000;" x="157.013106" xlink:href="#m765254cec6" y="248.681344"/>
     <use style="stroke:#000000;" x="254.769342" xlink:href="#m765254cec6" y="243.967423"/>
     <use style="stroke:#000000;" x="352.525578" xlink:href="#m765254cec6" y="276.041349"/>
     <use style="stroke:#000000;" x="450.281815" xlink:href="#m765254cec6" y="250.376517"/>
     <use style="stroke:#000000;" x="548.038051" xlink:href="#m765254cec6" y="148.992441"/>
     <use style="stroke:#000000;" x="645.794287" xlink:href="#m765254cec6" y="82.905039"/>
     <use style="stroke:#000000;" x="743.550523" xlink:href="#m765254cec6" y="245.058246"/>
    </g>
   </g>
   <g id="line2d_17">
    <g clip-path="url(#pce8c6c7a84)">
     <use style="stroke:#000000;" x="157.013106" xlink:href="#m765254cec6" y="231.694871"/>
     <use style="stroke:#000000;" x="254.769342" xlink:href="#m765254cec6" y="233.20279"/>
     <use style="stroke:#000000;" x="352.525578" xlink:href="#m765254cec6" y="263.816771"/>
     <use style="stroke:#000000;" x="450.281815" xlink:href="#m765254cec6" y="236.107931"/>
     <use style="stroke:#000000;" x="548.038051" xlink:href="#m765254cec6" y="136.623961"/>
     <use style="stroke:#000000;" x="645.794287" xlink:href="#m765254cec6" y="53.833958"/>
     <use style="stroke:#000000;" x="743.550523" xlink:href="#m765254cec6" y="226.583377"/>
    </g>
   </g>
   <g id="line2d_18">
    <g clip-path="url(#pce8c6c7a84)">
     <use style="stroke:#000000;" x="173.305812" xlink:href="#m765254cec6" y="246.627795"/>
     <use style="stroke:#000000;" x="271.062048" xlink:href="#m765254cec6" y="246.87913"/>
     <use style="stroke:#000000;" x="368.818284" xlink:href="#m765254cec6" y="271.034113"/>
     <use style="stroke:#000000;" x="466.574521" xlink:href="#m765254cec6" y="234.034117"/>
     <use style="stroke:#000000;" x="564.330757" xlink:href="#m765254cec6" y="153.287492"/>
     <use style="stroke:#000000;" x="662.086993" xlink:href="#m765254cec6" y="99.634991"/>
     <use style="stroke:#000000;" x="759.843229" xlink:href="#m765254cec6" y="252.267575"/>
    </g>
   </g>
   <g id="line2d_19">
    <g clip-path="url(#pce8c6c7a84)">
     <use style="stroke:#000000;" x="173.305812" xlink:href="#m765254cec6" y="230.145464"/>
     <use style="stroke:#000000;" x="271.062048" xlink:href="#m765254cec6" y="236.820629"/>
     <use style="stroke:#000000;" x="368.818284" xlink:href="#m765254cec6" y="260.381235"/>
     <use style="stroke:#000000;" x="466.574521" xlink:href="#m765254cec6" y="221.795398"/>
     <use style="stroke:#000000;" x="564.330757" xlink:href="#m765254cec6" y="142.532533"/>
     <use style="stroke:#000000;" x="662.086993" xlink:href="#m765254cec6" y="73.284384"/>
     <use style="stroke:#000000;" x="759.843229" xlink:href="#m765254cec6" y="235.578683"/>
    </g>
   </g>
   <g id="line2d_20">
    <g clip-path="url(#pce8c6c7a84)">
     <use style="stroke:#000000;" x="189.598518" xlink:href="#m765254cec6" y="243.519861"/>
     <use style="stroke:#000000;" x="287.354754" xlink:href="#m765254cec6" y="251.7036"/>
     <use style="stroke:#000000;" x="385.11099" xlink:href="#m765254cec6" y="269.895596"/>
     <use style="stroke:#000000;" x="482.867227" xlink:href="#m765254cec6" y="219.87204"/>
     <use style="stroke:#000000;" x="580.623463" xlink:href="#m765254cec6" y="156.21168"/>
     <use style="stroke:#000000;" x="678.379699" xlink:href="#m765254cec6" y="113.527381"/>
     <use style="stroke:#000000;" x="776.135935" xlink:href="#m765254cec6" y="263.689156"/>
    </g>
   </g>
   <g id="line2d_21">
    <g clip-path="url(#pce8c6c7a84)">
     <use style="stroke:#000000;" x="189.598518" xlink:href="#m765254cec6" y="226.948869"/>
     <use style="stroke:#000000;" x="287.354754" xlink:href="#m765254cec6" y="242.15256"/>
     <use style="stroke:#000000;" x="385.11099" xlink:href="#m765254cec6" y="259.87089"/>
     <use style="stroke:#000000;" x="482.867227" xlink:href="#m765254cec6" y="208.989521"/>
     <use style="stroke:#000000;" x="580.623463" xlink:href="#m765254cec6" y="146.743949"/>
     <use style="stroke:#000000;" x="678.379699" xlink:href="#m765254cec6" y="88.938647"/>
     <use style="stroke:#000000;" x="776.135935" xlink:href="#m765254cec6" y="248.035468"/>
    </g>
   </g>
   <g id="line2d_22">
    <g clip-path="url(#pce8c6c7a84)">
     <use style="stroke:#000000;" x="205.891224" xlink:href="#m765254cec6" y="241.055079"/>
     <use style="stroke:#000000;" x="303.64746" xlink:href="#m765254cec6" y="258.163778"/>
     <use style="stroke:#000000;" x="401.403697" xlink:href="#m765254cec6" y="272.395471"/>
     <use style="stroke:#000000;" x="499.159933" xlink:href="#m765254cec6" y="209.002595"/>
     <use style="stroke:#000000;" x="596.916169" xlink:href="#m765254cec6" y="157.751869"/>
     <use style="stroke:#000000;" x="694.672405" xlink:href="#m765254cec6" y="122.50857"/>
     <use style="stroke:#000000;" x="792.428641" xlink:href="#m765254cec6" y="278.233458"/>
    </g>
   </g>
   <g id="line2d_23">
    <g clip-path="url(#pce8c6c7a84)">
     <use style="stroke:#000000;" x="205.891224" xlink:href="#m765254cec6" y="223.887386"/>
     <use style="stroke:#000000;" x="303.64746" xlink:href="#m765254cec6" y="248.844357"/>
     <use style="stroke:#000000;" x="401.403697" xlink:href="#m765254cec6" y="262.777416"/>
     <use style="stroke:#000000;" x="499.159933" xlink:href="#m765254cec6" y="198.743408"/>
     <use style="stroke:#000000;" x="596.916169" xlink:href="#m765254cec6" y="149.276593"/>
     <use style="stroke:#000000;" x="694.672405" xlink:href="#m765254cec6" y="98.571177"/>
     <use style="stroke:#000000;" x="792.428641" xlink:href="#m765254cec6" y="262.930918"/>
    </g>
   </g>
   <g id="patch_38">
    <path d="M 99.174 296.29 
L 99.174 19.44 
" style="fill:none;stroke:#000000;stroke-linecap:square;stroke-linejoin:miter;stroke-width:1.875;"/>
   </g>
   <g id="patch_39">
    <path d="M 833.975041 296.29 
L 833.975041 19.44 
" style="fill:none;stroke:#000000;stroke-linecap:square;stroke-linejoin:miter;stroke-width:1.875;"/>
   </g>
   <g id="patch_40">
    <path d="M 99.174 296.29 
L 833.975041 296.29 
" style="fill:none;stroke:#000000;stroke-linecap:square;stroke-linejoin:miter;stroke-width:1.875;"/>
   </g>
   <g id="patch_41">
    <path d="M 99.174 19.44 
L 833.975041 19.44 
" style="fill:none;stroke:#000000;stroke-linecap:square;stroke-linejoin:miter;stroke-width:1.875;"/>
   </g>
   <g id="legend_1">
    <g id="patch_42">
     <path d="M 856.173052 111.946016 
L 889.173052 111.946016 
L 889.173052 100.396016 
L 856.173052 100.396016 
z
" style="fill:#e15759;"/>
    </g>
    <g id="text_15">
     <!-- $D^2 (\alpha=0, \theta=1)$ -->
     <defs>
      <path d="M 16.890625 72.90625 
L 38.09375 72.90625 
Q 54.984375 72.90625 63.59375 65.75 
Q 72.21875 58.59375 72.21875 44.484375 
Q 72.21875 35.15625 68.9375 26.53125 
Q 65.671875 17.921875 59.90625 12.015625 
Q 54.109375 5.953125 45.171875 2.96875 
Q 36.234375 0 24.03125 0 
L 2.6875 0 
z
M 25.203125 64.796875 
L 14.203125 8.109375 
L 27.09375 8.109375 
Q 43.65625 8.109375 52.734375 17.625 
Q 61.8125 27.15625 61.8125 44.484375 
Q 61.8125 54.984375 55.953125 59.890625 
Q 50.09375 64.796875 37.59375 64.796875 
z
" id="DejaVuSans-Oblique-68"/>
      <path d="M 40.921875 25.4375 
L 40.96875 36.71875 
Q 41.015625 48.25 32.328125 48.296875 
Q 25.828125 48.34375 21.78125 42.921875 
Q 16.703125 36.234375 14.984375 27.296875 
Q 12.890625 16.546875 15.53125 11.421875 
Q 18.265625 6.203125 24.171875 6.203125 
Q 30.71875 6.203125 36.234375 16.609375 
z
M 33.84375 55.90625 
Q 49.078125 56.15625 48.875 40.375 
Q 48.875 40.375 56.5 54.6875 
L 64.5 54.6875 
L 48.734375 25.046875 
L 48.578125 14.359375 
Q 48.578125 11.96875 49.90625 9.96875 
Q 51.421875 7.625 52.984375 7.625 
L 57.328125 7.625 
L 55.859375 0 
L 50.4375 0 
Q 45.84375 0 42.53125 4.109375 
Q 40.96875 6.15625 40.921875 10.453125 
Q 37.75 5.21875 32.28125 0.78125 
Q 29.6875 -1.265625 22.703125 -1.21875 
Q 11.28125 -1.125 7.125 6.203125 
Q 2.875 13.8125 5.515625 27.296875 
Q 8.34375 41.796875 15.765625 48.390625 
Q 24.125 55.765625 33.84375 55.90625 
z
" id="DejaVuSans-Oblique-945"/>
      <path d="M 10.59375 45.40625 
L 73.1875 45.40625 
L 73.1875 37.203125 
L 10.59375 37.203125 
z
M 10.59375 25.484375 
L 73.1875 25.484375 
L 73.1875 17.1875 
L 10.59375 17.1875 
z
" id="DejaVuSans-61"/>
      <path d="M 11.71875 12.40625 
L 22.015625 12.40625 
L 22.015625 4 
L 14.015625 -11.625 
L 7.71875 -11.625 
L 11.71875 4 
z
" id="DejaVuSans-44"/>
      <path d="M 45.515625 34.671875 
L 14.453125 34.671875 
Q 12.359375 20.0625 14.5 13.875 
Q 17.1875 6.25 24.46875 6.25 
Q 31.78125 6.25 37.359375 13.921875 
Q 42.234375 20.65625 45.515625 34.671875 
z
M 47.015625 42.96875 
Q 48.34375 56.84375 46.625 61.71875 
Q 43.953125 69.4375 36.765625 69.4375 
Q 29.296875 69.4375 23.828125 61.8125 
Q 19.53125 55.671875 16.15625 42.96875 
z
M 38.1875 76.765625 
Q 49.90625 76.765625 54.59375 66.40625 
Q 59.28125 56.109375 55.71875 37.84375 
Q 52.203125 19.625 43.453125 9.28125 
Q 34.765625 -1.125 23.046875 -1.125 
Q 11.28125 -1.125 6.640625 9.28125 
Q 2 19.625 5.515625 37.84375 
Q 9.078125 56.109375 17.71875 66.40625 
Q 26.421875 76.765625 38.1875 76.765625 
z
" id="DejaVuSans-Oblique-952"/>
     </defs>
     <g transform="translate(902.373052 111.946016)scale(0.165 -0.165)">
      <use transform="translate(0 0.765625)" xlink:href="#DejaVuSans-Oblique-68"/>
      <use transform="translate(84.018724 39.046875)scale(0.7)" xlink:href="#DejaVuSans-50"/>
      <use transform="translate(131.289232 0.765625)" xlink:href="#DejaVuSans-40"/>
      <use transform="translate(170.302904 0.765625)" xlink:href="#DejaVuSans-Oblique-945"/>
      <use transform="translate(255.703294 0.765625)" xlink:href="#DejaVuSans-61"/>
      <use transform="translate(358.974779 0.765625)" xlink:href="#DejaVuSans-48"/>
      <use transform="translate(422.597826 0.765625)" xlink:href="#DejaVuSans-44"/>
      <use transform="translate(473.867357 0.765625)" xlink:href="#DejaVuSans-Oblique-952"/>
      <use transform="translate(554.531419 0.765625)" xlink:href="#DejaVuSans-61"/>
      <use transform="translate(657.802904 0.765625)" xlink:href="#DejaVuSans-49"/>
      <use transform="translate(721.425951 0.765625)" xlink:href="#DejaVuSans-41"/>
     </g>
    </g>
    <g id="patch_43">
     <path d="M 856.173052 137.521016 
L 889.173052 137.521016 
L 889.173052 125.971016 
L 856.173052 125.971016 
z
" style="fill:#c66f6f;"/>
    </g>
    <g id="text_16">
     <!-- $D^2 (\alpha=0.25, \theta=1)$ -->
     <g transform="translate(902.373052 137.521016)scale(0.165 -0.165)">
      <use transform="translate(0 0.765625)" xlink:href="#DejaVuSans-Oblique-68"/>
      <use transform="translate(84.018724 39.046875)scale(0.7)" xlink:href="#DejaVuSans-50"/>
      <use transform="translate(131.289232 0.765625)" xlink:href="#DejaVuSans-40"/>
      <use transform="translate(170.302904 0.765625)" xlink:href="#DejaVuSans-Oblique-945"/>
      <use transform="translate(255.703294 0.765625)" xlink:href="#DejaVuSans-61"/>
      <use transform="translate(358.974779 0.765625)" xlink:href="#DejaVuSans-48"/>
      <use transform="translate(422.597826 0.765625)" xlink:href="#DejaVuSans-46"/>
      <use transform="translate(448.884935 0.765625)" xlink:href="#DejaVuSans-50"/>
      <use transform="translate(512.507982 0.765625)" xlink:href="#DejaVuSans-53"/>
      <use transform="translate(576.131029 0.765625)" xlink:href="#DejaVuSans-44"/>
      <use transform="translate(627.40056 0.765625)" xlink:href="#DejaVuSans-Oblique-952"/>
      <use transform="translate(708.064622 0.765625)" xlink:href="#DejaVuSans-61"/>
      <use transform="translate(811.336107 0.765625)" xlink:href="#DejaVuSans-49"/>
      <use transform="translate(874.959154 0.765625)" xlink:href="#DejaVuSans-41"/>
     </g>
    </g>
    <g id="patch_44">
     <path d="M 856.173052 163.096016 
L 889.173052 163.096016 
L 889.173052 151.546016 
L 856.173052 151.546016 
z
" style="fill:#ac8786;"/>
    </g>
    <g id="text_17">
     <!-- $D^2 (\alpha=0.5, \theta=1)$ -->
     <g transform="translate(902.373052 163.096016)scale(0.165 -0.165)">
      <use transform="translate(0 0.765625)" xlink:href="#DejaVuSans-Oblique-68"/>
      <use transform="translate(84.018724 39.046875)scale(0.7)" xlink:href="#DejaVuSans-50"/>
      <use transform="translate(131.289232 0.765625)" xlink:href="#DejaVuSans-40"/>
      <use transform="translate(170.302904 0.765625)" xlink:href="#DejaVuSans-Oblique-945"/>
      <use transform="translate(255.703294 0.765625)" xlink:href="#DejaVuSans-61"/>
      <use transform="translate(358.974779 0.765625)" xlink:href="#DejaVuSans-48"/>
      <use transform="translate(422.597826 0.765625)" xlink:href="#DejaVuSans-46"/>
      <use transform="translate(454.384935 0.765625)" xlink:href="#DejaVuSans-53"/>
      <use transform="translate(518.007982 0.765625)" xlink:href="#DejaVuSans-44"/>
      <use transform="translate(569.277513 0.765625)" xlink:href="#DejaVuSans-Oblique-952"/>
      <use transform="translate(649.941576 0.765625)" xlink:href="#DejaVuSans-61"/>
      <use transform="translate(753.21306 0.765625)" xlink:href="#DejaVuSans-49"/>
      <use transform="translate(816.836107 0.765625)" xlink:href="#DejaVuSans-41"/>
     </g>
    </g>
    <g id="patch_45">
     <path d="M 856.173052 188.671016 
L 889.173052 188.671016 
L 889.173052 177.121016 
L 856.173052 177.121016 
z
" style="fill:#919f9c;"/>
    </g>
    <g id="text_18">
     <!-- $D^2 (\alpha=0.75, \theta=1)$ -->
     <defs>
      <path d="M 8.203125 72.90625 
L 55.078125 72.90625 
L 55.078125 68.703125 
L 28.609375 0 
L 18.3125 0 
L 43.21875 64.59375 
L 8.203125 64.59375 
z
" id="DejaVuSans-55"/>
     </defs>
     <g transform="translate(902.373052 188.671016)scale(0.165 -0.165)">
      <use transform="translate(0 0.765625)" xlink:href="#DejaVuSans-Oblique-68"/>
      <use transform="translate(84.018724 39.046875)scale(0.7)" xlink:href="#DejaVuSans-50"/>
      <use transform="translate(131.289232 0.765625)" xlink:href="#DejaVuSans-40"/>
      <use transform="translate(170.302904 0.765625)" xlink:href="#DejaVuSans-Oblique-945"/>
      <use transform="translate(255.703294 0.765625)" xlink:href="#DejaVuSans-61"/>
      <use transform="translate(358.974779 0.765625)" xlink:href="#DejaVuSans-48"/>
      <use transform="translate(422.597826 0.765625)" xlink:href="#DejaVuSans-46"/>
      <use transform="translate(446.634935 0.765625)" xlink:href="#DejaVuSans-55"/>
      <use transform="translate(510.257982 0.765625)" xlink:href="#DejaVuSans-53"/>
      <use transform="translate(573.881029 0.765625)" xlink:href="#DejaVuSans-44"/>
      <use transform="translate(625.15056 0.765625)" xlink:href="#DejaVuSans-Oblique-952"/>
      <use transform="translate(705.814622 0.765625)" xlink:href="#DejaVuSans-61"/>
      <use transform="translate(809.086107 0.765625)" xlink:href="#DejaVuSans-49"/>
      <use transform="translate(872.709154 0.765625)" xlink:href="#DejaVuSans-41"/>
     </g>
    </g>
    <g id="patch_46">
     <path d="M 856.173052 214.246016 
L 889.173052 214.246016 
L 889.173052 202.696016 
L 856.173052 202.696016 
z
" style="fill:#76b7b2;"/>
    </g>
    <g id="text_19">
     <!-- $D^2 (\alpha=1, \theta=1)$ -->
     <g transform="translate(902.373052 214.246016)scale(0.165 -0.165)">
      <use transform="translate(0 0.765625)" xlink:href="#DejaVuSans-Oblique-68"/>
      <use transform="translate(84.018724 39.046875)scale(0.7)" xlink:href="#DejaVuSans-50"/>
      <use transform="translate(131.289232 0.765625)" xlink:href="#DejaVuSans-40"/>
      <use transform="translate(170.302904 0.765625)" xlink:href="#DejaVuSans-Oblique-945"/>
      <use transform="translate(255.703294 0.765625)" xlink:href="#DejaVuSans-61"/>
      <use transform="translate(358.974779 0.765625)" xlink:href="#DejaVuSans-49"/>
      <use transform="translate(422.597826 0.765625)" xlink:href="#DejaVuSans-44"/>
      <use transform="translate(473.867357 0.765625)" xlink:href="#DejaVuSans-Oblique-952"/>
      <use transform="translate(554.531419 0.765625)" xlink:href="#DejaVuSans-61"/>
      <use transform="translate(657.802904 0.765625)" xlink:href="#DejaVuSans-49"/>
      <use transform="translate(721.425951 0.765625)" xlink:href="#DejaVuSans-41"/>
     </g>
    </g>
   </g>
  </g>
 </g>
 <defs>
  <clipPath id="pce8c6c7a84">
   <rect height="276.85" width="734.801041" x="99.174" y="19.44"/>
  </clipPath>
 </defs>
</svg>
