<?xml version="1.0" encoding="utf-8" standalone="no"?>
<!DOCTYPE svg PUBLIC "-//W3C//DTD SVG 1.1//EN"
  "http://www.w3.org/Graphics/SVG/1.1/DTD/svg11.dtd">
<!-- Created with matplotlib (https://matplotlib.org/) -->
<svg height="576pt" version="1.1" viewBox="0 0 720 576" width="720pt" xmlns="http://www.w3.org/2000/svg" xmlns:xlink="http://www.w3.org/1999/xlink">
 <defs>
  <style type="text/css">
*{stroke-linecap:butt;stroke-linejoin:round;}
  </style>
 </defs>
 <g id="figure_1">
  <g id="patch_1">
   <path d="M 0 576 
L 720 576 
L 720 0 
L 0 0 
z
" style="fill:#ffffff;"/>
  </g>
  <g id="axes_1">
   <g id="patch_2">
    <path d="M 78.744 501.756 
L 700.56 501.756 
L 700.56 19.44 
L 78.744 19.44 
z
" style="fill:#ffffff;"/>
   </g>
   <g id="LineCollection_1">
    <path clip-path="url(#p98c0dff019)" d="M 311.732166 298.681198 
L 348.103958 298.681198 
" style="fill:none;stroke:#cfcfcf;stroke-opacity:0.439216;stroke-width:2.25;"/>
    <path clip-path="url(#p98c0dff019)" d="M 177.984882 421.396831 
L 197.041199 421.396831 
" style="fill:none;stroke:#cfcfcf;stroke-opacity:0.439216;stroke-width:2.25;"/>
    <path clip-path="url(#p98c0dff019)" d="M 159.033939 437.942614 
L 164.229372 437.942614 
" style="fill:none;stroke:#cfcfcf;stroke-opacity:0.439216;stroke-width:2.25;"/>
    <path clip-path="url(#p98c0dff019)" d="M 190.812604 349.166953 
L 255.603799 349.166953 
" style="fill:none;stroke:#cfcfcf;stroke-opacity:0.439216;stroke-width:2.25;"/>
    <path clip-path="url(#p98c0dff019)" d="M 136.830497 457.51969 
L 139.48818 457.51969 
" style="fill:none;stroke:#cfcfcf;stroke-opacity:0.439216;stroke-width:2.25;"/>
    <path clip-path="url(#p98c0dff019)" d="M 118.483827 471.120434 
L 122.04126 471.120434 
" style="fill:none;stroke:#cfcfcf;stroke-opacity:0.439216;stroke-width:2.25;"/>
    <path clip-path="url(#p98c0dff019)" d="M 236.4347 356.482813 
L 303.242341 356.482813 
" style="fill:none;stroke:#cfcfcf;stroke-opacity:0.439216;stroke-width:2.25;"/>
    <path clip-path="url(#p98c0dff019)" d="M 214.212026 383.671122 
L 232.741148 383.671122 
" style="fill:none;stroke:#cfcfcf;stroke-opacity:0.439216;stroke-width:2.25;"/>
    <path clip-path="url(#p98c0dff019)" d="M 134.545916 443.239721 
L 166.424421 443.239721 
" style="fill:none;stroke:#cfcfcf;stroke-opacity:0.439216;stroke-width:2.25;"/>
    <path clip-path="url(#p98c0dff019)" d="M 430.148828 192.858065 
L 485.452172 192.858065 
" style="fill:none;stroke:#cfcfcf;stroke-opacity:0.439216;stroke-width:2.25;"/>
    <path clip-path="url(#p98c0dff019)" d="M 171.86426 427.098737 
L 179.772506 427.098737 
" style="fill:none;stroke:#cfcfcf;stroke-opacity:0.439216;stroke-width:2.25;"/>
    <path clip-path="url(#p98c0dff019)" d="M 120.882316 468.562542 
L 123.082437 468.562542 
" style="fill:none;stroke:#cfcfcf;stroke-opacity:0.439216;stroke-width:2.25;"/>
    <path clip-path="url(#p98c0dff019)" d="M 202.640659 397.340594 
L 219.315125 397.340594 
" style="fill:none;stroke:#cfcfcf;stroke-opacity:0.439216;stroke-width:2.25;"/>
    <path clip-path="url(#p98c0dff019)" d="M 192.311069 402.854062 
L 212.311743 402.854062 
" style="fill:none;stroke:#cfcfcf;stroke-opacity:0.439216;stroke-width:2.25;"/>
    <path clip-path="url(#p98c0dff019)" d="M 167.936931 428.586306 
L 183.360272 428.586306 
" style="fill:none;stroke:#cfcfcf;stroke-opacity:0.439216;stroke-width:2.25;"/>
    <path clip-path="url(#p98c0dff019)" d="M 139.176133 456.110613 
L 140.388629 456.110613 
" style="fill:none;stroke:#cfcfcf;stroke-opacity:0.439216;stroke-width:2.25;"/>
    <path clip-path="url(#p98c0dff019)" d="M 189.867788 407.116356 
L 206.110862 407.116356 
" style="fill:none;stroke:#cfcfcf;stroke-opacity:0.439216;stroke-width:2.25;"/>
    <path clip-path="url(#p98c0dff019)" d="M 168.392493 429.202377 
L 176.48393 429.202377 
" style="fill:none;stroke:#cfcfcf;stroke-opacity:0.439216;stroke-width:2.25;"/>
    <path clip-path="url(#p98c0dff019)" d="M 187.375882 410.279188 
L 199.611671 410.279188 
" style="fill:none;stroke:#cfcfcf;stroke-opacity:0.439216;stroke-width:2.25;"/>
    <path clip-path="url(#p98c0dff019)" d="M 198.957069 397.295218 
L 213.042454 397.295218 
" style="fill:none;stroke:#cfcfcf;stroke-opacity:0.439216;stroke-width:2.25;"/>
    <path clip-path="url(#p98c0dff019)" d="M 162.484009 427.132788 
L 176.457999 427.132788 
" style="fill:none;stroke:#cfcfcf;stroke-opacity:0.439216;stroke-width:2.25;"/>
    <path clip-path="url(#p98c0dff019)" d="M 146.243805 448.808704 
L 149.421928 448.808704 
" style="fill:none;stroke:#cfcfcf;stroke-opacity:0.439216;stroke-width:2.25;"/>
    <path clip-path="url(#p98c0dff019)" d="M 296.256654 298.748969 
L 337.580761 298.748969 
" style="fill:none;stroke:#cfcfcf;stroke-opacity:0.439216;stroke-width:2.25;"/>
    <path clip-path="url(#p98c0dff019)" d="M 140.58098 452.352873 
L 143.724587 452.352873 
" style="fill:none;stroke:#cfcfcf;stroke-opacity:0.439216;stroke-width:2.25;"/>
    <path clip-path="url(#p98c0dff019)" d="M 131.565181 460.562151 
L 134.217105 460.562151 
" style="fill:none;stroke:#cfcfcf;stroke-opacity:0.439216;stroke-width:2.25;"/>
    <path clip-path="url(#p98c0dff019)" d="M 173.182311 415.531915 
L 191.654473 415.531915 
" style="fill:none;stroke:#cfcfcf;stroke-opacity:0.439216;stroke-width:2.25;"/>
    <path clip-path="url(#p98c0dff019)" d="M 139.545498 453.61834 
L 142.887727 453.61834 
" style="fill:none;stroke:#cfcfcf;stroke-opacity:0.439216;stroke-width:2.25;"/>
    <path clip-path="url(#p98c0dff019)" d="M 405.698288 217.584628 
L 467.071445 217.584628 
" style="fill:none;stroke:#cfcfcf;stroke-opacity:0.439216;stroke-width:2.25;"/>
    <path clip-path="url(#p98c0dff019)" d="M 480.622467 146.032644 
L 546.370197 146.032644 
" style="fill:none;stroke:#cfcfcf;stroke-opacity:0.439216;stroke-width:2.25;"/>
    <path clip-path="url(#p98c0dff019)" d="M 527.273328 80.6494 
L 613.502666 80.6494 
" style="fill:none;stroke:#cfcfcf;stroke-opacity:0.439216;stroke-width:2.25;"/>
    <path clip-path="url(#p98c0dff019)" d="M 354.742509 276.19362 
L 412.050099 276.19362 
" style="fill:none;stroke:#cfcfcf;stroke-opacity:0.439216;stroke-width:2.25;"/>
    <path clip-path="url(#p98c0dff019)" d="M 193.016548 399.633671 
L 209.73946 399.633671 
" style="fill:none;stroke:#cfcfcf;stroke-opacity:0.439216;stroke-width:2.25;"/>
    <path clip-path="url(#p98c0dff019)" d="M 118.414889 471.699463 
L 120.654545 471.699463 
" style="fill:none;stroke:#cfcfcf;stroke-opacity:0.439216;stroke-width:2.25;"/>
    <path clip-path="url(#p98c0dff019)" d="M 155.231459 441.229324 
L 160.402678 441.229324 
" style="fill:none;stroke:#cfcfcf;stroke-opacity:0.439216;stroke-width:2.25;"/>
    <path clip-path="url(#p98c0dff019)" d="M 107.816958 468.865055 
L 124.964703 468.865055 
" style="fill:none;stroke:#cfcfcf;stroke-opacity:0.439216;stroke-width:2.25;"/>
    <path clip-path="url(#p98c0dff019)" d="M 134.435359 458.38378 
L 137.395943 458.38378 
" style="fill:none;stroke:#cfcfcf;stroke-opacity:0.439216;stroke-width:2.25;"/>
    <path clip-path="url(#p98c0dff019)" d="M 275.935206 323.163661 
L 312.088325 323.163661 
" style="fill:none;stroke:#cfcfcf;stroke-opacity:0.439216;stroke-width:2.25;"/>
    <path clip-path="url(#p98c0dff019)" d="M 179.617553 415.993837 
L 195.454536 415.993837 
" style="fill:none;stroke:#cfcfcf;stroke-opacity:0.439216;stroke-width:2.25;"/>
   </g>
   <g id="LineCollection_2">
    <path clip-path="url(#p98c0dff019)" d="M 329.918062 313.923917 
L 329.918062 283.438479 
" style="fill:none;stroke:#cfcfcf;stroke-opacity:0.439216;stroke-width:2.25;"/>
    <path clip-path="url(#p98c0dff019)" d="M 187.513041 429.518896 
L 187.513041 413.274767 
" style="fill:none;stroke:#cfcfcf;stroke-opacity:0.439216;stroke-width:2.25;"/>
    <path clip-path="url(#p98c0dff019)" d="M 161.631656 440.042599 
L 161.631656 435.842629 
" style="fill:none;stroke:#cfcfcf;stroke-opacity:0.439216;stroke-width:2.25;"/>
    <path clip-path="url(#p98c0dff019)" d="M 223.208202 377.702566 
L 223.208202 320.631341 
" style="fill:none;stroke:#cfcfcf;stroke-opacity:0.439216;stroke-width:2.25;"/>
    <path clip-path="url(#p98c0dff019)" d="M 138.159338 458.607952 
L 138.159338 456.431428 
" style="fill:none;stroke:#cfcfcf;stroke-opacity:0.439216;stroke-width:2.25;"/>
    <path clip-path="url(#p98c0dff019)" d="M 120.262543 472.558274 
L 120.262543 469.682594 
" style="fill:none;stroke:#cfcfcf;stroke-opacity:0.439216;stroke-width:2.25;"/>
    <path clip-path="url(#p98c0dff019)" d="M 269.838521 382.298235 
L 269.838521 330.667391 
" style="fill:none;stroke:#cfcfcf;stroke-opacity:0.439216;stroke-width:2.25;"/>
    <path clip-path="url(#p98c0dff019)" d="M 223.476587 391.698715 
L 223.476587 375.64353 
" style="fill:none;stroke:#cfcfcf;stroke-opacity:0.439216;stroke-width:2.25;"/>
    <path clip-path="url(#p98c0dff019)" d="M 150.485169 457.156081 
L 150.485169 429.323361 
" style="fill:none;stroke:#cfcfcf;stroke-opacity:0.439216;stroke-width:2.25;"/>
    <path clip-path="url(#p98c0dff019)" d="M 457.8005 217.29239 
L 457.8005 168.42374 
" style="fill:none;stroke:#cfcfcf;stroke-opacity:0.439216;stroke-width:2.25;"/>
    <path clip-path="url(#p98c0dff019)" d="M 175.818383 430.255621 
L 175.818383 423.941853 
" style="fill:none;stroke:#cfcfcf;stroke-opacity:0.439216;stroke-width:2.25;"/>
    <path clip-path="url(#p98c0dff019)" d="M 121.982377 469.321769 
L 121.982377 467.803315 
" style="fill:none;stroke:#cfcfcf;stroke-opacity:0.439216;stroke-width:2.25;"/>
    <path clip-path="url(#p98c0dff019)" d="M 210.977892 404.504468 
L 210.977892 390.17672 
" style="fill:none;stroke:#cfcfcf;stroke-opacity:0.439216;stroke-width:2.25;"/>
    <path clip-path="url(#p98c0dff019)" d="M 202.311406 411.000276 
L 202.311406 394.707848 
" style="fill:none;stroke:#cfcfcf;stroke-opacity:0.439216;stroke-width:2.25;"/>
    <path clip-path="url(#p98c0dff019)" d="M 175.648601 434.566997 
L 175.648601 422.605614 
" style="fill:none;stroke:#cfcfcf;stroke-opacity:0.439216;stroke-width:2.25;"/>
    <path clip-path="url(#p98c0dff019)" d="M 139.782381 456.618145 
L 139.782381 455.603081 
" style="fill:none;stroke:#cfcfcf;stroke-opacity:0.439216;stroke-width:2.25;"/>
    <path clip-path="url(#p98c0dff019)" d="M 197.989325 413.827278 
L 197.989325 400.405433 
" style="fill:none;stroke:#cfcfcf;stroke-opacity:0.439216;stroke-width:2.25;"/>
    <path clip-path="url(#p98c0dff019)" d="M 172.438212 432.483125 
L 172.438212 425.921629 
" style="fill:none;stroke:#cfcfcf;stroke-opacity:0.439216;stroke-width:2.25;"/>
    <path clip-path="url(#p98c0dff019)" d="M 193.493777 415.356388 
L 193.493777 405.201989 
" style="fill:none;stroke:#cfcfcf;stroke-opacity:0.439216;stroke-width:2.25;"/>
    <path clip-path="url(#p98c0dff019)" d="M 205.999761 403.521141 
L 205.999761 391.069296 
" style="fill:none;stroke:#cfcfcf;stroke-opacity:0.439216;stroke-width:2.25;"/>
    <path clip-path="url(#p98c0dff019)" d="M 169.471004 432.796156 
L 169.471004 421.46942 
" style="fill:none;stroke:#cfcfcf;stroke-opacity:0.439216;stroke-width:2.25;"/>
    <path clip-path="url(#p98c0dff019)" d="M 147.832866 450.013665 
L 147.832866 447.603742 
" style="fill:none;stroke:#cfcfcf;stroke-opacity:0.439216;stroke-width:2.25;"/>
    <path clip-path="url(#p98c0dff019)" d="M 316.918707 316.403085 
L 316.918707 281.094853 
" style="fill:none;stroke:#cfcfcf;stroke-opacity:0.439216;stroke-width:2.25;"/>
    <path clip-path="url(#p98c0dff019)" d="M 142.152784 453.496287 
L 142.152784 451.20946 
" style="fill:none;stroke:#cfcfcf;stroke-opacity:0.439216;stroke-width:2.25;"/>
    <path clip-path="url(#p98c0dff019)" d="M 132.891143 461.496799 
L 132.891143 459.627503 
" style="fill:none;stroke:#cfcfcf;stroke-opacity:0.439216;stroke-width:2.25;"/>
    <path clip-path="url(#p98c0dff019)" d="M 182.418392 423.009913 
L 182.418392 408.053916 
" style="fill:none;stroke:#cfcfcf;stroke-opacity:0.439216;stroke-width:2.25;"/>
    <path clip-path="url(#p98c0dff019)" d="M 141.216612 454.725023 
L 141.216612 452.511657 
" style="fill:none;stroke:#cfcfcf;stroke-opacity:0.439216;stroke-width:2.25;"/>
    <path clip-path="url(#p98c0dff019)" d="M 436.384867 241.102718 
L 436.384867 194.066539 
" style="fill:none;stroke:#cfcfcf;stroke-opacity:0.439216;stroke-width:2.25;"/>
    <path clip-path="url(#p98c0dff019)" d="M 513.496332 172.529196 
L 513.496332 119.536091 
" style="fill:none;stroke:#cfcfcf;stroke-opacity:0.439216;stroke-width:2.25;"/>
    <path clip-path="url(#p98c0dff019)" d="M 570.387997 119.935346 
L 570.387997 41.363455 
" style="fill:none;stroke:#cfcfcf;stroke-opacity:0.439216;stroke-width:2.25;"/>
    <path clip-path="url(#p98c0dff019)" d="M 383.396304 300.916859 
L 383.396304 251.470381 
" style="fill:none;stroke:#cfcfcf;stroke-opacity:0.439216;stroke-width:2.25;"/>
    <path clip-path="url(#p98c0dff019)" d="M 201.378004 406.826847 
L 201.378004 392.440496 
" style="fill:none;stroke:#cfcfcf;stroke-opacity:0.439216;stroke-width:2.25;"/>
    <path clip-path="url(#p98c0dff019)" d="M 119.534717 472.548458 
L 119.534717 470.850469 
" style="fill:none;stroke:#cfcfcf;stroke-opacity:0.439216;stroke-width:2.25;"/>
    <path clip-path="url(#p98c0dff019)" d="M 157.817069 443.310611 
L 157.817069 439.148037 
" style="fill:none;stroke:#cfcfcf;stroke-opacity:0.439216;stroke-width:2.25;"/>
    <path clip-path="url(#p98c0dff019)" d="M 116.390831 476.375673 
L 116.390831 461.354437 
" style="fill:none;stroke:#cfcfcf;stroke-opacity:0.439216;stroke-width:2.25;"/>
    <path clip-path="url(#p98c0dff019)" d="M 135.915651 459.504071 
L 135.915651 457.26349 
" style="fill:none;stroke:#cfcfcf;stroke-opacity:0.439216;stroke-width:2.25;"/>
    <path clip-path="url(#p98c0dff019)" d="M 294.011765 338.170989 
L 294.011765 308.156333 
" style="fill:none;stroke:#cfcfcf;stroke-opacity:0.439216;stroke-width:2.25;"/>
    <path clip-path="url(#p98c0dff019)" d="M 187.536045 422.457619 
L 187.536045 409.530056 
" style="fill:none;stroke:#cfcfcf;stroke-opacity:0.439216;stroke-width:2.25;"/>
   </g>
   <g id="line2d_1"/>
   <g id="matplotlib.axis_1">
    <g id="xtick_1">
     <g id="line2d_2">
      <defs>
       <path d="M 0 0 
L 0 9 
" id="mef80a4ec13" style="stroke:#000000;stroke-width:1.875;"/>
      </defs>
      <g>
       <use style="stroke:#000000;stroke-width:1.875;" x="92.3759" xlink:href="#mef80a4ec13" y="501.756"/>
      </g>
     </g>
     <g id="text_1">
      <!-- 0 -->
      <defs>
       <path d="M 31.78125 66.40625 
Q 24.171875 66.40625 20.328125 58.90625 
Q 16.5 51.421875 16.5 36.375 
Q 16.5 21.390625 20.328125 13.890625 
Q 24.171875 6.390625 31.78125 6.390625 
Q 39.453125 6.390625 43.28125 13.890625 
Q 47.125 21.390625 47.125 36.375 
Q 47.125 51.421875 43.28125 58.90625 
Q 39.453125 66.40625 31.78125 66.40625 
z
M 31.78125 74.21875 
Q 44.046875 74.21875 50.515625 64.515625 
Q 56.984375 54.828125 56.984375 36.375 
Q 56.984375 17.96875 50.515625 8.265625 
Q 44.046875 -1.421875 31.78125 -1.421875 
Q 19.53125 -1.421875 13.0625 8.265625 
Q 6.59375 17.96875 6.59375 36.375 
Q 6.59375 54.828125 13.0625 64.515625 
Q 19.53125 74.21875 31.78125 74.21875 
z
" id="DejaVuSans-48"/>
      </defs>
      <g transform="translate(87.126837 526.793422)scale(0.165 -0.165)">
       <use xlink:href="#DejaVuSans-48"/>
      </g>
     </g>
    </g>
    <g id="xtick_2">
     <g id="line2d_3">
      <g>
       <use style="stroke:#000000;stroke-width:1.875;" x="172.894515" xlink:href="#mef80a4ec13" y="501.756"/>
      </g>
     </g>
     <g id="text_2">
      <!-- 2 -->
      <defs>
       <path d="M 19.1875 8.296875 
L 53.609375 8.296875 
L 53.609375 0 
L 7.328125 0 
L 7.328125 8.296875 
Q 12.9375 14.109375 22.625 23.890625 
Q 32.328125 33.6875 34.8125 36.53125 
Q 39.546875 41.84375 41.421875 45.53125 
Q 43.3125 49.21875 43.3125 52.78125 
Q 43.3125 58.59375 39.234375 62.25 
Q 35.15625 65.921875 28.609375 65.921875 
Q 23.96875 65.921875 18.8125 64.3125 
Q 13.671875 62.703125 7.8125 59.421875 
L 7.8125 69.390625 
Q 13.765625 71.78125 18.9375 73 
Q 24.125 74.21875 28.421875 74.21875 
Q 39.75 74.21875 46.484375 68.546875 
Q 53.21875 62.890625 53.21875 53.421875 
Q 53.21875 48.921875 51.53125 44.890625 
Q 49.859375 40.875 45.40625 35.40625 
Q 44.1875 33.984375 37.640625 27.21875 
Q 31.109375 20.453125 19.1875 8.296875 
z
" id="DejaVuSans-50"/>
      </defs>
      <g transform="translate(167.645453 526.793422)scale(0.165 -0.165)">
       <use xlink:href="#DejaVuSans-50"/>
      </g>
     </g>
    </g>
    <g id="xtick_3">
     <g id="line2d_4">
      <g>
       <use style="stroke:#000000;stroke-width:1.875;" x="253.413131" xlink:href="#mef80a4ec13" y="501.756"/>
      </g>
     </g>
     <g id="text_3">
      <!-- 4 -->
      <defs>
       <path d="M 37.796875 64.3125 
L 12.890625 25.390625 
L 37.796875 25.390625 
z
M 35.203125 72.90625 
L 47.609375 72.90625 
L 47.609375 25.390625 
L 58.015625 25.390625 
L 58.015625 17.1875 
L 47.609375 17.1875 
L 47.609375 0 
L 37.796875 0 
L 37.796875 17.1875 
L 4.890625 17.1875 
L 4.890625 26.703125 
z
" id="DejaVuSans-52"/>
      </defs>
      <g transform="translate(248.164068 526.793422)scale(0.165 -0.165)">
       <use xlink:href="#DejaVuSans-52"/>
      </g>
     </g>
    </g>
    <g id="xtick_4">
     <g id="line2d_5">
      <g>
       <use style="stroke:#000000;stroke-width:1.875;" x="333.931746" xlink:href="#mef80a4ec13" y="501.756"/>
      </g>
     </g>
     <g id="text_4">
      <!-- 6 -->
      <defs>
       <path d="M 33.015625 40.375 
Q 26.375 40.375 22.484375 35.828125 
Q 18.609375 31.296875 18.609375 23.390625 
Q 18.609375 15.53125 22.484375 10.953125 
Q 26.375 6.390625 33.015625 6.390625 
Q 39.65625 6.390625 43.53125 10.953125 
Q 47.40625 15.53125 47.40625 23.390625 
Q 47.40625 31.296875 43.53125 35.828125 
Q 39.65625 40.375 33.015625 40.375 
z
M 52.59375 71.296875 
L 52.59375 62.3125 
Q 48.875 64.0625 45.09375 64.984375 
Q 41.3125 65.921875 37.59375 65.921875 
Q 27.828125 65.921875 22.671875 59.328125 
Q 17.53125 52.734375 16.796875 39.40625 
Q 19.671875 43.65625 24.015625 45.921875 
Q 28.375 48.1875 33.59375 48.1875 
Q 44.578125 48.1875 50.953125 41.515625 
Q 57.328125 34.859375 57.328125 23.390625 
Q 57.328125 12.15625 50.6875 5.359375 
Q 44.046875 -1.421875 33.015625 -1.421875 
Q 20.359375 -1.421875 13.671875 8.265625 
Q 6.984375 17.96875 6.984375 36.375 
Q 6.984375 53.65625 15.1875 63.9375 
Q 23.390625 74.21875 37.203125 74.21875 
Q 40.921875 74.21875 44.703125 73.484375 
Q 48.484375 72.75 52.59375 71.296875 
z
" id="DejaVuSans-54"/>
      </defs>
      <g transform="translate(328.682684 526.793422)scale(0.165 -0.165)">
       <use xlink:href="#DejaVuSans-54"/>
      </g>
     </g>
    </g>
    <g id="xtick_5">
     <g id="line2d_6">
      <g>
       <use style="stroke:#000000;stroke-width:1.875;" x="414.450362" xlink:href="#mef80a4ec13" y="501.756"/>
      </g>
     </g>
     <g id="text_5">
      <!-- 8 -->
      <defs>
       <path d="M 31.78125 34.625 
Q 24.75 34.625 20.71875 30.859375 
Q 16.703125 27.09375 16.703125 20.515625 
Q 16.703125 13.921875 20.71875 10.15625 
Q 24.75 6.390625 31.78125 6.390625 
Q 38.8125 6.390625 42.859375 10.171875 
Q 46.921875 13.96875 46.921875 20.515625 
Q 46.921875 27.09375 42.890625 30.859375 
Q 38.875 34.625 31.78125 34.625 
z
M 21.921875 38.8125 
Q 15.578125 40.375 12.03125 44.71875 
Q 8.5 49.078125 8.5 55.328125 
Q 8.5 64.0625 14.71875 69.140625 
Q 20.953125 74.21875 31.78125 74.21875 
Q 42.671875 74.21875 48.875 69.140625 
Q 55.078125 64.0625 55.078125 55.328125 
Q 55.078125 49.078125 51.53125 44.71875 
Q 48 40.375 41.703125 38.8125 
Q 48.828125 37.15625 52.796875 32.3125 
Q 56.78125 27.484375 56.78125 20.515625 
Q 56.78125 9.90625 50.3125 4.234375 
Q 43.84375 -1.421875 31.78125 -1.421875 
Q 19.734375 -1.421875 13.25 4.234375 
Q 6.78125 9.90625 6.78125 20.515625 
Q 6.78125 27.484375 10.78125 32.3125 
Q 14.796875 37.15625 21.921875 38.8125 
z
M 18.3125 54.390625 
Q 18.3125 48.734375 21.84375 45.5625 
Q 25.390625 42.390625 31.78125 42.390625 
Q 38.140625 42.390625 41.71875 45.5625 
Q 45.3125 48.734375 45.3125 54.390625 
Q 45.3125 60.0625 41.71875 63.234375 
Q 38.140625 66.40625 31.78125 66.40625 
Q 25.390625 66.40625 21.84375 63.234375 
Q 18.3125 60.0625 18.3125 54.390625 
z
" id="DejaVuSans-56"/>
      </defs>
      <g transform="translate(409.201299 526.793422)scale(0.165 -0.165)">
       <use xlink:href="#DejaVuSans-56"/>
      </g>
     </g>
    </g>
    <g id="xtick_6">
     <g id="line2d_7">
      <g>
       <use style="stroke:#000000;stroke-width:1.875;" x="494.968977" xlink:href="#mef80a4ec13" y="501.756"/>
      </g>
     </g>
     <g id="text_6">
      <!-- 10 -->
      <defs>
       <path d="M 12.40625 8.296875 
L 28.515625 8.296875 
L 28.515625 63.921875 
L 10.984375 60.40625 
L 10.984375 69.390625 
L 28.421875 72.90625 
L 38.28125 72.90625 
L 38.28125 8.296875 
L 54.390625 8.296875 
L 54.390625 0 
L 12.40625 0 
z
" id="DejaVuSans-49"/>
      </defs>
      <g transform="translate(484.470852 526.793422)scale(0.165 -0.165)">
       <use xlink:href="#DejaVuSans-49"/>
       <use x="63.623047" xlink:href="#DejaVuSans-48"/>
      </g>
     </g>
    </g>
    <g id="xtick_7">
     <g id="line2d_8">
      <g>
       <use style="stroke:#000000;stroke-width:1.875;" x="575.487593" xlink:href="#mef80a4ec13" y="501.756"/>
      </g>
     </g>
     <g id="text_7">
      <!-- 12 -->
      <g transform="translate(564.989468 526.793422)scale(0.165 -0.165)">
       <use xlink:href="#DejaVuSans-49"/>
       <use x="63.623047" xlink:href="#DejaVuSans-50"/>
      </g>
     </g>
    </g>
    <g id="xtick_8">
     <g id="line2d_9">
      <g>
       <use style="stroke:#000000;stroke-width:1.875;" x="656.006208" xlink:href="#mef80a4ec13" y="501.756"/>
      </g>
     </g>
     <g id="text_8">
      <!-- 14 -->
      <g transform="translate(645.508083 526.793422)scale(0.165 -0.165)">
       <use xlink:href="#DejaVuSans-49"/>
       <use x="63.623047" xlink:href="#DejaVuSans-52"/>
      </g>
     </g>
    </g>
    <g id="text_9">
     <!-- Enrichment - $D^2 (\alpha=1, \theta=1)$ -->
     <defs>
      <path d="M 9.8125 72.90625 
L 55.90625 72.90625 
L 55.90625 64.59375 
L 19.671875 64.59375 
L 19.671875 43.015625 
L 54.390625 43.015625 
L 54.390625 34.71875 
L 19.671875 34.71875 
L 19.671875 8.296875 
L 56.78125 8.296875 
L 56.78125 0 
L 9.8125 0 
z
" id="DejaVuSans-69"/>
      <path d="M 54.890625 33.015625 
L 54.890625 0 
L 45.90625 0 
L 45.90625 32.71875 
Q 45.90625 40.484375 42.875 44.328125 
Q 39.84375 48.1875 33.796875 48.1875 
Q 26.515625 48.1875 22.3125 43.546875 
Q 18.109375 38.921875 18.109375 30.90625 
L 18.109375 0 
L 9.078125 0 
L 9.078125 54.6875 
L 18.109375 54.6875 
L 18.109375 46.1875 
Q 21.34375 51.125 25.703125 53.5625 
Q 30.078125 56 35.796875 56 
Q 45.21875 56 50.046875 50.171875 
Q 54.890625 44.34375 54.890625 33.015625 
z
" id="DejaVuSans-110"/>
      <path d="M 41.109375 46.296875 
Q 39.59375 47.171875 37.8125 47.578125 
Q 36.03125 48 33.890625 48 
Q 26.265625 48 22.1875 43.046875 
Q 18.109375 38.09375 18.109375 28.8125 
L 18.109375 0 
L 9.078125 0 
L 9.078125 54.6875 
L 18.109375 54.6875 
L 18.109375 46.1875 
Q 20.953125 51.171875 25.484375 53.578125 
Q 30.03125 56 36.53125 56 
Q 37.453125 56 38.578125 55.875 
Q 39.703125 55.765625 41.0625 55.515625 
z
" id="DejaVuSans-114"/>
      <path d="M 9.421875 54.6875 
L 18.40625 54.6875 
L 18.40625 0 
L 9.421875 0 
z
M 9.421875 75.984375 
L 18.40625 75.984375 
L 18.40625 64.59375 
L 9.421875 64.59375 
z
" id="DejaVuSans-105"/>
      <path d="M 48.78125 52.59375 
L 48.78125 44.1875 
Q 44.96875 46.296875 41.140625 47.34375 
Q 37.3125 48.390625 33.40625 48.390625 
Q 24.65625 48.390625 19.8125 42.84375 
Q 14.984375 37.3125 14.984375 27.296875 
Q 14.984375 17.28125 19.8125 11.734375 
Q 24.65625 6.203125 33.40625 6.203125 
Q 37.3125 6.203125 41.140625 7.25 
Q 44.96875 8.296875 48.78125 10.40625 
L 48.78125 2.09375 
Q 45.015625 0.34375 40.984375 -0.53125 
Q 36.96875 -1.421875 32.421875 -1.421875 
Q 20.0625 -1.421875 12.78125 6.34375 
Q 5.515625 14.109375 5.515625 27.296875 
Q 5.515625 40.671875 12.859375 48.328125 
Q 20.21875 56 33.015625 56 
Q 37.15625 56 41.109375 55.140625 
Q 45.0625 54.296875 48.78125 52.59375 
z
" id="DejaVuSans-99"/>
      <path d="M 54.890625 33.015625 
L 54.890625 0 
L 45.90625 0 
L 45.90625 32.71875 
Q 45.90625 40.484375 42.875 44.328125 
Q 39.84375 48.1875 33.796875 48.1875 
Q 26.515625 48.1875 22.3125 43.546875 
Q 18.109375 38.921875 18.109375 30.90625 
L 18.109375 0 
L 9.078125 0 
L 9.078125 75.984375 
L 18.109375 75.984375 
L 18.109375 46.1875 
Q 21.34375 51.125 25.703125 53.5625 
Q 30.078125 56 35.796875 56 
Q 45.21875 56 50.046875 50.171875 
Q 54.890625 44.34375 54.890625 33.015625 
z
" id="DejaVuSans-104"/>
      <path d="M 52 44.1875 
Q 55.375 50.25 60.0625 53.125 
Q 64.75 56 71.09375 56 
Q 79.640625 56 84.28125 50.015625 
Q 88.921875 44.046875 88.921875 33.015625 
L 88.921875 0 
L 79.890625 0 
L 79.890625 32.71875 
Q 79.890625 40.578125 77.09375 44.375 
Q 74.3125 48.1875 68.609375 48.1875 
Q 61.625 48.1875 57.5625 43.546875 
Q 53.515625 38.921875 53.515625 30.90625 
L 53.515625 0 
L 44.484375 0 
L 44.484375 32.71875 
Q 44.484375 40.625 41.703125 44.40625 
Q 38.921875 48.1875 33.109375 48.1875 
Q 26.21875 48.1875 22.15625 43.53125 
Q 18.109375 38.875 18.109375 30.90625 
L 18.109375 0 
L 9.078125 0 
L 9.078125 54.6875 
L 18.109375 54.6875 
L 18.109375 46.1875 
Q 21.1875 51.21875 25.484375 53.609375 
Q 29.78125 56 35.6875 56 
Q 41.65625 56 45.828125 52.96875 
Q 50 49.953125 52 44.1875 
z
" id="DejaVuSans-109"/>
      <path d="M 56.203125 29.59375 
L 56.203125 25.203125 
L 14.890625 25.203125 
Q 15.484375 15.921875 20.484375 11.0625 
Q 25.484375 6.203125 34.421875 6.203125 
Q 39.59375 6.203125 44.453125 7.46875 
Q 49.3125 8.734375 54.109375 11.28125 
L 54.109375 2.78125 
Q 49.265625 0.734375 44.1875 -0.34375 
Q 39.109375 -1.421875 33.890625 -1.421875 
Q 20.796875 -1.421875 13.15625 6.1875 
Q 5.515625 13.8125 5.515625 26.8125 
Q 5.515625 40.234375 12.765625 48.109375 
Q 20.015625 56 32.328125 56 
Q 43.359375 56 49.78125 48.890625 
Q 56.203125 41.796875 56.203125 29.59375 
z
M 47.21875 32.234375 
Q 47.125 39.59375 43.09375 43.984375 
Q 39.0625 48.390625 32.421875 48.390625 
Q 24.90625 48.390625 20.390625 44.140625 
Q 15.875 39.890625 15.1875 32.171875 
z
" id="DejaVuSans-101"/>
      <path d="M 18.3125 70.21875 
L 18.3125 54.6875 
L 36.8125 54.6875 
L 36.8125 47.703125 
L 18.3125 47.703125 
L 18.3125 18.015625 
Q 18.3125 11.328125 20.140625 9.421875 
Q 21.96875 7.515625 27.59375 7.515625 
L 36.8125 7.515625 
L 36.8125 0 
L 27.59375 0 
Q 17.1875 0 13.234375 3.875 
Q 9.28125 7.765625 9.28125 18.015625 
L 9.28125 47.703125 
L 2.6875 47.703125 
L 2.6875 54.6875 
L 9.28125 54.6875 
L 9.28125 70.21875 
z
" id="DejaVuSans-116"/>
      <path id="DejaVuSans-32"/>
      <path d="M 4.890625 31.390625 
L 31.203125 31.390625 
L 31.203125 23.390625 
L 4.890625 23.390625 
z
" id="DejaVuSans-45"/>
      <path d="M 16.890625 72.90625 
L 38.09375 72.90625 
Q 54.984375 72.90625 63.59375 65.75 
Q 72.21875 58.59375 72.21875 44.484375 
Q 72.21875 35.15625 68.9375 26.53125 
Q 65.671875 17.921875 59.90625 12.015625 
Q 54.109375 5.953125 45.171875 2.96875 
Q 36.234375 0 24.03125 0 
L 2.6875 0 
z
M 25.203125 64.796875 
L 14.203125 8.109375 
L 27.09375 8.109375 
Q 43.65625 8.109375 52.734375 17.625 
Q 61.8125 27.15625 61.8125 44.484375 
Q 61.8125 54.984375 55.953125 59.890625 
Q 50.09375 64.796875 37.59375 64.796875 
z
" id="DejaVuSans-Oblique-68"/>
      <path d="M 31 75.875 
Q 24.46875 64.65625 21.28125 53.65625 
Q 18.109375 42.671875 18.109375 31.390625 
Q 18.109375 20.125 21.3125 9.0625 
Q 24.515625 -2 31 -13.1875 
L 23.1875 -13.1875 
Q 15.875 -1.703125 12.234375 9.375 
Q 8.59375 20.453125 8.59375 31.390625 
Q 8.59375 42.28125 12.203125 53.3125 
Q 15.828125 64.359375 23.1875 75.875 
z
" id="DejaVuSans-40"/>
      <path d="M 40.921875 25.4375 
L 40.96875 36.71875 
Q 41.015625 48.25 32.328125 48.296875 
Q 25.828125 48.34375 21.78125 42.921875 
Q 16.703125 36.234375 14.984375 27.296875 
Q 12.890625 16.546875 15.53125 11.421875 
Q 18.265625 6.203125 24.171875 6.203125 
Q 30.71875 6.203125 36.234375 16.609375 
z
M 33.84375 55.90625 
Q 49.078125 56.15625 48.875 40.375 
Q 48.875 40.375 56.5 54.6875 
L 64.5 54.6875 
L 48.734375 25.046875 
L 48.578125 14.359375 
Q 48.578125 11.96875 49.90625 9.96875 
Q 51.421875 7.625 52.984375 7.625 
L 57.328125 7.625 
L 55.859375 0 
L 50.4375 0 
Q 45.84375 0 42.53125 4.109375 
Q 40.96875 6.15625 40.921875 10.453125 
Q 37.75 5.21875 32.28125 0.78125 
Q 29.6875 -1.265625 22.703125 -1.21875 
Q 11.28125 -1.125 7.125 6.203125 
Q 2.875 13.8125 5.515625 27.296875 
Q 8.34375 41.796875 15.765625 48.390625 
Q 24.125 55.765625 33.84375 55.90625 
z
" id="DejaVuSans-Oblique-945"/>
      <path d="M 10.59375 45.40625 
L 73.1875 45.40625 
L 73.1875 37.203125 
L 10.59375 37.203125 
z
M 10.59375 25.484375 
L 73.1875 25.484375 
L 73.1875 17.1875 
L 10.59375 17.1875 
z
" id="DejaVuSans-61"/>
      <path d="M 11.71875 12.40625 
L 22.015625 12.40625 
L 22.015625 4 
L 14.015625 -11.625 
L 7.71875 -11.625 
L 11.71875 4 
z
" id="DejaVuSans-44"/>
      <path d="M 45.515625 34.671875 
L 14.453125 34.671875 
Q 12.359375 20.0625 14.5 13.875 
Q 17.1875 6.25 24.46875 6.25 
Q 31.78125 6.25 37.359375 13.921875 
Q 42.234375 20.65625 45.515625 34.671875 
z
M 47.015625 42.96875 
Q 48.34375 56.84375 46.625 61.71875 
Q 43.953125 69.4375 36.765625 69.4375 
Q 29.296875 69.4375 23.828125 61.8125 
Q 19.53125 55.671875 16.15625 42.96875 
z
M 38.1875 76.765625 
Q 49.90625 76.765625 54.59375 66.40625 
Q 59.28125 56.109375 55.71875 37.84375 
Q 52.203125 19.625 43.453125 9.28125 
Q 34.765625 -1.125 23.046875 -1.125 
Q 11.28125 -1.125 6.640625 9.28125 
Q 2 19.625 5.515625 37.84375 
Q 9.078125 56.109375 17.71875 66.40625 
Q 26.421875 76.765625 38.1875 76.765625 
z
" id="DejaVuSans-Oblique-952"/>
      <path d="M 8.015625 75.875 
L 15.828125 75.875 
Q 23.140625 64.359375 26.78125 53.3125 
Q 30.421875 42.28125 30.421875 31.390625 
Q 30.421875 20.453125 26.78125 9.375 
Q 23.140625 -1.703125 15.828125 -13.1875 
L 8.015625 -13.1875 
Q 14.5 -2 17.703125 9.0625 
Q 20.90625 20.125 20.90625 31.390625 
Q 20.90625 42.671875 17.703125 53.65625 
Q 14.5 64.65625 8.015625 75.875 
z
" id="DejaVuSans-41"/>
     </defs>
     <g transform="translate(260.412 549.381469)scale(0.18 -0.18)">
      <use transform="translate(0 0.765625)" xlink:href="#DejaVuSans-69"/>
      <use transform="translate(63.183594 0.765625)" xlink:href="#DejaVuSans-110"/>
      <use transform="translate(126.5625 0.765625)" xlink:href="#DejaVuSans-114"/>
      <use transform="translate(167.675781 0.765625)" xlink:href="#DejaVuSans-105"/>
      <use transform="translate(195.458984 0.765625)" xlink:href="#DejaVuSans-99"/>
      <use transform="translate(250.439453 0.765625)" xlink:href="#DejaVuSans-104"/>
      <use transform="translate(313.818359 0.765625)" xlink:href="#DejaVuSans-109"/>
      <use transform="translate(411.230469 0.765625)" xlink:href="#DejaVuSans-101"/>
      <use transform="translate(472.753906 0.765625)" xlink:href="#DejaVuSans-110"/>
      <use transform="translate(536.132812 0.765625)" xlink:href="#DejaVuSans-116"/>
      <use transform="translate(575.341797 0.765625)" xlink:href="#DejaVuSans-32"/>
      <use transform="translate(607.128906 0.765625)" xlink:href="#DejaVuSans-45"/>
      <use transform="translate(643.212891 0.765625)" xlink:href="#DejaVuSans-32"/>
      <use transform="translate(675 0.765625)" xlink:href="#DejaVuSans-Oblique-68"/>
      <use transform="translate(759.018724 39.046875)scale(0.7)" xlink:href="#DejaVuSans-50"/>
      <use transform="translate(806.289232 0.765625)" xlink:href="#DejaVuSans-40"/>
      <use transform="translate(845.302904 0.765625)" xlink:href="#DejaVuSans-Oblique-945"/>
      <use transform="translate(930.703294 0.765625)" xlink:href="#DejaVuSans-61"/>
      <use transform="translate(1033.974779 0.765625)" xlink:href="#DejaVuSans-49"/>
      <use transform="translate(1097.597826 0.765625)" xlink:href="#DejaVuSans-44"/>
      <use transform="translate(1148.867357 0.765625)" xlink:href="#DejaVuSans-Oblique-952"/>
      <use transform="translate(1229.531419 0.765625)" xlink:href="#DejaVuSans-61"/>
      <use transform="translate(1332.802904 0.765625)" xlink:href="#DejaVuSans-49"/>
      <use transform="translate(1396.425951 0.765625)" xlink:href="#DejaVuSans-41"/>
     </g>
    </g>
   </g>
   <g id="matplotlib.axis_2">
    <g id="ytick_1">
     <g id="line2d_10">
      <defs>
       <path d="M 0 0 
L -9 0 
" id="m5cb223b1dd" style="stroke:#000000;stroke-width:1.875;"/>
      </defs>
      <g>
       <use style="stroke:#000000;stroke-width:1.875;" x="78.744" xlink:href="#m5cb223b1dd" y="489.600202"/>
      </g>
     </g>
     <g id="text_10">
      <!-- 0 -->
      <g transform="translate(55.745875 495.868913)scale(0.165 -0.165)">
       <use xlink:href="#DejaVuSans-48"/>
      </g>
     </g>
    </g>
    <g id="ytick_2">
     <g id="line2d_11">
      <g>
       <use style="stroke:#000000;stroke-width:1.875;" x="78.744" xlink:href="#m5cb223b1dd" y="432.819668"/>
      </g>
     </g>
     <g id="text_11">
      <!-- 2 -->
      <g transform="translate(55.745875 439.088379)scale(0.165 -0.165)">
       <use xlink:href="#DejaVuSans-50"/>
      </g>
     </g>
    </g>
    <g id="ytick_3">
     <g id="line2d_12">
      <g>
       <use style="stroke:#000000;stroke-width:1.875;" x="78.744" xlink:href="#m5cb223b1dd" y="376.039134"/>
      </g>
     </g>
     <g id="text_12">
      <!-- 4 -->
      <g transform="translate(55.745875 382.307845)scale(0.165 -0.165)">
       <use xlink:href="#DejaVuSans-52"/>
      </g>
     </g>
    </g>
    <g id="ytick_4">
     <g id="line2d_13">
      <g>
       <use style="stroke:#000000;stroke-width:1.875;" x="78.744" xlink:href="#m5cb223b1dd" y="319.2586"/>
      </g>
     </g>
     <g id="text_13">
      <!-- 6 -->
      <g transform="translate(55.745875 325.527311)scale(0.165 -0.165)">
       <use xlink:href="#DejaVuSans-54"/>
      </g>
     </g>
    </g>
    <g id="ytick_5">
     <g id="line2d_14">
      <g>
       <use style="stroke:#000000;stroke-width:1.875;" x="78.744" xlink:href="#m5cb223b1dd" y="262.478066"/>
      </g>
     </g>
     <g id="text_14">
      <!-- 8 -->
      <g transform="translate(55.745875 268.746777)scale(0.165 -0.165)">
       <use xlink:href="#DejaVuSans-56"/>
      </g>
     </g>
    </g>
    <g id="ytick_6">
     <g id="line2d_15">
      <g>
       <use style="stroke:#000000;stroke-width:1.875;" x="78.744" xlink:href="#m5cb223b1dd" y="205.697532"/>
      </g>
     </g>
     <g id="text_15">
      <!-- 10 -->
      <g transform="translate(45.24775 211.966243)scale(0.165 -0.165)">
       <use xlink:href="#DejaVuSans-49"/>
       <use x="63.623047" xlink:href="#DejaVuSans-48"/>
      </g>
     </g>
    </g>
    <g id="ytick_7">
     <g id="line2d_16">
      <g>
       <use style="stroke:#000000;stroke-width:1.875;" x="78.744" xlink:href="#m5cb223b1dd" y="148.916998"/>
      </g>
     </g>
     <g id="text_16">
      <!-- 12 -->
      <g transform="translate(45.24775 155.185708)scale(0.165 -0.165)">
       <use xlink:href="#DejaVuSans-49"/>
       <use x="63.623047" xlink:href="#DejaVuSans-50"/>
      </g>
     </g>
    </g>
    <g id="ytick_8">
     <g id="line2d_17">
      <g>
       <use style="stroke:#000000;stroke-width:1.875;" x="78.744" xlink:href="#m5cb223b1dd" y="92.136463"/>
      </g>
     </g>
     <g id="text_17">
      <!-- 14 -->
      <g transform="translate(45.24775 98.405174)scale(0.165 -0.165)">
       <use xlink:href="#DejaVuSans-49"/>
       <use x="63.623047" xlink:href="#DejaVuSans-52"/>
      </g>
     </g>
    </g>
    <g id="ytick_9">
     <g id="line2d_18">
      <g>
       <use style="stroke:#000000;stroke-width:1.875;" x="78.744" xlink:href="#m5cb223b1dd" y="35.355929"/>
      </g>
     </g>
     <g id="text_18">
      <!-- 16 -->
      <g transform="translate(45.24775 41.62464)scale(0.165 -0.165)">
       <use xlink:href="#DejaVuSans-49"/>
       <use x="63.623047" xlink:href="#DejaVuSans-54"/>
      </g>
     </g>
    </g>
    <g id="text_19">
     <!-- Enrichment - $D^2 (\alpha=0, \theta=1)$ -->
     <g transform="translate(37.504312 389.838)rotate(-90)scale(0.18 -0.18)">
      <use transform="translate(0 0.765625)" xlink:href="#DejaVuSans-69"/>
      <use transform="translate(63.183594 0.765625)" xlink:href="#DejaVuSans-110"/>
      <use transform="translate(126.5625 0.765625)" xlink:href="#DejaVuSans-114"/>
      <use transform="translate(167.675781 0.765625)" xlink:href="#DejaVuSans-105"/>
      <use transform="translate(195.458984 0.765625)" xlink:href="#DejaVuSans-99"/>
      <use transform="translate(250.439453 0.765625)" xlink:href="#DejaVuSans-104"/>
      <use transform="translate(313.818359 0.765625)" xlink:href="#DejaVuSans-109"/>
      <use transform="translate(411.230469 0.765625)" xlink:href="#DejaVuSans-101"/>
      <use transform="translate(472.753906 0.765625)" xlink:href="#DejaVuSans-110"/>
      <use transform="translate(536.132812 0.765625)" xlink:href="#DejaVuSans-116"/>
      <use transform="translate(575.341797 0.765625)" xlink:href="#DejaVuSans-32"/>
      <use transform="translate(607.128906 0.765625)" xlink:href="#DejaVuSans-45"/>
      <use transform="translate(643.212891 0.765625)" xlink:href="#DejaVuSans-32"/>
      <use transform="translate(675 0.765625)" xlink:href="#DejaVuSans-Oblique-68"/>
      <use transform="translate(759.018724 39.046875)scale(0.7)" xlink:href="#DejaVuSans-50"/>
      <use transform="translate(806.289232 0.765625)" xlink:href="#DejaVuSans-40"/>
      <use transform="translate(845.302904 0.765625)" xlink:href="#DejaVuSans-Oblique-945"/>
      <use transform="translate(930.703294 0.765625)" xlink:href="#DejaVuSans-61"/>
      <use transform="translate(1033.974779 0.765625)" xlink:href="#DejaVuSans-48"/>
      <use transform="translate(1097.597826 0.765625)" xlink:href="#DejaVuSans-44"/>
      <use transform="translate(1148.867357 0.765625)" xlink:href="#DejaVuSans-Oblique-952"/>
      <use transform="translate(1229.531419 0.765625)" xlink:href="#DejaVuSans-61"/>
      <use transform="translate(1332.802904 0.765625)" xlink:href="#DejaVuSans-49"/>
      <use transform="translate(1396.425951 0.765625)" xlink:href="#DejaVuSans-41"/>
     </g>
    </g>
   </g>
   <g id="line2d_19">
    <path clip-path="url(#p98c0dff019)" d="M 107.008364 479.281605 
L 672.295636 80.6494 
L 672.295636 80.6494 
" style="fill:none;stroke:#1f77b4;stroke-dasharray:8.325,3.6;stroke-dashoffset:0;stroke-width:2.25;"/>
   </g>
   <g id="patch_3">
    <path d="M 78.744 501.756 
L 78.744 19.44 
" style="fill:none;stroke:#000000;stroke-linecap:square;stroke-linejoin:miter;stroke-width:1.875;"/>
   </g>
   <g id="patch_4">
    <path d="M 700.56 501.756 
L 700.56 19.44 
" style="fill:none;stroke:#000000;stroke-linecap:square;stroke-linejoin:miter;stroke-width:1.875;"/>
   </g>
   <g id="patch_5">
    <path d="M 78.744 501.756 
L 700.56 501.756 
" style="fill:none;stroke:#000000;stroke-linecap:square;stroke-linejoin:miter;stroke-width:1.875;"/>
   </g>
   <g id="patch_6">
    <path d="M 78.744 19.44 
L 700.56 19.44 
" style="fill:none;stroke:#000000;stroke-linecap:square;stroke-linejoin:miter;stroke-width:1.875;"/>
   </g>
   <g id="LineCollection_3">
    <path clip-path="url(#p98c0dff019)" d="M 115.735097 474.195687 
L 118.048813 474.195687 
" style="fill:none;stroke:#666666;stroke-width:2.25;"/>
    <path clip-path="url(#p98c0dff019)" d="M 112.640107 479.281605 
L 114.344322 479.281605 
" style="fill:none;stroke:#666666;stroke-width:2.25;"/>
    <path clip-path="url(#p98c0dff019)" d="M 143.06846 450.540365 
L 145.940482 450.540365 
" style="fill:none;stroke:#666666;stroke-width:2.25;"/>
   </g>
   <g id="LineCollection_4">
    <path clip-path="url(#p98c0dff019)" d="M 116.891955 474.977724 
L 116.891955 473.413651 
" style="fill:none;stroke:#666666;stroke-width:2.25;"/>
    <path clip-path="url(#p98c0dff019)" d="M 113.492214 479.832545 
L 113.492214 478.730665 
" style="fill:none;stroke:#666666;stroke-width:2.25;"/>
    <path clip-path="url(#p98c0dff019)" d="M 144.504471 451.629529 
L 144.504471 449.4512 
" style="fill:none;stroke:#666666;stroke-width:2.25;"/>
   </g>
   <g id="LineCollection_5">
    <path clip-path="url(#p98c0dff019)" d="M 374.650609 238.48539 
L 409.154153 238.48539 
" style="fill:none;stroke:#a6761d;stroke-width:2.25;"/>
    <path clip-path="url(#p98c0dff019)" d="M 307.216648 297.906057 
L 336.449718 297.906057 
" style="fill:none;stroke:#a6761d;stroke-width:2.25;"/>
    <path clip-path="url(#p98c0dff019)" d="M 209.34743 367.606686 
L 237.566849 367.606686 
" style="fill:none;stroke:#a6761d;stroke-width:2.25;"/>
    <path clip-path="url(#p98c0dff019)" d="M 426.580785 184.704338 
L 477.995895 184.704338 
" style="fill:none;stroke:#a6761d;stroke-width:2.25;"/>
    <path clip-path="url(#p98c0dff019)" d="M 169.525855 417.710407 
L 182.199465 417.710407 
" style="fill:none;stroke:#a6761d;stroke-width:2.25;"/>
    <path clip-path="url(#p98c0dff019)" d="M 276.994736 322.572621 
L 301.363507 322.572621 
" style="fill:none;stroke:#a6761d;stroke-width:2.25;"/>
    <path clip-path="url(#p98c0dff019)" d="M 224.536403 371.072942 
L 242.734745 371.072942 
" style="fill:none;stroke:#a6761d;stroke-width:2.25;"/>
    <path clip-path="url(#p98c0dff019)" d="M 175.610583 423.101885 
L 181.44198 423.101885 
" style="fill:none;stroke:#a6761d;stroke-width:2.25;"/>
    <path clip-path="url(#p98c0dff019)" d="M 390.157531 220.725363 
L 427.958418 220.725363 
" style="fill:none;stroke:#a6761d;stroke-width:2.25;"/>
   </g>
   <g id="LineCollection_6">
    <path clip-path="url(#p98c0dff019)" d="M 391.902381 254.176158 
L 391.902381 222.794621 
" style="fill:none;stroke:#a6761d;stroke-width:2.25;"/>
    <path clip-path="url(#p98c0dff019)" d="M 321.833183 310.863711 
L 321.833183 284.948403 
" style="fill:none;stroke:#a6761d;stroke-width:2.25;"/>
    <path clip-path="url(#p98c0dff019)" d="M 223.457139 380.697534 
L 223.457139 354.515838 
" style="fill:none;stroke:#a6761d;stroke-width:2.25;"/>
    <path clip-path="url(#p98c0dff019)" d="M 452.28834 206.666743 
L 452.28834 162.741933 
" style="fill:none;stroke:#a6761d;stroke-width:2.25;"/>
    <path clip-path="url(#p98c0dff019)" d="M 175.86266 423.331646 
L 175.86266 412.089168 
" style="fill:none;stroke:#a6761d;stroke-width:2.25;"/>
    <path clip-path="url(#p98c0dff019)" d="M 289.179121 334.312363 
L 289.179121 310.832879 
" style="fill:none;stroke:#a6761d;stroke-width:2.25;"/>
    <path clip-path="url(#p98c0dff019)" d="M 233.635574 378.533037 
L 233.635574 363.612846 
" style="fill:none;stroke:#a6761d;stroke-width:2.25;"/>
    <path clip-path="url(#p98c0dff019)" d="M 178.526281 425.569817 
L 178.526281 420.633953 
" style="fill:none;stroke:#a6761d;stroke-width:2.25;"/>
    <path clip-path="url(#p98c0dff019)" d="M 409.057975 237.635301 
L 409.057975 203.815425 
" style="fill:none;stroke:#a6761d;stroke-width:2.25;"/>
   </g>
   <g id="line2d_20"/>
   <g id="line2d_21"/>
   <g id="legend_1">
    <g id="patch_7">
     <path d="M 90.294 126.9045 
L 332.284547 126.9045 
Q 335.584547 126.9045 335.584547 123.6045 
L 335.584547 30.99 
Q 335.584547 27.69 332.284547 27.69 
L 90.294 27.69 
Q 86.994 27.69 86.994 30.99 
L 86.994 123.6045 
Q 86.994 126.9045 90.294 126.9045 
z
" style="fill:#ffffff;opacity:0.8;stroke:#cccccc;stroke-linejoin:miter;stroke-width:1.5;"/>
    </g>
    <g id="text_20">
     <!-- Category of Significantly -->
     <defs>
      <path d="M 64.40625 67.28125 
L 64.40625 56.890625 
Q 59.421875 61.53125 53.78125 63.8125 
Q 48.140625 66.109375 41.796875 66.109375 
Q 29.296875 66.109375 22.65625 58.46875 
Q 16.015625 50.828125 16.015625 36.375 
Q 16.015625 21.96875 22.65625 14.328125 
Q 29.296875 6.6875 41.796875 6.6875 
Q 48.140625 6.6875 53.78125 8.984375 
Q 59.421875 11.28125 64.40625 15.921875 
L 64.40625 5.609375 
Q 59.234375 2.09375 53.4375 0.328125 
Q 47.65625 -1.421875 41.21875 -1.421875 
Q 24.65625 -1.421875 15.125 8.703125 
Q 5.609375 18.84375 5.609375 36.375 
Q 5.609375 53.953125 15.125 64.078125 
Q 24.65625 74.21875 41.21875 74.21875 
Q 47.75 74.21875 53.53125 72.484375 
Q 59.328125 70.75 64.40625 67.28125 
z
" id="DejaVuSans-67"/>
      <path d="M 34.28125 27.484375 
Q 23.390625 27.484375 19.1875 25 
Q 14.984375 22.515625 14.984375 16.5 
Q 14.984375 11.71875 18.140625 8.90625 
Q 21.296875 6.109375 26.703125 6.109375 
Q 34.1875 6.109375 38.703125 11.40625 
Q 43.21875 16.703125 43.21875 25.484375 
L 43.21875 27.484375 
z
M 52.203125 31.203125 
L 52.203125 0 
L 43.21875 0 
L 43.21875 8.296875 
Q 40.140625 3.328125 35.546875 0.953125 
Q 30.953125 -1.421875 24.3125 -1.421875 
Q 15.921875 -1.421875 10.953125 3.296875 
Q 6 8.015625 6 15.921875 
Q 6 25.140625 12.171875 29.828125 
Q 18.359375 34.515625 30.609375 34.515625 
L 43.21875 34.515625 
L 43.21875 35.40625 
Q 43.21875 41.609375 39.140625 45 
Q 35.0625 48.390625 27.6875 48.390625 
Q 23 48.390625 18.546875 47.265625 
Q 14.109375 46.140625 10.015625 43.890625 
L 10.015625 52.203125 
Q 14.9375 54.109375 19.578125 55.046875 
Q 24.21875 56 28.609375 56 
Q 40.484375 56 46.34375 49.84375 
Q 52.203125 43.703125 52.203125 31.203125 
z
" id="DejaVuSans-97"/>
      <path d="M 45.40625 27.984375 
Q 45.40625 37.75 41.375 43.109375 
Q 37.359375 48.484375 30.078125 48.484375 
Q 22.859375 48.484375 18.828125 43.109375 
Q 14.796875 37.75 14.796875 27.984375 
Q 14.796875 18.265625 18.828125 12.890625 
Q 22.859375 7.515625 30.078125 7.515625 
Q 37.359375 7.515625 41.375 12.890625 
Q 45.40625 18.265625 45.40625 27.984375 
z
M 54.390625 6.78125 
Q 54.390625 -7.171875 48.1875 -13.984375 
Q 42 -20.796875 29.203125 -20.796875 
Q 24.46875 -20.796875 20.265625 -20.09375 
Q 16.0625 -19.390625 12.109375 -17.921875 
L 12.109375 -9.1875 
Q 16.0625 -11.328125 19.921875 -12.34375 
Q 23.78125 -13.375 27.78125 -13.375 
Q 36.625 -13.375 41.015625 -8.765625 
Q 45.40625 -4.15625 45.40625 5.171875 
L 45.40625 9.625 
Q 42.625 4.78125 38.28125 2.390625 
Q 33.9375 0 27.875 0 
Q 17.828125 0 11.671875 7.65625 
Q 5.515625 15.328125 5.515625 27.984375 
Q 5.515625 40.671875 11.671875 48.328125 
Q 17.828125 56 27.875 56 
Q 33.9375 56 38.28125 53.609375 
Q 42.625 51.21875 45.40625 46.390625 
L 45.40625 54.6875 
L 54.390625 54.6875 
z
" id="DejaVuSans-103"/>
      <path d="M 30.609375 48.390625 
Q 23.390625 48.390625 19.1875 42.75 
Q 14.984375 37.109375 14.984375 27.296875 
Q 14.984375 17.484375 19.15625 11.84375 
Q 23.34375 6.203125 30.609375 6.203125 
Q 37.796875 6.203125 41.984375 11.859375 
Q 46.1875 17.53125 46.1875 27.296875 
Q 46.1875 37.015625 41.984375 42.703125 
Q 37.796875 48.390625 30.609375 48.390625 
z
M 30.609375 56 
Q 42.328125 56 49.015625 48.375 
Q 55.71875 40.765625 55.71875 27.296875 
Q 55.71875 13.875 49.015625 6.21875 
Q 42.328125 -1.421875 30.609375 -1.421875 
Q 18.84375 -1.421875 12.171875 6.21875 
Q 5.515625 13.875 5.515625 27.296875 
Q 5.515625 40.765625 12.171875 48.375 
Q 18.84375 56 30.609375 56 
z
" id="DejaVuSans-111"/>
      <path d="M 32.171875 -5.078125 
Q 28.375 -14.84375 24.75 -17.8125 
Q 21.140625 -20.796875 15.09375 -20.796875 
L 7.90625 -20.796875 
L 7.90625 -13.28125 
L 13.1875 -13.28125 
Q 16.890625 -13.28125 18.9375 -11.515625 
Q 21 -9.765625 23.484375 -3.21875 
L 25.09375 0.875 
L 2.984375 54.6875 
L 12.5 54.6875 
L 29.59375 11.921875 
L 46.6875 54.6875 
L 56.203125 54.6875 
z
" id="DejaVuSans-121"/>
      <path d="M 37.109375 75.984375 
L 37.109375 68.5 
L 28.515625 68.5 
Q 23.6875 68.5 21.796875 66.546875 
Q 19.921875 64.59375 19.921875 59.515625 
L 19.921875 54.6875 
L 34.71875 54.6875 
L 34.71875 47.703125 
L 19.921875 47.703125 
L 19.921875 0 
L 10.890625 0 
L 10.890625 47.703125 
L 2.296875 47.703125 
L 2.296875 54.6875 
L 10.890625 54.6875 
L 10.890625 58.5 
Q 10.890625 67.625 15.140625 71.796875 
Q 19.390625 75.984375 28.609375 75.984375 
z
" id="DejaVuSans-102"/>
      <path d="M 53.515625 70.515625 
L 53.515625 60.890625 
Q 47.90625 63.578125 42.921875 64.890625 
Q 37.9375 66.21875 33.296875 66.21875 
Q 25.25 66.21875 20.875 63.09375 
Q 16.5 59.96875 16.5 54.203125 
Q 16.5 49.359375 19.40625 46.890625 
Q 22.3125 44.4375 30.421875 42.921875 
L 36.375 41.703125 
Q 47.40625 39.59375 52.65625 34.296875 
Q 57.90625 29 57.90625 20.125 
Q 57.90625 9.515625 50.796875 4.046875 
Q 43.703125 -1.421875 29.984375 -1.421875 
Q 24.8125 -1.421875 18.96875 -0.25 
Q 13.140625 0.921875 6.890625 3.21875 
L 6.890625 13.375 
Q 12.890625 10.015625 18.65625 8.296875 
Q 24.421875 6.59375 29.984375 6.59375 
Q 38.421875 6.59375 43.015625 9.90625 
Q 47.609375 13.234375 47.609375 19.390625 
Q 47.609375 24.75 44.3125 27.78125 
Q 41.015625 30.8125 33.5 32.328125 
L 27.484375 33.5 
Q 16.453125 35.6875 11.515625 40.375 
Q 6.59375 45.0625 6.59375 53.421875 
Q 6.59375 63.09375 13.40625 68.65625 
Q 20.21875 74.21875 32.171875 74.21875 
Q 37.3125 74.21875 42.625 73.28125 
Q 47.953125 72.359375 53.515625 70.515625 
z
" id="DejaVuSans-83"/>
      <path d="M 9.421875 75.984375 
L 18.40625 75.984375 
L 18.40625 0 
L 9.421875 0 
z
" id="DejaVuSans-108"/>
     </defs>
     <g transform="translate(100.457086 47.967188)scale(0.18 -0.18)">
      <use xlink:href="#DejaVuSans-67"/>
      <use x="69.824219" xlink:href="#DejaVuSans-97"/>
      <use x="131.103516" xlink:href="#DejaVuSans-116"/>
      <use x="170.3125" xlink:href="#DejaVuSans-101"/>
      <use x="231.835938" xlink:href="#DejaVuSans-103"/>
      <use x="295.3125" xlink:href="#DejaVuSans-111"/>
      <use x="356.494141" xlink:href="#DejaVuSans-114"/>
      <use x="397.607422" xlink:href="#DejaVuSans-121"/>
      <use x="456.787109" xlink:href="#DejaVuSans-32"/>
      <use x="488.574219" xlink:href="#DejaVuSans-111"/>
      <use x="549.755859" xlink:href="#DejaVuSans-102"/>
      <use x="584.960938" xlink:href="#DejaVuSans-32"/>
      <use x="616.748047" xlink:href="#DejaVuSans-83"/>
      <use x="680.224609" xlink:href="#DejaVuSans-105"/>
      <use x="708.007812" xlink:href="#DejaVuSans-103"/>
      <use x="771.484375" xlink:href="#DejaVuSans-110"/>
      <use x="834.863281" xlink:href="#DejaVuSans-105"/>
      <use x="862.646484" xlink:href="#DejaVuSans-102"/>
      <use x="897.851562" xlink:href="#DejaVuSans-105"/>
      <use x="925.634766" xlink:href="#DejaVuSans-99"/>
      <use x="980.615234" xlink:href="#DejaVuSans-97"/>
      <use x="1041.894531" xlink:href="#DejaVuSans-110"/>
      <use x="1105.273438" xlink:href="#DejaVuSans-116"/>
      <use x="1144.482422" xlink:href="#DejaVuSans-108"/>
      <use x="1172.265625" xlink:href="#DejaVuSans-121"/>
     </g>
     <!-- Divergent Estimates -->
     <defs>
      <path d="M 19.671875 64.796875 
L 19.671875 8.109375 
L 31.59375 8.109375 
Q 46.6875 8.109375 53.6875 14.9375 
Q 60.6875 21.78125 60.6875 36.53125 
Q 60.6875 51.171875 53.6875 57.984375 
Q 46.6875 64.796875 31.59375 64.796875 
z
M 9.8125 72.90625 
L 30.078125 72.90625 
Q 51.265625 72.90625 61.171875 64.09375 
Q 71.09375 55.28125 71.09375 36.53125 
Q 71.09375 17.671875 61.125 8.828125 
Q 51.171875 0 30.078125 0 
L 9.8125 0 
z
" id="DejaVuSans-68"/>
      <path d="M 2.984375 54.6875 
L 12.5 54.6875 
L 29.59375 8.796875 
L 46.6875 54.6875 
L 56.203125 54.6875 
L 35.6875 0 
L 23.484375 0 
z
" id="DejaVuSans-118"/>
      <path d="M 44.28125 53.078125 
L 44.28125 44.578125 
Q 40.484375 46.53125 36.375 47.5 
Q 32.28125 48.484375 27.875 48.484375 
Q 21.1875 48.484375 17.84375 46.4375 
Q 14.5 44.390625 14.5 40.28125 
Q 14.5 37.15625 16.890625 35.375 
Q 19.28125 33.59375 26.515625 31.984375 
L 29.59375 31.296875 
Q 39.15625 29.25 43.1875 25.515625 
Q 47.21875 21.78125 47.21875 15.09375 
Q 47.21875 7.46875 41.1875 3.015625 
Q 35.15625 -1.421875 24.609375 -1.421875 
Q 20.21875 -1.421875 15.453125 -0.5625 
Q 10.6875 0.296875 5.421875 2 
L 5.421875 11.28125 
Q 10.40625 8.6875 15.234375 7.390625 
Q 20.0625 6.109375 24.8125 6.109375 
Q 31.15625 6.109375 34.5625 8.28125 
Q 37.984375 10.453125 37.984375 14.40625 
Q 37.984375 18.0625 35.515625 20.015625 
Q 33.0625 21.96875 24.703125 23.78125 
L 21.578125 24.515625 
Q 13.234375 26.265625 9.515625 29.90625 
Q 5.8125 33.546875 5.8125 39.890625 
Q 5.8125 47.609375 11.28125 51.796875 
Q 16.75 56 26.8125 56 
Q 31.78125 56 36.171875 55.265625 
Q 40.578125 54.546875 44.28125 53.078125 
z
" id="DejaVuSans-115"/>
     </defs>
     <g transform="translate(100.457086 68.12325)scale(0.18 -0.18)">
      <use xlink:href="#DejaVuSans-68"/>
      <use x="77.001953" xlink:href="#DejaVuSans-105"/>
      <use x="104.785156" xlink:href="#DejaVuSans-118"/>
      <use x="163.964844" xlink:href="#DejaVuSans-101"/>
      <use x="225.488281" xlink:href="#DejaVuSans-114"/>
      <use x="264.851562" xlink:href="#DejaVuSans-103"/>
      <use x="328.328125" xlink:href="#DejaVuSans-101"/>
      <use x="389.851562" xlink:href="#DejaVuSans-110"/>
      <use x="453.230469" xlink:href="#DejaVuSans-116"/>
      <use x="492.439453" xlink:href="#DejaVuSans-32"/>
      <use x="524.226562" xlink:href="#DejaVuSans-69"/>
      <use x="587.410156" xlink:href="#DejaVuSans-115"/>
      <use x="639.509766" xlink:href="#DejaVuSans-116"/>
      <use x="678.71875" xlink:href="#DejaVuSans-105"/>
      <use x="706.501953" xlink:href="#DejaVuSans-109"/>
      <use x="803.914062" xlink:href="#DejaVuSans-97"/>
      <use x="865.193359" xlink:href="#DejaVuSans-116"/>
      <use x="904.402344" xlink:href="#DejaVuSans-101"/>
      <use x="965.925781" xlink:href="#DejaVuSans-115"/>
     </g>
    </g>
    <g id="LineCollection_7">
     <path d="M 101.844 86.879109 
L 118.344 86.879109 
" style="fill:none;stroke:#666666;stroke-width:2.25;"/>
    </g>
    <g id="LineCollection_8">
     <path d="M 110.094 95.129109 
L 110.094 78.629109 
" style="fill:none;stroke:#666666;stroke-width:2.25;"/>
    </g>
    <g id="line2d_22"/>
    <g id="line2d_23"/>
    <g id="text_21">
     <!-- MAF Bins -->
     <defs>
      <path d="M 9.8125 72.90625 
L 24.515625 72.90625 
L 43.109375 23.296875 
L 61.8125 72.90625 
L 76.515625 72.90625 
L 76.515625 0 
L 66.890625 0 
L 66.890625 64.015625 
L 48.09375 14.015625 
L 38.1875 14.015625 
L 19.390625 64.015625 
L 19.390625 0 
L 9.8125 0 
z
" id="DejaVuSans-77"/>
      <path d="M 34.1875 63.1875 
L 20.796875 26.90625 
L 47.609375 26.90625 
z
M 28.609375 72.90625 
L 39.796875 72.90625 
L 67.578125 0 
L 57.328125 0 
L 50.6875 18.703125 
L 17.828125 18.703125 
L 11.1875 0 
L 0.78125 0 
z
" id="DejaVuSans-65"/>
      <path d="M 9.8125 72.90625 
L 51.703125 72.90625 
L 51.703125 64.59375 
L 19.671875 64.59375 
L 19.671875 43.109375 
L 48.578125 43.109375 
L 48.578125 34.8125 
L 19.671875 34.8125 
L 19.671875 0 
L 9.8125 0 
z
" id="DejaVuSans-70"/>
      <path d="M 19.671875 34.8125 
L 19.671875 8.109375 
L 35.5 8.109375 
Q 43.453125 8.109375 47.28125 11.40625 
Q 51.125 14.703125 51.125 21.484375 
Q 51.125 28.328125 47.28125 31.5625 
Q 43.453125 34.8125 35.5 34.8125 
z
M 19.671875 64.796875 
L 19.671875 42.828125 
L 34.28125 42.828125 
Q 41.5 42.828125 45.03125 45.53125 
Q 48.578125 48.25 48.578125 53.8125 
Q 48.578125 59.328125 45.03125 62.0625 
Q 41.5 64.796875 34.28125 64.796875 
z
M 9.8125 72.90625 
L 35.015625 72.90625 
Q 46.296875 72.90625 52.390625 68.21875 
Q 58.5 63.53125 58.5 54.890625 
Q 58.5 48.1875 55.375 44.234375 
Q 52.25 40.28125 46.1875 39.3125 
Q 53.46875 37.75 57.5 32.78125 
Q 61.53125 27.828125 61.53125 20.40625 
Q 61.53125 10.640625 54.890625 5.3125 
Q 48.25 0 35.984375 0 
L 9.8125 0 
z
" id="DejaVuSans-66"/>
     </defs>
     <g transform="translate(139.794 92.654109)scale(0.165 -0.165)">
      <use xlink:href="#DejaVuSans-77"/>
      <use x="86.279297" xlink:href="#DejaVuSans-65"/>
      <use x="154.6875" xlink:href="#DejaVuSans-70"/>
      <use x="212.207031" xlink:href="#DejaVuSans-32"/>
      <use x="243.994141" xlink:href="#DejaVuSans-66"/>
      <use x="312.597656" xlink:href="#DejaVuSans-105"/>
      <use x="340.380859" xlink:href="#DejaVuSans-110"/>
      <use x="403.759766" xlink:href="#DejaVuSans-115"/>
     </g>
    </g>
    <g id="LineCollection_9">
     <path d="M 101.844 111.098016 
L 118.344 111.098016 
" style="fill:none;stroke:#a6761d;stroke-width:2.25;"/>
    </g>
    <g id="LineCollection_10">
     <path d="M 110.094 119.348016 
L 110.094 102.848016 
" style="fill:none;stroke:#a6761d;stroke-width:2.25;"/>
    </g>
    <g id="line2d_24"/>
    <g id="line2d_25"/>
    <g id="text_22">
     <!-- Functional Annotations -->
     <defs>
      <path d="M 8.5 21.578125 
L 8.5 54.6875 
L 17.484375 54.6875 
L 17.484375 21.921875 
Q 17.484375 14.15625 20.5 10.265625 
Q 23.53125 6.390625 29.59375 6.390625 
Q 36.859375 6.390625 41.078125 11.03125 
Q 45.3125 15.671875 45.3125 23.6875 
L 45.3125 54.6875 
L 54.296875 54.6875 
L 54.296875 0 
L 45.3125 0 
L 45.3125 8.40625 
Q 42.046875 3.421875 37.71875 1 
Q 33.40625 -1.421875 27.6875 -1.421875 
Q 18.265625 -1.421875 13.375 4.4375 
Q 8.5 10.296875 8.5 21.578125 
z
M 31.109375 56 
z
" id="DejaVuSans-117"/>
     </defs>
     <g transform="translate(139.794 116.873016)scale(0.165 -0.165)">
      <use xlink:href="#DejaVuSans-70"/>
      <use x="52.019531" xlink:href="#DejaVuSans-117"/>
      <use x="115.398438" xlink:href="#DejaVuSans-110"/>
      <use x="178.777344" xlink:href="#DejaVuSans-99"/>
      <use x="233.757812" xlink:href="#DejaVuSans-116"/>
      <use x="272.966797" xlink:href="#DejaVuSans-105"/>
      <use x="300.75" xlink:href="#DejaVuSans-111"/>
      <use x="361.931641" xlink:href="#DejaVuSans-110"/>
      <use x="425.310547" xlink:href="#DejaVuSans-97"/>
      <use x="486.589844" xlink:href="#DejaVuSans-108"/>
      <use x="514.373047" xlink:href="#DejaVuSans-32"/>
      <use x="546.160156" xlink:href="#DejaVuSans-65"/>
      <use x="614.568359" xlink:href="#DejaVuSans-110"/>
      <use x="677.947266" xlink:href="#DejaVuSans-110"/>
      <use x="741.326172" xlink:href="#DejaVuSans-111"/>
      <use x="802.507812" xlink:href="#DejaVuSans-116"/>
      <use x="841.716797" xlink:href="#DejaVuSans-97"/>
      <use x="902.996094" xlink:href="#DejaVuSans-116"/>
      <use x="942.205078" xlink:href="#DejaVuSans-105"/>
      <use x="969.988281" xlink:href="#DejaVuSans-111"/>
      <use x="1031.169922" xlink:href="#DejaVuSans-110"/>
      <use x="1094.548828" xlink:href="#DejaVuSans-115"/>
     </g>
    </g>
   </g>
  </g>
 </g>
 <defs>
  <clipPath id="p98c0dff019">
   <rect height="482.316" width="621.816" x="78.744" y="19.44"/>
  </clipPath>
 </defs>
</svg>
